<svg width="185" height="161" viewBox="0 0 185 161" fill="none" xmlns="http://www.w3.org/2000/svg">
<path d="M143.397 160.041L144.063 139.707L128.851 137.401L127.882 160.284" fill="white"/>
<path d="M127.882 160.588C127.7 160.588 127.579 160.466 127.579 160.284L128.488 137.401C128.488 137.34 128.548 137.219 128.609 137.158C128.669 137.098 128.791 137.098 128.851 137.098L144.124 139.404C144.306 139.404 144.366 139.586 144.366 139.708L143.7 160.042C143.7 160.224 143.579 160.345 143.397 160.345C143.215 160.345 143.094 160.224 143.094 160.042L143.76 140.011L129.094 137.765L128.185 160.284C128.185 160.466 128.063 160.588 127.882 160.588Z" fill="#231F20"/>
<path d="M69.0328 151.301L86.4268 130.603L102.063 134.366L82.1844 154.761" fill="white"/>
<path d="M82.1843 155.064C82.1237 155.064 82.0025 155.003 81.9419 154.943C81.8207 154.821 81.8207 154.639 81.9419 154.518L101.397 134.548L86.4874 130.906L69.1539 151.483C69.0327 151.604 68.8509 151.604 68.7297 151.544C68.6085 151.422 68.6085 151.24 68.6691 151.119L86.1237 130.421C86.1843 130.36 86.3055 130.299 86.4268 130.299L102.003 134.123C102.124 134.123 102.184 134.245 102.245 134.366C102.245 134.487 102.245 134.609 102.184 134.67L82.4267 154.943C82.3661 155.003 82.2449 155.064 82.1843 155.064Z" fill="#231F20"/>
<path d="M136.609 47.0825C136.609 47.0825 112.912 53.5772 113.154 54.4877C113.397 55.3982 118.003 72.515 118.003 72.515L132.791 68.8124L136.609 47.0825Z" fill="black"/>
<path d="M137.033 46.9002C137.033 46.9002 129.518 48.9032 124.912 51.5739C120.306 54.2447 121.578 82.5906 121.578 82.5906L155.76 89.5102C155.76 89.5102 162.245 71.1187 161.821 62.6817C161.397 54.2447 156.185 42.3479 137.033 46.9002Z" fill="black"/>
<path d="M120.063 68.8124C120.003 68.8124 120.003 68.8124 119.942 68.8124C119.76 68.7517 119.7 68.5696 119.76 68.3875C122.003 62.8639 125.336 54.4876 125.457 53.8806C125.457 53.6985 125.579 53.5771 125.76 53.5771C125.942 53.5771 126.063 53.6985 126.063 53.8806C126.063 54.4269 122.063 64.3814 120.306 68.5696C120.306 68.7517 120.185 68.8124 120.063 68.8124Z" fill="#231F20"/>
<path d="M139.154 43.4405L136.73 50.7242C136.73 50.7242 136.669 55.0338 141.457 54.6696C144.306 54.4268 146.912 52.9094 148.548 50.4815L150.548 37.4921C149.821 36.8244 149.336 35.9746 149.215 35.0035C149.094 34.2751 149.154 33.5467 149.276 32.8183C149.518 31.8472 149.882 30.9367 150.366 30.0869C148.063 29.7227 146.003 28.6302 144.427 26.9306C144.063 26.5057 143.7 26.0201 143.397 25.5346C143.276 25.2918 140.245 26.7485 139.882 26.8699C138.306 27.5376 136.972 28.6909 136.063 30.0869C135.457 31.3009 135.033 32.6362 134.912 34.0323C134.548 35.9139 134.366 37.8563 134.366 39.7379C134.427 43.4405 139.154 43.4405 139.154 43.4405Z" fill="white"/>
<path d="M140.851 54.9734C139.7 55.0341 138.609 54.6699 137.76 53.8809C136.912 53.0311 136.488 51.8778 136.427 50.7246V50.6639L138.73 43.7443C137.579 43.6229 134.063 43.0159 134.063 39.7989C134.063 37.8566 134.245 35.9143 134.609 34.0326C134.791 32.6366 135.215 31.2405 135.821 29.9658C136.791 28.5091 138.124 27.3558 139.7 26.6275C143.215 24.8672 143.457 25.2314 143.579 25.4135C143.579 25.4135 144.185 26.3847 144.609 26.8096C146.124 28.4484 148.124 29.541 150.366 29.9052C150.488 29.9052 150.609 30.0872 150.609 30.2086V30.2693C150.124 31.1191 149.76 32.0296 149.579 32.9401C149.457 33.6077 149.397 34.3361 149.518 35.0038C149.639 35.9143 150.063 36.7033 150.73 37.3103C150.791 37.371 150.851 37.4924 150.851 37.5531L148.851 50.5425C148.851 50.6032 148.851 50.6032 148.791 50.6639C147.154 53.1525 144.488 54.7306 141.518 54.9734C141.276 54.9734 141.033 54.9734 140.851 54.9734ZM137.033 50.7853C137.033 51.8171 137.457 52.7883 138.185 53.5167C139.094 54.2451 140.306 54.6092 141.457 54.4272C144.185 54.1844 146.67 52.7276 148.245 50.4211L150.245 37.6138C149.518 36.9461 149.094 36.0357 148.973 35.0645C148.851 34.3361 148.851 33.547 149.033 32.8187C149.215 31.9689 149.518 31.1191 149.942 30.33C147.76 29.9052 145.76 28.8126 144.245 27.1737C143.942 26.8096 143.457 26.0812 143.276 25.8384C142.185 26.2026 141.094 26.6882 140.063 27.1737C138.548 27.8414 137.276 28.934 136.366 30.33C135.76 31.544 135.336 32.8187 135.215 34.2147C134.851 36.0964 134.669 37.978 134.669 39.8596C134.73 43.198 138.973 43.2587 139.154 43.3194C139.215 43.3194 139.336 43.3801 139.397 43.4408C139.457 43.5015 139.457 43.6229 139.457 43.6836L137.033 50.7853Z" fill="#231F20"/>
<path d="M148.003 36.3388C148.245 35.7925 148.609 35.3677 149.094 35.1249C149.579 34.8821 150.063 34.7 150.609 34.6393C150.912 34.5786 151.215 34.5786 151.457 34.6393C151.639 34.7 151.821 34.8214 152.003 34.9428C152.427 35.2463 152.67 35.6104 152.791 36.096C152.851 36.4602 152.791 36.8851 152.67 37.2493C152.548 37.6742 152.367 38.0384 152.185 38.4025C151.215 39.92 149.276 40.3449 147.76 39.4344C147.76 39.4344 147.76 39.4344 147.7 39.4344" fill="white"/>
<path d="M149.457 40.1022C148.791 40.1022 148.124 39.9201 147.579 39.5559C147.457 39.4952 147.457 39.3131 147.518 39.1917C147.579 39.0703 147.76 39.0703 147.821 39.131C148.488 39.5559 149.276 39.738 150.063 39.5559C150.851 39.3738 151.518 38.8883 151.882 38.2206C152.064 37.8564 152.245 37.4922 152.367 37.128C152.488 36.8245 152.548 36.4603 152.488 36.0961C152.367 35.6713 152.124 35.3071 151.76 35.0643C151.639 34.9429 151.457 34.8822 151.276 34.8215C151.033 34.7608 150.791 34.7608 150.548 34.8215C150.063 34.8822 149.579 35.0643 149.094 35.3071C148.67 35.5499 148.306 35.9747 148.063 36.4603C148.003 36.5817 147.882 36.6424 147.76 36.5817C147.639 36.521 147.579 36.3996 147.639 36.2782C147.882 35.6713 148.306 35.1857 148.851 34.8822C149.336 34.6394 149.882 34.4573 150.427 34.3966C150.73 34.3359 151.094 34.3359 151.397 34.3966C151.639 34.4573 151.821 34.5787 152.003 34.7608C152.427 35.0643 152.791 35.5499 152.912 36.0961C152.973 36.521 152.912 36.9459 152.791 37.3708C152.67 37.7957 152.488 38.2206 152.245 38.5848C151.76 39.3738 150.973 39.9201 150.063 40.1022C150.003 40.0415 149.76 40.1022 149.457 40.1022Z" fill="#231F20"/>
<path d="M137.942 47.3252C139.7 47.5073 141.457 47.0824 142.912 46.1113C145.276 44.4724 145.397 42.4087 145.397 42.4087C143.457 43.2585 141.336 43.6226 139.154 43.5013L137.942 47.3252Z" fill="#231F20"/>
<path d="M138.609 47.6286C138.366 47.6286 138.124 47.6286 137.882 47.5679C137.76 47.5679 137.639 47.3858 137.639 47.2644V47.2037L138.851 43.3798C138.912 43.2584 138.972 43.1977 139.094 43.1977C141.154 43.3191 143.276 42.8942 145.154 42.1051C145.215 42.0444 145.336 42.0444 145.397 42.1051C145.457 42.1658 145.518 42.2265 145.518 42.3479C145.518 42.4693 145.397 44.5937 142.972 46.2933C141.76 47.143 140.185 47.6286 138.609 47.6286ZM138.245 47.0823C139.821 47.143 141.397 46.7181 142.73 45.8684C143.821 45.14 144.609 44.0474 144.972 42.8335C143.154 43.5618 141.276 43.8653 139.336 43.8046L138.245 47.0823Z" fill="#231F20"/>
<path d="M142.366 30.9976C142.366 30.9976 139.275 34.0932 139.7 34.8215C140.124 35.5499 141.821 35.4285 141.821 35.4285" fill="white"/>
<path d="M141.639 35.7924C141.094 35.7924 139.942 35.7317 139.518 35.0033C139.033 34.1536 141.215 31.7863 142.185 30.8152C142.306 30.6938 142.488 30.6938 142.548 30.8152C142.67 30.9366 142.67 31.1187 142.548 31.1794C140.973 32.7575 139.76 34.3357 139.942 34.6998C140.245 35.1854 141.397 35.2461 141.76 35.1854C141.882 35.1854 142.063 35.3068 142.063 35.4282C142.063 35.5496 141.942 35.7317 141.821 35.7317L141.639 35.7924Z" fill="#231F20"/>
<path d="M137.639 37.3102L143.639 37.2495C143.639 37.2495 143.397 41.3163 139.882 41.5591C136.366 41.7412 137.639 37.3102 137.639 37.3102Z" fill="#231F20"/>
<path d="M143.76 30.9976C143.942 30.6334 144.245 30.3906 144.609 30.3906C145.276 30.2692 145.639 31.0583 145.639 31.0583" fill="white"/>
<path d="M145.7 31.3618C145.579 31.3618 145.518 31.3011 145.457 31.1797C145.457 31.1797 145.215 30.5727 144.73 30.6334C144.427 30.6334 144.185 30.8155 144.063 31.119C144.003 31.2404 143.882 31.3618 143.7 31.3011C143.579 31.2404 143.518 31.119 143.518 30.9369C143.7 30.512 144.124 30.1478 144.609 30.1478C145.518 30.0265 145.942 30.9369 145.942 30.9976C146.003 31.119 145.942 31.3011 145.821 31.3618H145.7Z" fill="#231F20"/>
<path d="M138.245 30.5118C138.427 30.1476 138.73 29.9048 139.094 29.9048C139.76 29.7834 140.124 30.5725 140.124 30.5725" fill="white"/>
<path d="M140.124 30.8154C140.003 30.8154 139.942 30.7547 139.882 30.6333C139.882 30.6333 139.639 30.0263 139.154 30.087C138.851 30.087 138.609 30.2691 138.488 30.5726C138.427 30.694 138.306 30.8154 138.124 30.7547C138.003 30.694 137.942 30.5726 137.942 30.3905C138.124 29.9656 138.548 29.6015 139.033 29.6015C139.942 29.4801 140.366 30.3905 140.366 30.4512C140.427 30.5726 140.366 30.7547 140.245 30.8154C140.185 30.8154 140.185 30.8154 140.124 30.8154Z" fill="#231F20"/>
<path d="M155.094 89.0858L150.185 154.518L68.7903 137.887L122.912 82.2876L155.094 89.0858Z" fill="#231F20"/>
<path d="M120.063 41.0736L24.4265 57.0372L66.4873 14.2451L120.063 41.0736Z" fill="#231F20"/>
<path d="M24.4265 57.3403C24.2447 57.3403 24.1234 57.2189 24.1234 57.0368C24.1234 56.9761 24.1841 56.8547 24.1841 56.794L66.2449 14.0019C66.3661 13.8805 66.4873 13.8805 66.6085 13.9412L120.124 40.7698C120.245 40.8305 120.306 40.9519 120.306 41.0733C120.306 41.1947 120.185 41.316 120.063 41.316L24.4265 57.3403ZM66.5479 14.6089L25.3356 56.5513L119.033 40.8912L66.5479 14.6089Z" fill="#231F20"/>
<path d="M128.851 105.292L38.6689 121.559L24.5476 57.6438L120.124 41.6802L128.851 105.292Z" fill="#231F20"/>
<path d="M38.6689 121.863C38.5477 121.863 38.4265 121.741 38.3659 121.62L24.2446 57.7047C24.2446 57.644 24.2446 57.5226 24.3052 57.4619C24.3658 57.4012 24.4264 57.3405 24.4871 57.3405L120.063 41.377C120.124 41.377 120.245 41.377 120.306 41.4377C120.366 41.4984 120.427 41.559 120.427 41.6197L129.154 105.292C129.154 105.474 129.094 105.595 128.912 105.656L38.6689 121.863ZM24.9113 57.8868L38.9114 121.256L128.488 105.11L119.881 42.0446L24.9113 57.8868Z" fill="#231F20"/>
<path d="M46.2448 100.375C46.2448 100.375 29.6386 49.0246 21.6386 33.4252L110.669 9.146L116.185 88.5997L46.2448 100.375Z" fill="#E8521F"/>
<path d="M37.275 42.4087C37.1538 42.4087 37.0326 42.2874 36.972 42.166C36.9114 41.9839 37.0326 41.8625 37.2144 41.8018L102.669 24.8063C102.851 24.7456 103.033 24.867 103.033 25.0491C103.033 25.2312 102.972 25.4133 102.791 25.4133L37.3356 42.4087H37.275Z" fill="white"/>
<path d="M40.0023 53.1524C39.8811 53.1524 39.7599 53.031 39.6993 52.9096C39.6387 52.7276 39.7599 52.6062 39.9417 52.5455L103.336 38.2814C103.518 38.2207 103.7 38.3421 103.7 38.5242C103.76 38.7063 103.639 38.8884 103.457 38.8884L40.1235 53.1524H40.0023Z" fill="white"/>
<path d="M45.4569 63.2283C45.3357 63.2283 45.1539 63.1069 45.1539 62.9855C45.0933 62.8034 45.2145 62.682 45.3963 62.6213L106.003 50.8459C106.184 50.7852 106.306 50.9066 106.366 51.0887C106.427 51.2708 106.306 51.3922 106.124 51.4528L45.4569 63.2283Z" fill="white"/>
<path d="M48.366 76.0961C48.1841 76.0961 48.0629 75.9747 48.0629 75.7926C48.0629 75.6105 48.1841 75.4891 48.366 75.4891L105.881 66.1416C106.063 66.1416 106.184 66.2023 106.245 66.3844C106.245 66.5665 106.184 66.6879 106.003 66.7486L48.366 76.0961Z" fill="white"/>
<path d="M78.6691 82.3479L24.5476 57.6438L38.6689 121.559L128.851 105.292L120.124 41.6802L78.6691 82.3479Z" fill="white"/>
<path d="M38.669 121.863C38.5478 121.863 38.4266 121.741 38.366 121.62L24.2447 57.7048C24.1841 57.5227 24.3053 57.4013 24.4871 57.3406C24.5477 57.3406 24.6083 57.3406 24.6689 57.3406L78.548 81.984L119.882 41.4377C120.003 41.3163 120.185 41.3163 120.306 41.4377C120.366 41.4984 120.366 41.5591 120.366 41.6198L129.094 105.292C129.094 105.474 129.033 105.596 128.851 105.656L38.669 121.863ZM24.972 58.1297L38.9114 121.195L128.488 105.049L119.882 42.2875L78.851 82.5303C78.7298 82.591 78.6086 82.6517 78.4874 82.591L24.972 58.1297Z" fill="#231F20"/>
<path d="M128.851 105.292L38.6689 121.559L78.6691 82.3481L128.851 105.292Z" fill="white"/>
<path d="M38.6689 121.863C38.5477 121.863 38.4265 121.802 38.3659 121.68C38.3053 121.559 38.3053 121.438 38.4265 121.316L78.4267 82.1054C78.5479 82.0447 78.6691 81.984 78.7903 82.0447L128.972 104.989C129.094 105.049 129.154 105.171 129.154 105.292C129.154 105.413 129.033 105.535 128.912 105.535L38.6689 121.863ZM78.7297 82.7124L39.6386 121.073L127.881 105.171L78.7297 82.7124Z" fill="#231F20"/>
<path d="M128.851 105.292L38.6689 121.559L78.6691 82.3481L128.851 105.292Z" fill="white"/>
<path d="M38.6689 121.863C38.5477 121.863 38.4265 121.802 38.3659 121.68C38.3053 121.559 38.3053 121.438 38.4265 121.316L78.4267 82.1054C78.5479 82.0447 78.6691 81.984 78.7903 82.0447L128.972 104.989C129.094 105.049 129.154 105.171 129.154 105.292C129.154 105.413 129.033 105.535 128.912 105.535L38.6689 121.863ZM78.7297 82.7124L39.6386 121.073L127.881 105.171L78.7297 82.7124Z" fill="#231F20"/>
<path d="M122.609 17.2188C122.609 17.2188 121.275 22.1353 117.154 22.2567C117.154 22.2567 121.518 23.4706 122.427 27.5981C123.275 25.2916 125.154 23.5313 127.518 22.8637C125.094 21.8318 123.275 19.7074 122.609 17.2188Z" fill="#D1D3D4"/>
<path d="M3.69907 54.6697C3.69907 54.6697 7.03242 59.4042 4.0627 63.0461C4.0627 63.0461 8.30515 60.1326 12.487 62.3784C11.093 60.0112 10.9718 57.037 12.0627 54.5483C12.1234 54.5483 8.54758 56.7335 3.69907 54.6697Z" fill="#D1D3D4"/>
<path d="M33.3356 16.0659C33.3356 16.0659 34.0023 24.3208 27.8205 26.7488C27.8205 26.7488 35.1538 26.2025 38.7902 31.9688C38.7902 31.9688 38.5478 25.6562 43.9418 21.9536C43.8205 22.0143 37.8205 22.075 33.3356 16.0659Z" fill="#D1D3D4"/>
<path d="M151.76 57.583C151.76 57.583 103.942 81.8622 96.6692 83.2583C89.3965 84.6543 80.7298 82.2264 81.0934 84.2901C81.457 86.3539 85.5783 87.3857 85.5783 87.3857C85.5783 87.3857 72.4267 89.4495 73.0934 90.8455C73.76 92.2416 82.4267 90.4813 82.4267 90.4813C82.4267 90.4813 71.6994 93.5769 74.1237 94.973C76.5479 96.369 84.1843 93.2128 84.1843 93.2128C84.1843 93.2128 72.7297 99.1005 75.8813 99.4646C78.9722 99.8288 84.548 96.6725 84.548 96.6725C84.548 96.6725 75.8813 101.164 79.3358 101.528C82.7904 101.893 134.427 83.5011 151.76 73.061" fill="white"/>
<path d="M79.4571 101.954H79.3358C78.6692 101.893 78.3055 101.65 78.2449 101.286C78.1237 100.74 78.9116 99.9505 80.0025 99.1614C78.6692 99.647 77.2752 99.8898 75.8813 99.8291C75.3964 99.7684 75.154 99.5863 75.0934 99.2828C74.9116 98.3724 77.9419 96.43 80.7298 94.7912C78.3661 95.4589 75.3964 96.0658 74.0025 95.2768C73.6995 95.1554 73.457 94.7912 73.5176 94.427C73.6389 93.4558 76.1237 92.3026 78.548 91.4528C76.0025 91.7563 73.3358 91.8777 72.851 90.9672C72.7904 90.7851 72.7904 90.603 72.851 90.4816C73.457 89.2677 80.9116 87.8716 84.3056 87.2646C82.9722 86.7791 81.0328 85.8079 80.7904 84.2904C80.7298 84.0476 80.7904 83.7442 80.9722 83.5621C81.5783 82.8944 83.4571 83.0158 86.3662 83.1372C89.3965 83.3193 93.1541 83.5014 96.6693 82.8944C103.821 81.4983 151.215 57.4619 151.639 57.2191C151.821 57.1584 152.003 57.2191 152.063 57.3405C152.124 57.4619 152.063 57.7047 151.942 57.7654C150.003 58.7366 104.003 82.1053 96.7905 83.4407C93.2147 84.1083 89.3965 83.9262 86.3056 83.7442C84.0025 83.6228 81.8207 83.5014 81.4571 83.9262C81.3965 83.9869 81.3965 84.0476 81.3965 84.1083C81.6389 85.6258 84.548 86.7184 85.6995 86.9611C85.8813 86.9611 86.0025 87.1432 86.0025 87.2646C86.0025 87.4467 85.8207 87.5681 85.6995 87.5681C80.0631 88.4786 73.7601 89.8746 73.457 90.6637C73.8207 91.3314 78.4268 90.9065 82.4874 90.1174C82.6692 90.0567 82.851 90.1781 82.851 90.3602C82.9116 90.5423 82.7904 90.7244 82.6086 90.7244C78.6086 91.8777 74.2449 93.6379 74.1843 94.4877C74.1843 94.5484 74.3055 94.6698 74.3661 94.7305C76.2449 95.8231 82.0631 93.82 84.1238 92.9702C84.3056 92.9095 84.4268 92.9702 84.548 93.1523C84.6086 93.2737 84.548 93.4558 84.4268 93.5772C80.3056 95.7017 75.8207 98.4331 75.7601 99.1614C75.8207 99.1614 75.9419 99.2221 76.0025 99.2221C78.3055 99.4649 82.1843 97.7047 83.7601 96.8549L84.4874 96.4907C84.6086 96.43 84.7904 96.4907 84.9116 96.6121C84.9722 96.7335 84.9722 96.9156 84.7904 97.037C84.7298 97.037 84.4874 97.2191 84.0025 97.4619C81.154 99.0401 78.851 100.679 78.9116 101.164C78.9116 101.164 79.0328 101.286 79.4571 101.347H79.6389C81.4571 101.347 94.1238 97.3405 110.427 91.1493C119.336 87.8109 141.215 79.2525 151.76 72.9399C151.882 72.8185 152.063 72.8792 152.185 73.0006C152.306 73.122 152.245 73.3041 152.124 73.4255C152.124 73.4255 152.124 73.4255 152.063 73.4255C135.215 83.4407 84.3056 101.954 79.4571 101.954Z" fill="#231F20"/>
<path d="M142.912 78.0993C142.912 78.0993 135.518 60.7397 136.185 60.4969C136.851 60.2541 150.972 51.028 152.124 51.6957C153.276 52.3634 157.639 65.7776 156.306 69.723C154.912 73.6684 142.912 78.0993 142.912 78.0993Z" fill="black"/>
<path d="M144.73 78.1599C144.609 78.1599 144.488 78.0992 144.427 77.9171C144.366 77.735 144.488 77.5529 144.609 77.4922C144.73 77.4315 154.973 73.9717 159.033 68.8124C159.154 68.691 159.336 68.6303 159.457 68.7517C159.579 68.8731 159.639 69.0552 159.518 69.1766C155.336 74.518 145.276 77.9171 144.851 78.0992C144.851 78.1599 144.791 78.1599 144.73 78.1599Z" fill="#231F20"/>
<path d="M152.912 40.4663C152.73 40.4663 152.609 40.3449 152.609 40.1628C152.609 40.0414 152.73 39.92 152.851 39.8593C155.154 39.1917 157.033 37.4314 158.003 35.1856C158.912 32.9398 159.094 30.4512 158.609 28.0232C158.245 25.7167 157.276 23.5316 155.7 21.7713C154.124 20.0718 151.882 19.1613 149.579 19.2827L149.094 19.4041C148.73 19.4648 148.427 19.4648 148.063 19.5255C147.639 19.5255 147.215 19.4648 146.851 19.3434L146.609 19.2827C139.518 17.8867 132.609 22.4997 131.154 29.6014C130.791 31.483 130.791 33.4861 131.275 35.307C131.397 35.914 131.76 36.8851 132.548 37.0065C132.73 37.0065 132.851 37.1886 132.851 37.3707C132.851 37.5528 132.669 37.6742 132.488 37.6742C131.639 37.5528 131.033 36.8244 130.669 35.4891C128.851 28.0839 133.336 20.6181 140.669 18.7971C142.669 18.3115 144.73 18.2509 146.73 18.6757L147.033 18.7364C147.397 18.8578 147.76 18.8578 148.185 18.9185C148.488 18.9185 148.791 18.8578 149.094 18.8578C149.276 18.8578 149.397 18.7971 149.579 18.7971C152.063 18.615 154.548 19.5862 156.245 21.4678C157.882 23.2888 158.973 25.5953 159.336 28.0232C159.821 30.5119 159.639 33.1826 158.67 35.5498C157.7 37.9777 155.639 39.8594 153.154 40.5877L152.912 40.4663Z" fill="#231F20"/>
<path d="M148.124 19.1614C148.124 19.1614 151.336 16.7941 156.548 18.0688C161.761 19.3434 163.7 28.8123 158.851 33.911C158.851 33.911 159.579 20.0718 148.124 19.1614Z" fill="#231F20"/>
<path d="M166.609 48.9036C164.124 48.7215 161.76 47.8717 159.821 46.3543C157.821 44.7761 156.73 42.4089 156.73 39.8596C156.73 39.6775 156.851 39.5561 157.033 39.5561C157.215 39.5561 157.336 39.7382 157.336 39.8596C157.276 42.1661 158.366 44.412 160.185 45.808C161.7 47.022 163.457 47.7503 165.336 48.0538C164.791 47.4469 164.488 46.7185 164.367 45.9901C164.245 44.8368 164.427 43.6229 164.912 42.591C165.639 40.7701 166.548 38.9491 167.639 37.3103C169.154 34.7003 170.609 32.2116 170.912 29.3588C171.518 23.7746 167.518 18.676 161.942 18.069C160.67 17.9476 159.336 18.0083 158.124 18.3725C157.942 18.4332 157.76 18.3118 157.76 18.1297C157.7 17.9476 157.821 17.7655 158.003 17.7655C163.76 16.1874 169.761 19.5865 171.336 25.4135C171.7 26.7488 171.821 28.1449 171.639 29.4802C171.276 32.4544 169.761 35.1252 168.245 37.6745C167.215 39.3133 166.367 41.0736 165.639 42.8338C165.215 43.805 165.033 44.8975 165.154 45.9294C165.276 46.9613 165.882 47.8717 166.791 48.2966C166.973 48.3573 167.033 48.5394 166.973 48.7215C166.851 48.8429 166.791 48.9036 166.609 48.9036Z" fill="#231F20"/>
<path d="M138.427 63.1066C138.245 63.1673 138.063 63.0459 138.063 62.8638C138.063 62.6817 138.124 62.5603 138.245 62.4996L150.912 54.6696C151.033 54.6089 151.276 54.6089 151.336 54.791C151.457 54.9124 151.397 55.1552 151.215 55.2159L138.548 63.0459C138.548 63.0459 138.488 63.0459 138.427 63.1066Z" fill="#231F20"/>
<path d="M0.911186 86.1115C0.729367 86.1115 0.608154 85.9901 0.608154 85.808C0.608154 85.6259 0.729367 85.5045 0.911186 85.5045L20.0022 84.4727C20.1234 84.4727 20.3052 84.5334 20.3052 84.7155C20.3052 84.7155 20.3052 84.7154 20.3052 84.7761C20.3052 84.9582 20.184 85.0796 20.0628 85.0796L0.911186 86.1115Z" fill="#D1D3D4"/>
<path d="M46.6084 144.746C46.5478 144.746 46.4872 144.746 46.4266 144.685C46.3054 144.624 46.2448 144.442 46.366 144.321L55.6994 129.753C55.76 129.632 55.9418 129.571 56.063 129.632C56.1842 129.692 56.2448 129.875 56.1842 129.996C56.1842 129.996 56.1842 129.996 56.1842 130.057L46.8509 144.624C46.8509 144.685 46.7296 144.746 46.6084 144.746Z" fill="#D1D3D4"/>
<path d="M11.2748 121.134C11.1536 121.134 11.093 121.073 11.0324 121.012C10.9718 120.891 11.0324 120.709 11.1536 120.648L25.3355 112.636C25.4567 112.575 25.6385 112.636 25.6992 112.758C25.7598 112.879 25.7598 113.061 25.5779 113.122L11.3961 121.134C11.3961 121.134 11.3354 121.134 11.2748 121.134Z" fill="#D1D3D4"/>
<path d="M116.609 10.4816C116.427 10.4816 116.306 10.3602 116.306 10.1781C116.306 10.1174 116.306 10.1174 116.306 10.0567L119.76 0.709173C119.821 0.587777 120.003 0.527079 120.124 0.587777C120.245 0.648475 120.306 0.769871 120.306 0.951965L116.851 10.2995C116.791 10.4209 116.73 10.4816 116.609 10.4816Z" fill="#D1D3D4"/>
<path d="M168.912 67.052C168.791 67.052 168.67 66.9306 168.609 66.8092C168.609 66.6271 168.67 66.5057 168.851 66.5057L183.761 64.0171C183.942 64.0171 184.064 64.0778 184.064 64.2599C184.064 64.442 184.003 64.5634 183.821 64.5634L168.912 67.052Z" fill="#D1D3D4"/>
<path d="M168.548 128.782C168.488 128.782 168.367 128.721 168.306 128.661L158.973 116.885C158.851 116.764 158.912 116.582 159.033 116.46C159.154 116.339 159.336 116.4 159.397 116.521L168.73 128.296C168.851 128.418 168.791 128.6 168.67 128.721C168.67 128.782 168.609 128.782 168.548 128.782Z" fill="#D1D3D4"/>
<path d="M22.9113 28.6303C22.8507 28.6303 22.7901 28.6303 22.7295 28.5696L16.0628 22.8033C15.9416 22.6819 15.9416 22.4998 16.0628 22.3784C16.184 22.257 16.3052 22.257 16.4264 22.3177L23.0931 28.084C23.2143 28.2054 23.2143 28.3268 23.1537 28.4482C23.1537 28.5696 23.0325 28.6303 22.9113 28.6303Z" fill="#D1D3D4"/>
<path d="M140.669 100.011C140.609 100.011 140.548 100.011 140.548 99.9502C140.427 99.8895 140.366 99.7074 140.427 99.5253L147.154 87.2643C147.215 87.143 147.336 87.0823 147.518 87.143C147.639 87.2037 147.76 87.325 147.76 87.4464V98.3114C147.76 98.4935 147.639 98.6149 147.457 98.6149C147.276 98.6149 147.154 98.4935 147.154 98.3114V88.6604L141.033 99.8895C140.851 99.9502 140.791 100.011 140.669 100.011Z" fill="white"/>
</svg>
