<svg width="207" height="161" viewBox="0 0 207 161" fill="none" xmlns="http://www.w3.org/2000/svg">
<path d="M1.09871 0.961914L17.8225 106.805H98.9665L82.2427 0.961914H1.09871Z" fill="white"/>
<path d="M99.0415 107.179H17.8225C17.6725 107.179 17.4475 107.029 17.4475 106.88L0.723755 1.03684C0.723755 0.961934 0.723755 0.812121 0.798749 0.737215C0.873744 0.662309 1.02373 0.587402 1.09873 0.587402H82.3177C82.4677 0.587402 82.6927 0.737215 82.6927 0.887028L99.4165 106.73C99.4165 106.954 99.3415 107.104 99.1165 107.179H99.0415ZM18.1975 106.43H98.5916L81.9428 1.33647H1.54869L18.1975 106.43Z" fill="#231F20"/>
<path d="M27.4218 84.1077C27.3468 84.1077 27.2718 84.1077 27.1968 84.0328L27.0468 83.883C26.3719 83.2837 25.6219 82.7594 24.947 82.235L24.872 82.1601C24.422 81.8605 23.972 81.486 23.5971 81.1114C23.2221 80.8118 22.9221 80.5122 22.6221 80.1377C22.3222 79.7631 22.0972 79.3137 21.9472 78.8643C21.8722 78.5646 21.7972 78.1901 21.7222 77.8905C21.5722 76.8418 22.1722 75.7931 23.1471 75.4186C24.197 75.044 25.3219 75.3437 26.0719 76.0927C26.1469 76.1676 26.2219 76.2425 26.2969 76.3174C26.5219 76.0178 26.8968 75.7182 27.2718 75.5684C27.6468 75.4186 28.0967 75.3437 28.5467 75.3437C29.2217 75.4186 29.8216 75.6433 30.3466 76.0927C30.7965 76.4673 31.0965 76.9916 31.2465 77.5159C31.3215 77.8156 31.3965 78.1901 31.3965 78.4897C31.3965 78.7894 31.3965 79.1639 31.3215 79.4635C31.2465 79.9129 31.0215 80.4373 30.7216 80.8118C30.4216 81.1864 30.1216 81.5609 29.8216 81.8605L28.1717 83.5084L27.8718 83.8081L27.7218 83.9579C27.7218 84.1077 27.5718 84.1077 27.4218 84.1077ZM24.047 76.0178C23.8221 76.0178 23.5971 76.0927 23.3721 76.1676C22.6971 76.3923 22.3222 77.0665 22.4722 77.8156C22.4722 78.1152 22.5472 78.4148 22.6971 78.7144C22.8471 79.089 22.9971 79.4635 23.2221 79.7631C23.4471 80.0628 23.7471 80.3624 24.047 80.5871C24.422 80.9616 24.872 81.2613 25.3219 81.5609L25.3969 81.6358C26.0719 82.1601 26.7468 82.6845 27.4218 83.2088L27.7218 82.9841L29.3717 81.3362C29.6716 81.0365 29.9716 80.7369 30.1966 80.3624C30.4216 80.0628 30.5716 79.6882 30.6466 79.3137C30.6466 79.089 30.6466 78.7893 30.6466 78.5646C30.6466 78.265 30.5716 78.0403 30.4966 77.7407C30.3466 77.2912 30.1216 76.9167 29.8216 76.692C29.4466 76.3174 28.9967 76.1676 28.4717 76.0927C28.1717 76.0927 27.8718 76.0927 27.5718 76.2425C27.2718 76.3923 26.9718 76.692 26.8218 76.9916L26.7468 77.1414C26.6719 77.2912 26.4469 77.3661 26.2219 77.2912C26.1469 77.2912 26.1469 77.2163 26.0719 77.2163L26.3719 76.9916L26.0719 77.2163C25.9219 77.0665 25.7719 76.8418 25.6219 76.692C25.172 76.3174 24.647 76.0927 24.047 76.0178Z" fill="#D1D3D4"/>
<path d="M43.0205 84.1083C42.9455 84.1083 42.8705 84.1083 42.8705 84.0334L41.2206 83.1345C40.6957 83.3592 40.0957 83.4341 39.5708 83.4341C37.021 83.4341 34.6211 81.6364 34.3212 79.4641C34.1712 78.4903 34.4711 77.5165 35.0711 76.7675C35.896 75.8686 37.1709 75.3442 38.4458 75.3442C40.9957 75.3442 43.3955 77.142 43.6955 79.3143C43.8455 80.2131 43.6205 81.0371 43.0955 81.7862L43.3955 83.6588C43.3955 83.8087 43.3205 83.9585 43.2455 84.0334C43.1705 84.0334 43.1705 84.1083 43.0205 84.1083ZM41.2956 82.3854C41.3706 82.3854 41.4456 82.3854 41.4456 82.4603L42.5705 83.0596L42.3456 81.7862C42.3456 81.7113 42.3456 81.5615 42.4206 81.4866C42.8705 80.8873 43.0205 80.2132 42.9455 79.4641C42.6455 77.5914 40.6957 76.0933 38.4458 76.0933C37.3959 76.0184 36.421 76.4678 35.6711 77.2169C35.1461 77.8161 34.9211 78.5652 35.0711 79.3143C35.3711 81.1869 37.3209 82.6851 39.5708 82.6851C40.0957 82.6851 40.6207 82.6102 41.0707 82.3854C41.1456 82.3854 41.2206 82.3854 41.2956 82.3854Z" fill="#D1D3D4"/>
<path d="M51.495 83.6586C51.345 83.6586 51.195 83.5837 51.1201 83.4339L49.9951 80.2129L46.1704 78.3403C46.0204 78.2654 45.9454 78.1156 45.9454 77.9657C45.9454 77.8159 46.0954 77.6661 46.2454 77.6661L54.1198 75.7935C54.2698 75.7935 54.4198 75.7935 54.4948 75.9433C54.5698 76.0182 54.6448 76.168 54.5698 76.3178L51.87 83.5088C51.87 83.5837 51.72 83.6586 51.495 83.6586ZM47.5203 78.1156L50.5951 79.5388C50.6701 79.6137 50.7451 79.6886 50.8201 79.7635L51.645 82.0856L53.7449 76.5425L47.5203 78.1156Z" fill="#D1D3D4"/>
<path d="M50.37 80.288C50.145 80.288 49.995 80.1381 49.995 79.9134C49.995 79.8385 50.07 79.6887 50.145 79.6138L54.0447 75.7936C54.1947 75.6438 54.4947 75.7187 54.5697 75.8685C54.6447 76.0183 54.6447 76.1681 54.5697 76.3179L50.6699 80.1381C50.595 80.288 50.52 80.288 50.37 80.288Z" fill="#D1D3D4"/>
<path d="M89.4422 89.6509H23.8971C23.6721 89.6509 23.5221 89.5011 23.5221 89.2764C23.5221 89.0517 23.6721 88.9019 23.8971 88.9019H89.4422C89.6672 88.9019 89.8172 89.0517 89.8172 89.2764C89.8172 89.5011 89.6672 89.6509 89.4422 89.6509Z" fill="#D1D3D4"/>
<path d="M80.5928 95.5689H24.8719C24.6469 95.5689 24.4969 95.4191 24.4969 95.1944C24.4969 94.9696 24.6469 94.8198 24.8719 94.8198H80.6677C80.8927 94.8198 81.0427 94.9696 81.0427 95.1944C80.9677 95.4191 80.8177 95.5689 80.5928 95.5689Z" fill="#D1D3D4"/>
<path d="M86.6675 71.4491H19.0225L9.12318 8.75244H76.7682L86.6675 71.4491Z" fill="white"/>
<path d="M86.6675 71.8231H19.0225C18.8725 71.8231 18.6475 71.6733 18.6475 71.5235L8.74823 8.82688C8.74823 8.75197 8.74823 8.60216 8.82322 8.52725C8.89822 8.45235 8.97321 8.37744 9.1232 8.37744H76.7682C76.9182 8.37744 77.1432 8.52725 77.1432 8.67707L87.0425 71.3737C87.0425 71.4486 87.0425 71.5984 86.9675 71.6733C86.8925 71.8231 86.7425 71.8231 86.6675 71.8231ZM19.3225 71.0741H86.2175L76.3932 9.12651H9.57317L19.3225 71.0741Z" fill="#231F20"/>
<path d="M45.7956 27.1794C45.9456 26.8797 46.0956 26.5801 46.2455 26.2805C48.0454 22.7599 51.8701 20.7374 55.8448 21.1119C58.6196 21.3367 61.1694 22.4603 63.1943 24.258C64.9942 25.831 66.3441 27.8535 67.019 30.1007C67.394 31.5239 67.619 32.9472 67.694 34.4453C67.769 35.7936 67.694 37.2168 67.469 38.5651C67.019 40.5876 66.1941 42.5352 64.9192 44.1831C63.6443 45.831 62.2944 47.4041 60.7945 48.9022C58.2447 51.5239 55.6948 54.0707 53.145 56.6925C52.3951 57.4415 51.7201 58.2655 50.9702 59.0146L50.8202 59.1644L50.0703 58.5651C46.7705 55.8685 43.3958 53.2468 40.021 50.7C37.8462 49.052 35.5963 47.3292 33.4965 45.5314C31.9216 44.258 30.5717 42.7599 29.2968 41.1869C28.0219 39.5389 27.047 37.6663 26.447 35.6438C25.997 34.2206 25.6971 32.7224 25.4721 31.2243C24.9471 26.7299 27.1219 22.9846 31.0217 21.6363C35.2214 20.2131 39.2711 21.1868 43.1708 24.4078C44.0707 25.1569 44.8206 25.9809 45.5706 26.8797L45.7956 27.1794Z" fill="#E8521F"/>
<path d="M178.386 133.322L186.26 144.782C186.26 144.782 186.785 150.85 188.36 151C190.01 151.149 189.335 145.906 189.335 145.906C189.335 145.906 205.834 154.295 206.209 150.25C206.584 146.205 194.96 139.614 194.81 139.239C194.66 138.865 188.06 129.352 188.06 129.352L178.386 133.322Z" fill="white"/>
<path d="M204.409 151.748C200.509 151.748 192.26 147.853 189.785 146.58C189.86 147.778 189.935 150.25 189.185 151.074C188.96 151.299 188.66 151.449 188.36 151.374C186.56 151.224 186.035 146.505 185.885 144.857L178.086 133.471C177.936 133.321 178.011 133.097 178.161 132.947C178.161 132.947 178.236 132.947 178.236 132.872L187.985 128.977C188.135 128.902 188.36 128.977 188.435 129.126C190.31 131.823 194.66 138.04 195.185 139.014C195.335 139.164 195.86 139.464 196.459 139.913C201.634 143.359 206.884 147.329 206.659 150.25C206.659 150.774 206.359 151.149 205.909 151.374C205.384 151.673 204.934 151.823 204.409 151.748ZM189.335 145.606C189.41 145.606 189.485 145.606 189.485 145.606C193.16 147.479 203.209 152.048 205.459 150.849C205.684 150.774 205.834 150.55 205.834 150.325C206.134 147.404 198.784 142.535 196.01 140.662C194.66 139.763 194.585 139.688 194.51 139.538C194.285 139.164 190.535 133.696 187.985 130.025L178.986 133.621L186.635 144.707C186.71 144.782 186.71 144.857 186.71 144.857C186.935 147.628 187.685 150.699 188.51 150.774C188.585 150.774 188.66 150.774 188.735 150.699C189.335 150.1 189.26 147.553 189.11 146.13C189.11 145.98 189.185 145.831 189.26 145.756C189.185 145.606 189.26 145.531 189.335 145.606Z" fill="#231F20"/>
<path d="M154.013 64.5571C156.262 65.3062 191.735 131.149 191.735 131.149L179.511 137.141C179.511 137.141 141.114 100.662 139.614 89.0515C138.114 77.3661 154.013 64.5571 154.013 64.5571Z" fill="black"/>
<path d="M73.3184 55.8684L66.1939 46.3553C66.1939 46.3553 64.6941 37.6662 63.7191 35.8684C62.7442 34.0707 54.1198 27.2542 53.7449 28.3029C53.4449 29.2767 55.3947 31.2991 55.9197 31.8984C56.7446 32.8722 57.5696 33.846 58.3945 34.8197C56.2197 35.1943 53.6699 37.0669 52.32 38.8647C51.1201 40.4377 50.8201 42.5351 51.57 44.4078C51.795 44.9321 52.17 45.3815 52.6199 45.6063C53.1449 45.9059 53.7449 45.7561 54.1198 45.3815L54.1948 45.6063C54.9448 47.2542 55.9197 48.6774 57.0446 50.0257C58.0195 50.9995 59.4444 51.4489 60.1194 52.5725C61.1693 54.2205 61.8443 56.3179 62.6692 58.0407L67.4689 68.0032L73.3184 55.8684Z" fill="white"/>
<path d="M67.4688 68.3778C67.3188 68.3778 67.1688 68.3029 67.0938 68.1531L62.5191 58.2654C62.2191 57.6662 61.9942 57.0669 61.7692 56.3928C61.3192 55.1194 60.7193 53.9209 60.0443 52.7973C59.5943 52.2729 59.0694 51.7486 58.4694 51.4489C57.9445 51.1493 57.4195 50.7748 56.9695 50.3254C55.8446 49.0519 54.8697 47.5538 54.1197 45.9808C53.6698 46.2055 53.0698 46.2055 52.6199 45.9808C52.0949 45.6812 51.6449 45.1568 51.3449 44.6325C50.52 42.6849 50.82 40.3628 52.1699 38.7149C53.5948 36.8422 55.5446 35.419 57.7945 34.6699C57.6445 34.5201 57.5695 34.3703 57.4195 34.2954C56.8195 33.6212 56.2196 32.9471 55.6946 32.198C55.6196 32.0482 55.4696 31.8984 55.3197 31.7486C54.1947 30.4752 53.0698 29.1269 53.3698 28.1531C53.4448 27.9284 53.5948 27.7785 53.8198 27.7785C55.2447 27.6287 63.0441 33.846 64.019 35.6437C64.9939 37.4415 66.2688 45.2317 66.4938 46.2055L73.6183 55.6437C73.6933 55.7935 73.6933 55.9433 73.6933 56.0182L67.8437 68.1531C67.7687 68.3029 67.6187 68.3778 67.4688 68.3778ZM54.1947 45.007C54.3447 45.007 54.4947 45.0819 54.5697 45.2317L54.6447 45.4564C55.3947 47.0295 56.2946 48.5276 57.4195 49.801C57.7945 50.1755 58.2444 50.5501 58.7694 50.7748C59.4444 51.1493 60.1193 51.6737 60.5693 52.3478C61.2442 53.5463 61.9192 54.8197 62.3691 56.0931C62.5941 56.6924 62.8941 57.2916 63.1191 57.8909L67.4688 67.1044L72.8684 55.9433L65.8939 46.58C65.8189 46.5051 65.8189 46.5051 65.8189 46.4302C65.8189 46.3553 64.319 37.7411 63.4191 36.0182C62.5191 34.2954 55.5446 28.977 54.1197 28.5276C54.1947 29.2018 55.3197 30.5501 55.8446 31.1493L56.2196 31.5988C56.8195 32.2729 57.3445 32.9471 57.9445 33.6212L58.6944 34.5201C58.7694 34.595 58.7694 34.7448 58.7694 34.8946C58.6944 35.0445 58.6194 35.1194 58.4694 35.1194C56.2946 35.4939 53.8198 37.3666 52.6199 39.0145C51.4199 40.5126 51.195 42.4602 51.8699 44.183C52.0199 44.6325 52.3199 45.007 52.7698 45.2317C53.1448 45.3815 53.5198 45.3815 53.8198 45.0819C53.9698 45.0819 54.0448 45.007 54.1947 45.007Z" fill="#231F20"/>
<path d="M56.1447 131.973C55.9197 132.423 38.671 153.172 38.671 153.172C38.671 153.172 11.8229 157.067 11.523 153.771C11.223 150.4 28.9217 145.456 28.9217 145.456L41.7457 123.733L56.1447 131.973Z" fill="white"/>
<path d="M17.6725 155.494C14.7477 155.494 12.4229 155.269 11.598 154.595C11.373 154.445 11.148 154.145 11.148 153.846C11.073 153.246 10.923 151.449 19.9973 148.078C23.8971 146.58 27.8718 145.456 28.6967 145.231L41.4458 123.583C41.5208 123.434 41.7457 123.359 41.9707 123.434L56.3697 131.673C56.5197 131.748 56.5947 131.973 56.5197 132.198C56.2947 132.647 43.0956 148.602 39.0459 153.471C38.9709 153.546 38.896 153.621 38.821 153.621C36.9461 153.846 25.247 155.494 17.6725 155.494ZM41.8957 124.258L29.2217 145.681C29.1467 145.756 29.0717 145.831 28.9967 145.831C22.2472 147.703 11.673 151.524 11.8979 153.696C11.8979 153.771 11.9729 153.921 12.0479 153.921C14.3728 155.793 31.7715 153.771 38.446 152.797C42.8707 147.404 53.7449 134.295 55.5447 132.048L41.8957 124.258Z" fill="#231F20"/>
<path d="M121.615 110.85C121.615 110.85 70.0938 87.0294 65.2191 88.977C60.3445 90.9246 34.9214 129.202 34.9214 129.202L52.7701 137.591C52.7701 137.591 70.0188 117.367 73.3185 117.966C76.6183 118.64 104.441 142.086 104.441 142.086C104.441 142.086 122.74 124.258 121.615 110.85Z" fill="#231F20"/>
<path d="M104.441 142.61C104.366 142.61 104.291 142.61 104.216 142.535C96.4917 136.018 75.8682 118.94 73.2434 118.49C70.9936 118.041 59.6694 130.175 52.9949 137.966C52.8449 138.116 52.6949 138.116 52.5449 138.041L34.6963 129.651C34.6213 129.576 34.5463 129.501 34.4713 129.426C34.4713 129.352 34.4713 129.202 34.5463 129.127C35.5962 127.554 60.0444 90.6998 65.069 88.7523C65.819 88.4526 68.2938 87.4789 95.3668 98.9395C108.716 104.558 121.615 110.55 121.765 110.625C121.915 110.7 121.99 110.775 121.99 110.925C122.515 116.543 119.74 123.584 113.815 131.898C111.041 135.719 108.041 139.239 104.741 142.61C104.591 142.535 104.516 142.61 104.441 142.61ZM73.0934 117.666C73.1684 117.666 73.3184 117.666 73.3934 117.741C76.6182 118.34 101.441 139.164 104.441 141.711C106.616 139.539 122.065 123.359 121.24 111.149C106.766 104.483 69.1937 87.8534 65.369 89.4264C61.6193 90.9246 44.2955 115.868 35.5212 129.127L52.6949 137.217C53.5949 136.168 57.4196 131.749 61.5443 127.404C69.8687 118.49 72.2685 117.666 73.0934 117.666Z" fill="#231F20"/>
<path d="M163.687 116.542C163.687 116.542 166.387 135.044 156.862 149.052C147.338 163.059 70.3937 163.434 61.2444 152.647C52.0951 141.861 63.8692 128.303 89.9673 125.531C116.14 122.76 114.64 117.366 114.64 117.366L163.687 116.542Z" fill="#231F20"/>
<path d="M104.066 160.587C84.5675 160.587 65.3689 158.041 60.9443 152.872C57.7945 149.127 56.9695 145.007 58.6194 140.962C61.8442 132.947 73.8433 126.88 89.9671 125.157C107.891 123.284 112.69 120.138 113.89 118.49C114.115 118.19 114.265 117.816 114.265 117.441C114.19 117.217 114.34 116.992 114.565 116.992C114.565 116.992 114.565 116.992 114.64 116.992L163.612 116.168C163.762 116.168 163.987 116.318 163.987 116.468C163.987 116.692 166.611 135.269 157.162 149.277C153.337 154.969 137.964 159.089 116.065 160.288C112.165 160.513 108.116 160.587 104.066 160.587ZM115.09 117.741C115.015 118.116 114.865 118.49 114.64 118.79C113.365 120.587 108.566 123.958 90.0421 125.906C74.2183 127.554 62.4441 133.471 59.2944 141.262C57.7945 145.082 58.5444 148.827 61.5442 152.423C65.5939 157.142 87.0423 161.112 116.065 159.539C137.739 158.34 152.887 154.37 156.562 148.902C165.112 136.168 163.612 119.539 163.312 116.992L115.09 117.741Z" fill="#231F20"/>
<path d="M163.687 116.542C163.687 116.542 157.237 64.7069 149.813 54.22C142.388 43.7332 124.165 42.0852 115.69 48.8268C107.216 55.5684 114.79 117.366 114.79 117.366C114.79 117.366 138.489 124.932 163.687 116.542Z" fill="black"/>
<path d="M115.615 48.8271C115.615 48.8271 107.291 50.7747 103.241 58.2653C99.1915 65.756 94.8418 75.9432 94.8418 75.9432L72.7185 52.4976L62.2942 62.9095C62.2942 62.9095 81.3428 97.2167 91.6171 102.385C101.291 107.254 107.966 98.9395 112.616 93.5462C114.565 91.2991 117.49 85.8309 117.49 85.8309L115.615 48.8271Z" fill="black"/>
<path d="M112.24 27.0294C110.216 27.0294 108.641 25.3814 108.641 23.4339C108.641 21.4114 110.291 19.8384 112.24 19.8384C114.265 19.8384 115.84 21.4863 115.84 23.4339C115.84 25.3814 114.265 27.0294 112.24 27.0294ZM112.24 20.5874C110.666 20.5874 109.391 21.8609 109.391 23.4339C109.391 25.0069 110.666 26.2803 112.24 26.2803C113.815 26.2803 115.09 25.0069 115.09 23.4339C115.09 21.8609 113.815 20.5874 112.24 20.5874C112.24 20.5125 112.24 20.5125 112.24 20.5874Z" fill="#231F20"/>
<path d="M113.815 25.9058C113.815 25.9058 110.066 32.123 110.891 33.3215C111.791 34.52 114.49 33.6211 114.49 33.6211" fill="white"/>
<path d="M112.541 34.3706C111.791 34.4455 111.116 34.1459 110.591 33.6215C109.616 32.2732 112.541 27.2545 113.441 25.7563C113.516 25.6065 113.816 25.5316 113.966 25.6065C114.115 25.6814 114.19 25.9811 114.115 26.1309C112.391 28.9773 110.741 32.4979 111.191 33.0972C111.791 33.9211 113.666 33.4717 114.34 33.247C114.565 33.1721 114.79 33.3219 114.865 33.4717C114.94 33.6215 114.79 33.9211 114.64 33.996C113.966 34.2957 113.216 34.3706 112.541 34.3706Z" fill="#231F20"/>
<path d="M114.34 17.8908C111.866 20.063 112.841 24.4076 112.916 27.254C113.141 31.299 113.366 35.269 113.74 39.2391C113.965 41.7859 120.565 41.5612 121.69 40.7372L120.265 47.1042L134.664 45.0069L133.764 36.6923C133.764 36.6923 134.664 25.1567 131.889 20.063C130.239 17.0668 127.015 15.269 123.64 15.4188C123.715 15.5687 116.74 15.7934 114.34 17.8908Z" fill="white"/>
<path d="M120.34 47.5539C120.265 47.5539 120.115 47.479 120.04 47.4041C119.965 47.3292 119.89 47.1794 119.965 47.1045L121.165 41.4865C119.065 42.0109 116.89 41.8611 114.865 41.112C114.04 40.8873 113.441 40.1382 113.366 39.3142C112.991 35.3442 112.691 31.2993 112.541 27.2543C112.541 26.8049 112.466 26.2805 112.391 25.7562C112.166 22.9847 111.866 19.539 114.04 17.5914C116.515 15.4191 123.415 15.1944 123.64 15.1195C123.715 15.1195 129.414 14.67 132.264 19.9135C135.114 25.1569 134.214 36.318 134.139 36.7674L135.039 45.0071C135.039 45.2318 134.889 45.3817 134.739 45.3817L120.34 47.5539ZM121.69 40.4378C121.765 40.4378 121.84 40.4378 121.915 40.5127C122.065 40.5877 122.14 40.7375 122.065 40.8873L120.79 46.73L134.289 44.7824L133.464 36.8423C133.464 36.6925 134.364 25.3068 131.664 20.3629C130.089 17.5165 127.015 15.7936 123.79 15.9435C123.715 15.9435 116.965 16.1682 114.64 18.1906C112.766 19.8386 112.991 23.1345 113.216 25.6813C113.291 26.2056 113.291 26.8049 113.366 27.2543C113.516 31.2244 113.816 35.2693 114.19 39.2393C114.265 39.6888 114.565 40.0633 115.24 40.3629C117.19 41.2618 120.865 40.9622 121.54 40.4378C121.54 40.5127 121.615 40.5127 121.69 40.4378Z" fill="#231F20"/>
<path d="M137.514 47.0293L136.164 42.6099L118.465 44.3327L117.49 48.3777C117.49 48.3777 126.714 52.7971 137.514 47.0293Z" fill="white"/>
<path d="M125.965 50.4001C123.04 50.4001 120.115 49.8758 117.415 48.7522C117.265 48.6773 117.19 48.5275 117.19 48.3028L118.165 44.2578C118.24 44.108 118.315 43.9582 118.465 43.9582L136.164 42.2354C136.314 42.2354 136.539 42.3103 136.539 42.535L137.889 46.9545C137.964 47.1043 137.889 47.329 137.739 47.4039C134.139 49.3515 130.089 50.4001 125.965 50.4001ZM117.94 48.153C124.24 50.4751 131.214 49.9507 137.064 46.8046L135.864 42.9844L118.765 44.6324L117.94 48.153Z" fill="#231F20"/>
<path d="M163.987 110.55C163.762 110.55 163.612 110.4 163.612 110.175C163.612 96.7672 156.562 70.6249 155.962 68.8271C155.887 68.6024 156.037 68.4526 156.187 68.3777C156.412 68.3028 156.637 68.3777 156.637 68.6024C157.237 70.4002 164.362 96.7672 164.362 110.175C164.437 110.4 164.212 110.55 163.987 110.55Z" fill="#231F20"/>
<path d="M126.34 37.7414C126.34 37.8163 126.34 37.9661 126.34 38.041C126.265 43.8837 127.464 49.5766 129.939 54.8949C131.289 58.1159 133.389 60.9623 136.014 63.2844C138.864 65.3069 142.163 66.6552 145.613 67.1047C148.538 67.629 151.613 67.4792 154.462 66.4305C159.112 64.6327 162.187 59.8387 162.862 54.9698C163.537 50.026 161.962 45.0073 159.412 40.7376C156.712 36.1683 152.663 32.7226 149.963 28.3032C147.038 23.5091 145.313 17.8163 142.013 13.247C136.764 5.98106 125.74 3.35934 117.565 7.47919C115.765 5.75634 112.391 7.17956 111.416 9.42675C110.666 11.5241 110.816 13.8462 111.866 15.8687C112.016 16.0934 114.49 18.79 114.415 17.9661C114.715 20.2133 116.215 21.262 118.015 22.6852C119.89 24.0335 121.84 25.232 123.865 26.3556C128.814 29.5017 126.49 32.9473 126.34 37.7414Z" fill="white"/>
<path d="M149.138 67.7033C147.938 67.7033 146.738 67.6284 145.538 67.4037C142.013 66.9543 138.639 65.6809 135.789 63.5835C133.314 61.6359 131.289 58.8644 129.564 55.1191C127.09 49.8007 125.89 43.958 125.965 38.1153V37.8157C126.04 36.6921 126.115 35.6434 126.34 34.5198C126.79 31.2988 127.165 29.0516 123.64 26.8044C122.965 26.355 122.29 25.9805 121.69 25.6059C120.34 24.8569 119.065 24.0329 117.79 23.0591L117.565 22.8344C115.99 21.561 114.565 20.5123 114.116 18.4898C113.216 18.1153 111.566 16.1677 111.566 16.0928C110.516 13.9955 110.291 11.5235 111.116 9.35126C111.791 7.85314 113.141 6.80445 114.715 6.42992C115.765 6.2052 116.815 6.42992 117.64 7.02917C126.04 3.05913 137.064 5.68085 142.313 13.0217C144.113 15.7183 145.688 18.5647 146.963 21.4861C147.938 23.7333 149.063 25.9805 150.338 28.0779C151.688 30.1752 153.263 32.1977 154.913 34.0704C156.712 36.0928 158.362 38.1902 159.787 40.5123C161.812 43.8831 164.062 49.1265 163.312 54.9692C162.637 60.3625 159.262 65.0067 154.763 66.7295C152.888 67.4037 151.013 67.7033 149.138 67.7033ZM114.415 17.5161C114.565 17.5161 114.79 17.6659 114.79 17.8157C115.09 19.8382 116.365 20.8868 118.015 22.1603L118.24 22.385C119.44 23.2838 120.715 24.1078 122.065 24.8569C122.74 25.2314 123.415 25.6059 124.09 26.0554C127.989 28.5273 127.615 31.2988 127.165 34.5198C127.015 35.5685 126.865 36.6921 126.79 37.7408V38.0404C126.715 43.8082 127.914 49.5011 130.314 54.7445C131.964 58.4149 133.989 61.1116 136.314 62.9093C139.089 64.9318 142.313 66.2052 145.688 66.5797C149.138 67.1041 151.988 66.8794 154.313 65.9805C158.587 64.3325 161.737 59.9131 162.412 54.8194C163.162 49.2015 160.987 44.1827 159.037 40.8868C157.612 38.6397 156.037 36.5423 154.238 34.5947C152.513 32.722 151.013 30.6247 149.588 28.5273C148.313 26.355 147.188 24.1078 146.213 21.8606C144.938 18.9393 143.438 16.1677 141.638 13.4711C136.464 6.35501 125.74 3.80819 117.64 7.77823C117.49 7.85314 117.34 7.85314 117.19 7.70333C116.515 7.10407 115.615 6.87936 114.715 7.10407C113.366 7.4037 112.241 8.30258 111.641 9.57598C110.966 11.5985 111.116 13.7707 112.091 15.6434C112.691 16.3925 113.366 16.9917 114.116 17.591C114.266 17.591 114.341 17.5161 114.415 17.5161Z" fill="#231F20"/>
<path d="M113.741 36.318C113.741 36.318 116.965 38.1157 118.465 34.8198L113.741 36.318Z" fill="white"/>
<path d="M115.615 37.2166C114.865 37.2166 114.19 36.9919 113.515 36.6923C113.365 36.5425 113.29 36.3177 113.365 36.1679C113.44 36.0181 113.665 35.9432 113.89 36.0181C114.64 36.3926 115.54 36.5425 116.44 36.3177C117.19 36.0181 117.79 35.4189 118.09 34.6698C118.165 34.4451 118.39 34.3702 118.615 34.4451C118.84 34.52 118.915 34.7447 118.765 34.9694C118.39 35.9432 117.64 36.6923 116.665 36.9919C116.365 37.1417 115.99 37.2166 115.615 37.2166Z" fill="#231F20"/>
<path d="M130.314 28.153C130.164 28.153 130.014 28.0031 129.939 27.8533C129.789 27.329 129.564 26.8046 129.339 26.3552C127.914 26.2054 110.891 24.108 108.941 23.8833C108.716 23.8833 108.566 23.6586 108.641 23.4339C108.641 23.2091 108.866 23.0593 109.016 23.1342C115.915 23.9582 129.189 25.6061 129.489 25.681C129.714 25.681 130.089 25.756 130.689 27.7784C130.764 28.0031 130.614 28.2279 130.389 28.2279L130.314 28.153Z" fill="#231F20"/>
<path d="M121.615 28.228C121.69 27.2542 122.065 26.2804 122.665 25.4564C123.04 24.7823 123.49 24.1081 124.015 23.5838C124.615 22.9845 125.365 22.7598 126.19 22.8347C126.865 22.9845 127.465 23.434 127.84 24.0332C128.214 24.6325 128.364 25.3066 128.439 25.9808C128.664 29.0519 127.315 32.0482 124.765 33.771L124.99 33.5463" fill="white"/>
<path d="M124.69 34.1454C124.615 34.1454 124.465 34.0705 124.39 33.9956C124.24 33.8457 124.24 33.621 124.39 33.4712L124.615 33.2465C124.69 33.1716 124.765 33.0967 124.915 33.0967C127.014 31.3738 128.214 28.6772 127.989 25.9806C127.989 25.3813 127.764 24.7072 127.464 24.1828C127.164 23.6585 126.714 23.2839 126.114 23.209C125.439 23.1341 124.765 23.3588 124.315 23.8832C123.79 24.4075 123.34 25.0068 122.965 25.6809C122.44 26.43 122.065 27.3289 121.99 28.3027C121.99 28.5274 121.84 28.6772 121.615 28.6772C121.39 28.6772 121.24 28.5274 121.24 28.3027C121.315 27.254 121.69 26.2053 122.29 25.3064C122.665 24.5574 123.19 23.8832 123.715 23.3588C124.39 22.6847 125.289 22.3851 126.189 22.5349C127.014 22.6847 127.689 23.209 128.064 23.8832C128.439 24.5574 128.664 25.2315 128.664 25.9806C128.889 29.2015 127.464 32.2727 124.84 34.1454C124.765 34.0705 124.69 34.1454 124.69 34.1454Z" fill="#231F20"/>
<path d="M115.438 22.7457C115.45 21.9597 115.191 21.3184 114.86 21.3132C114.529 21.308 114.25 21.9409 114.238 22.7268C114.226 23.5128 114.484 24.1541 114.815 24.1593C115.147 24.1645 115.425 23.5316 115.438 22.7457Z" fill="#231F20"/>
<path d="M104.441 101.336C104.291 101.336 104.141 101.261 104.141 101.112C104.066 100.962 104.141 100.737 104.291 100.587C119.065 92.1977 124.615 64.7071 124.615 64.4075C124.69 64.1828 124.84 64.033 125.065 64.1079C125.29 64.1828 125.44 64.3326 125.365 64.5573C125.29 64.8569 119.665 92.7221 104.666 101.261C104.591 101.336 104.516 101.336 104.441 101.336Z" fill="#231F20"/>
<path d="M84.9426 126.655C84.7926 126.655 84.6427 126.505 84.5677 126.355C84.4927 126.131 84.6426 125.981 84.8676 125.906C92.967 123.958 113.441 120.213 113.591 120.138C113.816 120.063 113.966 120.213 114.04 120.438C114.115 120.662 113.965 120.812 113.741 120.887C113.516 120.962 93.117 124.707 85.0176 126.655H84.9426Z" fill="white"/>
</svg>
