<svg width="140" height="161" viewBox="0 0 140 161" fill="none" xmlns="http://www.w3.org/2000/svg">
<path d="M62.227 0.587891H83.1326C95.7938 0.587891 106.026 10.7154 106.026 23.2473V34.4677C106.026 46.9995 95.7938 57.127 83.1326 57.127H62.227C49.5658 57.127 39.3339 46.9995 39.3339 34.4677V23.2473C39.3339 10.7154 49.5658 0.587891 62.227 0.587891Z" fill="black"/>
<path d="M53.0992 23.6846C54.3506 19.313 57.2951 15.5243 61.2701 13.1928C65.2451 10.9342 69.809 9.84126 74.4465 10.1327C78.4216 10.2056 82.2493 11.4442 85.4882 13.7028C88.6535 16.0343 90.7883 19.823 90.7146 23.6846C90.4938 27.109 88.8744 30.3148 86.2244 32.5735C83.5743 34.7593 80.4827 36.2893 77.0965 37.0908C73.1215 38.2566 68.9257 38.4751 64.8771 37.6737C60.8284 36.8722 57.2215 34.4679 54.9395 31.0434C52.8048 27.5462 52.4367 22.8832 54.5715 19.4587" fill="#231F20"/>
<path d="M69.5145 38.5481C67.8951 38.5481 66.3492 38.4023 64.8034 38.038C60.6076 37.1637 56.927 34.7594 54.645 31.1892C53.2464 29.0034 52.6575 26.3805 52.8784 23.7575C52.8784 23.6847 52.8784 23.6118 52.8784 23.539C52.8784 23.4661 52.8784 23.3932 52.952 23.3204C53.0992 21.8632 53.6145 20.406 54.3506 19.1674C54.4242 19.0217 54.645 18.9488 54.8659 19.0216C56.4853 16.4716 58.62 14.3586 61.2701 12.8286C65.3187 10.4971 69.9562 9.40416 74.5937 9.6956C78.6423 9.76846 82.5437 11.0799 85.8563 13.4114C89.2424 15.9615 91.3035 19.896 91.2299 23.6847C91.0091 27.1819 89.316 30.5335 86.5924 32.7921C83.9424 35.0508 80.7771 36.5808 77.3173 37.4552C74.6673 38.1838 72.0909 38.5481 69.5145 38.5481ZM53.5409 23.539C53.2464 26.089 53.8353 28.6391 55.2339 30.8249C57.4423 34.1765 60.9756 36.508 64.9506 37.3094C68.9256 38.1109 73.0479 37.8923 76.9493 36.7266C80.2618 35.9251 83.2799 34.4679 85.9299 32.2821C88.5063 30.0963 90.1257 27.0362 90.3465 23.6847C90.4938 20.1145 88.5063 16.3987 85.2674 13.9943C81.734 11.3714 77.3909 10.6428 74.4465 10.4971C69.9562 10.2056 65.3923 11.2257 61.4909 13.4843C57.6631 15.743 54.7923 19.3131 53.5409 23.539Z" fill="#231F20"/>
<path d="M104.406 67.6917C105.363 67.6917 106.32 67.6917 107.277 67.6917C107.866 67.8375 108.381 67.4732 108.529 66.8903C108.602 66.6717 108.529 66.4531 108.455 66.3074C108.308 63.6116 108.381 59.3129 106.467 57.1999C104.554 55.087 100.947 55.3056 99.9896 51.8083C99.4007 49.6225 100.505 47.291 101.315 45.1781C102.124 42.9923 102.566 40.2965 100.947 38.6936C99.9896 37.6735 98.3702 37.3092 97.6341 36.1435C96.1618 33.9577 98.591 31.2619 98.7382 28.5661C98.8855 25.9431 96.8979 23.8302 94.8368 22.3001C88.1382 17.3457 82.9118 12.6098 73.784 12.5369C67.6006 12.4641 60.6076 14.6499 56.1173 18.9486C54.277 20.7701 53.0256 22.5187 50.8172 24.0488C48.0936 25.8703 45.8117 27.9832 45.9589 31.5533C46.0325 33.3748 46.695 35.2692 46.1061 37.0178C45.5172 38.7664 43.7506 39.8593 43.3089 41.608C42.4992 44.7409 44.8547 48.1653 44.045 51.6626C43.8242 52.9012 43.3089 53.9941 42.6464 55.0141C41.9103 56.0342 41.0269 56.9814 39.9964 57.7828C37.7144 59.6772 35.7269 61.7901 34.1075 64.1945C33.5922 64.9959 33.1505 65.8702 32.7825 66.8174C33.0033 66.8174 33.1505 66.8174 33.3714 66.8174H67.8951C80.1882 66.8174 92.1132 67.6189 104.406 67.6917Z" fill="white"/>
<path d="M107.424 68.0557H107.204H104.406C98.2966 68.0557 92.1133 67.8372 86.1507 67.6914C80.1882 67.4729 74.0785 67.3271 67.9687 67.3271H33.3714C33.2242 67.3271 33.0769 67.3271 33.0033 67.3271C32.9297 67.3271 32.8561 67.3271 32.7825 67.3271C32.5617 67.2543 32.4881 67.0357 32.5617 66.8171C32.9297 65.8699 33.3714 64.9956 33.9603 64.1213C35.6533 61.7169 37.6408 59.5311 39.9228 57.6368L40.07 57.4911C41.027 56.7625 41.8367 55.8882 42.4992 54.941C43.1617 53.9209 43.6034 52.828 43.8242 51.6623C44.1923 49.9865 43.8242 48.2379 43.4561 46.635C43.0881 44.9592 42.72 43.2106 43.0881 41.6076C43.3825 40.6605 43.8978 39.7862 44.5603 39.0576C45.0756 38.4747 45.5173 37.7461 45.8853 37.0175C46.1798 35.9246 46.1798 34.7588 45.8853 33.5931C45.8117 32.9373 45.7381 32.3545 45.6645 31.6987C45.5173 27.91 48.0201 25.6514 50.6701 23.8299C51.9951 22.8827 53.1728 21.7898 54.1298 20.624C54.6451 20.0412 55.234 19.3854 55.8965 18.8025C60.0923 14.7224 67.0118 12.1723 73.8577 12.2452C82.0285 12.318 87.1077 16.1067 92.923 20.4055L95.1313 22.0812C97.9286 24.1213 99.3272 26.38 99.2536 28.6386C99.1064 29.7315 98.8119 30.7515 98.4438 31.6987C97.855 33.2288 97.2661 34.7588 98.0758 35.9246C98.5175 36.5075 99.1064 36.9446 99.7689 37.3089C100.358 37.6004 100.873 37.9647 101.315 38.4018C103.229 40.369 102.419 43.5749 101.83 45.3235C101.756 45.6149 101.609 45.9064 101.462 46.1978C100.726 48.0193 99.9897 49.9137 100.505 51.7351C101.02 53.6295 102.345 54.2852 103.965 55.0138C105.069 55.451 106.099 56.1067 106.909 56.9082C108.749 58.9483 108.897 62.737 108.97 65.4328V66.2342C109.044 66.8171 108.897 67.4 108.455 67.8372C108.087 68.0557 107.719 68.1286 107.424 68.0557ZM33.3714 66.5257H67.8951C74.0049 66.5257 80.1882 66.7443 86.1507 66.89C92.1133 67.0357 98.223 67.2543 104.333 67.2543C105.29 67.2543 106.173 67.2543 107.13 67.2543H107.204C107.424 67.2543 107.645 67.2543 107.792 67.1814C108.013 67.0357 108.013 66.5985 108.013 66.3071V65.5056C107.94 62.8827 107.793 59.3126 106.099 57.4182C105.363 56.6896 104.406 56.0339 103.376 55.6696C101.756 54.941 100.137 54.1395 99.548 51.8809C98.9591 49.8408 99.7689 47.8007 100.579 45.8335C100.726 45.5421 100.799 45.2506 100.873 44.9592C101.462 43.3563 102.198 40.5147 100.579 38.839C100.137 38.4747 99.6952 38.1104 99.18 37.8189C98.4438 37.4546 97.7077 36.8718 97.1925 36.216C96.1619 34.686 96.8244 32.9373 97.4869 31.2616C97.855 30.3872 98.1494 29.3672 98.223 28.42C98.3702 25.9428 96.2355 23.8299 94.4688 22.5184C93.7327 21.9355 92.9966 21.4255 92.2605 20.8426C86.5188 16.5439 81.5868 12.9009 73.6368 12.8281H73.416C66.8646 12.8281 60.3132 15.2324 56.2645 19.1668C55.602 19.7497 55.0867 20.4055 54.5715 20.9883C53.5409 22.227 52.2895 23.3927 50.9645 24.3399C48.0937 26.3071 46.1798 28.2743 46.2534 31.553C46.2534 32.1359 46.327 32.7188 46.4742 33.3745C46.7687 34.6131 46.7687 35.9246 46.4006 37.1632C46.0325 38.0375 45.5909 38.7661 45.002 39.4219C44.4131 40.0776 43.8978 40.879 43.6034 41.6805C43.2353 43.1377 43.5298 44.6678 43.9714 46.3435C44.4131 48.0193 44.7812 49.9137 44.3395 51.7351C44.1186 52.9738 43.6034 54.1395 42.9409 55.2324C42.2048 56.2525 41.3214 57.1268 40.3645 57.9282L40.2909 58.1468C38.0825 59.9683 36.095 62.1541 34.4756 64.4856C34.0339 65.1413 33.6658 65.7971 33.3714 66.5257Z" fill="#231F20"/>
<path d="M103.449 160.588H39.0395C32.0465 113.229 29.102 82.2639 36.2423 74.8323C38.6715 72.355 42.7201 70.5335 47.1368 69.1492C53.0993 67.4734 59.2827 66.3805 65.466 65.8705C69.5146 65.5062 73.5633 65.8705 77.3911 66.9634C80.2619 67.8377 86.9605 68.4934 93.7328 70.6064C100.505 72.7193 107.498 76.4352 110.516 83.284C115.08 93.7029 103.449 160.588 103.449 160.588Z" fill="black"/>
<path d="M103.817 74.832C103.817 74.832 153.8 129.331 135.176 142.519C116.552 155.706 99.4008 122.774 99.4008 122.774L103.817 74.832Z" fill="black"/>
<path d="M129.361 130.861C129.213 130.861 129.066 130.788 128.993 130.643C123.251 118.839 106.836 98.2201 106.688 98.0016C106.541 97.8558 106.615 97.6373 106.762 97.4915C106.909 97.3458 107.13 97.4187 107.277 97.5644C107.424 97.783 123.913 118.402 129.729 130.278C129.802 130.497 129.729 130.716 129.581 130.788C129.434 130.861 129.434 130.861 129.361 130.861Z" fill="#231F20"/>
<path d="M115.006 141.936C114.933 141.936 114.859 141.936 114.786 141.863C114.638 141.717 99.6953 129.841 95.4258 111.335C95.3522 111.116 95.4994 110.97 95.7203 110.897C95.9411 110.825 96.0883 110.97 96.1619 111.189C100.431 129.477 115.154 141.207 115.301 141.353C115.448 141.498 115.522 141.717 115.374 141.863C115.227 141.863 115.08 141.936 115.006 141.936Z" fill="#231F20"/>
<path d="M84.5312 37.0175C85.7826 30.8244 96.2355 29.5858 95.4993 36.9446C95.3521 39.4947 94.248 41.8991 92.4813 43.7205C90.641 45.4692 87.6965 46.1978 85.4146 45.1049" fill="white"/>
<path d="M87.7701 46.0524C86.8868 46.0524 86.0035 45.8338 85.1937 45.4695C84.9729 45.3966 84.9729 45.1052 85.0465 44.9595C85.1201 44.8137 85.341 44.7409 85.5618 44.8137C87.6229 45.8338 90.3465 45.2509 92.1868 43.5023C94.2479 41.6079 94.9104 38.8392 95.1313 36.9449C95.4257 34.3948 94.1743 32.719 91.966 32.3547C89.1688 31.9176 85.6354 33.8119 84.9729 37.0906C84.9729 37.3092 84.7521 37.4549 84.5312 37.382C84.3104 37.3092 84.1632 37.1635 84.2368 36.9449C84.9729 33.229 88.9479 31.1161 92.1132 31.6261C94.2479 31.9176 96.3091 33.5205 95.941 37.0177C95.7202 39.0578 94.9841 41.9722 92.7757 44.0851C91.4507 45.3238 89.684 46.0524 87.7701 46.0524Z" fill="#231F20"/>
<path d="M61.0493 36.1434C60.2396 29.8775 49.8604 27.9831 50.0812 35.342C50.0812 37.8921 50.9646 40.3693 52.6576 42.3365C54.4243 44.2309 57.2215 45.178 59.6507 44.2309" fill="white"/>
<path d="M57.6632 44.9593C55.6757 44.8865 53.7618 44.085 52.4368 42.6278C50.3757 40.442 49.8604 37.4548 49.7868 35.4147C49.6395 31.8446 51.8479 30.4603 53.9826 30.2417C57.1479 30.0231 60.9757 32.3546 61.491 36.1433C61.5646 36.3619 61.491 36.5805 61.2701 36.6533C61.0493 36.7262 60.8285 36.6533 60.7549 36.4348C60.7549 36.3619 60.7549 36.289 60.7549 36.2162C60.3132 32.8646 56.9271 30.7517 54.0562 31.0431C51.7743 31.1889 50.4493 32.8646 50.5229 35.4147C50.5965 37.3819 51.0382 40.1506 52.9521 42.1907C54.7187 44.085 57.3687 44.8136 59.5035 43.9393C59.7243 43.8664 59.9451 43.9393 60.0187 44.1579C60.0924 44.3765 60.0187 44.595 59.7979 44.6679C59.1354 44.8865 58.3993 44.9593 57.6632 44.9593Z" fill="#231F20"/>
<path d="M93.7328 70.6789C90.1994 69.586 86.5188 68.7845 82.9119 68.1288L82.9855 68.0559L82.7647 63.6843L82.323 53.4839L81.8813 44.0122L63.0368 43.3564L62.1535 51.0796L61.859 53.6297L60.3868 66.5258C55.8965 67.1087 51.4798 67.983 47.1368 69.2217C43.4562 81.8264 50.8173 95.0869 63.5521 98.7299C76.2869 102.373 89.6841 95.0869 93.3647 82.4821C94.0272 80.3692 94.3217 78.1105 94.3217 75.9248C94.3217 74.1033 94.1744 72.4275 93.7328 70.6789Z" fill="white"/>
<path d="M70.2507 100.041C56.7798 100.041 45.8117 89.1854 45.8117 75.852C45.8117 73.5934 46.1062 71.2619 46.7687 69.0761C46.7687 68.9304 46.9159 68.8575 46.9895 68.7846C51.2589 67.546 55.602 66.6717 59.9451 66.0888L62.5951 43.2837C62.5951 43.0652 62.8159 42.9194 62.9632 42.9194L81.8077 43.5752C82.0285 43.5752 82.1757 43.7209 82.1757 43.9395L83.2799 67.7646C86.8132 68.3475 90.3466 69.2218 93.8063 70.2418C93.9535 70.3147 94.0272 70.3876 94.0272 70.5333C96.9716 83.5752 88.5799 96.5442 75.4035 99.3857C73.784 99.8958 72.0174 100.041 70.2507 100.041ZM47.4312 69.5132C43.8978 81.9723 51.2589 94.9413 63.8465 98.4386C76.434 101.936 89.5369 94.6499 93.0702 82.1908C93.6591 80.1508 93.9535 78.0378 93.9535 75.852C93.9535 74.2491 93.8063 72.5734 93.4383 70.9704C89.9785 69.9504 86.4452 69.1489 82.8382 68.5661C82.691 68.5661 82.6174 68.4932 82.5438 68.3475C82.4702 68.2746 82.4702 68.1289 82.5438 67.9832L81.5132 44.3766L63.4048 43.7209L60.7548 66.4531C60.7548 66.5989 60.6076 66.7446 60.3868 66.8174C56.0437 67.4003 51.7006 68.2746 47.4312 69.5132Z" fill="#231F20"/>
<path d="M71.5757 55.597L73.2688 55.6698C81.2188 55.9613 87.9174 49.7682 88.2119 41.8993V41.1707C88.2855 38.9849 88.3591 36.7263 88.4327 34.5405C88.5063 33.0833 89.1688 31.1889 88.0647 29.9503C87.4022 29.2946 86.6661 28.7846 85.8563 28.4203C81.5133 25.8702 78.0535 22.0086 76.1396 17.4185C72.8271 21.9358 68.116 25.2145 62.7424 26.7445C61.4173 27.1088 59.9451 27.4002 58.9146 28.2746C56.4854 30.2418 57.9576 32.9376 57.884 35.4877L57.6632 40.9522C57.2951 48.7481 63.5521 55.3055 71.5757 55.597Z" fill="white"/>
<path d="M73.7105 56.0343H73.1952L71.5022 55.9614C63.3313 55.67 56.9271 48.894 57.148 40.8066L57.3688 35.3421C57.3688 34.6135 57.2952 33.8849 57.2216 33.2292C57.0007 31.3348 56.7063 29.4405 58.5466 27.9104C59.5771 27.1818 60.7549 26.6718 62.0063 26.4532L62.5952 26.3075C67.8952 24.7774 72.5327 21.5716 75.7716 17.1272C75.8452 16.9814 75.9925 16.9814 76.1397 16.9814C76.2869 16.9814 76.4341 17.0543 76.4341 17.2C78.348 21.7902 81.7342 25.5789 86.0036 28.0561L86.2981 28.2018C87.0342 28.5661 87.6967 29.0762 88.2856 29.659C89.2425 30.7519 89.0217 32.1363 88.8745 33.3749C88.8008 33.7392 88.8008 34.1763 88.7272 34.5406C88.6536 35.7793 88.6536 37.0907 88.58 38.3293C88.58 39.2765 88.5064 40.2237 88.5064 41.1709V41.8995C88.212 49.7683 81.6605 56.0343 73.7105 56.0343ZM71.5758 55.16L73.2688 55.2328C80.998 55.5243 87.5495 49.4769 87.8439 41.8266V41.098L87.9175 38.2565C87.9175 37.0179 87.9911 35.7064 88.0647 34.4678C88.0647 34.0306 88.1383 33.6663 88.212 33.2292C88.3592 32.0634 88.5064 30.9705 87.8439 30.1691C87.3286 29.659 86.6661 29.2219 86.0036 28.8576L85.7092 28.7119C81.4397 26.2346 78.0536 22.5188 76.0661 18.0743C72.7536 22.3731 68.116 25.4332 62.8896 26.9632L62.3007 27.109C61.1966 27.3275 60.0924 27.7647 59.1355 28.4204C57.5896 29.659 57.8105 31.262 58.0313 33.0834C58.1785 33.812 58.2521 34.6135 58.1785 35.3421L57.9577 40.8066C57.6632 48.4569 63.773 54.9414 71.5758 55.16C71.5022 55.16 71.5022 55.16 71.5758 55.16Z" fill="#231F20"/>
<path d="M73.1952 43.1379C72.1646 43.1379 71.2077 43.065 70.1771 42.9193C69.9563 42.9193 69.8091 42.7007 69.8827 42.4822C69.8827 42.2636 70.1035 42.1179 70.3243 42.1907C71.723 42.3364 73.048 42.4093 74.4466 42.3364C74.5202 42.3364 74.5938 42.2636 74.5938 42.2636C75.1827 41.2436 73.6369 36.5077 72.4591 33.739C72.3855 33.5204 72.4591 33.3018 72.6799 33.229C72.9007 33.1561 73.1216 33.229 73.1952 33.4476C73.7105 34.6862 76.2869 41.025 75.2563 42.6279C75.1091 42.9193 74.8146 43.065 74.5202 43.065C74.0049 43.1379 73.5632 43.1379 73.1952 43.1379Z" fill="#231F20"/>
<path d="M36.3159 74.832C36.3159 74.832 -13.6663 129.331 4.95741 142.519C23.5811 155.706 40.7325 122.774 40.7325 122.774L36.3159 74.832Z" fill="black"/>
<path d="M89.1687 77.2359C88.0646 78.6203 86.5923 79.7132 84.8993 80.2961C84.8257 80.7332 84.6784 81.1704 84.4576 81.5347C83.3534 83.5747 80.9979 83.7205 79.084 82.919C78.127 82.4818 77.3173 81.8261 76.7284 81.0247C75.5506 81.899 74.2256 82.5547 72.827 82.8461C72.827 84.8862 71.2076 86.4891 69.2201 86.562C69.1465 86.562 69.1465 86.562 69.0728 86.562C67.3062 86.6349 65.7603 85.3962 65.3923 83.7205C64.9506 83.7205 64.4353 83.7205 63.9937 83.6476C63.7728 83.5747 63.552 83.5019 63.3312 83.429C62.8159 83.2833 62.3742 83.0647 61.9325 82.7733C61.6381 82.5547 61.3436 82.3361 61.0492 82.1176C59.3561 81.6804 57.9575 80.6604 57.0742 79.1303C56.7061 78.5474 56.5589 77.8917 56.5589 77.1631H32.0463C35.2852 97.1995 54.3506 110.824 74.5937 107.618C90.4201 105.068 102.86 92.8279 105.363 77.1631H89.1687V77.2359Z" fill="black"/>
<path d="M68.7785 108.566C50.302 108.639 34.5492 95.3787 31.752 77.3094C31.752 77.2366 31.752 77.0909 31.8256 77.018C31.8992 76.9451 31.9728 76.8723 32.12 76.8723H56.6326C56.7062 76.8723 56.8534 76.9451 56.927 77.018C57.0007 77.0909 57.0007 77.1637 57.0007 77.3094C57.0007 77.8923 57.1479 78.5481 57.4423 79.0581C58.252 80.4424 59.6507 81.3896 61.1965 81.8267C61.2701 81.8267 61.3437 81.8996 61.3437 81.8996C61.6382 82.1182 61.859 82.3368 62.1534 82.5553C62.5215 82.7739 62.8896 82.9196 63.2576 83.0654L63.4784 83.1382C63.6993 83.2111 63.9201 83.2839 64.1409 83.2839C64.5826 83.3568 65.0243 83.4297 65.466 83.3568C65.6868 83.3568 65.834 83.4297 65.834 83.6482C66.1285 85.1783 67.5271 86.2712 69.1465 86.1983C70.9868 86.2712 72.5326 84.814 72.5326 82.9925C72.5326 82.9196 72.5326 82.9196 72.5326 82.8468C72.5326 82.7011 72.6799 82.5553 72.8271 82.4825C74.2257 82.191 75.4771 81.6082 76.5813 80.7338C76.6549 80.661 76.7285 80.661 76.8757 80.661C76.9493 80.661 77.0965 80.7338 77.0965 80.8067C77.6854 81.6082 78.4216 82.191 79.3049 82.5553C80.9979 83.2839 83.2063 83.2111 84.1632 81.3167C84.3841 80.9524 84.4577 80.5881 84.5313 80.151C84.5313 80.0052 84.6785 79.9324 84.7521 79.8595C86.3716 79.2767 87.7702 78.2566 88.8008 76.8723C88.8744 76.7994 88.948 76.7266 89.0952 76.7266H105.363C105.437 76.7266 105.584 76.7994 105.658 76.8723C105.731 76.9451 105.731 77.0909 105.731 77.1637C102.934 95.3787 87.1813 108.639 68.7785 108.566ZM32.4881 77.6737C35.9478 97.4916 55.0131 110.752 74.9618 107.328C90.273 104.705 102.272 92.8286 104.922 77.6737H89.316C88.2119 78.9852 86.8132 80.0053 85.1938 80.661C85.1202 81.0981 84.973 81.4624 84.7521 81.8267C83.5743 84.0854 80.8507 84.2311 78.9368 83.3568C78.0535 82.9925 77.2438 82.4096 76.6549 81.6082C75.6243 82.4096 74.3729 82.9196 73.1215 83.2111C72.9743 85.324 71.134 86.9998 68.9993 86.9269C67.159 86.9998 65.5396 85.834 65.0979 84.0854C64.7298 84.0854 64.2882 84.0125 63.9201 83.9397C63.6993 83.8668 63.4048 83.794 63.184 83.7211L62.9632 83.6482C62.5215 83.5025 62.0798 83.2839 61.7118 83.0654C61.4173 82.8468 61.1229 82.6282 60.902 82.4096C59.209 81.9725 57.7368 80.8796 56.7798 79.3495C56.4118 78.8395 56.2645 78.1838 56.1909 77.6009L32.4881 77.6737Z" fill="#231F20"/>
<path d="M89.1688 77.2359C88.0647 78.6203 86.5924 79.7132 84.8994 80.2961C84.8258 80.7332 84.6785 81.1704 84.4577 81.5347C83.3535 83.5747 80.998 83.7205 79.0841 82.919C78.1271 82.4818 77.3174 81.8261 76.7285 81.0247C75.5507 81.899 74.2257 82.5547 72.8271 82.8461C72.8271 84.8862 71.2077 86.4891 69.2202 86.562C69.1465 86.562 69.1465 86.562 69.0729 86.562C67.3063 86.6349 65.7604 85.3962 65.3924 83.7205C64.9507 83.7205 64.4354 83.7205 63.9938 83.6476C63.7729 83.5747 63.5521 83.5019 63.3312 83.429C62.816 83.2833 62.3743 83.0647 61.9326 82.7733C61.6382 82.5547 61.3437 82.3361 61.0493 82.1176C59.3562 81.6804 57.9576 80.6604 57.0743 79.1303C56.7062 78.5474 56.559 77.8917 56.559 77.1631H37.42C40.6589 94.2851 57.2951 105.578 74.5938 102.3C87.4758 99.8953 97.5605 89.9135 99.9897 77.1631H89.1688V77.2359Z" fill="#E8521F"/>
<path d="M68.7784 103.32C53.2464 103.32 39.9228 92.3914 37.1255 77.3094C37.0519 77.0909 37.1991 76.9451 37.42 76.8723H37.4936H56.6325C56.7062 76.8723 56.8534 76.9451 56.927 77.018C57.0006 77.0909 57.0006 77.1637 57.0006 77.3094C57.0006 77.8923 57.1478 78.5481 57.4423 79.0581C58.252 80.4424 59.6506 81.3896 61.1964 81.8267C61.2701 81.8267 61.3437 81.8996 61.3437 81.8996C61.6381 82.1182 61.8589 82.3368 62.1534 82.5553C62.5215 82.7739 62.8895 82.9196 63.2576 83.0654L63.4784 83.1382C63.6992 83.2111 63.9201 83.2839 64.1409 83.2839C64.5826 83.3568 65.0242 83.4297 65.4659 83.3568C65.6867 83.3568 65.834 83.4297 65.834 83.6482C66.1284 85.1783 67.527 86.2712 69.1465 86.1983C70.9868 86.2712 72.5326 84.814 72.5326 82.9925C72.5326 82.9196 72.5326 82.9196 72.5326 82.8468C72.5326 82.7011 72.6798 82.5553 72.827 82.4825C74.2257 82.191 75.4771 81.6082 76.5812 80.7338C76.6548 80.661 76.7284 80.661 76.8757 80.661C76.9493 80.661 77.0965 80.7338 77.0965 80.8067C77.6854 81.6082 78.4215 82.191 79.3048 82.5553C80.9979 83.2839 83.2062 83.2111 84.1632 81.3167C84.384 80.9524 84.4576 80.5881 84.5313 80.151C84.5313 80.0052 84.6785 79.9324 84.7521 79.8595C86.3715 79.2767 87.7701 78.2566 88.8007 76.8723C88.8743 76.7994 88.9479 76.7266 89.0952 76.7266H99.9896C100.137 76.7266 100.21 76.7994 100.284 76.8723C100.358 76.9451 100.358 77.0909 100.358 77.1637C97.5605 92.4643 84.2368 103.393 68.7784 103.32ZM37.9353 77.6737C41.395 94.5772 58.0312 105.433 75.0354 102.009C87.4021 99.5317 97.1188 89.9142 99.6216 77.6737H89.3896C88.2854 78.9852 86.8868 80.0053 85.2674 80.661C85.1938 81.0981 85.0465 81.4624 84.8257 81.8267C83.6479 84.0854 80.9243 84.2311 79.0104 83.3568C78.1271 82.9925 77.3173 82.4096 76.7284 81.6082C75.6979 82.4096 74.4465 82.9196 73.1951 83.2111C73.0479 85.324 71.2076 86.9998 69.0729 86.9269C67.2326 86.9998 65.6131 85.834 65.1715 84.0854C64.8034 84.0854 64.3617 84.0125 63.9937 83.9397C63.7728 83.8668 63.4784 83.794 63.2576 83.7211L63.0367 83.6482C62.5951 83.5025 62.1534 83.2839 61.7853 83.0654C61.4909 82.8468 61.1964 82.6282 60.9756 82.4096C59.2826 81.9725 57.8103 80.8796 56.8534 79.3495C56.4853 78.8395 56.3381 78.1838 56.2645 77.6009L37.9353 77.6737Z" fill="#231F20"/>
<path d="M89.1688 77.2359C88.0646 78.6203 86.5924 79.7132 84.8993 80.2961C84.8257 80.7332 84.6785 81.1704 84.4576 81.5347C83.3535 83.5747 80.9979 83.7205 79.084 82.919C78.1271 82.4819 77.3173 81.8261 76.7284 81.0247C75.5507 81.899 74.2257 82.5547 72.827 82.8462C72.827 84.8862 71.2076 86.4891 69.2201 86.562C69.1465 86.562 69.1465 86.562 69.0729 86.562C67.3062 86.6349 65.7603 85.3962 65.3923 83.7205C64.9506 83.7205 64.4353 83.7205 63.9937 83.6476C63.7728 83.5747 63.552 83.5019 63.3312 83.429C62.8159 83.2833 62.3742 83.0647 61.9326 82.7733C61.6381 82.5547 61.3437 82.3361 61.0492 82.1176C59.3562 81.6804 57.9575 80.6604 57.0742 79.1303C56.7061 78.5474 56.5589 77.8917 56.5589 77.1631H40.8797C44.1186 92.3908 59.2825 102.154 74.6673 98.9482C85.709 96.6166 94.3952 88.0921 96.6771 77.1631H89.1688V77.2359Z" fill="#E8521F"/>
<path d="M68.7785 100.042C55.1604 99.9688 43.3826 90.5699 40.5117 77.3094C40.5117 77.1637 40.5117 77.0909 40.5853 77.018C40.6589 76.9451 40.7326 76.8723 40.8798 76.8723H56.6326C56.7062 76.8723 56.8534 76.9451 56.9271 77.018C57.0007 77.0909 57.0007 77.1637 57.0007 77.3094C57.0007 77.8923 57.1479 78.5481 57.4423 79.0581C58.2521 80.4424 59.6507 81.3896 61.1965 81.8267C61.2701 81.8267 61.3437 81.8996 61.3437 81.8996C61.6382 82.1182 61.859 82.3368 62.1535 82.5553C62.5215 82.7739 62.8896 82.9196 63.2576 83.0654L63.4785 83.1382C63.6993 83.2111 63.9201 83.2839 64.141 83.2839C64.5826 83.3568 65.0243 83.4297 65.466 83.3568C65.6868 83.3568 65.834 83.4297 65.834 83.6482C66.1285 85.1783 67.5271 86.2712 69.1465 86.1983C70.9868 86.2712 72.5327 84.814 72.5327 82.9925C72.5327 82.9196 72.5327 82.9196 72.5327 82.8468C72.5327 82.7011 72.6799 82.5553 72.8271 82.4825C74.2257 82.191 75.4771 81.6082 76.5813 80.7338C76.6549 80.661 76.7285 80.661 76.8757 80.661C76.9493 80.661 77.0966 80.7338 77.0966 80.8067C77.6855 81.6082 78.4216 82.191 79.3049 82.5553C80.998 83.2839 83.2063 83.2111 84.1633 81.3167C84.3841 80.9524 84.4577 80.5881 84.5313 80.151C84.5313 80.0052 84.6785 79.9324 84.7521 79.8595C86.3716 79.2767 87.7702 78.2566 88.8008 76.8723C88.8744 76.7994 88.948 76.7266 89.0952 76.7266H96.6036C96.7508 76.7266 96.8244 76.7994 96.898 76.8723C96.9716 76.9451 96.9716 77.0909 96.9716 77.1637C94.1744 90.5699 82.3966 100.042 68.7785 100.042ZM41.3214 77.6737C44.7812 92.6828 59.8715 102.082 75.0354 98.6573C85.5619 96.253 93.8063 88.1655 96.2355 77.6737H89.3897C88.2855 78.9852 86.8869 80.0053 85.2674 80.661C85.1938 81.0981 85.0466 81.4624 84.8258 81.8267C83.648 84.0854 80.9244 84.2311 79.0105 83.3568C78.1271 82.9925 77.3174 82.4096 76.7285 81.6082C75.6979 82.4096 74.4466 82.9196 73.1952 83.2111C73.0479 85.324 71.2077 86.9998 69.0729 86.9269C67.2326 86.9998 65.6132 85.834 65.1715 84.0854C64.8035 84.0854 64.3618 84.0125 63.9937 83.9397C63.7729 83.8668 63.4785 83.794 63.2576 83.7211L63.0368 83.6482C62.5951 83.5025 62.1535 83.2839 61.7854 83.0654C61.491 82.8468 61.1965 82.6282 60.9757 82.4096C59.2826 81.9725 57.8104 80.8796 56.8534 79.3495C56.4854 78.8395 56.3382 78.1838 56.2646 77.6009L41.3214 77.6737Z" fill="#231F20"/>
<path d="M50.3019 80.7337C50.3019 80.5151 50.2283 80.3694 50.0811 80.2237C49.7866 80.0051 49.345 80.0051 49.0505 80.2965L47.9464 81.608C47.7991 81.7537 47.7255 81.9723 47.7255 82.118C47.7991 82.4823 48.0936 82.7738 48.4616 82.7738C48.6825 82.7738 48.8297 82.7009 48.9769 82.5552L50.0811 81.2437C50.2283 81.098 50.3019 80.8794 50.3019 80.7337Z" fill="#D1D3D4"/>
<path d="M86.5188 85.6881C86.2243 85.1052 85.8563 84.5223 85.4882 83.9394C85.1938 83.648 84.6785 83.7209 84.4576 84.0123C84.384 84.158 84.3104 84.2309 84.3104 84.3766V84.5952C84.3104 84.668 84.384 84.7409 84.4576 84.8137C84.8257 85.2509 85.1202 85.7609 85.341 86.2709C85.4146 86.4167 85.5618 86.5624 85.7827 86.5624C86.0035 86.6352 86.1507 86.5624 86.3715 86.4895C86.5188 86.4167 86.666 86.2709 86.666 86.0524V85.8338C86.5924 85.9066 86.5924 85.7609 86.5188 85.6881Z" fill="#D1D3D4"/>
<path d="M74.8145 88.0195C74.3729 88.0195 74.0784 88.3838 74.0784 88.7481V90.5696C74.0784 90.9339 74.4465 91.2982 74.8145 91.2982C75.1826 91.2982 75.5507 91.0068 75.5507 90.5696V88.7481C75.5507 88.311 75.1826 88.0195 74.8145 88.0195Z" fill="#D1D3D4"/>
<path d="M61.4173 86.8537C61.3437 86.708 61.2701 86.5622 61.1229 86.4165C60.9756 86.3437 60.7548 86.2708 60.6076 86.3437C60.4604 86.4165 60.2395 86.4894 60.1659 86.6351L59.209 88.748C59.1353 88.8938 59.0617 89.1123 59.1353 89.3309C59.209 89.4766 59.2826 89.6224 59.4298 89.7681C59.577 89.8409 59.7978 89.9138 60.0187 89.8409C60.1659 89.7681 60.3867 89.6952 60.4603 89.5495L61.4173 87.4366C61.4173 87.2908 61.4173 87.0723 61.4173 86.8537Z" fill="#D1D3D4"/>
<path d="M68.0423 92.6827C68.0423 92.4641 67.9687 92.3184 67.8215 92.1727C67.6743 92.027 67.527 91.9541 67.3062 91.9541C67.0854 91.9541 66.9382 92.027 66.7909 92.1727C66.6437 92.3184 66.5701 92.4641 66.5701 92.6827C66.6437 93.1199 66.6437 93.557 66.5701 93.9942C66.5701 94.1399 66.5701 94.2127 66.4965 94.3585C66.4229 94.577 66.4965 94.7228 66.5701 94.9413C66.6437 95.0871 66.7909 95.2328 67.0118 95.2328C67.3798 95.3056 67.7479 95.0871 67.8951 94.7228C68.0423 93.9942 68.0423 93.3384 68.0423 92.6827Z" fill="#D1D3D4"/>
<path d="M82.3965 91.2987L81.9549 90.2058C81.9549 90.133 81.8813 90.0601 81.8076 89.9872C81.734 89.9144 81.6604 89.8415 81.5868 89.7687C81.5132 89.6958 81.4396 89.6958 81.2924 89.6958C81.2188 89.6958 81.0715 89.6958 80.9979 89.6958C80.8507 89.7687 80.7035 89.8415 80.5562 89.9872C80.4826 90.133 80.409 90.3515 80.4826 90.5701L80.8507 91.663C80.8507 91.7359 80.9243 91.8087 80.9979 91.8816C81.0715 91.9544 81.1451 92.0273 81.2188 92.1002C81.2924 92.173 81.366 92.173 81.5132 92.173C81.5868 92.173 81.734 92.173 81.8076 92.173C81.9549 92.1002 82.1757 92.0273 82.2493 91.8816C82.4701 91.663 82.4701 91.4444 82.3965 91.2987Z" fill="#D1D3D4"/>
<path d="M55.3076 89.3311C55.3076 89.1126 55.234 88.9668 55.0868 88.8211C54.7923 88.5297 54.3506 88.5297 54.0562 88.8211C53.6881 89.1854 53.4673 89.6954 53.2465 90.1326C53.1729 90.2055 53.1729 90.2783 53.1729 90.424C53.1729 90.4969 53.1729 90.6426 53.1729 90.7155C53.2465 90.8612 53.3201 91.0798 53.4673 91.1526C53.6145 91.2255 53.8354 91.2984 53.9826 91.2255C54.1298 91.1526 54.3506 91.0798 54.4242 90.9341C54.5715 90.5698 54.7923 90.2055 55.0868 89.8412C55.1604 89.7683 55.1604 89.6954 55.234 89.6226C55.234 89.5497 55.3076 89.404 55.3076 89.3311Z" fill="#D1D3D4"/>
<path d="M54.6451 83.2108L54.2034 82.9194C54.0562 82.8465 53.9826 82.8465 53.8354 82.9194C53.6882 82.9923 53.5409 83.0651 53.3937 83.2108L51.6271 85.6152C51.5534 85.7609 51.4798 85.9795 51.5534 86.1252C51.6271 86.2709 51.7007 86.4895 51.8479 86.5624C51.9951 86.6352 52.2159 86.7081 52.3632 86.6352C52.5104 86.5624 52.6576 86.4895 52.8048 86.3438L54.5715 83.9394C54.6451 83.7937 54.7187 83.5751 54.6451 83.3565C54.7187 83.2837 54.6451 83.2108 54.6451 83.2108Z" fill="#D1D3D4"/>
<path d="M91.7452 82.5554L89.3161 80.151C88.948 79.9325 88.5064 80.0782 88.2855 80.4425C88.1383 80.6611 88.1383 80.8796 88.2855 81.0982L90.7147 83.5026C90.9355 83.8669 91.3772 84.0126 91.7452 83.794C92.1133 83.5754 92.2605 83.1383 92.0397 82.774C92.0397 82.7011 91.8925 82.6283 91.7452 82.5554Z" fill="#D1D3D4"/>
<path d="M33.8866 94.1396C34.9172 91.8081 36.0214 89.5494 37.2727 87.3636C37.5672 86.7808 37.9353 86.2707 38.4505 85.9064C38.9658 85.4693 39.7019 85.4693 40.2172 85.8336C40.6589 86.3436 40.8061 87.0722 40.5853 87.7279C40.2908 89.3309 39.7019 90.7881 38.8186 92.0995C39.1866 90.4238 40.07 88.8937 41.2478 87.7279C41.6894 87.2179 42.2783 86.9265 42.9408 86.9993C43.3089 87.0722 43.6033 87.2908 43.8242 87.5822C45.1492 89.1851 44.3394 91.5895 43.3825 93.411C43.8978 91.8809 44.9283 90.6423 46.4006 89.8409C46.8422 89.5494 47.3575 89.4766 47.7992 89.768C48.1672 90.0595 48.0936 90.7152 48.02 91.2252C47.652 92.6095 47.2103 93.921 46.6214 95.2325C46.9895 94.2125 47.652 93.3381 48.6089 92.6824C49.5659 92.1724 51.0381 92.6095 51.2589 93.6296C51.2589 94.2125 51.1117 94.7953 50.7436 95.2325C49.7867 96.9083 49.1978 98.8026 48.9034 100.697C48.8297 101.061 48.8297 101.498 49.0506 101.79C49.1978 102.008 49.4186 102.227 49.6395 102.446C50.4492 103.32 49.9339 104.777 49.1978 105.724C46.695 108.712 42.5728 109.732 38.9658 108.274C33.9602 106.089 31.7519 98.9483 33.8866 94.1396Z" fill="white"/>
<path d="M42.2783 109.295C41.1005 109.295 39.9227 109.003 38.8186 108.566C33.8866 106.38 31.2366 99.1671 33.5922 93.9212C34.6227 91.5896 35.8005 89.331 37.0519 87.0723C37.3463 86.4166 37.788 85.9066 38.3769 85.4694C39.0394 84.9594 39.9227 84.9594 40.5852 85.4694C41.1005 85.9066 41.3213 86.6352 41.1741 87.2909C41.6894 86.708 42.4255 86.4166 43.1616 86.4895C43.6033 86.5623 43.9714 86.8538 44.2658 87.1452C45.0019 88.0195 45.2228 89.1853 45.0019 90.2782C45.4436 89.9139 45.8853 89.5496 46.4005 89.331C46.9158 88.8938 47.7255 88.8938 48.2408 89.2581C48.9033 89.7681 48.6825 90.7882 48.5353 91.0796C48.388 91.3711 48.3144 91.9539 48.1672 92.3911C48.3144 92.3182 48.388 92.2454 48.5353 92.1725C49.2714 91.8082 50.0811 91.8082 50.7436 92.1725C51.2589 92.3911 51.6269 92.9011 51.7006 93.4111C51.7006 94.0669 51.5533 94.7226 51.1853 95.2326V95.3055C50.2283 96.9813 49.6394 98.8027 49.4186 100.697C49.345 100.989 49.345 101.28 49.4922 101.571C49.5658 101.717 49.713 101.79 49.7867 101.863C49.8603 101.936 50.0075 102.009 50.0811 102.154C51.0381 103.174 50.5228 104.777 49.6394 105.943C47.8728 108.056 45.1491 109.367 42.2783 109.295ZM39.4811 85.9066C39.1866 85.9066 38.9658 85.9794 38.7449 86.1252C38.3033 86.4895 37.9352 86.9266 37.7144 87.5095C36.463 89.6953 35.3588 91.9539 34.3283 94.2855C32.1935 99.1671 34.5491 105.87 39.1866 107.91C42.6464 109.367 46.6214 108.347 48.9769 105.433C49.6394 104.559 50.0811 103.32 49.4186 102.664C49.345 102.591 49.2714 102.519 49.1978 102.446C49.0505 102.3 48.9033 102.154 48.7561 101.936C48.5353 101.499 48.4617 101.061 48.6089 100.551C48.9033 98.5842 49.5658 96.6898 50.5228 94.9412L50.5964 94.8683C50.8908 94.504 51.0381 93.994 51.0381 93.5569C50.9644 93.2654 50.8172 92.974 50.5228 92.9011C50.0811 92.6825 49.4922 92.6825 49.0505 92.9011C48.2408 93.484 47.5783 94.2854 47.2839 95.2326C47.2103 95.4512 46.9894 95.5241 46.7686 95.4512C46.5478 95.3783 46.4741 95.1598 46.5478 94.9412C47.1367 93.6297 47.5783 92.3182 47.8728 91.0068C48.02 90.4239 48.02 90.0596 47.7992 89.9139C47.5783 89.7681 46.9894 89.9867 46.7686 90.0596C45.8116 90.5696 45.0019 91.3711 44.4866 92.2454C44.3394 92.6825 44.1186 93.0468 43.9714 93.484C43.8977 93.6297 43.6769 93.7754 43.4561 93.7026C43.2352 93.6297 43.1616 93.4111 43.2352 93.2654C43.3825 92.8283 43.6033 92.3911 43.8241 92.0268C44.413 90.5696 44.7075 88.8938 43.7505 87.8009C43.6033 87.5824 43.3825 87.4366 43.088 87.3638C42.72 87.2909 42.2783 87.5095 41.763 88.0195C41.4686 88.311 41.2477 88.6024 41.0269 88.8938C40.6588 90.1324 40.1436 91.2982 39.4075 92.3911C39.3338 92.5368 39.113 92.6097 38.9658 92.5368C38.8186 92.464 38.6713 92.2454 38.7449 92.0997C39.0394 90.861 39.6283 89.6224 40.3644 88.6024C40.438 88.311 40.5116 88.0924 40.5116 87.8009C40.6588 87.0723 40.5116 86.4895 40.2172 86.2709C39.9227 85.9794 39.7019 85.9066 39.4811 85.9066Z" fill="#231F20"/>
<path d="M104.038 93.9213C103.008 91.5898 101.904 89.3312 100.652 87.1454C100.358 86.5625 99.9896 86.0525 99.4743 85.6882C98.9591 85.251 98.2229 85.251 97.7077 85.6153C97.266 86.1253 97.1188 86.8539 97.266 87.5097C97.5604 89.1126 98.1493 90.5698 99.1063 91.8813C98.7382 90.2055 97.8549 88.6754 96.6771 87.5097C96.2354 86.9997 95.6465 86.7082 94.984 86.7811C94.616 86.8539 94.3215 87.0725 94.1007 87.364C92.7757 88.9669 93.5854 91.3712 94.5424 93.1927C94.0271 91.6627 92.9965 90.4241 91.5243 89.6226C91.0826 89.3312 90.5674 89.2583 90.1257 89.5497C89.7576 89.8412 89.8312 90.4969 89.9049 91.0069C90.2729 92.3913 90.7146 93.7028 91.3035 95.0142C90.9354 93.9942 90.2729 93.1199 89.316 92.4641C88.359 91.9541 86.8132 92.3913 86.666 93.4113C86.666 93.9942 86.8868 94.5771 87.1812 95.0871C88.1382 96.7629 88.7271 98.6572 89.0215 100.552C89.0951 100.916 89.0951 101.353 88.9479 101.644C88.7271 101.863 88.5799 102.082 88.359 102.3C87.5493 103.175 88.0646 104.632 88.8007 105.579C91.3035 108.566 95.4257 109.586 99.0327 108.129C103.965 105.87 106.173 98.7301 104.038 93.9213Z" fill="white"/>
<path d="M95.6467 109.076C92.8494 109.076 90.1994 107.838 88.4328 105.725C87.5494 104.559 87.0342 103.029 87.9911 101.936C88.0647 101.863 88.1383 101.79 88.2855 101.717C88.4328 101.645 88.5064 101.499 88.58 101.426C88.7272 101.134 88.7272 100.843 88.6536 100.552C88.3592 98.6572 87.7703 96.8358 86.8869 95.16L86.8133 95.0871C86.4453 94.5771 86.2244 93.9214 86.298 93.2656C86.3717 92.6827 86.7397 92.2456 87.255 92.027C87.9911 91.6627 88.8008 91.6627 89.4633 92.027C89.6106 92.0999 89.7578 92.1727 89.8314 92.2456C89.6842 91.8084 89.6106 91.3713 89.4633 90.9341C89.3897 90.6427 89.0953 89.6226 89.7578 89.1126C90.3467 88.7483 91.0828 88.7483 91.5981 89.1855C92.1133 89.4769 92.555 89.7684 92.9967 90.1327C92.7758 89.0398 92.9967 87.874 93.7328 86.9997C94.0272 86.6354 94.3953 86.4168 94.837 86.344C95.5731 86.2711 96.3092 86.5625 96.8245 87.1454C96.6772 86.4897 96.8981 85.8339 97.4134 85.3239C98.0759 84.8139 98.9592 84.8139 99.6217 85.3239C100.211 85.7611 100.652 86.2711 100.947 86.9268C102.198 89.1126 103.376 91.4441 104.333 93.7028C106.615 98.9487 104.038 106.162 99.1064 108.348C98.0759 108.858 96.8245 109.076 95.6467 109.076ZM88.3592 92.537C88.0647 92.537 87.8439 92.6099 87.623 92.6828C87.3286 92.8285 87.1078 93.0471 87.1078 93.3385C87.1078 93.8485 87.255 94.2857 87.5494 94.65L87.623 94.7228C88.58 96.4715 89.2425 98.3658 89.5369 100.333C89.6106 100.77 89.6106 101.28 89.3897 101.717C89.2425 101.936 89.0953 102.082 88.9481 102.227C88.8744 102.3 88.8008 102.373 88.7272 102.446C88.0647 103.175 88.5064 104.413 89.1689 105.215C91.5244 108.056 95.4995 109.076 98.9592 107.692C103.597 105.652 105.952 98.9487 103.818 94.0671C102.787 91.8084 101.683 89.4769 100.431 87.2911C100.211 86.7811 99.8425 86.2711 99.4009 85.9068C99.0328 85.6154 98.5175 85.6154 98.0759 85.8339C97.7814 86.1254 97.7078 86.5625 97.7814 87.364C97.855 87.6554 97.855 87.874 97.9286 88.1654C98.7384 89.1855 99.2536 90.4241 99.5481 91.6627C99.6217 91.8084 99.4745 92.027 99.3272 92.0999C99.18 92.1727 98.9592 92.0999 98.8856 91.9542C98.1495 90.9341 97.5606 89.6955 97.2661 88.4569C97.0453 88.1654 96.7509 87.874 96.53 87.5826C96.0147 87.0726 95.5731 86.854 95.205 86.9268C94.9842 86.9997 94.6897 87.1454 94.5425 87.364C93.5856 88.4569 93.88 90.1327 94.4689 91.5899C94.6897 91.9542 94.9106 92.3913 95.0578 92.8285C95.1314 93.047 95.0578 93.2656 94.837 93.3385C94.6161 93.4114 94.3953 93.3385 94.3217 93.1199C94.1008 92.7556 93.9536 92.3185 93.8064 91.8813C93.2911 90.9341 92.4814 90.2055 91.5245 89.6955C91.3772 89.6226 90.7883 89.3312 90.4939 89.5498C90.1994 89.7684 90.2731 90.0598 90.4203 90.6427C90.7883 92.027 91.23 93.3385 91.7453 94.5771C91.8189 94.7957 91.7453 95.0143 91.5245 95.0871C91.3036 95.16 91.0828 95.0871 91.0092 94.8685C90.4939 93.8485 90.0522 92.9742 89.2425 92.537C88.8008 92.6099 88.58 92.537 88.3592 92.537Z" fill="#231F20"/>
<path d="M10.6991 130.861C10.6255 130.861 10.6255 130.861 10.5519 130.861C10.331 130.788 10.2574 130.57 10.4047 130.351C16.22 118.402 32.6353 97.7829 32.8561 97.6371C33.0033 97.4914 33.2242 97.4186 33.3714 97.5643C33.5186 97.71 33.5922 97.9286 33.445 98.0743C33.2978 98.2929 16.8825 118.839 11.1408 130.715C10.9935 130.788 10.8463 130.861 10.6991 130.861Z" fill="#231F20"/>
<path d="M25.127 141.936C24.9797 141.936 24.9061 141.863 24.8325 141.79C24.6853 141.644 24.7589 141.426 24.9061 141.28C25.0533 141.134 39.7756 129.477 44.0451 111.116C44.1187 110.898 44.2659 110.825 44.4867 110.825C44.7076 110.898 44.7812 111.043 44.7812 111.262C40.5117 129.841 25.5686 141.717 25.4214 141.79C25.2742 141.863 25.2006 141.936 25.127 141.936Z" fill="#231F20"/>
<path d="M70.9132 31.0429C70.9132 34.613 67.7479 37.5274 63.8465 37.5274C59.9451 37.5274 56.7798 34.613 56.7798 31.0429C56.7798 27.4728 59.9451 26.3799 63.8465 26.3799C67.7479 26.3799 70.9132 27.4728 70.9132 31.0429Z" fill="#231F20"/>
<path d="M63.7729 37.8195C59.6506 37.8195 56.2645 34.7594 56.2645 30.9707C56.2645 28.6392 57.5895 25.9434 63.7729 25.9434C69.9562 25.9434 71.2813 28.712 71.2813 30.9707C71.2813 34.7594 67.8951 37.8195 63.7729 37.8195ZM63.7729 26.672C59.2826 26.672 57.0743 28.1292 57.0743 30.9707C57.0743 34.3222 60.0923 37.0909 63.7729 37.0909C67.5271 37.0909 70.4715 34.3951 70.4715 30.9707C70.5451 28.1292 68.2632 26.672 63.7729 26.672Z" fill="#231F20"/>
<path d="M89.3161 31.0429C89.3161 34.613 86.1508 37.5274 82.2494 37.5274C78.348 37.5274 75.1827 34.613 75.1827 31.0429C75.1827 27.4728 78.348 26.3799 82.2494 26.3799C86.1508 26.3799 89.3161 27.4728 89.3161 31.0429Z" fill="#231F20"/>
<path d="M82.2493 37.8195C78.1271 37.8195 74.741 34.7594 74.741 30.9707C74.741 28.6392 76.066 25.9434 82.2493 25.9434C88.4327 25.9434 89.6841 28.712 89.6841 30.9707C89.6841 34.7594 86.2979 37.8195 82.2493 37.8195ZM82.2493 26.672C77.759 26.672 75.5507 28.1292 75.5507 30.9707C75.5507 34.3222 78.5688 37.0909 82.2493 37.0909C86.0035 37.0909 88.948 34.3951 88.948 30.9707C88.948 28.1292 86.666 26.672 82.2493 26.672Z" fill="#231F20"/>
<path d="M75.1827 31.4077C75.109 31.4077 75.0354 31.4077 74.9618 31.3348C72.5327 29.7319 71.2076 31.1891 71.2076 31.2619C71.0604 31.4077 70.8396 31.4805 70.6924 31.3348C70.5451 31.1891 70.4715 30.9705 70.6188 30.8248C70.6188 30.8248 70.6188 30.7519 70.6924 30.7519C70.6924 30.7519 72.459 28.7118 75.4771 30.6791C75.6243 30.8248 75.6979 31.0434 75.5507 31.1891C75.4035 31.3348 75.2563 31.4077 75.1827 31.4077Z" fill="#231F20"/>
<path d="M72.6062 48.8209C70.9131 48.8938 69.3673 48.0195 68.5576 46.6351C68.484 46.4166 68.5576 46.198 68.7048 46.1251C68.9256 46.0523 69.1465 46.1251 69.2201 46.2708C69.8826 47.5823 71.4284 48.0923 72.7534 48.0195C75.0354 47.8738 77.0965 46.3437 77.8326 44.2308C77.9062 44.0122 78.127 43.9393 78.3479 44.0122C78.5687 44.085 78.6423 44.3036 78.5687 44.5222C77.6854 46.9994 75.4034 48.7481 72.7534 48.8938L72.6062 48.8209Z" fill="#231F20"/>
<path d="M66.7173 48.1651C66.4965 48.0923 66.3493 47.9465 66.4229 47.728C66.4229 47.5822 66.5701 47.5094 66.6437 47.4365C67.2326 47.3637 67.8215 46.9994 68.116 46.4165C68.4104 45.9065 68.484 45.2507 68.2632 44.6679C68.1896 44.4493 68.1896 44.2307 68.4104 44.1578C68.6312 44.085 68.8521 44.085 68.9257 44.3036V44.3764C69.441 45.8336 68.7048 47.5094 67.159 48.0923C67.0854 48.0923 66.9382 48.1651 66.7173 48.1651Z" fill="#231F20"/>
<path d="M63.4785 46.9264C63.2577 47.0721 62.9632 47.2907 62.7424 47.5093C62.5215 47.7278 62.3743 47.9464 62.3007 48.2378C62.2271 48.5293 62.4479 48.8207 62.7424 48.8207C62.9632 48.7479 63.184 48.675 63.2577 48.4564C63.5521 47.9464 63.6257 47.3635 63.5521 46.8535" fill="#D1D3D4"/>
<path d="M64.8034 44.2311C64.509 44.1582 64.2145 44.1582 63.9201 44.1582C63.6256 44.1582 63.3312 44.1582 63.1104 44.3768C62.8895 44.5225 62.8159 44.8868 62.9631 45.1054C63.184 45.2511 63.4048 45.2511 63.6256 45.1782C64.2145 45.0325 64.6562 44.6682 64.9506 44.2311" fill="#D1D3D4"/>
<path d="M85.4883 128.457C67.8215 128.238 50.2284 118.839 50.0076 118.766C49.8604 118.693 49.7867 118.475 49.8604 118.256C49.934 118.111 50.1548 118.038 50.3756 118.111C50.5229 118.183 67.9688 127.51 85.4883 127.728C85.7091 127.728 85.8563 127.874 85.8563 128.092C85.8563 128.238 85.7091 128.384 85.4883 128.457Z" fill="#231F20"/>
</svg>
