<svg width="400" height="263" viewBox="0 0 400 263" fill="none" xmlns="http://www.w3.org/2000/svg">
<path d="M412.066 217.272C376.3 213.209 336.116 201.951 303.526 175.837C293.584 167.829 293.998 147.75 303.94 139.509C308.774 135.447 314.297 130.34 320.511 129.18C351.858 123.492 380.857 108.288 414.551 111.538C427.532 112.815 441.203 115.252 444.241 127.323C449.626 148.214 455.564 169.57 455.702 190.693C455.84 213.325 447.555 217.272 412.066 217.272Z" fill="#F8F3EF"/>
<path d="M481.939 194.175C482.216 195.452 482.492 199.514 484.011 203.228C489.672 217.852 484.149 232.941 469.511 241.994C458.602 248.725 446.036 246.868 436.369 238.86C428.36 232.244 418.418 227.37 410.132 220.87C398.256 211.469 399.361 196.381 411.513 187.328C413.584 185.819 415.103 183.381 416.208 181.176C421.594 169.918 433.884 166.552 447.693 171.659C454.597 174.212 462.469 175.257 470.064 175.953C478.487 176.534 482.63 181.176 481.939 194.175Z" fill="#F0AD9D"/>
<path d="M340.949 87.5126C338.464 50.6043 375.196 38.8818 394.528 17.5261C395.909 15.9012 408.476 18.9188 413.033 22.4007C421.732 29.1325 429.465 37.2569 435.956 45.7296C470.34 90.4142 505.001 135.099 537.729 180.596C544.633 190.113 544.219 203.344 547.119 214.951C532.619 212.397 515.358 213.21 504.173 206.71C461.917 181.873 421.87 154.598 380.719 128.483C362.353 116.877 334.045 111.77 340.949 87.5126Z" fill="#F0BE69"/>
<path d="M345.782 158.311C333.63 155.41 322.997 153.669 313.054 150.535C296.76 145.312 280.327 140.089 265.137 133.009C249.256 125.465 249.118 113.975 262.927 104.225C282.951 90.1817 282.536 90.4138 302.145 106.315C314.988 116.76 328.935 126.161 342.33 136.259C346.196 139.161 350.063 142.178 352.825 145.776C354.344 147.749 354.62 151.696 353.377 153.669C351.72 155.99 347.715 157.267 345.782 158.311Z" fill="#37444D"/>
<path d="M84.8256 43.1823C84.9875 45.2874 85.0685 47.3924 84.9875 49.4975C84.9066 50.55 84.8256 51.6026 84.6637 52.6551C84.5828 53.2219 84.4209 53.7076 84.259 54.2744C84.178 54.5173 84.0971 54.8411 83.9352 55.084L83.7733 55.4079C83.7733 55.4889 83.6923 55.5698 83.6923 55.6508C83.5304 56.3795 83.7733 57.351 84.259 58.1607C84.7447 58.9703 85.3113 59.78 85.959 60.5896L86.4447 61.1564L86.6875 61.3992L86.8494 61.5612C86.9304 61.6421 87.0114 61.7231 87.0114 61.8041C87.2542 62.1279 87.3352 62.6137 87.3352 63.0185C87.3352 63.2614 87.2542 63.4233 87.1733 63.5853C87.0923 63.7472 87.0114 63.8282 86.9304 63.9901C86.2828 64.8807 85.2304 65.6903 84.0971 65.9332L84.4209 65.6903C83.5304 67.3906 82.478 69.0908 81.4256 70.6292C80.3733 72.2484 79.159 73.7868 77.7018 75.0822C76.9733 75.7299 76.1637 76.3776 75.1923 76.7015C74.7066 76.8634 74.2209 77.0253 73.6542 77.0253C73.4114 77.0253 73.0875 77.0253 72.8447 76.9444L72.1161 76.7824C71.1447 76.6205 70.1733 76.3776 69.2828 75.9728C68.7971 75.8109 68.3114 75.568 67.9066 75.2441C67.6637 75.0822 67.4209 74.9203 67.259 74.6774C67.178 74.5964 67.0161 74.4345 66.9352 74.2725C66.8542 74.1916 66.8542 74.1106 66.8542 74.0296C66.8542 73.9487 66.7733 73.8677 66.7733 73.6248L67.8256 74.1916C67.178 74.6774 66.5304 75.3251 65.9637 76.0538C65.3971 76.7015 64.9114 77.4301 64.5066 78.2398C64.1018 78.9685 63.6971 79.7781 63.4542 80.6687C63.2114 81.4784 63.0495 82.369 62.8875 83.2596V83.3405C62.8066 83.8263 62.4018 84.0692 61.9161 84.0692C61.6733 83.9882 61.4304 83.8263 61.3495 83.6644C60.2971 81.8022 59.5685 79.94 58.9209 77.9969C58.2733 76.0538 57.8685 74.0296 57.6256 72.0055C57.3828 69.9814 57.4637 67.8764 57.7876 65.9332C58.1114 63.9091 58.8399 61.966 59.8114 60.2657C59.8114 60.2657 59.8923 60.1848 59.8923 60.2657C59.8923 60.2657 59.9733 60.3467 59.8923 60.3467C59.5685 61.3183 59.2447 62.2089 59.0018 63.1805C58.8399 64.152 58.5971 65.1236 58.5161 66.0952C58.3542 68.0383 58.5161 69.9814 58.759 71.9246C59.0828 73.8677 59.5685 75.7299 60.2161 77.5921C60.8637 79.4543 61.6733 81.2355 62.5637 82.9357L61.0256 83.2596C61.1876 82.288 61.3495 81.3164 61.6733 80.4258C61.9971 79.5352 62.4018 78.6446 62.8875 77.754C63.3733 76.9444 63.9399 76.1347 64.5875 75.406C65.2352 74.6774 65.9637 74.0297 66.7733 73.4629L67.8256 74.0296C67.8256 73.8677 67.8256 73.9487 67.8256 73.9487C67.8256 73.9487 67.8256 73.9487 67.8256 74.0296C67.8256 74.1106 67.9066 74.1106 67.9066 74.1916C67.9875 74.3535 68.1495 74.4345 68.3114 74.5964C68.6352 74.8393 69.0399 75.0822 69.4447 75.2441C70.2542 75.6489 71.1447 75.8918 72.0352 76.2157C73.7352 76.9444 75.5971 76.1347 76.9733 74.9203C78.4304 73.7058 79.5637 72.1675 80.6161 70.5482C81.5875 68.9289 82.478 67.2287 83.2066 65.4475C83.2875 65.2855 83.3685 65.2046 83.5304 65.2046C84.4209 64.9617 85.1494 64.3139 85.6352 63.5043C85.7161 63.4233 85.7971 63.2614 85.7971 63.2614C85.7971 63.1805 85.7971 63.1805 85.7971 63.0995C85.7971 63.0185 85.7971 62.8566 85.7161 62.7756C85.7161 62.7756 85.7161 62.7756 85.6352 62.6947L85.4733 62.5327L85.1494 62.2898C84.9875 62.1279 84.7447 61.885 84.5828 61.7231C83.8542 60.9135 83.2066 60.0229 82.6399 59.0513C82.1542 58.0797 81.6685 56.8653 81.9923 55.5698C81.9923 55.4079 82.0733 55.246 82.1542 55.084L82.3161 54.6792C82.3971 54.5173 82.478 54.2744 82.6399 54.0315C82.8018 53.5457 82.9637 53.0599 83.0447 52.5741C83.2875 51.6026 83.4494 50.55 83.6113 49.4975C83.9352 47.4734 84.0971 45.3683 84.259 43.2633C84.7447 43.1013 84.7447 43.1013 84.8256 43.1823C84.8256 43.1013 84.8256 43.1013 84.8256 43.1823Z" fill="#020202"/>
<path d="M62.078 63.7473C62.4018 65.2856 62.8066 66.662 63.4542 67.9574C63.778 68.6052 64.1828 69.1719 64.5876 69.7387C65.0733 70.3054 65.6399 70.7912 66.2066 71.277C65.478 71.0341 64.7495 70.7102 64.1828 70.1435C63.6161 69.5767 63.1304 68.929 62.7257 68.2813C62.4018 67.5526 62.159 66.824 61.9971 66.0143C61.9161 65.2856 61.9161 64.476 62.078 63.7473Z" fill="#020202"/>
<path d="M59.9733 60.3467C54.0638 74.2726 62.078 83.3406 62.078 83.3406C47.4257 80.183 39.8161 89.008 39.8161 89.008C35.8495 80.5878 26.7828 81.8022 26.7828 81.8022C26.7828 81.8022 21.1971 76.0538 28.3209 71.3579C33.259 68.0383 33.9066 65.0427 33.9066 63.5043C33.8257 62.1279 33.9876 60.7516 34.3923 59.3752C34.878 57.8369 35.7685 55.9747 37.2257 54.0315C39.2495 51.4407 40.7876 48.445 41.759 45.2874C43.7828 38.2435 48.559 27.1514 58.4352 27.7991C60.2161 27.6372 62.8876 27.5563 65.8828 28.204C70.2542 29.0946 73.2495 30.8758 75.3542 32.1712C79.4828 34.7621 82.559 37.7577 84.6637 40.5105C84.8257 41.8059 84.9876 45.2874 82.8828 48.6069C80.2114 52.898 75.678 54.1935 73.1685 54.5983C71.3876 54.8412 69.6066 54.2744 68.4733 52.979C68.0685 52.5742 67.7447 52.0074 67.5828 51.3597C67.0161 49.5785 65.9638 47.9592 64.3447 47.1496C62.4018 46.178 59.9733 46.5019 58.8399 52.4123C57.8685 57.3511 58.759 59.4561 59.9733 60.3467Z" fill="#020202"/>
<path d="M149.507 146.897C146.835 147.383 144.083 147.626 141.411 147.869C138.74 148.031 135.988 148.112 133.316 148.193C130.645 148.193 127.892 148.112 125.221 147.95C122.549 147.788 119.797 147.545 117.126 147.059C119.797 146.573 122.549 146.331 125.221 146.088C127.892 145.926 130.645 145.845 133.316 145.845C135.988 145.845 138.74 145.926 141.411 146.088C144.083 146.169 146.835 146.411 149.507 146.897Z" fill="#020202"/>
<path d="M88.3066 147.14C83.0447 147.545 77.7828 147.788 72.4399 147.95L70.4161 148.031H69.4447C69.1209 148.031 68.7971 148.031 68.3923 148.031C66.8542 147.95 65.3971 147.383 64.1019 146.573C62.8066 145.764 61.8352 144.711 60.9447 143.659C60.0542 142.525 59.2447 141.392 58.5971 140.096C58.5971 140.015 58.5161 140.015 58.5161 139.934V139.853C56.978 134.672 55.359 129.49 53.8209 124.308C53.0114 121.717 52.1209 119.127 51.2304 116.536L49.7733 112.73L48.2352 108.925C47.1828 106.415 46.0495 103.905 44.9161 101.476C43.7828 99.0475 42.4876 96.6186 41.2733 94.1897C40.059 91.7607 38.7638 89.3318 37.4685 86.9838C36.4161 84.8788 34.2304 83.5024 32.0447 83.5024L23.9495 83.8263C21.1971 83.9072 18.4447 83.9882 15.6923 83.9882C12.9399 83.9072 10.1876 83.8263 7.35423 83.5024C6.62566 83.4214 5.89709 83.2595 5.16851 83.0976C4.76375 83.0166 4.43994 82.9356 4.03518 82.7737C3.63042 82.6118 3.22566 82.5308 2.57804 82.045C2.41613 81.8831 2.25423 81.8021 2.09232 81.5593C1.93042 81.3164 1.76851 80.9925 1.68756 80.5877C1.68756 80.4258 1.68756 80.1829 1.68756 80.0209L1.76851 79.778C1.84947 79.6161 1.84947 79.3732 1.93042 79.2923C2.01137 79.0494 2.17328 78.7255 2.33518 78.5636C2.49708 78.3207 2.57804 78.1588 2.73994 77.9968C3.30661 77.3491 3.87328 76.8633 4.43994 76.3775C6.70661 74.5154 9.05423 73.139 11.4018 71.6816L18.4447 67.5525C19.578 66.8238 20.7923 66.1761 21.8447 65.3664C22.0876 65.2045 22.3304 64.9616 22.6542 64.7997L23.5447 64.152C23.8685 63.99 24.1923 63.8281 24.5161 63.5852C24.8399 63.4233 25.1638 63.2614 25.4876 63.1804C26.8638 62.6946 28.3209 62.4517 29.6971 62.5327C31.0733 62.5327 32.5304 62.7756 33.8257 63.3423C33.9066 63.3423 33.9066 63.5042 33.9066 63.5852C33.9066 63.6662 33.8257 63.6662 33.7447 63.6662C31.1542 63.1804 28.3209 63.3423 26.0542 64.5568C25.8114 64.7187 25.4876 64.8806 25.2447 65.0426L24.4352 65.6093L23.7066 66.257C23.4638 66.4999 23.1399 66.7428 22.8971 66.9857C21.8447 67.8763 20.7114 68.686 19.578 69.4956C17.3114 71.1149 15.0447 72.5722 12.778 74.1106C10.5114 75.6489 8.2447 77.1872 6.3828 78.8065C5.89709 79.2113 5.49232 79.6161 5.16851 80.0209C5.08756 80.1019 5.00661 80.1829 5.00661 80.2638C5.08756 80.2638 5.08756 80.3448 5.08756 80.3448C5.08756 80.2638 5.08756 80.1829 5.08756 80.0209C5.00661 79.5351 4.76375 79.3732 4.76375 79.3732C4.76375 79.3732 4.92566 79.4542 5.16851 79.5351C5.41137 79.6161 5.73518 79.6971 5.97804 79.6971C6.5447 79.778 7.19232 79.859 7.83994 79.94C10.4304 80.2638 13.1018 80.3448 15.8542 80.4258C18.5257 80.5067 21.278 80.5877 23.9495 80.5877H27.9971H30.0209C30.6685 80.5877 31.3161 80.5067 32.2066 80.5877C33.8257 80.7496 35.3638 81.3164 36.659 82.207C37.9542 83.0976 39.0066 84.474 39.5733 85.8504C40.7066 88.3602 41.759 90.8701 42.8114 93.38L45.9685 100.991L49.1257 108.52C53.3352 118.56 58.2733 128.438 61.1876 139.044L61.1066 138.882C62.159 140.987 63.6971 143.092 65.559 144.387C66.5304 145.035 67.5018 145.521 68.6352 145.602C68.878 145.683 69.2828 145.683 69.5257 145.683H70.4971L72.4399 145.764C77.7019 146.007 82.9638 146.25 88.2257 146.735C88.3066 146.735 88.3876 146.816 88.3876 146.897C88.3876 147.14 88.3876 147.14 88.3066 147.14Z" fill="#020202"/>
<path d="M121.416 139.854C125.707 139.773 130.078 139.692 134.368 139.611L140.845 139.53L144.083 139.449C145.216 139.449 146.349 139.449 147.483 139.692C149.749 140.016 151.935 140.825 153.878 142.04C154.364 142.363 154.769 142.606 155.254 142.93C155.74 143.254 156.226 143.578 156.63 143.983C157.521 144.792 158.33 145.683 158.897 146.655C159.545 147.626 160.03 148.76 160.273 149.893C160.435 150.46 160.516 151.027 160.597 151.674C160.678 151.998 160.678 152.241 160.678 152.565V153.375L160.84 159.852L161.164 172.806L161.407 185.76C161.569 194.423 161.649 203.006 161.649 211.669V224.623V227.862C161.649 228.428 161.649 228.914 161.649 229.481C161.649 230.048 161.568 230.695 161.488 231.262C161.083 233.61 159.949 235.796 158.411 237.415C157.602 238.225 156.63 238.954 155.659 239.52C154.607 240.087 153.554 240.492 152.421 240.735C151.288 240.978 150.073 240.978 149.021 240.978H145.783H132.83C124.169 240.978 115.588 240.897 106.926 240.735C98.2637 240.573 89.6828 240.411 81.0209 240.087C72.359 239.763 63.778 239.278 55.1161 238.549C52.9304 238.387 50.8257 238.144 48.6399 237.982C46.4542 237.82 44.3495 237.577 42.1637 237.334L38.9257 237.011L38.1161 236.93L37.7114 236.849C37.7114 236.849 37.4685 236.768 37.3876 236.768L37.1447 236.687C36.4971 236.525 35.9304 236.282 35.3637 235.958C34.2304 235.391 33.259 234.582 32.4495 233.61C31.6399 232.639 31.0733 231.505 30.5876 230.372C29.778 228.024 29.778 225.595 29.9399 223.328C30.1018 221.304 30.1018 219.117 30.1018 217.012C30.1018 212.721 29.9399 208.43 29.6971 204.139C29.4542 199.848 29.1304 195.557 28.7257 191.266C28.3209 186.975 27.8352 182.684 27.3495 178.473C26.8637 174.182 26.2161 169.972 25.5685 165.681C24.8399 161.471 24.1114 157.18 23.2209 152.97C21.5209 144.55 19.4161 136.21 16.9066 128.033C15.6114 123.904 14.2352 119.855 12.6971 115.888C11.159 111.921 9.53994 107.873 7.59708 104.067C6.70661 102.124 5.65422 100.262 4.6828 98.319C3.63041 96.3758 2.65899 94.4327 2.01137 92.3276C1.36375 90.2226 0.958986 88.1175 0.797081 85.8505C0.716129 84.717 0.797081 83.6645 1.12089 82.531C1.2828 81.9642 1.52565 81.4784 1.93041 80.9927C2.33518 80.5069 2.82089 80.264 3.38756 80.1021C3.46851 80.1021 3.54946 80.1021 3.54946 80.183C3.54946 80.264 3.54946 80.3449 3.46851 80.3449C2.49708 80.6688 1.84946 81.5594 1.6066 82.6119C1.36375 83.5835 1.36375 84.717 1.52565 85.7695C1.76851 87.8746 2.25422 89.9797 2.9828 91.9228C3.71137 93.9469 4.6828 95.7281 5.81613 97.5903C6.86851 99.4525 8.00184 101.315 8.97327 103.258C13.0209 110.949 16.3399 118.965 19.0923 127.223C24.678 143.659 28.3209 160.742 30.5876 177.907C31.7209 186.489 32.5304 195.152 32.8542 203.815C33.0161 208.187 33.178 212.478 33.0971 216.851C33.0971 219.037 33.0161 221.223 32.8542 223.409C32.7733 223.975 32.7733 224.461 32.7733 224.947C32.6923 225.433 32.7733 225.918 32.7733 226.404C32.7733 227.376 33.0161 228.347 33.259 229.238C33.8257 231.019 34.959 232.477 36.578 233.286C36.9828 233.529 37.3876 233.691 37.7923 233.772H37.9542C38.0352 233.772 37.9542 233.772 38.0352 233.772L38.4399 233.853L39.2495 233.934L42.4066 234.339C44.5114 234.663 46.6971 234.906 48.8018 235.148C50.9066 235.391 53.0923 235.634 55.1971 235.877C63.778 236.768 72.359 237.577 80.9399 238.144C98.1828 239.359 115.426 239.925 132.669 239.763C136.959 239.763 141.33 239.601 145.621 239.52L148.859 239.439C149.992 239.439 150.964 239.359 151.935 239.116C152.907 238.873 153.878 238.468 154.688 237.982C155.578 237.496 156.307 236.849 156.954 236.12C158.249 234.663 159.14 232.8 159.383 230.857C159.464 230.372 159.464 229.886 159.464 229.4C159.464 228.914 159.464 228.347 159.383 227.781L159.302 224.542L158.897 211.588C158.654 202.925 158.492 194.342 158.492 185.679L158.33 172.725L158.249 159.771V153.294V152.484C158.249 152.241 158.249 151.998 158.249 151.755C158.249 151.27 158.169 150.784 158.007 150.298C157.764 149.326 157.44 148.436 156.954 147.626C156.469 146.817 155.821 146.007 155.092 145.359C154.688 145.035 154.364 144.711 153.959 144.469L152.664 143.578C150.964 142.444 149.021 141.635 146.997 141.23C145.945 140.987 144.973 140.906 143.921 140.906L140.683 140.825L134.207 140.582C129.916 140.42 125.545 140.258 121.254 140.096C121.173 140.096 121.092 140.016 121.092 139.935C121.254 139.935 121.335 139.854 121.416 139.854Z" fill="#020202"/>
<path d="M152.664 156.37L152.745 158.718C152.745 158.799 152.664 158.88 152.583 158.88C152.502 158.88 152.421 158.799 152.421 158.718V156.37C152.502 156.289 152.502 156.289 152.664 156.37C152.583 156.289 152.664 156.289 152.664 156.37Z" fill="#020202"/>
<path d="M152.826 161.066L152.907 163.414C152.907 163.495 152.826 163.657 152.664 163.657C152.583 163.657 152.421 163.576 152.421 163.414V161.066C152.421 160.985 152.502 160.904 152.583 160.904C152.745 160.904 152.826 160.985 152.826 161.066Z" fill="#020202"/>
<path d="M152.907 165.762L152.988 168.11C152.988 168.272 152.907 168.434 152.745 168.434C152.583 168.434 152.421 168.353 152.421 168.191V165.843C152.421 165.681 152.502 165.6 152.664 165.6C152.826 165.519 152.907 165.6 152.907 165.762Z" fill="#020202"/>
<path d="M153.068 170.458L153.149 172.806C153.149 172.968 152.988 173.211 152.826 173.211C152.664 173.211 152.421 173.049 152.421 172.887V170.539C152.421 170.377 152.583 170.215 152.745 170.215C152.907 170.134 153.068 170.296 153.068 170.458Z" fill="#020202"/>
<path d="M153.23 175.154L153.311 177.502C153.311 177.745 153.149 177.907 152.907 177.907C152.664 177.907 152.502 177.745 152.502 177.502V175.154C152.502 174.911 152.664 174.749 152.907 174.749C152.988 174.749 153.23 174.911 153.23 175.154Z" fill="#020202"/>
<path d="M153.311 179.85L153.392 182.198C153.392 182.44 153.23 182.683 152.907 182.683C152.583 182.683 152.421 182.521 152.421 182.198V179.85C152.421 179.607 152.583 179.445 152.826 179.445C153.149 179.445 153.311 179.607 153.311 179.85Z" fill="#020202"/>
<path d="M153.392 184.546L153.473 186.894C153.473 187.136 153.23 187.379 152.988 187.379C152.745 187.379 152.502 187.136 152.502 186.894V184.546C152.502 184.303 152.745 184.06 152.988 184.06C153.23 184.06 153.392 184.303 153.392 184.546Z" fill="#020202"/>
<path d="M153.554 189.242L153.635 191.589C153.635 191.913 153.392 192.156 153.068 192.156C152.745 192.156 152.502 191.913 152.502 191.589V189.242C152.502 188.918 152.745 188.675 153.068 188.675C153.311 188.756 153.554 188.999 153.554 189.242Z" fill="#020202"/>
<path d="M153.635 193.938L153.716 196.286C153.716 196.609 153.473 196.852 153.149 196.852C152.826 196.852 152.583 196.609 152.583 196.286V193.938C152.583 193.614 152.826 193.371 153.149 193.371C153.392 193.371 153.635 193.614 153.635 193.938Z" fill="#020202"/>
<path d="M153.716 198.633L153.797 200.981C153.797 201.305 153.554 201.629 153.23 201.629C152.907 201.629 152.583 201.386 152.583 201.062V198.714C152.583 198.391 152.826 198.148 153.149 198.067C153.473 198.067 153.716 198.31 153.716 198.633Z" fill="#020202"/>
<path d="M153.797 203.329L153.878 205.677C153.878 206.001 153.635 206.325 153.23 206.325C152.907 206.325 152.583 206.082 152.583 205.677V203.329C152.583 203.005 152.826 202.682 153.23 202.682C153.554 202.763 153.797 203.005 153.797 203.329Z" fill="#020202"/>
<path d="M153.878 208.025L153.959 210.373C153.959 210.697 153.716 211.021 153.311 211.021C152.907 211.021 152.664 210.778 152.664 210.373V208.025C152.664 207.702 152.907 207.378 153.311 207.378C153.635 207.378 153.878 207.702 153.878 208.025Z" fill="#020202"/>
<path d="M153.959 212.721L154.04 215.069C154.04 215.474 153.716 215.717 153.392 215.717C152.987 215.717 152.745 215.393 152.745 215.069V212.721C152.745 212.316 153.068 212.073 153.392 212.073C153.716 212.073 153.959 212.397 153.959 212.721Z" fill="#020202"/>
<path d="M154.04 217.417L154.121 219.765C154.121 220.17 153.797 220.494 153.473 220.494C153.068 220.494 152.745 220.17 152.745 219.846V217.498C152.745 217.093 153.068 216.85 153.392 216.85C153.797 216.77 154.04 217.093 154.04 217.417Z" fill="#020202"/>
<path d="M154.121 222.113V224.461C154.121 224.866 153.797 225.19 153.392 225.19C152.988 225.19 152.664 224.866 152.664 224.461V222.113C152.664 221.708 152.988 221.384 153.392 221.384C153.797 221.465 154.121 221.789 154.121 222.113Z" fill="#020202"/>
<path d="M153.878 227.052C153.635 227.861 153.311 228.671 152.907 229.4C152.745 229.724 152.34 229.886 151.935 229.643C151.611 229.481 151.449 229.076 151.692 228.752C152.016 228.104 152.34 227.457 152.502 226.728C152.583 226.323 152.988 226.161 153.311 226.242C153.716 226.242 153.959 226.647 153.878 227.052Z" fill="#020202"/>
<path d="M151.449 231.343C150.883 231.991 150.235 232.476 149.507 232.962C149.183 233.124 148.778 233.043 148.616 232.8C148.454 232.476 148.535 232.072 148.778 231.91C149.426 231.505 149.911 231.019 150.478 230.533C150.721 230.29 151.126 230.209 151.449 230.533C151.692 230.695 151.692 231.1 151.449 231.343Z" fill="#020202"/>
<path d="M147.24 234.096C146.43 234.338 145.621 234.5 144.811 234.581C144.488 234.581 144.164 234.338 144.083 234.015C144.083 233.691 144.326 233.367 144.649 233.286C145.378 233.205 146.107 233.043 146.754 232.8C147.078 232.719 147.483 232.881 147.564 233.205C147.807 233.61 147.564 233.934 147.24 234.096Z" fill="#020202"/>
<path d="M142.383 234.663H140.035C139.711 234.663 139.388 234.42 139.388 234.015C139.388 233.691 139.63 233.367 139.954 233.367L142.302 233.286C142.626 233.286 142.949 233.529 142.949 233.934C143.03 234.339 142.788 234.663 142.383 234.663Z" fill="#020202"/>
<path d="M137.688 234.662H135.34C135.016 234.662 134.773 234.42 134.773 234.096C134.773 233.772 135.016 233.529 135.34 233.529L137.688 233.448C138.011 233.448 138.254 233.691 138.335 234.015C138.335 234.42 138.011 234.662 137.688 234.662Z" fill="#020202"/>
<path d="M132.992 234.662H130.645C130.321 234.662 130.159 234.42 130.159 234.177C130.159 233.853 130.402 233.691 130.645 233.691H132.992C133.316 233.691 133.559 233.934 133.559 234.258C133.559 234.582 133.316 234.662 132.992 234.662Z" fill="#020202"/>
<path d="M128.297 234.662H125.949C125.707 234.662 125.464 234.42 125.464 234.177C125.464 233.934 125.707 233.691 125.949 233.691H128.297C128.54 233.691 128.783 233.934 128.783 234.177C128.783 234.42 128.621 234.662 128.297 234.662Z" fill="#020202"/>
<path d="M123.602 234.582H121.254C121.011 234.582 120.849 234.42 120.849 234.177C120.849 233.934 121.011 233.772 121.254 233.772H123.602C123.845 233.772 124.088 233.934 124.088 234.177C124.088 234.42 123.845 234.582 123.602 234.582Z" fill="#020202"/>
<path d="M118.907 234.501L116.559 234.42C116.316 234.42 116.154 234.258 116.235 234.015C116.235 233.853 116.397 233.691 116.64 233.691H118.988C119.23 233.691 119.392 233.853 119.392 234.096C119.311 234.339 119.149 234.501 118.907 234.501Z" fill="#020202"/>
<path d="M114.211 234.42L111.864 234.339C111.702 234.339 111.54 234.177 111.54 234.015C111.54 233.853 111.702 233.691 111.864 233.691H114.211C114.373 233.691 114.535 233.853 114.535 234.015C114.535 234.258 114.373 234.42 114.211 234.42Z" fill="#020202"/>
<path d="M109.516 234.258L107.169 234.177C107.007 234.177 106.845 234.015 106.845 233.853C106.845 233.691 107.007 233.529 107.169 233.529H109.516C109.678 233.529 109.84 233.691 109.84 233.853C109.84 234.015 109.678 234.339 109.516 234.258Z" fill="#020202"/>
<path d="M104.821 234.177L102.473 234.096C102.311 234.096 102.23 233.934 102.23 233.853C102.23 233.691 102.392 233.61 102.473 233.61L104.821 233.691C104.983 233.691 105.064 233.853 105.064 234.015C105.145 234.015 104.983 234.177 104.821 234.177Z" fill="#020202"/>
<path d="M100.126 234.015L97.778 233.934C97.6161 233.934 97.5352 233.772 97.5352 233.691C97.5352 233.529 97.6971 233.448 97.778 233.448L100.126 233.529C100.288 233.529 100.368 233.691 100.368 233.772C100.368 233.934 100.288 234.015 100.126 234.015Z" fill="#020202"/>
<path d="M95.4304 233.853L93.0828 233.772C92.9209 233.772 92.8399 233.691 92.8399 233.529C92.8399 233.367 92.9209 233.286 93.0828 233.286L95.4304 233.367C95.5923 233.367 95.6732 233.448 95.6732 233.61C95.6732 233.772 95.5923 233.853 95.4304 233.853Z" fill="#020202"/>
<path d="M90.7351 233.61L88.3875 233.529C88.2256 233.529 88.1447 233.367 88.1447 233.286C88.1447 233.124 88.3066 233.043 88.3875 233.043L90.7351 233.124C90.897 233.124 90.978 233.205 90.978 233.367C90.978 233.529 90.897 233.691 90.7351 233.61Z" fill="#020202"/>
<path d="M86.0399 233.448L83.6923 233.367C83.5304 233.367 83.4495 233.205 83.4495 233.124C83.4495 232.962 83.6114 232.881 83.6923 232.881L86.0399 233.043C86.2018 233.043 86.2828 233.205 86.2828 233.286C86.2828 233.367 86.2018 233.448 86.0399 233.448Z" fill="#020202"/>
<path d="M81.3446 233.205L78.997 233.043C78.8351 233.043 78.7542 232.881 78.7542 232.719C78.7542 232.557 78.9161 232.476 79.078 232.476L81.4256 232.638C81.5875 232.638 81.6685 232.8 81.6685 232.962C81.5875 233.124 81.5066 233.205 81.3446 233.205Z" fill="#020202"/>
<path d="M76.6495 232.962L74.3018 232.8C74.1399 232.8 73.978 232.638 73.978 232.476C73.978 232.315 74.1399 232.153 74.3018 232.153L76.6495 232.315C76.8114 232.315 76.8923 232.476 76.8923 232.638C76.9733 232.8 76.8114 232.962 76.6495 232.962Z" fill="#020202"/>
<path d="M71.9542 232.638L69.6066 232.476C69.4447 232.476 69.2828 232.315 69.2828 232.072C69.2828 231.91 69.4447 231.748 69.6875 231.748L72.0352 231.91C72.1971 231.91 72.359 232.072 72.359 232.234C72.278 232.557 72.1161 232.638 71.9542 232.638Z" fill="#020202"/>
<path d="M67.2589 232.315L64.9113 232.153C64.6685 232.153 64.5066 231.991 64.5875 231.748C64.6685 231.505 64.7494 231.343 64.9923 231.424L67.3399 231.667C67.5018 231.667 67.6637 231.829 67.6637 232.072C67.6637 232.234 67.4208 232.315 67.2589 232.315Z" fill="#020202"/>
<path d="M62.5637 231.991L60.2161 231.829C59.9732 231.829 59.8113 231.586 59.8113 231.343C59.8113 231.1 60.0542 230.938 60.2971 230.938L62.6447 231.181C62.8875 231.181 63.0494 231.424 63.0494 231.586C62.9685 231.829 62.8066 231.991 62.5637 231.991Z" fill="#020202"/>
<path d="M57.8685 231.586L55.5209 231.343C55.278 231.343 55.0351 231.1 55.1161 230.857C55.1161 230.614 55.359 230.371 55.6018 230.452L57.9494 230.695C58.1923 230.695 58.3542 230.938 58.3542 231.181C58.3542 231.424 58.1113 231.586 57.8685 231.586Z" fill="#020202"/>
<path d="M53.1732 231.1L50.8256 230.857C50.5018 230.857 50.3399 230.533 50.3399 230.29C50.3399 230.048 50.6637 229.805 50.9066 229.805L53.2542 230.129C53.497 230.129 53.7399 230.371 53.6589 230.695C53.7399 230.938 53.497 231.181 53.1732 231.1Z" fill="#020202"/>
<path d="M48.478 230.614L46.1304 230.371C45.8066 230.371 45.5637 230.048 45.6447 229.724C45.6447 229.4 45.9685 229.157 46.2923 229.238L48.6399 229.562C48.9637 229.562 49.1256 229.886 49.1256 230.209C49.0447 230.452 48.8018 230.695 48.478 230.614Z" fill="#020202"/>
<path d="M43.7018 229.966C42.8923 229.724 42.1637 229.238 41.5161 228.752C41.2732 228.509 41.1923 228.185 41.4351 227.861C41.678 227.619 42.0018 227.538 42.3256 227.78C42.8923 228.266 43.5399 228.59 44.1875 228.833C44.5113 228.914 44.6732 229.319 44.5113 229.562C44.3494 229.885 44.0256 230.047 43.7018 229.966Z" fill="#020202"/>
<path d="M39.8161 226.89C39.3304 226.161 39.0066 225.433 38.7637 224.623C38.6828 224.299 38.8447 223.894 39.1685 223.813C39.4923 223.732 39.8971 223.894 39.978 224.218C40.2209 224.947 40.4637 225.595 40.8685 226.161C41.0304 226.485 40.9494 226.809 40.7066 227.052C40.3828 227.214 39.978 227.133 39.8161 226.89Z" fill="#020202"/>
<path d="M38.278 222.113C38.197 221.303 38.197 220.494 38.278 219.684C38.278 219.279 38.6018 219.036 39.0066 219.036C39.4113 219.036 39.6542 219.36 39.6542 219.765C39.5732 220.494 39.5732 221.303 39.6542 222.032C39.6542 222.356 39.4113 222.68 39.0875 222.761C38.6018 222.761 38.278 222.518 38.278 222.113Z" fill="#020202"/>
<path d="M38.4399 217.336L38.5209 214.988C38.5209 214.583 38.8447 214.259 39.2495 214.34C39.6542 214.421 39.978 214.664 39.8971 215.069L39.8161 217.417C39.8161 217.822 39.4923 218.065 39.0876 218.065C38.6828 218.065 38.4399 217.741 38.4399 217.336Z" fill="#020202"/>
<path d="M38.4399 212.721V210.373C38.4399 209.968 38.7637 209.645 39.1685 209.645C39.5733 209.645 39.8971 209.968 39.8971 210.373V212.721C39.8971 213.126 39.5733 213.45 39.1685 213.45C38.7637 213.45 38.4399 213.126 38.4399 212.721Z" fill="#020202"/>
<path d="M38.3589 208.025L38.278 205.677C38.278 205.273 38.6018 204.949 39.0065 204.949C39.4113 204.949 39.7351 205.273 39.7351 205.677L39.816 208.025C39.816 208.43 39.4922 208.754 39.0875 208.754C38.7637 208.754 38.4399 208.43 38.3589 208.025Z" fill="#020202"/>
<path d="M38.197 203.329L38.1161 200.981C38.1161 200.576 38.4399 200.172 38.8447 200.172C39.2494 200.172 39.6542 200.495 39.6542 200.9L39.7351 203.248C39.7351 203.653 39.4113 203.977 39.0066 204.058C38.6018 204.058 38.197 203.734 38.197 203.329Z" fill="#020202"/>
<path d="M37.9542 198.714L37.7923 196.366C37.7923 195.961 38.1161 195.557 38.5209 195.557C38.9256 195.557 39.3304 195.88 39.3304 196.285L39.4923 198.633C39.4923 199.038 39.1685 199.443 38.7637 199.443C38.359 199.443 37.9542 199.119 37.9542 198.714Z" fill="#020202"/>
<path d="M37.6304 194.018L37.4684 191.67C37.4684 191.266 37.7923 190.861 38.197 190.78C38.6018 190.78 39.0065 191.104 39.0875 191.508L39.2494 193.856C39.2494 194.261 38.9256 194.666 38.5208 194.666C38.0351 194.747 37.6304 194.423 37.6304 194.018Z" fill="#020202"/>
<path d="M37.1447 189.322L36.9018 186.975C36.8208 186.57 37.1447 186.165 37.6304 186.084C38.0351 186.003 38.4399 186.327 38.5209 186.813L38.7637 189.161C38.8447 189.565 38.5209 189.97 38.0351 190.051C37.6304 190.132 37.2256 189.808 37.1447 189.322Z" fill="#020202"/>
<path d="M36.6589 184.708L36.4161 182.36C36.3351 181.874 36.6589 181.469 37.1447 181.469C37.6304 181.469 38.0351 181.712 38.0351 182.198L38.278 184.546C38.3589 185.031 38.0351 185.436 37.5494 185.436C37.1447 185.436 36.7399 185.112 36.6589 184.708Z" fill="#020202"/>
<path d="M36.0923 180.012L35.7684 177.664C35.6875 177.178 36.0113 176.773 36.497 176.773C36.9827 176.773 37.3875 177.016 37.3875 177.502L37.7113 179.85C37.7923 180.336 37.4684 180.74 36.9827 180.821C36.578 180.821 36.1732 180.498 36.0923 180.012Z" fill="#020202"/>
<path d="M35.5256 175.397L35.2018 173.049C35.1208 172.563 35.4446 172.158 35.9304 172.158C36.4161 172.158 36.8208 172.401 36.8208 172.887L37.1446 175.235C37.2256 175.721 36.9018 176.125 36.4161 176.206C36.0113 176.125 35.6066 175.883 35.5256 175.397Z" fill="#020202"/>
<path d="M34.797 170.782L34.3922 168.434C34.3113 168.029 34.6351 167.543 35.0399 167.462C35.4446 167.381 35.9303 167.705 36.0113 168.11L36.4161 170.458C36.497 170.944 36.1732 171.348 35.7684 171.429C35.3637 171.51 34.878 171.187 34.797 170.782Z" fill="#020202"/>
<path d="M34.0685 166.086L33.6637 163.819C33.5828 163.414 33.9066 162.928 34.3114 162.847C34.7161 162.766 35.2018 163.09 35.2828 163.495L35.6875 165.843C35.7685 166.248 35.4447 166.733 35.0399 166.814C34.5542 166.895 34.1494 166.572 34.0685 166.086Z" fill="#020202"/>
<path d="M33.2589 161.552L32.7732 159.285C32.6923 158.88 32.9351 158.394 33.4208 158.313C33.9066 158.232 34.3113 158.475 34.3923 158.961L34.878 161.309C34.9589 161.714 34.7161 162.199 34.2304 162.28C33.7446 162.28 33.3399 161.957 33.2589 161.552Z" fill="#020202"/>
<path d="M32.2876 156.937L31.8018 154.67C31.7209 154.265 31.9637 153.86 32.4495 153.698C32.8542 153.617 33.259 153.86 33.4209 154.265L33.9066 156.532C33.9876 156.937 33.7447 157.423 33.259 157.504C32.8542 157.666 32.4495 157.342 32.2876 156.937Z" fill="#020202"/>
<path d="M31.3161 152.322L30.7494 150.055C30.6684 149.65 30.9113 149.245 31.3161 149.083C31.7208 149.002 32.1256 149.245 32.2875 149.65L32.8542 151.917C32.9351 152.322 32.6923 152.727 32.2875 152.889C31.8827 153.051 31.397 152.808 31.3161 152.322Z" fill="#020202"/>
<path d="M30.2637 147.788L29.697 145.521C29.6161 145.116 29.8589 144.711 30.2637 144.63C30.6685 144.549 31.0732 144.792 31.1542 145.197L31.7208 147.464C31.8018 147.869 31.5589 148.274 31.1542 148.436C30.7494 148.598 30.3446 148.193 30.2637 147.788Z" fill="#020202"/>
<path d="M29.0494 143.254L28.4018 140.987C28.3208 140.582 28.5637 140.177 28.8875 140.096C29.2923 140.015 29.697 140.177 29.778 140.582L30.4256 142.849C30.5066 143.254 30.3447 143.659 29.9399 143.74C29.5351 143.821 29.2113 143.659 29.0494 143.254Z" fill="#020202"/>
<path d="M27.8352 138.72L27.1875 136.453C27.1066 136.048 27.2685 135.724 27.6732 135.562C28.078 135.481 28.4018 135.643 28.5637 136.048L29.2923 138.315C29.3733 138.72 29.2113 139.125 28.8066 139.206C28.4018 139.287 27.9161 139.125 27.8352 138.72Z" fill="#020202"/>
<path d="M26.4589 134.267L25.7303 132C25.6494 131.676 25.8113 131.271 26.1351 131.19C26.4589 131.109 26.8637 131.271 26.9446 131.595L27.6732 133.862C27.8351 134.186 27.5923 134.591 27.2684 134.753C26.9446 134.834 26.5399 134.672 26.4589 134.267Z" fill="#020202"/>
<path d="M24.9209 129.814L24.1113 127.628C24.0304 127.304 24.1923 126.899 24.5161 126.818C24.8399 126.737 25.1637 126.899 25.3256 127.223L26.1351 129.409C26.297 129.733 26.0542 130.138 25.7304 130.219C25.4066 130.3 25.0828 130.138 24.9209 129.814Z" fill="#020202"/>
<path d="M23.3827 125.442L22.5732 123.256C22.4923 122.932 22.5732 122.608 22.897 122.446C23.2208 122.365 23.5446 122.446 23.7065 122.77L24.597 124.956C24.7589 125.28 24.597 125.604 24.2732 125.766C23.9494 125.928 23.4637 125.766 23.3827 125.442Z" fill="#020202"/>
<path d="M21.6018 121.07L20.7113 118.884C20.6304 118.56 20.7113 118.236 21.0351 118.155C21.278 118.074 21.6018 118.155 21.7637 118.479L22.7351 120.665C22.897 120.989 22.7351 121.313 22.4113 121.474C22.0875 121.474 21.7637 121.394 21.6018 121.07Z" fill="#020202"/>
<path d="M19.8209 116.779L18.8494 114.673C18.7685 114.431 18.8494 114.107 19.0923 114.026C19.3352 113.945 19.659 114.026 19.7399 114.269L20.7923 116.374C20.9542 116.617 20.7923 116.94 20.5494 117.102C20.3066 117.264 19.9018 117.021 19.8209 116.779Z" fill="#020202"/>
<path d="M17.797 112.488L16.7446 110.383C16.6637 110.14 16.7446 109.897 16.9066 109.735C17.1494 109.654 17.3923 109.735 17.4732 109.897L18.6066 112.002C18.7685 112.245 18.6066 112.569 18.4446 112.65C18.2827 112.731 17.9589 112.731 17.797 112.488C17.797 112.569 17.797 112.569 17.797 112.488Z" fill="#020202"/>
<path d="M15.6923 108.358C15.2876 107.711 14.9637 106.982 14.559 106.253C14.478 106.091 14.559 105.848 14.7209 105.687C14.8828 105.606 15.1256 105.687 15.2876 105.848C15.6923 106.496 16.0161 107.225 16.4209 107.873C16.5018 108.115 16.5018 108.358 16.259 108.439C16.0161 108.601 15.7733 108.601 15.6923 108.358Z" fill="#020202"/>
<path d="M13.5065 104.148L12.5351 102.043C12.4542 101.881 12.5351 101.638 12.697 101.557C12.8589 101.476 13.1018 101.557 13.1827 101.719L14.2351 103.824C14.3161 103.986 14.2351 104.229 14.0732 104.31C13.9113 104.391 13.5875 104.31 13.5065 104.148Z" fill="#020202"/>
<path d="M11.5637 99.8571L10.6732 97.6711C10.5923 97.5091 10.6732 97.3472 10.8351 97.3472C10.997 97.2662 11.159 97.3472 11.159 97.5091L12.1304 99.6142C12.2113 99.7761 12.1304 99.9381 11.9685 100.019C11.8066 100.1 11.6447 100.019 11.5637 99.8571Z" fill="#020202"/>
<path d="M9.7018 95.4851L8.89227 93.299C8.89227 93.2181 8.89227 93.0562 8.97323 93.0562C9.05418 93.0562 9.21608 93.0562 9.21608 93.1371L10.1066 95.3232C10.1875 95.4041 10.1066 95.5661 9.94465 95.647C9.78275 95.728 9.78275 95.647 9.7018 95.4851Z" fill="#020202"/>
<path d="M8.16371 91.0322L7.59705 88.7652C7.59705 88.6842 7.59705 88.6033 7.678 88.6033C7.75895 88.6033 7.8399 88.6033 7.8399 88.6842L8.48752 90.9512C8.48752 91.0322 8.48752 91.1132 8.40657 91.1132C8.24466 91.1941 8.16371 91.1132 8.16371 91.0322Z" fill="#020202"/>
<path d="M7.67815 86.4171C7.7591 86.2552 7.921 86.1742 8.08291 86.0933C8.16386 86.0933 8.16386 86.0933 8.16386 86.1742C8.16386 86.2552 8.16386 86.2552 8.08291 86.2552C7.921 86.3362 7.84005 86.4171 7.7591 86.4981C7.7591 86.4981 7.67815 86.579 7.67815 86.4981C7.59719 86.4981 7.59719 86.4171 7.67815 86.4171Z" fill="#020202"/>
<path d="M80.6971 139.691C78.9161 140.177 77.2161 140.42 75.4352 140.582C73.7352 140.744 71.9542 140.825 70.2542 140.825C68.5542 140.825 66.7733 140.744 65.0733 140.501C63.3733 140.339 61.5923 140.015 59.8923 139.53C61.6733 139.044 63.3733 138.801 65.1542 138.639C66.8542 138.477 68.6352 138.396 70.3352 138.396C72.0352 138.396 73.8161 138.477 75.5161 138.72C77.2971 138.882 78.9971 139.125 80.6971 139.691Z" fill="#020202"/>
<path d="M35.7685 234.42C36.0923 236.849 36.1733 239.278 36.3352 241.788C36.4161 244.216 36.4971 246.645 36.4161 249.155C36.3352 251.584 36.0923 254.013 36.0114 256.523C36.0114 257.171 36.0114 257.737 36.0114 258.385C36.0114 259.033 36.0114 259.6 36.2542 260.085C36.659 261.138 37.7114 261.867 38.7637 262.029C39.3304 262.11 39.8161 262.029 40.3018 261.867C40.7875 261.705 41.1923 261.381 41.5161 260.976C41.8399 260.571 42.0828 260.166 42.1637 259.681C42.2447 259.438 42.2447 259.195 42.2447 258.952V258.061C42.1637 255.632 42.1637 253.203 42.1637 250.694C42.2447 245.836 42.4066 240.897 42.8923 236.039C42.8923 235.958 42.9733 235.958 42.9733 235.958C42.9733 235.958 43.0542 235.958 43.0542 236.039C43.5399 240.897 43.7828 245.836 43.7828 250.694C43.7828 253.122 43.7018 255.551 43.7018 258.061V258.952C43.7018 259.357 43.6209 259.681 43.5399 260.004C43.378 260.733 42.9733 261.381 42.4066 261.867C41.3542 262.919 39.8161 263.243 38.5209 262.919C37.1447 262.595 36.0923 261.543 35.6875 260.328C35.6066 260.004 35.5256 259.681 35.4447 259.357C35.4447 259.033 35.4447 258.709 35.4447 258.385C35.4447 257.737 35.4447 257.171 35.4447 256.523C35.3637 254.094 35.1209 251.665 35.0399 249.155C34.959 246.726 34.959 244.297 35.1209 241.788C35.2018 239.359 35.3637 236.93 35.6875 234.42C35.6066 234.42 35.6875 234.339 35.7685 234.42C35.7685 234.339 35.7685 234.42 35.7685 234.42Z" fill="#020202"/>
<path d="M147.564 239.925C147.888 242.03 147.968 244.135 148.13 246.159C148.211 248.264 148.292 250.369 148.211 252.394C148.13 254.499 147.888 256.604 147.807 258.628C147.726 259.599 148.13 260.571 148.94 261.219C149.668 261.866 150.721 262.109 151.611 261.947C152.502 261.785 153.311 261.138 153.716 260.409C153.959 260.004 154.04 259.599 154.121 259.195C154.121 258.79 154.121 258.223 154.121 257.737C154.04 255.632 154.04 253.527 154.04 251.503C154.121 247.293 154.283 243.164 154.768 238.954C154.768 238.873 154.849 238.873 154.849 238.873C154.849 238.873 154.93 238.873 154.93 238.954C155.416 243.164 155.578 247.293 155.659 251.503C155.659 253.608 155.578 255.713 155.578 257.737C155.578 258.304 155.578 258.709 155.497 259.437C155.416 260.085 155.173 260.652 154.768 261.138C154.04 262.109 152.907 262.757 151.692 262.838C150.478 262.919 149.345 262.433 148.535 261.704C147.726 260.895 147.24 259.842 147.321 258.709C147.24 256.604 146.997 254.499 146.916 252.475C146.835 250.369 146.835 248.264 146.997 246.24C147.078 244.135 147.24 242.03 147.564 240.006C147.402 239.844 147.483 239.844 147.564 239.925C147.564 239.844 147.564 239.925 147.564 239.925Z" fill="#020202"/>
<path d="M39.8161 88.9271C40.3018 88.0365 41.0304 87.3078 41.759 86.5792C42.4876 85.9314 43.378 85.3647 44.2685 84.7979C46.0495 83.7454 47.9923 83.1787 50.0161 82.6929C52.0399 82.2071 54.0637 82.1261 56.0876 82.0452C57.1399 82.1261 58.1114 82.1261 59.1637 82.2071L62.159 82.5309C62.3209 82.5309 62.4018 82.6119 62.4828 82.6929C64.1018 84.2312 65.7209 85.7695 67.3399 87.3078L66.7733 87.1459C69.6066 86.903 72.278 87.3078 74.8685 88.1175C77.459 89.0081 79.8876 90.2226 81.9923 91.9228C82.559 92.3276 83.0447 92.8134 83.5304 93.2182C83.7733 93.4611 84.0161 93.623 84.259 93.8659L84.9066 94.5946C85.3114 95.0804 85.7971 95.5662 86.2828 96.052L87.4971 97.6713C87.659 97.9141 87.9018 98.238 88.0637 98.4809L88.5495 99.3715L89.6018 101.072C90.2495 102.286 90.8161 103.501 91.3828 104.634C91.8685 106.011 92.5161 107.468 93.2447 108.682C93.6495 109.33 94.0542 109.897 94.6209 110.464C95.1066 110.949 95.6733 111.435 96.3209 111.516C96.4828 111.516 96.6447 111.759 96.6447 111.921V112.002C95.7542 114.593 94.7018 117.103 93.4876 119.532C92.2733 121.96 90.8971 124.308 89.278 126.575C87.659 128.761 85.878 130.948 83.8542 132.81C81.7495 134.672 79.4018 136.21 76.8114 137.263C76.4876 137.344 76.1637 137.344 76.0018 137.101C73.2495 134.591 70.578 132.081 67.9876 129.328C65.3971 126.656 62.9685 123.823 60.7018 120.908C59.5685 119.451 58.4352 117.993 57.3828 116.455C56.3304 114.917 55.359 113.297 54.4685 111.678C53.578 110.059 52.8495 108.278 52.2828 106.496C51.7971 104.715 51.4733 102.772 51.878 100.91C51.878 100.829 51.959 100.829 51.959 100.829L52.0399 100.91C51.878 102.772 52.2018 104.553 52.8495 106.253C53.4971 107.954 54.3066 109.573 55.1971 111.192C57.059 114.35 59.3257 117.265 61.6733 120.017C64.0209 122.851 66.5304 125.523 69.1209 128.114C71.7114 130.705 74.3828 133.295 77.0542 135.724L76.2447 135.562C78.6733 134.591 80.859 133.215 82.8828 131.514C84.9066 129.814 86.6066 127.79 88.2257 125.685C89.8447 123.58 91.2209 121.232 92.5161 118.965C93.8114 116.617 95.0257 114.188 95.9971 111.678L96.2399 112.164C95.3495 111.921 94.7018 111.354 94.2161 110.787C93.6495 110.221 93.2447 109.573 92.8399 108.844C92.0304 107.468 91.4637 106.092 90.978 104.634C90.4114 103.42 89.9257 102.205 89.278 101.072L88.2257 99.3715L87.7399 98.5619C87.578 98.319 87.3352 98.0761 87.1733 97.7522L85.959 96.2139C85.5542 95.7281 85.0685 95.2423 84.5828 94.8375L83.8542 94.1088C83.6114 93.8659 83.3685 93.704 83.1257 93.4611C82.6399 93.0563 82.1542 92.6515 81.5876 92.2466C79.4828 90.7893 77.0542 89.6558 74.6257 89.0081C72.1971 88.2794 69.5257 88.0365 67.0161 88.1984C66.7733 88.1984 66.6114 88.1175 66.4495 88.0365C64.8304 86.4982 63.2114 84.8789 61.6733 83.3406L61.9971 83.5025L59.0828 83.0977C58.1114 83.0167 57.1399 82.9358 56.0876 82.9358C54.1447 82.9358 52.1209 82.9358 50.178 83.2596C48.2352 83.5835 46.2923 84.1502 44.5114 84.9599C43.6209 85.4457 42.7304 85.8505 42.0018 86.4982C41.1923 87.0649 40.4638 87.7936 39.8971 88.6033C39.8971 88.6033 39.8161 88.6842 39.8161 88.6033C39.8161 89.0081 39.7352 88.9271 39.8161 88.9271Z" fill="#020202"/>
<path d="M55.7637 93.4611C56.2494 92.6514 56.8161 91.9227 57.5447 91.275C58.2733 90.6273 59.0828 90.0606 59.8923 89.6557C60.7828 89.2509 61.6733 88.9271 62.6447 88.7651C63.6161 88.6032 64.5876 88.7651 65.478 89.008C64.5066 89.089 63.6161 89.17 62.7256 89.4128C61.8352 89.6557 61.0256 89.8986 60.2161 90.3844C58.678 91.1941 57.2209 92.2466 55.7637 93.4611Z" fill="#020202"/>
<path d="M78.0257 136.129C80.7781 139.611 83.9352 142.768 87.2542 145.602C90.6542 148.436 94.3781 150.784 98.5066 152.079C100.53 152.727 102.716 153.051 104.821 152.889C106.926 152.727 109.03 152.16 110.892 151.108C114.697 149.164 117.611 145.764 119.797 142.04C121.902 138.234 123.035 133.943 123.278 129.49L123.44 116.212V112.893C123.359 111.759 123.521 110.626 123.683 109.492C123.845 108.359 124.088 107.306 124.411 106.173C124.816 105.039 125.302 104.148 125.788 103.096C126.759 101.072 127.811 99.1286 128.783 97.1855C129.673 95.1614 130.645 93.1373 131.049 91.1132V91.0322L133.559 84.2312L134.773 80.8307C134.854 80.5069 134.935 80.345 134.935 80.1021C134.935 79.8592 134.935 79.6973 134.854 79.4544C134.773 79.0495 134.449 78.8066 134.126 78.6447C133.559 78.4018 132.588 79.2115 131.94 80.1021C131.211 80.9927 130.726 82.0452 130.159 83.0977C129.107 85.2838 127.811 87.4698 126.192 89.4129C125.383 90.3845 124.411 91.2751 123.278 92.0038C122.711 92.3277 122.064 92.6515 121.335 92.8134C120.607 92.9754 119.716 92.8944 118.988 92.4086C117.53 91.3561 117.288 89.6558 117.53 88.2795C117.611 87.5508 117.854 86.9031 118.178 86.3363L118.421 85.9315C118.502 85.8505 118.502 85.6886 118.583 85.6076C118.664 85.3647 118.745 85.1218 118.826 84.879C118.988 84.3932 118.988 83.8264 118.988 83.3406C118.988 83.0977 118.907 82.8548 118.907 82.8548C118.907 82.8548 118.907 82.9358 118.988 82.9358C119.069 82.9358 118.988 82.9358 118.907 82.9358C118.664 83.0168 118.097 83.3406 117.692 83.7455C117.288 84.1503 116.964 84.5551 116.64 84.9599C115.345 86.8221 114.535 89.0891 114.049 91.3561V91.1942L114.292 97.0236L114.454 99.9383L114.535 101.396C114.535 101.881 114.616 102.367 114.535 102.934C114.292 105.039 113.564 106.901 112.835 108.682C112.107 110.545 111.216 112.245 110.407 114.026C108.545 116.779 106.683 119.613 104.74 122.365C104.74 122.365 104.659 122.446 104.659 122.365C104.659 122.365 104.578 122.284 104.659 122.284C106.359 119.37 108.059 116.536 109.84 113.621V113.702C110.649 111.921 111.378 110.14 112.107 108.278C112.754 106.496 113.402 104.553 113.564 102.772C113.645 102.367 113.483 101.8 113.483 101.396L113.402 99.9383L113.24 97.0236L112.835 91.1942C112.835 91.1132 112.835 91.1132 112.835 91.0322C113.078 89.7368 113.402 88.6033 113.807 87.3888C114.211 86.1744 114.778 85.0409 115.507 83.9883C115.911 83.4216 116.316 82.9358 116.802 82.45C117.288 81.9642 117.773 81.5594 118.664 81.3165C118.907 81.2356 119.149 81.2356 119.554 81.3165C119.878 81.3975 120.202 81.6404 120.364 81.8833C120.688 82.3691 120.769 82.7739 120.769 83.0977C120.849 83.8264 120.769 84.5551 120.607 85.2028C120.526 85.5267 120.445 85.8505 120.283 86.1744C120.202 86.3363 120.121 86.4982 120.04 86.6602L119.878 87.065C119.635 87.5508 119.473 88.1175 119.392 88.6033C119.311 89.0891 119.311 89.5749 119.473 90.0607C119.635 90.4655 119.878 90.8703 120.121 91.1132C120.688 91.518 121.74 91.2751 122.63 90.7084C123.521 90.1416 124.411 89.332 125.14 88.4414C126.678 86.6602 127.892 84.6361 129.026 82.531C129.592 81.3975 130.159 80.345 130.969 79.2924C131.373 78.8066 131.859 78.3209 132.426 77.8351C132.992 77.4303 133.883 77.1064 134.773 77.3493C135.583 77.5922 136.23 78.3209 136.473 79.0495C136.635 79.4544 136.635 79.8592 136.635 80.264C136.635 80.6688 136.473 81.0736 136.311 81.3165L135.016 84.717C134.126 86.984 133.235 89.251 132.264 91.518V91.437C131.778 93.704 130.726 95.7281 129.754 97.7523C128.702 99.7764 127.649 101.639 126.597 103.582C126.111 104.553 125.545 105.525 125.14 106.496C124.816 107.549 124.573 108.601 124.33 109.654C124.169 110.707 124.007 111.84 124.088 112.893V116.212C124.088 120.665 124.007 125.037 124.169 129.571C124.169 134.024 123.116 138.558 121.092 142.606C120.04 144.63 118.745 146.493 117.207 148.193C115.669 149.893 113.807 151.351 111.783 152.403C109.759 153.456 107.411 154.022 105.145 154.184C102.797 154.346 100.53 153.941 98.3447 153.294C93.9733 151.917 90.2495 149.245 86.8495 146.25C85.1495 144.792 83.6114 143.173 82.1542 141.473C80.6971 139.773 79.3209 138.072 78.0257 136.21V136.129C77.9447 136.129 77.9447 136.129 78.0257 136.129Z" fill="#020202"/>
<path d="M95.6733 113.945C97.2114 115.079 98.5876 116.374 100.045 117.669C101.421 118.965 102.797 120.341 104.092 121.718C105.388 123.094 106.683 124.551 107.816 126.009C109.03 127.466 110.164 129.004 111.135 130.624C110.488 129.895 109.921 129.166 109.192 128.519C108.545 127.79 107.897 127.061 107.33 126.414C106.035 125.037 104.74 123.58 103.445 122.203L95.6733 113.945Z" fill="#020202"/>
<path d="M76.4876 89.4129C80.6971 86.2553 85.2304 83.5834 90.0066 81.3164C92.3542 80.1829 94.7828 79.1304 97.2923 78.3208C99.8018 77.5111 102.392 76.7824 104.983 76.4586C107.573 76.1347 110.245 75.8918 112.835 75.8918C113.483 75.8918 114.13 75.8918 114.778 75.8918H115.264C115.426 75.8918 115.669 75.9728 115.83 75.9728C116.154 76.1347 116.478 76.2967 116.721 76.6205C117.207 77.1873 117.288 78.0779 116.964 78.7256C116.802 79.0494 116.559 79.3733 116.235 79.5352C116.073 79.6162 115.911 79.6972 115.749 79.7781L115.264 79.9401C112.754 80.7497 110.326 81.6403 107.816 82.369C106.521 82.7738 105.307 83.0977 104.011 83.4215C103.364 83.5834 102.716 83.7454 102.069 83.8263C101.421 83.9073 100.773 84.0692 99.9638 83.9883C99.559 83.9883 99.3161 83.6644 99.3161 83.2596C99.3161 82.9357 99.6399 82.6119 99.9638 82.6119H100.045L111.216 82.4499C111.378 82.4499 111.459 82.4499 111.621 82.5309C111.864 82.6928 112.107 82.8548 112.269 83.0977C112.43 83.3406 112.673 83.5834 112.754 83.9883C112.916 84.7979 112.43 85.4456 112.107 85.7695C111.378 86.4172 110.569 86.7411 109.84 87.0649C109.111 87.3888 108.302 87.5507 107.573 87.7936C106.845 88.0365 106.035 88.1174 105.307 88.3603L105.711 88.1174C104.821 88.9271 103.93 89.6558 102.878 90.3035C101.907 90.9512 100.854 91.5179 99.7209 92.0037C98.5876 92.4895 97.3733 92.8134 96.159 92.8134C94.8638 92.8134 93.6495 92.3276 92.678 91.5989H93.2447C92.0304 92.3276 90.8161 93.1372 89.5209 93.8659C88.3066 94.5946 87.0923 95.3233 85.7971 96.0519H85.7161V95.971C86.8495 95.0804 88.0638 94.2707 89.1971 93.3801C90.3304 92.4895 91.5447 91.6799 92.678 90.8702C92.8399 90.7893 93.0018 90.7893 93.1638 90.8702C94.0542 91.437 95.0257 91.7608 96.078 91.6799C97.1304 91.6799 98.1828 91.275 99.1542 90.8702C100.126 90.3844 101.097 89.8177 101.988 89.17C102.878 88.5223 103.769 87.7936 104.497 87.0649C104.578 86.9839 104.74 86.903 104.902 86.822C105.63 86.6601 106.359 86.4982 107.088 86.2553C107.816 86.0933 108.545 85.8504 109.192 85.5266C109.84 85.2837 110.488 84.9598 110.892 84.555C111.135 84.3931 111.054 84.3121 111.054 84.3121C111.054 84.3121 111.054 84.2312 110.973 84.2312C110.892 84.1502 110.811 84.0692 110.73 84.0692L111.135 84.1502L99.9638 83.9883L100.045 82.6119C100.53 82.6928 101.178 82.6119 101.826 82.5309C102.473 82.4499 103.121 82.369 103.688 82.2071C104.983 81.9642 106.197 81.7213 107.492 81.3974C110.002 80.8307 112.592 80.102 115.102 79.3733L115.588 79.2114C115.749 79.1304 115.83 79.1304 115.992 79.0495C116.235 78.8875 116.397 78.7256 116.559 78.4017C116.802 77.9159 116.721 77.2682 116.397 76.7825C116.235 76.5396 115.992 76.3776 115.749 76.2967C115.588 76.2157 115.507 76.2157 115.345 76.2157H114.859C114.211 76.2157 113.564 76.2157 112.916 76.2157C110.326 76.2967 107.735 76.7824 105.226 77.2682C102.716 77.754 100.288 78.6446 97.778 79.5352C95.3495 80.4258 92.9209 81.3974 90.5733 82.4499C85.7971 84.555 81.1828 86.903 76.6495 89.4938H76.5685C76.4066 89.4938 76.4066 89.4129 76.4876 89.4129Z" fill="#020202"/>
<path d="M123.521 66.4189L116.64 76.8633C117.935 79.1303 115.021 79.778 115.021 79.778L111.702 83.7453C111.702 83.7453 112.673 85.2836 110.002 86.1742L114.211 88.0364C114.211 88.0364 115.668 83.7453 117.854 82.5308L116.073 81.9641L124.168 68.6859L135.097 69.8194L127.002 85.4455L119.797 83.1785C120.04 84.393 119.311 86.579 118.826 87.1458L118.34 89.0889L123.764 90.8701C123.764 90.8701 127.811 85.8503 129.511 82.9356C131.211 80.0209 132.668 77.7539 133.802 78.0778L139.873 67.7144L123.521 66.4189ZM114.211 85.2836C112.673 85.2836 112.673 82.9356 114.211 82.9356C115.749 82.9356 115.749 85.2836 114.211 85.2836ZM123.764 88.5222C122.226 88.5222 122.226 86.1742 123.764 86.1742C125.302 86.1742 125.302 88.5222 123.764 88.5222Z" fill="#020202"/>
<path d="M81.9924 86.1743C83.4495 87.1459 84.7448 88.3604 86.04 89.5748C87.2543 90.7893 88.4686 92.0847 89.5209 93.5421C88.0638 92.5705 86.7686 91.356 85.4733 90.1416C84.259 88.8461 83.0448 87.5507 81.9924 86.1743Z" fill="#020202"/>
<path d="M229.326 172.644C225.44 170.701 196.459 115.726 196.459 115.726C191.845 107.225 185.773 103.015 180.026 100.991C172.092 98.319 163.349 99.6144 156.388 104.229L123.521 125.928C124.007 135.967 121.578 139.692 121.578 139.692L149.345 140.906C160.03 143.902 159.626 152.565 159.626 152.565L160.516 216.365C178.326 225.028 200.345 216.365 200.345 216.365L197.107 198.472L193.949 180.983C192.897 175.154 191.764 169.325 190.469 163.576C189.902 160.661 189.173 157.828 188.445 154.994C187.716 152.16 186.907 149.326 186.016 146.493C185.045 143.74 184.073 140.906 182.697 138.315C182.049 137.02 181.24 135.724 180.269 134.672C179.783 134.186 179.216 133.7 178.569 133.376C177.921 133.053 177.111 132.972 176.464 133.296C177.111 132.891 177.921 132.891 178.649 133.134C179.378 133.376 180.026 133.862 180.592 134.348C181.726 135.401 182.616 136.615 183.426 137.91C184.964 140.501 186.178 143.254 187.23 146.007C189.335 151.593 190.792 157.423 192.088 163.171C193.383 169.001 194.354 174.83 195.245 180.66C196.135 186.489 196.702 192.399 197.188 198.31C212.002 195.881 229.326 172.644 229.326 172.644ZM163.916 215.879C162.378 215.879 162.378 213.531 163.916 213.531C165.454 213.531 165.454 215.879 163.916 215.879ZM169.583 217.417C168.045 217.417 168.045 215.069 169.583 215.069C171.121 215.069 171.121 217.417 169.583 217.417ZM195.002 213.531C196.54 213.531 196.54 215.879 195.002 215.879C193.464 215.879 193.464 213.531 195.002 213.531ZM188.769 215.393C190.307 215.393 190.307 217.741 188.769 217.741C187.23 217.741 187.23 215.393 188.769 215.393ZM182.778 216.203C184.316 216.203 184.316 218.551 182.778 218.551C181.24 218.551 181.24 216.203 182.778 216.203ZM176.14 218.308C174.602 218.308 174.602 215.96 176.14 215.96C177.678 215.96 177.678 218.308 176.14 218.308ZM226.573 170.458C228.111 170.458 228.111 172.806 226.573 172.806C225.035 172.806 225.035 170.458 226.573 170.458ZM222.445 175.154C223.983 175.154 223.983 177.502 222.445 177.502C220.907 177.502 220.907 175.154 222.445 175.154ZM198.564 196.529C197.026 196.529 197.026 194.181 198.564 194.181C200.102 194.181 200.021 196.529 198.564 196.529ZM203.583 194.262C202.045 194.262 202.045 191.914 203.583 191.914C205.121 191.914 205.121 194.262 203.583 194.262ZM208.683 191.266C207.145 191.266 207.145 188.918 208.683 188.918C210.221 188.918 210.221 191.266 208.683 191.266ZM213.378 187.137C211.84 187.137 211.84 184.789 213.378 184.789C214.916 184.789 214.916 187.137 213.378 187.137ZM218.073 179.688C219.611 179.688 219.611 182.036 218.073 182.036C216.616 182.036 216.616 179.688 218.073 179.688Z" fill="#020202"/>
<path d="M160.597 230.938C160.84 234.582 160.921 238.225 160.759 241.868C160.678 243.731 160.597 245.512 160.192 247.374C160.111 247.617 160.111 247.86 159.949 248.103L159.788 248.507L159.707 248.669C159.707 248.75 159.707 248.75 159.707 248.75C159.626 248.912 159.707 249.236 159.868 249.479C160.273 250.127 160.921 250.693 161.569 251.179C164.402 253.041 168.207 253.608 171.364 252.556C171.769 252.394 172.173 252.232 172.578 252.07C172.983 251.908 173.388 251.665 173.873 251.503C174.764 251.179 175.654 250.855 176.545 250.613C178.407 250.127 180.268 250.127 182.13 250.208C183.992 250.289 185.854 250.613 187.554 251.179C188.445 251.422 189.335 251.827 190.145 252.232C190.954 252.637 191.764 252.96 192.654 253.203C194.354 253.77 196.135 254.175 197.916 254.499C199.697 254.823 201.478 255.147 203.259 255.308C206.821 255.713 210.464 255.875 214.026 255.47C215.807 255.308 217.588 254.985 219.126 254.337C219.854 254.013 220.583 253.527 220.907 252.88C221.23 252.313 221.311 251.584 221.068 250.774L221.23 251.017C220.907 250.693 220.502 250.289 220.097 249.965C219.692 249.641 219.207 249.317 218.802 248.993C217.911 248.346 216.94 247.779 215.969 247.293C213.945 246.24 211.84 245.431 209.735 244.783C207.549 244.135 205.364 243.569 203.178 243.164C202.045 242.921 200.992 242.759 199.859 242.597C198.726 242.435 197.511 242.192 196.378 241.868C194.111 241.221 191.926 240.249 189.983 238.873C188.04 237.577 186.259 235.877 185.045 233.853C183.749 231.829 183.021 229.562 182.616 227.295C182.292 224.947 182.292 222.68 182.697 220.332C182.697 220.251 182.778 220.251 182.778 220.251L182.859 220.332C182.697 222.599 182.778 224.947 183.345 227.133C183.83 229.319 184.64 231.424 185.935 233.286C187.23 235.067 188.849 236.606 190.711 237.82C192.573 239.035 194.678 239.844 196.783 240.411C197.835 240.654 198.968 240.897 200.021 241.059C201.154 241.221 202.369 241.383 203.502 241.626C204.635 241.868 205.769 242.03 206.902 242.354C208.035 242.597 209.169 243.002 210.302 243.326C212.488 244.054 214.673 244.945 216.778 246.079C218.883 247.212 220.826 248.426 222.526 250.37C222.607 250.451 222.607 250.532 222.607 250.613C222.849 251.584 222.849 252.799 222.283 253.77C221.716 254.742 220.745 255.308 219.854 255.632C218.073 256.361 216.211 256.604 214.349 256.685C210.626 256.847 206.983 256.523 203.421 256.037C199.778 255.551 196.216 254.823 192.735 253.77C191.845 253.527 191.035 253.203 190.145 252.799C189.335 252.394 188.526 252.151 187.635 251.908C185.935 251.422 184.154 251.26 182.373 251.26C180.592 251.26 178.811 251.422 177.111 251.908C176.302 252.151 175.411 252.475 174.683 252.799C174.278 252.96 173.873 253.203 173.468 253.365C173.064 253.608 172.578 253.77 172.173 253.932C170.392 254.58 168.369 254.742 166.507 254.418C164.645 254.094 162.783 253.446 161.245 252.313C160.435 251.746 159.707 251.098 159.14 250.127C158.978 249.884 158.897 249.641 158.816 249.317C158.735 248.993 158.816 248.669 158.897 248.265L159.059 248.022L159.14 247.941L159.221 247.698C159.302 247.536 159.302 247.293 159.383 247.131C159.869 245.512 159.949 243.65 160.192 241.868C160.435 238.225 160.597 234.663 160.759 231.019C160.435 230.857 160.516 230.857 160.597 230.938C160.597 230.857 160.597 230.857 160.597 230.938Z" fill="#020202"/>
<path d="M206.497 194.666C207.226 196.043 207.954 197.5 208.602 198.957C209.249 200.415 209.897 201.872 210.383 203.41C210.949 204.949 211.435 206.406 211.759 208.025C212.083 209.564 212.407 211.183 212.326 212.883C212.326 213.288 212.245 213.693 212.164 214.179C212.083 214.421 212.083 214.583 212.002 214.826L211.921 215.15C211.921 215.231 211.921 215.231 211.84 215.312V215.393C211.759 215.798 212.164 216.446 212.569 216.931C213.54 217.984 214.916 218.713 216.292 219.198C217.669 219.684 219.207 219.927 220.664 219.846C222.121 219.765 223.578 219.36 224.954 218.632C226.411 217.903 228.03 217.417 229.569 217.174C231.188 216.85 232.807 216.931 234.426 217.012C236.045 217.093 237.664 217.417 239.202 217.822C240.011 218.065 240.74 218.308 241.469 218.632C242.197 218.955 242.845 219.279 243.654 219.603C246.649 220.656 249.726 221.222 252.883 221.627C256.04 222.032 259.197 222.113 262.273 221.87C263.811 221.708 265.349 221.546 266.888 221.141C267.616 220.899 268.345 220.656 268.992 220.332C269.64 220.008 270.207 219.603 270.692 219.036C271.178 218.551 271.421 217.903 271.421 217.255C271.502 216.608 271.421 215.879 271.097 215.231C270.854 214.583 270.369 214.017 269.883 213.45C269.397 212.883 268.83 212.316 268.264 211.831C265.916 209.807 263.245 208.268 260.33 207.135C258.873 206.568 257.416 206.082 255.878 205.677C254.34 205.273 252.802 204.868 251.264 204.382C248.188 203.329 245.273 202.115 242.44 200.496C239.607 198.957 237.016 197.095 234.507 195.071C231.997 193.047 229.73 190.78 227.707 188.351C225.683 185.841 223.983 183.088 223.011 180.093C223.011 180.012 223.011 180.012 223.092 180.012C223.092 180.012 223.173 180.012 223.173 180.093C224.469 183.007 226.249 185.598 228.354 187.946C230.459 190.294 232.807 192.318 235.316 194.261C240.254 198.148 245.84 201.062 251.83 202.925C253.288 203.41 254.826 203.815 256.364 204.22C257.902 204.625 259.44 205.192 260.978 205.758C263.973 206.973 266.807 208.673 269.235 210.859C269.883 211.426 270.449 211.993 270.935 212.64C271.502 213.207 271.988 214.017 272.311 214.826C272.635 215.636 272.797 216.607 272.635 217.498C272.635 217.984 272.473 218.389 272.311 218.875C272.069 219.279 271.826 219.684 271.502 220.008C270.854 220.656 270.126 221.141 269.397 221.465C268.669 221.87 267.859 222.032 267.049 222.275C265.43 222.599 263.811 222.761 262.273 222.842C259.035 223.004 255.878 222.68 252.721 222.275C249.564 221.789 246.488 221.222 243.411 220.251C242.683 220.008 241.873 219.684 241.226 219.36C240.497 219.036 239.769 218.794 239.04 218.632C237.502 218.227 235.964 218.065 234.426 218.065C232.888 218.065 231.269 218.146 229.811 218.47C228.354 218.794 226.897 219.36 225.521 220.089C224.145 220.899 222.445 221.384 220.745 221.546C219.045 221.708 217.345 221.465 215.807 220.818C214.269 220.251 212.73 219.36 211.597 218.065C211.273 217.741 211.03 217.336 210.869 216.931C210.707 216.527 210.464 215.96 210.626 215.393L210.707 215.15L210.788 214.988L210.869 214.745C210.949 214.583 210.949 214.421 211.03 214.26C211.111 213.936 211.111 213.531 211.192 213.207C211.273 210.211 210.545 207.054 209.654 204.058C208.764 201.062 207.63 198.067 206.416 195.152V195.071C206.416 194.585 206.497 194.585 206.497 194.666Z" fill="#020202"/>
<path d="M79.8875 57.6749C81.4256 57.6749 81.4256 55.3269 79.8875 55.3269C78.3494 55.3269 78.3494 57.6749 79.8875 57.6749Z" fill="#020202"/>
<path d="M61.1876 59.1321C62.7257 59.1321 62.7257 56.7842 61.1876 56.7842C59.7304 56.7842 59.7304 59.1321 61.1876 59.1321Z" fill="#020202"/>
<path d="M76.4875 66.095C77.0542 66.7427 77.459 67.3904 78.0256 67.8762C78.2685 68.1191 78.5923 68.362 78.8352 68.6049C79.159 68.8478 79.4828 69.0097 79.8066 69.3335C79.4018 69.4145 78.9161 69.3335 78.5114 69.1716C78.1066 69.0097 77.7018 68.7668 77.459 68.4429C77.1352 68.1191 76.8923 67.7952 76.7304 67.3904C76.5685 66.9856 76.4875 66.5808 76.4875 66.095Z" fill="#020202"/>
<path d="M81.9923 52.8979C81.5066 53.0598 81.1019 52.8979 80.778 52.8169C80.4542 52.655 80.1304 52.4121 79.8876 52.0073C80.3733 51.8453 80.778 52.0073 81.1019 52.0882C81.4257 52.1692 81.7495 52.4121 81.9923 52.8979Z" fill="#020202"/>
<path d="M59.9733 60.3467C60.459 60.4276 60.7828 60.4276 61.1876 60.4276C61.5923 60.4276 61.9161 60.3467 62.4018 60.3467C62.3209 60.5896 62.078 60.7515 61.9161 60.8325C61.6733 60.9944 61.4304 60.9944 61.1876 60.9944C60.7018 60.9944 60.2161 60.7515 59.9733 60.3467Z" fill="#020202"/>
<path d="M133.154 38.3245H112.349V51.1168H119.959L122.792 53.9506L125.545 51.1168H133.154V38.3245Z" stroke="black" stroke-width="0.9678" stroke-miterlimit="10"/>
<path d="M153.878 18.5691H133.154V31.4424H140.683L143.516 34.1952L146.349 31.4424H153.878V18.5691Z" stroke="black" stroke-width="0.9678" stroke-miterlimit="10"/>
<path d="M130.726 1.40479H109.921V14.1971H117.53L120.364 17.0309L123.116 14.1971H130.726V1.40479Z" stroke="black" stroke-width="0.9678" stroke-miterlimit="10"/>
</svg>
