<svg width="357" height="408" viewBox="0 0 357 408" fill="none" xmlns="http://www.w3.org/2000/svg">
  <g clip-path="url(#clip0_264:15)">
    <path
      d="M63.8595 65.6883C64.1119 68.9664 64.2381 72.2446 64.1119 75.5227C63.9857 77.1617 63.8595 78.8008 63.6071 80.4399C63.4809 81.3224 63.2285 82.0789 62.9762 82.9615C62.85 83.3397 62.7238 83.8441 62.4714 84.2223L62.219 84.7266C62.219 84.8527 62.0928 84.9788 62.0928 85.1049C61.8404 86.2396 62.219 87.7526 62.9762 89.0134C63.7333 90.2742 64.6166 91.535 65.6262 92.7959L66.3833 93.6784L66.7619 94.0567L67.0142 94.3088C67.1404 94.4349 67.2666 94.561 67.2666 94.6871C67.6452 95.1914 67.7714 95.9479 67.7714 96.5783C67.7714 96.9565 67.6452 97.2087 67.519 97.4609C67.3928 97.713 67.2666 97.8391 67.1404 98.0913C66.1309 99.4782 64.4904 100.739 62.7238 101.117L63.2285 100.739C61.8404 103.387 60.2 106.034 58.5595 108.43C56.919 110.952 55.0262 113.347 52.7547 115.364C51.619 116.373 50.3571 117.382 48.8428 117.886C48.0857 118.138 47.3285 118.39 46.4452 118.39C46.0666 118.39 45.5619 118.39 45.1833 118.264L44.0476 118.012C42.5333 117.76 41.019 117.382 39.6309 116.751C38.8738 116.499 38.1166 116.121 37.4857 115.617C37.1071 115.364 36.7285 115.112 36.4762 114.734C36.35 114.608 36.0976 114.356 35.9714 114.104C35.8452 113.978 35.8452 113.851 35.8452 113.725C35.8452 113.599 35.719 113.473 35.719 113.095L37.3595 113.978C36.35 114.734 35.3405 115.743 34.4571 116.877C33.5738 117.886 32.8166 119.021 32.1857 120.282C31.5547 121.416 30.9238 122.677 30.5452 124.064C30.1666 125.325 29.9143 126.712 29.6619 128.099V128.225C29.5357 128.981 28.9047 129.36 28.1476 129.36C27.769 129.233 27.3904 128.981 27.2643 128.729C25.6238 125.829 24.4881 122.929 23.4785 119.903C22.469 116.877 21.8381 113.725 21.4595 110.573C21.0809 107.421 21.2071 104.143 21.7119 101.117C22.2166 97.9652 23.3524 94.9392 24.8666 92.2915C24.8666 92.2915 24.9928 92.1654 24.9928 92.2915C24.9928 92.2915 25.119 92.4176 24.9928 92.4176C24.4881 93.9306 23.9833 95.3175 23.6047 96.8305C23.3524 98.3434 22.9738 99.8564 22.8476 101.369C22.5952 104.395 22.8476 107.421 23.2262 110.447C23.7309 113.473 24.4881 116.373 25.4976 119.273C26.5071 122.173 27.769 124.947 29.1571 127.594L26.7595 128.099C27.0119 126.586 27.2643 125.073 27.769 123.686C28.2738 122.299 28.9047 120.912 29.6619 119.525C30.419 118.264 31.3024 117.004 32.3119 115.869C33.3214 114.734 34.4571 113.725 35.719 112.843L37.3595 113.725C37.3595 113.473 37.3595 113.599 37.3595 113.599C37.3595 113.599 37.3595 113.599 37.3595 113.725C37.3595 113.851 37.4857 113.851 37.4857 113.978C37.6119 114.23 37.8643 114.356 38.1166 114.608C38.6214 114.986 39.2523 115.364 39.8833 115.617C41.1452 116.247 42.5333 116.625 43.9214 117.13C46.5714 118.264 49.4738 117.004 51.619 115.112C53.8904 113.221 55.6571 110.826 57.2976 108.304C58.8119 105.782 60.2 103.135 61.3357 100.361C61.4619 100.109 61.5881 99.9825 61.8404 99.9825C63.2285 99.6043 64.3643 98.5956 65.1214 97.3348C65.2476 97.2087 65.3738 96.9565 65.3738 96.9565C65.3738 96.8305 65.3738 96.8305 65.3738 96.7044C65.3738 96.5783 65.3738 96.3261 65.2476 96.2001C65.2476 96.2001 65.2476 96.2001 65.1214 96.074L64.869 95.8218L64.3643 95.4436C64.1119 95.1914 63.7333 94.8132 63.4809 94.561C62.3452 93.3002 61.3357 91.9133 60.4524 90.4003C59.6952 88.8873 58.9381 86.9961 59.4428 84.9788C59.4428 84.7266 59.569 84.4745 59.6952 84.2223L59.9476 83.5919C60.0738 83.3397 60.2 82.9615 60.4524 82.5832C60.7047 81.8268 60.9571 81.0703 61.0833 80.3138C61.4619 78.8008 61.7142 77.1617 61.9666 75.5227C62.4714 72.3706 62.7238 69.0925 62.9762 65.8144C63.7333 65.5622 63.7333 65.5622 63.8595 65.6883C63.8595 65.5622 63.8595 65.5622 63.8595 65.6883Z"
      fill="#020202" />
    <path
      d="M28.4 97.7134C28.9048 100.109 29.5357 102.252 30.5452 104.27C31.05 105.278 31.6809 106.161 32.3119 107.043C33.069 107.926 33.9524 108.682 34.8357 109.439C33.7 109.061 32.5643 108.556 31.6809 107.674C30.7976 106.791 30.0405 105.783 29.4095 104.774C28.9048 103.639 28.5262 102.504 28.2738 101.244C28.1476 100.109 28.1476 98.8481 28.4 97.7134Z"
      fill="#020202" />
    <path
      d="M25.1191 92.4176C15.9072 114.104 28.4 128.225 28.4 128.225C5.55954 123.308 -6.30237 137.051 -6.30237 137.051C-12.4857 123.938 -26.619 125.829 -26.619 125.829C-26.619 125.829 -35.3262 116.877 -24.2214 109.565C-16.5238 104.395 -15.5143 99.7304 -15.5143 97.3348C-15.6405 95.1914 -15.3881 93.048 -14.7571 90.9047C-14 88.5091 -12.6119 85.6092 -10.3405 82.5833C-7.1857 78.5487 -4.78808 73.8837 -3.27379 68.9665C-0.11903 57.9974 7.32621 40.7242 22.7214 41.7328C25.4976 41.4807 29.6619 41.3546 34.331 42.3633C41.1453 43.7501 45.8143 46.5239 49.0953 48.5413C55.531 52.5759 60.3262 57.2409 63.6072 61.5277C63.8595 63.545 64.1119 68.9665 60.831 74.1358C56.6667 80.8181 49.6 82.8354 45.6881 83.4658C42.9119 83.8441 40.1357 82.9615 38.3691 80.9442C37.7381 80.3138 37.2334 79.4312 36.981 78.4226C36.0976 75.6488 34.4572 73.1272 31.9334 71.8663C28.9048 70.3534 25.1191 70.8577 23.3524 80.0616C21.8381 87.7526 23.2262 91.0308 25.1191 92.4176Z"
      fill="#020202" />
    <path
      d="M164.686 227.199C160.521 227.956 156.231 228.334 152.067 228.712C147.902 228.964 143.612 229.09 139.448 229.216C135.283 229.216 130.993 229.09 126.829 228.838C122.664 228.586 118.374 228.208 114.21 227.451C118.374 226.695 122.664 226.317 126.829 225.938C130.993 225.686 135.283 225.56 139.448 225.56C143.612 225.56 147.902 225.686 152.067 225.938C156.231 226.064 160.521 226.443 164.686 227.199Z"
      fill="#020202" />
    <path
      d="M69.2857 227.577C61.0833 228.207 52.881 228.586 44.5524 228.838L41.3976 228.964H39.8833C39.3786 228.964 38.8738 228.964 38.2429 228.964C35.8452 228.838 33.5738 227.955 31.5548 226.694C29.5357 225.434 28.0214 223.795 26.6333 222.155C25.2452 220.39 23.9833 218.625 22.9738 216.608C22.9738 216.482 22.8476 216.482 22.8476 216.356V216.23C20.45 208.16 17.9262 200.091 15.5286 192.022C14.2667 187.987 12.8786 183.953 11.4905 179.918L9.21905 173.992L6.82143 168.066C5.18095 164.158 3.41429 160.249 1.64762 156.467C-0.119041 152.685 -2.13809 148.902 -4.03095 145.12C-5.92381 141.337 -7.94286 137.555 -9.9619 133.898C-11.6024 130.62 -15.0095 128.477 -18.4167 128.477L-31.0357 128.981C-35.3262 129.107 -39.6167 129.233 -43.9071 129.233C-48.1976 129.107 -52.4881 128.981 -56.9048 128.477C-58.0405 128.351 -59.1762 128.099 -60.3119 127.846C-60.9429 127.72 -61.4476 127.594 -62.0786 127.342C-62.7095 127.09 -63.3405 126.964 -64.35 126.207C-64.6024 125.955 -64.8548 125.829 -65.1071 125.451C-65.3595 125.073 -65.6119 124.568 -65.7381 123.938C-65.7381 123.686 -65.7381 123.308 -65.7381 123.055L-65.6119 122.677C-65.4857 122.425 -65.4857 122.047 -65.3595 121.921C-65.2333 121.542 -64.981 121.038 -64.7286 120.786C-64.4762 120.408 -64.35 120.155 -64.0976 119.903C-63.2143 118.895 -62.331 118.138 -61.4476 117.382C-57.9143 114.482 -54.2548 112.338 -50.5952 110.069L-39.6167 103.639C-37.85 102.504 -35.9571 101.495 -34.3167 100.235C-33.9381 99.9824 -33.5595 99.6042 -33.0548 99.352L-31.6667 98.3434C-31.1619 98.0912 -30.6571 97.8391 -30.1524 97.4608C-29.6476 97.2086 -29.1429 96.9565 -28.6381 96.8304C-26.4929 96.0739 -24.2214 95.6957 -22.0762 95.8217C-19.931 95.8217 -17.6595 96.2 -15.6405 97.0826C-15.5143 97.0826 -15.5143 97.3347 -15.5143 97.4608C-15.5143 97.5869 -15.6405 97.5869 -15.7667 97.5869C-19.8048 96.8304 -24.2214 97.0826 -27.7548 98.9738C-28.1333 99.2259 -28.6381 99.4781 -29.0167 99.7303L-30.2786 100.613L-31.4143 101.621C-31.7929 102 -32.2976 102.378 -32.6762 102.756C-34.3167 104.143 -36.0833 105.404 -37.85 106.665C-41.3833 109.186 -44.9167 111.456 -48.45 113.851C-51.9833 116.247 -55.5167 118.643 -58.419 121.164C-59.1762 121.795 -59.8071 122.425 -60.3119 123.055C-60.4381 123.181 -60.5643 123.308 -60.5643 123.434C-60.4381 123.434 -60.4381 123.56 -60.4381 123.56C-60.4381 123.434 -60.4381 123.308 -60.4381 123.055C-60.5643 122.299 -60.9429 122.047 -60.9429 122.047C-60.9429 122.047 -60.6905 122.173 -60.3119 122.299C-59.9333 122.425 -59.4286 122.551 -59.05 122.551C-58.1667 122.677 -57.1571 122.803 -56.1476 122.929C-52.1095 123.434 -47.9452 123.56 -43.6548 123.686C-39.4905 123.812 -35.2 123.938 -31.0357 123.938H-24.7262H-21.5714C-20.5619 123.938 -19.5524 123.812 -18.1643 123.938C-15.6405 124.19 -13.2429 125.073 -11.2238 126.46C-9.20476 127.846 -7.56429 129.99 -6.68095 132.133C-4.91429 136.042 -3.27381 139.95 -1.63333 143.859L3.28809 155.71L8.20953 167.436C14.7714 183.07 22.469 198.452 27.0119 214.969L26.8857 214.717C28.5262 217.995 30.9238 221.273 33.8262 223.29C35.3405 224.299 36.8548 225.055 38.6214 225.181C39 225.308 39.631 225.308 40.0095 225.308H41.5238L44.5524 225.434C52.7548 225.812 60.9571 226.19 69.1595 226.947C69.2857 226.947 69.4119 227.073 69.4119 227.199C69.4119 227.577 69.4119 227.577 69.2857 227.577Z"
      fill="#020202" />
    <path
      d="M120.898 216.23C127.586 216.104 134.4 215.978 141.088 215.852L151.183 215.726L156.231 215.599C157.998 215.599 159.764 215.599 161.531 215.978C165.064 216.482 168.471 217.743 171.5 219.634C172.257 220.138 172.888 220.517 173.645 221.021C174.402 221.525 175.16 222.03 175.79 222.66C177.179 223.921 178.44 225.308 179.324 226.821C180.333 228.334 181.09 230.099 181.469 231.864C181.721 232.747 181.848 233.629 181.974 234.638C182.1 235.142 182.1 235.52 182.1 236.025V237.285L182.352 247.372L182.857 267.545L183.236 287.718C183.488 301.209 183.614 314.573 183.614 328.064V348.237V353.281C183.614 354.163 183.614 354.92 183.614 355.802C183.614 356.685 183.488 357.693 183.362 358.576C182.731 362.232 180.964 365.637 178.567 368.158C177.305 369.419 175.79 370.554 174.276 371.436C172.636 372.319 170.995 372.949 169.229 373.327C167.462 373.706 165.569 373.706 163.929 373.706H158.881H138.69C125.188 373.706 111.812 373.58 98.3095 373.327C84.8072 373.075 71.431 372.823 57.9286 372.319C44.4262 371.814 31.05 371.058 17.5476 369.923C14.1405 369.671 10.8595 369.293 7.45239 369.041C4.04525 368.789 0.764297 368.41 -2.64285 368.032L-7.69046 367.528L-8.95237 367.402L-9.58332 367.276C-9.58332 367.276 -9.96189 367.15 -10.0881 367.15L-10.4667 367.023C-11.4762 366.771 -12.3595 366.393 -13.2428 365.889C-15.0095 365.006 -16.5238 363.745 -17.7857 362.232C-19.0476 360.719 -19.9309 358.954 -20.6881 357.189C-21.95 353.533 -21.95 349.75 -21.6976 346.22C-21.4452 343.068 -21.4452 339.664 -21.4452 336.386C-21.4452 329.703 -21.6976 323.021 -22.0762 316.339C-22.4548 309.656 -22.9595 302.974 -23.5905 296.292C-24.2214 289.609 -24.9786 282.927 -25.7357 276.371C-26.4928 269.688 -27.5024 263.132 -28.5119 256.45C-29.6476 249.894 -30.7833 243.211 -32.1714 236.655C-34.8214 223.543 -38.1024 210.556 -42.0143 197.822C-44.0333 191.392 -46.1786 185.088 -48.5762 178.91C-50.9738 172.732 -53.4976 166.428 -56.5262 160.502C-57.9143 157.476 -59.5547 154.576 -61.069 151.55C-62.7095 148.524 -64.2238 145.498 -65.2333 142.22C-66.2428 138.942 -66.8738 135.664 -67.1262 132.133C-67.2524 130.368 -67.1262 128.729 -66.6214 126.964C-66.369 126.082 -65.9905 125.325 -65.3595 124.569C-64.7286 123.812 -63.9714 123.434 -63.0881 123.182C-62.9619 123.182 -62.8357 123.182 -62.8357 123.308C-62.8357 123.434 -62.8357 123.56 -62.9619 123.56C-64.4762 124.064 -65.4857 125.451 -65.8643 127.09C-66.2428 128.603 -66.2428 130.368 -65.9905 132.007C-65.6119 135.285 -64.8547 138.564 -63.719 141.59C-62.5833 144.742 -61.069 147.515 -59.3024 150.415C-57.6619 153.315 -55.8952 156.215 -54.3809 159.241C-48.0714 171.219 -42.8976 183.701 -38.6071 196.561C-29.9 222.156 -24.2214 248.759 -20.6881 275.488C-18.9214 288.853 -17.6595 302.344 -17.1547 315.834C-16.9024 322.643 -16.65 329.325 -16.7762 336.133C-16.7762 339.538 -16.9024 342.942 -17.1547 346.346C-17.2809 347.229 -17.2809 347.985 -17.2809 348.742C-17.4071 349.498 -17.2809 350.255 -17.2809 351.011C-17.2809 352.524 -16.9024 354.037 -16.5238 355.424C-15.6405 358.198 -13.8738 360.467 -11.35 361.728C-10.719 362.106 -10.0881 362.358 -9.45713 362.484H-9.20475C-9.07856 362.484 -9.20475 362.484 -9.07856 362.484L-8.4476 362.611L-7.1857 362.737L-2.26427 363.367C1.01668 363.871 4.42383 364.25 7.70478 364.628C10.9857 365.006 14.3929 365.384 17.6738 365.763C31.05 367.149 44.4262 368.41 57.8024 369.293C84.681 371.184 111.56 372.067 138.438 371.814C145.126 371.814 151.941 371.562 158.629 371.436L163.676 371.31C165.443 371.31 166.957 371.184 168.471 370.806C169.986 370.428 171.5 369.797 172.762 369.041C174.15 368.284 175.286 367.276 176.295 366.141C178.314 363.871 179.702 360.971 180.081 357.946C180.207 357.189 180.207 356.433 180.207 355.676C180.207 354.92 180.207 354.037 180.081 353.154L179.955 348.111L179.324 327.938C178.945 314.447 178.693 301.083 178.693 287.592L178.44 267.419L178.314 247.246V237.159V235.899C178.314 235.52 178.314 235.142 178.314 234.764C178.314 234.007 178.188 233.251 177.936 232.494C177.557 230.981 177.052 229.594 176.295 228.334C175.538 227.073 174.529 225.812 173.393 224.803C172.762 224.299 172.257 223.795 171.626 223.416L169.607 222.03C166.957 220.264 163.929 219.004 160.774 218.373C159.133 217.995 157.619 217.869 155.979 217.869L150.931 217.743L140.836 217.365C134.148 217.112 127.333 216.86 120.645 216.608C120.519 216.608 120.393 216.482 120.393 216.356C120.645 216.356 120.771 216.23 120.898 216.23Z"
      fill="#020202" />
    <path
      d="M169.607 241.951L169.733 245.607C169.733 245.733 169.607 245.859 169.481 245.859C169.355 245.859 169.229 245.733 169.229 245.607V241.951C169.355 241.824 169.355 241.824 169.607 241.951C169.481 241.824 169.607 241.824 169.607 241.951Z"
      fill="#020202" />
    <path
      d="M169.859 249.263L169.986 252.92C169.986 253.046 169.859 253.298 169.607 253.298C169.481 253.298 169.229 253.172 169.229 252.92V249.263C169.229 249.137 169.355 249.011 169.481 249.011C169.733 249.011 169.859 249.137 169.859 249.263Z"
      fill="#020202" />
    <path
      d="M169.986 256.576L170.112 260.232C170.112 260.485 169.986 260.737 169.733 260.737C169.481 260.737 169.229 260.611 169.229 260.358V256.702C169.229 256.45 169.355 256.324 169.607 256.324C169.859 256.198 169.986 256.324 169.986 256.576Z"
      fill="#020202" />
    <path
      d="M170.238 263.889L170.364 267.545C170.364 267.797 170.112 268.176 169.859 268.176C169.607 268.176 169.229 267.923 169.229 267.671V264.015C169.229 263.763 169.481 263.511 169.733 263.511C169.986 263.385 170.238 263.637 170.238 263.889Z"
      fill="#020202" />
    <path
      d="M170.491 271.201L170.617 274.858C170.617 275.236 170.364 275.488 169.986 275.488C169.607 275.488 169.355 275.236 169.355 274.858V271.201C169.355 270.823 169.607 270.571 169.986 270.571C170.112 270.571 170.491 270.823 170.491 271.201Z"
      fill="#020202" />
    <path
      d="M170.617 278.514L170.743 282.171C170.743 282.549 170.49 282.927 169.986 282.927C169.481 282.927 169.229 282.675 169.229 282.171V278.514C169.229 278.136 169.481 277.884 169.859 277.884C170.364 277.884 170.617 278.136 170.617 278.514Z"
      fill="#020202" />
    <path
      d="M170.743 285.827L170.869 289.483C170.869 289.861 170.49 290.24 170.112 290.24C169.733 290.24 169.355 289.861 169.355 289.483V285.827C169.355 285.449 169.733 285.07 170.112 285.07C170.49 285.07 170.743 285.449 170.743 285.827Z"
      fill="#020202" />
    <path
      d="M170.995 293.14L171.121 296.796C171.121 297.3 170.743 297.679 170.238 297.679C169.733 297.679 169.355 297.3 169.355 296.796V293.14C169.355 292.635 169.733 292.257 170.238 292.257C170.617 292.383 170.995 292.761 170.995 293.14Z"
      fill="#020202" />
    <path
      d="M171.121 300.452L171.248 304.109C171.248 304.613 170.869 304.991 170.364 304.991C169.86 304.991 169.481 304.613 169.481 304.109V300.452C169.481 299.948 169.86 299.57 170.364 299.57C170.743 299.57 171.121 299.948 171.121 300.452Z"
      fill="#020202" />
    <path
      d="M171.248 307.765L171.374 311.422C171.374 311.926 170.995 312.43 170.49 312.43C169.986 312.43 169.481 312.052 169.481 311.548V307.891C169.481 307.387 169.86 307.009 170.364 306.883C170.869 306.883 171.248 307.261 171.248 307.765Z"
      fill="#020202" />
    <path
      d="M171.374 315.078L171.5 318.734C171.5 319.238 171.121 319.743 170.49 319.743C169.986 319.743 169.481 319.365 169.481 318.734V315.078C169.481 314.573 169.86 314.069 170.49 314.069C170.995 314.195 171.374 314.573 171.374 315.078Z"
      fill="#020202" />
    <path
      d="M171.5 322.39L171.626 326.047C171.626 326.551 171.248 327.056 170.617 327.056C169.986 327.056 169.607 326.677 169.607 326.047V322.39C169.607 321.886 169.986 321.382 170.617 321.382C171.121 321.382 171.5 321.886 171.5 322.39Z"
      fill="#020202" />
    <path
      d="M171.626 329.703L171.752 333.36C171.752 333.99 171.248 334.368 170.743 334.368C170.112 334.368 169.733 333.864 169.733 333.36V329.703C169.733 329.073 170.238 328.695 170.743 328.695C171.248 328.695 171.626 329.199 171.626 329.703Z"
      fill="#020202" />
    <path
      d="M171.752 337.016L171.879 340.672C171.879 341.303 171.374 341.807 170.869 341.807C170.238 341.807 169.733 341.303 169.733 340.798V337.142C169.733 336.512 170.238 336.133 170.743 336.133C171.374 336.007 171.752 336.512 171.752 337.016Z"
      fill="#020202" />
    <path
      d="M171.879 344.329V347.985C171.879 348.616 171.374 349.12 170.743 349.12C170.112 349.12 169.607 348.616 169.607 347.985V344.329C169.607 343.698 170.112 343.194 170.743 343.194C171.374 343.32 171.879 343.824 171.879 344.329Z"
      fill="#020202" />
    <path
      d="M171.5 352.02C171.121 353.281 170.617 354.541 169.986 355.676C169.733 356.181 169.102 356.433 168.471 356.054C167.967 355.802 167.714 355.172 168.093 354.668C168.598 353.659 169.102 352.65 169.355 351.516C169.481 350.885 170.112 350.633 170.617 350.759C171.248 350.759 171.626 351.389 171.5 352.02Z"
      fill="#020202" />
    <path
      d="M167.714 358.702C166.831 359.711 165.821 360.467 164.686 361.224C164.181 361.476 163.55 361.35 163.298 360.972C163.045 360.467 163.171 359.837 163.55 359.585C164.56 358.954 165.317 358.198 166.2 357.441C166.579 357.063 167.21 356.937 167.714 357.441C168.093 357.693 168.093 358.324 167.714 358.702Z"
      fill="#020202" />
    <path
      d="M161.152 362.989C159.89 363.367 158.629 363.619 157.367 363.745C156.862 363.745 156.357 363.367 156.231 362.863C156.231 362.358 156.61 361.854 157.114 361.728C158.25 361.602 159.386 361.35 160.395 360.972C160.9 360.846 161.531 361.098 161.657 361.602C162.036 362.232 161.657 362.737 161.152 362.989Z"
      fill="#020202" />
    <path
      d="M153.581 363.871H149.921C149.417 363.871 148.912 363.493 148.912 362.863C148.912 362.358 149.29 361.854 149.795 361.854L153.455 361.728C153.96 361.728 154.464 362.106 154.464 362.737C154.591 363.367 154.212 363.871 153.581 363.871Z"
      fill="#020202" />
    <path
      d="M146.262 363.871H142.602C142.098 363.871 141.719 363.493 141.719 362.989C141.719 362.485 142.098 362.106 142.602 362.106L146.262 361.98C146.767 361.98 147.145 362.358 147.271 362.863C147.271 363.493 146.767 363.871 146.262 363.871Z"
      fill="#020202" />
    <path
      d="M138.943 363.871H135.283C134.779 363.871 134.526 363.493 134.526 363.115C134.526 362.611 134.905 362.358 135.283 362.358H138.943C139.448 362.358 139.826 362.737 139.826 363.241C139.826 363.745 139.448 363.871 138.943 363.871Z"
      fill="#020202" />
    <path
      d="M131.624 363.871H127.964C127.586 363.871 127.207 363.493 127.207 363.115C127.207 362.737 127.586 362.358 127.964 362.358H131.624C132.002 362.358 132.381 362.737 132.381 363.115C132.381 363.493 132.129 363.871 131.624 363.871Z"
      fill="#020202" />
    <path
      d="M124.305 363.745H120.645C120.267 363.745 120.014 363.493 120.014 363.115C120.014 362.737 120.267 362.484 120.645 362.484H124.305C124.683 362.484 125.062 362.737 125.062 363.115C125.062 363.493 124.683 363.745 124.305 363.745Z"
      fill="#020202" />
    <path
      d="M116.986 363.619L113.326 363.493C112.948 363.493 112.695 363.241 112.821 362.863C112.821 362.611 113.074 362.358 113.452 362.358H117.112C117.49 362.358 117.743 362.611 117.743 362.989C117.617 363.367 117.364 363.619 116.986 363.619Z"
      fill="#020202" />
    <path
      d="M109.667 363.493L106.007 363.367C105.755 363.367 105.502 363.115 105.502 362.863C105.502 362.611 105.755 362.358 106.007 362.358H109.667C109.919 362.358 110.171 362.611 110.171 362.863C110.171 363.241 109.919 363.493 109.667 363.493Z"
      fill="#020202" />
    <path
      d="M102.348 363.241L98.6881 363.115C98.4357 363.115 98.1833 362.863 98.1833 362.611C98.1833 362.358 98.4357 362.106 98.6881 362.106H102.348C102.6 362.106 102.852 362.358 102.852 362.611C102.852 362.863 102.6 363.367 102.348 363.241Z"
      fill="#020202" />
    <path
      d="M95.0286 363.115L91.3691 362.989C91.1167 362.989 90.9905 362.737 90.9905 362.611C90.9905 362.359 91.2429 362.232 91.3691 362.232L95.0286 362.359C95.281 362.359 95.4072 362.611 95.4072 362.863C95.5333 362.863 95.281 363.115 95.0286 363.115Z"
      fill="#020202" />
    <path
      d="M87.7095 362.863L84.05 362.737C83.7976 362.737 83.6714 362.485 83.6714 362.358C83.6714 362.106 83.9238 361.98 84.05 361.98L87.7095 362.106C87.9619 362.106 88.0881 362.358 88.0881 362.485C88.0881 362.737 87.9619 362.863 87.7095 362.863Z"
      fill="#020202" />
    <path
      d="M80.3905 362.611L76.731 362.485C76.4786 362.485 76.3524 362.358 76.3524 362.106C76.3524 361.854 76.4786 361.728 76.731 361.728L80.3905 361.854C80.6429 361.854 80.7691 361.98 80.7691 362.232C80.7691 362.485 80.6429 362.611 80.3905 362.611Z"
      fill="#020202" />
    <path
      d="M73.0714 362.232L69.4119 362.106C69.1595 362.106 69.0333 361.854 69.0333 361.728C69.0333 361.476 69.2857 361.35 69.4119 361.35L73.0714 361.476C73.3238 361.476 73.45 361.602 73.45 361.854C73.45 362.106 73.3238 362.358 73.0714 362.232Z"
      fill="#020202" />
    <path
      d="M65.7524 361.98L62.0929 361.854C61.8405 361.854 61.7143 361.602 61.7143 361.476C61.7143 361.224 61.9667 361.098 62.0929 361.098L65.7524 361.35C66.0048 361.35 66.131 361.602 66.131 361.728C66.131 361.854 66.0048 361.98 65.7524 361.98Z"
      fill="#020202" />
    <path
      d="M58.4333 361.602L54.7738 361.35C54.5214 361.35 54.3952 361.098 54.3952 360.846C54.3952 360.593 54.6476 360.467 54.9 360.467L58.5595 360.719C58.8119 360.719 58.9381 360.972 58.9381 361.224C58.8119 361.476 58.6857 361.602 58.4333 361.602Z"
      fill="#020202" />
    <path
      d="M51.1143 361.224L47.4548 360.972C47.2024 360.972 46.95 360.719 46.95 360.467C46.95 360.215 47.2024 359.963 47.4548 359.963L51.1143 360.215C51.3667 360.215 51.4929 360.467 51.4929 360.719C51.6191 360.972 51.3667 361.224 51.1143 361.224Z"
      fill="#020202" />
    <path
      d="M43.7952 360.719L40.1357 360.467C39.8833 360.467 39.6309 360.215 39.6309 359.837C39.6309 359.585 39.8833 359.333 40.2619 359.333L43.9214 359.585C44.1738 359.585 44.4262 359.837 44.4262 360.089C44.3 360.593 44.0476 360.719 43.7952 360.719Z"
      fill="#020202" />
    <path
      d="M36.4762 360.215L32.8167 359.963C32.4381 359.963 32.1857 359.711 32.3119 359.333C32.4381 358.954 32.5643 358.702 32.9429 358.828L36.6024 359.206C36.8548 359.206 37.1072 359.459 37.1072 359.837C37.1072 360.089 36.7286 360.215 36.4762 360.215Z"
      fill="#020202" />
    <path
      d="M29.1572 359.711L25.4977 359.458C25.1191 359.458 24.8667 359.08 24.8667 358.702C24.8667 358.324 25.2453 358.072 25.6238 358.072L29.2834 358.45C29.6619 358.45 29.9143 358.828 29.9143 359.08C29.7881 359.458 29.5357 359.711 29.1572 359.711Z"
      fill="#020202" />
    <path
      d="M21.8381 359.08L18.1786 358.702C17.8 358.702 17.4215 358.324 17.5476 357.945C17.5476 357.567 17.9262 357.189 18.3048 357.315L21.9643 357.693C22.3429 357.693 22.5953 358.072 22.5953 358.45C22.5953 358.828 22.2167 359.08 21.8381 359.08Z"
      fill="#020202" />
    <path
      d="M14.5191 358.324L10.8596 357.946C10.3548 357.946 10.1024 357.441 10.1024 357.063C10.1024 356.685 10.6072 356.307 10.9858 356.307L14.6453 356.811C15.0238 356.811 15.4024 357.189 15.2762 357.694C15.4024 358.072 15.0238 358.45 14.5191 358.324Z"
      fill="#020202" />
    <path
      d="M7.20004 357.567L3.54052 357.189C3.03575 357.189 2.65718 356.685 2.78337 356.18C2.78337 355.676 3.28813 355.298 3.79289 355.424L7.45242 355.928C7.95718 355.928 8.20956 356.433 8.20956 356.937C8.08337 357.315 7.7048 357.693 7.20004 357.567Z"
      fill="#020202" />
    <path
      d="M-0.245226 356.559C-1.50713 356.18 -2.64285 355.424 -3.65237 354.667C-4.03094 354.289 -4.15713 353.785 -3.77856 353.28C-3.39999 352.902 -2.89523 352.776 -2.39046 353.154C-1.50713 353.911 -0.497609 354.415 0.511915 354.793C1.01668 354.92 1.26906 355.55 1.01668 355.928C0.764298 356.432 0.259536 356.685 -0.245226 356.559Z"
      fill="#020202" />
    <path
      d="M57.4239 215.978C54.6477 216.734 51.9977 217.112 49.2215 217.365C46.5715 217.617 43.7953 217.743 41.1453 217.743C38.4953 217.743 35.7191 217.617 33.0691 217.239C30.4191 216.986 27.6429 216.482 24.9929 215.726C27.7691 214.969 30.4191 214.591 33.1953 214.339C35.8453 214.087 38.6215 213.96 41.2715 213.96C43.9215 213.96 46.6977 214.087 49.3477 214.465C52.1239 214.717 54.7739 215.095 57.4239 215.978Z"
      fill="#020202" />
    <path
      d="M161.657 372.067C162.162 375.345 162.288 378.623 162.541 381.775C162.667 385.053 162.793 388.331 162.667 391.483C162.541 394.761 162.162 398.04 162.036 401.192C161.91 402.705 162.541 404.218 163.802 405.226C164.938 406.235 166.579 406.613 167.967 406.361C169.355 406.109 170.617 405.1 171.248 403.965C171.626 403.335 171.752 402.705 171.879 402.074C171.879 401.444 171.879 400.561 171.879 399.805C171.752 396.527 171.752 393.249 171.752 390.096C171.879 383.54 172.131 377.11 172.888 370.554C172.888 370.428 173.014 370.428 173.014 370.428C173.014 370.428 173.141 370.428 173.141 370.554C173.898 377.11 174.15 383.54 174.276 390.096C174.276 393.375 174.15 396.653 174.15 399.805C174.15 400.687 174.15 401.318 174.024 402.452C173.898 403.461 173.519 404.344 172.888 405.1C171.752 406.613 169.986 407.622 168.093 407.748C166.2 407.874 164.433 407.117 163.171 405.983C161.91 404.722 161.152 403.083 161.279 401.318C161.152 398.04 160.774 394.762 160.648 391.609C160.521 388.331 160.521 385.053 160.774 381.901C160.9 378.623 161.152 375.345 161.657 372.193C161.405 371.941 161.531 371.941 161.657 372.067C161.657 371.941 161.657 372.067 161.657 372.067Z"
      fill="#020202" />
    <path
      d="M-6.30237 136.924C-5.54523 135.538 -4.40952 134.403 -3.2738 133.268C-2.13809 132.259 -0.749994 131.377 0.638101 130.494C3.41429 128.855 6.44287 127.973 9.59763 127.216C12.7524 126.46 15.9071 126.334 19.0619 126.208C20.7024 126.334 22.2167 126.334 23.8572 126.46L28.5262 126.964C28.7786 126.964 28.9048 127.09 29.031 127.216C31.5548 129.612 34.0786 132.007 36.6024 134.403L35.7191 134.151C40.1357 133.772 44.3 134.403 48.3381 135.664C52.3762 137.051 56.1619 138.942 59.4429 141.589C60.3262 142.22 61.0833 142.976 61.8405 143.607C62.2191 143.985 62.5976 144.237 62.9762 144.615L63.9857 145.75C64.6167 146.507 65.3738 147.263 66.131 148.02L68.0238 150.541C68.2762 150.92 68.6548 151.424 68.9071 151.802L69.6643 153.189L71.3048 155.837C72.3143 157.728 73.1976 159.619 74.081 161.384C74.8381 163.528 75.8476 165.797 76.9833 167.688C77.6143 168.697 78.2452 169.58 79.1286 170.462C79.8857 171.219 80.7691 171.975 81.7786 172.101C82.031 172.101 82.2833 172.479 82.2833 172.732V172.858C80.8952 176.892 79.2548 180.801 77.3619 184.583C75.469 188.366 73.3238 192.022 70.8 195.552C68.2762 198.957 65.5 202.361 62.3452 205.261C59.0643 208.161 55.4048 210.556 51.3667 212.195C50.8619 212.321 50.3572 212.321 50.1048 211.943C45.8143 208.034 41.65 204.126 37.6119 199.839C33.5738 195.678 29.7881 191.266 26.2548 186.727C24.4881 184.457 22.7214 182.188 21.081 179.792C19.4405 177.397 17.9262 174.875 16.5381 172.353C15.15 169.832 14.0143 167.058 13.131 164.284C12.3738 161.51 11.8691 158.484 12.5 155.585C12.5 155.458 12.6262 155.458 12.6262 155.458L12.7524 155.585C12.5 158.484 13.0048 161.258 14.0143 163.906C15.0238 166.554 16.2857 169.075 17.6738 171.597C20.5762 176.514 24.1095 181.053 27.7691 185.34C31.4286 189.753 35.3405 193.913 39.3786 197.948C43.4167 201.983 47.581 206.017 51.7452 209.8L50.4833 209.547C54.2691 208.034 57.6762 205.891 60.831 203.243C63.9857 200.596 66.6357 197.444 69.1595 194.166C71.6833 190.887 73.8286 187.231 75.8476 183.701C77.8667 180.044 79.7595 176.262 81.2738 172.353L81.6524 173.11C80.2643 172.732 79.2548 171.849 78.4976 170.966C77.6143 170.084 76.9833 169.075 76.3524 167.941C75.0905 165.797 74.2072 163.654 73.45 161.384C72.5667 159.493 71.8095 157.602 70.8 155.837L69.1595 153.189L68.4024 151.928C68.15 151.55 67.7714 151.172 67.5191 150.667L65.6262 148.272C64.9952 147.515 64.2381 146.759 63.481 146.128L62.3452 144.994C61.9667 144.615 61.5881 144.363 61.2095 143.985C60.4524 143.355 59.6952 142.724 58.8119 142.094C55.531 139.824 51.7452 138.059 47.9595 137.051C44.1738 135.916 40.0095 135.538 36.0976 135.79C35.7191 135.79 35.4667 135.664 35.2143 135.538C32.6905 133.142 30.1667 130.62 27.7691 128.225L28.2738 128.477L23.731 127.847C22.2167 127.721 20.7024 127.594 19.0619 127.594C16.0333 127.594 12.8786 127.594 9.85001 128.099C6.82144 128.603 3.79287 129.486 1.01668 130.746C-0.371418 131.503 -1.75952 132.133 -2.89523 133.142C-4.15714 134.025 -5.29285 135.159 -6.17618 136.42C-6.17618 136.42 -6.30237 136.546 -6.30237 136.42C-6.30237 137.051 -6.42857 136.924 -6.30237 136.924Z"
      fill="#020202" />
    <path
      d="M18.5571 143.985C19.3143 142.724 20.1976 141.589 21.3333 140.581C22.469 139.572 23.7309 138.69 24.9928 138.059C26.3809 137.429 27.769 136.924 29.2833 136.672C30.7976 136.42 32.3119 136.672 33.7 137.051C32.1857 137.177 30.7976 137.303 29.4095 137.681C28.0214 138.059 26.7595 138.437 25.4976 139.194C23.1 140.455 20.8286 142.094 18.5571 143.985Z"
      fill="#020202" />
    <path
      d="M53.2596 210.43C57.55 215.852 62.4715 220.769 67.6453 225.182C72.9453 229.595 78.75 233.251 85.1857 235.268C88.3405 236.277 91.7476 236.781 95.0286 236.529C98.3095 236.277 101.59 235.394 104.493 233.755C110.424 230.729 114.967 225.434 118.374 219.634C121.655 213.708 123.421 207.026 123.8 200.091L124.052 179.414V174.245C123.926 172.48 124.179 170.714 124.431 168.949C124.683 167.184 125.062 165.545 125.567 163.78C126.198 162.015 126.955 160.628 127.712 158.989C129.226 155.837 130.867 152.811 132.381 149.785C133.769 146.633 135.283 143.481 135.914 140.329V140.203L139.826 129.612L141.719 124.316C141.845 123.812 141.971 123.56 141.971 123.182C141.971 122.803 141.971 122.551 141.845 122.173C141.719 121.543 141.214 121.164 140.71 120.912C139.826 120.534 138.312 121.795 137.302 123.182C136.167 124.569 135.41 126.208 134.526 127.847C132.886 131.251 130.867 134.655 128.343 137.681C127.081 139.194 125.567 140.581 123.8 141.716C122.917 142.22 121.907 142.724 120.771 142.977C119.636 143.229 118.248 143.103 117.112 142.346C114.84 140.707 114.462 138.059 114.841 135.916C114.967 134.781 115.345 133.773 115.85 132.89L116.229 132.26C116.355 132.134 116.355 131.881 116.481 131.755C116.607 131.377 116.733 130.999 116.86 130.621C117.112 129.864 117.112 128.981 117.112 128.225C117.112 127.847 116.986 127.468 116.986 127.468C116.986 127.468 116.986 127.595 117.112 127.595C117.238 127.595 117.112 127.595 116.986 127.595C116.607 127.721 115.724 128.225 115.093 128.855C114.462 129.486 113.957 130.116 113.452 130.747C111.433 133.646 110.171 137.177 109.414 140.707V140.455L109.793 149.533L110.045 154.072L110.171 156.341C110.171 157.098 110.298 157.854 110.171 158.737C109.793 162.015 108.657 164.915 107.521 167.689C106.386 170.588 104.998 173.236 103.736 176.01C100.833 180.297 97.931 184.71 94.9024 188.996C94.9024 188.996 94.7762 189.122 94.7762 188.996C94.7762 188.996 94.65 188.87 94.7762 188.87C97.4262 184.331 100.076 179.918 102.852 175.379V175.506C104.114 172.732 105.25 169.958 106.386 167.058C107.395 164.284 108.405 161.258 108.657 158.485C108.783 157.854 108.531 156.972 108.531 156.341L108.405 154.072L108.152 149.533L107.521 140.455C107.521 140.329 107.521 140.329 107.521 140.203C107.9 138.185 108.405 136.42 109.036 134.529C109.667 132.638 110.55 130.873 111.686 129.234C112.317 128.351 112.948 127.595 113.705 126.838C114.462 126.082 115.219 125.451 116.607 125.073C116.986 124.947 117.364 124.947 117.995 125.073C118.5 125.199 119.005 125.577 119.257 125.956C119.762 126.712 119.888 127.342 119.888 127.847C120.014 128.981 119.888 130.116 119.636 131.125C119.51 131.629 119.383 132.133 119.131 132.638C119.005 132.89 118.879 133.142 118.752 133.394L118.5 134.025C118.121 134.781 117.869 135.664 117.743 136.42C117.617 137.177 117.617 137.933 117.869 138.69C118.121 139.32 118.5 139.951 118.879 140.329C119.762 140.959 121.402 140.581 122.79 139.698C124.179 138.816 125.567 137.555 126.702 136.168C129.1 133.394 130.993 130.242 132.76 126.964C133.643 125.199 134.526 123.56 135.788 121.921C136.419 121.164 137.176 120.408 138.06 119.651C138.943 119.021 140.331 118.517 141.719 118.895C142.981 119.273 143.991 120.408 144.369 121.543C144.621 122.173 144.621 122.803 144.621 123.434C144.621 124.064 144.369 124.695 144.117 125.073L142.098 130.368C140.71 133.899 139.321 137.429 137.807 140.959V140.833C137.05 144.363 135.41 147.515 133.895 150.667C132.255 153.82 130.614 156.719 128.974 159.745C128.217 161.258 127.333 162.771 126.702 164.284C126.198 165.923 125.819 167.562 125.441 169.201C125.188 170.841 124.936 172.606 125.062 174.245V179.414C125.062 186.349 124.936 193.157 125.188 200.218C125.188 207.152 123.548 214.213 120.393 220.517C118.752 223.669 116.733 226.569 114.336 229.216C111.938 231.864 109.036 234.133 105.881 235.773C102.726 237.412 99.0667 238.294 95.5334 238.546C91.8738 238.799 88.3405 238.168 84.9334 237.159C78.1191 235.016 72.3143 230.855 67.0143 226.19C64.3643 223.921 61.9667 221.399 59.6953 218.752C57.4238 216.104 55.2786 213.456 53.2596 210.556V210.43C53.1334 210.43 53.1334 210.43 53.2596 210.43Z"
      fill="#020202" />
    <path
      d="M80.769 175.884C83.1667 177.649 85.3119 179.666 87.5833 181.684C89.7286 183.701 91.8738 185.844 93.8929 187.988C95.9119 190.131 97.931 192.4 99.6976 194.67C101.59 196.939 103.357 199.335 104.871 201.857C103.862 200.722 102.979 199.587 101.843 198.578C100.833 197.444 99.8238 196.309 98.9405 195.3C96.9214 193.157 94.9024 190.887 92.8833 188.744L80.769 175.884Z"
      fill="#020202" />
    <path
      d="M50.8619 137.681C57.4238 132.764 64.4905 128.603 71.9357 125.073C75.5953 123.308 79.381 121.669 83.2929 120.408C87.2048 119.147 91.2429 118.012 95.281 117.508C99.3191 117.004 103.483 116.625 107.521 116.625C108.531 116.625 109.541 116.625 110.55 116.625H111.307C111.56 116.625 111.938 116.752 112.191 116.752C112.695 117.004 113.2 117.256 113.579 117.76C114.336 118.643 114.462 120.03 113.957 121.038C113.705 121.543 113.326 122.047 112.821 122.299C112.569 122.425 112.317 122.551 112.064 122.677L111.307 122.93C107.395 124.19 103.61 125.577 99.6977 126.712C97.6786 127.342 95.7858 127.847 93.7667 128.351C92.7572 128.603 91.7477 128.855 90.7381 128.981C89.7286 129.108 88.7191 129.36 87.4572 129.234C86.8262 129.234 86.4477 128.729 86.4477 128.099C86.4477 127.595 86.9524 127.09 87.4572 127.09H87.5834L104.998 126.838C105.25 126.838 105.376 126.838 105.629 126.964C106.007 127.216 106.386 127.469 106.638 127.847C106.891 128.225 107.269 128.603 107.395 129.234C107.648 130.494 106.891 131.503 106.386 132.007C105.25 133.016 103.988 133.52 102.852 134.025C101.717 134.529 100.455 134.781 99.3191 135.159C98.1834 135.538 96.9215 135.664 95.7858 136.042L96.4167 135.664C95.0286 136.925 93.6405 138.059 92 139.068C90.4858 140.077 88.8453 140.959 87.0786 141.716C85.3119 142.472 83.4191 142.977 81.5262 142.977C79.5072 142.977 77.6143 142.22 76.1 141.085H76.9834C75.0905 142.22 73.1977 143.481 71.1786 144.616C69.2857 145.75 67.3929 146.885 65.3738 148.02H65.2477V147.894C67.0143 146.507 68.9072 145.246 70.6738 143.859C72.4405 142.472 74.3334 141.211 76.1 139.951C76.3524 139.824 76.6048 139.824 76.8572 139.951C78.2453 140.833 79.7596 141.337 81.4 141.211C83.0405 141.211 84.681 140.581 86.1953 139.951C87.7096 139.194 89.2238 138.312 90.6119 137.303C92 136.294 93.3881 135.159 94.5238 134.025C94.65 133.899 94.9024 133.773 95.1548 133.647C96.2905 133.394 97.4262 133.142 98.5619 132.764C99.6977 132.512 100.833 132.134 101.843 131.629C102.852 131.251 103.862 130.747 104.493 130.116C104.871 129.864 104.745 129.738 104.745 129.738C104.745 129.738 104.745 129.612 104.619 129.612C104.493 129.486 104.367 129.36 104.241 129.36L104.871 129.486L87.4572 129.234L87.5834 127.09C88.3405 127.216 89.35 127.09 90.3596 126.964C91.3691 126.838 92.3786 126.712 93.2619 126.46C95.281 126.082 97.1738 125.703 99.1929 125.199C103.105 124.316 107.143 123.182 111.055 122.047L111.812 121.795C112.064 121.669 112.191 121.669 112.443 121.543C112.821 121.291 113.074 121.038 113.326 120.534C113.705 119.778 113.579 118.769 113.074 118.012C112.821 117.634 112.443 117.382 112.064 117.256C111.812 117.13 111.686 117.13 111.433 117.13H110.676C109.667 117.13 108.657 117.13 107.648 117.13C103.61 117.256 99.5715 118.012 95.6596 118.769C91.7477 119.525 87.9619 120.912 84.05 122.299C80.2643 123.686 76.4786 125.199 72.8191 126.838C65.3738 130.116 58.181 133.773 51.1143 137.807H50.9881C50.7357 137.807 50.7358 137.681 50.8619 137.681Z"
      fill="#020202" />
    <path
      d="M124.179 101.874L113.452 118.139C115.471 121.669 110.929 122.677 110.929 122.677L105.755 128.855C105.755 128.855 107.269 131.251 103.105 132.638L109.667 135.538C109.667 135.538 111.938 128.855 115.345 126.964L112.569 126.082L125.188 105.404L142.224 107.169L129.605 131.503L118.374 127.973C118.752 129.864 117.617 133.268 116.859 134.151L116.102 137.177L124.557 139.951C124.557 139.951 130.867 132.134 133.517 127.595C136.167 123.056 138.438 119.525 140.205 120.03L149.669 103.891L124.179 101.874ZM109.667 131.251C107.269 131.251 107.269 127.595 109.667 127.595C112.064 127.595 112.064 131.251 109.667 131.251ZM124.557 136.294C122.16 136.294 122.16 132.638 124.557 132.638C126.955 132.638 126.955 136.294 124.557 136.294Z"
      fill="#020202" />
    <path
      d="M59.4429 132.638C61.7143 134.151 63.7333 136.042 65.7524 137.933C67.6453 139.824 69.5381 141.842 71.1786 144.111C68.9072 142.598 66.8881 140.707 64.8691 138.816C62.9762 136.798 61.0833 134.781 59.4429 132.638Z"
      fill="#020202" />
    <path
      d="M289.11 267.293C283.052 264.267 237.876 178.657 237.876 178.657C230.683 165.419 221.219 158.863 212.26 155.711C199.893 151.55 186.264 153.567 175.412 160.754L124.179 194.544C124.936 210.178 121.15 215.978 121.15 215.978L164.433 217.869C181.09 222.534 180.46 236.025 180.46 236.025L181.848 335.377C209.61 348.868 243.933 335.377 243.933 335.377L238.886 307.513L233.964 280.279C232.324 271.201 230.557 262.123 228.538 253.172C227.655 248.633 226.519 244.22 225.383 239.807C224.248 235.394 222.986 230.981 221.598 226.568C220.083 222.282 218.569 217.869 216.424 213.834C215.414 211.817 214.152 209.8 212.638 208.161C211.881 207.404 210.998 206.648 209.988 206.143C208.979 205.639 207.717 205.513 206.707 206.017C207.717 205.387 208.979 205.387 210.114 205.765C211.25 206.143 212.26 206.9 213.143 207.656C214.91 209.295 216.298 211.187 217.56 213.204C219.957 217.238 221.85 221.525 223.49 225.812C226.771 234.512 229.043 243.589 231.062 252.541C233.081 261.619 234.595 270.697 235.983 279.775C237.371 288.853 238.255 298.057 239.012 307.261C262.105 303.478 289.11 267.293 289.11 267.293ZM187.148 334.62C184.75 334.62 184.75 330.964 187.148 330.964C189.545 330.964 189.545 334.62 187.148 334.62ZM195.981 337.016C193.583 337.016 193.583 333.36 195.981 333.36C198.379 333.36 198.379 337.016 195.981 337.016ZM235.605 330.964C238.002 330.964 238.002 334.62 235.605 334.62C233.207 334.62 233.207 330.964 235.605 330.964ZM225.888 333.864C228.286 333.864 228.286 337.52 225.888 337.52C223.49 337.52 223.49 333.864 225.888 333.864ZM216.55 335.125C218.948 335.125 218.948 338.781 216.55 338.781C214.152 338.781 214.152 335.125 216.55 335.125ZM206.202 338.403C203.805 338.403 203.805 334.746 206.202 334.746C208.6 334.746 208.6 338.403 206.202 338.403ZM284.819 263.889C287.217 263.889 287.217 267.545 284.819 267.545C282.421 267.545 282.421 263.889 284.819 263.889ZM278.383 271.201C280.781 271.201 280.781 274.858 278.383 274.858C275.986 274.858 275.986 271.201 278.383 271.201ZM241.157 304.487C238.76 304.487 238.76 300.831 241.157 300.831C243.555 300.831 243.429 304.487 241.157 304.487ZM248.981 300.957C246.583 300.957 246.583 297.3 248.981 297.3C251.379 297.3 251.379 300.957 248.981 300.957ZM256.931 296.292C254.533 296.292 254.533 292.635 256.931 292.635C259.329 292.635 259.329 296.292 256.931 296.292ZM264.25 289.861C261.852 289.861 261.852 286.205 264.25 286.205C266.648 286.205 266.648 289.861 264.25 289.861ZM271.569 278.262C273.967 278.262 273.967 281.918 271.569 281.918C269.298 281.918 269.298 278.262 271.569 278.262Z"
      fill="#020202" />
    <path
      d="M181.974 358.072C182.352 363.745 182.479 369.419 182.226 375.093C182.1 377.993 181.974 380.766 181.343 383.666C181.217 384.045 181.217 384.423 180.964 384.801L180.712 385.431L180.586 385.684C180.586 385.81 180.586 385.81 180.586 385.81C180.46 386.062 180.586 386.566 180.838 386.944C181.469 387.953 182.479 388.836 183.488 389.592C187.905 392.492 193.836 393.375 198.757 391.736C199.388 391.483 200.019 391.231 200.65 390.979C201.281 390.727 201.912 390.349 202.669 390.096C204.057 389.592 205.445 389.088 206.833 388.71C209.736 387.953 212.638 387.953 215.541 388.079C218.443 388.205 221.345 388.71 223.995 389.592C225.383 389.97 226.771 390.601 228.033 391.231C229.295 391.862 230.557 392.366 231.945 392.744C234.595 393.627 237.371 394.257 240.148 394.761C242.924 395.266 245.7 395.77 248.476 396.022C254.029 396.653 259.707 396.905 265.26 396.274C268.036 396.022 270.812 395.518 273.21 394.509C274.345 394.005 275.481 393.248 275.986 392.24C276.49 391.357 276.617 390.223 276.238 388.962L276.491 389.34C275.986 388.836 275.355 388.205 274.724 387.701C274.093 387.197 273.336 386.692 272.705 386.188C271.317 385.179 269.802 384.297 268.288 383.54C265.133 381.901 261.852 380.64 258.571 379.632C255.164 378.623 251.757 377.74 248.35 377.11C246.583 376.732 244.943 376.48 243.176 376.227C241.41 375.975 239.517 375.597 237.75 375.093C234.217 374.084 230.81 372.571 227.781 370.428C224.752 368.41 221.976 365.763 220.083 362.611C218.064 359.459 216.929 355.928 216.298 352.398C215.793 348.742 215.793 345.211 216.424 341.555C216.424 341.429 216.55 341.429 216.55 341.429L216.676 341.555C216.424 345.085 216.55 348.742 217.433 352.146C218.19 355.55 219.452 358.828 221.471 361.728C223.491 364.502 226.014 366.897 228.917 368.789C231.819 370.68 235.1 371.941 238.381 372.823C240.021 373.202 241.788 373.58 243.429 373.832C245.195 374.084 247.088 374.336 248.855 374.715C250.621 375.093 252.388 375.345 254.155 375.849C255.921 376.227 257.688 376.858 259.455 377.362C262.862 378.497 266.269 379.884 269.55 381.649C272.831 383.414 275.86 385.305 278.51 388.331C278.636 388.457 278.636 388.583 278.636 388.71C279.014 390.222 279.014 392.114 278.131 393.627C277.248 395.14 275.733 396.022 274.345 396.527C271.569 397.661 268.667 398.04 265.764 398.166C259.96 398.418 254.281 397.913 248.729 397.157C243.05 396.401 237.498 395.266 232.071 393.627C230.683 393.248 229.421 392.744 228.033 392.114C226.771 391.483 225.51 391.105 224.121 390.727C221.471 389.97 218.695 389.718 215.919 389.718C213.143 389.718 210.367 389.97 207.717 390.727C206.455 391.105 205.067 391.609 203.931 392.114C203.3 392.366 202.669 392.744 202.038 392.996C201.407 393.375 200.65 393.627 200.019 393.879C197.243 394.888 194.088 395.14 191.186 394.635C188.283 394.131 185.381 393.122 182.983 391.357C181.721 390.475 180.586 389.466 179.702 387.953C179.45 387.575 179.324 387.197 179.198 386.692C179.071 386.188 179.198 385.684 179.324 385.053L179.576 384.675L179.702 384.549L179.829 384.171C179.955 383.918 179.955 383.54 180.081 383.288C180.838 380.766 180.964 377.867 181.343 375.093C181.721 369.419 181.974 363.871 182.226 358.198C181.721 357.946 181.848 357.946 181.974 358.072C181.974 357.946 181.974 357.946 181.974 358.072Z"
      fill="#020202" />
    <path
      d="M253.524 301.587C254.66 303.73 255.795 306 256.805 308.269C257.814 310.539 258.824 312.808 259.581 315.204C260.464 317.599 261.221 319.869 261.726 322.391C262.231 324.786 262.736 327.308 262.61 329.955C262.61 330.586 262.483 331.216 262.357 331.973C262.231 332.351 262.231 332.603 262.105 332.981L261.979 333.486C261.979 333.612 261.979 333.612 261.852 333.738V333.864C261.726 334.494 262.357 335.503 262.988 336.26C264.502 337.899 266.648 339.033 268.793 339.79C270.938 340.546 273.336 340.925 275.607 340.798C277.879 340.672 280.15 340.042 282.295 338.907C284.567 337.773 287.091 337.016 289.488 336.638C292.012 336.133 294.536 336.26 297.06 336.386C299.583 336.512 302.107 337.016 304.505 337.646C305.767 338.025 306.902 338.403 308.038 338.907C309.174 339.412 310.183 339.916 311.445 340.42C316.114 342.059 320.91 342.942 325.831 343.572C330.752 344.203 335.674 344.329 340.469 343.951C342.867 343.698 345.264 343.446 347.662 342.816C348.798 342.438 349.933 342.059 350.943 341.555C351.952 341.051 352.836 340.42 353.593 339.538C354.35 338.781 354.729 337.773 354.729 336.764C354.855 335.755 354.729 334.62 354.224 333.612C353.845 332.603 353.088 331.721 352.331 330.838C351.574 329.955 350.691 329.073 349.807 328.316C346.148 325.164 341.983 322.769 337.441 321.004C335.169 320.121 332.898 319.365 330.5 318.734C328.102 318.104 325.705 317.473 323.307 316.717C318.512 315.078 313.969 313.187 309.552 310.665C305.136 308.269 301.098 305.37 297.186 302.218C293.274 299.065 289.741 295.535 286.586 291.753C283.431 287.844 280.781 283.557 279.267 278.892C279.267 278.766 279.267 278.766 279.393 278.766C279.393 278.766 279.519 278.766 279.519 278.892C281.538 283.431 284.314 287.466 287.595 291.122C290.876 294.779 294.536 297.931 298.448 300.957C306.145 307.009 314.852 311.548 324.191 314.447C326.462 315.204 328.86 315.834 331.257 316.465C333.655 317.095 336.052 317.978 338.45 318.86C343.119 320.752 347.536 323.399 351.321 326.803C352.331 327.686 353.214 328.569 353.971 329.577C354.855 330.46 355.612 331.721 356.117 332.981C356.621 334.242 356.874 335.755 356.621 337.142C356.621 337.899 356.369 338.529 356.117 339.286C355.738 339.916 355.36 340.546 354.855 341.051C353.845 342.059 352.71 342.816 351.574 343.32C350.438 343.951 349.176 344.203 347.914 344.581C345.391 345.085 342.867 345.337 340.469 345.464C335.421 345.716 330.5 345.211 325.579 344.581C320.657 343.824 315.862 342.942 311.067 341.429C309.931 341.051 308.669 340.546 307.66 340.042C306.524 339.538 305.388 339.159 304.252 338.907C301.855 338.277 299.457 338.025 297.06 338.025C294.662 338.025 292.138 338.151 289.867 338.655C287.595 339.159 285.324 340.042 283.179 341.177C281.033 342.438 278.383 343.194 275.733 343.446C273.083 343.698 270.433 343.32 268.036 342.311C265.638 341.429 263.24 340.042 261.474 338.025C260.969 337.52 260.591 336.89 260.338 336.26C260.086 335.629 259.707 334.747 259.96 333.864L260.086 333.486L260.212 333.234L260.338 332.855C260.464 332.603 260.464 332.351 260.591 332.099C260.717 331.595 260.717 330.964 260.843 330.46C260.969 325.795 259.833 320.878 258.445 316.213C257.057 311.548 255.291 306.883 253.398 302.344V302.218C253.398 301.461 253.524 301.461 253.524 301.587Z"
      fill="#020202" />
    <path
      d="M56.1619 88.257C58.5595 88.257 58.5595 84.6006 56.1619 84.6006C53.7643 84.6006 53.7643 88.257 56.1619 88.257Z"
      fill="#020202" />
    <path
      d="M27.0119 90.5265C29.4095 90.5265 29.4095 86.8701 27.0119 86.8701C24.7405 86.8701 24.7405 90.5265 27.0119 90.5265Z"
      fill="#020202" />
    <path
      d="M50.8619 101.37C51.7453 102.378 52.3762 103.387 53.2596 104.143C53.6381 104.522 54.1429 104.9 54.5215 105.278C55.0262 105.656 55.531 105.909 56.0357 106.413C55.4048 106.539 54.6477 106.413 54.0167 106.161C53.3857 105.909 52.7548 105.53 52.3762 105.026C51.8715 104.522 51.4929 104.017 51.2405 103.387C50.9881 102.757 50.8619 102.126 50.8619 101.37Z"
      fill="#020202" />
    <path
      d="M59.4429 80.818C58.6857 81.0702 58.0548 80.818 57.55 80.692C57.0453 80.4398 56.5405 80.0615 56.1619 79.4311C56.9191 79.179 57.55 79.4311 58.0548 79.5572C58.5595 79.6833 59.0643 80.0615 59.4429 80.818Z"
      fill="#020202" />
    <path
      d="M25.119 92.418C25.8762 92.5441 26.3809 92.544 27.0119 92.544C27.6428 92.544 28.1476 92.418 28.9047 92.418C28.7785 92.7962 28.4 93.0484 28.1476 93.1745C27.769 93.4266 27.3905 93.4266 27.0119 93.4266C26.2547 93.4266 25.4976 93.0484 25.119 92.418Z"
      fill="#020202" />
    <path d="M139.195 58.1235H106.764V78.0444H118.626L123.043 82.4573L127.333 78.0444H139.195V58.1235Z" stroke="black"
      stroke-width="0.9678" stroke-miterlimit="10" />
    <path d="M171.5 27.3599H139.195V47.4068H150.931L155.348 51.6936L159.764 47.4068H171.5V27.3599Z" stroke="black"
      stroke-width="0.9678" stroke-miterlimit="10" />
    <path d="M135.409 0.630371H102.979V20.5513H114.84L119.257 24.9641L123.548 20.5513H135.409V0.630371Z" stroke="black"
      stroke-width="0.9678" stroke-miterlimit="10" />
  </g>
  <defs>
    <clipPath id="clip0_264:15">
      <rect width="424" height="408" fill="white" transform="translate(-67)" />
    </clipPath>
  </defs>
</svg>
