<svg width="146" height="161" viewBox="0 0 146 161" fill="none" xmlns="http://www.w3.org/2000/svg">
<path d="M47.3263 146.804L45.4968 160.184H113.633L109.595 139.356L47.3263 146.804Z" fill="#231F20"/>
<path d="M113.633 160.5H45.5599C45.3706 160.5 45.2444 160.374 45.2444 160.185C45.2444 160.185 45.2444 160.185 45.2444 160.122L47.074 146.741C47.074 146.615 47.2002 146.488 47.3264 146.488L109.595 138.978C109.784 138.978 109.911 139.041 109.974 139.23L114.011 160.058C114.011 160.122 114.011 160.248 113.948 160.311C113.822 160.5 113.759 160.5 113.633 160.5ZM45.8753 159.869H113.254L109.343 139.672L47.6418 147.12L45.8753 159.869Z" fill="#231F20"/>
<path d="M78.3661 25.9359C78.3661 25.9359 73.6975 20.8866 68.4611 19.9398C63.2247 18.9931 46.38 25.0523 44.7397 31.6795C43.0994 38.3067 45.8753 47.8373 45.8753 47.8373C45.8753 47.8373 70.543 24.7998 78.3661 25.9359Z" fill="#E8521F"/>
<path d="M45.8753 48.153H45.8122C45.6861 48.153 45.623 48.0268 45.5599 47.9006C45.4337 47.5219 42.784 38.2438 44.4243 31.5534C46.1277 24.7369 63.0986 18.5515 68.5242 19.5613C73.7606 20.5712 78.4292 25.4943 78.6185 25.6836C78.6816 25.8098 78.7446 25.9361 78.6816 26.0623C78.6185 26.1885 78.4923 26.2517 78.3661 26.2517C70.7324 25.1156 46.317 47.8375 46.0646 48.0899C46.0015 48.0899 45.9384 48.153 45.8753 48.153ZM67.1994 20.1294C61.0798 20.1294 46.5693 25.8098 45.1183 31.7428C43.6672 37.3601 45.4968 45.1866 46.0646 47.2063C49.2821 44.3029 69.4706 25.9361 77.609 25.5574C76.2211 24.2319 72.4988 20.9499 68.4612 20.1925C68.0195 20.1294 67.5779 20.1294 67.1994 20.1294Z" fill="#231F20"/>
<path d="M70.0913 48.6056C83.3291 42.2038 92.0936 32.9435 89.6674 27.9223C87.2412 22.901 74.5431 24.0202 61.3053 30.4221C48.0675 36.8239 39.3029 46.0842 41.7291 51.1055C44.1553 56.1267 56.8535 55.0075 70.0913 48.6056Z" fill="white"/>
<path d="M49.5345 54.5277C45.3076 54.5277 42.4686 53.3916 41.4591 51.1825C40.1974 48.5947 41.6484 44.9971 45.4337 41.0208C49.2191 37.0444 54.7709 33.1943 61.206 30.1016C67.641 27.0089 74.1392 24.9892 79.5648 24.5474C85.0536 24.0425 88.7758 25.1786 90.0376 27.7663C91.2994 30.3541 89.8483 33.9517 86.063 37.9281C82.2776 41.9675 76.7258 45.7545 70.2908 48.8472C63.8557 51.9399 57.3575 53.9596 51.9319 54.4014C51.1117 54.4646 50.2916 54.5277 49.5345 54.5277ZM81.8991 25.0523C81.142 25.0523 80.385 25.1154 79.5648 25.1786C74.2654 25.6204 67.8303 27.577 61.4583 30.6697C55.0863 33.7624 49.5976 37.6125 45.8754 41.4626C42.2162 45.3127 40.8913 48.6579 42.0269 50.93C43.1625 53.2653 46.6324 54.2752 51.8057 53.7703C57.1052 53.3285 63.5402 51.3719 69.9122 48.2792C76.2842 45.1864 81.7729 41.3363 85.4952 37.4863C89.1543 33.573 90.4792 30.3541 89.3436 28.0188C88.4604 26.0622 85.8106 25.0523 81.8991 25.0523Z" fill="#231F20"/>
<path d="M56.8527 68.5396L16.9175 73.147L7.26489 98.6461L58.8716 100.413L56.8527 68.5396Z" fill="black"/>
<path d="M97.8606 67.9717L137.922 86.0861L141.14 113.794L93.886 98.6462L97.8606 67.9717Z" fill="black"/>
<path d="M68.9658 69.3597C65.4328 69.6753 52.5627 70.8745 49.2821 72.3893C38.0523 77.4386 46.9478 149.454 45.4337 149.707C45.8122 149.644 112.434 143.332 112.434 143.332C109.847 118.022 114.831 99.4031 100.636 70.8745C96.5987 62.7325 77.8614 68.4761 68.9658 69.3597Z" fill="black"/>
<path d="M66.947 73.652C66.947 73.652 69.029 91.3246 78.5554 89.0524C88.0818 86.7802 83.5394 70.938 83.5394 70.938L66.947 73.652Z" fill="#231F20"/>
<path d="M76.915 89.5569C75.5902 89.5569 74.2653 89.1151 73.1928 88.3577C67.9564 84.7601 66.6315 74.1565 66.6315 73.7147C66.6315 73.5254 66.7577 73.3991 66.8839 73.336L83.4763 70.5589C83.6655 70.4958 83.7917 70.622 83.8548 70.8114C83.981 71.1901 86.5676 80.4051 83.4132 85.8331C82.4038 87.6003 80.7004 88.8627 78.6815 89.3045C78.0506 89.4938 77.4828 89.5569 76.915 89.5569ZM67.3255 73.9041C67.5779 75.6713 69.092 84.697 73.5713 87.7897C75.0224 88.7995 76.7888 89.1151 78.4922 88.6733C80.3218 88.2946 81.899 87.0954 82.8454 85.4544C85.5582 80.7838 83.7286 72.768 83.3501 71.1901L67.3255 73.9041Z" fill="#231F20"/>
<path d="M104.863 100.539C104.737 100.539 104.611 100.476 104.548 100.287L97.7344 75.6085C97.6713 75.4191 97.7975 75.2298 97.9867 75.2298C98.176 75.1667 98.3653 75.2929 98.3653 75.4823L105.179 100.161C105.242 100.35 105.116 100.476 104.99 100.539C104.927 100.539 104.863 100.539 104.863 100.539Z" fill="#231F20"/>
<path d="M49.156 106.473C49.0298 106.473 48.8405 106.346 48.8405 106.22L45.2444 82.867C45.2444 82.6776 45.3075 82.5514 45.4968 82.4883C45.6861 82.4883 45.8122 82.5514 45.8753 82.7408L49.4714 106.094C49.4714 106.283 49.3452 106.473 49.156 106.473C49.219 106.473 49.219 106.473 49.156 106.473Z" fill="#231F20"/>
<path d="M95.2739 53.2021C94.3907 50.8037 92.2456 49.0996 90.4161 47.3323C86.2522 43.2297 84.4226 38.0542 81.3944 33.2573C80.448 31.7426 79.2493 30.354 77.8614 29.1548C73.8237 29.9753 68.8397 31.1114 64.9282 32.8786C52.6889 38.3067 49.2821 44.7445 49.1559 44.8708C49.6607 51.4349 51.5533 62.1015 53.6353 68.35C54.5816 71.3165 55.7803 75.2929 59.1871 76.4289C60.1334 76.7445 58.8085 75.7347 59.7549 75.4822C63.0986 74.5355 66.6316 73.7149 69.786 72.137C72.6881 70.6854 74.8962 68.35 77.7352 66.8353C79.6279 65.8254 81.5836 65.6992 83.6025 65.5729C83.981 65.5729 84.4226 65.5098 84.8012 65.4467C87.8925 65.1311 90.9839 63.995 93.1289 61.7859C95.337 59.5769 96.3464 56.1055 95.2739 53.2021Z" fill="white"/>
<path d="M59.4394 76.6817C59.3133 76.6817 59.1871 76.6186 59.0609 76.6186C55.6541 75.5456 54.3923 71.7586 53.446 68.729L53.3198 68.3503C51.1748 61.7231 49.3452 50.9933 48.8405 44.7448C48.8405 44.6186 48.8405 44.5555 48.9667 44.4923C49.9761 42.8513 54.0769 37.234 64.802 32.5002C68.8397 30.733 74.1392 29.5338 77.7983 28.7764C77.9245 28.7764 77.9876 28.7764 78.0507 28.8395C79.4386 30.0387 80.6373 31.4273 81.6467 33.0052C82.6562 34.5831 83.4763 36.2241 84.3596 37.802C86.126 41.1472 87.8294 44.3661 90.6054 47.0801C90.9208 47.3957 91.2993 47.7113 91.6148 48.09C93.192 49.5417 94.8323 51.0564 95.5263 53.1393C96.5988 55.9795 95.7155 59.5772 93.3182 62.0387C90.7315 64.6265 87.2616 65.5101 84.7381 65.7626C84.2965 65.8257 83.9179 65.8257 83.4763 65.8888H83.1609C81.2682 66.015 79.5017 66.1413 77.7352 67.088C76.4734 67.8454 75.2117 68.6659 74.0761 69.5495C72.7512 70.6225 71.3002 71.5693 69.786 72.3267C67.0732 73.5259 64.2342 74.5357 61.3321 75.23L59.7549 75.6718C59.6918 75.6718 59.6287 75.6718 59.6287 75.7349C59.6287 75.798 59.6918 75.9243 59.6918 75.9874C59.818 76.1768 59.818 76.4292 59.6918 76.5555C59.6918 76.6817 59.5656 76.6817 59.4394 76.6817ZM49.4714 44.871C49.9761 51.0564 51.7426 61.66 53.8876 68.161L54.0138 68.5397C54.9601 71.3799 56.0957 74.9144 59.0609 75.9874C58.9978 75.7981 58.9978 75.6087 59.124 75.4825C59.2502 75.2931 59.4394 75.1038 59.6918 75.1038L61.269 74.662C64.108 73.9677 66.947 73.0209 69.5968 71.8217C71.0478 71.0643 72.4988 70.1176 73.7606 69.1077C74.9593 68.161 76.2211 67.2773 77.4829 66.52C79.3124 65.5101 81.2051 65.3839 83.1609 65.2576H83.4763C83.8548 65.2576 84.2965 65.1945 84.675 65.1314C87.0724 64.8789 90.4161 64.0584 92.8135 61.5969C95.0847 59.3247 95.9048 56.0426 94.8954 53.3918C94.2014 51.4983 92.6242 50.0466 91.1101 48.5949C90.7315 48.2793 90.4161 47.9637 90.1006 47.585C87.2616 44.8079 85.4321 41.3996 83.7287 38.1176C82.9085 36.5397 82.0253 34.8987 81.0789 33.3839C80.1326 31.9322 78.997 30.6067 77.7352 29.4706C74.1392 30.228 68.9659 31.3641 65.0544 33.1314C54.5185 37.7389 50.4808 43.2931 49.4714 44.871Z" fill="#231F20"/>
<path d="M79.3124 36.9814C79.3124 36.9814 84.675 44.2398 85.0535 50.8039C85.369 54.5278 83.4763 58.1254 80.1957 59.9558L83.4763 70.8749C83.4763 70.8749 85.1797 76.4292 78.1137 77.6284C73.9499 78.3227 69.6598 76.8079 66.8839 73.589L60.1334 53.7704C60.1334 53.7704 66.5685 46.9538 63.7295 39.9479C63.7295 40.011 74.2653 41.7152 79.3124 36.9814Z" fill="white"/>
<path d="M76.0949 78.1333C72.4988 78.0702 69.092 76.4923 66.6946 73.8414C66.6946 73.8414 66.6315 73.7783 66.6315 73.7152L59.8179 53.8967C59.7549 53.7704 59.8179 53.6442 59.881 53.5811C59.9441 53.518 66.1268 46.8276 63.414 40.1373C63.3509 40.0111 63.414 39.8848 63.4771 39.8217C63.5402 39.7586 63.6664 39.6955 63.7925 39.6955C63.9187 39.6955 74.2653 41.3365 79.1231 36.7921C79.1862 36.729 79.3124 36.729 79.3755 36.729C79.4386 36.729 79.5648 36.7921 79.6278 36.8552C79.8802 37.1708 85.0535 44.2399 85.4951 50.8671C85.8106 54.6541 83.981 58.2517 80.7004 60.1452L83.9179 70.8118C84.2964 72.2635 84.1072 73.7783 83.3501 75.1038C82.4038 76.6186 80.7004 77.5653 78.2399 78.0071C77.4828 78.0702 76.7888 78.1333 76.0949 78.1333ZM67.1993 73.4627C69.9122 76.4923 74.0129 77.944 78.1137 77.3128C80.3849 76.9341 81.9621 76.0505 82.7192 74.7251C83.3501 73.589 83.5393 72.2004 83.2239 70.9381L79.9433 60.0189C79.8802 59.8927 79.9433 59.7034 80.1326 59.6402C83.287 57.873 85.1166 54.4016 84.8011 50.804C84.4226 45.1235 80.2587 38.8118 79.3124 37.4233C74.77 41.3365 66.4423 40.6422 64.2342 40.3266C66.4423 46.7014 61.3952 52.8237 60.5119 53.7704L67.1993 73.4627Z" fill="#231F20"/>
<path d="M63.4771 51.2456C63.4771 51.2456 57.7991 44.6815 55.4649 50.6145C53.1306 56.5474 60.1965 60.145 63.4771 58.6302" fill="white"/>
<path d="M61.7737 59.2612C59.818 59.1981 57.9884 58.4407 56.6004 57.1153C54.7709 55.4111 54.2031 52.7602 55.2125 50.488C55.8434 48.9101 56.7266 48.0265 57.9253 47.8372C60.6381 47.3953 63.6664 50.8667 63.7926 51.0561C63.9187 51.1823 63.9187 51.3717 63.7295 51.4979C63.6033 51.6241 63.414 51.6241 63.2879 51.4979C63.2879 51.4348 60.3858 48.1527 57.9884 48.5314C57.0421 48.6577 56.3481 49.4151 55.7803 50.8036C54.834 52.8234 55.3387 55.2218 57.0421 56.7366C58.8086 58.4407 61.6475 59.1981 63.3509 58.4407C63.5402 58.3776 63.7295 58.4407 63.7926 58.6301C63.8557 58.7563 63.7926 58.9456 63.6664 59.0719C63.0355 59.1981 62.4046 59.3243 61.7737 59.2612Z" fill="#231F20"/>
<path d="M74.8962 51.9397C74.7069 51.9397 74.5807 51.8135 74.5807 51.6241C74.5807 51.4348 74.7069 51.3085 74.8962 51.3085C74.8962 51.3085 77.2305 51.2454 78.1768 50.3618V50.2987C78.1137 49.415 75.2116 46.9535 73.3189 45.565C73.1928 45.4387 73.1297 45.2494 73.2559 45.1231C73.382 44.9969 73.5713 44.9338 73.6975 45.06C74.5176 45.6912 78.6815 48.7839 78.8077 50.2356C78.8077 50.4249 78.7446 50.6774 78.6184 50.8036C77.4828 51.8766 75.0223 51.9397 74.8962 51.9397Z" fill="#231F20"/>
<path d="M80.2588 59.9556C80.2588 59.9556 74.6439 62.4171 71.0478 62.6065C71.0478 62.6065 77.2936 70.1173 82.7823 68.35L80.2588 59.9556Z" fill="#231F20"/>
<path d="M81.0789 68.9812C75.9687 68.9812 71.0478 63.1114 70.7955 62.7958C70.7324 62.7327 70.6693 62.5433 70.7324 62.4802C70.7955 62.354 70.9216 62.2909 70.9847 62.2909C74.5177 62.1646 80.0064 59.7031 80.0695 59.7031C80.1326 59.64 80.2588 59.64 80.3219 59.7031C80.385 59.7662 80.4481 59.8293 80.5111 59.8924L83.0978 68.2869C83.1609 68.4763 83.0347 68.6656 82.9085 68.6656C82.3407 68.9181 81.7098 68.9812 81.0789 68.9812ZM71.7418 62.8589C73.1928 64.4368 78.0507 69.2337 82.4669 68.1607L80.1326 60.3974C78.8077 60.9023 74.8331 62.5433 71.7418 62.8589Z" fill="#231F20"/>
<path d="M69.7549 48.3178C70.2139 48.1523 70.3464 47.3535 70.0511 46.5337C69.7557 45.7138 69.1442 45.1833 68.6853 45.3488C68.2263 45.5143 68.0938 46.3131 68.3891 47.1329C68.6845 47.9528 69.296 48.4833 69.7549 48.3178Z" fill="#231F20"/>
<path d="M52.4365 64.3109C54.1399 70.8119 57.4836 82.6778 66.6315 76.4292C68.5242 75.1038 69.8491 73.0841 70.3538 70.8119C71.1739 66.7093 64.2972 63.4273 61.0797 61.9756" fill="white"/>
<path d="M61.8368 78.5117C61.2059 78.5117 60.5119 78.3855 59.9441 78.1961C55.2756 76.4289 53.2567 68.6024 52.1842 64.4368C52.1211 64.2474 52.2473 64.0581 52.4366 64.0581C52.6258 63.9949 52.8151 64.1212 52.8151 64.3105C53.8245 68.0975 55.8434 76.0502 60.1965 77.6281C62.0261 78.3224 64.108 77.8174 66.5054 76.2395C68.335 74.9772 69.5967 73.0206 70.1014 70.8746C70.9216 66.8352 63.414 63.49 61.0166 62.417C60.8274 62.3539 60.7643 62.1646 60.8274 61.9752C60.8905 61.7859 61.0797 61.7228 61.269 61.7859C65.7483 63.8056 71.5525 66.8983 70.7323 71.0009C70.2276 73.3362 68.9028 75.419 66.8839 76.8076C65.3698 77.8174 63.6033 78.4486 61.8368 78.5117Z" fill="#231F20"/>
<path d="M75.2116 58.3143C74.7069 58.3143 74.2653 58.2512 73.7606 58.1881C69.092 57.3045 69.4074 53.6437 69.4074 53.6437C69.4074 53.4544 69.5336 53.3281 69.7229 53.3281H79.8802C79.9433 53.3281 80.0694 53.3912 80.1325 53.4544C80.1956 53.5175 80.1956 53.5806 80.1956 53.7068C80.1325 55.0954 79.5016 56.3577 78.4922 57.2413C77.609 57.9987 76.4103 58.3774 75.2116 58.3143ZM70.1014 53.9593C70.1645 54.7798 70.543 56.9258 73.9498 57.5569C75.4009 57.9356 76.9781 57.62 78.1768 56.7364C78.9969 56.0421 79.5016 55.0323 79.6278 54.0224L70.1014 53.9593Z" fill="#231F20"/>
<path d="M76.2211 45.2495C76.158 45.2495 76.158 45.2495 76.0949 45.2495C75.9056 45.1864 75.8425 44.9971 75.9056 44.8708C76.2211 43.9872 76.8519 43.2298 77.7352 42.788C78.4923 42.4724 79.3124 42.5355 80.0695 42.9142C80.1957 42.9773 80.2587 43.2298 80.1957 43.356C80.1326 43.4823 79.9433 43.5454 79.8171 43.4823C79.2493 43.1667 78.6184 43.1667 77.9875 43.356C77.2936 43.7347 76.7889 44.3659 76.5365 45.0602C76.4734 45.1864 76.3472 45.2495 76.2211 45.2495Z" fill="#231F20"/>
<path d="M14.3309 98.3302C7.07566 102.938 -2.00914 94.1014 1.90237 82.5511C5.81388 71.0008 33.2575 43.2927 33.2575 43.2927C33.2575 43.2927 30.9233 36.7917 33.0052 34.3301C35.0871 31.8686 39.1248 33.1941 39.1248 33.1941C39.1248 33.1941 41.5222 22.6536 43.6041 23.411C45.6861 24.1684 42.2162 34.3301 42.2162 34.3301C42.2162 34.3301 47.8311 23.2217 49.2821 25.3676C50.7332 27.5136 45.1183 35.7818 45.1183 35.7818C45.1183 35.7818 48.5251 35.34 46.4431 40.1369C45.1183 43.1033 42.9101 45.5649 40.1342 47.2059C40.1342 47.2059 21.5861 93.7227 14.3309 98.3302Z" fill="white"/>
<path d="M10.167 99.9082C8.27435 99.9082 6.50786 99.2139 5.05681 98.0147C1.58693 95.3007 -0.810452 89.4308 1.58693 82.3618C5.37226 71.1902 30.5447 45.5018 32.9421 43.1665C32.5636 42.0936 30.8602 36.4762 32.8159 34.0778C34.6455 31.8687 37.863 32.4999 38.8724 32.8155C39.3141 31.0482 40.9544 24.2316 42.8471 23.2218C43.0994 23.0955 43.4149 23.0324 43.7303 23.1587C45.3075 23.7267 44.4243 28.0186 43.541 31.2375C45.1183 28.4604 47.3895 24.7997 48.7774 24.7366C49.0929 24.7366 49.4083 24.8628 49.5345 25.1784C50.8593 27.1981 46.9478 33.5729 45.6861 35.4663C46.1908 35.5295 46.6324 35.7819 46.9478 36.1606C47.5787 36.9811 47.4525 38.3697 46.6324 40.2632C45.3075 43.2928 43.0363 45.7543 40.2604 47.4585C38.7463 51.6873 21.4599 94.1646 14.5201 98.6458C13.1953 99.4663 11.7442 99.9082 10.167 99.9082ZM36.6643 33.1942C35.4026 33.131 34.1408 33.636 33.3206 34.5196C31.428 36.7918 33.573 43.1034 33.6361 43.1665C33.6992 43.2928 33.6361 43.419 33.573 43.4821C33.3206 43.7346 6.12932 71.2533 2.2809 82.6143C0.00970352 89.3677 2.2809 94.922 5.56152 97.5097C8.02199 99.5926 11.555 99.7819 14.2678 98.0147C21.3337 93.5334 39.6926 47.4585 39.8819 47.0166C39.8819 46.9535 39.945 46.8904 40.008 46.8273C42.6578 45.3125 44.8028 42.9141 46.0646 40.0107C46.7586 38.3697 46.8847 37.1705 46.4431 36.5393C46.1277 36.1606 45.623 35.9713 45.1183 36.0344C44.9921 36.0344 44.8659 35.9713 44.8028 35.9082C44.7397 35.7819 44.7397 35.6557 44.8028 35.5926C46.3169 33.3204 50.0392 27.135 48.9667 25.494C48.9036 25.3677 48.7774 25.3677 48.7774 25.3677C47.5156 25.4308 44.235 30.9851 42.5316 34.4565C42.4685 34.5827 42.2793 34.6458 42.1531 34.5827C41.9638 34.5196 41.9007 34.3302 41.9638 34.204C44.2981 27.4506 44.2981 23.9792 43.541 23.7267C43.4149 23.6636 43.2887 23.7267 43.2256 23.7898C41.7745 24.6103 40.008 30.922 39.5033 33.2573C39.5033 33.3204 39.4403 33.4466 39.3141 33.4466C39.251 33.5097 39.1248 33.5097 39.0617 33.4466C38.2416 33.2573 37.4845 33.1942 36.6643 33.1942Z" fill="#231F20"/>
<path d="M11.8704 12.3026L26.8856 143.08L127.008 131.593L111.992 0.81543L11.8704 12.3026ZM113.633 88.8628L30.2293 98.4565L21.3338 20.9496L104.737 11.2927L113.633 88.8628Z" fill="white"/>
<path d="M26.8856 143.395C26.8225 143.395 26.7594 143.395 26.6963 143.332C26.6332 143.269 26.5701 143.206 26.5701 143.143L11.555 12.3659C11.555 12.1765 11.6181 12.0503 11.8073 11.9872L111.992 0.5C112.056 0.5 112.182 0.5 112.245 0.563116C112.308 0.626233 112.371 0.689349 112.371 0.752465L127.386 131.53C127.386 131.719 127.26 131.845 127.134 131.908L26.8856 143.395ZM12.249 12.6183L27.1379 142.764L126.629 131.34L111.74 1.19428L12.249 12.6183ZM30.2293 98.7722C30.04 98.7722 29.9139 98.646 29.9139 98.5197L21.0183 21.0128C21.0183 20.8235 21.1445 20.6972 21.2707 20.6341L104.737 11.0404C104.8 11.0404 104.927 11.0404 104.99 11.1035C105.053 11.1667 105.116 11.2298 105.116 11.356L114.011 88.8629C114.011 89.0523 113.885 89.1785 113.759 89.2416L30.2293 98.7722ZM21.6492 21.2653L30.4817 98.141L113.254 88.6105L104.422 11.6716L21.6492 21.2653Z" fill="#231F20"/>
<path d="M38.9986 104.326C39.0617 104.263 39.0617 104.137 39.1248 104.074C39.4402 103.569 39.8187 103.127 40.3235 102.812C40.702 102.559 41.2067 102.433 41.6483 102.433C42.9732 102.37 44.1719 103.253 44.4873 104.516C44.5504 104.894 44.6135 105.273 44.6135 105.652C44.6135 106.031 44.6135 106.409 44.4873 106.725C44.3611 107.293 44.1088 107.861 43.7303 108.303C43.3517 108.808 42.9732 109.249 42.5947 109.691L40.5127 112.027C40.3235 112.279 40.1342 112.468 39.9449 112.721L39.8818 112.784L39.6926 112.595C38.8724 111.963 37.9892 111.395 37.1059 110.827C36.5381 110.449 35.9703 110.07 35.4656 109.628C35.0871 109.313 34.7085 108.997 34.3931 108.618C34.0777 108.176 33.8253 107.735 33.6991 107.23C33.5729 106.851 33.5099 106.472 33.5099 106.094C33.3837 104.958 34.0146 103.885 35.0871 103.38C36.0965 102.875 37.3583 103.001 38.2415 103.758C38.4939 103.948 38.6831 104.137 38.8093 104.389C38.9355 104.263 38.9986 104.263 38.9986 104.326Z" fill="#E8521F"/>
<path d="M59.1871 110.764C59.124 110.764 59.124 110.764 59.0609 110.764L57.1052 109.881C56.4743 110.196 55.7803 110.386 55.0232 110.512C53.5722 110.701 52.1211 110.386 50.9224 109.565C48.8405 108.24 48.2096 105.526 49.4714 103.443C49.6607 103.127 49.8499 102.875 50.1023 102.622C52.1842 100.476 55.5279 100.098 58.0515 101.676C59.1871 102.433 59.9442 103.632 60.1334 104.958C60.2596 106.031 59.9442 107.167 59.3133 108.05L59.5656 110.449C59.5656 110.575 59.5025 110.701 59.4394 110.764C59.3133 110.764 59.2502 110.764 59.1871 110.764ZM57.0421 109.123C57.1052 109.123 57.1052 109.123 57.1682 109.187L58.8086 109.944L58.5562 108.05C58.5562 107.987 58.5562 107.861 58.6193 107.798C59.2502 107.041 59.5025 106.031 59.3764 105.021C59.2502 103.885 58.5562 102.812 57.6099 102.244C55.3387 100.792 52.3735 101.171 50.4808 103.064C48.9667 104.516 48.9667 106.914 50.4808 108.429C50.6701 108.618 50.9224 108.808 51.1748 108.997C52.2473 109.691 53.5722 110.007 54.834 109.818C55.5279 109.755 56.2219 109.565 56.8528 109.187C56.979 109.187 57.0421 109.123 57.0421 109.123Z" fill="#D1D3D4"/>
<path d="M69.6598 109.06C69.5336 109.06 69.4074 108.934 69.3444 108.808L68.1457 104.895L63.414 103.127C63.2878 103.064 63.2247 102.938 63.2247 102.812C63.2247 102.686 63.2878 102.559 63.414 102.496L73.2559 98.9617C73.382 98.8986 73.5082 98.9617 73.5713 99.0248C73.6344 99.0879 73.6975 99.2773 73.6344 99.3404L69.8491 108.745C69.9122 108.934 69.786 108.997 69.6598 109.06ZM64.5496 102.812L68.5873 104.327C68.6504 104.39 68.7766 104.453 68.7766 104.516L69.7229 107.735L72.8773 99.8453L64.5496 102.812Z" fill="#D1D3D4"/>
<path d="M68.4611 104.958C68.3981 104.958 68.2719 104.895 68.2719 104.895C68.1457 104.768 68.1457 104.579 68.2719 104.453L73.2559 99.0878C73.3821 98.9616 73.5714 98.9616 73.6975 99.0878C73.8237 99.2141 73.8237 99.4034 73.6975 99.5297L68.7135 104.895C68.6504 104.895 68.5242 104.958 68.4611 104.958Z" fill="#D1D3D4"/>
<path d="M35.2764 120.421C35.0871 120.421 34.9609 120.295 34.9609 120.169C34.9609 119.979 35.0871 119.853 35.2133 119.79L116.093 110.512C116.283 110.512 116.409 110.638 116.472 110.827C116.472 111.017 116.346 111.143 116.156 111.206L35.2764 120.421Z" fill="#D1D3D4"/>
<path d="M36.1596 127.806C35.9704 127.806 35.8442 127.68 35.8442 127.553C35.8442 127.364 35.9704 127.238 36.0965 127.175L104.863 119.285C105.053 119.285 105.179 119.411 105.242 119.601C105.242 119.79 105.116 119.916 104.926 119.979L36.1596 127.806Z" fill="#D1D3D4"/>
<path d="M130.351 106.472C123.664 90.3147 120.762 67.8453 120.762 67.8453C120.762 67.8453 109.343 65.51 108.523 58.1254C107.702 50.7408 118.049 53.4548 118.049 53.4548C118.049 51.1826 117.797 48.8473 117.292 46.6382C118.806 46.8906 141.266 76.8078 145.051 101.108C146.691 112.279 137.039 122.63 130.351 106.472Z" fill="white"/>
<path d="M138.301 115.119C135.272 115.119 132.37 112.09 130.036 106.599C123.727 91.4506 120.762 70.496 120.446 68.0975C118.491 67.6557 116.598 66.9615 114.768 66.0147C110.794 63.995 108.523 61.281 108.144 58.1252C107.955 56.2948 108.396 54.8431 109.469 53.8964C111.803 51.8766 116.282 52.6971 117.67 53.0127C117.67 50.8668 117.355 48.7208 116.913 46.7011C116.913 46.5749 116.913 46.5117 116.976 46.3855C117.04 46.3224 117.166 46.2593 117.292 46.2593C118.869 46.5117 141.518 76.3658 145.303 100.981C146.313 107.356 143.663 113.794 139.562 114.93C139.121 115.119 138.742 115.119 138.301 115.119ZM130.667 106.346C133.127 112.279 136.282 115.182 139.373 114.362C143.158 113.289 145.619 107.103 144.672 101.107C141.203 78.5749 121.708 51.6242 117.797 47.4585C118.175 49.4151 118.364 51.4348 118.364 53.4545C118.364 53.6439 118.238 53.7701 118.049 53.7701H117.986C117.923 53.7701 112.371 52.3185 109.974 54.4013C109.027 55.2218 108.712 56.421 108.901 58.062C109.721 65.1942 120.762 67.4664 120.888 67.5295C121.014 67.5295 121.14 67.6557 121.14 67.782C121.077 67.9713 124.042 90.3776 130.667 106.346Z" fill="#231F20"/>
<path d="M37.2321 42.4092C36.9798 42.4092 36.9167 42.2198 36.9167 42.0305C37.0429 41.0206 37.5476 40.137 38.4308 39.5689C38.9986 39.1902 39.6926 39.0009 40.3235 38.9378C39.5033 38.4959 38.7463 37.991 38.0523 37.3599C37.6107 36.9812 37.4214 36.6025 37.6107 36.2238C38.1785 34.9614 43.541 35.3401 45.1182 35.4664C45.3075 35.4664 45.4337 35.6557 45.4337 35.8451C45.4337 36.0344 45.3075 36.1606 45.1182 36.1606C41.5853 35.8451 38.4308 36.0344 38.2416 36.5393C38.2416 36.5393 38.2416 36.6656 38.557 36.918C39.6295 37.9279 40.8913 38.6222 42.2792 39.0009C42.6578 39.064 42.9101 39.1271 42.9732 39.1271C43.1625 39.1902 43.2256 39.3165 43.2256 39.5058C43.2256 39.6952 43.0363 39.7583 42.9101 39.7583C42.6578 39.7583 42.4054 39.6952 42.2162 39.632C41.0806 39.4427 39.8819 39.5689 38.8724 40.137C38.1785 40.5788 37.7368 41.3362 37.6738 42.1567C37.4845 42.2829 37.3583 42.4092 37.2321 42.4092Z" fill="#231F20"/>
<path d="M98.0498 29.281C97.9867 29.281 97.9236 29.281 97.8605 29.2179L97.7344 29.0917C97.1035 28.4605 96.4726 27.8925 95.9048 27.3244L95.8417 27.2613C95.4632 26.8826 95.0846 26.567 94.7061 26.1252C94.3906 25.8096 94.1383 25.494 93.949 25.1153C93.6967 24.6735 93.5705 24.2317 93.5074 23.7899C93.4443 23.4743 93.4443 23.0956 93.5074 22.78C93.5705 21.7071 94.3276 20.7603 95.337 20.4447C96.3464 20.1291 97.482 20.4447 98.176 21.2021C98.2391 21.2652 98.3652 21.3915 98.4283 21.4546C98.7438 21.0759 99.1223 20.8234 99.627 20.6341C100.006 20.4447 100.447 20.4447 100.889 20.4447C102.151 20.571 103.097 21.5177 103.223 22.78C103.286 23.0956 103.286 23.4743 103.223 23.7899C103.16 24.1055 103.097 24.4211 102.971 24.7366C102.781 25.2416 102.466 25.6203 102.087 25.999C101.709 26.3777 101.33 26.6932 100.952 27.0088L98.933 28.6498L98.5545 28.9654L98.3652 29.1548C98.2391 29.281 98.176 29.3441 98.0498 29.281ZM96.1571 20.8865C95.9048 20.8865 95.7155 20.9497 95.4632 21.0128C94.7061 21.2652 94.1383 21.9595 94.0752 22.78C94.0121 23.0956 94.0121 23.3481 94.0752 23.6637C94.1383 24.0424 94.2645 24.4211 94.4537 24.7998C94.643 25.1153 94.8954 25.4309 95.1477 25.6834C95.4632 26.0621 95.9048 26.4408 96.2833 26.7564L96.3464 26.8195C96.9142 27.3875 97.5451 27.9556 98.1129 28.5236L98.4914 28.208L100.51 26.567C100.889 26.2514 101.267 25.9358 101.583 25.6203C101.898 25.3047 102.151 24.926 102.34 24.5473C102.466 24.2948 102.529 24.0424 102.529 23.7268C102.592 23.4112 102.592 23.1587 102.592 22.8431C102.529 22.4013 102.403 22.0226 102.087 21.7071C101.772 21.3284 101.33 21.139 100.826 21.0759C100.51 21.0128 100.132 21.0759 99.8163 21.2021C99.3747 21.3915 99.0592 21.6439 98.7438 22.0226L98.6176 22.1489L98.5545 22.212C98.4914 22.2751 98.3652 22.3382 98.3022 22.3382C98.176 22.3382 98.1129 22.2751 98.0498 22.212L98.3022 22.0226L98.0498 22.212C97.9236 22.0226 97.7974 21.8333 97.6713 21.6439C97.2296 21.139 96.6618 20.8865 96.1571 20.8865ZM98.0498 21.8333L98.3022 22.0226L98.0498 21.8333Z" fill="#D1D3D4"/>
<path d="M94.3907 43.6714C93.949 43.6714 93.6336 43.4821 93.4443 43.1665C93.3182 43.0403 93.3812 42.8509 93.5074 42.7247C93.6336 42.5985 93.8229 42.6616 93.949 42.7878C94.0121 42.914 94.2014 42.9772 94.3276 42.9772H94.3907C94.9585 42.914 95.4632 42.5985 95.8417 42.1566C98.4914 39.0008 99.8794 34.8983 99.627 30.7326C99.627 30.5432 99.7532 30.417 99.9425 30.417C100.132 30.417 100.258 30.5432 100.258 30.7326C100.51 35.0245 99.1223 39.3164 96.3464 42.5985C95.8417 43.2296 95.1477 43.6083 94.3907 43.6714Z" fill="#D1D3D4"/>
</svg>
