<svg width="271" height="111" viewBox="0 0 271 111" fill="none" xmlns="http://www.w3.org/2000/svg">
<path d="M244.687 0.541992C224.046 15.621 203.788 26.8501 178.177 36.6354C158.492 44.1749 135.558 49.4686 115.108 43.2124C94.2755 36.7958 75.3546 26.048 57.5804 15.1398C49.9356 10.4877 45.5398 5.67527 39.6151 0.541992H22.4142C47.451 19.471 76.1191 37.277 107.081 48.1853C126.575 54.9227 145.114 56.5268 165.181 50.7519C187.16 44.3353 207.228 33.4271 225.958 21.8772C236.851 15.1398 247.554 8.0815 257.684 0.541992H244.687Z" fill="#37444D"/>
<path d="M145.687 106.576C145.687 95.3474 145.687 84.1184 145.687 72.8894C145.687 68.2374 137.087 68.2374 137.087 72.8894C137.087 84.1184 137.087 95.3474 137.087 106.576C137.087 111.228 145.687 111.228 145.687 106.576Z" fill="#37444D"/>
<path d="M200.921 92.6201C195.761 83.6371 190.6 74.4936 184.102 66.1522C181.044 62.3024 173.591 65.8314 176.648 69.8417C183.147 78.1831 188.498 87.3266 193.467 96.3096C195.952 100.48 203.214 96.7908 200.921 92.6201Z" fill="#37444D"/>
<path d="M246.216 67.916C238.572 60.6973 230.545 53.3182 221.753 47.2224C217.548 44.3349 211.432 49.3078 215.637 52.3557C224.429 58.6119 232.456 65.8306 240.101 73.0493C243.732 76.4181 249.848 71.2848 246.216 67.916Z" fill="#37444D"/>
<path d="M277.751 38.8813C271.253 34.2293 264.182 29.2564 256.346 26.0481C251.377 23.9627 246.981 30.2189 251.95 32.3043C259.213 35.1918 265.52 39.6834 271.635 44.0146C275.84 47.0625 281.956 41.9292 277.751 38.8813Z" fill="#37444D"/>
<path d="M86.4396 96.3096C91.5999 87.3265 96.7601 78.1829 103.258 69.8415C106.316 65.9915 98.8625 62.3021 95.8045 66.152C89.3064 74.4934 83.955 83.637 78.9859 92.6201C76.6924 96.7908 84.1461 100.48 86.4396 96.3096Z" fill="#37444D"/>
<path d="M39.8062 72.8892C47.451 65.6705 55.4781 58.2914 64.2696 52.1956C68.4743 49.1476 62.3584 44.1747 58.1537 47.0622C49.3622 53.3185 41.3351 60.5372 33.6903 67.7559C30.059 71.2851 36.1749 76.4184 39.8062 72.8892Z" fill="#37444D"/>
<path d="M8.27133 44.0146C14.3872 39.6834 20.6942 35.1918 27.9568 32.3043C32.926 30.2189 28.5302 23.9627 23.561 26.0481C15.7251 29.2564 8.65357 34.2293 2.15545 38.8813C-2.04922 41.9292 4.06666 47.0625 8.27133 44.0146Z" fill="#37444D"/>
</svg>
