<svg width="410" height="194" viewBox="0 0 410 194" fill="none" xmlns="http://www.w3.org/2000/svg">
<path d="M261.221 80.0461C260.499 76.5384 259.237 73.1207 257.433 70.1527C256.442 68.7137 255.36 67.3646 253.737 66.9149C252.204 66.4652 250.4 66.5551 248.687 66.825C246.974 67.0948 245.261 67.5445 243.457 67.9042C242.556 68.0841 241.654 68.264 240.662 68.264C239.67 68.3539 238.588 68.174 237.686 67.6344C236.695 67.1847 235.973 66.3753 235.522 65.4759C235.071 64.5765 234.801 63.5871 234.621 62.6877C234.53 62.238 234.44 61.7883 234.44 61.4286C234.35 61.0688 234.17 60.799 233.989 60.4392C233.539 59.7197 232.998 59.0901 232.457 58.4606L232.907 57.3813C232.907 57.3813 232.907 57.3813 232.817 57.3813H232.907C232.998 57.3813 233.088 57.2913 233.178 57.2014C233.358 57.1115 233.539 56.9316 233.719 56.7517C234.08 56.3919 234.35 56.0322 234.711 55.6724C235.342 54.9529 235.973 54.1435 236.604 53.4239L237.326 54.1434C237.236 54.2334 237.055 54.2334 236.965 54.3233L236.695 54.4133C236.514 54.4133 236.424 54.4133 236.244 54.5032C235.973 54.5032 235.703 54.5032 235.432 54.5032C234.891 54.5032 234.35 54.5032 233.809 54.4133C232.727 54.3233 231.645 54.2334 230.653 54.1434C230.563 54.1434 230.383 54.0535 230.383 53.9636C230.202 53.5139 230.022 53.0642 229.842 52.7044C229.661 52.3447 229.391 51.895 229.12 51.7151C228.309 51.3553 227.317 51.1754 226.415 50.9056C225.514 50.6358 224.612 50.4559 223.62 50.0962C223.349 50.0062 223.169 49.6465 223.079 49.3766C222.989 49.1068 222.989 48.837 223.079 48.5672C223.169 48.0275 223.349 47.5779 223.53 47.1282C224.341 45.3294 225.423 43.8004 226.505 42.1815C227.046 41.372 227.497 40.6525 227.768 39.7531C228.038 38.9436 228.128 37.9543 227.948 37.2348C227.317 35.7058 226.956 34.0869 226.686 32.468C226.415 30.8491 226.325 29.2301 226.235 27.6112C226.145 25.9923 226.145 24.3734 226.235 22.7545C226.235 21.1356 226.325 19.5167 226.505 17.8977C226.505 17.448 226.956 17.1782 227.407 17.1782C227.678 17.1782 227.948 17.448 228.038 17.7179C228.94 20.0563 230.112 22.3947 231.375 24.6432C232.637 26.8917 234.17 28.9603 235.793 30.8491C237.506 32.7378 239.4 34.3567 241.654 35.346C242.736 35.7957 243.908 36.1555 245.17 36.1555C246.343 36.2454 247.605 36.0656 248.777 35.7058L248.236 36.3354C248.507 34.9863 248.867 33.8171 249.408 32.5579C249.679 31.9283 250.04 31.3887 250.581 30.8491C251.031 30.3094 251.663 29.8597 252.474 29.6798C252.835 29.5899 253.286 29.5899 253.646 29.5899C254.007 29.6798 254.368 29.6798 254.728 29.8597C255.36 30.1295 255.991 30.4893 256.532 30.939C257.614 31.8384 258.245 33.1875 258.606 34.3567C258.966 35.5259 259.327 36.7851 259.507 38.0442C259.688 39.3034 259.868 40.5626 259.688 41.8217C259.507 43.0809 258.966 44.43 257.794 45.1495C256.622 45.869 255.269 45.7791 254.097 45.5992C254.007 45.5992 254.007 45.5092 254.007 45.5092L254.097 45.4193C255.269 45.5092 256.622 45.4193 257.524 44.7897C258.516 44.1601 258.876 42.901 258.966 41.7318C259.057 39.3933 258.425 36.965 257.614 34.7165C257.253 33.5473 256.622 32.6479 255.81 31.9283C255.36 31.5686 254.909 31.2988 254.368 31.2088C254.097 31.1189 253.917 31.1189 253.646 31.0289C253.556 31.0289 253.376 31.0289 253.286 31.0289C253.196 31.0289 253.015 31.0289 252.925 31.1189C252.023 31.3887 251.392 32.2881 250.851 33.3674C250.4 34.3567 250.04 35.6159 249.859 36.6951C249.769 36.965 249.589 37.2348 249.318 37.3247C247.966 37.7744 246.613 38.0442 245.17 37.9543C243.728 37.9543 242.375 37.5945 241.023 37.0549C238.408 35.9756 236.334 34.0869 234.53 32.1082C232.727 30.1295 231.284 27.7911 229.932 25.5426C228.669 23.2042 227.497 20.7758 226.596 18.2575L228.128 18.0776C227.948 19.6066 227.858 21.2255 227.768 22.8444C227.678 24.4633 227.678 25.9923 227.678 27.6112C227.678 29.2301 227.768 30.7591 227.948 32.378C228.128 33.907 228.399 35.5259 228.94 36.965C229.12 38.0442 228.94 39.0336 228.579 40.0229C228.219 40.9223 227.678 41.8217 227.137 42.5412C226.055 44.0702 224.973 45.5992 224.161 47.308C223.981 47.7577 223.8 48.1175 223.71 48.5672C223.62 49.0169 223.71 49.3766 223.981 49.5565C224.341 49.7364 224.882 49.8263 225.243 50.0062L226.596 50.366C227.497 50.6358 228.399 50.8157 229.391 51.0855C229.481 51.0855 229.661 51.2654 229.751 51.3553C229.842 51.4453 229.932 51.5352 230.022 51.6251C230.202 51.805 230.293 52.0748 230.383 52.2547C230.653 52.7044 230.834 53.1541 231.014 53.6038L230.743 53.4239C231.825 53.5139 232.817 53.5139 233.899 53.5139C234.44 53.5139 234.981 53.5139 235.432 53.5139C235.703 53.5139 235.973 53.5139 236.154 53.4239C236.244 53.4239 236.424 53.4239 236.514 53.334H236.695L237.326 53.6937C237.416 53.7837 237.416 53.8736 237.416 53.9636C236.875 54.773 236.244 55.5825 235.612 56.3919C235.342 56.7517 234.981 57.2014 234.621 57.5612C234.44 57.741 234.26 57.9209 234.08 58.1008C233.989 58.1907 233.899 58.2807 233.719 58.3706C233.629 58.4606 233.539 58.4606 233.448 58.4606C233.358 58.4606 233.178 58.5505 232.998 58.5505L233.448 57.4712C234.17 58.1008 234.801 58.8203 235.342 59.6298C235.612 60.0795 235.883 60.5292 235.973 61.0688C236.063 61.6084 236.154 61.9682 236.244 62.4179C236.424 63.2274 236.695 64.0368 237.055 64.7563C237.416 65.4759 237.957 66.0155 238.588 66.2853C239.941 67.0048 241.654 66.735 243.367 66.4652C245.08 66.1954 246.884 65.7457 248.687 65.4759C250.49 65.206 252.474 65.0262 254.278 65.7457C254.728 65.8356 255.179 66.1954 255.63 66.3753L256.171 66.825C256.351 67.0048 256.532 67.0948 256.712 67.3646L257.163 67.9042C257.343 68.0841 257.433 68.264 257.614 68.4439C257.884 68.8036 258.155 69.2533 258.335 69.6131C259.327 71.232 259.958 72.9409 260.499 74.6497C261.04 76.3586 261.401 78.1574 261.581 79.9562C261.581 80.0461 261.581 80.0461 261.491 80.0461C261.221 80.0461 261.221 80.0461 261.221 80.0461Z" fill="black"/>
<path d="M255.089 46.3189C255.089 46.3189 252.835 50.0064 253.917 54.7732C255.089 59.54 253.196 66.1056 253.196 66.1056C253.196 66.1056 248.507 82.9244 262.393 79.9564C276.279 76.9883 298.19 69.5234 302.067 54.2336C302.067 54.2336 297.829 43.4408 295.395 39.9332C289.985 32.1084 280.878 11.4223 276.369 8.36433C276.369 8.36433 275.467 6.56553 272.492 4.40698C267.893 0.98927 262.122 -0.449766 256.442 0.0898728C248.056 0.89933 234.53 4.31704 226.956 17.8979C226.956 17.8979 234.35 40.7426 248.777 36.5155C248.777 36.5155 249.949 28.4209 254.909 30.8493C256.171 31.4788 257.163 32.6481 257.704 33.9972C258.966 37.4149 261.04 44.8799 255.089 46.3189Z" fill="black"/>
<path d="M228.85 36.5154C229.12 35.9758 229.571 35.5261 230.022 35.1663C230.473 34.8065 231.014 34.4468 231.555 34.177C232.096 33.9072 232.637 33.7273 233.268 33.6373C233.899 33.5474 234.53 33.6373 235.071 33.8172C233.899 33.9971 232.907 34.4468 231.916 34.8965C230.833 35.4361 229.932 36.0657 228.85 36.5154Z" fill="black"/>
<path d="M232.727 41.1024C234.35 41.1024 234.35 38.4941 232.727 38.4941C231.014 38.4941 231.014 41.1024 232.727 41.1024Z" fill="black"/>
<path d="M302.067 54.1436C305.043 54.1436 308.018 54.5933 310.904 55.2228C313.789 55.8524 316.675 56.7518 319.47 57.7411C322.265 58.7305 324.97 59.9896 327.675 61.3387C328.938 62.0582 330.29 62.7778 331.553 63.5872L333.446 64.7564L335.25 66.0156C340.119 69.4333 344.627 73.3907 348.685 77.7977C352.652 82.2047 356.079 87.1514 359.144 92.1881C365.186 102.351 369.875 113.234 373.662 124.386C374.203 125.736 374.563 127.175 375.014 128.614L376.277 132.841C377.088 135.719 377.81 138.597 378.531 141.475C379.523 147.231 380.605 153.077 381.507 158.923C381.597 159.463 381.326 159.913 380.875 160.093C375.465 162.791 369.875 165.309 364.194 167.468C361.309 168.547 358.423 169.536 355.538 170.436C352.652 171.335 349.677 172.144 346.701 172.864C340.75 174.393 334.799 175.472 328.757 176.282C322.716 177.091 316.675 177.541 310.543 177.721C310.363 177.721 310.273 177.631 310.183 177.541C307.477 174.933 304.682 172.414 301.977 169.806C301.887 169.716 301.887 169.716 301.977 169.626C301.977 169.536 302.067 169.536 302.157 169.626C305.133 171.965 308.018 174.393 310.904 176.731L310.543 176.552C316.585 176.102 322.536 175.292 328.487 174.303C334.438 173.314 340.299 171.965 346.07 170.436C351.841 168.907 357.612 167.018 363.202 164.949C368.883 162.881 374.383 160.542 379.793 157.934L379.162 159.193C378.26 153.347 377.449 147.591 376.637 141.745C376.006 138.867 375.465 135.989 374.834 133.201L373.752 128.973C373.391 127.534 373.031 126.095 372.58 124.746L371.317 120.519C370.866 119.08 370.326 117.731 369.875 116.382C368.883 113.594 367.801 110.896 366.538 108.197C364.104 102.891 361.309 97.6744 357.972 92.9076C354.726 88.0508 351.029 83.4639 347.062 79.2367C343.094 75.0096 338.766 71.0522 333.987 67.7245C329.298 64.3067 324.249 61.4287 318.839 59.0902C313.429 56.8417 307.838 55.043 301.977 54.4134C301.887 54.4134 301.887 54.3234 301.887 54.2335C301.977 54.1436 301.977 54.1436 302.067 54.1436Z" fill="black"/>
<path d="M376.187 160.093C376.998 161.442 377.539 162.791 377.99 164.23C378.441 165.579 378.801 167.018 379.072 168.457C379.342 169.896 379.523 171.335 379.613 172.774C379.703 174.213 379.703 175.742 379.523 177.271C378.711 175.922 378.17 174.573 377.719 173.224C377.269 171.875 376.908 170.436 376.637 168.997C376.367 167.558 376.187 166.119 376.096 164.68C376.006 163.061 376.006 161.622 376.187 160.093Z" fill="black"/>
<path d="M305.854 95.7858C306.756 93.2674 308.019 90.929 309.551 88.6805C311.084 86.432 312.888 84.4534 314.962 82.6546C316.044 81.7552 317.126 80.9457 318.298 80.3161C319.47 79.6865 320.732 79.057 321.995 78.6073C323.257 78.1576 324.61 77.9777 326.052 77.7978C327.405 77.7079 328.757 77.8878 330.02 78.1576C328.667 78.2475 327.405 78.3374 326.143 78.6972C324.88 78.967 323.708 79.4167 322.536 79.8664C320.191 80.9457 318.117 82.2948 316.134 84.0037C315.142 84.8131 314.24 85.7125 313.338 86.6119C312.437 87.5113 311.625 88.5006 310.724 89.49C309.01 91.5586 307.387 93.6272 305.854 95.7858Z" fill="black"/>
<path d="M337.233 82.2949C338.766 83.2843 340.119 84.6334 341.291 86.1623C342.463 87.6014 343.365 89.2203 344.176 91.0191C344.898 92.7279 345.439 94.6167 345.619 96.4155C345.89 98.3042 345.709 100.193 345.258 101.992C344.898 100.193 344.717 98.3941 344.176 96.6853C343.726 94.9764 343.185 93.3575 342.463 91.7386C341.742 90.1197 341.02 88.5008 340.119 86.9718C339.217 85.4428 338.225 83.9138 337.233 82.2949Z" fill="black"/>
<path d="M237.055 107.298C236.153 110.626 235.252 113.954 234.17 117.191C233.088 120.429 231.916 123.667 230.833 126.905C230.383 128.434 229.842 129.963 229.481 131.492C229.301 131.312 229.03 131.132 228.85 130.952C229.21 129.513 229.661 128.074 230.112 126.635C231.104 123.397 232.006 120.069 232.907 116.832C233.809 113.504 234.44 110.266 235.071 106.848C236.424 100.193 237.957 93.5372 239.49 86.8817C241.023 80.2261 242.646 73.5706 244.359 67.005C244.359 66.915 244.449 66.915 244.539 66.915C244.629 66.915 244.629 67.005 244.629 67.005C243.728 73.7505 242.646 80.4959 241.383 87.2414C240.031 93.897 238.768 100.642 237.055 107.298Z" fill="black"/>
<path d="M270.328 152.358C269.787 152.538 269.065 152.628 268.254 152.538C267.713 150.559 267.262 148.491 266.811 146.422C266.27 143.814 265.819 141.205 265.549 138.507C265.278 136.169 265.008 133.74 264.918 131.402C261.762 130.952 258.516 130.683 255.36 130.862C251.753 131.042 248.236 131.672 244.9 132.931C242.105 134.01 239.49 135.539 237.055 137.338C236.514 136.888 235.973 136.529 235.342 136.079C237.867 133.83 240.842 132.032 243.908 130.772C247.515 129.333 251.302 128.434 255.089 128.254C258.335 128.074 261.491 128.254 264.647 128.794C264.196 126.275 263.745 123.847 263.385 121.329C262.934 118.271 262.393 115.123 262.032 112.065C261.671 108.917 261.401 105.859 261.13 102.711C260.95 99.5634 260.86 96.4155 261.04 93.3575C261.04 93.2676 261.13 93.2676 261.13 93.2676C261.221 93.2676 261.221 93.3575 261.221 93.3575C261.401 96.4155 261.762 99.5634 262.212 102.621C262.663 105.679 263.204 108.737 263.745 111.795C264.286 114.853 264.827 117.911 265.459 120.969L267.352 130.053C267.532 130.772 267.082 131.402 266.36 131.582C266.18 131.582 266 131.582 265.909 131.582C265.549 131.492 265.278 131.492 265.008 131.402C265.819 133.651 266.541 135.899 267.172 138.148C267.893 140.666 268.524 143.274 268.975 145.882C269.606 148.131 269.967 150.199 270.328 152.358Z" fill="black"/>
<path d="M238.318 175.382C239.49 176.552 240.662 177.811 241.924 178.98L218.21 178.89C205.406 178.8 192.602 178.71 179.888 178.62C167.084 178.53 154.28 178.26 141.566 178.081L122.36 177.631L112.802 177.451L103.244 177.181L112.802 176.911L122.36 176.731L141.566 176.282C154.37 176.102 167.174 175.922 179.888 175.742C192.692 175.562 205.496 175.562 218.21 175.472L238.318 175.382Z" fill="black"/>
<path d="M410 177.181L400.442 177.451L390.884 177.631L371.678 177.991C358.874 178.17 346.07 178.44 333.356 178.53C320.552 178.71 307.748 178.71 294.944 178.8H293.141C294.313 177.721 295.485 176.552 296.657 175.382C308.83 175.472 321.093 175.472 333.266 175.652C346.07 175.742 358.874 175.922 371.588 176.192L390.794 176.641L400.352 176.821L410 177.181Z" fill="black"/>
<path d="M128.582 71.9519C128.04 71.6821 127.319 71.5022 126.958 71.772C126.598 72.0418 126.598 72.6714 126.598 73.2111C126.688 74.3803 127.049 75.5495 127.409 76.6288C128.131 78.8773 129.032 81.1257 129.934 83.3742C130.926 85.6227 131.737 87.8712 132.729 90.1197L135.434 96.8652L140.664 110.626C141.566 112.874 142.468 115.123 143.459 117.282C143.91 118.361 144.451 119.44 145.082 120.429C145.353 120.879 145.804 121.419 146.165 121.239C146.345 121.149 146.525 120.879 146.615 120.609C146.706 120.34 146.796 120.07 146.886 119.71C146.886 119.98 146.886 120.34 146.886 120.609C146.796 120.879 146.796 121.239 146.525 121.599C146.345 121.779 146.074 121.779 145.894 121.779C145.714 121.779 145.533 121.689 145.353 121.599C145.082 121.419 144.812 121.149 144.541 120.969C143.64 120.07 142.918 118.99 142.287 118.001C140.935 115.932 139.763 113.774 138.68 111.525C137.508 109.367 136.607 107.118 135.525 104.87C134.533 102.621 133.631 100.373 132.729 98.1244C131.828 95.8759 131.016 93.5374 130.205 91.2889C129.393 88.9505 128.582 86.702 127.86 84.3636C127.139 82.0252 126.508 79.5968 126.057 77.1684C125.876 75.9092 125.696 74.6501 125.876 73.3909C125.876 73.0312 125.967 72.7614 126.147 72.4016C126.237 72.1318 126.508 71.772 126.868 71.5921C127.229 71.4123 127.59 71.5022 127.86 71.5921C128.04 71.5921 128.311 71.772 128.582 71.9519Z" fill="black"/>
<path d="M126.237 73.3905C129.122 73.8402 132.008 73.8402 134.893 73.7502C137.779 73.6603 140.664 73.3905 143.55 73.0307C149.32 72.3112 155.001 71.2319 160.592 69.8828C166.272 68.6237 171.773 66.9148 177.363 65.2959L185.659 62.5977C188.454 61.6983 191.159 60.709 193.954 59.8096C191.339 60.9788 188.634 62.148 185.929 63.3172L177.724 66.3752C176.371 66.8249 174.929 67.2746 173.576 67.7243C172.223 68.174 170.781 68.6237 169.428 69.0734C166.633 69.8828 163.838 70.6923 160.952 71.3219C158.157 72.0414 155.272 72.581 152.386 73.1207C149.501 73.5704 146.615 74.0201 143.64 74.1999C137.869 74.5597 131.918 74.7396 126.237 73.3905Z" fill="black"/>
<path d="M203.512 85.3525C200.717 85.9821 198.012 86.9715 195.307 88.0507C193.954 88.5904 192.692 89.13 191.339 89.7596C190.077 90.3892 188.724 90.9288 187.462 91.6483C182.322 94.2566 177.363 97.0447 172.494 100.193C167.625 103.161 162.936 106.578 158.157 109.816L151.214 114.943C148.96 116.652 146.615 118.45 144.361 120.159C146.435 118.181 148.689 116.292 150.763 114.403L157.436 108.917C158.608 108.017 159.69 107.208 160.862 106.309C162.034 105.409 163.206 104.6 164.379 103.79C166.723 102.171 169.158 100.462 171.592 98.9334C174.027 97.4045 176.552 95.9654 179.076 94.5264C181.601 93.1773 184.216 91.8282 186.831 90.659C192.241 88.2306 197.741 86.162 203.512 85.3525Z" fill="black"/>
<path d="M191.88 58.4604L204.324 87.1512L215.685 74.2898L209.013 58.9101L191.88 58.4604Z" fill="black"/>
<path d="M310.633 157.394C305.043 167.827 297.288 177.271 287.821 184.646C283.042 188.334 277.722 191.392 271.861 193.01C268.885 193.82 265.819 194.27 262.753 193.91C262.032 193.82 261.221 193.64 260.499 193.46C259.778 193.19 259.056 193.01 258.335 192.741C256.892 192.111 255.63 191.302 254.458 190.402C252.023 188.693 249.769 186.715 247.515 184.736C245.351 182.757 243.187 180.689 241.023 178.62L228.128 166.388C223.8 162.341 219.743 157.844 216.136 153.167C212.439 148.58 208.652 143.993 205.045 139.316L206.037 139.856C203.332 139.766 200.717 139.316 198.282 138.507C195.758 137.787 193.323 136.798 191.069 135.629C188.724 134.46 186.56 133.111 184.486 131.402C183.945 130.952 183.495 130.502 182.954 129.873C182.503 129.243 182.142 128.434 182.142 127.624C182.052 126.725 182.322 125.915 182.773 125.286C183.134 124.566 183.585 124.117 184.306 123.577L184.216 124.926L183.404 123.937C183.134 123.577 182.954 123.217 182.683 122.768C182.232 121.958 181.872 121.059 181.781 120.159C181.691 119.17 181.872 118.181 182.322 117.371C182.773 116.472 183.314 115.842 184.126 115.213L184.486 116.472C182.954 116.382 181.872 115.572 181.06 114.583C180.248 113.504 179.978 112.155 180.248 110.895C180.429 109.636 181.15 108.557 182.142 107.748C183.134 106.938 184.396 106.668 185.568 106.758C185.659 106.758 185.659 106.848 185.659 106.938C185.659 107.028 185.568 107.028 185.568 107.028C184.396 107.028 183.314 107.478 182.503 108.197C181.691 108.917 181.15 109.996 181.15 110.985C181.06 112.065 181.331 113.054 182.052 113.863C182.683 114.583 183.675 115.213 184.577 115.123C184.937 115.123 185.298 115.392 185.298 115.752C185.298 115.932 185.208 116.202 185.027 116.292L184.937 116.382C184.396 116.742 183.945 117.371 183.675 118.001C183.404 118.63 183.314 119.35 183.404 119.979C183.495 120.609 183.855 121.328 184.216 121.958C184.396 122.228 184.667 122.588 184.847 122.857L185.568 123.667C185.929 124.027 185.929 124.656 185.478 125.016C185.118 125.286 184.757 125.736 184.577 126.185C184.306 126.635 184.216 127.085 184.306 127.444C184.306 127.804 184.577 128.254 184.847 128.614C185.118 128.973 185.568 129.333 186.019 129.783C187.913 131.222 190.077 132.481 192.331 133.47C194.585 134.55 196.84 135.449 199.184 136.079C201.528 136.708 203.963 137.158 206.307 137.248C206.668 137.248 207.029 137.428 207.299 137.787C210.996 142.464 214.603 147.141 218.21 151.818C221.817 156.495 225.513 160.992 229.661 165.219L241.924 178.08C243.998 180.239 246.072 182.308 248.326 184.286C250.49 186.265 252.745 188.154 255.179 189.773C256.442 190.582 257.704 191.302 258.966 191.841C259.598 192.111 260.319 192.201 261.04 192.381C261.762 192.471 262.483 192.561 263.114 192.651C266 192.741 268.795 192.201 271.59 191.302C274.295 190.402 277 189.143 279.525 187.704C282.05 186.355 284.484 184.646 286.829 182.937C296.206 175.922 304.141 167.018 310.724 157.304C310.724 157.214 310.814 157.214 310.904 157.304C310.633 157.304 310.724 157.304 310.633 157.394Z" fill="black"/>
<path d="M185.298 106.938C183.855 106.758 182.503 106.399 181.24 105.769C180.609 105.409 179.978 104.96 179.527 104.24C179.076 103.521 179.166 102.531 179.437 101.812C179.978 100.373 181.15 99.2035 182.503 98.5739C183.224 98.2142 183.945 98.0343 184.667 97.8544C185.388 97.7645 186.11 97.5846 187.101 97.8544C189.716 98.5739 192.421 99.2935 195.036 100.103C197.651 100.912 200.266 101.632 202.881 102.441L201.528 103.88C200.987 102.711 200.537 101.542 200.086 100.373C199.905 99.8331 200.086 99.2935 200.627 99.0236C200.807 98.9337 200.987 98.9337 201.078 98.9337C203.061 99.1136 204.955 99.4733 206.848 100.013C207.84 100.283 208.742 100.553 209.734 101.002C210.004 101.092 210.185 101.182 210.455 101.362L210.816 101.632C210.906 101.722 211.086 101.812 211.177 101.992C211.267 102.082 211.357 102.261 211.447 102.351C211.537 102.441 211.627 102.621 211.627 102.711L211.988 103.341C213.521 106.848 215.054 110.446 216.497 113.954C217.218 115.752 218.029 117.461 218.57 119.35L218.661 119.71C218.661 119.8 218.661 119.89 218.751 119.98C218.841 120.159 218.931 120.339 219.021 120.519C219.202 120.879 219.472 121.239 219.833 121.598C220.464 122.318 221.095 123.038 221.726 123.667C224.431 126.275 227.497 128.704 230.473 131.042C233.539 133.381 236.514 135.719 239.58 137.968C242.646 140.126 245.982 142.105 249.228 143.993L251.753 145.433C252.564 145.882 253.376 146.332 254.278 146.692C255.991 147.501 257.704 148.311 259.417 148.94C261.221 149.57 262.934 150.289 264.737 150.739C265.639 151.009 266.541 151.189 267.442 151.369C268.254 151.458 269.246 151.548 269.787 151.369H269.877C269.877 151.369 269.787 151.369 269.877 151.369L270.057 151.279L270.328 151.189L270.869 150.919L272.041 150.379C272.762 150.019 273.574 149.66 274.295 149.3C275.738 148.58 277.09 147.681 278.353 146.692C280.787 144.533 282.861 141.835 285.025 139.317C285.025 139.227 285.115 139.227 285.206 139.317C285.296 139.317 285.296 139.407 285.206 139.497C284.304 140.936 283.402 142.375 282.501 143.724C281.509 145.163 280.517 146.512 279.254 147.681C277.992 148.94 276.64 149.93 275.107 150.829C274.385 151.279 273.664 151.728 272.852 152.088C272.492 152.268 272.131 152.448 271.68 152.628L271.139 152.898L270.869 153.077L270.688 153.167C270.688 153.167 270.508 153.257 270.328 153.257H270.418C269.787 153.527 269.246 153.527 268.614 153.527C268.073 153.527 267.532 153.527 267.082 153.437C266.09 153.347 265.098 153.167 264.106 152.898C262.212 152.448 260.319 151.908 258.425 151.189C256.622 150.559 254.728 149.75 253.015 148.94C252.113 148.49 251.212 148.041 250.4 147.591L247.876 146.152C241.203 142.285 234.891 137.518 229.12 132.391C226.235 129.873 223.349 127.175 220.735 124.387C220.103 123.667 219.472 122.948 218.841 122.138C218.57 121.688 218.3 121.329 218.029 120.879C217.939 120.609 217.759 120.429 217.759 120.159C217.759 120.07 217.669 119.89 217.669 119.71C217.669 119.53 217.579 119.53 217.579 119.35C217.128 117.551 216.316 115.752 215.595 114.044C214.062 110.536 212.529 107.028 210.636 103.701L210.275 103.071C210.185 102.981 210.185 102.891 210.095 102.801C210.004 102.711 210.004 102.621 209.914 102.621C209.824 102.531 209.824 102.531 209.734 102.441L209.463 102.261C209.283 102.172 209.103 102.082 208.922 101.992C208.111 101.722 207.209 101.452 206.307 101.272C204.504 100.912 202.52 100.822 200.717 100.643L201.709 99.2035C202.25 100.373 202.791 101.542 203.332 102.711C203.602 103.251 203.332 103.88 202.791 104.15C202.52 104.24 202.25 104.24 202.069 104.24C199.455 103.431 196.84 102.621 194.225 101.812C191.61 101.002 188.995 100.103 186.38 99.2935C186.019 99.1136 185.298 99.1136 184.757 99.2035C184.126 99.2935 183.495 99.3834 182.954 99.6532C181.781 100.103 180.88 100.912 180.339 101.992C180.068 102.531 179.978 102.981 180.158 103.521C180.339 104.06 180.79 104.51 181.331 104.87C182.413 105.589 183.675 106.039 185.027 106.489C185.118 106.489 185.118 106.579 185.118 106.579C185.388 106.848 185.388 106.938 185.298 106.938Z" fill="black"/>
<path d="M184.577 106.309L189.446 107.028L184.577 107.388V106.309Z" fill="black"/>
<path d="M184.306 115.123L191.52 116.292L184.216 116.202L184.306 115.123Z" fill="black"/>
<path d="M184.757 123.667L190.077 125.646L184.486 124.746L184.757 123.667Z" fill="black"/>
<path d="M179.527 95.0663C180.609 94.8864 181.691 94.9763 182.683 95.0663C183.675 95.1562 184.757 95.426 185.749 95.6958L186.11 95.7858L186.2 95.9657C186.47 96.7751 186.741 97.6745 186.831 98.5739C186.2 97.8544 185.749 97.1349 185.298 96.4154L185.659 96.6852C184.577 96.5952 183.585 96.4154 182.593 96.1455C181.421 95.9657 180.429 95.6059 179.527 95.0663Z" fill="black"/>
<path d="M197.381 86.9717C197.922 87.8711 198.463 88.8604 199.004 89.8498C199.545 90.8391 199.996 91.7385 200.447 92.7278L200.537 92.9077L200.447 93.1775C200.176 93.897 199.815 94.5266 199.545 95.2461V94.7964C200.807 97.5846 201.979 100.463 202.971 103.431L202.791 103.251C203.783 103.7 204.684 104.06 205.676 104.6C204.594 104.42 203.602 104.15 202.611 103.88H202.52L202.43 103.7C200.988 101.002 199.725 98.1242 198.553 95.3361L198.463 95.0662L198.553 94.7964C198.914 94.0769 199.274 93.4473 199.635 92.8178V93.2675C199.274 92.2781 198.823 91.1988 198.553 90.2095C198.012 89.0403 197.651 88.051 197.381 86.9717Z" fill="black"/>
<path d="M185.568 96.2354C186.651 95.8757 187.733 95.6058 188.815 95.426C189.897 95.2461 191.069 95.0662 192.151 94.9763C193.233 94.8863 194.405 94.7964 195.487 94.7964C196.569 94.7964 197.741 94.7964 198.823 94.9763C197.741 95.336 196.659 95.6058 195.577 95.7857C194.495 95.9656 193.323 96.1455 192.241 96.2354C191.159 96.3254 189.987 96.4153 188.905 96.4153C187.913 96.4153 186.741 96.4153 185.568 96.2354Z" fill="black"/>
<path d="M98.6453 83.8237C90.4398 84.903 82.2344 85.8923 74.029 86.7917C65.8236 87.6911 57.6182 88.4107 49.4128 89.1302C41.2074 89.8497 33.002 90.4793 24.7064 91.0189C16.501 91.5585 8.20541 92.0082 0 92.2781C8.20541 91.1988 16.4108 90.2095 24.6162 89.3101C32.8216 88.4107 41.027 87.6911 49.2325 86.9716C57.4379 86.2521 65.6433 85.6225 73.9389 85.0829C82.1443 84.5432 90.3497 84.0935 98.6453 83.8237Z" fill="black"/>
<path d="M116.499 125.016C111.63 129.513 106.67 133.92 101.621 138.237C96.5714 142.554 91.5219 146.782 86.3822 151.009C81.2426 155.146 76.1029 159.283 70.8731 163.33C65.6433 167.378 60.3233 171.425 54.9131 175.202C59.7823 170.705 64.7416 166.298 69.7911 161.981C74.8406 157.664 79.89 153.437 85.0297 149.21C90.1693 145.073 95.309 140.935 100.539 136.888C105.769 132.841 110.998 128.794 116.499 125.016Z" fill="black"/>
<path d="M78.808 109.457C75.2914 110.806 71.7748 111.975 68.168 112.964C64.5612 114.043 60.9545 115.033 57.3477 115.932C53.7409 116.832 50.1341 117.731 46.4372 118.451C42.7403 119.17 39.1335 119.89 35.3464 120.339C38.863 118.99 42.3796 117.821 45.9864 116.742C49.5931 115.662 53.1999 114.673 56.8067 113.774C60.4134 112.874 64.0202 112.065 67.7172 111.255C71.4141 110.626 75.0209 109.906 78.808 109.457Z" fill="black"/>
<path d="M68.4385 132.122C64.2907 135.269 59.9626 138.237 55.6345 141.116C51.3064 143.994 46.8881 146.782 42.4698 149.57C38.0515 152.268 33.543 155.056 29.0345 157.664C24.5261 160.273 19.9274 162.791 15.3288 165.219C19.4766 162.072 23.8047 159.103 28.1328 156.225C32.461 153.347 36.8793 150.559 41.2976 147.771C45.7159 145.073 50.2243 142.285 54.7328 139.677C59.1511 136.978 63.7497 134.46 68.4385 132.122Z" fill="black"/>
<path d="M302.157 101.992C300.895 105.05 299.633 108.197 298.28 111.255C296.928 114.313 295.575 117.371 294.223 120.429C292.87 123.487 291.517 126.545 290.075 129.513C288.632 132.571 287.189 135.539 285.656 138.507L285.476 137.788C288.091 139.856 290.706 141.925 293.321 143.904C295.936 145.882 298.641 147.861 301.346 149.75C304.051 151.638 306.756 153.527 309.551 155.416C312.256 157.305 314.961 159.193 317.667 161.082L316.675 161.172C319.921 157.754 322.987 154.067 325.782 150.289C328.667 146.512 331.282 142.554 333.717 138.507C334.889 136.439 336.061 134.37 337.143 132.301C338.225 130.143 339.127 127.984 340.029 125.826C340.84 123.577 341.562 121.329 342.193 119.08C342.824 116.742 343.185 114.403 343.455 112.065C343.455 111.975 343.545 111.975 343.545 111.975C343.545 111.975 343.635 111.975 343.635 112.065C343.545 114.493 343.275 116.832 342.914 119.26C342.463 121.599 341.832 123.937 341.111 126.275C339.578 130.862 337.594 135.269 335.25 139.497C332.905 143.724 330.2 147.771 327.315 151.548C324.339 155.416 321.273 159.013 317.847 162.431C317.576 162.701 317.126 162.701 316.855 162.521C314.24 160.542 311.535 158.564 309.01 156.495C306.395 154.427 303.78 152.448 301.166 150.379C298.551 148.401 295.846 146.422 293.141 144.533C290.435 142.644 287.64 140.756 284.935 138.867C284.665 138.687 284.665 138.417 284.755 138.147C286.107 135.089 287.46 132.032 288.812 128.974C290.255 125.916 291.698 122.948 293.141 119.89C294.583 116.832 296.116 113.864 297.559 110.896C299.002 107.928 300.625 104.96 302.157 101.992C302.157 101.992 302.248 101.902 302.248 101.992C302.157 101.902 302.157 101.992 302.157 101.992Z" fill="black"/>
<path d="M254.909 42.8111C256.712 42.8111 256.712 40.0229 254.909 40.0229C253.105 40.0229 253.105 42.8111 254.909 42.8111Z" fill="black"/>
</svg>
