<svg width="208" height="265" viewBox="0 0 208 265" fill="none" xmlns="http://www.w3.org/2000/svg">
<path d="M108.067 114.552C92.0137 87.1342 69.7055 126.684 58.4471 153.617C55.3197 135.419 49.6905 116.736 39.0576 104.604C26.9653 91.259 9.24373 95.3839 3.19756 113.824C-3.68256 135.176 6.1164 163.565 14.8729 182.49C25.2974 205.056 40.3085 224.224 57.6131 239.995C62.1999 244.12 84.5081 189.042 95.3496 167.932C103.064 153.374 118.283 132.022 108.067 114.552Z" fill="#D98C24"/>
<path d="M141.317 10.9616C131.789 -5.31165 118.548 18.1621 111.866 34.1474C110.01 23.3465 106.669 12.2577 100.358 5.05714C93.1808 -2.86346 82.6626 -0.415279 79.074 10.5296C74.9905 23.2025 80.8064 40.0518 86.0037 51.2847C92.1908 64.6777 101.1 76.0546 111.371 85.4153C114.093 87.8635 127.334 55.173 133.769 42.644C138.347 34.0033 147.38 21.3304 141.317 10.9616Z" fill="#D98C24"/>
<path d="M204.93 180.425C194.157 162.026 179.187 188.567 171.631 206.64C169.533 194.428 165.755 181.891 158.62 173.749C150.505 164.794 138.613 167.562 134.555 179.937C129.938 194.265 136.514 213.316 142.39 226.017C149.386 241.159 159.459 254.023 171.072 264.606C174.15 267.374 189.12 230.413 196.396 216.247C201.572 206.477 211.786 192.149 204.93 180.425Z" fill="#D98C24"/>
</svg>
