<svg width="445" height="448" viewBox="0 0 445 448" fill="none" xmlns="http://www.w3.org/2000/svg">
<path d="M209.564 444.808C325.303 444.808 419.128 438.825 419.128 431.444C419.128 424.063 325.303 418.08 209.564 418.08C93.825 418.08 0 424.063 0 431.444C0 438.825 93.825 444.808 209.564 444.808Z" fill="#D98C24"/>
<path d="M243.198 219.412C247.377 217.019 251.357 214.226 255.139 211.234C263.298 204.851 265.885 199.466 268.274 189.493C269.866 182.91 264.89 176.527 259.915 171.74C254.94 166.953 249.367 161.767 249.168 154.785C249.168 149.599 252.551 144.812 254.542 140.025C265.089 114.294 235.834 102.924 229.864 81.3821C223.893 59.8398 217.127 42.0874 190.657 49.0687C184.289 50.6644 177.92 52.8585 171.353 53.058C165.382 53.4569 159.412 52.0606 153.242 52.0606C136.127 52.0606 120.405 61.4355 112.046 76.5949C108.862 82.5789 110.653 90.757 107.668 95.5442C99.707 108.111 80.9995 105.119 84.9798 125.663C86.373 133.044 89.5572 140.623 86.771 147.605C83.1887 156.381 72.2428 159.174 64.4812 164.759C51.9432 173.934 48.7589 192.684 54.7294 207.045C60.6999 221.407 74.233 231.779 88.9602 236.965C103.687 242.151 119.609 242.949 135.132 242.949C172.746 243.149 211.753 238.362 243.198 219.412Z" fill="white"/>
<path d="M136.127 244.146H135.53C120.206 244.146 104.085 243.348 89.1591 238.162C72.6408 232.178 59.9038 221.207 54.3313 207.843C47.7638 192.085 52.1421 173.336 64.4811 164.36C67.0683 162.564 69.8546 160.969 72.6408 159.572C78.6113 156.381 84.1837 153.588 86.3729 147.605C88.3631 142.418 86.9699 136.634 85.5768 131.049C85.1788 129.453 84.7808 127.857 84.5817 126.062C81.9945 112.499 88.7611 108.709 96.1247 104.52C100.304 102.126 104.682 99.7327 107.469 95.145C108.663 92.552 109.459 89.56 109.459 86.568C109.459 82.9776 110.255 79.3872 111.847 76.1958C120.206 61.0364 135.928 51.462 153.242 51.2626H153.839C156.427 51.2626 159.213 51.462 161.601 51.861C164.984 52.2599 168.368 52.4594 171.751 52.2599C176.726 51.861 181.702 50.8636 186.478 49.2679L190.856 48.0711C217.724 41.0898 224.888 59.0417 231.058 81.1824C233.247 89.1611 238.819 95.7434 244.193 102.326C253.148 112.897 262.303 123.868 255.537 140.424C254.94 141.82 254.342 143.216 253.546 144.613C251.755 147.804 250.561 151.195 250.362 154.785C250.362 161.168 255.736 166.354 260.512 170.743L260.711 170.942C267.876 177.923 270.662 183.907 269.269 189.492C266.881 199.665 264.293 205.25 255.935 211.832C252.153 214.824 247.974 217.617 243.795 220.011C217.126 236.367 181.901 244.146 136.127 244.146ZM152.844 53.0578C136.326 53.2572 121.002 62.4326 113.041 76.9936C111.648 79.9856 111.051 83.3765 110.852 86.7675C110.852 89.9589 110.056 93.1504 108.663 96.1424C105.478 101.129 101.1 103.523 96.5227 106.116C89.5572 110.105 83.5867 113.496 85.9749 125.663C86.3729 127.259 86.7709 128.855 86.9699 130.45C88.3631 136.434 89.9552 142.418 87.567 148.203C84.9798 154.586 78.8103 157.777 73.0388 160.969C70.2526 162.365 67.6654 163.961 65.0782 165.756C53.5352 174.333 49.3559 192.085 55.5254 207.045C60.8988 220.011 73.2378 230.782 89.1591 236.367C103.886 241.553 119.808 242.351 135.132 242.351H135.729C181.105 242.351 216.131 234.572 242.601 218.814C246.78 216.42 250.76 213.628 254.542 210.636C262.701 204.452 264.89 199.067 267.279 189.293C268.473 184.306 265.885 178.921 259.119 172.538L258.92 172.338C253.944 167.551 248.372 162.166 248.173 154.985C248.372 150.995 249.566 147.206 251.556 143.815C252.153 142.418 252.949 141.222 253.546 139.825C259.915 124.267 251.357 114.294 242.402 103.523C236.829 96.9402 231.058 90.1584 228.868 81.7808C222.898 59.8396 216.131 43.4834 190.856 49.8663C189.463 50.2652 188.07 50.6642 186.677 51.0631C181.702 52.6588 176.726 53.6562 171.552 54.0551C168.169 54.0551 164.586 54.0551 161.203 53.4567C158.616 53.2572 156.029 52.8583 153.441 52.8583L152.844 53.0578Z" fill="#231F20"/>
<path d="M61.297 280.449C61.297 280.449 77.8153 191.287 94.3337 176.327C110.852 161.168 154.636 161.168 177.522 160.57C200.409 159.971 234.043 167.75 249.168 182.91C264.293 198.069 280.016 293.414 280.016 293.414L248.571 289.823L268.672 343.081C268.672 343.081 199.215 380.58 166.975 378.386C134.734 376.192 83.5868 332.11 83.5868 332.11L86.373 273.268L61.297 280.449Z" fill="black"/>
<path d="M239.814 274.863C239.217 274.863 239.018 274.464 239.018 273.866C240.411 246.34 230.461 192.683 230.461 192.284C230.461 191.886 230.66 191.287 231.257 191.287C231.655 191.287 232.252 191.487 232.252 192.085C232.252 192.683 242.402 246.34 240.81 274.265C240.81 274.464 240.411 274.863 239.814 274.863Z" fill="#231F20"/>
<path d="M117.221 256.114C116.623 256.114 116.225 255.715 116.225 255.116C116.225 254.718 115.628 215.223 122.793 189.492C122.992 189.093 123.39 188.694 123.987 188.894C124.385 189.093 124.783 189.492 124.584 190.091C117.619 215.622 118.216 254.917 118.216 255.116C118.216 255.715 117.818 256.114 117.221 256.114Z" fill="#231F20"/>
<path d="M190.458 171.939L193.842 205.649C193.842 205.649 192.25 224.798 171.154 221.008C158.616 218.614 147.869 210.636 141.7 199.466C140.704 197.471 141.301 193.083 141.301 190.889L140.306 171.142C139.709 161.168 138.316 150.796 138.714 141.022C139.112 131.248 138.714 120.677 139.112 110.305C139.112 109.706 139.311 109.108 139.51 108.709C139.908 108.31 140.306 108.11 140.903 108.11C143.69 107.512 146.675 107.711 149.461 108.31C149.66 101.329 148.864 94.3473 147.073 87.5654C153.043 91.9537 157.621 97.9376 160.407 104.919C167.373 104.52 174.338 104.919 181.304 105.916C182.1 101.129 181.503 96.1425 179.314 91.7542C182.299 95.3446 184.886 99.1344 187.473 103.124C187.473 103.722 196.827 105.118 197.424 104.52C199.016 103.124 198.419 93.3499 198.618 91.1558C203.394 97.1398 206.579 104.321 208.171 111.9C209.763 118.882 209.564 147.405 209.564 154.586C209.365 164.759 201.802 173.336 190.458 171.939Z" fill="white"/>
<path d="M176.527 222.205C174.736 222.205 172.945 222.005 171.154 221.606C158.417 219.213 147.272 211.035 141.102 199.466C140.505 197.272 140.306 195.077 140.505 192.883C140.505 191.886 140.505 191.088 140.505 190.49L139.311 170.743C139.112 167.551 138.913 164.16 138.515 160.769C137.918 153.988 137.52 147.206 137.52 140.424C137.719 135.637 137.719 130.65 137.719 125.863C137.719 120.677 137.719 115.092 137.918 109.706C137.918 108.908 138.117 108.11 138.714 107.313C139.311 106.914 139.908 106.515 140.505 106.515C143.093 106.116 145.68 106.116 148.267 106.515C148.267 99.9323 147.471 93.5494 145.879 87.1665C145.68 86.5681 146.078 86.1692 146.476 85.9697C146.675 85.9697 147.073 85.9697 147.272 86.1692C153.242 90.5574 157.82 96.5414 160.606 103.323C167.173 103.124 173.741 103.323 180.11 104.321C180.707 99.9323 179.911 95.5441 178.119 91.5548C177.92 91.1558 178.119 90.5574 178.517 90.358C178.915 90.1585 179.313 90.358 179.712 90.5574C182.697 94.1478 185.284 97.9377 187.672 101.927C190.458 102.725 193.444 103.124 196.429 103.124C197.225 101.927 197.225 95.943 197.225 93.5494C197.225 92.1532 197.225 90.9564 197.225 90.358C197.225 89.959 197.424 89.7596 197.822 89.5601C198.22 89.3606 198.618 89.5601 198.817 89.7596C203.195 94.7462 206.181 101.528 208.37 110.903C209.763 116.887 209.763 139.427 209.962 150.198V153.788C210.161 159.373 207.972 164.759 203.991 168.549C200.409 171.541 195.832 172.937 191.254 172.538L194.439 205.051C193.842 210.237 191.453 215.024 187.274 218.415C184.488 221.008 180.508 222.205 176.527 222.205ZM144.486 108.31C143.292 108.31 142.097 108.509 140.903 108.709C140.704 108.709 140.306 108.908 140.107 108.908C139.908 109.307 139.908 109.706 139.908 109.906C139.709 115.291 139.709 120.677 139.709 125.863C139.709 130.65 139.709 135.637 139.51 140.424C139.51 147.206 139.709 153.788 140.505 160.57C140.704 163.761 141.102 167.152 141.301 170.543L142.296 190.29C142.296 191.088 142.296 191.886 142.296 192.883C142.097 194.878 142.296 196.673 142.694 198.668C148.665 209.638 159.213 217.418 171.353 219.811C177.721 221.008 182.697 220.011 186.478 217.218C190.06 214.226 192.25 210.037 192.847 205.25L189.463 171.74C189.463 171.541 189.463 171.142 189.662 170.942C189.861 170.743 190.06 170.743 190.458 170.743C194.837 171.541 199.414 170.344 202.797 167.352C206.38 163.961 208.569 158.974 208.37 153.988V150.397C208.37 140.424 208.37 117.485 206.977 111.501C205.783 104.919 202.996 98.7355 199.215 93.1505V93.7489C199.215 99.3339 199.016 103.523 197.623 104.919C196.23 106.315 188.07 104.52 187.075 103.922C186.677 103.722 186.478 103.523 186.279 103.323C184.886 100.93 183.294 98.7355 181.901 96.5414C182.498 99.5334 182.498 102.725 182.1 105.717C182.1 106.116 181.503 106.515 181.105 106.515C174.338 105.517 167.373 105.118 160.407 105.517C160.009 105.517 159.611 105.318 159.611 104.919C157.024 99.1345 153.242 93.7489 148.466 89.7596C149.859 95.7435 150.456 101.927 150.257 107.911C150.257 108.11 150.058 108.509 149.859 108.709C149.66 108.908 149.262 108.908 149.063 108.908C147.67 108.509 146.078 108.31 144.486 108.31Z" fill="#231F20"/>
<path d="M191.852 188.295C191.852 188.295 178.318 190.09 168.567 181.912C159.014 173.535 159.412 164.359 159.412 164.359C159.412 164.359 175.134 172.936 190.458 171.74L191.852 188.295Z" fill="#231F20"/>
<path d="M188.269 189.492C180.906 189.692 173.741 187.298 168.169 182.71C158.417 174.333 158.616 164.759 158.616 164.559C158.616 164.16 159.014 163.761 159.611 163.761C159.81 163.761 159.81 163.761 160.009 163.961C160.208 163.961 175.731 172.338 190.458 171.341C190.856 171.341 191.453 171.74 191.453 172.139L192.847 188.694C192.847 189.093 192.449 189.492 192.051 189.692C190.657 189.492 189.463 189.492 188.269 189.492ZM160.407 165.756C161.203 171.74 164.387 177.325 169.164 181.115C176.925 187.897 187.871 187.697 190.856 187.298L189.662 172.538C176.925 173.336 164.586 167.751 160.407 165.756Z" fill="#231F20"/>
<path d="M179.513 145.61C178.318 145.61 177.323 145.61 176.129 145.41C175.731 145.41 175.333 144.812 175.333 144.413C175.333 144.014 175.93 143.615 176.328 143.615C178.318 144.014 183.493 144.214 185.085 142.019C186.279 140.424 180.906 131.847 174.935 124.865C174.537 124.466 174.736 123.868 175.134 123.669C175.532 123.27 176.129 123.469 176.328 123.868C179.314 127.458 188.866 139.825 186.478 143.216C185.284 145.011 182.1 145.61 179.513 145.61Z" fill="#231F20"/>
<path d="M148.267 122.272C146.675 118.283 144.088 114.493 140.903 111.501C137.52 108.709 132.346 107.512 128.763 109.706C124.783 112.299 123.788 117.884 124.186 122.671C124.783 128.256 126.375 133.442 128.564 138.628C129.559 141.62 131.55 144.413 133.938 146.607C136.525 148.801 140.107 149.001 142.894 147.006" fill="white"/>
<path d="M139.112 149.2C137.122 149.2 135.132 148.402 133.341 147.206C130.754 145.012 128.763 142.02 127.569 138.828C125.181 133.642 123.788 128.256 122.992 122.671C122.793 119.679 122.594 112.1 127.967 108.709C132.346 106.116 137.918 107.711 141.301 110.504C144.486 113.695 147.073 117.485 148.864 121.674C149.063 122.073 149.063 122.671 148.665 122.871C148.267 123.07 147.67 123.07 147.471 122.671C147.471 122.671 147.471 122.472 147.272 122.472C145.68 118.483 143.292 114.892 140.107 111.9C137.321 109.507 132.545 107.911 128.962 110.304C124.385 113.097 124.584 120.278 124.783 122.472C125.38 127.857 126.972 133.044 129.161 138.03C130.157 141.022 131.948 143.615 134.336 145.61C136.525 147.405 139.709 147.605 142.098 146.009C142.496 145.61 143.093 145.809 143.292 146.208C143.69 146.607 143.491 147.206 143.093 147.405C142.297 148.602 140.704 149.2 139.112 149.2Z" fill="#231F20"/>
<path d="M163.392 128.256C164.491 128.256 165.382 126.023 165.382 123.269C165.382 120.515 164.491 118.283 163.392 118.283C162.293 118.283 161.402 120.515 161.402 123.269C161.402 126.023 162.293 128.256 163.392 128.256Z" fill="#231F20"/>
<path d="M193.245 127.259C194.344 127.259 195.235 125.026 195.235 122.272C195.235 119.518 194.344 117.286 193.245 117.286C192.145 117.286 191.254 119.518 191.254 122.272C191.254 125.026 192.145 127.259 193.245 127.259Z" fill="#231F20"/>
<path d="M170.557 204.452C170.557 204.452 179.314 179.917 175.134 173.136C170.955 166.354 159.412 159.971 157.223 153.787C155.034 147.604 158.815 132.844 154.038 131.248C149.262 129.652 145.68 143.415 149.262 154.386C149.262 154.386 143.69 147.604 143.69 141.221C143.69 134.838 147.869 126.66 143.292 124.865C138.714 122.87 131.749 137.83 133.341 149.599C134.933 161.567 150.058 178.322 149.063 181.513C148.068 184.705 65.6753 265.089 58.1127 278.254C51.1472 290.421 55.5255 317.748 79.2084 314.956C103.09 311.964 154.636 246.14 170.557 204.452Z" fill="white"/>
<path d="M75.8251 315.954C68.8595 316.153 62.491 312.762 58.7097 306.978C53.3363 298.002 52.7392 287.031 57.3166 277.656C61.894 269.478 93.9355 237.165 119.609 211.035C133.938 196.474 147.471 182.711 148.267 181.115C148.466 180.317 145.68 175.929 143.292 172.338C138.913 165.556 133.341 156.979 132.346 149.799C130.953 140.025 135.331 128.256 139.709 124.865C140.704 123.868 142.097 123.669 143.491 124.068C147.073 125.663 146.277 130.052 145.282 134.639C144.685 136.833 144.486 139.028 144.287 141.222C144.486 144.214 145.282 147.006 146.874 149.599C145.879 142.02 147.471 134.24 150.257 131.448C151.252 130.451 152.645 130.052 154.038 130.451C157.422 131.647 157.422 137.432 157.223 143.416C156.825 146.807 157.024 150.198 157.82 153.589C159.014 156.581 162.795 159.971 166.576 163.362C169.96 166.155 173.144 169.147 175.731 172.737C180.11 179.719 171.751 203.654 171.353 204.652C163.591 224.598 147.073 251.327 128.365 274.465C108.265 299.199 90.3533 314.158 79.2084 315.555C78.2133 315.954 77.0192 315.954 75.8251 315.954ZM142.495 125.863C141.898 125.863 141.5 126.062 141.102 126.461C137.52 129.254 132.943 140.224 134.336 149.799C135.331 156.581 140.903 165.357 144.884 171.54C148.665 177.325 150.456 180.317 149.859 181.913C149.262 183.508 141.5 191.288 120.803 212.431C96.5228 236.965 63.2871 270.675 58.9087 278.654C54.7294 287.43 55.1274 297.603 60.3018 305.98C63.0881 310.369 68.8595 315.156 79.2084 313.959C102.692 311.166 154.038 245.143 169.761 204.253C172.149 197.471 177.522 179.12 174.338 173.934C171.95 170.543 168.965 167.551 165.581 164.958C161.601 161.368 157.422 157.977 156.228 154.386C155.432 150.796 155.033 147.206 155.432 143.615C155.631 138.828 155.83 133.243 153.64 132.445C153.441 132.445 152.645 132.046 151.849 133.044C148.864 136.036 147.471 146.208 150.058 154.386C150.257 154.785 149.859 155.384 149.461 155.583C149.063 155.783 148.665 155.583 148.466 155.384C148.267 155.184 142.894 148.203 142.894 141.621C142.894 139.227 143.292 136.833 143.889 134.639C144.884 129.852 145.282 127.06 143.093 126.062C142.894 125.863 142.694 125.863 142.495 125.863Z" fill="#231F20"/>
<path d="M189.861 203.056C189.861 203.056 181.105 178.522 185.483 171.74C189.264 165.756 196.031 161.966 200.807 156.581C205.783 150.796 204.987 140.823 207.773 133.642C208.37 132.246 209.564 130.451 210.957 131.049C211.554 131.448 212.151 131.847 212.35 132.445C214.539 136.834 215.932 141.621 216.729 146.408C217.724 150.597 218.122 154.785 218.321 159.174C218.321 162.964 217.525 166.753 216.131 170.344C215.335 172.538 210.957 177.525 211.554 180.118C212.549 183.309 217.923 199.665 226.878 211.035C235.834 222.205 281.807 266.486 288.175 294.411C291.559 309.172 289.369 326.924 265.686 323.932C242.004 320.94 205.982 244.545 189.861 203.056Z" fill="white"/>
<path d="M270.463 325.528C268.871 325.528 267.08 325.328 265.487 325.129C241.009 322.137 204.788 244.146 189.065 203.455C188.667 202.457 180.309 178.521 184.687 171.54C187.075 167.95 190.06 164.958 193.444 162.365C195.832 160.569 198.021 158.575 200.011 156.381C202.797 152.99 203.793 148.003 204.589 143.016C204.987 139.825 205.783 136.833 206.778 133.642C207.574 131.647 209.166 129.652 211.156 130.45C211.952 130.849 212.549 131.447 212.947 132.245C215.136 136.634 216.729 141.421 217.326 146.407C218.321 150.596 218.719 154.984 218.918 159.373C218.918 163.362 218.122 167.351 216.53 170.942C215.933 171.939 215.335 172.936 214.738 173.934C213.544 175.928 211.753 178.721 212.151 179.918C212.35 180.716 217.724 198.468 227.475 210.436C229.466 212.829 232.849 216.619 237.426 221.407C254.741 240.356 283.797 271.871 289.17 294.212C290.564 300.594 292.156 312.363 285.787 319.544C282.205 323.533 277.229 325.528 270.463 325.528ZM190.856 202.856C208.967 249.93 243.994 320.74 265.886 323.334C274.443 324.331 280.613 322.735 284.394 318.546C290.364 311.964 288.772 300.794 287.379 294.81C282.404 273.068 252.153 240.356 236.033 222.803C231.456 217.816 227.873 214.026 226.082 211.633C216.132 199.266 210.758 181.314 210.559 180.516C209.962 178.521 211.753 175.529 213.544 172.936C214.141 172.138 214.738 171.141 215.136 170.144C216.53 166.753 217.326 162.963 217.326 159.173C217.326 154.984 216.729 150.796 215.733 146.607C215.136 141.82 213.743 137.232 211.554 132.844C211.355 132.445 210.957 131.846 210.559 131.846C209.763 131.447 208.768 133.043 208.569 134.041C207.574 137.033 206.778 140.024 206.38 143.016C205.385 148.203 204.589 153.588 201.404 157.179C199.414 159.373 197.026 161.567 194.638 163.561C191.454 165.955 188.468 168.947 186.08 172.338C182.896 177.524 188.468 196.074 190.856 202.856Z" fill="#231F20"/>
<path d="M157.422 351.458C157.422 351.458 69.2576 268.082 32.0416 284.637C-5.17441 301.193 -4.57736 348.666 15.5233 375.793C35.6239 402.92 110.056 425.261 171.751 419.676C233.446 414.09 318.625 390.952 335.143 369.41C351.661 347.868 339.522 311.964 310.067 302.589C280.613 293.414 205.385 353.652 157.422 351.458Z" fill="#231F20"/>
<path d="M152.048 421.47C96.1247 421.47 33.4347 401.723 14.9262 376.391C2.58716 359.636 -1.99021 336.498 3.18421 317.549C6.96552 302.389 17.5134 290.023 31.8425 283.839C68.6605 267.682 151.849 344.876 158.019 350.66C182.299 351.657 213.942 336.299 242.203 322.934C269.866 309.77 295.937 297.203 310.664 301.991C325.391 306.778 336.934 318.546 341.711 333.307C345.89 346.671 343.9 360.035 336.337 370.208C320.018 391.551 234.64 415.088 172.348 420.872C165.382 421.271 158.815 421.47 152.048 421.47ZM43.1864 283.44C39.4051 283.44 35.8229 284.039 32.2406 285.435C18.5085 291.219 8.15961 303.187 4.57732 317.748C-0.398079 336.299 4.17929 359.038 16.1203 375.194C36.6189 403.12 112.245 424.263 171.552 418.678C233.645 412.893 318.227 389.755 334.347 368.812C341.711 359.237 343.502 346.471 339.521 333.506C335.143 319.145 323.998 307.975 309.669 303.387C295.539 298.999 269.866 311.166 242.601 324.331C214.141 337.894 182.1 353.453 157.223 352.256C157.024 352.256 156.825 352.256 156.626 352.056C156.029 351.458 83.5867 283.44 43.1864 283.44Z" fill="#231F20"/>
<path d="M102.891 410.101L160.009 437.628L185.284 373.001C185.284 373.001 103.488 315.555 83.5868 332.11C63.6852 348.666 96.3238 405.115 102.891 410.101Z" fill="#231F20"/>
<path d="M159.81 438.625C159.611 438.625 159.611 438.625 159.412 438.625L102.294 411.099L102.095 410.899C96.9208 406.91 76.4222 372.801 76.0241 349.264C75.8251 341.086 78.2133 335.302 82.7907 331.512C103.09 314.757 182.299 370.009 185.682 372.402C186.08 372.602 186.08 373.001 186.08 373.4L160.606 438.027C160.606 438.425 160.208 438.625 159.81 438.625ZM103.289 409.503L159.412 436.63L184.289 373.599C176.925 368.612 102.692 317.749 84.1838 333.108C80.2035 336.499 78.0143 342.084 78.2133 349.464C78.4123 371.604 98.3139 405.314 103.289 409.503Z" fill="#231F20"/>
<path d="M182.498 432.042C182.498 432.042 221.505 445.007 257.726 439.622C298.524 433.638 310.863 415.287 289.966 398.731C269.269 382.176 184.687 396.138 184.687 396.138L182.498 432.042Z" fill="black"/>
<path d="M239.018 441.816C219.714 441.617 200.608 438.625 182.1 432.84C181.702 432.641 181.503 432.242 181.503 431.843L183.692 395.939C183.692 395.54 184.09 395.141 184.488 395.141C187.871 394.543 269.667 381.179 290.563 397.734C298.723 404.317 302.106 411.298 300.514 417.88C297.728 428.452 282.205 436.63 257.925 440.221C251.556 441.218 245.387 441.816 239.018 441.816ZM183.493 431.245C188.866 432.84 224.49 443.412 257.726 438.625C281.21 435.034 296.136 427.455 298.723 417.681C300.315 411.697 297.131 405.514 289.568 399.53C270.264 384.171 194.041 395.74 185.682 397.136L183.493 431.245Z" fill="#231F20"/>
<path d="M163.193 429.25C163.193 429.25 196.827 439.822 203.394 420.474C209.763 401.125 195.832 399.33 178.318 395.341L163.193 429.25Z" fill="white"/>
<path d="M182.1 433.04H180.906C174.935 432.84 168.766 431.843 162.994 430.048C162.795 430.048 162.596 429.848 162.397 429.449C162.198 429.25 162.198 428.851 162.397 428.652L177.522 394.742C177.721 394.343 178.119 394.144 178.517 394.144L181.503 394.742C191.852 396.937 200.807 398.931 204.39 405.115C206.38 408.905 206.38 413.891 204.39 420.274C201.404 429.051 193.842 433.04 182.1 433.04ZM164.387 428.652C169.96 430.247 196.827 436.83 202.399 420.274C204.39 414.29 204.39 409.702 202.598 406.511C199.414 401.125 190.856 399.131 180.906 396.937L178.517 396.338L164.387 428.652Z" fill="#231F20"/>
<path d="M94.5327 406.511C94.3337 406.511 94.1346 406.511 94.1346 406.311C93.7366 406.112 50.3511 379.184 25.4741 368.014C25.0761 367.814 24.877 367.216 25.0761 366.817C25.2751 366.418 25.8721 366.219 26.2702 366.418C51.3462 377.588 94.7317 404.516 95.1297 404.715C95.5278 404.915 95.7268 405.513 95.5278 405.912C95.3287 406.311 94.9307 406.511 94.5327 406.511Z" fill="white"/>
<path d="M71.8448 390.952C71.8448 390.952 53.7343 387.362 48.958 401.125C44.1816 414.888 48.958 441.617 61.0979 446.404C73.2379 451.191 91.9454 431.643 99.11 429.848C106.275 428.053 124.783 420.673 124.783 420.673L71.8448 390.952Z" fill="black"/>
<path d="M65.0782 448C63.4861 448 62.093 447.8 60.6999 447.202C47.7638 442.215 43.1865 414.689 47.9629 400.726C52.7392 386.564 71.8448 389.955 71.8448 390.155L72.0438 390.354L124.783 420.075C125.181 420.274 125.38 420.673 125.181 420.872C125.181 421.271 124.982 421.471 124.584 421.67C123.788 422.069 106.076 429.051 98.911 430.846C96.7218 431.444 93.1395 433.838 88.9602 436.83C81.7956 441.816 72.8399 448 65.0782 448ZM66.6704 391.551C61.0979 391.551 52.5402 392.947 49.754 401.325C47.5648 407.907 47.5648 417.88 49.555 426.856C51.7442 436.63 56.1225 443.412 61.2969 445.407C69.0586 448.399 79.6064 441.018 88.1641 435.035C92.5425 432.043 96.1248 429.449 98.712 429.051C104.483 427.654 117.618 422.468 122.395 420.673L71.4468 392.149C69.8546 391.75 68.2625 391.551 66.6704 391.551Z" fill="#231F20"/>
<path d="M178.119 396.338H177.721C177.323 396.139 176.925 395.74 177.124 395.141L182.896 378.187C178.717 373.799 142.098 336.1 117.221 317.948C116.823 317.549 116.823 317.15 117.022 316.751C117.42 316.352 117.818 316.352 118.216 316.552C144.685 335.9 184.09 376.99 184.488 377.389C184.687 377.588 184.886 377.987 184.687 378.386L178.717 395.939C178.916 396.139 178.518 396.338 178.119 396.338Z" fill="white"/>
<path d="M179.712 154.386C175.134 154.386 170.557 153.189 166.576 150.796C166.178 150.596 165.979 149.998 166.377 149.599C166.576 149.2 167.173 149.001 167.572 149.4C174.736 153.588 183.692 153.588 191.055 149.599C191.453 149.4 192.05 149.599 192.25 149.998C192.449 150.397 192.25 150.995 191.851 151.195C188.269 153.189 184.09 154.386 179.712 154.386Z" fill="#231F20"/>
<path d="M276.632 26.5289C272.453 28.3241 268.672 31.1166 265.885 34.707C252.75 51.6616 261.109 70.6108 271.657 86.5681C283.001 103.523 309.47 102.126 327.381 95.3446C335.939 106.515 353.055 111.102 368.18 107.512C382.111 103.922 393.853 94.5467 400.022 81.7809C403.406 87.7649 413.157 90.1585 420.72 88.1638C447.388 81.1825 451.368 47.4728 431.268 32.7124C425.695 28.723 416.541 27.5263 411.366 31.9145C410.172 24.5343 403.008 16.5556 394.649 13.7631C392.261 12.9653 370.17 12.1674 372.16 14.7605C365.991 5.98396 353.652 0.997317 341.512 0.797852C329.571 0.797852 317.829 4.38823 307.878 10.9706C302.305 14.1621 297.529 18.7498 293.748 24.1353C287.976 23.5369 282.006 24.3348 276.632 26.5289Z" fill="white"/>
<path d="M357.831 109.706C345.691 109.706 333.75 104.919 327.182 96.5412C307.679 103.522 281.807 103.722 270.861 87.1663C261.507 73.2037 250.959 52.2598 265.089 34.1084C268.075 30.3185 271.856 27.3266 276.234 25.5314C281.608 23.3372 287.578 22.5394 293.549 22.9383C297.33 17.7522 302.106 13.364 307.679 9.97304C317.829 3.39068 329.77 -0.000241324 341.91 -0.199707C354.448 -0.000241324 365.991 4.9864 372.359 12.965C373.354 12.3666 376.14 11.9677 383.504 11.9677C387.484 11.9677 391.465 12.1672 395.445 12.7656C403.406 15.5581 409.774 21.941 412.361 30.1191C418.133 26.5287 426.89 27.925 432.064 31.7148C442.214 39.095 446.99 51.8608 444.602 64.0282C442.413 76.1956 433.258 85.9695 421.118 88.762C413.954 90.5572 404.799 88.9615 400.221 83.3764C393.654 95.7433 382.111 104.719 368.379 108.11C364.996 109.506 361.413 109.905 357.831 109.706ZM327.382 94.347C327.78 94.347 327.979 94.5465 328.178 94.746C336.138 105.118 352.856 110.105 367.782 106.514C381.315 103.124 392.858 93.9481 399.027 81.3818C399.226 80.9828 399.624 80.7834 399.823 80.7834C400.221 80.7834 400.619 80.9828 400.818 81.3818C404.202 87.3657 413.555 88.9615 420.322 87.3657C431.666 84.7727 440.224 75.5973 442.214 64.0282C444.403 52.4592 439.826 40.6908 430.472 33.7095C425.297 29.9196 416.74 28.7228 411.963 32.9116C411.764 33.1111 411.366 33.3105 410.968 33.1111C410.57 32.9116 410.371 32.7121 410.371 32.3132C409.177 25.1324 402.013 17.3533 394.45 14.9597C392.062 14.1618 375.941 13.7629 373.155 14.9597C373.155 15.5581 372.757 15.957 372.16 15.957C371.762 15.957 371.364 15.7575 371.165 15.5581C365.394 7.37999 353.851 2.19388 341.313 1.99442C329.77 1.99442 318.426 5.5848 308.475 11.9677C303.102 15.1592 298.325 19.5474 294.743 24.7335C294.544 25.1324 294.146 25.1324 293.748 25.1324C287.976 24.534 282.205 25.3319 276.831 27.526C272.851 29.3212 269.269 31.9143 266.483 35.5047C253.149 52.4592 262.701 71.4085 272.254 86.1689C282.603 101.927 307.878 101.528 326.784 94.5465C327.182 94.347 327.183 94.347 327.382 94.347Z" fill="#D1D3D4"/>
<path d="M315.042 115.69C317.431 114.892 320.018 114.693 322.406 115.092C325.391 115.092 328.177 116.488 330.168 118.881C331.76 121.275 330.367 125.663 327.381 125.663C331.362 123.669 336.934 126.661 338.128 131.049C340.516 140.424 328.576 146.208 320.814 145.61C316.834 145.41 313.052 143.416 309.271 144.014C302.106 145.011 297.131 145.809 291.758 139.426C287.976 134.839 289.17 128.456 292.355 123.868C294.345 120.677 297.529 118.482 301.111 117.884C302.305 117.685 310.863 118.881 310.266 120.876C311.062 118.482 312.853 116.488 315.042 115.69Z" fill="white"/>
<path d="M321.809 146.607C321.411 146.607 321.013 146.607 320.615 146.607C319.023 146.407 317.431 146.208 315.839 145.809C313.649 145.211 311.46 144.812 309.271 145.011C302.106 146.009 296.534 146.806 290.962 140.025C286.583 134.639 288.573 127.658 291.559 123.269C293.748 119.879 297.131 117.485 301.111 116.887C304.296 116.887 307.281 117.684 310.266 118.881C311.261 117.086 312.853 115.69 314.844 114.892C317.431 114.094 320.018 113.695 322.605 114.293C326.585 114.892 329.571 116.288 330.964 118.482C331.959 120.277 332.158 122.472 331.163 124.267C332.158 124.466 332.954 124.666 333.75 125.065C336.337 126.261 338.128 128.456 338.924 131.049C339.721 134.24 338.924 137.83 336.735 140.424C332.954 144.213 327.581 146.607 321.809 146.607ZM310.664 142.817C312.654 142.817 314.445 143.216 316.436 143.615C317.829 144.014 319.421 144.213 320.814 144.413C326.187 144.812 331.561 142.618 335.342 138.628C337.133 136.634 337.929 133.841 337.133 131.049C336.536 129.054 335.143 127.259 333.153 126.261C331.959 125.663 330.765 125.464 329.571 125.663C328.974 126.062 328.178 126.261 327.581 126.261C327.183 126.261 326.784 125.863 326.585 125.464C326.585 125.065 326.784 124.466 327.182 124.267C327.78 124.067 328.178 123.868 328.775 123.668C328.974 123.469 329.372 123.07 329.372 122.871C329.969 121.674 329.969 120.277 329.372 119.081C328.178 117.285 325.988 116.089 322.406 115.69C320.018 115.291 317.829 115.49 315.441 116.288C313.45 117.086 312.057 118.682 311.46 120.876C311.261 121.474 310.664 121.674 310.067 121.474C309.669 121.275 309.47 120.876 309.47 120.277C308.873 119.48 302.505 118.482 301.31 118.482C297.927 119.081 294.942 121.075 293.151 124.067C290.564 127.857 288.772 134.041 292.355 138.429C297.33 144.413 301.907 143.615 308.873 142.817C309.669 142.817 310.266 142.817 310.664 142.817Z" fill="#D1D3D4"/>
<path d="M276.831 146.009C274.841 145.211 272.851 145.012 270.861 145.61C268.871 146.209 267.478 148.004 267.279 150.198C267.279 152.193 268.871 153.788 270.861 153.788C271.06 153.788 271.06 153.788 271.259 153.788C266.483 156.98 276.632 164.958 281.21 156.381C283.001 152.99 281.807 148.602 278.424 146.607C277.827 146.408 277.229 146.209 276.831 146.009Z" fill="white"/>
<path d="M275.637 161.168C275.438 161.168 275.04 161.168 274.841 161.168C272.254 160.968 270.065 159.173 269.07 156.58C268.871 155.982 269.07 155.184 269.269 154.585C268.871 154.386 268.473 154.186 268.075 153.787C266.881 152.99 266.284 151.593 266.284 150.197C266.483 147.604 268.075 145.41 270.463 144.612C272.652 144.014 275.04 144.014 277.229 145.011C279.618 145.809 281.608 147.604 282.603 149.998C283.399 152.192 283.2 154.585 282.006 156.58C280.812 159.372 278.424 161.168 275.637 161.168ZM271.259 152.79C271.657 152.79 272.055 152.99 272.254 153.388C272.453 153.787 272.254 154.386 271.856 154.585C271.259 154.785 271.06 155.583 271.06 156.181C271.657 157.777 273.249 158.974 275.04 159.173C277.229 159.372 279.419 157.976 280.215 155.982C281.011 154.386 281.21 152.591 280.613 150.995C279.817 149.2 278.225 147.803 276.433 147.006C274.841 146.208 272.851 146.208 271.06 146.607C269.468 147.006 268.274 148.601 268.274 150.197C268.274 150.995 268.672 151.793 269.269 152.192C269.866 152.591 270.463 152.79 271.259 152.79Z" fill="#D1D3D4"/>
<path d="M390.072 282.044C390.47 277.456 389.475 272.869 387.285 268.879C385.494 265.887 382.708 263.693 381.315 260.502C378.728 255.116 380.519 248.733 379.922 242.949C379.325 237.962 377.136 233.375 373.752 229.784C370.568 226.593 366.588 224.598 363.602 221.207C358.826 215.822 357.433 208.242 354.647 201.66C350.666 192.285 343.9 184.306 335.342 178.92C340.517 189.492 328.576 203.056 334.148 213.627C335.939 217.018 339.123 219.412 340.517 223.002C343.502 231.579 333.352 240.755 336.735 249.332C338.327 253.521 342.706 255.914 344.895 260.103C347.681 265.489 345.492 272.071 345.691 278.254C346.089 286.632 351.064 294.212 357.234 299.996C361.015 303.586 365.394 306.778 369.374 310.169C374.349 314.158 376.339 318.347 380.718 311.964C386.489 302.789 389.873 292.616 390.072 282.044Z" fill="#D98C24"/>
<path d="M395.644 286.831C394.052 280.249 392.858 273.268 395.644 267.084C398.629 260.103 406.192 255.116 406.988 247.736C407.585 242.75 404.998 237.763 405.993 232.976C406.988 228.189 410.968 224.798 414.153 221.207C421.715 212.83 426.093 202.258 426.89 191.088C431.666 197.271 436.442 203.654 439.03 211.234C441.617 218.814 441.617 227.391 437.238 233.774C436.044 235.369 434.85 236.965 434.253 238.76C432.86 243.547 436.84 248.135 439.03 252.523C441.617 257.909 441.02 264.092 437.437 268.88C433.059 274.265 424.899 276.26 422.71 282.842C422.113 285.236 421.914 287.829 421.914 290.222C420.919 298.999 414.75 306.579 406.192 308.972C401.017 310.169 401.216 308.174 400.221 303.985C399.027 298.201 396.838 292.616 395.644 286.831Z" fill="#D98C24"/>
<path d="M379.325 239.957C375.742 227.391 374.349 214.426 370.369 201.859C367.185 192.085 363.204 182.711 358.627 173.535L374.15 180.118C379.126 182.112 384.499 184.705 386.887 189.492C390.868 198.069 383.703 208.841 387.882 217.218C389.474 220.21 392.062 222.205 393.853 224.997C398.43 231.38 397.634 240.356 395.246 247.736C394.251 250.928 389.474 267.483 385.295 262.896C383.504 261.101 383.504 254.119 382.708 251.726C381.713 247.537 380.519 243.747 379.325 239.957Z" fill="#D98C24"/>
<path d="M387.882 406.311C384.897 385.766 375.145 313.56 374.946 312.961L377.534 312.562C377.534 313.36 387.285 385.367 390.47 405.912L387.882 406.311Z" fill="#F0BE69"/>
<path d="M391.465 425.659H388.877C389.076 401.325 399.226 308.374 404.998 301.991L406.988 303.786C403.008 308.174 391.664 392.349 391.465 425.659Z" fill="#F0BE69"/>
<path d="M396.639 421.072L394.052 420.872C396.44 368.413 385.295 258.308 385.096 257.31L387.683 257.111C387.882 258.108 399.027 368.413 396.639 421.072Z" fill="#F0BE69"/>
<path d="M361.214 357.043H418.929L414.949 415.686C414.352 425.859 405.794 433.638 395.644 433.638H384.499C374.349 433.638 365.991 425.859 365.195 415.686L361.214 357.043Z" fill="white"/>
<path d="M395.644 434.635H384.499C373.951 434.635 364.995 426.258 364.398 415.686L360.418 357.043C360.418 356.844 360.418 356.445 360.617 356.245C360.816 356.046 361.015 356.046 361.214 356.046H418.929C419.526 356.046 419.924 356.445 419.924 357.043L415.944 415.686C415.148 426.258 406.391 434.635 395.644 434.635ZM362.408 358.041L366.389 415.487C366.986 425.061 374.946 432.441 384.499 432.441H395.644C405.197 432.441 413.157 425.061 413.754 415.487L417.735 358.041H362.408Z" fill="#D1D3D4"/>
</svg>
