<svg width="64" height="214" viewBox="0 0 64 214" fill="none" xmlns="http://www.w3.org/2000/svg">
<path d="M17.444 192.75C20.9161 192.91 24.5811 192.109 27.4745 190.346C28.2461 189.865 28.6319 189.385 29.2106 188.744C29.9822 188.423 30.5609 187.943 31.1396 187.302C33.0685 184.738 34.6117 181.854 35.5762 178.809C36.5406 175.765 33.2614 173.041 29.5964 173.842C21.4948 175.605 15.1292 180.892 12.8145 187.622C11.85 190.346 14.3576 192.589 17.444 192.75Z" fill="#D98C24"/>
<path d="M-12.069 178.97C-8.59684 179.13 -4.93183 178.329 -2.0384 176.567C-1.26682 176.086 -0.881023 175.605 -0.302336 174.964C0.469246 174.644 1.04793 174.163 1.62662 173.522C3.55557 170.959 5.09874 168.074 6.06322 165.03C7.02769 161.986 3.74847 159.262 0.0834584 160.063C-8.01815 161.825 -14.3837 167.113 -16.6985 173.843C-17.6629 176.567 -15.1553 178.65 -12.069 178.97Z" fill="#D98C24"/>
<path d="M38.6625 146.923C42.1346 147.084 45.7996 146.282 48.693 144.52C49.4646 144.039 49.8504 143.558 50.4291 142.917C51.2007 142.597 51.7794 142.116 52.3581 141.475C54.287 138.912 55.8302 136.027 56.7947 132.983C57.7591 129.939 54.4799 127.215 50.8149 128.016C42.7133 129.778 36.3477 135.066 34.033 141.796C33.0685 144.52 35.5761 146.603 38.6625 146.923Z" fill="#D98C24"/>
<path d="M4.52003 102.057C7.99215 102.217 11.6572 101.416 14.5506 99.6536C15.3222 99.1729 15.708 98.6922 16.2867 98.0513C17.0582 97.7308 17.6369 97.2501 18.2156 96.6092C20.1446 94.0454 21.6877 91.1612 22.6522 88.1168C23.6167 85.0723 20.3375 82.3484 16.6724 83.1495C8.57084 84.9121 2.20529 90.1998 -0.109462 96.9296C-0.881044 99.6536 1.6266 101.737 4.52003 102.057Z" fill="#D98C24"/>
<path d="M40.5914 98.2114C44.0636 98.3716 47.7286 97.5705 50.622 95.8079C51.3936 95.3272 51.7794 94.8465 52.3581 94.2056C53.1296 93.8851 53.7083 93.4044 54.287 92.7635C56.216 90.1998 57.7591 87.3156 58.7236 84.2711C59.6881 81.2267 56.4089 78.5028 52.7439 79.3039C44.6422 81.0665 38.2767 86.3542 35.9619 93.084C34.9975 95.8079 37.5051 98.0512 40.5914 98.2114Z" fill="#D98C24"/>
<path d="M6.64185 143.398C10.114 143.558 13.779 142.757 16.6724 140.994C17.444 140.514 17.8298 140.033 18.4085 139.392C19.1801 139.072 19.7587 138.591 20.3374 137.95C22.2664 135.386 23.8096 132.502 24.774 129.458C25.7385 126.413 22.4593 123.689 18.7943 124.49C10.6927 126.253 4.32711 131.541 2.01236 138.27C1.24078 140.994 3.74842 143.238 6.64185 143.398Z" fill="#D98C24"/>
<path d="M-17.0843 65.5239C-13.6122 65.6841 -9.94721 64.883 -7.05378 63.1204C-6.2822 62.6397 -5.8964 62.159 -5.31772 61.5181C-4.54613 61.1976 -3.96745 60.7169 -3.38876 60.076C-1.45981 57.5123 0.0833569 54.6281 1.04783 51.5837C2.01231 48.5392 -1.26691 45.8153 -4.93193 46.6164C-13.0335 48.379 -19.3991 53.6667 -21.7138 60.3965C-22.6783 63.1204 -20.1707 65.2034 -17.0843 65.5239Z" fill="#D98C24"/>
<path d="M22.4592 34.2788C25.9314 34.439 29.5964 33.6379 32.4898 31.8753C33.2614 31.3946 33.6472 30.9139 34.2259 30.273C34.9974 29.9525 35.5761 29.4718 36.1548 28.8309C38.0838 26.2672 39.6269 23.3829 40.5914 20.3385C41.5559 17.2941 38.2767 14.5701 34.6117 15.3713C26.51 17.1338 20.1445 22.4215 17.8297 29.1513C16.8653 31.8753 19.3729 34.1186 22.4592 34.2788Z" fill="#D98C24"/>
<path d="M33.0686 56.5513C34.8047 56.7116 36.3478 56.2309 37.6981 55.4297C38.0839 55.2695 38.2768 54.949 38.4697 54.7888C38.8555 54.6285 39.0484 54.4683 39.4342 54.1478C40.3986 53.0262 40.9773 51.5841 41.556 50.3022C41.9418 48.8601 40.3986 47.7385 38.8555 48.059C35.1905 48.8601 32.1041 51.2636 31.1397 54.4683C30.561 55.4297 31.7183 56.5513 33.0686 56.5513Z" fill="#D98C24"/>
<path d="M-6.86084 17.9341C-5.12478 18.0944 -3.58161 17.6137 -2.23134 16.8125C-1.84555 16.6523 -1.65265 16.3318 -1.45976 16.1716C-1.07397 16.0113 -0.881073 15.8511 -0.495282 15.5307C0.469195 14.409 1.04788 12.967 1.62657 11.6851C2.01236 10.243 0.46919 9.12138 -1.07397 9.44184C-4.73899 10.243 -7.82531 12.6465 -8.78979 15.8511C-9.36848 16.8125 -8.21111 17.7739 -6.86084 17.9341Z" fill="#D98C24"/>
<path d="M12.8145 213.259C14.5505 213.42 16.0937 212.939 17.4439 212.138C17.8297 211.977 18.0226 211.657 18.2155 211.497C18.6013 211.337 18.7942 211.176 19.18 210.856C20.1445 209.734 20.7232 208.292 21.3019 207.01C21.6876 205.568 20.1445 204.447 18.6013 204.767C14.9363 205.568 11.85 207.972 10.8855 211.176C10.1139 212.138 11.2713 213.099 12.8145 213.259Z" fill="#D98C24"/>
<path d="M54.8657 114.555C56.6018 114.715 58.1449 114.235 59.4952 113.434C59.881 113.273 60.0739 112.953 60.2668 112.793C60.6526 112.632 60.8455 112.472 61.2313 112.152C62.1958 110.87 62.7744 109.588 63.3531 108.146C63.7389 106.704 62.1958 105.582 60.6526 105.903C56.9876 106.704 53.9012 109.107 52.9368 112.312C52.3581 113.434 53.5155 114.395 54.8657 114.555Z" fill="#D98C24"/>
<path d="M52.1653 8.64117C53.9013 8.80141 55.4445 8.32071 56.7948 7.51955C57.1806 7.35931 57.3735 7.03886 57.5664 6.87862C57.9522 6.71839 58.145 6.55814 58.5308 6.23767C59.4953 5.11604 60.074 3.67395 60.6527 2.39208C61.0385 0.949985 59.4953 -0.171663 57.9522 0.148804C54.2871 0.94997 51.2008 3.35347 50.2363 6.55814C49.6576 7.51954 50.815 8.48094 52.1653 8.64117Z" fill="#D98C24"/>
</svg>
