<svg width="276" height="262" viewBox="0 0 276 262" fill="none" xmlns="http://www.w3.org/2000/svg">
<path d="M62.3721 60.3808L48.6279 55.612C52.7442 54.7004 58.3953 54.4198 66 55.2614C66 55.2614 62.3721 60.5912 62.1628 67.2534L62.3721 60.3808Z" fill="black"/>
<path d="M49.1861 91.9384C49.1861 89.3437 41.3721 75.9491 38.6512 71.3908L62.093 67.5337C61.9535 72.0219 63.4186 77.001 68.5116 81.349L61.1163 85.9074C61.1163 85.9074 61.5349 95.7955 62.2326 109.891C57.6279 109.681 53.3023 108.489 49.2558 106.525C49.2558 98.25 49.1861 92.6397 49.1861 91.9384Z" fill="black"/>
<path d="M74.3023 217.819C74.1628 218.591 74.2326 219.362 74.5116 220.133C69.6279 220.694 64.1861 220.975 58.4651 220.975C36.6279 220.975 18.9767 216.557 18.9767 211.087C18.9767 206.458 31.7442 202.531 48.9767 201.479C49.9535 188.225 49.6744 144.465 49.4651 116.343C53.6512 117.886 58.1163 118.728 62.7907 118.868C63.1395 125.74 63.5581 133.244 63.9767 140.818C58.1861 142.852 54.2093 146.358 54.9767 148.602C54.9767 148.672 55.0465 148.743 55.1163 148.813C55.1163 148.813 54.5581 152.67 56.3023 156.106C56.6512 156.737 57.2093 158.21 57.907 160.174V160.594C57.907 160.594 53.8605 169.22 55.6047 169.15C57.4186 169.08 59.5116 168.308 59.5116 168.308C59.5116 168.308 59.5814 171.675 61.2558 171.675C61.2558 171.675 61.1163 175.181 63.2791 175.251C63.2791 175.251 62.5116 178.828 64.5349 179.529H65.5814L65.7907 179.319C66.0698 179.81 66.2791 180.23 66.5581 180.721C67.186 189.487 67.8837 196.781 68.4419 201.479C82.3256 202.391 93.2791 205.126 96.8372 208.562C89.8605 210.315 74.9302 214.453 74.3023 217.819Z" fill="black"/>
<path d="M49.4651 116.413C43.6744 114.379 38.3023 111.083 33.7674 106.876C29.2326 102.668 25.5349 97.5485 22.814 92.0083C20.0233 86.4682 18.2791 80.367 17.5116 74.2658C17.3721 72.723 17.093 71.1802 17.093 69.6373L17.0233 67.3231C17.0233 66.5517 17.0233 65.7803 17.093 65.0089C17.2326 61.9232 17.5814 58.8375 18.1395 55.7519C19.3256 49.6507 21.6279 43.7599 24.7674 38.4302C27.907 33.1004 32.0233 28.3317 36.8372 24.4746C41.6512 20.6175 47.2326 17.7423 53.2326 16.1994C59.1628 14.6566 65.5116 14.3761 71.5814 15.428C77.6512 16.5501 83.5116 19.0046 88.5349 22.5811C93.6279 26.0875 98.0232 30.6459 101.442 35.8354C108.349 46.2144 111.419 58.9778 110.442 71.3906C109.953 77.5619 108.558 83.7332 106.047 89.4837C103.605 95.1641 100.186 100.494 95.8605 104.982C91.6046 109.47 86.4419 113.117 80.7907 115.572C75.1395 118.026 68.9302 119.148 62.7907 118.938V118.797C65.8605 118.797 68.9302 118.517 71.8605 117.886C74.8605 117.255 77.7209 116.273 80.5116 115.01C86.093 112.486 91.0465 108.769 95.1628 104.351C103.465 95.3745 108.279 83.4526 109.116 71.3204C109.605 65.2192 109.047 59.1181 107.581 53.1571C106.116 47.2663 103.744 41.5859 100.395 36.4666C97.0465 31.3472 92.8605 26.859 87.907 23.3525C82.9535 19.8461 77.3023 17.3215 71.3023 16.1293C65.3721 14.9371 59.093 15.0774 53.1628 16.6202C47.2326 18.163 41.7209 20.9682 36.9767 24.8252C34.6046 26.7187 32.4419 28.8927 30.4186 31.2069C28.4651 33.5212 26.7209 36.0458 25.186 38.7107C22.186 44.0404 20.093 49.8611 18.9767 55.822C18.4186 58.8375 18.0698 61.8531 18 64.9387C18 65.7101 17.9302 66.4816 18 67.253L18.0698 69.5672C18.0698 71.11 18.2791 72.5827 18.4186 74.1256C19.1163 80.1566 20.7907 86.1175 23.5116 91.6577C26.1628 97.1277 29.7209 102.247 34.1163 106.455C38.5116 110.663 43.7442 114.099 49.3953 116.343L49.4651 116.413Z" fill="black"/>
<path d="M49.3954 106.525C50.0233 106.596 50.5116 106.736 51.0698 106.876C51.3488 106.946 51.6279 107.016 51.8372 107.157C52.1163 107.227 52.3256 107.367 52.6047 107.507C53.093 107.788 53.5814 108.138 54.0698 108.349C54.5581 108.559 55.1163 108.629 55.7442 108.699C56.3023 108.699 56.8605 108.77 57.4186 108.84C57.9768 108.91 58.5349 108.98 59.093 109.05C60.2093 109.26 61.2558 109.541 62.3721 109.962V110.102C61.2558 110.453 60.0698 110.453 58.9535 110.382C58.3954 110.312 57.8372 110.172 57.2791 110.032C56.7209 109.892 56.1628 109.681 55.6744 109.401C55.1861 109.12 54.6279 108.91 54.0698 108.77C53.5116 108.629 52.9535 108.629 52.3954 108.489C51.8372 108.349 51.3488 108.068 50.7907 107.788C50.3023 107.507 49.814 107.157 49.3954 106.736V106.525Z" fill="black"/>
<path d="M100.605 66.9729C100.605 71.391 100.047 75.8091 98.9302 80.087C97.8139 84.3648 96.1395 88.5024 93.8372 92.3594L93.907 92.2192V92.2893L93.8372 92.3594C91.6744 95.936 89.0233 99.232 85.8139 102.037C82.6744 104.772 78.9767 107.016 75.0698 108.489C71.093 109.962 66.907 110.663 62.6512 110.453C58.4651 110.312 54.2791 109.26 50.5116 107.507C48.6279 106.666 46.814 105.544 45.0698 104.422C43.3953 103.159 41.7209 101.897 40.2558 100.424C38.7209 99.0217 37.3953 97.4087 36.0698 95.7256C35.4419 94.8841 34.814 94.0425 34.2558 93.1309C33.6977 92.2192 33.1395 91.3776 32.6512 90.466C28.6046 83.1726 26.5116 74.7572 26.5116 66.4119C26.5116 62.2042 27.0698 57.9965 28.1163 53.929C28.6744 51.8953 29.3023 49.8616 30.1395 47.9681L30.7674 46.4954C30.9767 46.0045 31.2558 45.5136 31.4651 45.0929L32.1628 43.6903C32.4419 43.1994 32.6512 42.7786 32.9302 42.2877C35.0233 38.641 37.6744 35.345 40.814 32.4697C43.8837 29.5945 47.5116 27.3504 51.4186 25.7374C55.3256 24.1946 59.5814 23.353 63.7674 23.353C68.0233 23.353 72.2093 24.1946 76.1163 25.8075C80.0233 27.4205 83.5814 29.8048 86.6512 32.6801C89.7209 35.5554 92.3023 38.9216 94.3953 42.5682L94.4651 42.6384V42.7085L94.3953 42.5682C96.4884 46.285 98.0233 50.2824 99.0698 54.3498C100.116 58.4874 100.605 62.6951 100.605 66.9729ZM100.465 66.9729C100.465 62.7652 99.907 58.5575 98.7907 54.4199C97.6744 50.3525 96 46.4253 93.8372 42.8487L93.7674 42.7786V42.7085L93.8372 42.8487C91.6744 39.3423 89.0233 36.1164 85.9535 33.3814C82.8837 30.6464 79.3953 28.4023 75.6279 26.9296C71.8605 25.3868 67.814 24.5452 63.7674 24.5452C59.7209 24.5452 55.6744 25.3868 51.907 26.9296C48.1395 28.4023 44.6512 30.5763 41.5814 33.3814C38.5116 36.1164 35.9302 39.3423 33.8372 42.8487C33.5581 43.2695 33.2791 43.6903 33.0698 44.1812L32.3721 45.5838C32.1628 46.0747 31.8837 46.4954 31.6744 46.9863L31.0465 48.3889C30.2093 50.2824 29.5116 52.246 28.9535 54.2096C27.907 58.1368 27.3488 62.2743 27.2093 66.4119C27.1395 70.5495 27.5581 74.6871 28.4651 78.7545C29.4419 82.7518 30.9767 86.679 32.9302 90.3257C33.907 92.1491 35.093 93.8321 36.3488 95.5152C37.6744 97.1282 39 98.7411 40.5349 100.074C42 101.546 43.6744 102.738 45.3488 103.931C47.093 105.053 48.8372 106.034 50.7907 106.876C54.5581 108.489 58.6046 109.401 62.7209 109.471C66.7674 109.611 70.8837 108.91 74.7209 107.507C82.3953 104.702 88.8837 99.0217 93.3488 92.0789L93.2791 92.2192V92.1491L93.3488 92.0789C95.7209 88.3621 97.5349 84.2947 98.7209 80.087C99.8372 75.739 100.465 71.391 100.465 66.9729Z" fill="black"/>
<path d="M77.5814 84.3648C86.829 84.3648 94.3256 76.8294 94.3256 67.534C94.3256 58.2385 86.829 50.7031 77.5814 50.7031C68.3338 50.7031 60.8372 58.2385 60.8372 67.534C60.8372 76.8294 68.3338 84.3648 77.5814 84.3648Z" fill="black"/>
<path d="M161.302 42.1472C160.326 42.9186 159.558 44.0407 158.93 45.1627C158.302 46.2848 157.953 47.5471 157.674 48.8094L157.465 49.7912L157.326 50.773C157.256 51.4042 157.256 52.0353 157.186 52.6665C157.186 53.2976 157.186 53.9288 157.256 54.6301L157.465 56.5235V56.5937V56.6638C156.977 59.6092 156.419 62.4845 156.14 65.4299C156.07 66.1312 156 66.9026 156.07 67.6038C156.14 68.3051 156.279 69.0064 156.419 69.7778C156.767 71.1804 157.186 72.583 157.814 73.9154C159 76.5803 160.674 79.0348 162.977 80.788C165.279 82.5412 168.07 83.4529 171 83.4529H171.279L171.419 83.6633C173.651 87.2398 175.814 90.7463 177.907 94.3929C178.395 95.3046 178.953 96.2163 179.442 97.1279C179.581 97.3383 179.721 97.6188 179.791 97.8292L179.93 98.1799C180 98.3201 180.07 98.5305 180.07 98.6708V98.7409C180.07 98.811 180.07 98.8812 180.07 98.9513C180 99.0915 180 99.1617 179.93 99.2318C179.791 99.372 179.721 99.4422 179.651 99.4422C179.442 99.5123 179.302 99.5824 179.163 99.6526C178.884 99.7227 178.605 99.7928 178.326 99.8629C176.233 100.143 174.14 100.284 172.116 100.494C170.093 100.704 168 100.985 166.046 101.406C165.07 101.616 164.093 101.967 163.186 102.317C162.279 102.668 161.442 103.229 160.605 103.86C157.395 106.385 155.093 109.891 152.93 113.398C150.767 116.974 148.884 120.691 147.07 124.408C146.163 126.301 145.256 128.195 144.419 130.088C143.512 131.982 142.674 133.875 141.837 135.769C138.488 143.413 135.279 151.127 132.279 158.911L132.209 159.051L132.07 158.981C129.14 158.28 126.279 157.438 123.419 156.597C120.558 155.755 117.698 154.844 114.837 153.862C111.977 152.88 109.186 151.898 106.395 150.846C103.605 149.794 100.814 148.672 98.093 147.48H98.2326L80.2326 147.13L80.5814 146.358C81.2093 146.989 81.6279 147.691 81.9767 148.462C82.3256 149.233 82.6047 150.005 82.814 150.776C83.2326 152.389 83.3023 154.002 83.2326 155.615C83.1628 157.228 82.814 158.841 82.3954 160.384C81.907 161.927 81.2791 163.399 81 164.872C80.6512 166.345 80.5116 167.888 81 169.22C81.2093 169.851 81.6279 170.412 82.1861 170.763C82.7442 171.113 83.4419 171.324 84.0698 171.254C84.4186 171.254 84.6279 171.113 84.6279 171.043C84.6977 170.833 84.8372 170.623 84.9767 170.482C85.1163 170.342 85.186 170.202 85.2558 170.062C85.5349 169.43 85.7442 168.729 85.8837 167.958C86.1628 166.415 86.3721 164.872 86.5116 163.329V163.049L86.7907 162.908L91.814 159.963L92.1628 159.753L92.5116 160.033C99.6977 165.714 107.093 171.324 114.767 176.303C116.721 177.495 118.674 178.757 120.698 179.809L122.233 180.581L123.767 181.282C124.047 181.422 124.256 181.492 124.535 181.633L125.302 181.913C125.86 182.054 126.349 182.264 126.907 182.334C129.07 182.825 131.372 182.965 133.465 182.474C134.512 182.194 135.558 181.773 136.535 181.212C137.442 180.651 138.349 179.95 139.116 179.178C139.953 178.407 140.651 177.495 141.349 176.654C142.116 175.742 142.744 174.9 143.302 173.848C144.488 171.885 145.674 169.921 146.86 167.888C149.163 163.89 151.465 159.893 153.767 155.896L167.302 131.701L167.372 131.561L167.442 131.631L169.395 133.805L169.326 133.875L167.302 131.771H167.442C163.116 139.976 158.791 148.111 154.326 156.176C152.093 160.244 149.93 164.311 147.628 168.308C146.512 170.342 145.326 172.306 144.14 174.339C143.581 175.321 142.814 176.373 142.116 177.215C141.419 178.126 140.651 179.038 139.814 179.88C138.977 180.721 138.07 181.492 137.023 182.124C135.977 182.755 134.86 183.176 133.674 183.526C131.302 184.087 128.86 183.947 126.558 183.456C126 183.386 125.442 183.176 124.814 182.965L123.977 182.685C123.698 182.615 123.419 182.474 123.14 182.334L121.535 181.633L120 180.861C117.907 179.809 115.953 178.547 114 177.355C110.093 174.9 106.326 172.236 102.558 169.501C98.8605 166.766 95.1628 163.96 91.6047 161.015L92.3023 161.085L87.2093 164.03L87.4884 163.54C87.3488 165.153 87.1395 166.695 86.7907 168.308C86.6512 169.08 86.4419 169.921 86.0233 170.693C85.814 171.113 85.5349 171.394 85.3954 171.674V171.745C85.3954 171.815 85.3256 171.815 85.3256 171.885C85.2558 172.025 85.186 172.025 85.1163 172.095C84.9767 172.236 84.8372 172.306 84.6977 172.306C84.4186 172.446 84.2093 172.446 83.9302 172.516C83.0233 172.586 82.0465 172.376 81.2791 171.815C80.5116 171.324 79.9535 170.482 79.6744 169.711C79.1163 168.028 79.3256 166.275 79.6744 164.732C79.8837 163.96 80.093 163.189 80.3721 162.418C80.6512 161.646 80.8605 160.945 81.1395 160.173C81.5581 158.701 81.907 157.158 81.9767 155.615C82.1163 154.072 81.9767 152.529 81.6279 151.057C81.4884 150.285 81.2093 149.584 80.8605 148.883C80.5814 148.181 80.1628 147.55 79.6744 146.989L78.9767 146.148H80.0233L98.0233 146.709H98.093H98.1628C100.884 147.901 103.605 149.093 106.395 150.145C109.186 151.267 111.977 152.249 114.767 153.231C117.558 154.213 120.419 155.124 123.279 156.036C126.14 156.877 129 157.719 131.93 158.42L131.721 158.56C134.86 150.776 137.93 143.062 141.209 135.348C142.884 131.491 144.488 127.704 146.302 123.917C148.047 120.13 149.93 116.413 152.023 112.767C153.07 110.943 154.186 109.19 155.442 107.507C156.698 105.824 158.093 104.211 159.837 102.878C160.674 102.247 161.581 101.616 162.628 101.195C163.605 100.775 164.651 100.494 165.698 100.214C167.791 99.7227 169.814 99.4422 171.907 99.2318C174 99.0214 176.093 98.8812 178.116 98.6006C178.395 98.5305 178.605 98.5305 178.814 98.4604C178.884 98.4604 179.023 98.3903 179.093 98.3903C179.093 98.3903 179.093 98.4604 179.023 98.4604V98.5305C179.023 98.5305 179.023 98.5305 179.023 98.6006C179.023 98.5305 178.953 98.4604 178.953 98.3903L178.814 98.0396C178.744 97.8292 178.605 97.6188 178.465 97.3383C177.977 96.4267 177.488 95.515 177 94.6033C174.907 90.9566 172.814 87.3801 170.581 83.8737L171 84.084C168 84.0139 164.93 83.0321 162.488 81.1386C160.046 79.2452 158.302 76.6504 157.186 73.9154C156.628 72.5128 156.14 71.1103 155.86 69.6376C155.721 68.8662 155.581 68.1649 155.512 67.3935C155.512 66.622 155.581 65.8506 155.651 65.1494C156 62.204 156.488 59.2586 157.116 56.3132V56.3833L156.977 54.4197C156.977 53.7885 156.977 53.0873 156.977 52.4561C157.047 51.8249 157.047 51.1237 157.186 50.4925L157.326 49.5107L157.535 48.5289C157.884 47.2666 158.302 46.0043 158.93 44.8822C159.558 43.7602 160.395 42.6381 161.442 41.8667L161.302 42.1472Z" fill="black"/>
<path d="M91.5349 160.104C92.0232 159.823 92.5814 159.472 93 159.052C93.4884 158.631 93.8372 158.14 94.186 157.579C94.5349 157.018 94.7442 156.387 94.8837 155.756C95.0232 155.124 95.0233 154.423 94.9535 153.792C95.093 154.423 95.2325 155.124 95.1628 155.826C95.1628 156.527 95.0232 157.228 94.7442 157.859C94.4651 158.491 94.1163 159.122 93.6977 159.683C93.2791 160.244 92.7907 160.735 92.1628 161.226L91.5349 160.104Z" fill="black"/>
<path d="M131.721 158.56C132.977 158.21 134.372 158.14 135.628 158.56C136.256 158.771 136.814 159.192 137.302 159.682C137.721 160.173 138.07 160.804 138.279 161.436C138.698 162.698 138.698 164.03 138.628 165.293C138.558 166.555 138.279 167.817 138 169.08C138.209 167.817 138.419 166.555 138.419 165.293C138.419 164.03 138.349 162.698 137.93 161.576C137.512 160.384 136.605 159.402 135.419 159.051C134.233 158.701 132.977 158.841 131.86 159.192L131.721 158.56Z" fill="black"/>
<path d="M158.442 122.725C158.86 123.706 159.419 124.618 160.046 125.53C160.674 126.371 161.302 127.213 162.07 127.984C162.837 128.756 163.605 129.457 164.442 130.018C165.279 130.649 166.186 131.21 167.163 131.771C166.674 131.631 166.116 131.421 165.628 131.21C165.14 131 164.651 130.719 164.163 130.439C163.186 129.878 162.349 129.176 161.581 128.405C160.814 127.634 160.116 126.722 159.628 125.81C159.07 124.828 158.651 123.847 158.442 122.725Z" fill="black"/>
<path d="M234.558 130.719C231.558 115.011 214.465 87.9409 202.047 93.0603C189.628 98.2498 194.163 116.904 194.163 116.904C194.163 116.904 194.372 137.522 182.791 137.732C171.209 137.943 176.372 99.5121 176.372 99.5121C176.372 99.5121 175.326 95.3745 171.07 97.7589C166.814 100.143 168.209 108.629 169.605 117.886C171 127.143 169.605 131.771 169.605 131.771C163.535 155.895 177.488 162.768 178.605 163.82C179.163 164.381 182.93 171.674 186.349 178.337C193.884 174.269 197.791 171.324 197.86 170.903C198.07 170.061 199.116 131.771 199.116 131.771C199.116 131.771 189.07 105.052 203.023 99.0212C207.837 96.9174 213.488 98.3901 216.977 102.317C223.256 109.47 234.209 124.338 230.163 138.223C230.163 138.223 226.744 143.833 220.744 139.976C220.744 139.976 218.023 175.812 217.465 182.684C216.907 189.557 206.302 193.625 206.302 193.625L208.326 194.186C223.116 190.96 243.209 194.186 243.209 194.186C242.442 192.432 237.558 146.428 234.558 130.719Z" fill="black"/>
<path d="M186.209 178.407C183.07 180.16 179.93 181.773 176.651 183.316C173.442 184.859 170.093 186.261 166.814 187.594C163.465 188.926 160.116 190.188 156.767 191.31C153.349 192.432 149.93 193.555 146.512 194.536L146.721 194.466L141.209 198.884L135.698 203.232L130.186 207.58L128.791 208.632C128.372 208.983 127.814 209.404 127.326 209.684C126.279 210.315 125.093 210.666 124.186 211.227C123.279 211.788 122.651 212.77 122.233 213.822L120.977 217.118C120.14 219.292 119.233 221.466 118.395 223.64C118.326 224.131 118.326 224.762 118.256 225.323V227.076V230.582C118.256 232.967 118.326 235.281 118.326 237.665L118.256 237.525C118.744 237.876 119.372 238.156 120 238.086C120.628 238.016 121.116 237.595 121.465 237.104C121.814 236.543 122.023 235.912 122.302 235.351C122.512 234.72 122.721 234.089 122.86 233.458C123.488 230.863 123.767 228.198 123.977 225.533L124.884 222.307L125.163 221.396L125.442 222.307C126.209 224.832 126.977 227.356 127.884 229.811C128.093 230.442 128.372 231.003 128.651 231.634C128.791 231.915 128.93 232.195 129.07 232.406C129.14 232.546 129.419 232.686 129.698 232.756C130.884 233.107 132.209 233.107 133.465 233.107H133.605L133.674 233.177L135.419 234.229L135.488 234.299L135.558 234.439C136.047 235.491 136.884 236.403 137.791 237.104C138.698 237.806 139.884 238.086 140.93 237.876C142.116 237.735 143.233 237.315 144.209 236.684C145.186 236.123 146.163 235.281 146.93 234.439L146.86 234.93C146.721 234.65 146.442 234.299 146.163 234.089C145.884 233.878 145.465 233.738 145.116 233.668C144.698 233.598 144.279 233.668 143.86 233.738C143.651 233.808 143.442 233.878 143.233 233.949L142.605 234.159L141.907 234.439L141.837 233.738L140.721 226.234L140.651 225.884L140.93 225.673C142.465 224.481 143.93 223.079 145.326 221.676C146.721 220.273 147.977 218.731 149.163 217.118C150.349 215.505 151.326 213.822 152.233 212.068C153.07 210.245 153.628 208.422 153.977 206.458L154.047 206.248L154.186 206.108C158.093 202.671 162.07 199.375 166.186 196.29C168.279 194.747 170.372 193.274 172.535 191.801C174.698 190.399 176.93 189.066 179.372 188.014H179.442H179.512C181.884 187.804 184.186 187.944 186.419 188.225C187.535 188.365 188.721 188.575 189.837 188.786C190.954 188.996 192.14 189.277 193.186 189.697C195.349 190.399 197.512 191.1 199.674 191.801C200.791 192.152 201.837 192.432 202.954 192.783C203.512 192.923 204.07 193.064 204.628 193.204C204.907 193.274 205.186 193.344 205.465 193.344C205.744 193.414 206.023 193.414 206.302 193.344L206.372 193.484C206.093 193.555 205.744 193.555 205.465 193.484C205.186 193.484 204.907 193.414 204.628 193.344C204.07 193.274 203.512 193.134 202.954 192.994C201.837 192.713 200.721 192.432 199.605 192.152C197.372 191.521 195.209 190.89 192.977 190.258C191.86 189.908 190.814 189.697 189.698 189.417C188.581 189.207 187.465 189.066 186.349 188.926C184.116 188.716 181.814 188.646 179.581 188.926H179.721C177.419 189.908 175.256 191.31 173.093 192.713C171 194.116 168.907 195.658 166.884 197.201C164.86 198.744 162.837 200.357 160.884 202.04C158.93 203.653 156.977 205.336 155.023 207.019L155.233 206.669C154.884 208.702 154.256 210.736 153.419 212.629C152.512 214.453 151.465 216.276 150.279 217.889C149.093 219.502 147.767 221.115 146.302 222.518C144.837 223.99 143.372 225.323 141.767 226.585L141.977 226.024L143.023 233.528L142.256 233.107L142.953 232.826C143.233 232.756 143.442 232.686 143.721 232.616C144.209 232.546 144.767 232.476 145.326 232.546C145.884 232.616 146.442 232.826 146.93 233.177C147.419 233.528 147.767 233.949 148.047 234.58L148.186 234.86L147.977 235.071C147.07 236.123 146.093 236.894 144.977 237.525C143.86 238.156 142.605 238.577 141.279 238.787C140.581 238.858 139.884 238.858 139.256 238.647C138.628 238.437 138 238.156 137.442 237.735C136.395 236.894 135.558 235.912 135 234.65L135.14 234.86L133.465 233.738L133.674 233.808C132.349 233.738 131.023 233.738 129.628 233.317C129.488 233.247 129.279 233.177 129.14 233.107C129.07 233.037 128.93 232.967 128.86 232.967C128.791 232.897 128.721 232.826 128.651 232.686C128.442 232.336 128.302 232.055 128.163 231.704C127.884 231.073 127.674 230.442 127.465 229.811C126.558 227.286 125.86 224.762 125.093 222.237H125.651L124.674 225.463V225.393C124.465 228.058 124.116 230.723 123.488 233.387C123.349 234.019 123.14 234.72 122.93 235.351C122.721 235.982 122.442 236.613 122.093 237.245C121.744 237.806 121.116 238.367 120.349 238.437C119.581 238.507 118.953 238.156 118.395 237.735L118.326 237.665V237.595L118.186 230.512V227.006V225.253C118.186 224.621 118.186 224.131 118.326 223.429C119.093 221.185 119.93 219.011 120.767 216.767L122.023 213.471C122.442 212.349 123.14 211.157 124.186 210.456C125.233 209.754 126.349 209.404 127.326 208.772C128.233 208.211 129.14 207.37 130.047 206.669L135.558 202.25L141.07 197.832L146.581 193.484L146.651 193.414H146.721C153.558 191.451 160.395 189.207 167.023 186.682C170.372 185.42 173.651 184.017 176.93 182.615C180.209 181.212 183.419 179.669 186.628 178.056L186.209 178.407Z" fill="black"/>
<path d="M220.326 139.976C220.395 136.4 220.535 132.823 220.744 129.247C220.814 127.493 220.953 125.67 221.093 123.917C221.163 123.005 221.233 122.164 221.372 121.252C221.442 120.831 221.512 120.34 221.581 119.92C221.651 119.709 221.651 119.499 221.721 119.288L221.93 118.657L221.721 119.288C221.651 119.499 221.651 119.709 221.581 119.92C221.512 120.34 221.442 120.831 221.442 121.252C221.372 122.164 221.302 123.005 221.233 123.917C221.093 125.67 221.093 127.493 221.023 129.247C220.953 132.823 220.884 136.4 220.884 139.976H220.326Z" fill="black"/>
<path d="M200.791 188.014C201.907 187.523 202.953 187.033 204 186.401C205.046 185.77 206.023 185.139 206.86 184.368C207.767 183.596 208.535 182.685 209.163 181.703C209.791 180.721 210.139 179.599 210.349 178.407C210.349 179.599 210.139 180.861 209.512 181.983C208.953 183.105 208.116 184.017 207.209 184.859C206.302 185.63 205.256 186.331 204.14 186.822C203.093 187.383 201.977 187.804 200.791 188.014Z" fill="black"/>
<path d="M208.256 194.116C208.326 194.116 208.256 194.045 208.256 194.116L208.465 194.046L208.744 193.975L209.302 193.905L210.349 193.765C211.047 193.695 211.744 193.625 212.512 193.555C213.977 193.484 215.372 193.414 216.837 193.484C219.698 193.555 222.628 194.046 225.349 195.027C226.744 195.518 228.07 196.219 229.186 197.131C230.372 198.043 231.419 199.165 232.116 200.497C232.535 201.128 232.814 201.83 233.023 202.531C233.302 203.232 233.512 203.863 233.721 204.565C234.209 205.967 234.628 207.3 234.977 208.702C235.744 211.507 236.302 214.383 236.372 217.328C236.512 220.274 236.163 223.219 235.047 226.024C233.93 228.759 231.977 231.143 229.535 232.756C228.349 233.598 227.023 234.229 225.628 234.72C224.302 235.281 222.907 235.632 221.442 235.912L214.395 235.842C212.023 235.842 209.721 235.842 207.349 235.842L207.419 235.491C210.419 236.754 213.628 237.736 216.837 238.297C220.047 238.858 223.326 239.138 226.535 238.647C227.372 238.577 228.14 238.297 228.907 238.086C229.674 237.806 230.442 237.595 231.209 237.245C232.744 236.684 234.209 236.052 235.744 235.351C237.209 234.58 238.605 233.878 240 232.967C241.395 232.055 242.651 231.073 243.837 230.021C244.395 229.46 245.023 228.899 245.512 228.268C246.07 227.707 246.488 227.006 246.977 226.375C247.814 225.042 248.651 223.64 249.14 222.097C249.419 221.325 249.558 220.554 249.767 219.783C249.907 219.362 249.907 219.011 249.907 218.59C249.977 218.17 250.047 217.819 250.047 217.398C250.047 215.785 249.977 214.172 249.698 212.559C248.581 206.178 245.791 200.077 242.581 194.396L242.93 194.677C240.14 193.975 237.209 193.414 234.349 193.064C231.419 192.713 228.558 192.433 225.628 192.362C222.698 192.222 219.767 192.433 216.837 192.643L214.674 192.853C213.977 192.923 213.209 193.064 212.512 193.204L211.395 193.414L210.349 193.625C209.721 193.835 209.023 193.975 208.256 194.116ZM208.186 194.186C209.512 193.835 211.047 193.204 212.512 192.994C213.209 192.853 213.977 192.713 214.674 192.573L216.837 192.222C219.767 191.801 222.698 191.661 225.628 191.661C228.558 191.661 231.558 191.801 234.488 192.152C237.419 192.503 240.349 192.923 243.209 193.625L243.419 193.695L243.558 193.905C245.302 196.781 246.767 199.726 248.093 202.812C249.349 205.897 250.395 209.123 250.954 212.419C251.233 214.102 251.372 215.785 251.302 217.468C251.302 217.889 251.233 218.31 251.163 218.731C251.093 219.151 251.093 219.572 250.954 219.993C250.744 220.835 250.605 221.676 250.256 222.448C249.698 224.06 248.86 225.533 247.884 227.006C247.395 227.707 246.907 228.408 246.279 228.969C245.721 229.601 245.093 230.162 244.465 230.793C241.953 233.107 239.093 234.79 236.093 236.263C234.558 236.964 233.023 237.595 231.488 238.156C230.721 238.437 229.884 238.717 229.116 238.928C228.279 239.138 227.512 239.348 226.674 239.419C223.326 239.909 219.977 239.489 216.767 238.858C213.558 238.156 210.349 237.174 207.279 235.842L206.372 235.491H207.349C209.721 235.491 212.023 235.491 214.395 235.491L221.442 235.421H221.372C222.767 235.071 224.093 234.65 225.419 234.089C226.744 233.528 228 232.897 229.116 232.055C231.419 230.442 233.163 228.128 234.14 225.533C235.116 222.938 235.465 220.063 235.256 217.258C235.116 214.453 234.628 211.648 233.93 208.843C233.581 207.44 233.163 206.108 232.744 204.705C232.256 203.373 231.907 201.97 231.209 200.778C229.884 198.393 227.512 196.64 224.93 195.588C222.349 194.536 219.488 194.046 216.698 193.835C215.302 193.695 213.837 193.695 212.442 193.765C211.744 193.765 211.047 193.835 210.279 193.835L209.233 193.905L208.674 193.975H208.395H208.256H208.186C208.256 194.186 208.186 194.186 208.186 194.186Z" fill="black"/>
<path d="M88.4651 174.83C89.4419 173.919 90.4884 173.077 91.5349 172.306C92.093 171.885 92.5814 171.534 93.1395 171.113C93.6977 170.693 94.3256 170.412 94.9535 170.062C97.4651 168.94 100.326 168.589 102.977 169.15C101.651 169.36 100.326 169.571 99.0698 169.921C98.4419 170.062 97.8139 170.272 97.2558 170.482C96.6279 170.693 96.0698 170.903 95.5116 171.184C94.9535 171.464 94.3953 171.745 93.8372 172.095C93.2791 172.446 92.7209 172.797 92.093 173.077C90.907 173.708 89.7209 174.339 88.4651 174.83Z" fill="black"/>
<path d="M118.046 227.918C115.186 229.46 112.046 230.512 108.837 231.144C105.628 231.775 102.349 231.985 99.0697 231.775C95.7907 231.564 92.5814 230.793 89.4418 229.881C86.3023 228.899 83.3023 227.707 80.4418 226.024C79.0465 225.183 77.6511 224.271 76.4651 223.149C75.9069 222.588 75.279 221.957 74.8604 221.255C74.4418 220.554 74.093 219.783 74.0232 218.871C74.0232 218.45 74.0232 218.03 74.1627 217.609C74.3023 217.188 74.5814 216.837 74.9302 216.557C75.5581 215.926 76.2558 215.505 76.9534 215.084C78.3488 214.243 79.8837 213.611 81.3488 212.98C87.4186 210.526 93.6976 208.843 99.9767 207.23V208.492C98.5814 208.071 97.2558 207.58 96 206.949C94.7441 206.318 93.4883 205.617 92.3023 204.845C89.9302 203.303 87.7674 201.339 86.0232 199.095C85.1162 197.973 84.3488 196.781 83.7209 195.518C83.372 194.887 83.093 194.256 82.8139 193.555L82.3953 192.573L82.0465 191.591C81.6279 190.259 81.2093 188.926 80.9302 187.524C80.6511 186.121 80.5116 184.718 80.7907 183.316H80.9302C80.7907 184.718 81 186.051 81.3488 187.383C81.6976 188.716 82.186 190.048 82.6744 191.311C83.7209 193.905 85.0465 196.29 86.7907 198.394C88.5348 200.497 90.6976 202.251 92.9302 203.723C94.0465 204.495 95.3023 205.126 96.4883 205.687C97.6744 206.248 99 206.809 100.256 207.16C100.605 207.23 100.814 207.58 100.674 207.931C100.605 208.141 100.395 208.352 100.186 208.352C97.0465 209.053 93.9069 209.824 90.7674 210.736C87.6279 211.578 84.5581 212.489 81.4883 213.611C79.9534 214.172 78.4883 214.733 77.093 215.505C76.3953 215.856 75.6976 216.276 75.1395 216.837C74.8604 217.118 74.5814 217.398 74.5116 217.749C74.372 218.1 74.372 218.52 74.372 218.871C74.4418 219.642 74.7209 220.414 75.1395 221.045C75.5581 221.746 76.0465 222.307 76.6744 222.868C77.8604 223.92 79.186 224.832 80.6511 225.603C83.5116 227.076 86.5814 228.128 89.7209 228.97C92.8604 229.811 96 230.512 99.1395 230.793C105.488 231.284 112.046 230.302 117.977 227.848L118.046 227.918Z" fill="black"/>
<path d="M140.372 178.337C143.233 178.337 146.023 178.547 148.814 178.898C150.209 179.038 151.605 179.249 153 179.459C154.395 179.669 155.791 179.88 157.186 180.16C159.977 180.651 162.698 181.282 165.488 181.984C168.209 182.685 170.93 183.456 173.581 184.438C168 183.386 162.488 182.334 156.977 181.282C154.186 180.721 151.465 180.301 148.674 179.81C145.953 179.319 143.163 178.898 140.372 178.337Z" fill="black"/>
<path d="M100.116 207.791C101.93 208.211 103.744 208.772 105.558 209.333C107.372 209.894 109.116 210.526 110.93 211.087L116.233 212.91C117.977 213.471 119.791 214.172 121.605 214.593C119.721 214.663 117.837 214.242 115.953 213.822C114.14 213.401 112.326 212.84 110.512 212.209C108.698 211.577 106.953 210.946 105.209 210.175C103.465 209.474 101.791 208.702 100.116 207.791Z" fill="black"/>
<path d="M103.535 183.386C106.884 184.508 110.233 185.49 113.651 186.331C117.07 187.173 120.488 188.014 123.977 188.575C124.814 188.716 125.721 188.856 126.558 188.996L129.209 189.417C130.954 189.697 132.698 190.118 134.372 190.749C136.047 191.31 137.721 192.012 139.256 192.993C140.791 193.905 142.256 195.027 143.442 196.5L142.535 197.271C141.488 195.939 140.163 194.817 138.698 193.905C137.233 192.993 135.698 192.222 134.023 191.661C132.419 191.03 130.744 190.609 129 190.258L126.419 189.767C125.581 189.627 124.674 189.417 123.837 189.277C120.349 188.575 116.93 187.664 113.581 186.682C110.233 185.63 106.884 184.578 103.535 183.386Z" fill="black"/>
<path d="M180.558 222.097C181.256 222.728 181.814 223.289 182.372 223.78C182.651 223.99 182.93 224.201 183.279 224.411C183.628 224.621 183.977 224.832 184.395 225.112C183.488 225.533 182.372 225.323 181.605 224.691C181.186 224.411 180.907 223.99 180.698 223.569C180.558 223.078 180.488 222.588 180.558 222.097Z" fill="black"/>
<path d="M165.977 225.042C167.093 223.85 168.209 222.658 169.256 221.395C169.814 220.764 170.302 220.133 170.791 219.502C171 219.221 171.279 218.801 171.628 218.52C171.977 218.24 172.326 217.959 172.674 217.819C174.209 217.048 175.953 216.907 177.628 216.977C179.302 217.048 180.907 217.468 182.512 217.889C185.651 218.731 188.791 219.642 191.93 220.554C195.07 221.466 198.14 222.377 201.279 223.499L203.581 224.411C204.349 224.762 205.116 225.112 205.814 225.673C207.279 226.725 208.047 228.478 208.256 230.162C208.465 231.845 208.256 233.528 207.907 235.141C207.767 235.982 207.488 236.824 206.93 237.525C206.442 238.226 205.814 238.857 205.116 239.348C203.721 240.33 202.186 240.961 200.651 241.522C199.116 242.083 197.512 242.434 195.907 242.715C194.302 242.995 192.698 243.205 191.023 243.346C190.605 243.346 190.186 243.416 189.767 243.416C189.419 243.416 189.07 243.556 188.791 243.837C188.233 244.398 187.814 245.099 187.465 245.8C186.698 247.203 186.14 248.746 185.651 250.288C185.163 251.831 184.744 253.444 184.465 254.987C184.395 255.408 184.395 255.758 184.465 256.109C184.535 256.46 184.744 256.74 185.023 256.951C185.581 257.442 186.419 257.932 186.767 258.774C186.907 258.984 186.907 259.195 186.977 259.475C186.977 259.615 186.977 259.686 186.977 259.826C186.977 259.966 186.977 260.036 186.977 260.177C186.977 260.317 186.907 260.457 186.837 260.597C186.767 260.738 186.698 260.878 186.558 260.948C186.349 261.158 186.14 261.228 185.93 261.369C185.093 261.719 184.256 261.789 183.419 261.86C180.14 262 176.86 261.579 173.651 261.649C173.233 261.649 172.884 261.719 172.395 261.719C171.907 261.719 171.488 261.579 171 261.439C170.093 261.088 169.395 260.317 168.977 259.545C168.558 258.774 168.279 257.932 168 257.161C167.86 256.81 167.791 256.39 167.651 256.109C167.651 256.039 167.581 256.039 167.651 256.109C167.651 256.109 167.721 256.109 167.791 256.179H167.86H167.791H167.651C167.442 256.179 167.233 256.179 166.953 256.109C166.535 256.039 166.046 255.899 165.628 255.688C165.209 255.478 164.791 255.057 164.512 254.566C164.302 254.075 164.233 253.514 164.233 253.023C164.302 252.533 164.372 252.182 164.442 251.761C164.86 250.148 165.349 248.605 165.698 246.992C165.907 246.221 166.047 245.45 166.116 244.678L166.186 244.117L166.256 243.486C166.326 243.065 166.465 242.644 166.605 242.224C167.093 240.611 167.791 239.068 168.488 237.595C169.884 234.65 171.558 231.774 172.884 228.899C173.023 228.619 173.023 228.338 172.953 228.128C172.884 227.917 172.674 227.637 172.395 227.427C171.837 227.006 171.14 226.725 170.372 226.445C168.907 225.954 167.302 225.743 165.698 225.603L166.047 225.533C164.302 226.795 162.349 227.917 160.326 228.549C158.302 229.25 156.14 229.671 154.047 229.881C151.884 230.091 149.791 230.091 147.628 229.881C145.535 229.671 143.372 229.39 141.349 228.899V228.759C143.442 229.18 145.535 229.39 147.628 229.46C149.721 229.53 151.814 229.46 153.907 229.18C156 228.899 158.023 228.408 159.977 227.707C161.93 226.936 163.744 225.954 165.349 224.692L165.488 224.551H165.698C167.372 224.692 168.977 224.902 170.651 225.393C171.488 225.673 172.256 225.954 173.023 226.515C173.372 226.795 173.791 227.216 173.93 227.707C174.14 228.268 174 228.829 173.86 229.32C173.163 230.863 172.395 232.265 171.698 233.738C170.93 235.211 170.233 236.613 169.535 238.086C168.837 239.559 168.209 241.031 167.721 242.504C167.581 242.855 167.512 243.276 167.442 243.626L167.372 244.187L167.302 244.818C167.233 245.66 167.023 246.501 166.884 247.273C166.535 248.886 165.977 250.429 165.558 251.971C165.488 252.322 165.419 252.743 165.349 253.094C165.279 253.444 165.349 253.725 165.488 253.935C165.698 254.426 166.326 254.777 167.023 254.847C167.233 254.847 167.372 254.917 167.581 254.917H167.721C167.721 254.917 167.791 254.917 167.86 254.917C167.93 254.917 168.07 254.987 168.14 254.987C168.419 255.197 168.488 255.338 168.558 255.478C168.767 255.969 168.907 256.319 168.977 256.74C169.186 257.512 169.465 258.283 169.814 258.914C170.163 259.545 170.651 260.106 171.279 260.317C171.558 260.457 171.907 260.527 172.256 260.527C172.605 260.527 173.023 260.527 173.442 260.527C176.721 260.527 180 261.018 183.209 260.948C183.977 260.948 184.814 260.878 185.442 260.597C185.791 260.457 186 260.247 186 260.036V259.966V259.826V259.545C185.93 259.405 185.93 259.195 185.86 259.054C185.581 258.423 184.953 258.003 184.326 257.371C183.977 257.091 183.698 256.67 183.558 256.179C183.419 255.688 183.558 255.268 183.628 254.847C183.977 253.234 184.465 251.621 184.953 250.078C185.512 248.535 186.07 246.992 186.837 245.52C187.256 244.818 187.674 244.047 188.302 243.486C188.442 243.346 188.651 243.205 188.86 243.135C189 243.065 189.07 243.065 189.209 242.995C189.349 242.995 189.488 242.995 189.558 242.995C189.977 242.995 190.395 242.995 190.744 242.925C192.349 242.785 193.953 242.574 195.558 242.294C197.163 242.013 198.698 241.592 200.233 241.031C201.767 240.47 203.233 239.769 204.488 238.857C205.744 237.876 206.651 236.613 206.86 235C207.14 233.387 207.279 231.774 207.07 230.232C207 229.881 206.93 229.46 206.791 229.11C206.651 228.759 206.581 228.408 206.372 228.058C206.023 227.427 205.535 226.795 204.907 226.375C203.721 225.463 202.116 225.042 200.581 224.411C194.442 222.307 188.233 220.414 182.023 218.59C180.488 218.099 178.953 217.679 177.349 217.538C175.814 217.398 174.14 217.538 172.744 218.17C172.395 218.31 172.046 218.52 171.767 218.731C171.488 218.941 171.279 219.292 171 219.572C170.442 220.203 169.884 220.764 169.326 221.395C168.209 222.588 167.023 223.71 165.837 224.832L165.977 225.042Z" fill="black"/>
<path d="M169.744 246.642C170.512 246.922 171.279 247.343 171.907 247.904C172.605 248.465 173.163 249.096 173.581 250.008C173.93 250.849 173.86 251.971 173.442 252.813C173.023 253.654 172.326 254.356 171.698 254.847L171.419 253.795C171.907 253.865 172.395 253.935 172.884 254.075C173.372 254.215 173.86 254.356 174.279 254.566C174.698 254.777 175.186 255.057 175.535 255.478C175.884 255.899 176.233 256.46 176.302 257.021L175.465 256.6C175.884 256.389 176.233 256.319 176.651 256.249C177.07 256.179 177.419 256.179 177.837 256.179C178.256 256.179 178.605 256.319 179.023 256.389C179.372 256.53 179.721 256.74 180.07 256.95L179.512 257.021C179.93 256.67 180.279 256.46 180.767 256.319C181.186 256.179 181.674 256.109 182.093 256.179C182.512 256.179 183 256.319 183.419 256.46C183.628 256.53 183.837 256.6 184.046 256.74L184.605 257.021L183.977 256.88C183.767 256.88 183.558 256.81 183.349 256.74C182.93 256.67 182.512 256.67 182.163 256.74C181.744 256.81 181.395 256.88 181.046 257.021C180.698 257.161 180.349 257.441 180.209 257.652L180 257.932L179.651 257.792C179.372 257.652 179.093 257.512 178.744 257.441C178.465 257.371 178.116 257.301 177.837 257.301C177.488 257.301 177.209 257.301 176.86 257.441C176.581 257.512 176.233 257.652 175.953 257.722L175.326 258.073L175.186 257.301C175.116 256.95 174.977 256.67 174.698 256.389C174.419 256.109 174.14 255.899 173.721 255.758C173.372 255.618 172.953 255.408 172.535 255.338C172.116 255.197 171.698 255.127 171.279 255.057L169.814 254.917L170.93 254.075C171.558 253.584 172.116 253.093 172.465 252.462C172.814 251.831 172.953 251.13 172.744 250.429C172.535 249.727 172.046 249.026 171.558 248.465C171 247.623 170.372 247.062 169.744 246.642Z" fill="black"/>
<path d="M182.721 239.208C182.93 240.4 183 241.592 182.93 242.714C182.86 243.907 182.651 245.099 182.302 246.221C181.953 247.343 181.465 248.535 180.698 249.447C179.93 250.429 178.814 251.2 177.558 251.2C178.674 250.709 179.372 249.868 179.93 248.956C180.209 248.465 180.419 247.974 180.628 247.483C180.837 246.992 181.047 246.431 181.186 245.87C181.535 244.818 181.744 243.696 182.023 242.574C182.233 241.452 182.442 240.33 182.721 239.208Z" fill="black"/>
<path d="M189.698 243.346C189.698 242.364 189.767 241.452 189.837 240.54C189.907 239.629 190.116 238.717 190.256 237.805C190.465 236.894 190.605 235.982 190.814 235.07C191.023 234.159 191.233 233.247 191.512 232.335C191.721 233.247 191.791 234.229 191.721 235.211C191.721 236.193 191.581 237.104 191.372 238.016C191.163 238.928 190.953 239.839 190.674 240.751C190.465 241.592 190.116 242.504 189.698 243.346Z" fill="black"/>
<path d="M161.163 205.897C161.023 206.598 161.023 207.229 161.093 207.72C161.163 208.281 161.442 208.702 161.791 209.123C161.93 209.333 162.209 209.474 162.419 209.684C162.628 209.824 162.907 210.035 163.186 210.175C163.465 210.315 163.744 210.525 164.023 210.666C164.302 210.806 164.581 210.946 164.86 211.157C164.512 211.227 164.163 211.227 163.814 211.227C163.465 211.227 163.116 211.157 162.767 211.016C162.419 210.946 162.07 210.806 161.791 210.596C161.512 210.385 161.163 210.175 160.884 209.894C160.326 209.333 160.047 208.492 160.116 207.72C160.256 207.019 160.605 206.318 161.163 205.897Z" fill="black"/>
<path d="M96.4186 181.913C96.907 181.493 97.5349 181.142 98.2326 180.932C98.8605 180.721 99.5581 180.581 100.256 180.651C100.953 180.651 101.651 180.721 102.279 181.002C102.907 181.212 103.535 181.563 104.093 181.913C103.465 181.703 102.837 181.563 102.14 181.422C101.512 181.282 100.884 181.212 100.186 181.212C99.5581 181.212 98.9302 181.282 98.2326 181.352C97.6744 181.493 97.0465 181.633 96.4186 181.913Z" fill="black"/>
<path d="M78.907 224.551L85.8837 222.097L79.3953 225.673L78.907 224.551Z" fill="black"/>
<path d="M74.8605 220.765L81.8372 218.31L75.3488 221.816L74.8605 220.765Z" fill="black"/>
<path d="M85.814 227.988L90.3488 226.305L86.3023 229.04L85.814 227.988Z" fill="black"/>
<path d="M90.907 229.32L95.7907 228.759L91.186 230.442L90.907 229.32Z" fill="black"/>
<path d="M124.814 222.447C124.744 220.975 124.814 219.502 125.093 218.099C125.233 217.398 125.442 216.697 125.791 215.996C126.14 215.364 126.628 214.733 127.326 214.523C126.628 214.803 126.209 215.364 125.93 216.066C125.651 216.697 125.512 217.398 125.372 218.099C125.163 219.502 125.233 220.975 125.372 222.377L124.814 222.447Z" fill="black"/>
<path d="M132.907 233.808C132.488 232.546 132.14 231.284 131.791 230.021C131.442 228.759 131.163 227.427 130.953 226.164C130.744 224.832 130.605 223.499 130.605 222.237C130.605 221.606 130.674 220.905 130.884 220.273C131.023 219.642 131.372 219.011 131.86 218.59C131.372 219.011 131.093 219.642 131.023 220.273C130.884 220.905 130.884 221.536 130.953 222.237C131.023 223.499 131.302 224.832 131.581 226.094C131.86 227.356 132.279 228.619 132.698 229.811C133.116 231.073 133.605 232.265 134.093 233.458L132.907 233.808Z" fill="black"/>
<path d="M134.581 234.65L135.14 225.112L135.767 234.65H134.581Z" fill="black"/>
<path d="M55.0465 148.813C55.6744 149.374 56.3721 149.795 57.1396 149.935C57.907 150.145 58.7442 150.145 59.5117 150.145C60.3489 150.145 61.1163 150.005 61.8837 149.795C62.6512 149.654 63.4884 149.444 64.1861 149.163H64.2558C65.3023 148.743 66.4186 148.462 67.4651 148.041C68.5116 147.621 69.5582 147.13 70.5349 146.569C71.5116 146.008 72.4884 145.377 73.3256 144.675C74.1628 143.974 74.9303 143.132 75.2093 142.221C75.3489 141.8 75.3489 141.379 75.0698 141.029C74.8605 140.678 74.3721 140.397 73.8837 140.257C72.907 139.907 71.7209 139.836 70.6047 139.836C68.3023 139.836 66 140.327 63.7675 140.888C65.9303 139.977 68.1628 139.275 70.5349 139.065C71.7209 138.995 72.907 138.995 74.1628 139.345C74.7907 139.556 75.4186 139.836 75.8372 140.468C76.3256 141.099 76.3954 141.94 76.1861 142.571C75.9768 143.273 75.6279 143.834 75.2791 144.325C74.8605 144.815 74.4419 145.236 73.9535 145.657C73.0465 146.428 72 147.13 70.9535 147.691C69.907 148.252 68.7907 148.743 67.7442 149.163C67.1861 149.374 66.6279 149.584 66.0698 149.724L64.3256 150.215H64.3954C63.5582 150.426 62.721 150.636 61.8837 150.776C61.0465 150.917 60.2093 150.917 59.3721 150.917C58.5349 150.847 57.6977 150.776 56.8605 150.426C56.3024 150.005 55.5349 149.514 55.0465 148.813Z" fill="black"/>
<path d="M76.0465 141.52C76.6046 141.59 77.093 142.01 77.5814 142.361C78 142.712 78.4186 143.203 78.7674 143.623C79.1163 144.044 79.4651 144.535 79.7442 145.026C80.0232 145.517 80.3023 146.008 80.5814 146.569L80.4419 146.429L80.5116 146.499L80.5814 146.639C80.7907 147.2 81 147.831 81.2093 148.462C81.4186 149.093 81.5581 149.654 81.7674 150.286C81.907 150.917 82.1163 151.548 82.2558 152.109C82.3953 152.74 82.5349 153.371 82.6046 154.002C82.2558 153.441 81.9767 152.88 81.6977 152.319C81.4186 151.758 81.1395 151.197 80.9302 150.566C80.6512 150.005 80.4418 149.374 80.2325 148.813C80.0232 148.182 79.8139 147.621 79.6046 146.99L79.7442 147.2L79.6744 147.13L79.6046 147.06C79.3953 146.569 79.1163 146.078 78.907 145.587C78.6977 145.096 78.4186 144.605 78.1395 144.114C77.8605 143.623 77.5814 143.203 77.3023 142.712C76.814 142.291 76.4651 141.87 76.0465 141.52Z" fill="black"/>
<path d="M65.3721 145.727C65.0233 145.727 64.6744 145.517 64.5349 145.166C64.3256 144.675 64.6047 144.184 65.0233 144.044L72.2093 141.309C72.6977 141.098 73.186 141.379 73.3256 141.8C73.5349 142.291 73.2558 142.782 72.8372 142.922L65.6512 145.657C65.6512 145.727 65.5116 145.727 65.3721 145.727Z" fill="black"/>
<path d="M195.279 80.0166L196.256 83.8035C196.605 85.0659 196.954 86.258 197.442 87.4502C197.86 88.6424 198.419 89.7645 199.116 90.7463C199.814 91.7281 200.791 92.5696 201.977 93.0605C200.651 93.0605 199.326 92.3592 198.419 91.3073C197.442 90.3255 196.814 89.0632 196.326 87.8009C195.837 86.5386 195.558 85.2762 195.349 83.9438C195.14 82.6815 195.07 81.349 195.279 80.0166Z" fill="black"/>
<path d="M161.581 38.0097C161.581 38.0097 158.023 44.181 162.419 42.0771C166.814 39.9733 168 47.8978 185.791 43.5498C185.791 43.5498 187.535 69.0766 193.744 62.0637C199.954 55.0509 203.86 60.9417 202.605 64.5182C201.349 68.0948 194.651 69.2168 193.744 70.2688C192.907 71.2506 191.023 82.4711 196.605 80.5776C202.186 78.6842 205.605 70.8298 207.279 62.8351C207.279 62.8351 210.698 58.6976 218.721 64.8689C226.674 71.0402 252.698 75.879 259.535 63.6066C266.372 51.3341 274.674 46.7056 275.93 47.6874C275.93 47.6874 256.674 43.8303 249.977 51.1237C243.279 58.417 223.605 48.9497 222.907 47.9679C222.209 46.9861 216.488 45.3732 208.954 50.4224C208.954 50.4224 204.837 31.3475 186.558 30.9267C168.279 30.4358 161.581 38.0097 161.581 38.0097Z" fill="black"/>
<path d="M170.93 83.2423C171.628 83.3125 172.395 83.3125 173.093 83.3125C173.791 83.2424 174.558 83.1722 175.256 83.1021C175.953 82.9618 176.721 82.8216 177.419 82.5411C178.116 82.3307 178.814 81.98 179.442 81.6294C178.814 82.0502 178.186 82.4709 177.488 82.8216C176.791 83.1722 176.093 83.4527 175.395 83.6631C174.698 83.8735 173.93 84.0839 173.163 84.2241C172.395 84.3644 171.628 84.4345 170.86 84.5047L170.93 83.2423Z" fill="black"/>
<path d="M157.186 50.5625C157.535 50.1417 157.953 49.791 158.372 49.5807C158.791 49.3001 159.279 49.0898 159.767 48.9495C160.256 48.8093 160.744 48.7391 161.302 48.8092C161.791 48.8794 162.419 48.9495 162.767 49.4404C162.209 49.5105 161.791 49.6508 161.372 49.7911L160.046 50.2118C159.628 50.3521 159.14 50.4222 158.651 50.5625C158.233 50.4923 157.744 50.5625 157.186 50.5625Z" fill="black"/>
<path d="M169.744 49.1598C170.791 48.7391 171.977 48.4586 173.093 48.3183C174.209 48.178 175.395 48.1079 176.581 48.1079C177.767 48.178 178.884 48.3183 180 48.6689C181.116 49.0196 182.233 49.5806 183 50.4222C181.953 49.9313 180.837 49.7209 179.791 49.5105C178.674 49.3702 177.628 49.23 176.512 49.23C174.279 49.23 172.046 49.3001 169.744 49.1598Z" fill="black"/>
<path d="M161.791 69.4271C162.349 70.4089 162.907 71.3206 163.605 71.9517C163.953 72.2323 164.372 72.4426 164.721 72.5128C165.14 72.5829 165.488 72.4426 165.907 72.2323C166.814 71.7414 167.721 71.2505 168.628 70.6894C169.535 70.1284 170.442 69.5674 171.349 69.0063C170.791 69.918 170.023 70.7596 169.186 71.4608C168.349 72.1621 167.442 72.7933 166.465 73.2842C165.907 73.4946 165.279 73.7751 164.581 73.6348C163.884 73.4946 163.326 73.1439 162.977 72.653C162.209 71.6011 161.86 70.5492 161.791 69.4271Z" fill="black"/>
<path d="M164.791 50.5625C165.349 51.7547 165.628 53.017 165.628 54.4196C165.628 55.1208 165.488 55.8221 165.139 56.5234C165 56.6637 164.86 56.8741 164.791 57.0143L164.512 57.365C164.302 57.5753 164.093 57.8559 163.953 58.0662C163.186 58.9779 162.628 60.0298 162.488 61.1519C162.279 62.274 162.698 63.5363 163.256 64.6583C162.767 64.2375 162.349 63.6765 162.07 63.1155C161.93 62.835 161.791 62.4843 161.721 62.1337C161.651 61.7831 161.581 61.4324 161.581 61.0818C161.581 60.3805 161.721 59.6792 162 59.048C162.279 58.4169 162.628 57.8559 163.046 57.2948C163.256 57.0143 163.465 56.8039 163.674 56.5234L163.953 56.1026C164.093 55.9624 164.093 55.8923 164.233 55.8221C164.512 55.4715 164.651 54.8403 164.791 54.2793C164.93 53.0871 164.86 51.8248 164.791 50.5625Z" fill="black"/>
<path d="M156.628 59.6092C157.465 59.1183 158.302 58.908 159.14 58.7677C159.558 58.6976 159.977 58.6976 160.395 58.6274C160.814 58.6274 161.233 58.6274 161.721 58.6274C161.442 59.0482 161.023 59.3287 160.605 59.5391C160.186 59.7495 159.698 59.8898 159.279 59.8898C158.86 59.9599 158.372 59.9599 157.954 59.8898C157.535 59.9599 157.116 59.8196 156.628 59.6092Z" fill="black"/>
<path d="M171.349 56.3833C172.326 56.5236 173.233 56.5937 174.14 56.6638C175.047 56.7339 175.953 56.8041 176.86 56.8742C177.767 56.9443 178.674 57.0145 179.581 57.1547C180.488 57.2248 181.465 57.3651 182.372 57.5755C181.465 57.856 180.488 57.9962 179.581 58.1365C178.605 58.2066 177.698 58.2066 176.721 58.1365C175.744 58.0664 174.837 57.9261 173.93 57.6456C173.023 57.295 172.116 56.9443 171.349 56.3833Z" fill="black"/>
<path d="M27.0698 73.5649L27 73.2844C26.7209 71.1806 26.5814 69.0767 26.5814 66.9728C26.5814 60.7314 27.6977 54.7004 29.8605 49.0901L29.9302 48.8096L48.6279 55.3315L48.4186 55.8925L30.2093 49.581C28.1163 55.051 27.0698 60.9418 27.0698 66.9728C27.0698 68.9364 27.2093 70.9702 27.4186 72.9338L38.5116 71.1104L38.5814 71.6715L27.0698 73.5649Z" fill="black"/>
<path d="M79.2558 64.2378L72.0698 61.8535L76.4651 26.2983L76.814 26.4386C84 29.5944 90.0698 35.1345 94.3954 42.5681L94.4651 42.6383V42.7785L94.3954 42.8487L79.2558 64.2378ZM72.6977 61.4327L78.9767 63.5366L93.7674 42.7084C89.5814 35.6254 83.7907 30.2255 76.9535 27.1399L72.6977 61.4327Z" fill="black"/>
<path d="M76.7442 107.507L74.5116 75.3883L81.5581 72.6533L93.8372 92.0789V92.2893L93.7674 92.3594C89.5116 99.1619 83.7907 104.351 77.093 107.367L76.7442 107.507ZM75.2093 75.8091L77.3023 106.596C83.6511 103.65 89.1628 98.671 93.2093 92.149L81.3488 73.3546L75.2093 75.8091Z" fill="black"/>
<path d="M0.279083 55.8223C0.767455 46.916 3.00001 38.0798 6.69769 29.9449C10.4651 21.81 16.0465 14.3763 23.3721 9.04657L24.7675 8.06478C25.2558 7.78426 25.6744 7.43362 26.1628 7.15311L29.093 5.47002C30.1395 4.97912 31.1163 4.55835 32.1628 4.06745L32.9302 3.71681C33.2093 3.71681 33.4884 3.57655 33.6977 3.50642L35.3023 2.9454L36.907 2.38437C37.4651 2.24411 38.0233 2.10385 38.5116 1.9636C39.6279 1.68308 40.6744 1.40257 41.7907 1.12206C44.0233 0.771413 46.1861 0.280514 48.4186 0.210385L50.093 0.0701285C50.6512 0.0701285 51.2093 0 51.7675 0H55.1163C55.6744 0 56.2326 0 56.7907 0L58.4651 0.140257L61.814 0.420771C64.0465 0.701285 66.2093 1.05193 68.4419 1.40257C70.6047 1.89347 72.7675 2.31424 74.9303 2.80514L68.3721 1.68308C66.1395 1.4727 63.9768 1.19218 61.7442 0.981799L58.4651 0.841542L56.7209 0.701285C56.1628 0.701285 55.6047 0.701285 55.0465 0.701285L51.7675 0.771413C51.2093 0.771413 50.6512 0.841542 50.093 0.91167L48.4186 1.05193C46.1861 1.19218 44.093 1.68308 41.9302 2.03373C40.8837 2.24411 39.8372 2.59475 38.7209 2.87527C38.1628 3.01552 37.6744 3.15578 37.1163 3.29604L35.5814 3.85707L34.0465 4.41809C33.7675 4.48822 33.5582 4.62848 33.2791 4.69861L32.5116 5.04925C31.5349 5.54015 30.4884 5.96092 29.5116 6.45182L26.6512 8.06478C25.6744 8.6258 24.8372 9.32709 23.9302 9.88812C20.3721 12.4127 17.1628 15.4984 14.4419 18.9347C11.6512 22.371 9.41862 26.1579 7.46513 30.1552C5.58141 34.2928 4.04653 38.5005 2.86048 42.7784C1.67443 46.9861 0.767455 51.4042 0.279083 55.8223Z" fill="black"/>
<path d="M21.2093 23.9838C26.1628 18.2333 32.3023 13.5347 39.0698 10.0984C42.4884 8.41531 46.1163 7.153 49.814 6.31146C53.5116 5.46992 57.3488 5.11928 61.1861 5.32966C65.0233 5.54005 68.7907 6.1712 72.4186 7.36339C76.0465 8.55557 79.5349 10.0984 82.814 12.1321C86.093 14.0256 89.093 16.41 92.0233 18.7943C93.4186 20.0566 94.814 21.3891 96.2093 22.6514C97.5349 24.054 98.7907 25.3864 100.116 26.789C98.7209 25.4565 97.3954 24.1942 96 22.8618C94.5349 21.6696 93.1395 20.4073 91.6744 19.2151C88.6744 16.9009 85.6744 14.6567 82.3256 12.9035L81.0698 12.2023L80.4419 11.8516L79.814 11.5711L77.3023 10.3789C76.8837 10.1685 76.4651 10.0283 76.0465 9.81788L74.7209 9.32698L73.3954 8.83608C72.9768 8.69583 72.4884 8.55557 72.0698 8.41531C68.5814 7.29326 64.8837 6.6621 61.1861 6.45172C53.7209 6.10107 46.2558 7.85429 39.4884 11.0101C36.0698 12.5529 32.8605 14.5165 29.7907 16.6905C26.7209 18.8645 23.8605 21.319 21.2093 23.9838Z" fill="black"/>
<path d="M0.27907 64.5884C0.418605 67.2533 0.697674 69.9181 0.976744 72.583C1.11628 73.9155 1.25581 75.2479 1.46512 76.5102L1.74419 78.4738L2.09302 80.4374C2.16279 81.0686 2.37209 81.6997 2.51163 82.401C2.65116 83.0322 2.7907 83.6633 3 84.3646C3.13953 84.9958 3.34884 85.6269 3.48837 86.2581C3.69767 86.8892 3.90698 87.5204 4.04651 88.1516C4.88372 90.6762 5.93023 93.0605 7.39535 95.3748C5.5814 93.4112 4.25581 90.9567 3.2093 88.5022C2.16279 85.9776 1.46512 83.3828 0.976744 80.7179C0.488372 78.053 0.209302 75.3882 0.0697674 72.7233C-0.0697674 69.9883 0 67.2533 0.27907 64.5884Z" fill="black"/>
<path d="M77.5116 124.829C79.9535 123.777 82.3954 122.655 84.7675 121.532C85.9535 120.971 87.1396 120.34 88.3256 119.709L90.0698 118.797L91.814 117.816C92.3721 117.535 92.9302 117.114 93.4884 116.764C94.0465 116.413 94.6047 116.062 95.1628 115.712C95.7209 115.361 96.2791 115.011 96.7675 114.59C97.2558 114.169 97.814 113.818 98.3721 113.398C100.395 111.714 102.349 109.961 104.023 107.857C102.767 110.242 100.954 112.276 98.9303 114.099C96.907 115.922 94.6744 117.465 92.3721 118.797C90.0698 120.2 87.6279 121.322 85.1163 122.374C82.6744 123.426 80.1628 124.267 77.5116 124.829Z" fill="black"/>
<path d="M115.535 48.7394C116.163 47.2667 117.488 46.1447 118.953 45.5135C120.419 44.8824 122.093 44.8122 123.698 45.0226C126.837 45.4434 129.907 46.2849 132.977 46.9161C133.744 47.0564 134.512 47.1966 135.279 47.2667C136.047 47.3369 136.814 47.407 137.512 47.1966C137.721 47.1265 137.86 47.0564 138 46.9862C138.14 46.9161 138.279 46.7758 138.419 46.7057C138.558 46.5655 138.767 46.4252 138.977 46.3551C139.186 46.2849 139.326 46.1447 139.535 46.0746C140.372 45.794 141.209 45.8642 141.977 45.9343C143.581 46.1447 145.047 46.6356 146.581 47.1265L151.047 48.6693C149.512 48.3187 147.977 47.8278 146.512 47.407C144.977 46.9862 143.512 46.5655 141.977 46.3551C141.209 46.2849 140.442 46.2849 139.744 46.4953C139.535 46.5655 139.395 46.6356 139.256 46.7057C139.116 46.7758 138.977 46.9161 138.837 46.9862C138.628 47.1265 138.488 47.2667 138.279 47.3369C138.07 47.407 137.86 47.4771 137.651 47.5473C136.814 47.7576 135.977 47.7576 135.209 47.6875C134.442 47.6174 133.605 47.4771 132.837 47.3369C129.767 46.7057 126.698 45.794 123.628 45.3031C122.093 45.0928 120.488 45.0928 119.093 45.5837C117.558 46.2849 116.302 47.3369 115.535 48.7394Z" fill="black"/>
<path d="M104.163 60.4509C104.791 58.9782 106.116 57.8561 107.581 57.225C109.047 56.5938 110.721 56.5237 112.326 56.7341C115.465 57.1548 118.535 57.9964 121.605 58.6275C122.372 58.7678 123.14 58.908 123.907 58.9782C124.674 59.0483 125.442 59.1184 126.14 58.908C126.349 58.8379 126.488 58.7678 126.628 58.6976C126.767 58.6275 126.907 58.4873 127.047 58.4171C127.186 58.2769 127.395 58.1366 127.605 58.0665C127.814 57.9964 127.953 57.8561 128.163 57.786C129 57.5055 129.837 57.5756 130.605 57.6457C132.209 57.8561 133.674 58.347 135.209 58.8379L139.674 60.3807C138.14 60.0301 136.605 59.5392 135.14 59.1184C133.605 58.6977 132.14 58.2769 130.605 58.0665C129.837 57.9964 129.07 57.9964 128.372 58.2068C128.163 58.2769 128.023 58.347 127.884 58.4171C127.744 58.4873 127.605 58.6275 127.465 58.6976C127.256 58.8379 127.116 58.9782 126.907 59.0483C126.698 59.1184 126.488 59.1885 126.279 59.2587C125.442 59.4691 124.605 59.4691 123.837 59.3989C123.07 59.3288 122.233 59.1885 121.465 59.0483C118.395 58.4171 115.326 57.5055 112.256 57.0146C110.721 56.8042 109.116 56.8042 107.721 57.2951C106.186 58.0665 104.86 59.0483 104.163 60.4509Z" fill="black"/>
<path d="M118.674 72.2321C119.302 70.7594 120.628 69.6374 122.093 69.0062C123.558 68.3751 125.233 68.3049 126.837 68.5153C129.977 68.9361 133.046 69.7776 136.116 70.4088C136.884 70.549 137.651 70.6893 138.419 70.7594C139.186 70.8295 139.953 70.8997 140.651 70.6893C140.86 70.6192 141 70.549 141.14 70.4789C141.279 70.4088 141.419 70.2685 141.558 70.1984C141.698 70.0581 141.907 69.9179 142.116 69.8477C142.326 69.7776 142.465 69.6374 142.674 69.5672C143.512 69.2867 144.349 69.3568 145.116 69.427C146.721 69.6374 148.186 70.1283 149.721 70.6192L154.186 72.162C152.651 71.8113 151.116 71.3204 149.651 70.8997C148.116 70.4789 146.651 70.0581 145.116 69.8477C144.349 69.7776 143.581 69.7776 142.884 69.988C142.674 70.0581 142.535 70.1283 142.395 70.1984C142.256 70.2685 142.116 70.4088 141.977 70.4789C141.767 70.6192 141.628 70.7594 141.419 70.8295C141.209 70.8997 141 70.9698 140.791 71.0399C139.953 71.2503 139.116 71.2503 138.349 71.1802C137.581 71.1101 136.744 70.9698 135.977 70.8295C132.907 70.1984 129.837 69.2867 126.767 68.7958C125.233 68.5854 123.628 68.5854 122.233 69.0763C120.767 69.7776 119.442 70.8295 118.674 72.2321Z" fill="black"/>
<path d="M106.744 80.7883C107.372 79.3156 108.698 78.1935 110.163 77.5624C111.628 76.9312 113.302 76.8611 114.907 77.0715C118.047 77.4922 121.116 78.3338 124.186 78.9649C124.953 79.1052 125.721 79.2454 126.488 79.3156C127.256 79.3857 128.023 79.4558 128.721 79.2454C128.93 79.1753 129.07 79.1052 129.209 79.0351C129.349 78.9649 129.488 78.8247 129.628 78.7545C129.767 78.6143 129.977 78.474 130.186 78.4039C130.395 78.3338 130.535 78.1935 130.744 78.1234C131.581 77.8429 132.419 77.913 133.186 77.9831C134.791 78.1935 136.256 78.6844 137.791 79.1753L142.256 80.7181C140.721 80.3675 139.186 79.8766 137.721 79.4558C136.186 79.0351 134.721 78.6143 133.186 78.4039C132.419 78.3338 131.651 78.3338 130.953 78.5442C130.744 78.6143 130.605 78.6844 130.465 78.7545C130.326 78.8247 130.186 78.9649 130.046 79.0351C129.837 79.1753 129.698 79.3156 129.488 79.3857C129.279 79.4558 129.07 79.526 128.86 79.5961C128.023 79.8065 127.186 79.8065 126.419 79.7363C125.651 79.6662 124.814 79.5259 124.047 79.3857C120.977 78.7545 117.907 77.8429 114.837 77.352C113.302 77.1416 111.698 77.1416 110.302 77.6325C108.767 78.4039 107.442 79.3857 106.744 80.7883Z" fill="black"/>
<path d="M124.465 90.1852C125.093 88.7125 126.419 87.5905 127.884 86.9593C129.349 86.3282 131.023 86.258 132.628 86.4684C135.767 86.8892 138.837 87.7307 141.907 88.3619C142.674 88.5022 143.442 88.6424 144.209 88.7125C144.977 88.7827 145.744 88.8528 146.442 88.6424C146.651 88.5723 146.791 88.5022 146.93 88.432C147.07 88.3619 147.209 88.2216 147.349 88.1515C147.488 88.0113 147.698 87.871 147.907 87.8009C148.116 87.7307 148.256 87.5905 148.465 87.5204C149.302 87.2398 150.14 87.31 150.907 87.3801C152.512 87.5905 153.977 88.0814 155.512 88.5723L159.977 90.1151C158.442 89.7645 156.907 89.2736 155.442 88.8528C153.907 88.432 152.442 88.0113 150.907 87.8009C150.14 87.7307 149.372 87.7307 148.674 87.9411C148.465 88.0113 148.326 88.0814 148.186 88.1515C148.047 88.2216 147.907 88.3619 147.767 88.432C147.558 88.5723 147.419 88.7125 147.209 88.7827C147 88.8528 146.791 88.9229 146.581 88.9931C145.744 89.2034 144.907 89.2034 144.14 89.1333C143.372 89.0632 142.535 88.9229 141.767 88.7827C138.698 88.1515 135.628 87.2398 132.558 86.7489C131.023 86.5386 129.419 86.5386 128.023 87.0295C126.558 87.7307 125.233 88.7827 124.465 90.1852Z" fill="black"/>
<path d="M94.1163 97.8996C94.7442 96.4269 96.0698 95.3048 97.5349 94.6737C99 94.0425 100.674 93.9724 102.279 94.1828C105.419 94.6036 108.488 95.4451 111.558 96.0762C112.326 96.2165 113.093 96.3568 113.86 96.4269C114.628 96.497 115.395 96.5671 116.093 96.3568C116.302 96.2866 116.442 96.2165 116.581 96.1464C116.721 96.0762 116.86 95.936 117 95.8659C117.14 95.7256 117.349 95.5853 117.558 95.5152C117.767 95.4451 117.907 95.3048 118.116 95.2347C118.954 94.9542 119.791 95.0243 120.558 95.0945C122.163 95.3048 123.628 95.7957 125.163 96.2866L129.628 97.8294C128.093 97.4788 126.558 96.9879 125.093 96.5671C123.558 96.1464 122.093 95.7256 120.558 95.5152C119.791 95.4451 119.023 95.4451 118.326 95.6555C118.116 95.7256 117.977 95.7957 117.837 95.8659C117.698 95.936 117.558 96.0762 117.419 96.1464C117.209 96.2866 117.07 96.4269 116.86 96.497C116.651 96.5671 116.442 96.6373 116.233 96.7074C115.395 96.9178 114.558 96.9178 113.791 96.8477C113.023 96.7775 112.186 96.6373 111.419 96.497C108.349 95.8659 105.279 94.9542 102.209 94.4633C100.674 94.2529 99.0698 94.2529 97.6744 94.7438C96.2093 95.4451 94.8837 96.497 94.1163 97.8996Z" fill="black"/>
<path d="M109.953 107.928C110.581 106.455 111.907 105.333 113.372 104.702C114.837 104.071 116.512 104.001 118.116 104.211C121.256 104.632 124.326 105.473 127.395 106.105C128.163 106.245 128.93 106.385 129.698 106.455C130.465 106.525 131.233 106.595 131.93 106.385C132.14 106.315 132.279 106.245 132.419 106.175C132.558 106.105 132.698 105.964 132.837 105.894C132.977 105.754 133.186 105.614 133.395 105.544C133.605 105.473 133.744 105.333 133.953 105.263C134.791 104.983 135.628 105.053 136.395 105.123C138 105.333 139.465 105.824 141 106.315L145.465 107.858C143.93 107.507 142.395 107.016 140.93 106.595C139.395 106.175 137.93 105.754 136.395 105.544C135.628 105.473 134.86 105.473 134.163 105.684C133.953 105.754 133.814 105.824 133.674 105.894C133.535 105.964 133.395 106.105 133.256 106.175C133.047 106.315 132.907 106.455 132.698 106.525C132.488 106.595 132.279 106.666 132.07 106.736C131.233 106.946 130.395 106.946 129.628 106.876C128.86 106.806 128.023 106.666 127.256 106.525C124.186 105.894 121.116 104.983 118.047 104.492C116.512 104.281 114.907 104.281 113.512 104.772C111.977 105.473 110.651 106.525 109.953 107.928Z" fill="black"/>
<path d="M58.9535 163.47C58.9535 163.47 65.6511 162.979 75.279 158.07L78.1395 164.452C78.1395 164.452 67.9535 171.464 61.5349 170.202L58.9535 163.47Z" fill="black"/>
<path d="M57.7675 160.173C58.3256 161.786 59.0233 163.399 59.7209 165.012L61.814 169.711C62.5116 171.254 63.2093 172.867 63.9768 174.409L66.1396 179.108V179.038L66.907 180.37L66.9768 180.511V180.651L66.907 180.37C67.4651 181.282 68.093 182.194 68.7907 182.965C69.1395 183.316 69.5582 183.666 69.907 183.877C70.1163 183.947 70.3256 184.017 70.4651 184.017C70.6744 184.017 71.0233 184.017 71.2326 184.017C73.4651 184.017 75.6279 183.947 77.7209 183.456C79.814 183.035 81.8372 182.194 83.6512 181.002C85.4651 179.809 87 178.266 88.3256 176.513L88.2558 176.794C88.1163 174.9 87.907 173.007 87.6279 171.184C87.3489 169.29 86.9302 167.467 86.5116 165.643C86.8605 166.555 87.1396 167.467 87.4186 168.378C87.6977 169.29 87.907 170.202 88.1163 171.113C88.5349 173.007 88.8837 174.83 89.093 176.794V176.934L89.0233 177.074C87.6977 178.898 86.1628 180.651 84.3489 181.983C82.4651 183.316 80.3721 184.298 78.1395 184.718C75.907 185.209 73.6047 185.349 71.3721 185.279C71.093 185.279 70.8837 185.279 70.5349 185.279C70.1861 185.279 69.8372 185.139 69.4884 184.999C68.8605 184.718 68.4419 184.298 68.0233 183.877C67.1861 183.035 66.5582 182.053 66 181.072L65.9302 180.931V180.791L66 181.072L65.2326 179.669C63.8372 176.513 62.5116 173.287 61.1861 170.132C60.5581 168.519 59.9302 166.906 59.3721 165.293C58.7442 163.54 58.1861 161.856 57.7675 160.173Z" fill="black"/>
</svg>
