<svg width="276" height="301" viewBox="0 0 276 301" fill="none" xmlns="http://www.w3.org/2000/svg">
  <path
    d="M209.446 262.818C162.607 257.498 109.98 242.755 67.3007 208.555C54.2797 198.067 54.8223 171.771 67.8432 160.979C74.1729 155.659 81.4067 148.971 89.5448 147.451C130.597 140.003 168.575 120.091 212.701 124.347C229.701 126.019 247.605 129.211 251.583 145.019C258.636 172.379 266.413 200.347 266.594 228.011C266.774 257.65 255.924 262.818 209.446 262.818Z"
    fill="#F8F3EF" />
  <path
    d="M300.954 232.571C301.316 234.243 301.678 239.563 303.667 244.427C311.082 263.579 303.848 283.339 284.678 295.195C270.391 304.011 253.934 301.579 241.275 291.091C230.786 282.427 217.765 276.043 206.914 267.531C191.361 255.219 192.808 235.459 208.723 223.603C211.435 221.627 213.425 218.435 214.871 215.547C221.924 200.803 238.02 196.395 256.105 203.083C265.147 206.427 275.455 207.795 285.402 208.707C296.433 209.467 301.859 215.547 300.954 232.571Z"
    fill="#F0AD9D" />
  <path
    d="M116.311 92.8831C113.055 44.5472 161.161 29.1953 186.479 1.22732C188.288 -0.90068 204.745 3.05131 210.713 7.6113C222.106 16.4273 232.233 27.0673 240.733 38.1632C285.764 96.6831 331.156 155.203 374.017 214.787C383.059 227.251 382.517 244.579 386.315 259.779C367.326 256.435 344.72 257.499 330.071 248.987C274.732 216.459 222.287 180.739 168.395 146.539C144.342 131.339 107.268 124.651 116.311 92.8831Z"
    fill="#F0BE69" />
  <path
    d="M275.093 55.7954C284.678 60.2034 294.263 64.7633 303.848 69.0193C307.103 70.3873 310.901 71.4513 314.699 71.6033C331.337 72.2113 333.688 74.9473 329.89 88.7792C327.901 96.0751 326.273 103.523 325.55 110.971C323.741 128.603 298.784 144.715 278.891 139.547C273.647 138.179 268.402 132.403 266.594 127.539C260.807 112.795 257.009 97.5951 251.945 82.6992C244.711 60.9634 246.339 58.9874 275.093 55.7954Z"
    fill="#556876" />
  <path
    d="M122.64 185.603C106.725 181.803 92.8002 179.523 79.7792 175.419C58.4393 168.579 36.9186 161.739 17.0254 152.467C-3.77192 142.587 -3.95277 127.539 14.1319 114.771C40.3547 96.3788 39.8121 96.6828 65.4923 117.507C82.3111 131.187 100.577 143.499 118.119 156.723C123.182 160.523 128.246 164.475 131.863 169.187C133.852 171.771 134.214 176.939 132.586 179.523C130.416 182.563 125.172 184.235 122.64 185.603Z"
    fill="#37444D" />
</svg>
