<svg width="323" height="238" viewBox="0 0 323 238" fill="none" xmlns="http://www.w3.org/2000/svg">
<path d="M155.251 33.0537C155.92 32.5853 156.521 32.0501 157.056 31.4479C157.59 30.8457 158.058 30.2435 158.526 29.5075C158.927 28.8384 159.328 28.1023 159.662 27.3663C159.996 26.6303 160.264 25.8943 160.464 25.1583L160.531 24.8906L160.798 24.9576C161.199 25.0245 161.6 24.8906 161.934 24.623C162.269 24.3554 162.536 23.9539 162.736 23.5524C163.204 22.7495 163.472 21.8128 163.672 20.876V20.9429C163.605 20.2738 163.538 19.6047 163.338 18.9356C163.204 18.2665 162.937 17.6643 162.469 17.2629C162.068 16.8614 161.4 16.9283 160.798 17.196C160.197 17.4636 159.662 17.932 159.194 18.4003C157.724 19.2702 155.92 19.4709 154.316 19.1364C152.645 18.8018 151.108 18.1327 149.704 17.3298C148.234 16.5269 146.897 15.5232 145.627 14.5196C144.358 13.449 143.088 12.3784 141.952 11.1071L142.486 11.0402C141.617 13.3152 140.949 15.7239 140.548 18.1996C140.08 20.6084 139.88 23.0841 140.147 25.5598C140.414 27.9685 141.216 30.3773 142.887 32.1839C144.558 33.9904 146.897 34.9941 149.303 35.5294V35.5963C148.1 35.3956 146.83 35.1948 145.694 34.6596C144.558 34.1243 143.422 33.4552 142.553 32.5184C140.749 30.7118 139.746 28.1693 139.479 25.6267C139.211 23.0841 139.345 20.5415 139.813 18.0658C140.281 15.5901 141.016 13.1813 141.952 10.8395L142.152 10.3042L142.486 10.7057C143.556 11.91 144.759 13.0475 145.962 14.185C147.164 15.2556 148.501 16.2592 149.905 17.1291C151.308 17.9989 152.845 18.668 154.449 19.0025C156.053 19.2702 157.791 19.0695 159.127 18.1996L159.061 18.2665C159.528 17.7312 160.063 17.196 160.731 16.8614C161.066 16.6607 161.4 16.5269 161.801 16.5269C162.202 16.4599 162.67 16.6607 162.937 16.8614C163.605 17.3967 163.873 18.1327 164.073 18.8018C164.274 19.5378 164.34 20.2069 164.407 20.9429V21.0099V21.0768C164.207 22.0804 163.873 23.0172 163.405 23.9539C163.137 24.4223 162.803 24.8237 162.402 25.1583C162.001 25.4928 161.333 25.6936 160.798 25.5598L161.132 25.359C160.865 26.1619 160.598 26.898 160.197 27.7009C159.796 28.4369 159.395 29.1729 158.927 29.842C158.459 30.5111 157.924 31.1133 157.323 31.7155C156.655 32.1839 155.986 32.6522 155.251 33.0537Z" fill="black"/>
<path d="M142.152 21.5452C142.887 21.5452 142.887 20.4077 142.152 20.4077C141.417 20.4077 141.417 21.5452 142.152 21.5452Z" fill="black"/>
<path d="M149.437 20.876C150.172 20.876 150.172 19.7385 149.437 19.7385C148.702 19.6716 148.702 20.876 149.437 20.876Z" fill="black"/>
<path d="M143.355 26.4297C144.09 27.2326 145.026 27.701 145.962 27.9686C146.429 28.0355 146.964 28.1024 147.499 28.1024C148.033 28.1024 148.501 27.9686 149.036 27.9017C148.768 28.0355 148.568 28.1024 148.301 28.1694C148.033 28.2363 147.766 28.3032 147.499 28.3701C146.964 28.437 146.429 28.437 145.895 28.3032C145.36 28.1694 144.825 27.9686 144.424 27.6341C144.023 27.2995 143.622 26.8981 143.355 26.4297Z" fill="black"/>
<path d="M140.281 17.5304C140.481 17.3965 140.749 17.3296 141.016 17.2627C141.283 17.1958 141.551 17.1958 141.818 17.1958C142.353 17.1958 142.887 17.3296 143.355 17.5973C143.088 17.5973 142.82 17.5973 142.553 17.5973H141.818H141.083C140.815 17.5304 140.548 17.5304 140.281 17.5304Z" fill="black"/>
<path d="M147.098 17.5304C147.298 17.3966 147.566 17.2627 147.833 17.1958C148.1 17.1289 148.368 17.062 148.635 17.062C148.902 17.062 149.17 17.062 149.437 17.1289C149.704 17.1958 149.971 17.3297 150.172 17.5304C149.905 17.4635 149.637 17.4635 149.37 17.4635C149.103 17.4635 148.835 17.4635 148.635 17.4635C148.368 17.4635 148.1 17.4635 147.9 17.5304C147.632 17.5304 147.365 17.5304 147.098 17.5304Z" fill="black"/>
<path d="M144.224 22.4819C144.157 23.0172 144.157 23.6194 144.424 23.954C144.558 24.1547 144.759 24.2216 145.026 24.3554C145.293 24.4223 145.561 24.4892 145.828 24.6231C145.694 24.69 145.561 24.69 145.427 24.69C145.293 24.69 145.16 24.69 145.026 24.69C144.759 24.6231 144.424 24.4892 144.224 24.2885C144.023 24.0209 143.957 23.6863 143.957 23.4187C143.957 23.0172 144.023 22.6827 144.224 22.4819Z" fill="black"/>
<path d="M164.006 20.943C168.684 9.36747 161.066 5.08521 161.066 5.08521C144.291 -0.066885 142.219 10.9733 142.219 10.9733C142.219 10.9733 152.244 22.415 159.127 18.3335C159.127 18.3335 162.269 14.2519 163.605 18.6011L164.006 20.943Z" fill="black"/>
<path d="M131.192 100.968C131.726 97.6221 132.261 94.2766 132.796 90.9311C133.263 87.5856 133.731 84.2401 134.065 80.8946C134.132 80.0247 134.199 79.2218 134.199 78.352C134.199 78.1512 134.199 77.9505 134.132 77.7498C134.132 77.6829 134.132 77.5491 134.065 77.4822C133.999 77.4152 133.999 77.2814 133.932 77.2145C133.731 76.88 133.464 76.5454 133.197 76.2109C132.127 74.8726 131.192 73.4006 130.724 71.7279C130.189 70.0551 130.122 68.3154 130.256 66.5758C130.39 64.8361 130.791 63.1633 131.258 61.5575L131.459 61.959C124.642 60.5538 117.625 59.7509 110.674 59.1487C103.724 58.5465 96.7062 58.1451 89.6888 57.8774C82.6714 57.6098 75.654 57.3421 68.7035 56.9407C61.6861 56.4723 54.7356 56.0709 47.785 55.0003H47.9187C46.983 55.6694 45.9805 55.937 44.9112 56.2716C43.8419 56.5392 42.7726 56.673 41.7033 56.8069C39.5647 57.0076 37.426 57.0076 35.2874 56.9407C34.2181 56.9407 33.1488 56.9407 32.0795 57.0076C31.0101 57.0745 29.9408 57.1414 28.9383 57.4091C28.671 57.476 28.4705 57.5429 28.2032 57.6767C27.9359 57.8105 27.5349 57.8105 27.2675 57.6767C26.666 57.3421 26.4655 56.74 26.3987 56.1378C26.3319 55.5356 26.4655 54.9334 26.7997 54.465C27.1339 53.9966 27.6017 53.5952 28.1364 53.3944L28.2032 53.7959L18.3789 52.5915H18.1784L18.1115 52.4577C17.9779 52.0562 17.9779 51.7217 18.0447 51.3202C18.1115 50.9188 18.312 50.5842 18.5793 50.3166C19.1808 49.7813 19.916 49.6475 20.5843 49.5806C21.921 49.5136 23.1908 49.3129 24.5274 49.1791L32.4804 48.3093L40.4335 47.4394C43.1068 47.1718 45.7132 46.9041 48.3865 46.7034C51.0598 46.6365 53.6663 46.4358 56.3395 46.235L64.2926 45.6328L80.1986 44.4285C90.825 43.4917 101.451 42.9564 112.078 42.2873C122.704 41.6851 133.33 41.016 143.957 40.4808C145.093 40.28 146.162 39.6109 146.63 38.5404C147.098 37.4698 147.031 36.2654 146.83 35.1279H146.897C147.165 36.2654 147.231 37.5367 146.764 38.6073C146.496 39.1425 146.162 39.6109 145.627 40.0124C145.16 40.3469 144.558 40.6146 143.957 40.7484L112.078 42.8895L96.2384 43.8932C93.5651 44.0939 90.9586 44.2277 88.2853 44.4954L80.3323 45.1645L64.4262 46.4358L56.4732 47.038C53.7999 47.2387 51.1266 47.4394 48.4533 47.5063C45.8469 47.6402 43.1736 47.9078 40.5003 48.1754L32.5473 48.9784L24.5942 49.7813C23.2576 49.9151 21.921 50.0489 20.5843 50.1158C19.9828 50.1158 19.3145 50.2497 18.9135 50.6511C18.5125 50.9857 18.4457 51.6548 18.5793 52.257L18.3789 52.0562L28.2032 53.3275L29.0052 53.4614L28.27 53.7959C27.8022 53.9966 27.4012 54.2643 27.1339 54.7326C26.8665 55.1341 26.7329 55.6694 26.7997 56.1378C26.7997 56.6061 27.067 57.1414 27.4012 57.3421C27.6017 57.4091 27.8022 57.476 28.0027 57.3421C28.2032 57.2752 28.5373 57.1414 28.8047 57.0745C29.874 56.8069 30.9433 56.74 32.0126 56.673C33.0819 56.6061 34.1513 56.6061 35.2206 56.673C37.3592 56.8069 39.4978 56.8069 41.6365 56.6061C42.7058 56.5392 43.7751 56.3385 44.7776 56.1378C45.7801 55.8701 46.8494 55.6025 47.7182 55.0003L47.785 54.9334H47.8519C51.2603 55.5356 54.8024 55.8032 58.2777 56.1378C61.7529 56.4054 65.2951 56.673 68.7703 56.8069C75.7877 57.1414 82.7383 57.3421 89.7556 57.476C96.773 57.6767 103.79 58.0782 110.741 58.6134C117.758 59.2825 124.709 60.0186 131.593 61.5575L131.927 61.6244L131.86 61.959C131.392 63.5648 130.991 65.1707 130.857 66.8434C130.724 68.5162 130.791 70.1889 131.258 71.7948C131.726 73.4006 132.595 74.8057 133.598 76.1439C133.865 76.4785 134.132 76.813 134.333 77.2145C134.4 77.2814 134.466 77.4152 134.466 77.5491C134.533 77.6829 134.533 77.8167 134.6 77.8836C134.667 78.0843 134.667 78.352 134.667 78.5527C134.667 79.4225 134.6 80.2924 134.533 81.0953C134.199 84.4408 133.664 87.7863 133.13 91.1318C132.595 94.4774 131.994 97.8229 131.392 101.101L131.192 100.968Z" fill="black"/>
<path d="M79.0625 199.728C78.1268 202.538 77.659 205.549 77.5922 208.493C77.4585 211.504 77.7927 214.448 78.461 217.325L79.0625 219.466C79.263 220.202 79.3298 220.938 79.3967 221.741C79.5303 223.28 79.4635 224.819 78.862 226.291C78.5947 227.027 78.1268 227.696 77.5922 228.231C77.0575 228.767 76.3224 229.168 75.5872 229.436C74.1169 229.971 72.5129 229.971 71.0426 229.77H71.1095L48.9212 229.904C41.5028 229.971 34.1513 229.904 26.7329 229.971H26.4655L26.3987 229.77C26.1314 228.9 26.1982 227.964 26.5324 227.161C26.9334 226.358 27.5349 225.756 28.2032 225.287C28.5373 225.02 28.9383 224.886 29.2725 224.685C29.6735 224.551 30.0077 224.351 30.4086 224.217L32.6141 223.347C35.5547 222.142 38.4953 220.871 41.3023 219.533C44.1761 218.128 46.9162 216.589 49.5895 214.849C50.9261 213.979 52.1959 212.976 53.3321 211.905C54.4682 210.835 55.5376 209.63 56.2059 208.225V208.292C56.2727 206.887 56.3395 205.482 56.4064 204.077C56.4064 203.341 56.4064 202.672 56.4064 201.936C56.4064 201.2 56.3395 200.53 56.2059 199.794C56.3395 200.464 56.4064 201.2 56.4064 201.936C56.4064 202.672 56.4732 203.341 56.4732 204.077C56.4732 205.482 56.4732 206.887 56.4064 208.359C55.7381 209.831 54.6687 211.102 53.5326 212.173C52.3964 213.31 51.1266 214.314 49.79 215.184C47.1835 216.99 44.3766 218.596 41.5028 220.001C38.629 221.406 35.7552 222.745 32.8146 223.949L30.7428 224.819C30.0077 225.087 29.2725 225.421 28.671 225.823C28.0695 226.224 27.5349 226.759 27.2007 227.428C26.8665 228.031 26.8665 228.834 27.067 229.503L26.7329 229.302C34.1513 229.302 41.5028 229.235 48.9212 229.235H71.1095C72.5798 229.436 74.0501 229.436 75.3867 228.967C76.7234 228.566 77.8595 227.495 78.3942 226.157C78.9288 224.819 79.0625 223.347 78.9288 221.875C78.862 221.139 78.7952 220.403 78.5947 219.667L77.9932 217.526C77.3249 214.582 77.1244 211.571 77.258 208.56C77.5922 205.549 78.1268 202.538 79.0625 199.728Z" fill="black"/>
<path d="M275.95 197.72L282.232 204.612C283.302 205.749 284.371 206.887 285.307 208.091C286.309 209.296 287.245 210.5 288.247 211.771C290.119 214.247 291.923 216.79 293.594 219.466C294.463 220.804 295.265 222.076 296.067 223.481C296.869 224.953 296.735 226.96 295.599 228.231C295.064 228.9 294.329 229.369 293.527 229.636C293.327 229.703 293.126 229.703 292.926 229.77L292.324 229.837H291.188H286.51H277.22H272.542H271.406C271.005 229.837 270.537 229.77 270.136 229.57C269.334 229.168 268.799 228.231 268.933 227.295C268.933 227.094 269 226.826 269.133 226.625C269.2 226.425 269.267 226.291 269.401 226.09C269.534 225.756 269.735 225.354 269.935 225.02C270.336 224.35 270.737 223.681 271.272 223.012C272.274 221.741 273.477 220.737 274.814 219.868C275.349 219.6 275.95 219.198 276.151 218.663C276.217 218.395 276.217 218.128 276.084 217.793C276.017 217.659 275.95 217.526 275.883 217.392L275.549 216.99C275.081 216.522 274.547 216.121 274.012 215.786C273.477 215.385 272.876 214.983 272.341 214.582C270.203 212.909 268.131 211.169 266.126 209.296C268.198 211.035 270.336 212.775 272.542 214.314C273.076 214.715 273.678 215.117 274.213 215.451C274.747 215.786 275.349 216.187 275.883 216.723L276.217 217.124C276.351 217.258 276.418 217.459 276.485 217.593C276.618 217.927 276.685 218.329 276.552 218.73C276.284 219.466 275.683 219.934 275.014 220.269C273.745 221.072 272.609 222.142 271.673 223.347C271.205 223.949 270.804 224.618 270.47 225.287C270.269 225.622 270.136 225.956 270.002 226.291C269.935 226.492 269.868 226.625 269.802 226.826C269.735 227.027 269.668 227.161 269.668 227.295C269.601 227.964 269.935 228.633 270.537 228.9C270.871 229.034 271.138 229.101 271.539 229.101H272.675L277.354 229.034L286.643 228.967H291.322H292.458H292.992L293.527 228.833C294.195 228.633 294.797 228.231 295.265 227.696C296.2 226.625 296.401 224.953 295.666 223.748C294.93 222.41 294.062 221.072 293.26 219.801C291.589 217.191 289.918 214.582 288.047 212.106C287.111 210.835 286.175 209.63 285.24 208.426C284.237 207.221 283.235 206.084 282.232 204.88L275.95 197.72Z" fill="black"/>
<path d="M160.798 25.292C160.665 27.4331 160.598 29.5743 160.798 31.6485C160.865 32.7191 161.066 33.7896 161.266 34.7933C161.467 35.7969 161.801 36.8675 162.335 37.7373C162.603 38.2057 162.87 38.6072 163.204 39.0086C163.538 39.4101 164.006 39.6777 164.474 39.8785C164.675 40.0123 164.942 40.0123 165.209 40.0792C165.477 40.1461 165.744 40.1461 166.011 40.1461C166.279 40.213 166.546 40.1461 166.813 40.1461C167.081 40.1461 167.348 40.1461 167.615 40.1461C169.687 40.0123 171.826 39.6777 173.897 39.3432C178.108 38.741 182.385 38.4733 186.662 38.8079C188.801 38.9417 190.94 39.2763 193.011 39.6777C195.083 40.0792 197.155 40.4137 199.294 40.6145C201.432 40.8152 203.504 40.949 205.643 40.949L211.992 41.0159L224.757 41.2167L250.287 41.685C254.096 41.4843 257.839 41.4174 261.648 41.4843C265.457 41.5512 269.2 41.685 273.01 42.0196C276.752 42.3541 280.562 42.8894 284.171 44.0938C285.106 44.3614 285.975 44.696 286.844 45.1644C287.245 45.3651 287.713 45.6327 288.047 45.9673C288.247 46.168 288.448 46.3018 288.515 46.6364C288.581 46.7702 288.581 46.971 288.515 47.1048C288.448 47.2386 288.381 47.3724 288.247 47.5062C287.779 47.8408 287.312 47.9746 286.844 48.0415C286.376 48.1084 285.908 48.1753 285.44 48.2422C284.505 48.3092 283.502 48.3761 282.567 48.3761L276.552 49.0452L276.685 48.5768C277.019 48.8444 277.354 49.1121 277.688 49.3797C278.022 49.7143 278.289 49.9819 278.49 50.4503C278.557 50.651 278.623 50.9187 278.557 51.1863C278.49 51.4539 278.356 51.7216 278.156 51.8554C277.755 52.19 277.354 52.3238 276.953 52.4576C276.084 52.7252 275.282 52.7921 274.413 52.7921C273.544 52.8591 272.742 52.7921 271.873 52.8591L272.074 52.7921C271.606 53.0598 271.205 53.1267 270.737 53.1936C270.336 53.2605 269.868 53.2605 269.467 53.2605C268.599 53.2605 267.797 53.1267 266.928 52.926C266.126 52.7252 265.257 52.5245 264.455 52.2569C263.653 51.9892 262.851 51.7216 262.049 51.387H262.183L223.286 55.3347L203.838 57.2751L184.39 59.0817H184.457C183.053 59.4163 181.65 60.0185 180.38 60.7545C179.11 61.5574 178.041 62.628 177.573 63.9662C177.306 64.6353 177.306 65.3713 177.239 66.1073C177.239 66.8433 177.105 67.6462 177.039 68.3823C176.838 69.8543 176.638 71.3932 176.437 72.8652C176.103 75.8762 176.036 78.8872 176.437 81.8312C176.838 84.7753 177.707 87.7193 179.043 90.3958L178.977 90.4627C177.573 87.7862 176.638 84.8422 176.17 81.8981C175.702 78.8872 175.702 75.8762 176.036 72.8652C176.17 71.3263 176.37 69.8543 176.571 68.3823C176.638 67.6462 176.704 66.9102 176.771 66.1742C176.771 65.4382 176.838 64.6353 177.105 63.8993C177.64 62.4272 178.843 61.2228 180.113 60.4199C181.383 59.617 182.853 59.0148 184.323 58.6133L203.771 56.606L223.22 54.6656L262.116 50.8517H262.183H262.25C263.052 51.1194 263.787 51.4539 264.589 51.7216C265.391 51.9892 266.193 52.19 266.995 52.3907C267.797 52.5245 268.599 52.6583 269.401 52.7252C269.802 52.7252 270.203 52.7252 270.604 52.6583C271.005 52.5914 271.406 52.5245 271.673 52.3907L271.74 52.3238H271.807C272.609 52.3238 273.477 52.3238 274.279 52.3238C275.081 52.2569 275.95 52.19 276.685 51.9892C277.086 51.8554 277.42 51.7216 277.688 51.5209C277.955 51.3201 278.022 51.0525 277.888 50.7179C277.621 50.0488 276.886 49.5135 276.284 49.0452L275.683 48.6437L276.351 48.5768L282.366 47.9746C283.302 47.9746 284.237 47.9746 285.173 47.9077C285.641 47.8408 286.109 47.8408 286.576 47.707C287.044 47.6401 287.512 47.5062 287.779 47.2386C287.913 47.1048 287.98 46.9709 287.913 46.8371C287.846 46.7033 287.713 46.5026 287.579 46.3688C287.245 46.1011 286.844 45.8335 286.443 45.6327C285.641 45.2313 284.772 44.8298 283.836 44.5622C280.227 43.4247 276.485 42.8225 272.742 42.488C269 42.0865 265.19 41.9527 261.381 41.8858C257.571 41.8858 253.829 41.9527 250.019 42.1534L224.489 41.9527L211.724 41.8189C207.447 41.7519 203.237 41.8858 198.959 41.3505C196.821 41.1498 194.749 40.7483 192.61 40.3468C190.539 39.9454 188.467 39.6108 186.328 39.477C182.118 39.0755 177.84 39.3432 173.63 39.8785C171.491 40.1461 169.42 40.4806 167.281 40.6145C167.014 40.6145 166.746 40.6145 166.479 40.6145C166.212 40.6145 165.944 40.6145 165.677 40.5476C165.41 40.5476 165.142 40.4806 164.875 40.4806C164.608 40.4137 164.34 40.3468 164.073 40.213C163.538 40.0123 163.071 39.6777 162.736 39.2763C162.335 38.8748 162.068 38.4064 161.801 37.9381C161.333 37.0013 160.999 35.9307 160.798 34.8602C160.598 33.7896 160.464 32.7191 160.397 31.6485C160.264 29.5074 160.33 27.3662 160.531 25.2251L160.798 25.292Z" fill="black"/>
<path d="M144.09 40.5475C144.224 42.0196 144.424 43.5585 144.759 44.9636C145.093 46.4356 145.561 47.8408 146.229 49.1121C146.897 50.3834 147.833 51.5877 149.036 52.2568C150.239 52.9259 151.776 52.9929 153.113 52.6583C154.516 52.3237 155.853 51.7216 157.056 50.9186C158.259 50.0488 159.261 48.9782 160.197 47.8408C161.066 46.6364 161.801 45.3651 162.469 44.0269C163.137 42.6887 163.605 41.2836 164.006 39.8115C163.538 42.7556 162.402 45.6327 160.665 48.1753C159.796 49.4466 158.727 50.5172 157.524 51.5208C156.254 52.3907 154.85 53.0598 153.313 53.3943C151.843 53.7958 150.105 53.662 148.702 52.859C147.298 52.0561 146.363 50.7179 145.694 49.3128C144.424 46.5695 144.023 43.5585 144.09 40.5475Z" fill="black"/>
<path d="M171.024 40.0127C170.756 41.1502 170.556 42.2876 170.355 43.4251C170.155 44.5626 170.021 45.7001 169.954 46.8375C169.821 49.1125 169.754 51.3874 170.155 53.6624C170.489 55.8704 171.224 58.0785 172.427 59.952C173.63 61.8255 175.368 63.3644 177.439 64.5019C176.37 64.1004 175.368 63.4982 174.432 62.8291C173.496 62.0931 172.694 61.2902 171.959 60.2865C170.623 58.3461 169.821 56.0712 169.42 53.7293C169.085 51.3875 169.085 49.0456 169.42 46.7706C169.62 44.4288 170.155 42.1538 171.024 40.0127Z" fill="black"/>
<path d="M131.526 61.6914C132.395 58.0114 133.598 54.3982 135.001 50.852C135.669 49.1123 136.405 47.3057 137.273 45.633C138.142 43.9602 139.011 42.2205 140.348 40.8154C139.813 41.6184 139.345 42.4213 138.944 43.2911C138.543 44.1609 138.209 45.0308 137.808 45.9006C137.073 47.6403 136.405 49.4469 135.736 51.1865L133.664 56.4724C132.929 58.1452 132.261 59.9518 131.526 61.6914Z" fill="black"/>
<path d="M213.262 159.447C213.262 159.515 213.262 159.515 213.262 159.447C213.329 159.515 213.329 159.515 213.329 159.515L213.262 159.447Z" fill="black"/>
<path d="M255.767 171.692C247.48 163.395 221.816 150.147 221.816 150.147C222.484 150.883 223.019 151.686 223.42 152.556C223.888 153.425 224.289 154.295 224.489 155.232C223.821 154.496 223.286 153.693 222.885 152.823C222.417 151.953 222.083 151.084 221.816 150.147L182.318 100.633L179.177 90.5967C172.694 92.7378 166.947 94.0091 161.801 94.6782C166.278 99.9641 170.623 105.317 174.9 110.67C179.244 116.023 183.521 121.442 187.665 126.929C191.875 132.416 195.952 137.969 200.229 143.389C204.506 148.809 208.851 154.161 213.195 159.447C218.073 162.994 222.885 166.607 227.764 170.22C232.643 173.833 237.455 177.446 242.267 181.126C247.079 184.806 251.824 188.486 256.636 192.167C261.381 195.914 266.126 199.594 270.871 203.407V203.474H270.804C265.858 199.995 260.98 196.449 256.101 192.903C251.222 189.289 246.343 185.743 241.532 182.13C236.653 178.517 231.908 174.837 227.096 171.157C222.284 167.477 217.472 163.797 212.727 160.116L212.66 160.05C208.516 154.563 204.306 149.076 200.029 143.59C195.751 138.17 191.341 132.817 186.996 127.464C182.652 122.111 178.375 116.692 174.165 111.205C169.954 105.718 165.811 100.232 161.734 94.6782C142.553 97.087 132.929 90.9981 132.929 90.9981L131.258 100.901L79.5971 116.625C64.6935 122.446 65.295 125.725 60.5499 132.817C55.6044 140.177 56.2727 199.66 56.2727 199.66C56.2727 199.66 72.1119 204.813 79.0625 199.66C79.0625 199.794 78.9956 199.928 78.9288 200.062L79.0625 199.66C87.617 173.03 85.8125 158.31 85.2779 151.953C84.8769 147.002 86.6813 145.062 87.617 144.459C87.216 144.66 86.7482 144.794 86.2803 144.861C85.6789 144.995 85.0105 145.062 84.3422 144.928C84.8769 144.526 85.5452 144.393 86.1467 144.259C86.7482 144.125 87.4165 144.058 88.0848 144.192C88.0848 144.192 113.548 138.638 134.734 136.163C155.853 133.687 168.283 144.861 168.283 144.861L265.925 209.296C265.925 209.296 276.017 202.136 276.017 197.653C275.95 197.72 264.054 179.989 255.767 171.692ZM74.3174 132.616C74.1837 132.951 74.1169 133.285 73.9164 133.553L73.4486 134.49C73.3149 134.824 73.0476 135.025 72.8471 135.36C72.4461 135.962 71.9783 136.43 71.5104 136.899C70.9758 137.367 70.5079 137.835 69.9065 138.17C68.7703 138.906 67.5005 139.508 66.2307 139.91C64.894 140.311 63.5574 140.445 62.2208 140.378C63.5574 140.177 64.8272 139.843 66.097 139.441C67.3668 138.973 68.503 138.438 69.5723 137.635C70.1069 137.3 70.6416 136.832 71.1094 136.43C71.5773 135.962 72.0451 135.493 72.4461 135.025C73.3149 134.021 73.9832 132.884 74.5847 131.68C74.5179 131.947 74.3842 132.282 74.3174 132.616Z" fill="black"/>
<path d="M257.037 203.542H78.0601" stroke="black" stroke-width="0.5739" stroke-miterlimit="10"/>
<path d="M284.839 203.542L322.532 237.8H0.668335L56.3396 203.542" stroke="black" stroke-width="0.5739" stroke-miterlimit="10"/>
<path d="M159.061 4.54998C159.061 4.54998 162.87 -4.21528 170.288 2.67649C177.774 9.56825 165.944 14.7203 165.41 12.3785" fill="black"/>
<path d="M28.2032 53.3276L33.2824 53.5284L28.2032 53.6622V53.3276Z" fill="black"/>
<path d="M276.618 49.112L270.871 48.7774L276.618 48.376V49.112Z" fill="black"/>
<path d="M134.266 77.4155C134.466 77.6163 134.667 77.817 134.867 77.9508C135.068 78.0846 135.335 78.2185 135.603 78.2185C136.137 78.3523 136.605 78.3523 137.14 78.2854C137.674 78.2184 138.209 78.0846 138.677 77.9508C139.211 77.817 139.679 77.6163 140.214 77.4155C140.013 77.5493 139.746 77.6832 139.546 77.8839C139.278 78.0177 139.078 78.1515 138.81 78.2185C138.543 78.3523 138.276 78.4192 138.008 78.4861C137.741 78.553 137.474 78.6199 137.206 78.6199C136.672 78.6868 136.07 78.6868 135.536 78.4861C135.001 78.3523 134.466 77.9508 134.266 77.4155Z" fill="black"/>
<path d="M155.786 77.4155C155.986 77.6163 156.187 77.817 156.387 77.9508C156.588 78.0846 156.855 78.2185 157.123 78.2185C157.657 78.3523 158.125 78.3523 158.66 78.2854C159.194 78.2184 159.729 78.0846 160.197 77.9508C160.731 77.817 161.199 77.6163 161.734 77.4155C161.533 77.5493 161.266 77.6832 161.066 77.8839C160.798 78.0177 160.598 78.1515 160.33 78.2185C160.063 78.3523 159.796 78.4192 159.528 78.4861C159.261 78.553 158.994 78.6199 158.727 78.6199C158.192 78.6868 157.59 78.6868 157.056 78.4861C156.454 78.3523 155.986 77.9508 155.786 77.4155Z" fill="black"/>
<path d="M88.0181 144.259C87.8844 144.326 87.7507 144.46 87.6171 144.46C87.8844 144.326 88.0181 144.259 88.0181 144.259Z" fill="white"/>
<path d="M161.801 94.6782C161.801 94.6782 161.868 94.6782 161.801 94.6782C161.801 94.7451 161.734 94.7451 161.667 94.7451V94.6782C161.734 94.6782 161.801 94.6782 161.801 94.6782Z" fill="white"/>
<path d="M213.329 159.582L213.262 159.514C213.262 159.514 213.262 159.514 213.329 159.582C213.329 159.514 213.329 159.514 213.329 159.582Z" fill="white"/>
</svg>
