<svg width="201" height="161" viewBox="0 0 201 161" fill="none" xmlns="http://www.w3.org/2000/svg">
<path d="M200.504 144.535H0.885534C0.686843 144.535 0.554382 144.403 0.554382 144.204C0.554382 144.006 0.686843 143.873 0.885534 143.873H200.504C200.703 143.873 200.835 144.006 200.835 144.204C200.835 144.403 200.636 144.535 200.504 144.535Z" fill="#D1D3D4"/>
<path d="M31.4178 160.235H28.7685L34.1332 79.5537H38.5706L31.4178 160.235Z" fill="white"/>
<path d="M31.4177 160.5H28.7022C28.636 160.5 28.5697 160.5 28.5035 160.433C28.4373 160.367 28.4373 160.301 28.4373 160.235L33.802 79.5535C33.802 79.4211 33.9344 79.2886 34.1331 79.2886H38.5705C38.6368 79.2886 38.7692 79.3548 38.7692 79.4211C38.8355 79.4873 38.8355 79.5535 38.8355 79.686L31.7488 160.235C31.6826 160.367 31.6163 160.5 31.4177 160.5ZM29.0996 159.903H31.0865L38.1732 79.8185H34.3318L29.0996 159.903Z" fill="#231F20"/>
<path d="M165.534 160.235H168.25L162.885 79.5537H158.448L165.534 160.235Z" fill="white"/>
<path d="M168.25 160.5H165.601C165.468 160.5 165.336 160.367 165.269 160.235L158.117 79.5537C158.117 79.4875 158.117 79.355 158.183 79.2887C158.249 79.2225 158.315 79.1562 158.382 79.1562H162.819C162.951 79.1562 163.084 79.2887 163.15 79.4212L168.515 160.102C168.515 160.367 168.449 160.5 168.25 160.5ZM165.866 159.904H167.919L162.62 79.8187H158.779L165.866 159.904Z" fill="#231F20"/>
<path d="M102.549 160.036H106.391L117.517 110.753H112.153L102.549 160.036Z" fill="white"/>
<path d="M106.391 160.367H102.549C102.483 160.367 102.35 160.301 102.284 160.234C102.218 160.168 102.218 160.102 102.218 159.969L111.821 110.686C111.821 110.554 111.954 110.421 112.153 110.421H117.517C117.716 110.421 117.848 110.554 117.848 110.753V110.819L106.722 160.102C106.655 160.301 106.523 160.367 106.391 160.367ZM102.947 159.771H106.126L117.12 111.084H112.417L102.947 159.771Z" fill="#231F20"/>
<path d="M104.205 77.5C104.205 77.5 74.8649 87.8335 71.3547 93.3978C67.8445 98.962 66.1225 148.775 66.1225 148.775L82.0178 150.431C82.0178 150.431 86.3227 105.056 88.5746 103.003C90.8264 100.949 128.843 79.8847 128.843 79.8847L104.205 77.5Z" fill="#231F20"/>
<path d="M82.0176 150.696L66.1223 149.04C65.9898 149.04 65.8574 148.908 65.8574 148.709C65.9236 146.722 67.6456 98.7634 71.1558 93.1992C74.666 87.635 103.013 77.6326 104.205 77.1689C104.271 77.1689 104.271 77.1689 104.337 77.1689L128.909 79.5536C129.041 79.5536 129.174 79.6861 129.174 79.8848C129.174 79.9511 129.107 80.0835 129.041 80.0835C128.644 80.2823 91.0249 101.148 88.8393 103.135C87.2498 104.593 84.137 132.149 82.415 150.365C82.2825 150.63 82.1501 150.762 82.0176 150.696ZM66.3872 148.51L81.6864 150.1C82.2163 144.204 86.0576 104.791 88.3095 102.804C90.3626 100.883 122.087 83.3293 127.783 80.1498L104.271 77.8314C102.748 78.3613 74.9309 88.2974 71.6194 93.5966C68.2417 98.8296 66.5859 144.536 66.3872 148.51Z" fill="#231F20"/>
<path d="M136.393 102.075C135.664 102.075 98.5092 102.407 98.5092 102.407L116.06 141.952L100.562 148.245C100.562 148.245 76.3882 103.731 79.1037 97.0412C81.8853 90.4171 120.299 78.3613 120.299 78.3613L139.307 83.1969C139.307 83.2631 139.903 102.075 136.393 102.075Z" fill="#231F20"/>
<path d="M100.562 148.576C100.43 148.576 100.364 148.51 100.298 148.444C99.304 146.589 76.0572 103.731 78.8388 97.0409C81.6205 90.3506 118.643 78.6922 120.233 78.2285C120.299 78.2285 120.365 78.2285 120.365 78.2285L139.373 83.0641C139.506 83.1303 139.572 83.1966 139.572 83.329C139.572 83.9914 140.036 99.2268 137.32 102.009C137.055 102.274 136.658 102.473 136.327 102.473L98.9067 102.804L116.259 141.952C116.259 142.018 116.259 142.084 116.259 142.217C116.259 142.283 116.193 142.349 116.127 142.349L100.629 148.642C100.629 148.576 100.562 148.576 100.562 148.576ZM120.299 78.7584C118.312 79.3546 81.9517 90.9467 79.3687 97.2396C76.7857 103.466 98.7742 144.469 100.629 147.914L115.597 141.886L98.1781 102.605C98.1119 102.539 98.1119 102.406 98.1781 102.34C98.2444 102.274 98.3106 102.208 98.4431 102.208C98.8404 102.208 135.598 101.81 136.327 101.81C136.592 101.81 136.79 101.678 136.923 101.479C139.241 99.0943 139.042 85.3825 138.976 83.4615L120.299 78.7584Z" fill="#231F20"/>
<path d="M96.5223 56.7669C96.5223 56.7669 74.2026 51.9314 69.0366 49.1493C69.0366 49.1493 66.1887 42.8564 65.1953 42.9889C64.2018 43.1214 66.6524 48.6856 66.6524 48.6856C66.6524 48.6856 57.7775 45.6385 57.3139 46.4996C56.8502 47.3608 57.7775 47.692 57.7775 47.692C57.7775 47.692 56.5853 47.6257 56.784 48.3544C56.9827 49.083 57.3801 48.9505 57.3801 48.9505C57.3801 48.9505 56.1217 49.083 56.2542 49.7454C56.3866 50.4078 57.1814 50.4078 57.1814 50.4078C57.1814 50.4078 55.7243 50.2754 56.3204 51.2027C56.9165 52.1301 64.533 54.846 68.9704 56.8332C73.4079 58.8204 100.364 71.2736 100.364 71.2736L96.5223 56.7669Z" fill="white"/>
<path d="M100.496 71.4724C100.43 71.4724 100.43 71.4724 100.364 71.4724C100.099 71.3399 73.3416 59.0192 68.9704 57.032C67.4471 56.3696 65.5926 55.5747 63.7382 54.846C59.367 53.0575 56.6515 51.9314 56.1879 51.3353C55.9892 51.0703 55.923 50.7391 56.0555 50.4741C56.1217 50.4079 56.1879 50.2754 56.2541 50.2092C56.1217 50.0767 56.0555 49.878 56.0555 49.7455C55.9892 49.5468 56.0555 49.2818 56.1879 49.1493C56.3204 48.9506 56.5191 48.8844 56.7178 48.7519C56.6515 48.6194 56.5853 48.4869 56.5853 48.3544C56.5191 48.0895 56.5853 47.8908 56.7178 47.692C56.8502 47.5596 56.9827 47.4933 57.1151 47.4271C57.0489 47.3608 57.0489 47.2946 56.9827 47.2283C56.8502 46.8971 56.9165 46.5659 57.1151 46.301C57.5788 45.4399 62.1487 46.7647 66.1887 48.1557C65.5264 46.6322 64.4005 43.7176 64.8641 42.9889C64.9303 42.8565 65.0628 42.724 65.2615 42.724C66.3212 42.5915 68.2418 46.4997 69.3678 48.9506C74.6 51.7327 96.456 56.4358 96.6547 56.502C96.7872 56.502 96.8534 56.6345 96.8534 56.7008L100.827 71.1412C100.827 71.2737 100.827 71.4062 100.695 71.4724C100.629 71.4724 100.562 71.4724 100.496 71.4724ZM56.5853 50.7391C56.5853 50.8053 56.6515 50.8716 56.7178 50.9378C57.0489 51.4677 60.8903 52.9913 64.0031 54.2499C65.8576 54.9785 67.712 55.7734 69.2353 56.4358C73.2754 58.2243 96.0586 68.7566 100.032 70.5451L96.3235 56.9657C94.0055 56.4358 73.9377 52.0639 68.9704 49.3481C68.9042 49.3481 68.8379 49.2818 68.8379 49.2156C67.5795 46.4997 65.99 43.5189 65.3939 43.2539C65.2615 43.7838 66.1225 46.301 67.0497 48.4869C67.1159 48.6194 67.0497 48.7519 66.9835 48.8181C66.9172 48.8844 66.7848 48.9506 66.6523 48.8844C62.7447 47.5596 58.1748 46.2347 57.645 46.5659C57.5125 46.6984 57.5125 46.8309 57.5788 46.9634C57.645 47.0959 57.7774 47.2283 57.9761 47.2946C58.1086 47.3608 58.2411 47.4933 58.1748 47.6258C58.1748 47.7583 58.0424 47.8908 57.8437 47.8908C57.5788 47.8908 57.3801 47.8908 57.1814 48.0232C57.1814 48.0232 57.1151 48.0895 57.1814 48.1557C57.2476 48.4207 57.3801 48.5532 57.4463 48.5532H57.5125C57.645 48.5532 57.8437 48.6194 57.8437 48.8181C57.8437 48.9506 57.7774 49.1493 57.645 49.1493H57.5125C57.2476 49.1493 56.9827 49.2818 56.784 49.4805C56.784 49.5468 56.784 49.5468 56.784 49.613C56.8502 49.878 57.0489 50.0105 57.3138 50.0105H57.4463C57.5788 50.0105 57.7112 50.1429 57.7112 50.3417C57.7112 50.5404 57.5125 50.6729 57.3138 50.6066C57.0489 50.6066 56.784 50.6066 56.5853 50.7391Z" fill="#231F20"/>
<path d="M112.815 19.6058C115.119 19.6058 116.988 17.3223 116.988 14.5053C116.988 11.6884 115.119 9.40479 112.815 9.40479C110.511 9.40479 108.643 11.6884 108.643 14.5053C108.643 17.3223 110.511 19.6058 112.815 19.6058Z" fill="#E8521F"/>
<path d="M112.815 19.8706C110.364 19.8706 108.377 17.4197 108.377 14.5051C108.377 11.5906 110.364 9.13965 112.815 9.13965C115.265 9.13965 117.319 11.5906 117.319 14.5051C117.319 17.4197 115.265 19.8706 112.815 19.8706ZM112.815 9.66957C110.695 9.66957 108.907 11.8555 108.907 14.5051C108.907 17.1548 110.629 19.3407 112.815 19.3407C115 19.3407 116.722 17.1548 116.722 14.5051C116.722 11.8555 114.934 9.66957 112.815 9.66957Z" fill="#333333"/>
<path d="M145.466 35.7681C143.943 34.1783 141.956 32.5223 142.089 30.4026C142.155 29.6739 142.42 28.9453 142.486 28.1504C142.685 26.0307 141.029 24.1097 139.241 22.8512C137.519 21.5926 135.466 20.4665 134.406 18.6118C132.419 15.2335 133.744 10.9941 132.022 7.48332C130.432 4.17129 127.319 1.72039 123.677 0.991741C120.961 0.461815 117.716 0.594297 115.398 2.31655C113.08 3.97257 111.556 6.48971 111.093 9.33806C110.762 11.6565 111.159 13.9749 111.358 16.2271C111.556 18.5455 111.424 20.9964 110.166 22.9174C108.907 24.8384 106.788 25.9645 104.933 27.223C101.754 29.409 99.5687 34.7745 101.291 38.2852C103.543 42.8558 107.98 45.9029 112.219 48.4863C118.842 52.5932 126.26 56.2364 134.075 57.495C137.386 58.0249 140.896 58.0912 144.009 56.7664C152.421 53.1231 150.765 41.3323 145.466 35.7681Z" fill="white"/>
<path d="M138.247 58.2241C136.857 58.2241 135.466 58.0916 134.075 57.8929C127.386 56.833 120.431 53.9847 112.153 48.8842C108.046 46.367 103.41 43.2537 101.092 38.5506C99.2377 34.7749 101.556 29.3432 104.801 27.091C105.132 26.826 105.53 26.6273 105.927 26.3623C107.45 25.3687 108.974 24.3751 109.967 22.8516C111.225 20.8644 111.225 18.1485 111.093 16.2938C111.027 15.7638 111.027 15.1677 110.96 14.6378C110.696 12.8493 110.696 11.0608 110.894 9.3385C111.358 6.42391 112.947 3.84053 115.332 2.11827C117.319 0.594736 120.498 0.131051 123.875 0.793457C127.584 1.5221 130.763 3.97301 132.419 7.41752C133.28 9.13978 133.413 11.0608 133.545 12.9155C133.677 14.9027 133.81 16.8237 134.803 18.5459C135.598 19.937 137.055 20.9306 138.446 21.9242C138.843 22.1892 139.241 22.4541 139.572 22.7191C141.228 23.9114 143.148 25.8987 142.95 28.2833C142.883 28.6808 142.817 29.012 142.751 29.3432C142.619 29.7406 142.619 30.0718 142.552 30.4693C142.42 32.1915 143.811 33.5826 145.202 34.9736C145.4 35.1724 145.665 35.4373 145.864 35.636C149.308 39.2793 151.03 45.1084 150.103 49.8115C149.507 53.0573 147.321 55.8394 144.274 57.1642C142.287 57.8929 140.234 58.2903 138.247 58.2241ZM120.895 1.05842C119.041 0.992179 117.186 1.5221 115.597 2.58195C113.345 4.23797 111.888 6.68887 111.424 9.40474C111.225 11.127 111.292 12.8493 111.49 14.5715C111.557 15.1014 111.623 15.6976 111.623 16.2275C111.755 18.1485 111.821 20.9306 110.431 23.1166C109.371 24.7726 107.781 25.8324 106.192 26.826C105.794 27.091 105.463 27.2897 105.066 27.5547C102.086 29.5419 99.8337 34.7749 101.556 38.2194C103.808 42.79 108.311 45.8371 112.351 48.288C120.564 53.3223 127.452 56.1706 134.075 57.2305C138.115 57.8929 141.294 57.6279 143.811 56.5018C146.659 55.2433 148.712 52.6599 149.242 49.6128C150.169 45.0422 148.513 39.4118 145.202 35.9672C145.003 35.7685 144.804 35.5036 144.539 35.3048C143.215 33.98 141.625 32.3902 141.691 30.3368C141.691 29.9393 141.824 29.4757 141.89 29.0782C141.956 28.747 142.022 28.4158 142.089 28.0846C142.287 25.9649 140.499 24.1764 138.976 23.0503C138.578 22.7854 138.247 22.5204 137.85 22.2554C136.393 21.2618 134.936 20.2682 134.075 18.7447C133.015 16.9562 132.883 14.9027 132.75 12.8493C132.618 11.0608 132.485 9.20602 131.691 7.55C130.101 4.30421 127.121 1.98579 123.544 1.25714C122.749 1.1909 121.822 1.05842 120.895 1.05842Z" fill="#231F20"/>
<path d="M106.854 36.6958L93.5418 54.7795C93.5418 54.7795 94.2703 57.1642 100.496 71.1409C105.993 68.4251 114.669 53.5209 114.669 53.5209L106.854 36.6958Z" fill="black"/>
<path d="M121.226 29.9395C121.226 29.9395 109.172 31.2643 106.324 37.0934C103.476 42.9226 104.271 77.5002 104.271 77.5002L143.082 78.3614C143.082 78.3614 142.884 40.7367 137.916 31.6617C135.996 29.8732 132.684 29.277 121.226 29.9395Z" fill="black"/>
<path d="M117.716 25.8322L117.65 32.8537C117.65 32.8537 118.378 36.7619 122.617 35.5696C125.2 34.841 127.253 32.9862 128.313 30.5353L127.849 18.347C127.319 16.2273 127.054 14.0414 127.187 11.7892C121.955 11.723 117.915 7.74854 117.915 7.74854C117.915 7.74854 116.126 10.4644 115.332 11.2593C114.736 11.9217 114.139 12.5841 113.742 13.379C113.014 14.7038 113.08 16.4261 113.08 17.9496C113.08 19.7381 113.278 21.5266 113.61 23.2488C114.206 26.6271 117.716 25.8322 117.716 25.8322Z" fill="white"/>
<path d="M121.16 36.1662C120.431 36.1662 119.769 35.9675 119.173 35.6363C118.246 34.9739 117.583 34.0465 117.385 32.9204L117.451 26.1639C116.524 26.2963 115.596 26.0976 114.735 25.6339C113.941 25.104 113.411 24.3091 113.278 23.3818C112.947 21.5933 112.749 19.8048 112.749 18.0163C112.749 16.559 112.682 14.7705 113.411 13.3132C113.874 12.5183 114.404 11.7896 115.067 11.1272C115.795 10.3323 117.583 7.68272 117.583 7.61648C117.65 7.484 117.848 7.41776 117.981 7.55024C117.981 7.55024 117.981 7.55024 118.047 7.55024C118.113 7.61648 122.153 11.3922 127.121 11.4584C127.187 11.4584 127.253 11.5247 127.319 11.5247C127.385 11.5909 127.385 11.6572 127.385 11.7234C127.253 13.7106 127.452 15.6978 127.982 17.6188C128.048 17.8175 128.048 18.0163 128.114 18.215C128.114 18.215 128.114 18.4137 128.578 30.4033C128.578 30.4695 128.578 30.4695 128.578 30.5357C127.518 33.1191 125.332 35.0401 122.683 35.7688C122.153 36.0337 121.69 36.1 121.16 36.1662ZM117.981 32.8542C118.312 34.6427 120.1 35.835 121.955 35.5038C122.153 35.4376 122.418 35.3713 122.617 35.3051C125.067 34.5764 127.054 32.8542 128.114 30.4695C128.048 29.5421 127.65 18.4137 127.65 18.3475C127.65 18.1487 127.584 18.0163 127.518 17.8838C127.054 16.029 126.856 14.0418 126.922 12.1208C122.484 11.9221 118.974 9.14002 117.981 8.27889C117.252 9.40498 116.457 10.5311 115.596 11.5247C115 12.1208 114.471 12.8495 114.007 13.5781C113.345 14.903 113.345 16.4927 113.411 17.95C113.411 19.7385 113.61 21.4608 113.941 23.183C114.073 23.9779 114.471 24.6403 115.133 25.104C115.928 25.5015 116.855 25.6339 117.716 25.5015C117.782 25.5015 117.915 25.5015 117.981 25.5677C118.047 25.6339 118.113 25.7002 118.113 25.8327L117.981 32.8542Z" fill="#231F20"/>
<path d="M117.716 29.2769C117.716 29.2769 120.564 29.4094 122.418 27.4884C123.478 26.4948 124.074 25.1038 124.008 23.6465C124.008 23.6465 120.895 25.6999 117.716 25.7662V29.2769Z" fill="#231F20"/>
<path d="M117.848 29.6085H117.716C117.583 29.6085 117.451 29.476 117.451 29.3435L117.385 25.899C117.385 25.7665 117.517 25.6341 117.65 25.5678C120.762 25.5016 123.743 23.5144 123.809 23.4481C123.875 23.3819 124.008 23.3819 124.074 23.4481C124.14 23.5144 124.206 23.5806 124.273 23.6468C124.339 25.1704 123.743 26.6939 122.617 27.7538C121.358 28.9461 119.637 29.6085 117.848 29.6085ZM117.981 26.0977L118.047 28.9461C119.57 28.9461 121.094 28.3499 122.219 27.2901C123.08 26.4952 123.61 25.3691 123.677 24.1768C121.955 25.2366 120.034 25.899 117.981 26.0977Z" fill="#231F20"/>
<path d="M120.166 15.6978C120.166 15.6978 117.915 19.076 118.444 19.6722C118.974 20.2684 120.498 19.8709 120.498 19.8709" fill="white"/>
<path d="M119.504 20.2683C119.041 20.3345 118.577 20.1358 118.246 19.8709C117.65 19.2084 119.041 16.89 119.968 15.5652C120.034 15.4327 120.233 15.3665 120.365 15.499C120.498 15.5652 120.564 15.7639 120.431 15.8964C119.372 17.4862 118.511 19.2084 118.709 19.5397C118.974 19.8709 119.968 19.8046 120.431 19.6721C120.63 19.6721 120.763 19.8046 120.763 19.9371C120.763 20.0696 120.696 20.2021 120.564 20.2683C120.233 20.2683 119.902 20.2683 119.504 20.2683Z" fill="#231F20"/>
<path d="M117.368 15.1078C117.383 14.7057 117.218 14.3728 116.999 14.3642C116.78 14.3555 116.589 14.6745 116.573 15.0766C116.558 15.4787 116.723 15.8117 116.942 15.8203C117.161 15.8289 117.352 15.5099 117.368 15.1078Z" fill="#231F20"/>
<path d="M122.726 14.4433C122.742 14.0412 122.577 13.7082 122.358 13.6996C122.139 13.691 121.948 14.01 121.932 14.4121C121.916 14.8142 122.081 15.1471 122.301 15.1557C122.52 15.1644 122.71 14.8454 122.726 14.4433Z" fill="#231F20"/>
<path d="M129.24 20.599C131.544 20.599 133.412 18.3154 133.412 15.4985C133.412 12.6815 131.544 10.3979 129.24 10.3979C126.935 10.3979 125.067 12.6815 125.067 15.4985C125.067 18.3154 126.935 20.599 129.24 20.599Z" fill="#E8521F"/>
<path d="M129.24 20.9307C126.79 20.9307 124.803 18.4798 124.803 15.5652C124.803 12.6506 126.79 10.1997 129.24 10.1997C131.691 10.1997 133.744 12.6506 133.744 15.5652C133.744 18.4798 131.691 20.9307 129.24 20.9307ZM129.24 10.7296C127.121 10.7296 125.333 12.9156 125.333 15.5652C125.333 18.2148 127.055 20.4008 129.24 20.4008C131.426 20.4008 133.148 18.2148 133.148 15.5652C133.148 12.9156 131.36 10.7296 129.24 10.7296Z" fill="#231F20"/>
<path d="M128.048 11.4587C127.319 7.88173 125.862 4.5697 123.809 1.58887C124.803 1.78759 125.796 2.11879 126.723 2.58248C126.723 2.58248 130.167 7.41804 130.763 12.8498L128.048 11.4587Z" fill="#E8521F"/>
<path d="M130.697 13.1808C130.631 13.1808 130.631 13.1808 130.565 13.1808L127.916 11.7898C127.849 11.7235 127.783 11.6573 127.783 11.591C127.055 8.08028 125.597 4.76824 123.611 1.78741C123.544 1.65493 123.544 1.58869 123.611 1.45621C123.677 1.32373 123.809 1.32373 123.875 1.32373C124.935 1.52245 125.929 1.85366 126.856 2.38358C126.922 2.38358 126.922 2.44982 126.988 2.44982C127.121 2.64854 130.499 7.41787 131.028 12.8496C131.028 12.9821 130.962 13.0483 130.896 13.1146C130.763 13.1808 130.763 13.1808 130.697 13.1808ZM128.313 11.2598L130.3 12.3197C129.638 7.55035 126.856 3.31095 126.458 2.78102C125.796 2.44982 125.134 2.18486 124.472 1.98614C126.26 4.90073 127.584 8.01403 128.313 11.2598Z" fill="#231F20"/>
<path d="M127.982 19.6059C127.915 19.6059 127.849 19.6059 127.783 19.5397C126.458 18.2811 125.796 16.9563 125.862 15.5652C125.995 14.1079 126.723 12.7169 127.849 11.7895C127.982 11.657 128.18 11.7233 128.247 11.8557C128.379 11.9882 128.313 12.1869 128.18 12.2532C127.187 13.1143 126.525 14.3066 126.392 15.6315C126.326 16.8238 126.922 18.0161 128.114 19.1422C128.247 19.2747 128.247 19.4734 128.114 19.5397C128.114 19.5397 128.048 19.6059 127.982 19.6059Z" fill="white"/>
<path d="M118.643 21.659L120.431 21.1953C120.431 21.1953 120.829 23.8449 119.769 24.0437C118.71 24.3086 118.643 21.659 118.643 21.659Z" fill="white"/>
<path d="M119.703 24.375C119.504 24.375 119.372 24.3088 119.239 24.1763C118.511 23.6464 118.444 21.8579 118.378 21.6591C118.378 21.5267 118.444 21.3942 118.577 21.3279L120.365 20.8643C120.431 20.8643 120.564 20.8643 120.63 20.9305C120.696 20.9967 120.762 21.063 120.762 21.1292C120.829 21.5929 121.094 24.0438 119.901 24.3088C119.769 24.375 119.769 24.375 119.703 24.375ZM118.974 21.9241C119.04 22.5865 119.239 23.5139 119.57 23.7788C119.637 23.8451 119.703 23.8451 119.769 23.8451C120.233 23.7126 120.299 22.5865 120.233 21.6591L118.974 21.9241Z" fill="#231F20"/>
<path d="M104.139 70.2798H104.072C103.94 70.2136 103.808 70.0811 103.874 69.9486L110.431 39.8091C110.497 39.6766 110.629 39.5442 110.762 39.6104C110.894 39.6766 111.027 39.8091 110.96 39.9416L104.404 70.0811C104.337 70.1473 104.271 70.2798 104.139 70.2798Z" fill="#231F20"/>
<path d="M101.423 102.606V103.136C101.423 107.309 104.801 110.753 109.04 110.753H146.526C150.699 110.753 154.143 107.375 154.143 103.136V50.7392C154.143 45.175 144.407 44.1151 141.625 44.4463V77.3017C141.625 77.3017 128.18 75.3145 122.749 83.9258C119.637 88.8938 119.239 102.208 119.239 102.208L101.423 102.606Z" fill="white"/>
<path d="M146.526 111.084H109.04C104.669 111.084 101.158 107.573 101.158 103.201V102.672C101.158 102.473 101.291 102.34 101.423 102.34L118.908 102.009C118.974 100.022 119.504 88.496 122.485 83.8592C127.452 75.9766 139.175 76.7715 141.36 77.0364V44.446C141.36 44.3135 141.493 44.1811 141.625 44.1148C143.612 43.8499 149.639 44.3135 152.686 47.0294C153.811 47.9568 154.474 49.2816 154.474 50.7389V103.135C154.408 107.507 150.897 111.084 146.526 111.084ZM101.754 102.937V103.135C101.754 107.176 105 110.422 109.04 110.422H146.526C150.566 110.422 153.811 107.176 153.811 103.135V50.7389C153.811 49.4803 153.215 48.288 152.222 47.4931C149.44 45.1084 144.009 44.5785 141.89 44.711V77.3014C141.89 77.3676 141.824 77.5001 141.758 77.5663C141.691 77.6326 141.625 77.6326 141.493 77.6326C141.36 77.6326 128.114 75.7778 122.882 84.1242C119.835 88.9597 119.438 102.142 119.438 102.274C119.438 102.407 119.305 102.605 119.107 102.605L101.754 102.937Z" fill="#231F20"/>
<path d="M137.85 31.6616C137.85 31.6616 149.771 55.5083 153.745 61.0062C157.653 66.5704 157.255 74.3206 157.255 74.3206L145.4 73.4595C145.4 73.4595 134.538 55.8395 131.492 51.4013L137.85 31.6616Z" fill="black"/>
<path d="M157.255 74.3867C157.255 74.3867 153.017 66.6365 147.453 65.7092C141.89 64.7818 118.842 67.8951 118.842 67.8951C118.842 67.8951 115.331 66.4378 113.874 67.1664C112.417 67.8951 105.927 71.6046 106.854 72.8632C107.781 74.188 109.967 72.3332 111.49 72.8632C112.947 73.3931 116.325 73.2606 118.511 73.3931C120.696 73.5918 157.454 76.9701 157.255 74.3867Z" fill="white"/>
<path d="M150.103 75.6449C142.42 75.6449 129.969 74.7176 118.974 73.7902L118.378 73.724C117.65 73.6577 116.789 73.6577 115.928 73.5915C114.139 73.5252 112.351 73.5252 111.292 73.1278C110.629 72.9953 109.901 73.0616 109.305 73.3265C108.311 73.5915 107.185 73.9227 106.589 72.9953C106.457 72.7966 106.391 72.5316 106.457 72.3329C106.92 70.4119 113.61 66.9012 113.676 66.8349C115.133 66.1063 118.312 67.2986 118.842 67.4973C120.564 67.2324 142.089 64.384 147.453 65.3114C153.083 66.2388 157.255 73.8564 157.454 74.1214C157.454 74.1876 157.52 74.1877 157.52 74.2539C157.52 74.4526 157.454 74.5851 157.322 74.7176C156.792 75.4462 154.076 75.6449 150.103 75.6449ZM110.762 72.4654C111.027 72.4654 111.292 72.5316 111.49 72.5979C112.417 72.9291 114.206 72.9953 115.928 72.9953C116.855 72.9953 117.716 73.0616 118.444 73.1278L119.041 73.194C145.864 75.5125 156.13 75.3137 156.858 74.3864C156.328 73.459 152.354 66.7687 147.321 65.9738C141.89 65.0464 119.041 68.1597 118.776 68.1597C118.709 68.1597 118.643 68.1597 118.643 68.1597C117.716 67.7623 115 66.8349 113.941 67.4311C112.086 68.3585 107.384 71.2068 106.987 72.4654C106.987 72.5316 106.987 72.5979 106.987 72.6641C107.318 73.194 108.046 73.0616 109.04 72.7304C109.636 72.5979 110.232 72.5316 110.762 72.4654Z" fill="#231F20"/>
<path d="M139.771 63.921C139.638 63.921 139.572 63.8547 139.506 63.7223L131.359 45.9698C131.293 45.8373 131.293 45.6386 131.426 45.5723C131.558 45.5061 131.757 45.5061 131.823 45.6386C131.823 45.6386 131.823 45.7048 131.889 45.7048L140.036 63.4573C140.102 63.5898 140.036 63.7885 139.903 63.8547C139.837 63.921 139.837 63.921 139.771 63.921Z" fill="#231F20"/>
<path d="M84.9982 114.926C84.8657 114.926 84.7995 114.86 84.7332 114.727C83.9385 113.005 77.1167 97.7032 78.8387 95.3848C80.5607 93.0664 106.126 82.7328 107.252 82.2692C107.384 82.2029 107.583 82.2691 107.649 82.4016C107.715 82.5341 107.649 82.7328 107.45 82.7991C100.032 85.7799 80.627 93.9275 79.3023 95.716C78.1764 97.2395 82.2165 107.772 85.2631 114.462C85.3293 114.595 85.2631 114.793 85.1306 114.86C85.1306 114.926 85.0644 114.926 84.9982 114.926Z" fill="white"/>
<path d="M116.06 142.019C116.06 142.019 119.306 148.179 118.842 148.577C118.312 148.974 94.9328 160.301 95.7938 158.049C96.6548 155.863 100.562 148.312 100.562 148.312" fill="white"/>
<path d="M96.0586 158.579C95.9261 158.579 95.7937 158.579 95.6612 158.513C95.4625 158.38 95.3963 158.115 95.5288 157.916C96.3898 155.73 100.099 148.444 100.297 148.179C100.364 148.047 100.562 147.98 100.695 148.047C100.827 148.113 100.893 148.312 100.827 148.444C100.761 148.51 97.0521 155.73 96.1248 158.049H96.1911C98.5754 158.049 116.921 149.371 118.577 148.378C118.577 147.715 117.186 144.801 115.795 142.217C115.729 142.085 115.795 141.886 115.928 141.82C116.06 141.754 116.259 141.82 116.325 141.952C119.703 148.312 119.239 148.709 119.041 148.841C118.842 148.974 99.3701 158.579 96.0586 158.579Z" fill="#231F20"/>
<path d="M82.0178 150.431L80.8919 158.513C80.8919 158.513 54.3998 159.374 55.3932 158.115C56.3867 156.857 66.1225 148.775 66.1225 148.775" fill="white"/>
<path d="M65.1953 159.109C59.7644 159.109 55.3932 158.91 55.1282 158.38C55.062 158.248 55.062 158.049 55.1945 157.983C56.1879 156.724 65.5264 148.908 65.9238 148.577C66.0562 148.51 66.2549 148.51 66.3212 148.643C66.3874 148.775 66.3874 148.908 66.2549 149.04C66.1887 149.107 57.3801 156.459 55.7905 158.182C57.7775 158.778 71.7521 158.513 80.6269 158.248L81.6866 150.431C81.7529 150.233 81.8853 150.166 82.0178 150.166C82.1502 150.166 82.2827 150.365 82.2827 150.498L81.1568 158.579C81.1568 158.712 81.0243 158.844 80.8919 158.844C76.3882 158.976 70.295 159.109 65.1953 159.109Z" fill="#231F20"/>
<path d="M155.6 160.036H151.758L140.632 110.753H145.996L155.6 160.036Z" fill="white"/>
<path d="M155.6 160.367H151.758C151.626 160.367 151.493 160.301 151.493 160.102L140.367 110.819C140.301 110.62 140.433 110.488 140.632 110.421H140.698H146.063C146.195 110.421 146.327 110.554 146.394 110.686L155.931 159.969C155.997 160.102 155.865 160.301 155.666 160.301C155.666 160.367 155.6 160.367 155.6 160.367ZM152.023 159.771H155.202L145.731 111.084H141.029L152.023 159.771Z" fill="#231F20"/>
<path d="M145.599 132.679C145.533 132.679 145.467 132.679 145.467 132.612L116.259 115.787C116.126 115.721 116.06 115.522 116.126 115.39C116.193 115.257 116.391 115.191 116.524 115.257L145.731 132.083C145.864 132.149 145.93 132.348 145.864 132.48C145.798 132.612 145.731 132.679 145.599 132.679Z" fill="#231F20"/>
<path d="M112.749 132.678C112.55 132.678 112.418 132.546 112.418 132.413C112.418 132.281 112.484 132.215 112.55 132.148L141.758 115.323C141.89 115.257 142.089 115.257 142.155 115.456C142.221 115.588 142.155 115.787 142.023 115.853L112.815 132.678C112.815 132.678 112.815 132.678 112.749 132.678Z" fill="#231F20"/>
<path d="M20.5558 73.9893H176.396C177.985 73.9893 179.244 75.2478 179.244 76.8376C179.244 78.4274 177.985 79.686 176.396 79.686H20.5558C18.9662 79.686 17.7079 78.4274 17.7079 76.8376C17.7741 75.2478 19.0325 73.9893 20.5558 73.9893Z" fill="white"/>
<path d="M176.396 79.9509H20.5559C18.8339 79.9509 17.3768 78.5598 17.3768 76.7713C17.3768 75.0491 18.7677 73.5918 20.5559 73.5918H176.396C178.118 73.5918 179.575 74.9828 179.575 76.7713C179.575 78.5598 178.184 79.9509 176.396 79.9509ZM20.5559 74.3204C19.1651 74.2542 17.9729 75.3141 17.9067 76.7051C17.8405 78.0962 18.9001 79.2885 20.291 79.3547C20.3572 79.3547 20.4897 79.3547 20.5559 79.3547H176.396C177.787 79.2885 178.847 78.0962 178.78 76.7051C178.714 75.3803 177.654 74.3867 176.396 74.3204H20.5559Z" fill="#231F20"/>
<path d="M92.681 30.6021L96.4562 29.3435C97.847 28.8798 99.3041 29.6085 99.7677 30.9995L100.231 32.3906C100.695 33.7816 99.9664 35.2389 98.5755 35.7026L94.8004 36.9612L92.681 30.6021Z" fill="white"/>
<path d="M94.8664 37.2919C94.7339 37.2919 94.6015 37.2256 94.6015 37.0932L92.4821 30.6678C92.4821 30.6016 92.4821 30.5353 92.4821 30.4691C92.5483 30.4029 92.5483 30.3366 92.6808 30.3366L96.4559 29.078C97.9792 28.5481 99.7012 29.343 100.231 30.9328L100.562 32.2576C101.092 33.7811 100.231 35.4371 98.7078 35.9671L94.9326 37.2256L94.8664 37.2919ZM93.0782 30.8003L94.9989 36.6295L98.4428 35.4371C99.635 35.0397 100.297 33.7149 99.8999 32.5226L99.4363 31.1315C99.0389 29.9392 97.7143 29.2768 96.5222 29.6742L93.0782 30.8003Z" fill="#231F20"/>
<path d="M82.084 33.9141L92.6809 30.4033L94.9327 37.1599L84.3358 40.6706C82.5476 41.2668 80.6931 40.2732 80.0971 38.5509L79.9646 38.2197C79.3023 36.4975 80.2295 34.5765 82.084 33.9141C82.0178 33.9141 82.0178 33.9141 82.084 33.9141Z" fill="#E8521F"/>
<path d="M83.2099 41.1341C81.6203 41.1341 80.2295 40.1405 79.6997 38.6169L79.5672 38.2857C78.9049 36.3647 79.9646 34.245 81.8853 33.6489L92.4821 30.1381C92.6146 30.0719 92.8133 30.1381 92.8795 30.3368L95.1313 37.0934C95.1313 37.1596 95.1313 37.2259 95.1313 37.2921C95.0651 37.3584 95.0651 37.4246 94.9327 37.4246L84.3358 41.0016C84.0046 41.0678 83.6073 41.1341 83.2099 41.1341ZM82.1502 34.245C80.5607 34.775 79.6334 36.5635 80.2295 38.1532L80.362 38.4844C80.8918 40.0742 82.6138 41.0016 84.2696 40.4717L94.6015 36.9609L92.5484 30.8005L82.1502 34.245Z" fill="#231F20"/>
<path d="M79.8984 38.0869L78.64 38.6168L79.1036 39.9417L80.5607 39.4117L79.8984 38.0869Z" fill="#231F20"/>
<path d="M79.1037 40.2064C78.9712 40.2064 78.8388 40.1401 78.8388 40.0077L78.3089 38.6828C78.2427 38.5504 78.3089 38.3516 78.5076 38.2854L79.8322 37.7555C79.9647 37.6892 80.1634 37.7555 80.2296 37.888L80.8919 39.2128C80.9582 39.279 80.9582 39.4115 80.8919 39.4777C80.8919 39.544 80.8257 39.6102 80.6932 39.6102L79.2362 40.1401L79.1037 40.2064ZM78.9712 38.7491L79.3024 39.544L80.1634 39.2128L79.766 38.4179L78.9712 38.7491Z" fill="#231F20"/>
<path d="M82.5477 72.002H93.6744C94.6016 72.002 95.3301 72.7306 95.3301 73.658V73.9892H80.9581V73.658C80.8919 72.7968 81.6204 72.0682 82.5477 72.002Z" fill="white"/>
<path d="M95.3302 74.3209H80.9582C80.7595 74.3209 80.6271 74.1884 80.6271 74.0559V73.7247C80.6271 72.6648 81.4881 71.8037 82.5477 71.8037H93.6745C94.7341 71.8037 95.5951 72.6648 95.5951 73.7247V74.0559C95.5951 74.1884 95.4627 74.3209 95.3302 74.3209ZM81.1569 73.7247H94.9328C94.9328 72.996 94.3368 72.3999 93.6082 72.3999H82.4815C81.8192 72.3336 81.1569 72.9298 81.1569 73.7247Z" fill="#231F20"/>
<path d="M88.0447 35.6362C88.9057 35.6362 89.568 36.2986 89.568 37.1598V72.0686H86.5214V37.1598C86.5876 36.2986 87.2499 35.6362 88.0447 35.6362Z" fill="white"/>
<path d="M89.568 72.3997H86.5214C86.3228 72.3997 86.1903 72.2672 86.1903 72.0685V37.1597C86.1241 36.1661 86.9188 35.305 87.9123 35.2387C88.9057 35.1725 89.7667 35.9674 89.833 36.961C89.833 37.0272 89.833 37.0935 89.833 37.1597V72.0685C89.8992 72.201 89.7667 72.3997 89.568 72.3997C89.6343 72.3997 89.6343 72.3997 89.568 72.3997ZM86.8526 71.7373H89.3031V37.1597C89.3031 36.4973 88.7733 35.9674 88.111 35.9674C87.4487 35.9674 86.9188 36.4973 86.9188 37.1597V71.7373H86.8526Z" fill="#231F20"/>
<path d="M89.7003 62.9936C89.6341 62.9936 89.5679 62.9937 89.5017 62.9274C89.3692 62.7949 89.3692 62.5962 89.5017 62.53C90.8925 61.4039 91.8197 59.6816 91.9522 57.8931C92.0184 56.6345 91.4886 55.4422 90.6276 54.5811C89.4354 53.5212 88.0446 52.7263 86.5213 52.2627C85.9252 52.0639 85.3291 51.9315 84.7331 51.7327C83.7396 51.4678 82.7462 51.1366 81.8189 50.8054C80.2294 50.143 78.11 48.9506 77.1828 46.6985C76.1231 44.2476 76.388 41.4654 77.9113 39.2133C77.9776 39.0808 78.1763 39.0808 78.3087 39.147C78.4412 39.2133 78.4412 39.412 78.3749 39.5445C76.9841 41.5979 76.7192 44.1813 77.7126 46.4335C78.5736 48.487 80.5606 49.6793 82.0176 50.2754C82.9448 50.6067 83.9383 50.9379 84.8655 51.2028C85.4616 51.4015 86.0577 51.534 86.6537 51.7327C88.2433 52.1964 89.7666 53.0576 90.9587 54.1836C91.9522 55.1773 92.482 56.5021 92.482 57.8931C92.2833 59.8803 91.3561 61.6688 89.7666 62.9274C89.7666 62.9937 89.7666 62.9936 89.7003 62.9936Z" fill="#231F20"/>
<path d="M27.2453 52.9248H53.2738C53.9361 52.9248 54.5322 53.3885 54.7309 54.0509L59.5657 71.6047H76.4545C77.0505 71.5384 77.5804 72.0021 77.5804 72.5983C77.6466 73.1944 77.183 73.7244 76.5869 73.7244C76.5207 73.7244 76.4545 73.7244 76.3882 73.7244H32.1463C31.484 73.7244 30.8217 73.2607 30.6893 72.5983L25.7882 54.8458C25.5895 54.0509 26.0531 53.1898 26.8479 52.991C26.9804 52.9248 27.1128 52.9248 27.2453 52.9248Z" fill="#231F20"/>
<path d="M76.4543 74.0554H32.1461C31.3514 74.0554 30.6228 73.5255 30.3579 72.7306L25.4569 54.9781C25.192 53.9845 25.7218 52.9909 26.7153 52.7259C26.8477 52.6597 27.0464 52.6597 27.2451 52.6597H53.2736C54.0684 52.6597 54.7969 53.1896 54.9956 53.9845L59.7642 71.3395H76.4543C77.1828 71.3395 77.8451 71.9357 77.8451 72.7306C77.8451 73.4592 77.249 74.0554 76.4543 74.0554ZM27.3113 53.1896C26.9139 53.1896 26.5828 53.3883 26.3179 53.6533C26.0529 53.9845 25.9867 54.3819 26.1192 54.7131L30.954 72.5319C31.0865 73.0618 31.6163 73.4592 32.1461 73.4592H76.4543C76.8517 73.4592 77.249 73.128 77.249 72.6643C77.249 72.2669 76.9179 71.8695 76.4543 71.8695H59.5655C59.4331 71.8695 59.3006 71.8032 59.3006 71.6707L54.4658 54.117C54.3333 53.587 53.8035 53.1896 53.2736 53.1896H27.3113Z" fill="#231F20"/>
<path d="M58.8373 71.7371H32.8087C32.61 71.7371 32.4776 71.6046 32.4776 71.4059C32.4776 71.2072 32.61 71.0747 32.8087 71.0747H58.8373C59.0359 71.0747 59.1684 71.2072 59.1684 71.4059C59.1684 71.6046 59.0359 71.7371 58.8373 71.7371Z" fill="white"/>
<path d="M56.1219 27.8858H16.4499C14.9266 27.8858 13.7344 26.6273 13.7344 25.17V9.93462C13.7344 8.41108 14.9928 7.21875 16.4499 7.21875H56.1219C57.6452 7.21875 58.8373 8.47732 58.8373 9.93462V25.1037C58.8373 26.6273 57.5789 27.8858 56.1219 27.8858ZM16.4499 7.81492C15.324 7.81492 14.3967 8.74228 14.3967 9.86838V25.0375C14.3967 26.1636 15.324 27.0909 16.4499 27.0909H56.1219C57.2478 27.0909 58.175 26.1636 58.175 25.0375V9.93462C58.175 8.80853 57.2478 7.88116 56.1219 7.88116L16.4499 7.81492Z" fill="#D98C24"/>
<path d="M21.0195 17.4862C21.0195 17.0225 21.0857 16.5588 21.2844 16.1614C21.4169 15.7639 21.6818 15.4327 21.9467 15.1678C22.2116 14.9028 22.609 14.6378 23.0064 14.5054C23.8674 14.2404 24.7946 14.2404 25.5894 14.5054C25.9867 14.6378 26.3179 14.9028 26.6491 15.1678C26.914 15.4327 27.1789 15.7639 27.3114 16.1614C27.6425 17.0225 27.6425 17.9499 27.3114 18.811C27.1789 19.2084 26.914 19.5397 26.6491 19.8046C26.3179 20.0696 25.9867 20.3345 25.5894 20.467C24.7284 20.732 23.8011 20.732 23.0064 20.467C22.609 20.3345 22.2778 20.1358 21.9467 19.8046C21.6818 19.5397 21.4169 19.2084 21.2844 18.811C21.0857 18.4136 21.0195 17.9499 21.0195 17.4862ZM22.3441 17.4862C22.3441 17.7512 22.4103 18.0161 22.4765 18.2811C22.5428 18.4798 22.6752 18.7448 22.8739 18.8772C23.0726 19.076 23.2713 19.2084 23.47 19.2747C23.9336 19.4734 24.5297 19.4734 24.9933 19.2747C25.192 19.2084 25.3907 19.076 25.5894 18.8772C25.7881 18.6785 25.9205 18.4798 25.9868 18.2811C26.053 18.0161 26.1192 17.7512 26.1192 17.4862C26.1192 17.2212 26.053 16.9563 25.9868 16.7575C25.9205 16.5588 25.7881 16.2939 25.5894 16.1614C25.3907 15.9627 25.192 15.8302 24.9933 15.7639C24.5297 15.5652 23.9336 15.5652 23.47 15.7639C23.2713 15.8302 23.0726 15.9627 22.8739 16.1614C22.6752 16.3601 22.609 16.5588 22.4765 16.7575C22.4103 17.0225 22.3441 17.2875 22.3441 17.4862Z" fill="#D98C24"/>
<path d="M28.4373 14.5054H30.2255L32.8085 18.6785V14.5054H34.1331V20.5333H32.4111L29.7619 16.2276V20.5333H28.4373V14.5054Z" fill="#D98C24"/>
<path d="M39.829 14.5054H40.9549L43.6041 20.5333H42.0808L41.551 19.2747H39.2329L38.7031 20.5333H37.246L39.829 14.5054ZM40.3589 16.2276L39.6303 18.0824H41.0874L40.3589 16.2276Z" fill="#D98C24"/>
<path d="M44.1339 14.5054H45.4585V20.5333H44.1339V14.5054Z" fill="#D98C24"/>
<path d="M46.7168 14.5054H49.0349C49.2998 14.5054 49.631 14.5054 49.8959 14.5716C50.1608 14.6379 50.4257 14.7041 50.6244 14.9028C50.8231 15.0353 51.0218 15.234 51.1543 15.4327C51.2867 15.6977 51.353 16.0289 51.353 16.2939C51.353 16.6913 51.2205 17.0888 51.0218 17.3537C50.7569 17.6849 50.4257 17.8836 50.0284 17.9499L51.5517 20.467H49.9621L48.7038 18.0824H48.0415V20.467H46.7168V14.5054ZM48.0415 17.0225H48.8362C48.9687 17.0225 49.1011 17.0225 49.2336 17.0225C49.3661 17.0225 49.4985 17.0225 49.5648 16.9563C49.6972 16.89 49.7634 16.8238 49.8297 16.7576C49.8959 16.6251 49.9621 16.4926 49.9621 16.3601C49.9621 16.2276 49.9621 16.0951 49.8959 16.0289C49.8297 15.9627 49.7634 15.8964 49.631 15.8302C49.4985 15.7639 49.4323 15.7639 49.2998 15.6977C49.1674 15.6977 49.0349 15.6977 48.9024 15.6977H48.0415V17.0225Z" fill="#D98C24"/>
<path d="M185.536 121.285C185.602 120.159 185.403 119.099 184.874 118.106C184.344 117.443 183.88 116.781 183.483 116.119C182.887 114.86 183.284 113.337 183.152 111.945C183.019 110.753 182.489 109.693 181.695 108.832C180.966 108.104 180.039 107.574 179.31 106.845C178.184 105.586 177.853 103.798 177.191 102.208C176.264 99.9559 174.674 98.0349 172.555 96.7764C173.813 99.2935 170.965 102.539 172.224 105.056C172.621 105.851 173.416 106.381 173.747 107.242C174.475 109.23 172.025 111.482 172.82 113.469C173.217 114.463 174.277 115.059 174.807 115.986C175.469 117.245 174.939 118.834 175.005 120.292C175.071 122.279 176.33 124.068 177.787 125.459C178.714 126.32 179.708 127.048 180.701 127.843C181.893 128.771 182.357 129.764 183.417 128.241C184.741 126.253 185.47 123.803 185.536 121.285Z" fill="#231F20"/>
<path d="M186.86 122.478C186.463 120.954 186.198 119.232 186.86 117.775C187.589 116.119 189.377 114.926 189.576 113.138C189.708 111.945 189.112 110.753 189.377 109.627C189.642 108.435 190.569 107.706 191.364 106.845C193.152 104.858 194.212 102.341 194.411 99.6909C195.603 101.148 196.596 102.738 197.325 104.46C198.053 106.249 197.855 108.236 196.927 109.826C196.596 110.157 196.398 110.621 196.199 111.018C195.868 112.144 196.795 113.204 197.325 114.33C197.921 115.589 197.788 117.112 196.994 118.238C196 119.497 194.013 120.027 193.483 121.617C193.351 122.213 193.285 122.809 193.285 123.405C193.086 125.525 191.563 127.247 189.576 127.843C188.384 128.108 188.384 127.644 188.185 126.651C187.721 125.127 187.192 123.802 186.86 122.478Z" fill="#231F20"/>
<path d="M183.019 111.283C182.158 108.302 181.827 105.189 180.9 102.208C180.105 99.8893 179.178 97.6371 178.052 95.4512L181.761 97.041C182.953 97.5709 184.211 98.167 184.807 99.2931C185.801 101.28 184.012 103.93 185.072 105.917C185.536 106.58 185.999 107.176 186.529 107.772C187.589 109.295 187.456 111.415 186.86 113.204C186.595 113.932 185.47 117.907 184.476 116.847C184.079 116.383 184.012 114.793 183.88 114.131C183.549 113.137 183.284 112.21 183.019 111.283Z" fill="#231F20"/>
<path d="M185.006 150.961C184.277 146.059 181.959 128.903 181.959 128.704L182.622 128.638C182.622 128.837 184.94 145.993 185.668 150.895L185.006 150.961Z" fill="#231F20"/>
<path d="M185.933 155.532H185.271C185.337 149.769 187.721 127.578 189.112 126.055L189.642 126.518C188.516 127.711 185.933 149.106 185.933 155.532Z" fill="#231F20"/>
<path d="M187.125 154.406H186.463C186.993 141.886 184.344 115.655 184.344 115.39L185.006 115.324C185.072 115.589 187.721 141.886 187.125 154.406Z" fill="#231F20"/>
<path d="M178.648 139.17H192.424L191.43 153.147C191.232 155.531 189.245 157.452 186.86 157.452H184.145C181.694 157.452 179.708 155.598 179.575 153.147L178.648 139.17Z" fill="white"/>
<path d="M186.927 157.784H184.211C181.628 157.784 179.443 155.797 179.244 153.147L178.251 139.17C178.251 138.972 178.383 138.773 178.582 138.773H192.358C192.424 138.773 192.556 138.839 192.623 138.905C192.689 138.972 192.755 139.038 192.689 139.17L191.695 153.147C191.629 155.731 189.51 157.718 186.927 157.784ZM179.045 139.502L179.973 153.081C180.105 155.333 181.96 157.055 184.211 157.055H186.927C189.179 157.055 191.033 155.333 191.166 153.081L192.093 139.502H179.045Z" fill="#231F20"/>
</svg>
