<svg width="267" height="90" viewBox="0 0 267 90" fill="none" xmlns="http://www.w3.org/2000/svg">
  <path
    d="M259.025 23.9197C252.555 17.8076 243.827 13.8161 234.045 12.5687C223.211 11.1966 214.633 13.9408 205.153 17.6829C193.265 22.4229 185.741 17.6829 176.562 11.5708C169.64 6.95555 162.567 2.21557 153.538 1.21768C136.835 -0.778102 123.593 10.1987 111.554 18.0571C104.632 22.5476 96.5064 27.537 87.327 27.7865C77.0944 28.036 68.517 22.0486 60.8425 17.3087C52.4156 12.0697 43.2363 6.83081 32.2512 6.83081C20.0623 6.58134 9.07722 12.4439 1.85416 20.1776C-1.60689 23.9197 4.71329 29.2834 8.17434 25.4165C15.3974 17.9323 26.0815 12.1945 38.1199 14.8139C47.1488 16.8097 54.5223 22.6723 61.8959 27.0381C75.7401 35.2707 90.4871 37.6407 105.686 30.406C118.928 24.0444 129.913 11.4461 145.412 8.70186C163.47 5.58345 173.703 23.296 189.654 26.7886C201.391 29.2834 209.216 22.7971 219.75 20.4271C231.788 17.6829 244.579 21.425 252.555 29.1586C256.467 32.776 262.787 27.537 259.025 23.9197Z"
    fill="#D98C24" />
  <path
    d="M251.351 47.9941C242.322 43.2542 232.842 45.6242 223.361 47.9941C212.226 50.8631 201.241 51.6115 190.557 46.7468C181.979 42.7552 176.11 35.5205 166.179 33.5247C157.451 31.6537 148.723 34.2732 141.049 37.7658C131.418 42.2563 122.991 48.3684 112.307 51.362C101.623 54.3557 89.7347 54.4804 79.0506 51.7362C61.1435 46.9963 41.1296 33.5247 23.6738 47.121C19.4604 50.3641 25.7806 55.7278 29.994 52.3599C39.0228 45.3747 51.6632 49.7404 61.1434 53.4825C69.5704 56.8504 77.6963 59.8441 87.1766 60.842C107.491 62.9625 122.991 55.9773 139.544 47.2457C147.971 42.7552 157.902 37.7658 167.834 42.1315C176.11 45.7489 181.678 52.1104 190.557 55.1041C198.382 57.7236 206.808 58.5967 215.085 57.5988C224.866 56.3515 237.206 49.6157 246.686 54.6052C251.802 57.0999 256.317 50.6136 251.351 47.9941Z"
    fill="#D98C24" />
  <path
    d="M265.646 82.1711C258.574 75.9342 248.642 72.3169 238.259 72.9406C223.963 73.689 214.483 84.5411 199.586 81.7968C186.644 79.3021 175.81 71.6932 162.266 70.82C152.335 70.1964 142.102 73.5642 137.588 81.1732C134.879 85.4142 142.704 89.281 145.413 84.9153C151.432 75.1858 166.028 78.1795 175.81 81.7968C184.838 85.1647 193.566 89.281 203.648 89.9047C214.333 90.5284 221.104 85.7884 230.283 82.4205C240.516 78.5537 251.953 80.9237 259.477 87.6595C263.239 91.0273 269.709 85.7884 265.646 82.1711Z"
    fill="#D98C24" />
</svg>
