<svg width="409" height="403" viewBox="0 0 409 403" fill="none" xmlns="http://www.w3.org/2000/svg">
<path d="M318.132 354.675L319.652 309.41L285.769 304.287L283.69 355.19" fill="white"/>
<path d="M283.712 355.883C283.534 355.872 283.367 355.795 283.243 355.667C283.119 355.538 283.047 355.368 283.042 355.19L285.121 304.264C285.12 304.168 285.141 304.074 285.184 303.988C285.227 303.903 285.289 303.829 285.366 303.772C285.435 303.709 285.517 303.663 285.606 303.636C285.695 303.608 285.789 303.602 285.88 303.615L319.785 308.762C319.951 308.784 320.103 308.867 320.21 308.995C320.318 309.124 320.374 309.288 320.367 309.455L318.824 354.764C318.824 354.855 318.806 354.944 318.771 355.027C318.736 355.11 318.685 355.185 318.62 355.247C318.555 355.31 318.479 355.359 318.395 355.391C318.311 355.424 318.221 355.439 318.132 355.436C317.95 355.424 317.779 355.344 317.654 355.211C317.53 355.078 317.461 354.902 317.461 354.72L318.958 310.149L286.417 305.226L284.383 355.346C284.348 355.498 284.263 355.634 284.141 355.731C284.019 355.829 283.868 355.882 283.712 355.883Z" fill="#231F20"/>
<path d="M152.741 335.12L191.518 289.117L226.183 297.597L182.02 342.839" fill="white"/>
<path d="M182.02 343.577C181.929 343.58 181.837 343.564 181.753 343.529C181.668 343.495 181.591 343.442 181.528 343.376C181.465 343.315 181.414 343.242 181.38 343.162C181.345 343.081 181.327 342.994 181.327 342.906C181.327 342.818 181.345 342.731 181.38 342.65C181.414 342.57 181.465 342.497 181.528 342.436L224.865 298.044L191.765 289.877L153.211 335.589C153.087 335.709 152.923 335.779 152.751 335.785C152.579 335.79 152.411 335.732 152.279 335.62C152.148 335.508 152.063 335.351 152.041 335.18C152.019 335.009 152.062 334.836 152.16 334.694L191.027 288.669C191.105 288.571 191.21 288.497 191.329 288.458C191.448 288.418 191.576 288.414 191.698 288.445L226.385 296.925C226.503 296.956 226.611 297.018 226.698 297.104C226.785 297.19 226.847 297.298 226.879 297.416C226.91 297.534 226.91 297.659 226.879 297.777C226.847 297.895 226.784 298.003 226.698 298.089L182.534 343.286C182.406 343.445 182.222 343.549 182.02 343.577Z" fill="#231F20"/>
<path d="M302.956 103.448C302.956 103.448 250.254 117.925 250.768 119.961C251.282 121.997 261.608 160.102 261.608 160.102L294.44 151.868L302.956 103.448Z" fill="black"/>
<path d="M304.073 103.135C304.073 103.135 287.333 107.61 277.075 113.54C266.816 119.469 269.632 182.477 269.632 182.477L345.622 197.826C345.622 197.826 360.083 156.858 359.032 138.175C357.982 119.491 346.628 92.9771 304.073 103.135Z" fill="black"/>
<path d="M266.212 151.779C266.132 151.802 266.047 151.802 265.967 151.779C265.793 151.709 265.654 151.574 265.578 151.402C265.503 151.231 265.498 151.037 265.564 150.862C270.548 138.645 278.013 119.984 278.237 118.686C278.237 118.596 278.255 118.507 278.29 118.424C278.325 118.341 278.376 118.266 278.441 118.204C278.506 118.141 278.582 118.092 278.666 118.06C278.75 118.027 278.84 118.012 278.929 118.015C279.119 118.015 279.301 118.09 279.435 118.225C279.569 118.359 279.645 118.541 279.645 118.731C279.645 119.917 270.705 142.023 266.883 151.399C266.821 151.521 266.725 151.623 266.605 151.691C266.486 151.758 266.349 151.789 266.212 151.779Z" fill="#231F20"/>
<path d="M308.722 95.4613L303.358 111.594C303.358 111.594 303.224 121.17 313.863 120.342C316.992 120.052 320.019 119.071 322.724 117.469C325.429 115.868 327.746 113.685 329.508 111.079L333.978 82.1481C332.348 80.7291 331.311 78.7483 331.072 76.5991C330.845 74.9912 330.898 73.356 331.228 71.7661C331.695 69.6384 332.447 67.5836 333.463 65.6578C328.41 64.8713 323.775 62.3855 320.322 58.6096C319.525 57.6031 318.78 56.5576 318.087 55.4771C317.774 54.9625 311.024 58.1398 310.309 58.4978C306.833 60.0215 303.869 62.5149 301.771 65.6801C300.382 68.4217 299.503 71.394 299.179 74.4511C298.375 78.6548 297.971 82.925 297.972 87.2049C298.173 95.3494 308.722 95.4613 308.722 95.4613Z" fill="white"/>
<path d="M312.521 121.036C310.015 121.146 307.564 120.28 305.682 118.619C303.845 116.738 302.798 114.224 302.754 111.594V111.392L307.873 96.0429C305.258 95.7968 297.525 94.4767 297.458 87.2272C297.476 82.9249 297.887 78.6334 298.687 74.4063C299.048 71.2825 299.972 68.2502 301.413 65.4563C303.537 62.1915 306.545 59.5994 310.085 57.983C317.953 54.045 318.601 54.94 318.601 55.1862C319.275 56.2577 320.022 57.2818 320.836 58.2515C324.182 61.9394 328.698 64.3578 333.62 65.0983C333.7 65.1117 333.776 65.141 333.844 65.1846C333.913 65.2282 333.972 65.2851 334.017 65.3519C334.063 65.4187 334.095 65.4941 334.111 65.5735C334.128 65.6529 334.128 65.7348 334.112 65.8143C334.131 65.88 334.131 65.9499 334.112 66.0157C333.1 67.8811 332.349 69.876 331.877 71.945C331.586 73.4719 331.541 75.0355 331.742 76.5767C331.959 78.5636 332.907 80.3985 334.402 81.7229C334.497 81.7838 334.571 81.8719 334.615 81.9757C334.659 82.0795 334.67 82.1942 334.648 82.3047L330.178 111.236C330.198 111.309 330.198 111.386 330.178 111.459C328.37 114.175 325.975 116.448 323.17 118.11C320.365 119.771 317.222 120.779 313.974 121.058L312.521 121.036ZM303.961 111.705C303.921 112.935 304.163 114.158 304.668 115.28C305.173 116.402 305.928 117.393 306.876 118.178C307.823 118.962 308.937 119.518 310.133 119.804C311.329 120.09 312.574 120.098 313.773 119.828C316.799 119.537 319.725 118.585 322.343 117.039C324.962 115.492 327.209 113.389 328.926 110.878L333.396 82.4165C331.812 80.9061 330.808 78.8869 330.558 76.7109C330.256 75.0614 330.256 73.3708 330.558 71.7213C330.988 69.8111 331.672 67.9673 332.592 66.2394C327.708 65.3191 323.253 62.8382 319.897 59.1689C319.098 58.2191 318.351 57.2256 317.662 56.193C315.213 57.0302 312.824 58.0319 310.51 59.1913C307.227 60.7048 304.432 63.1074 302.442 66.1275C301.083 68.8103 300.206 71.7108 299.849 74.6972C299.064 78.8578 298.668 83.0825 298.664 87.3167C298.664 94.7452 308.23 94.9465 308.677 94.9465C308.774 94.9516 308.868 94.9784 308.954 95.0249C309.039 95.0713 309.112 95.1363 309.169 95.215C309.212 95.3019 309.235 95.3977 309.235 95.4947C309.235 95.5918 309.212 95.6876 309.169 95.7744L303.961 111.705Z" fill="#231F20"/>
<path d="M328.39 79.5517C328.902 78.3925 329.771 77.428 330.871 76.7996C331.928 76.26 333.069 75.9043 334.246 75.748C334.88 75.6139 335.534 75.6139 336.168 75.748C336.602 75.8948 337.004 76.1225 337.352 76.4192C338.243 77.0386 338.879 77.9611 339.141 79.0147C339.254 79.8816 339.162 80.7631 338.872 81.5879C338.608 82.4996 338.225 83.3723 337.732 84.1834C337.234 84.9769 336.583 85.6642 335.819 86.2061C335.055 86.748 334.192 87.1339 333.278 87.3416C332.365 87.5494 331.42 87.5751 330.497 87.4171C329.574 87.2591 328.691 86.9206 327.898 86.4209" fill="white"/>
<path d="M331.698 87.9653C330.216 87.9646 328.765 87.5374 327.519 86.7347C327.397 86.6605 327.31 86.5411 327.276 86.4026C327.243 86.2641 327.266 86.118 327.34 85.9963C327.414 85.8747 327.533 85.7875 327.671 85.7539C327.81 85.7203 327.956 85.7431 328.077 85.8173C329.567 86.7759 331.375 87.1056 333.106 86.7347C334.798 86.326 336.264 85.2749 337.196 83.8036C337.662 83.0272 338.023 82.1919 338.269 81.3199C338.526 80.604 338.618 79.839 338.537 79.0824C338.279 78.1769 337.719 77.3872 336.95 76.8449C336.649 76.603 336.309 76.4138 335.944 76.2856C335.394 76.1509 334.819 76.1509 334.268 76.2856C333.147 76.44 332.059 76.7802 331.05 77.2924C330.057 77.8777 329.274 78.7628 328.815 79.8208C328.79 79.887 328.753 79.9474 328.704 79.9983C328.655 80.0492 328.596 80.0896 328.531 80.1169C328.467 80.1441 328.397 80.1578 328.326 80.1569C328.256 80.156 328.186 80.1406 328.122 80.1117C327.994 80.0614 327.89 79.9637 327.831 79.8387C327.773 79.7138 327.765 79.5711 327.809 79.4404C328.372 78.1551 329.337 77.0874 330.558 76.3974C331.661 75.8179 332.856 75.432 334.089 75.2563C334.825 75.0929 335.588 75.0929 336.324 75.2563C336.82 75.4279 337.281 75.6854 337.688 76.0171C338.687 76.7175 339.394 77.7604 339.677 78.9482C339.804 79.8977 339.704 80.8639 339.386 81.7674C339.117 82.727 338.719 83.6454 338.202 84.4972C337.66 85.361 336.953 86.1085 336.12 86.6962C335.287 87.2839 334.346 87.7001 333.352 87.9206C332.805 88.0038 332.249 88.0188 331.698 87.9653Z" fill="#231F20"/>
<path d="M305.996 103.964C309.925 104.388 313.878 103.423 317.171 101.234C318.61 100.327 319.836 99.1203 320.765 97.6953C321.695 96.2702 322.306 94.6609 322.557 92.9775C318.197 94.8536 313.46 95.6886 308.722 95.4164L305.996 103.964Z" fill="#231F20"/>
<path d="M307.537 104.657C306.986 104.69 306.434 104.69 305.883 104.657C305.804 104.646 305.727 104.619 305.658 104.578C305.589 104.537 305.529 104.483 305.481 104.418C305.433 104.354 305.398 104.28 305.379 104.202C305.36 104.124 305.357 104.043 305.369 103.963L308.096 95.4609C308.139 95.3351 308.22 95.2262 308.329 95.1498C308.437 95.0734 308.567 95.0334 308.7 95.0357C313.303 95.2483 317.893 94.3906 322.109 92.5297C322.204 92.4857 322.307 92.4629 322.411 92.4629C322.515 92.4629 322.618 92.4857 322.713 92.5297C322.805 92.5688 322.886 92.6302 322.948 92.7083C323.011 92.7864 323.053 92.8788 323.071 92.9772C322.823 94.7656 322.183 96.4771 321.198 97.9894C320.213 99.5018 318.906 100.778 317.371 101.726C314.467 103.681 311.037 104.704 307.537 104.657ZM306.777 103.426C310.295 103.605 313.776 102.64 316.701 100.674C319.125 99.1164 320.904 96.7317 321.707 93.9617C317.707 95.5528 313.427 96.314 309.124 96.1992L306.777 103.426Z" fill="#231F20"/>
<path d="M315.852 67.7832C315.852 67.7832 309.012 74.63 309.973 76.3305C310.934 78.031 314.689 77.6953 314.689 77.6953" fill="white"/>
<path d="M314.131 78.3436C312.946 78.3436 310.331 78.1646 309.393 76.6431C308.454 75.1216 313.192 69.5279 315.382 67.3575C315.495 67.2455 315.648 67.1826 315.807 67.1826C315.966 67.1826 316.119 67.2455 316.232 67.3575C316.29 67.4119 316.336 67.4778 316.368 67.5509C316.4 67.624 316.416 67.7029 316.416 67.7826C316.416 67.8624 316.4 67.9412 316.368 68.0144C316.336 68.0875 316.29 68.1533 316.232 68.2078C312.767 71.7206 310.018 75.3006 310.421 75.9943C311.069 77.0906 313.706 77.1578 314.533 77.1354C314.689 77.1292 314.842 77.184 314.959 77.2884C315.076 77.3928 315.147 77.5385 315.159 77.6948C315.165 77.773 315.155 77.8516 315.13 77.926C315.105 78.0003 315.065 78.0688 315.013 78.1273C314.961 78.1859 314.897 78.2332 314.826 78.2665C314.755 78.2999 314.678 78.3185 314.6 78.3213H314.131V78.3436Z" fill="#231F20"/>
<path d="M305.37 81.7894L318.668 81.6104C318.668 81.6104 318.065 90.5603 310.332 91.2092C302.598 91.8581 305.37 81.7894 305.37 81.7894Z" fill="#231F20"/>
<path d="M319.003 67.7826C319.18 67.4097 319.45 67.0884 319.786 66.8494C320.123 66.6105 320.515 66.4619 320.925 66.4178C322.467 66.1716 323.16 67.9616 323.16 67.9616" fill="white"/>
<path d="M323.25 68.5211C323.129 68.5214 323.011 68.4881 322.909 68.4248C322.806 68.3616 322.723 68.271 322.669 68.1631C322.669 68.1631 322.088 66.7758 321.015 66.9548C320.707 66.986 320.413 67.0975 320.162 67.2781C319.911 67.4588 319.712 67.7022 319.585 67.9841C319.525 68.1325 319.41 68.2524 319.265 68.319C319.119 68.3855 318.954 68.3938 318.802 68.3421C318.657 68.291 318.536 68.186 318.465 68.0486C318.395 67.9113 318.379 67.7521 318.422 67.6037C318.619 67.111 318.946 66.6805 319.366 66.3577C319.787 66.0348 320.287 65.8314 320.814 65.769C322.781 65.4333 323.742 67.5813 323.786 67.6708C323.82 67.7442 323.838 67.8234 323.84 67.9039C323.842 67.9844 323.828 68.0645 323.799 68.1395C323.77 68.2146 323.726 68.283 323.67 68.3409C323.614 68.3987 323.547 68.4448 323.473 68.4763L323.25 68.5211Z" fill="#231F20"/>
<path d="M306.666 66.6195C306.845 66.2436 307.118 65.9203 307.459 65.6812C307.8 65.442 308.196 65.2951 308.61 65.2547C310.13 64.9862 310.845 66.7985 310.845 66.7985" fill="white"/>
<path d="M310.912 67.3577C310.794 67.3622 310.677 67.3303 310.577 67.2664C310.477 67.2024 310.399 67.1093 310.354 66.9997C310.354 66.9997 309.75 65.6124 308.7 65.8138C308.393 65.8455 308.098 65.9544 307.844 66.1304C307.59 66.3064 307.385 66.5439 307.247 66.8207C307.191 66.9732 307.079 67.0982 306.933 67.1691C306.787 67.2401 306.619 67.2515 306.465 67.2011C306.39 67.1761 306.322 67.1363 306.263 67.0841C306.205 67.0318 306.157 66.9683 306.124 66.8972C306.09 66.8261 306.072 66.7489 306.069 66.6704C306.066 66.5919 306.079 66.5136 306.107 66.4403C306.304 65.9476 306.63 65.5171 307.051 65.1943C307.472 64.8714 307.972 64.668 308.499 64.6056C310.465 64.2699 311.427 66.4403 311.471 66.5074C311.533 66.6503 311.537 66.8115 311.483 66.9574C311.429 67.1033 311.321 67.2226 311.181 67.2906L310.912 67.3577Z" fill="#231F20"/>
<path d="M344.146 196.887L333.262 342.369L152.227 305.316L272.559 181.717L344.146 196.887Z" fill="#231F20"/>
<path d="M266.213 90.1799L53.6196 125.644L147.132 30.4834L266.213 90.1799Z" fill="#231F20"/>
<path d="M53.6191 126.338C53.4812 126.346 53.3444 126.31 53.2273 126.237C53.1101 126.164 53.0184 126.057 52.9646 125.929C52.9108 125.802 52.8976 125.661 52.9267 125.526C52.9558 125.391 53.0259 125.268 53.1274 125.174L146.64 29.9912C146.758 29.9104 146.899 29.8672 147.042 29.8672C147.186 29.8672 147.326 29.9104 147.444 29.9912L266.458 89.6877C266.584 89.7561 266.686 89.8607 266.751 89.9878C266.817 90.1148 266.843 90.2587 266.826 90.4008C266.809 90.5428 266.75 90.6766 266.657 90.7848C266.563 90.893 266.44 90.9707 266.302 91.0078L53.7308 126.316L53.6191 126.338ZM147.288 31.3337L55.6529 124.615L264.022 89.8443L147.288 31.3337Z" fill="#231F20"/>
<path d="M285.858 232.955L85.289 269.091L53.8872 126.92L266.391 91.4336L285.858 232.955Z" fill="#231F20"/>
<path d="M85.3116 269.74C85.1536 269.748 84.9983 269.697 84.8748 269.599C84.7513 269.5 84.6682 269.359 84.6411 269.203L53.1723 127.055C53.1385 126.973 53.1211 126.886 53.1211 126.797C53.1211 126.709 53.1385 126.621 53.1723 126.54C53.2231 126.457 53.2914 126.386 53.3725 126.331C53.4535 126.277 53.5454 126.242 53.6417 126.227L266.302 90.7399C266.394 90.7182 266.49 90.717 266.582 90.7363C266.675 90.7556 266.762 90.795 266.838 90.8518C266.913 90.9072 266.976 90.9776 267.022 91.0584C267.068 91.1393 267.097 91.229 267.107 91.3216L286.573 232.844C286.589 232.931 286.587 233.02 286.567 233.106C286.547 233.192 286.51 233.273 286.458 233.345C286.406 233.416 286.339 233.476 286.263 233.52C286.187 233.565 286.102 233.594 286.015 233.604L85.4234 269.74H85.3116ZM54.7145 127.457L85.8257 268.42L285.076 232.62L265.81 92.4851L54.7145 127.457Z" fill="#231F20"/>
<path d="M102.141 222.036C102.141 222.036 65.1964 107.924 47.4058 73.1753L245.427 19.1396L257.742 195.902L102.141 222.036Z" fill="#E8521F"/>
<path d="M82.0929 93.1561C81.9429 93.1553 81.7975 93.1041 81.6801 93.0108C81.5626 92.9175 81.4797 92.7875 81.4447 92.6415C81.3961 92.4665 81.4181 92.2794 81.5059 92.1204C81.5936 91.9614 81.7402 91.8432 81.9141 91.7912L227.524 53.9999C227.614 53.9765 227.707 53.9714 227.799 53.9848C227.89 53.9982 227.978 54.0298 228.057 54.0778C228.137 54.1257 228.205 54.1891 228.26 54.2641C228.314 54.3391 228.353 54.4242 228.374 54.5145C228.397 54.6056 228.402 54.7004 228.389 54.7936C228.376 54.8867 228.345 54.9764 228.297 55.0575C228.249 55.1385 228.186 55.2093 228.111 55.2659C228.036 55.3225 227.951 55.3636 227.86 55.3871L82.2493 93.1337L82.0929 93.1561Z" fill="white"/>
<path d="M88.2619 117.053C88.1051 117.056 87.9521 117.004 87.8296 116.906C87.707 116.808 87.6228 116.67 87.5914 116.516C87.5717 116.429 87.5694 116.339 87.5846 116.252C87.5999 116.164 87.6323 116.08 87.6802 116.005C87.728 115.93 87.7902 115.866 87.8632 115.815C87.9363 115.764 88.0186 115.729 88.1055 115.71L229.201 84.0273C229.385 83.9871 229.577 84.0209 229.736 84.1214C229.895 84.2219 230.008 84.381 230.05 84.5643C230.083 84.7479 230.043 84.9373 229.939 85.0919C229.835 85.2465 229.674 85.3543 229.492 85.3921L88.396 117.03L88.2619 117.053Z" fill="white"/>
<path d="M100.331 139.428C100.172 139.426 100.018 139.369 99.8964 139.267C99.7743 139.165 99.6909 139.025 99.6602 138.869C99.6271 138.691 99.6646 138.507 99.7648 138.357C99.865 138.206 100.02 138.101 100.197 138.063L235.034 111.84C235.121 111.823 235.21 111.824 235.296 111.843C235.382 111.861 235.464 111.896 235.536 111.946C235.609 111.996 235.671 112.059 235.719 112.133C235.767 112.207 235.8 112.29 235.816 112.377C235.836 112.463 235.838 112.553 235.823 112.641C235.808 112.728 235.775 112.812 235.728 112.887C235.68 112.962 235.618 113.027 235.545 113.077C235.472 113.128 235.389 113.163 235.302 113.182L100.465 139.406L100.331 139.428Z" fill="white"/>
<path d="M106.745 167.956C106.655 167.965 106.564 167.956 106.478 167.929C106.392 167.902 106.312 167.858 106.243 167.8C106.174 167.741 106.118 167.67 106.077 167.589C106.037 167.508 106.013 167.42 106.007 167.329C105.998 167.239 106.007 167.148 106.034 167.062C106.061 166.976 106.105 166.896 106.163 166.827C106.222 166.758 106.293 166.701 106.374 166.661C106.455 166.62 106.543 166.597 106.633 166.591L234.542 145.76C234.723 145.734 234.906 145.781 235.053 145.89C235.199 145.999 235.297 146.161 235.324 146.342C235.34 146.432 235.338 146.524 235.317 146.613C235.296 146.701 235.257 146.785 235.202 146.858C235.148 146.932 235.079 146.993 235 147.039C234.921 147.085 234.834 147.114 234.743 147.125L106.857 167.956H106.745Z" fill="white"/>
<path d="M174.175 181.896L53.8872 126.92L85.289 269.091L285.858 232.955L266.391 91.4336L174.175 181.896Z" fill="white"/>
<path d="M85.3112 269.74C85.1533 269.748 84.9979 269.697 84.8744 269.598C84.7509 269.5 84.6678 269.359 84.6407 269.203L53.1719 127.054C53.1316 126.877 53.163 126.69 53.2592 126.535C53.3554 126.38 53.5088 126.269 53.686 126.227C53.8316 126.182 53.9874 126.182 54.133 126.227L173.996 181.068L265.899 90.8965C265.962 90.8322 266.036 90.7811 266.119 90.7462C266.202 90.7113 266.29 90.6934 266.38 90.6934C266.469 90.6934 266.558 90.7113 266.641 90.7462C266.723 90.7811 266.798 90.8322 266.86 90.8965C266.97 91.0046 267.041 91.1463 267.061 91.2992L286.528 232.821C286.544 232.908 286.542 232.997 286.522 233.084C286.502 233.17 286.465 233.251 286.413 233.322C286.361 233.393 286.294 233.453 286.218 233.498C286.142 233.542 286.057 233.571 285.97 233.582L85.423 269.74H85.3112ZM54.8705 128.106L85.8476 268.308L285.098 232.508L265.922 92.9773L174.644 182.477C174.545 182.573 174.42 182.636 174.285 182.66C174.149 182.684 174.01 182.667 173.884 182.612L54.8705 128.106Z" fill="#231F20"/>
<path d="M285.858 232.955L85.3115 269.09L174.175 181.895L285.858 232.955Z" fill="white"/>
<path d="M85.3117 269.74C85.1851 269.741 85.0604 269.708 84.9504 269.645C84.8405 269.583 84.7492 269.492 84.6859 269.382C84.623 269.248 84.6042 269.098 84.6324 268.953C84.6605 268.809 84.7341 268.676 84.8423 268.576L173.751 181.314C173.867 181.238 174.003 181.197 174.142 181.197C174.281 181.197 174.417 181.238 174.533 181.314L286.283 232.351C286.413 232.417 286.521 232.521 286.593 232.648C286.664 232.775 286.697 232.921 286.685 233.067C286.664 233.21 286.599 233.343 286.499 233.448C286.399 233.552 286.269 233.622 286.126 233.649L85.4234 269.74H85.3117ZM174.332 182.701L87.3679 268.017L283.579 232.687L174.332 182.701Z" fill="#231F20"/>
<path d="M285.858 232.955L85.3115 269.09L174.175 181.895L285.858 232.955Z" fill="white"/>
<path d="M85.3117 269.74C85.1851 269.741 85.0604 269.708 84.9504 269.645C84.8405 269.583 84.7492 269.492 84.6859 269.382C84.623 269.248 84.6042 269.098 84.6324 268.953C84.6605 268.809 84.7341 268.676 84.8423 268.576L173.751 181.314C173.867 181.238 174.003 181.197 174.142 181.197C174.281 181.197 174.417 181.238 174.533 181.314L286.283 232.351C286.413 232.417 286.521 232.521 286.593 232.648C286.664 232.775 286.697 232.921 286.685 233.067C286.664 233.21 286.599 233.343 286.499 233.448C286.399 233.552 286.269 233.622 286.126 233.649L85.4234 269.74H85.3117ZM174.332 182.701L87.3679 268.017L283.579 232.687L174.332 182.701Z" fill="#231F20"/>
<path d="M271.912 37.04C271.912 37.04 268.984 48.0038 259.798 48.2275C259.798 48.2275 269.498 50.9797 271.532 60.0863C272.452 57.5652 273.957 55.2991 275.923 53.4746C277.889 51.6501 280.26 50.3195 282.841 49.5924C280.187 48.4684 277.823 46.7539 275.93 44.579C274.036 42.404 272.662 39.8258 271.912 37.04Z" fill="#F8F3EF"/>
<path d="M7.51074 120.319C7.51074 120.319 14.8639 130.835 8.33769 138.98C8.33769 138.98 17.7694 132.581 27.134 137.458C25.6078 134.835 24.7303 131.884 24.5748 128.852C24.4193 125.82 24.9902 122.795 26.24 120.028C23.3423 121.488 20.1522 122.273 16.9087 122.323C13.6652 122.373 10.4523 121.688 7.51074 120.319Z" fill="#F8F3EF"/>
<path d="M73.3989 34.5566C73.3989 34.5566 74.9634 52.8818 61.1064 58.2741C61.1064 58.2741 77.3549 57.1106 85.4456 69.9091C85.4449 65.5661 86.481 61.2857 88.4677 57.4248C90.4543 53.5638 93.3339 50.2341 96.8664 47.7131C92.2137 47.4481 87.6823 46.1256 83.6162 43.846C79.55 41.5664 76.0559 38.3896 73.3989 34.5566Z" fill="#F8F3EF"/>
<path d="M336.727 126.786C336.727 126.786 230.408 180.777 214.204 183.864C198 186.952 178.779 181.627 179.539 186.102C180.299 190.577 189.552 193.038 189.552 193.038C189.552 193.038 160.296 197.67 161.838 200.757C163.38 203.845 182.646 199.997 182.646 199.997C182.646 199.997 158.754 207.09 164.14 210.088C169.527 213.086 186.49 206.239 186.49 206.239C186.49 206.239 161.056 219.329 168.007 220.112C174.958 220.895 187.272 213.936 187.272 213.936C187.272 213.936 168.007 223.96 175.695 224.743C183.384 225.527 298.196 184.715 336.727 161.489" fill="white"/>
<path d="M175.94 225.437H175.56C174.13 225.28 173.325 224.788 173.169 223.96C172.923 222.729 174.644 221.007 177.013 219.261C174.093 220.388 170.977 220.913 167.85 220.805C166.799 220.671 166.196 220.291 166.062 219.575C165.682 217.538 172.409 213.198 178.667 209.64C173.37 211.184 166.844 212.482 163.737 210.692C163.382 210.542 163.083 210.285 162.882 209.955C162.682 209.626 162.59 209.242 162.62 208.857C162.866 206.619 168.431 204.158 173.795 202.145C168.185 202.838 162.173 203.084 161.167 201.07C161.079 200.897 161.033 200.706 161.033 200.511C161.033 200.317 161.079 200.125 161.167 199.952C162.53 197.2 179.047 194.09 186.579 192.859C183.651 191.74 179.36 189.57 178.801 186.146C178.743 185.865 178.753 185.574 178.831 185.297C178.909 185.021 179.052 184.767 179.248 184.558C180.612 183.036 184.791 183.282 191.183 183.663C198.794 184.366 206.462 184.163 214.025 183.059C229.96 180.239 335.318 126.718 336.48 126.181C336.648 126.108 336.837 126.099 337.01 126.157C337.184 126.215 337.329 126.335 337.419 126.495C337.497 126.658 337.508 126.846 337.449 127.017C337.391 127.189 337.268 127.33 337.106 127.412C332.77 129.649 230.519 181.47 214.427 184.558C206.732 185.692 198.928 185.902 191.183 185.184C186.065 184.871 181.26 184.603 180.343 185.609C180.304 185.681 180.284 185.762 180.284 185.844C180.284 185.926 180.304 186.007 180.343 186.079C180.902 189.503 187.384 191.852 189.842 192.456C189.933 192.462 190.022 192.485 190.104 192.526C190.186 192.566 190.259 192.622 190.319 192.691C190.38 192.759 190.426 192.839 190.455 192.925C190.484 193.012 190.496 193.103 190.49 193.195C190.473 193.373 190.391 193.538 190.258 193.658C190.126 193.778 189.954 193.844 189.775 193.843C177.17 195.812 163.179 198.99 162.553 200.69C163.357 202.189 173.594 201.249 182.668 199.437C182.757 199.415 182.85 199.411 182.941 199.425C183.032 199.439 183.12 199.471 183.199 199.518C183.278 199.566 183.346 199.629 183.401 199.703C183.456 199.778 183.495 199.862 183.517 199.952C183.539 200.041 183.543 200.134 183.529 200.226C183.515 200.317 183.484 200.405 183.436 200.483C183.388 200.562 183.325 200.631 183.251 200.686C183.177 200.74 183.093 200.78 183.003 200.802C174.063 203.375 164.43 207.291 164.207 209.103C164.207 209.282 164.475 209.483 164.654 209.595C168.833 211.99 181.774 207.582 186.4 205.68C186.56 205.635 186.731 205.649 186.881 205.72C187.032 205.791 187.152 205.913 187.219 206.065C187.287 206.217 187.298 206.388 187.25 206.547C187.202 206.707 187.099 206.843 186.959 206.933C177.773 211.676 167.827 217.785 167.649 219.396L168.23 219.53C173.415 220.112 181.93 216.084 185.484 214.294L187.115 213.422C187.271 213.366 187.442 213.368 187.597 213.428C187.752 213.488 187.88 213.601 187.958 213.747C188.036 213.893 188.06 214.062 188.024 214.224C187.989 214.386 187.896 214.53 187.764 214.63C187.764 214.63 187.026 215.055 186.043 215.547C179.65 219.038 174.532 222.729 174.733 223.781C175.093 224.014 175.512 224.138 175.94 224.139H176.276C180.388 224.139 208.46 215.189 244.689 201.496C264.491 194.022 313.102 175.115 336.637 160.974C336.786 160.869 336.97 160.826 337.15 160.855C337.329 160.885 337.491 160.984 337.598 161.131C337.65 161.203 337.687 161.284 337.707 161.371C337.727 161.457 337.73 161.546 337.715 161.634C337.701 161.721 337.669 161.805 337.622 161.88C337.575 161.955 337.514 162.02 337.441 162.071C299.938 184.379 186.735 225.437 175.94 225.437Z" fill="#231F20"/>
<path d="M317.081 172.408C317.081 172.408 300.721 133.856 302.173 133.252C303.626 132.648 335.005 112.175 337.62 113.719C340.235 115.263 349.935 145.044 346.851 153.815C343.767 162.586 317.081 172.408 317.081 172.408Z" fill="black"/>
<path d="M321.171 172.61C321.023 172.605 320.88 172.555 320.76 172.467C320.64 172.38 320.55 172.258 320.501 172.118C320.444 171.943 320.46 171.752 320.544 171.589C320.627 171.425 320.773 171.302 320.948 171.245C321.193 171.245 343.99 163.459 352.975 151.913C353.11 151.792 353.285 151.725 353.467 151.725C353.648 151.725 353.823 151.792 353.959 151.913C354.031 151.964 354.092 152.029 354.139 152.104C354.186 152.179 354.218 152.263 354.232 152.35C354.247 152.438 354.244 152.527 354.224 152.613C354.204 152.7 354.167 152.781 354.115 152.853C344.862 164.712 322.378 172.297 321.439 172.632L321.171 172.61Z" fill="#231F20"/>
<path d="M339.386 88.8157C339.293 88.8157 339.201 88.797 339.116 88.7608C339.03 88.7245 338.953 88.6714 338.888 88.6047C338.824 88.5379 338.773 88.4587 338.74 88.372C338.706 88.2852 338.69 88.1926 338.693 88.0997C338.705 87.9524 338.759 87.8119 338.851 87.6963C338.943 87.5806 339.067 87.4951 339.208 87.4508C341.758 86.683 344.105 85.3544 346.078 83.562C348.05 81.7697 349.597 79.5589 350.606 77.0912C352.594 72.0333 353.067 66.5054 351.969 61.1825C351.208 56.0393 348.972 51.2278 345.533 47.3324C343.821 45.4347 341.699 43.9541 339.328 43.004C336.957 42.0538 334.401 41.6593 331.854 41.8505L330.871 41.9848C330.132 42.1054 329.385 42.1727 328.636 42.1861C327.709 42.1431 326.788 42.0082 325.887 41.7834L325.306 41.6715C321.546 40.9153 317.674 40.9088 313.911 41.6526C310.148 42.3963 306.569 43.8757 303.378 46.006C300.188 48.1362 297.448 50.8756 295.316 54.0672C293.184 57.2588 291.702 60.8401 290.954 64.6059C290.1 68.8182 290.199 73.1685 291.244 77.3373C291.557 78.7245 292.362 80.8949 294.038 81.0963C294.216 81.1186 294.379 81.2068 294.495 81.3435C294.611 81.4802 294.671 81.6555 294.664 81.8347C294.641 82.0208 294.547 82.1908 294.401 82.3079C294.254 82.4251 294.068 82.4801 293.882 82.4612C292.004 82.215 290.574 80.5145 289.859 77.6505C288.606 72.6311 288.643 67.376 289.966 62.3747C291.289 57.3735 293.854 52.7887 297.424 49.0476C300.994 45.3065 305.451 42.5307 310.381 40.9789C315.311 39.427 320.553 39.1496 325.619 40.1724H326.245C327.063 40.388 327.902 40.5155 328.748 40.5528C329.429 40.5311 330.109 40.4639 330.782 40.3514C331.139 40.3514 331.474 40.2395 331.832 40.2172C334.592 39.9892 337.367 40.4061 339.938 41.4351C342.51 42.464 344.807 44.0769 346.65 46.1465C350.289 50.2461 352.665 55.313 353.489 60.735C354.632 66.3332 354.111 72.1439 351.992 77.4492C350.916 80.1199 349.252 82.5131 347.123 84.4502C344.995 86.3873 342.457 87.8184 339.699 88.6367L339.386 88.8157Z" fill="#231F20"/>
<path d="M328.703 41.5153C328.703 41.5153 335.81 36.2348 347.365 39.054C358.92 41.8733 363.3 62.9729 352.505 74.2723C352.505 74.2052 354.182 43.3724 328.703 41.5153Z" fill="#231F20"/>
<path d="M369.827 107.565C364.337 107.256 359.07 105.29 354.718 101.927C352.543 100.218 350.793 98.0271 349.606 95.5268C348.42 93.0266 347.828 90.2848 347.879 87.5171C347.879 87.4271 347.897 87.3379 347.932 87.255C347.967 87.172 348.019 87.097 348.083 87.0344C348.148 86.9718 348.224 86.9228 348.308 86.8904C348.392 86.858 348.482 86.8429 348.572 86.8459C348.663 86.8488 348.752 86.8696 348.835 86.9071C348.918 86.9447 348.993 86.9983 349.055 87.0648C349.118 87.1312 349.166 87.2094 349.198 87.2947C349.23 87.38 349.245 87.4708 349.242 87.5619C349.209 90.1056 349.76 92.623 350.853 94.9197C351.946 97.2164 353.551 99.231 355.545 100.808C358.878 103.444 362.835 105.171 367.033 105.82C365.889 104.528 365.158 102.922 364.932 101.211C364.711 98.6111 365.109 95.9962 366.094 93.5807C367.789 89.4752 369.846 85.5291 372.24 81.7891C375.638 75.9716 378.945 70.4897 379.571 64.0905C379.992 60.4041 379.504 56.6706 378.149 53.2171C376.794 49.7635 374.613 46.6955 371.798 44.2816C368.984 41.8678 365.62 40.182 362.004 39.3718C358.387 38.5617 354.627 38.6519 351.053 39.6346C350.872 39.6773 350.682 39.6504 350.521 39.5591C350.359 39.4679 350.238 39.3191 350.181 39.1424C350.132 38.9644 350.153 38.7742 350.24 38.6116C350.328 38.449 350.475 38.3265 350.65 38.2698C354.451 37.2321 358.447 37.1422 362.29 38.0079C366.133 38.8736 369.706 40.6686 372.696 43.2359C375.686 45.8032 378.002 49.0647 379.442 52.7353C380.882 56.4058 381.402 60.3736 380.957 64.2919C380.197 71.0044 376.755 76.8443 373.425 82.5275C371.17 86.1918 369.227 90.0388 367.614 94.0282C366.695 96.2181 366.32 98.5978 366.519 100.964C366.626 102.08 367.02 103.148 367.663 104.066C368.305 104.983 369.174 105.719 370.184 106.2C370.33 106.268 370.448 106.382 370.521 106.525C370.593 106.668 370.616 106.831 370.585 106.988C370.554 107.145 370.472 107.288 370.35 107.392C370.229 107.497 370.076 107.558 369.916 107.565H369.827Z" fill="#231F20"/>
<path d="M307.046 139.07C306.863 139.096 306.676 139.05 306.526 138.941C306.376 138.833 306.274 138.67 306.241 138.488C306.209 138.323 306.236 138.151 306.318 138.004C306.4 137.856 306.531 137.743 306.688 137.683L334.804 120.342C334.962 120.241 335.152 120.207 335.335 120.247C335.517 120.287 335.676 120.397 335.777 120.555C335.877 120.712 335.912 120.903 335.872 121.085C335.832 121.268 335.721 121.427 335.564 121.528L307.426 138.891C307.318 138.985 307.187 139.047 307.046 139.07Z" fill="#231F20"/>
<path d="M1.23078 190.242C1.06481 190.242 0.905634 190.176 0.788273 190.058C0.670913 189.941 0.60498 189.781 0.60498 189.615C0.60498 189.449 0.670913 189.29 0.788273 189.172C0.905634 189.055 1.06481 188.989 1.23078 188.989L43.6958 186.751C43.7751 186.742 43.8555 186.748 43.9323 186.77C44.0091 186.792 44.0807 186.829 44.1431 186.879C44.2055 186.929 44.2573 186.991 44.2956 187.061C44.3339 187.132 44.3579 187.209 44.3663 187.288C44.3724 187.371 44.3621 187.453 44.3362 187.532C44.3102 187.61 44.2691 187.682 44.2151 187.745C44.1611 187.807 44.0953 187.858 44.0215 187.895C43.9478 187.932 43.8674 187.954 43.7852 187.959L1.32018 190.197L1.23078 190.242Z" fill="#F8F3EF"/>
<path d="M102.924 320.598C102.806 320.621 102.684 320.621 102.566 320.598C102.433 320.496 102.342 320.349 102.309 320.184C102.276 320.019 102.304 319.849 102.387 319.703L123.195 287.326C123.279 287.188 123.413 287.088 123.569 287.047C123.724 287.005 123.89 287.026 124.031 287.104C124.173 287.182 124.278 287.311 124.327 287.465C124.375 287.619 124.362 287.786 124.29 287.93L103.505 320.307C103.444 320.404 103.357 320.483 103.255 320.534C103.152 320.585 103.038 320.607 102.924 320.598Z" fill="#F8F3EF"/>
<path d="M24.3408 268.151C24.2259 268.152 24.1129 268.121 24.0144 268.062C23.9158 268.003 23.8354 267.917 23.7821 267.816C23.743 267.745 23.7184 267.668 23.7096 267.588C23.7009 267.508 23.7082 267.427 23.7311 267.35C23.754 267.273 23.792 267.201 23.843 267.139C23.894 267.077 23.9569 267.025 24.0279 266.988L55.6308 249.244C55.7772 249.17 55.9463 249.154 56.1039 249.2C56.2615 249.246 56.396 249.349 56.4801 249.49C56.563 249.637 56.586 249.809 56.5443 249.972C56.5026 250.135 56.3995 250.275 56.2566 250.363L24.6537 268.263C24.5396 268.263 24.429 268.224 24.3408 268.151Z" fill="#F8F3EF"/>
<path d="M258.547 22.1156C258.462 22.1156 258.379 22.0987 258.302 22.0658C258.224 22.0329 258.154 21.9848 258.096 21.9242C258.038 21.8637 257.992 21.7919 257.962 21.7133C257.932 21.6347 257.918 21.5508 257.921 21.4667C257.91 21.4 257.91 21.332 257.921 21.2653L265.654 0.501309C265.71 0.344052 265.827 0.215631 265.977 0.144297C266.128 0.072963 266.301 0.0645591 266.458 0.120934C266.616 0.177309 266.744 0.293845 266.815 0.444906C266.886 0.595967 266.895 0.769177 266.838 0.926434L259.128 21.7576C259.074 21.8654 258.991 21.9561 258.888 22.0193C258.785 22.0825 258.667 22.1159 258.547 22.1156Z" fill="#F8F3EF"/>
<path d="M374.878 147.818C374.727 147.831 374.578 147.784 374.461 147.688C374.344 147.592 374.269 147.454 374.252 147.304C374.227 147.141 374.266 146.974 374.362 146.84C374.459 146.706 374.604 146.615 374.766 146.588L408.001 141.106C408.166 141.079 408.336 141.118 408.473 141.214C408.611 141.31 408.706 141.456 408.738 141.62C408.759 141.785 408.718 141.952 408.623 142.089C408.528 142.225 408.386 142.321 408.224 142.359L375.079 147.751L374.878 147.818Z" fill="#F8F3EF"/>
<path d="M374.096 285.112C374 285.114 373.905 285.093 373.819 285.05C373.733 285.007 373.659 284.944 373.604 284.865L352.796 258.664C352.686 258.541 352.625 258.382 352.625 258.217C352.625 258.052 352.686 257.892 352.796 257.769C352.853 257.71 352.92 257.664 352.995 257.632C353.07 257.6 353.151 257.583 353.232 257.583C353.313 257.583 353.394 257.6 353.469 257.632C353.544 257.664 353.612 257.71 353.668 257.769L374.498 284.015C374.598 284.146 374.642 284.311 374.621 284.474C374.6 284.638 374.516 284.786 374.386 284.888C374.314 284.99 374.213 285.068 374.096 285.112Z" fill="#F8F3EF"/>
<path d="M50.2668 62.4353C50.1143 62.4385 49.9651 62.3913 49.8421 62.301L34.9794 49.5025C34.8864 49.3788 34.8391 49.2267 34.8453 49.072C34.8515 48.9174 34.9109 48.7696 35.0135 48.6537C35.116 48.5379 35.2554 48.4611 35.4081 48.4364C35.5607 48.4116 35.7172 48.4405 35.851 48.518L50.7138 61.3165C50.7726 61.3729 50.8194 61.4406 50.8514 61.5156C50.8834 61.5906 50.8999 61.6713 50.8999 61.7528C50.8999 61.8343 50.8834 61.915 50.8514 61.99C50.8194 62.065 50.7726 62.1327 50.7138 62.1891C50.6642 62.2627 50.5977 62.3234 50.52 62.3662C50.4423 62.409 50.3555 62.4327 50.2668 62.4353Z" fill="#F8F3EF"/>
<path d="M312.097 221.141C311.986 221.163 311.872 221.163 311.761 221.141C311.604 221.056 311.486 220.912 311.431 220.741C311.377 220.57 311.391 220.385 311.471 220.224L326.356 192.949C326.431 192.815 326.549 192.711 326.692 192.654C326.834 192.597 326.992 192.591 327.138 192.636C327.284 192.667 327.414 192.75 327.504 192.869C327.594 192.988 327.639 193.136 327.63 193.285V217.382C327.633 217.471 327.618 217.56 327.585 217.643C327.553 217.726 327.503 217.801 327.44 217.864C327.378 217.927 327.302 217.976 327.22 218.009C327.137 218.042 327.048 218.057 326.959 218.054C326.869 218.057 326.78 218.042 326.696 218.009C326.612 217.977 326.535 217.928 326.471 217.865C326.406 217.803 326.355 217.728 326.32 217.645C326.285 217.562 326.266 217.473 326.267 217.382V195.902L312.588 220.828C312.532 220.911 312.459 220.982 312.375 221.036C312.29 221.089 312.196 221.125 312.097 221.141Z" fill="white"/>
<path d="M92.5611 391.774V389.71H93.0891V391.75C93.0891 393.126 93.3691 394.75 93.9291 396.622C94.4891 398.494 94.7691 399.806 94.7691 400.558C94.7691 401.854 94.1611 402.502 92.9451 402.502C92.4011 402.502 91.9371 402.35 91.5531 402.046C91.1851 401.742 91.0011 401.246 91.0011 400.558C91.0011 399.87 91.2571 398.582 91.7691 396.694C92.2971 394.79 92.5611 393.15 92.5611 391.774ZM92.7531 388.822C92.1931 388.822 91.7531 388.654 91.4331 388.318C91.1131 387.966 90.9531 387.534 90.9531 387.022C90.9531 386.494 91.0971 386.062 91.3851 385.726C91.6891 385.374 92.1371 385.198 92.7291 385.198C93.3371 385.198 93.8011 385.366 94.1211 385.702C94.4411 386.038 94.6011 386.494 94.6011 387.07C94.6011 387.646 94.4331 388.086 94.0971 388.39C93.7611 388.678 93.3131 388.822 92.7531 388.822ZM112.6 380.062L112.84 386.086H112.384C111.68 383.958 111.056 382.51 110.512 381.742C109.968 380.958 109.184 380.566 108.16 380.566H107.872V396.358H109.912V396.862H101.152V396.358H103.192V380.566H102.88C101.856 380.566 101.064 380.974 100.504 381.79C99.9439 382.59 99.3279 384.022 98.6559 386.086H98.1999L98.4399 380.062H112.6ZM121.506 386.11C120.914 386.11 120.394 386.494 119.946 387.262C119.498 388.03 119.274 388.942 119.274 389.998V396.43H120.978V396.862H113.49V396.43H114.81V385.87H113.49V385.438H119.274V387.742C119.482 386.926 119.882 386.302 120.474 385.87C121.066 385.422 121.738 385.198 122.49 385.198C123.242 385.198 123.85 385.414 124.314 385.846C124.794 386.262 125.034 386.862 125.034 387.646C125.034 388.414 124.858 389.006 124.506 389.422C124.154 389.838 123.61 390.046 122.874 390.046C122.154 390.046 121.618 389.806 121.266 389.326C120.93 388.846 120.89 388.182 121.146 387.334H122.01C122.41 386.518 122.242 386.11 121.506 386.11ZM130.781 391.222H131.477V389.374C131.477 387.854 131.389 386.838 131.213 386.326C131.053 385.798 130.733 385.534 130.253 385.534C129.965 385.534 129.701 385.614 129.461 385.774C129.237 385.918 129.125 386.126 129.125 386.398C129.125 386.654 129.173 386.918 129.269 387.19H129.869C129.997 387.526 130.061 387.934 130.061 388.414C130.061 388.878 129.861 389.286 129.461 389.638C129.061 389.974 128.557 390.142 127.949 390.142C126.573 390.142 125.885 389.478 125.885 388.15C125.885 386.182 127.557 385.198 130.901 385.198C132.805 385.198 134.117 385.526 134.837 386.182C135.573 386.822 135.941 388.006 135.941 389.734V394.606C135.941 395.438 136.173 395.854 136.637 395.854C137.181 395.854 137.501 395.03 137.597 393.382L137.957 393.406C137.893 394.814 137.629 395.782 137.165 396.31C136.701 396.838 135.941 397.102 134.885 397.102C132.965 397.102 131.861 396.51 131.573 395.326C131.365 395.934 131.053 396.382 130.637 396.67C130.221 396.958 129.613 397.102 128.813 397.102C126.445 397.102 125.261 396.134 125.261 394.198C125.261 393.062 125.709 392.286 126.605 391.87C127.517 391.438 128.909 391.222 130.781 391.222ZM129.821 394.174C129.821 395.006 129.861 395.542 129.941 395.782C130.037 396.022 130.205 396.142 130.445 396.142C130.701 396.142 130.933 395.942 131.141 395.542C131.365 395.126 131.477 394.558 131.477 393.838V391.606H131.309C130.317 391.606 129.821 392.334 129.821 393.79V394.174ZM146.953 390.406C146.953 388.758 146.873 387.654 146.713 387.094C146.553 386.518 146.241 386.23 145.777 386.23C145.313 386.23 144.897 386.518 144.529 387.094C144.161 387.67 143.977 388.462 143.977 389.47V393.934C143.977 394.622 144.113 395.206 144.385 395.686C144.673 396.166 145.073 396.406 145.585 396.406C146.113 396.406 146.473 396.054 146.665 395.35C146.857 394.646 146.953 393.414 146.953 391.654V390.406ZM143.977 378.862V387.262C144.585 385.886 145.625 385.198 147.097 385.198C150.089 385.198 151.585 387.19 151.585 391.174C151.585 393.206 151.169 394.702 150.337 395.662C149.521 396.622 148.289 397.102 146.641 397.102C145.809 397.102 145.169 396.974 144.721 396.718C144.289 396.462 143.993 396.038 143.833 395.446L143.665 396.862H138.193V396.43H139.513V379.294H138.193V378.862H143.977ZM158.062 391.222H158.759V389.374C158.759 387.854 158.671 386.838 158.495 386.326C158.335 385.798 158.015 385.534 157.535 385.534C157.247 385.534 156.983 385.614 156.743 385.774C156.519 385.918 156.407 386.126 156.407 386.398C156.407 386.654 156.455 386.918 156.551 387.19H157.151C157.279 387.526 157.343 387.934 157.343 388.414C157.343 388.878 157.143 389.286 156.743 389.638C156.343 389.974 155.839 390.142 155.23 390.142C153.855 390.142 153.167 389.478 153.167 388.15C153.167 386.182 154.839 385.198 158.183 385.198C160.087 385.198 161.399 385.526 162.119 386.182C162.855 386.822 163.223 388.006 163.223 389.734V394.606C163.223 395.438 163.455 395.854 163.919 395.854C164.463 395.854 164.783 395.03 164.879 393.382L165.239 393.406C165.175 394.814 164.911 395.782 164.447 396.31C163.983 396.838 163.223 397.102 162.167 397.102C160.247 397.102 159.143 396.51 158.855 395.326C158.647 395.934 158.335 396.382 157.919 396.67C157.503 396.958 156.895 397.102 156.095 397.102C153.727 397.102 152.543 396.134 152.543 394.198C152.543 393.062 152.991 392.286 153.887 391.87C154.799 391.438 156.191 391.222 158.062 391.222ZM157.103 394.174C157.103 395.006 157.143 395.542 157.223 395.782C157.319 396.022 157.487 396.142 157.727 396.142C157.983 396.142 158.215 395.942 158.423 395.542C158.647 395.126 158.759 394.558 158.759 393.838V391.606H158.591C157.599 391.606 157.103 392.334 157.103 393.79V394.174ZM171.258 385.438V394.798C171.258 397.422 170.802 399.422 169.89 400.798C168.994 402.174 167.522 402.862 165.474 402.862C164.146 402.862 163.178 402.598 162.57 402.07C161.946 401.542 161.634 400.926 161.634 400.222C161.634 399.518 161.842 398.974 162.258 398.59C162.674 398.222 163.194 398.038 163.818 398.038C164.442 398.038 164.914 398.206 165.234 398.542C165.538 398.894 165.69 399.278 165.69 399.694C165.69 400.11 165.642 400.51 165.546 400.894H164.634C164.378 401.326 164.346 401.694 164.538 401.998C164.714 402.302 165.042 402.454 165.522 402.454C166.018 402.454 166.354 402.174 166.53 401.614C166.706 401.07 166.794 399.934 166.794 398.206V385.87H165.234V385.438H171.258ZM168.978 383.782C168.13 383.782 167.522 383.566 167.154 383.134C166.802 382.702 166.626 382.166 166.626 381.526C166.626 380.886 166.818 380.358 167.202 379.942C167.602 379.526 168.202 379.318 169.002 379.318C169.802 379.318 170.41 379.51 170.826 379.894C171.242 380.262 171.45 380.798 171.45 381.502C171.45 382.19 171.25 382.742 170.85 383.158C170.45 383.574 169.826 383.782 168.978 383.782ZM179.24 397.102C177.176 397.102 175.624 396.574 174.584 395.518C173.56 394.446 173.048 392.966 173.048 391.078C173.048 389.174 173.624 387.718 174.776 386.71C175.944 385.702 177.424 385.198 179.216 385.198C182.848 385.198 184.592 387.022 184.448 390.67H177.68V391.606C177.68 393.174 177.88 394.358 178.28 395.158C178.68 395.958 179.376 396.358 180.368 396.358C182.224 396.358 183.44 395.366 184.016 393.382L184.448 393.454C184.144 394.606 183.592 395.502 182.792 396.142C182.008 396.782 180.824 397.102 179.24 397.102ZM177.704 390.19H180.176V389.014C180.176 387.718 180.096 386.838 179.936 386.374C179.792 385.894 179.488 385.654 179.023 385.654C178.576 385.654 178.24 385.91 178.016 386.422C177.808 386.918 177.704 387.782 177.704 389.014V390.19ZM185.303 385.438H191.087V387.646C191.615 386.014 192.775 385.198 194.567 385.198C196.375 385.198 197.471 386.062 197.855 387.79C198.415 386.062 199.591 385.198 201.383 385.198C203.735 385.198 204.911 386.534 204.911 389.206V396.43H206.255V396.862H199.607V396.43H200.447V388.63C200.447 387.414 200.343 386.702 200.135 386.494C200.039 386.398 199.911 386.35 199.751 386.35C199.287 386.35 198.879 386.662 198.527 387.286C198.175 387.91 197.999 388.702 197.999 389.662V396.43H198.863V396.862H192.695V396.43H193.535V388.63C193.535 387.414 193.431 386.702 193.223 386.494C193.127 386.398 192.999 386.35 192.839 386.35C192.391 386.35 191.983 386.694 191.615 387.382C191.263 388.054 191.087 388.862 191.087 389.806V396.43H191.951V396.862H185.303V396.43H186.623V385.87H185.303V385.438ZM214.359 392.134V390.094C214.359 388.542 214.271 387.414 214.095 386.71C213.935 385.99 213.551 385.63 212.943 385.63C212.591 385.63 212.303 385.734 212.079 385.942C211.871 386.134 211.719 386.462 211.623 386.926C211.479 387.646 211.407 388.742 211.407 390.214V392.086C211.407 393.83 211.455 394.878 211.551 395.23C211.663 395.582 211.775 395.87 211.887 396.094C212.063 396.478 212.407 396.67 212.919 396.67C213.543 396.67 213.951 396.31 214.143 395.59C214.287 395.078 214.359 393.926 214.359 392.134ZM212.871 397.102C210.871 397.102 209.359 396.59 208.335 395.566C207.311 394.542 206.799 393.078 206.799 391.174C206.799 389.254 207.343 387.782 208.431 386.758C209.535 385.718 211.079 385.198 213.063 385.198C215.047 385.198 216.527 385.678 217.503 386.638C218.479 387.582 218.967 389.03 218.967 390.982C218.967 395.062 216.935 397.102 212.871 397.102ZM220.19 397.102V392.806H220.478C220.894 394.198 221.454 395.174 222.158 395.734C222.862 396.294 223.742 396.574 224.798 396.574C226.43 396.574 227.246 396.054 227.246 395.014C227.246 394.566 227.046 394.23 226.646 394.006C226.022 393.654 225.222 393.382 224.246 393.19C223.158 392.902 222.246 392.518 221.51 392.038C220.63 391.462 220.19 390.55 220.19 389.302C220.19 388.054 220.574 387.062 221.342 386.326C222.11 385.574 223.134 385.198 224.414 385.198C225.198 385.198 226.006 385.382 226.838 385.75C227.142 385.878 227.374 385.942 227.534 385.942C227.694 385.942 227.83 385.886 227.942 385.774C228.054 385.662 228.19 385.454 228.35 385.15H228.614V388.822H228.326C227.51 386.742 226.246 385.702 224.534 385.702C223.782 385.702 223.222 385.838 222.854 386.11C222.486 386.366 222.302 386.694 222.302 387.094C222.302 387.334 222.358 387.526 222.47 387.67C222.582 387.798 222.67 387.894 222.734 387.958C222.798 388.022 222.902 388.094 223.046 388.174C223.19 388.238 223.31 388.294 223.406 388.342C223.502 388.374 223.646 388.422 223.838 388.486C224.046 388.55 224.198 388.59 224.294 388.606C225.382 388.878 226.166 389.118 226.646 389.326C227.126 389.518 227.582 389.758 228.014 390.046C228.894 390.654 229.334 391.638 229.334 392.998C229.334 394.342 228.934 395.366 228.134 396.07C227.334 396.758 226.238 397.102 224.846 397.102C223.854 397.102 222.894 396.87 221.966 396.406C221.774 396.278 221.622 396.214 221.51 396.214C221.158 396.214 220.814 396.51 220.478 397.102H220.19ZM240.141 385.438V394.798C240.141 397.422 239.685 399.422 238.773 400.798C237.877 402.174 236.405 402.862 234.357 402.862C233.029 402.862 232.061 402.598 231.453 402.07C230.829 401.542 230.517 400.926 230.517 400.222C230.517 399.518 230.725 398.974 231.141 398.59C231.557 398.222 232.077 398.038 232.701 398.038C233.325 398.038 233.797 398.206 234.117 398.542C234.421 398.894 234.573 399.278 234.573 399.694C234.573 400.11 234.525 400.51 234.429 400.894H233.517C233.261 401.326 233.229 401.694 233.421 401.998C233.597 402.302 233.925 402.454 234.405 402.454C234.901 402.454 235.237 402.174 235.413 401.614C235.589 401.07 235.677 399.934 235.677 398.206V385.87H234.117V385.438H240.141ZM237.861 383.782C237.013 383.782 236.405 383.566 236.037 383.134C235.685 382.702 235.509 382.166 235.509 381.526C235.509 380.886 235.701 380.358 236.085 379.942C236.485 379.526 237.085 379.318 237.885 379.318C238.685 379.318 239.293 379.51 239.709 379.894C240.125 380.262 240.333 380.798 240.333 381.502C240.333 382.19 240.133 382.742 239.733 383.158C239.333 383.574 238.709 383.782 237.861 383.782ZM255.85 396.862H250.378L250.114 395.11C249.858 395.75 249.474 396.246 248.962 396.598C248.466 396.934 247.722 397.102 246.73 397.102C244.25 397.102 243.01 395.766 243.01 393.094V385.87H241.666V385.438H247.474V393.67C247.474 394.63 247.538 395.262 247.666 395.566C247.81 395.87 248.082 396.022 248.482 396.022C248.898 396.022 249.266 395.774 249.586 395.278C249.906 394.782 250.066 394.094 250.066 393.214V385.87H248.962V385.438H254.53V396.43H255.85V396.862ZM256.39 385.438H262.174V387.646C262.43 386.91 262.822 386.318 263.35 385.87C263.878 385.422 264.678 385.198 265.75 385.198C268.23 385.198 269.47 386.534 269.47 389.206V396.43H270.814V396.862H264.022V396.43H265.006V388.63C265.006 387.67 264.942 387.054 264.814 386.782C264.686 386.494 264.454 386.35 264.118 386.35C263.606 386.35 263.15 386.686 262.75 387.358C262.366 388.03 262.174 388.846 262.174 389.806V396.43H263.206V396.862H256.39V396.43H257.71V385.87H256.39V385.438ZM272.213 393.43V385.87H270.893V385.438H272.213V382.342L276.677 381.238V385.438H279.797V385.87H276.677V393.958C276.677 394.71 276.749 395.262 276.893 395.614C277.053 395.966 277.373 396.142 277.853 396.142C278.333 396.142 278.749 395.902 279.101 395.422C279.469 394.942 279.709 394.286 279.821 393.454L280.229 393.502C280.101 394.606 279.749 395.486 279.173 396.142C278.597 396.782 277.645 397.102 276.317 397.102C274.989 397.102 273.973 396.838 273.269 396.31C272.565 395.782 272.213 394.822 272.213 393.43ZM286.219 391.222H286.915V389.374C286.915 387.854 286.827 386.838 286.651 386.326C286.491 385.798 286.171 385.534 285.691 385.534C285.403 385.534 285.139 385.614 284.899 385.774C284.675 385.918 284.563 386.126 284.563 386.398C284.563 386.654 284.611 386.918 284.707 387.19H285.307C285.435 387.526 285.499 387.934 285.499 388.414C285.499 388.878 285.299 389.286 284.899 389.638C284.499 389.974 283.995 390.142 283.387 390.142C282.011 390.142 281.323 389.478 281.323 388.15C281.323 386.182 282.995 385.198 286.339 385.198C288.243 385.198 289.555 385.526 290.275 386.182C291.011 386.822 291.379 388.006 291.379 389.734V394.606C291.379 395.438 291.611 395.854 292.075 395.854C292.619 395.854 292.939 395.03 293.035 393.382L293.395 393.406C293.331 394.814 293.067 395.782 292.603 396.31C292.139 396.838 291.379 397.102 290.323 397.102C288.403 397.102 287.299 396.51 287.011 395.326C286.803 395.934 286.491 396.382 286.075 396.67C285.659 396.958 285.051 397.102 284.251 397.102C281.883 397.102 280.699 396.134 280.699 394.198C280.699 393.062 281.147 392.286 282.043 391.87C282.955 391.438 284.347 391.222 286.219 391.222ZM285.259 394.174C285.259 395.006 285.299 395.542 285.379 395.782C285.475 396.022 285.643 396.142 285.883 396.142C286.139 396.142 286.371 395.942 286.579 395.542C286.803 395.126 286.915 394.558 286.915 393.838V391.606H286.747C285.755 391.606 285.259 392.334 285.259 393.79V394.174ZM294.183 397.102V392.806H294.471C294.887 394.198 295.447 395.174 296.151 395.734C296.855 396.294 297.735 396.574 298.791 396.574C300.423 396.574 301.239 396.054 301.239 395.014C301.239 394.566 301.039 394.23 300.639 394.006C300.015 393.654 299.215 393.382 298.239 393.19C297.151 392.902 296.239 392.518 295.503 392.038C294.623 391.462 294.183 390.55 294.183 389.302C294.183 388.054 294.567 387.062 295.335 386.326C296.103 385.574 297.127 385.198 298.407 385.198C299.191 385.198 299.999 385.382 300.831 385.75C301.135 385.878 301.367 385.942 301.527 385.942C301.687 385.942 301.823 385.886 301.935 385.774C302.047 385.662 302.183 385.454 302.343 385.15H302.607V388.822H302.319C301.503 386.742 300.239 385.702 298.527 385.702C297.775 385.702 297.215 385.838 296.847 386.11C296.479 386.366 296.295 386.694 296.295 387.094C296.295 387.334 296.351 387.526 296.463 387.67C296.575 387.798 296.663 387.894 296.727 387.958C296.791 388.022 296.895 388.094 297.039 388.174C297.183 388.238 297.303 388.294 297.399 388.342C297.495 388.374 297.639 388.422 297.831 388.486C298.039 388.55 298.191 388.59 298.287 388.606C299.375 388.878 300.159 389.118 300.639 389.326C301.119 389.518 301.575 389.758 302.007 390.046C302.887 390.654 303.327 391.638 303.327 392.998C303.327 394.342 302.927 395.366 302.127 396.07C301.327 396.758 300.231 397.102 298.839 397.102C297.847 397.102 296.887 396.87 295.959 396.406C295.767 396.278 295.615 396.214 295.503 396.214C295.151 396.214 294.807 396.51 294.471 397.102H294.183ZM308.069 392.59V390.526C308.069 389.15 307.805 387.518 307.277 385.63C306.765 383.726 306.509 382.43 306.509 381.742C306.509 381.054 306.693 380.558 307.061 380.254C307.445 379.95 307.909 379.798 308.453 379.798C309.669 379.798 310.277 380.446 310.277 381.742C310.277 382.494 309.997 383.806 309.437 385.678C308.877 387.55 308.597 389.174 308.597 390.55V392.59H308.069ZM308.237 397.102C307.645 397.102 307.197 396.934 306.893 396.598C306.605 396.246 306.461 395.814 306.461 395.302C306.461 394.774 306.621 394.342 306.941 394.006C307.261 393.654 307.701 393.478 308.261 393.478C308.821 393.478 309.269 393.63 309.605 393.934C309.941 394.222 310.109 394.654 310.109 395.23C310.109 395.806 309.949 396.262 309.629 396.598C309.309 396.934 308.845 397.102 308.237 397.102Z" fill="#D98C24"/>
</svg>
