<svg width="363" height="258" viewBox="0 0 363 258" fill="none" xmlns="http://www.w3.org/2000/svg">
<path d="M179.775 164.757C168.912 168.431 155.334 167.819 143.977 164.553C129.165 160.47 116.574 150.264 108.92 142.712C102.749 151.081 96.3297 161.083 86.4545 166.186C77.8138 170.472 66.9512 173.738 56.3354 175.167C43.2508 176.8 29.9194 171.901 21.5255 167.41C10.6629 161.695 8.1941 154.755 7.94722 149.856C7.45346 137.813 20.0443 125.565 33.3757 115.972C15.3536 110.052 -1.92792 94.7427 -1.92792 79.0253C-1.92792 69.2274 1.77526 61.4707 9.18161 56.3677C19.0567 49.4275 40.5352 51.6729 53.126 52.4893C50.1634 40.4461 47.2009 17.9926 57.5698 7.78647C61.2729 4.11226 68.6793 -0.174313 81.2701 0.846301C101.761 2.68341 114.105 28.607 118.796 41.2626C120.524 45.7533 121.511 50.244 122.005 54.7347C135.583 50.4481 157.802 42.8956 173.603 48.611C183.725 52.2852 190.637 59.0213 194.587 68.8192C197.797 77.1882 194.094 88.6191 189.65 94.3345C185.947 99.2334 179.775 102.908 171.628 105.153C204.462 128.423 200.019 147.611 192.612 156.388C189.156 160.266 184.712 162.92 179.775 164.757ZM105.464 128.627C105.958 128.423 106.699 128.219 107.192 128.219C109.414 128.015 111.636 128.831 112.871 130.26C123.733 142.712 133.855 149.652 145.952 152.918C158.049 156.184 173.85 156.388 180.268 148.631C192.859 133.526 168.912 115.767 153.605 106.582C151.63 105.357 150.643 103.316 151.137 101.275C151.63 99.2334 153.852 97.8046 156.321 97.3963C164.221 96.3757 174.59 94.1304 178.787 88.6191C181.256 85.3531 181.503 81.0665 179.281 75.5552C176.565 68.615 171.874 63.9202 165.209 61.4707C154.099 57.3883 137.065 59.4295 118.055 66.5738C116.08 67.3903 113.611 67.1862 111.883 66.1656C110.155 65.145 109.167 63.3079 109.167 61.4707C109.661 55.5512 108.92 49.6316 106.699 43.9162C103.489 35.7513 94.6015 16.3596 80.5295 15.339C74.6044 14.9308 70.4074 15.9514 67.4449 18.605C61.2729 24.7287 61.0261 39.2214 66.7043 56.7759C67.198 58.4089 66.7043 60.246 65.223 61.4707C63.7417 62.6955 61.7667 63.3078 59.5448 63.1037C43.2508 60.8584 30.66 62.2872 23.7474 67.1862C19.0567 70.4521 16.8348 75.3511 16.8348 82.0871C16.8348 91.885 22.0193 104.337 46.7071 108.623C49.1759 109.031 50.9041 110.664 51.3978 112.501C51.8916 114.543 50.9041 116.584 49.1759 117.604C31.1538 129.852 20.0443 141.691 20.2911 149.652C20.538 153.122 23.0068 156.184 28.1912 158.837C40.5352 165.369 63.7417 161.287 78.3076 154.142C88.9233 148.835 97.0703 141.079 102.255 131.281C102.749 130.056 103.983 129.035 105.464 128.627Z" fill="#E6875E"/>
<path d="M104.724 79.0248C76.8263 70.4517 60.5323 106.377 88.6764 114.95C116.574 123.524 132.621 87.598 104.724 79.0248Z" fill="#FFD2BD"/>
<path d="M310.62 257.225C302.72 256.204 295.067 251.714 289.882 246.407C283.217 239.67 280.254 229.873 279.267 223.137C272.107 226.198 263.96 230.077 255.813 230.077C248.901 230.077 241 228.648 234.335 226.198C225.941 223.137 220.51 216.4 217.547 211.297C213.844 204.765 215.325 199.867 217.547 197.009C222.485 189.864 235.322 186.394 247.172 184.966C239.519 175.984 236.063 161.9 242.975 152.918C247.172 147.203 252.851 143.937 259.516 143.12C268.404 142.1 279.76 149.856 286.673 154.143C290.376 146.386 298.523 132.302 308.892 129.444C312.842 128.424 318.767 128.219 325.68 132.506C336.789 139.65 332.592 158.43 329.877 167.207C328.889 170.269 327.655 173.126 325.68 175.984C335.555 177.617 351.602 179.862 358.268 188.027C362.465 193.13 363.699 199.254 361.477 206.194C359.749 212.114 352.589 217.421 347.158 219.462C342.961 221.095 337.777 221.504 331.852 220.279C340.739 243.753 329.63 253.551 321.483 256.409C318.273 257.429 314.323 257.633 310.62 257.225ZM283.464 213.747C283.957 213.747 284.204 213.951 284.698 214.155C285.932 214.767 286.92 215.788 287.167 217.013C287.907 227.423 290.87 234.567 296.301 240.283C301.733 245.794 311.114 250.693 318.273 248.244C332.345 243.345 326.173 225.79 321.483 215.788C320.742 214.359 321.236 212.93 322.47 211.91C323.705 210.889 325.68 210.685 327.161 211.297C332.099 213.134 339.258 214.972 343.949 212.93C346.911 211.706 348.886 209.46 350.121 205.582C351.602 200.683 351.108 196.601 348.146 193.13C343.455 187.415 332.592 183.333 318.52 181.904C317.039 181.7 315.805 180.883 315.064 179.862C314.57 178.638 314.57 177.413 315.558 176.392C318.52 173.126 320.495 169.452 321.977 165.37C323.705 159.654 327.161 145.774 319.508 140.875C316.298 138.834 313.336 138.221 310.373 138.834C304.201 140.467 297.536 148.836 293.092 160.879C292.598 162.104 291.611 162.92 290.129 163.124C288.648 163.533 287.167 163.124 286.179 162.308C277.785 156.184 269.638 153.122 263.713 153.735C259.516 154.143 256.06 156.388 253.097 160.267C248.901 165.982 246.432 174.759 258.776 184.761C260.01 185.782 260.257 187.211 259.763 188.436C259.269 189.66 257.788 190.681 256.06 190.681C239.766 191.702 228.163 195.376 224.953 200.071C223.472 202.112 223.719 204.765 225.447 207.827C229.644 215.38 244.95 220.075 256.554 220.075C265.195 220.075 273.095 218.238 280.501 214.155C281.488 213.747 282.476 213.543 283.464 213.747Z" fill="#E6AA75"/>
<path d="M304.942 184.762C292.598 171.289 267.17 187.415 279.76 200.683C292.351 214.155 317.533 198.029 304.942 184.762Z" fill="#E6875E"/>
</svg>
