<svg width="247" height="579" viewBox="0 0 247 579" fill="none" xmlns="http://www.w3.org/2000/svg">
  <path
    d="M120.771 82.2667C104.736 99.8772 97.7393 119.176 102.695 141.129C109.692 172.008 130.683 199.509 146.135 227.976C153.131 241.003 158.088 254.271 163.335 267.78C169.166 281.772 175.871 295.282 181.411 309.273C191.323 332.674 202.984 362.587 190.157 386.711C184.034 398.291 173.831 407.699 166.251 418.555C156.921 432.065 153.715 447.745 153.715 462.943C153.715 495.752 171.498 523.977 199.777 546.171C215.229 558.233 232.721 568.365 250.213 578.256V0.486328C204.734 24.6103 153.715 45.8394 120.771 82.2667Z"
    fill="white" />
  <path
    d="M258.199 248.087C251.728 241.975 243 237.983 233.219 236.736C222.384 235.364 213.807 238.108 204.327 241.85C192.439 246.59 184.915 241.85 175.735 235.738C168.813 231.123 161.741 226.383 152.712 225.385C136.008 223.389 122.766 234.366 110.728 242.224C103.806 246.715 95.6797 251.704 86.5004 251.954C76.2677 252.203 67.6903 246.216 60.0158 241.476C51.5889 236.237 42.4096 230.998 31.4245 230.998C19.2356 230.748 8.25056 236.611 1.0275 244.345C-2.43355 248.087 3.88663 253.45 7.34768 249.584C14.5707 242.099 25.2548 236.361 37.2933 238.981C46.3221 240.977 53.6957 246.839 61.0692 251.205C74.9134 259.438 89.6605 261.808 104.859 254.573C118.101 248.211 129.086 235.613 144.586 232.869C162.643 229.75 172.876 247.463 188.827 250.956C200.565 253.45 208.39 246.964 218.923 244.594C230.962 241.85 243.752 245.592 251.728 253.326C255.64 256.943 261.961 251.704 258.199 248.087Z"
    fill="#C4D7D1" />
  <path
    d="M250.524 272.16C241.495 267.42 232.015 269.79 222.535 272.16C211.399 275.029 200.414 275.778 189.73 270.913C181.153 266.921 175.284 259.687 165.352 257.691C156.624 255.82 147.896 258.439 140.222 261.932C130.591 266.422 122.164 272.534 111.48 275.528C100.796 278.522 88.9081 278.646 78.224 275.902C60.3168 271.162 40.3029 257.691 22.8472 271.287C18.6337 274.53 24.9539 279.894 29.1673 276.526C38.1962 269.541 50.8365 273.906 60.3168 277.649C68.7437 281.016 76.8696 284.01 86.3499 285.008C106.665 287.129 122.164 280.143 138.717 271.412C147.144 266.921 157.076 261.932 167.007 266.298C175.284 269.915 180.852 276.276 189.73 279.27C197.555 281.89 205.982 282.763 214.258 281.765C224.039 280.517 236.379 273.782 245.859 278.771C250.975 281.266 255.49 274.78 250.524 272.16Z"
    fill="#C4D7D1" />
  <path
    d="M264.82 306.338C257.747 300.101 247.815 296.484 237.432 297.108C223.137 297.856 213.656 308.708 198.759 305.964C185.818 303.469 174.983 295.86 161.44 294.987C151.508 294.363 141.275 297.731 136.761 305.34C134.052 309.581 141.877 313.448 144.586 309.082C150.605 299.353 165.202 302.346 174.983 305.964C184.012 309.332 192.74 313.448 202.822 314.072C213.506 314.695 220.278 309.955 229.457 306.588C239.689 302.721 251.126 305.091 258.65 311.826C262.412 315.194 268.883 309.955 264.82 306.338Z"
    fill="#C4D7D1" />
</svg>
