<svg id="Layer_1" data-name="Layer 1" xmlns="http://www.w3.org/2000/svg" viewBox="0 0 479 163.19">
  <defs>
    <style>
      .cls-1 {
        opacity: 0.6;
      }

      .cls-2 {
        fill: #f0ad9d;
      }

      .cls-3 {
        fill: #fdd2a7;
      }

      .cls-4 {
        fill: #c4d7d1;
      }

      .cls-5 {
        fill: #fff;
      }
    </style>
  </defs>
  <title>nubearcoiris_hero_home</title>
  <g class="cls-1">
    <path class="cls-2" d="M266.29,12.86c.45,0,.66-.06.71-.06-.1,0-.91.12-1.38.16Z" />
    <path class="cls-2" d="M311.18,11.93l-.61,0H311Z" />
    <path class="cls-2" d="M312.31,12l-.82-.06A2.59,2.59,0,0,1,312.31,12Z" />
    <path class="cls-2"
      d="M479,69V102.3a273.67,273.67,0,0,0-45.08-42.42q-7.68-5.73-15.87-11c-3.44-2-7-4.33-10.71-6.42-.14,0-.65-.35-1-.53l.12.09a1.46,1.46,0,0,1-.25-.14l-.14-.1.13.06-.61-.39L403,40c-1.72-1-3.56-1.79-5.28-2.8a216.69,216.69,0,0,0-23.6-10.65c-2.08-.86-4.26-1.49-6.33-2.34A11.62,11.62,0,0,0,365,23.1l-.22-.06-.05,0h0l-.11,0h0l-.07,0h0l-.18-.05h-.07l-.07,0-.14,0c-4-1.42-8.38-2.68-12.75-3.94-4.12-1.19-8.36-2.15-12.59-3.11-.53-.15-1.83-.25-2.73-.46a3.79,3.79,0,0,1-1.37-.21c-2.29-.41-4.34-.74-6.39-1.07-4.59-.81-9-1.33-13.74-1.91-1.08,0-2.4-.18-3.72-.3-.83,0-.65,0-.18.06-1.73-.06-3.2-.23-5-.27-3.72-.3-7.31-.31-11.14-.39a10.62,10.62,0,0,1-3.11.14h-.15c-.55,0-2,0-2.36,0-1.08-.05-1.91,0-2.75,0-3.59,0-7.64.36-11.34.58l-6.08.56c-.83,0-1.78.25-2.62.27-.94.17-.89.2-.53.18-7.49,1.08-15.29,2.31-22.73,3.89-1.89.48-4,.9-5.91,1.38l-.81.26.45-.11c-1.5.53-1.28.4-.49.12l-2.34.6c-4,.9-8.16,2-12.06,3.2-7.78,2.38-15.57,4.75-23.08,7.72a41.12,41.12,0,0,1-5.87,2.41l-2,.89.24-.11c.81-.54-2,.71-2.35.86-3.76,1.48-7.63,3.19-11.25,5q-11.24,5.24-22.08,11.34a312.37,312.37,0,0,0-51.74,36.47,301,301,0,0,0-26.87,26.59c-1.82,2-5.14,2.62-8,3.34a47.88,47.88,0,0,1-12.2.08c-2.89-.32-13.78-2.94-9.57-7.64,3-3.25,5.91-6.5,9.11-9.69l.34-.35a332,332,0,0,1,85.93-62.54A339.62,339.62,0,0,1,242.41,3.92,311,311,0,0,1,353.8,6.26,276.16,276.16,0,0,1,455.46,50.45,280.73,280.73,0,0,1,479,69Z" />
    <path class="cls-3"
      d="M479,114V140c-5.61.13-13.36-.67-16-4.5-17.36-25.27-39.13-47.71-65.91-64.93-1.6-1-3.26-2-5-3.09l-4.4-2.69a32.75,32.75,0,0,0-4.31-2.52c-.62-.44-1.59-.72-2.21-1.15-.43-.12-1.86-1-1.18-.66-6.38-3.09-12.64-5.91-19.24-8.57L350.2,48.05l-.88-.25h-.13l-.11,0h0l-.05,0-.08,0-.17,0-.14,0-.09,0-.08,0-.18,0-1-.28-4.85-1.4c-3.64-1.05-7.39-1.87-11.14-2.69-1.07-.14-2.21-.41-3.4-.65a6,6,0,0,1-1.19-.16l-.48-.14a11.54,11.54,0,0,0-2.54-.48C319.84,41.1,316,40.5,312,40.12c-.69,0-1.14-.07-1.76-.09.73.07,1.2.13-.15.06s-3-.1-4.32-.22c-2.89-.32-6.24-.26-9.23-.35a6.66,6.66,0,0,0-2.16-.11H294c1,0,2.82,0,1.47,0l-5,.09c-3.35.07-6.46.2-9.67.55-1.31.09-2.92.32-4.28.43a9.16,9.16,0,0,1-2.15.29c-6.18.78-12.72,1.72-18.88,3a5.79,5.79,0,0,1-1.3.4l-.59.09-.82.26,1.41-.35a4,4,0,0,1-1.89.48,40.53,40.53,0,0,1-4.73,1.2c-3.08.66-6,1.6-9.21,2.48-6.44,1.83-12.53,4-18.62,6.17h0c-.22.1-2,.79-2.2.9a14.19,14.19,0,0,0-2.36.86c-1.4.62-3,1.17-4.46,1.79-2.92,1.47-6,2.64-8.9,4.11-6.19,3.09-12.39,6.18-18.45,9.57A262.62,262.62,0,0,0,118.56,124c-1.81,2-5.38,2.55-7.76,2.89a47.88,47.88,0,0,1-12.2.08c-2.89-.32-14-2.5-9.9-7A265.9,265.9,0,0,1,124,87.49a279.16,279.16,0,0,1,44.13-27.75C224.59,31.09,289.52,22.61,347.86,34a227.27,227.27,0,0,1,69.61,27.28A242.09,242.09,0,0,1,479,114Z" />
    <path class="cls-4"
      d="M161.93,134.88a196,196,0,0,1,49-39.52c4.54-2.54,9.33-5,14-7.25,2.46-1.09,4.68-2.25,7.14-3.34l3.52-1.55a7.42,7.42,0,0,0,1.76-.78c.35-.15,2.7-1,1.4-.62-1.05.47.35-.15.35-.15a7.46,7.46,0,0,0,1.76-.78c1.3-.39,2.35-.86,3.65-1.26l7.79-2.37c2.24-.64,4.48-1.27,7-1.84,1.3-.4,2.48-.57,3.78-1a4.07,4.07,0,0,0,1.89-.48c-1.16.69-2.13.41,0,0,4.87-.91,9.73-1.82,14.73-2.43,1.19-.17,2-.19,3.21-.36-4.4.53-.35.15.84,0,2.62-.27,5.13-.31,7.75-.59a19.53,19.53,0,0,1,3.59,0c1.67,0-2.16-.11-1.92,0,.6-.08,1.08.06,1.68,0,2.51,0,4.91.14,7.66.16,1.08,0,2.4.18,3.48.23,1.57.2-1.8-.26-1.8-.26a6.89,6.89,0,0,0,2.15.11c2.89.32,6,.71,9.15,1.09.73.21,1.32.13,2.05.34,2.05.33-2.53-.48-.48-.14,1.21.35,2.53.47,3.5.75,3,.62,5.69,1.39,8.6,2.23L333,76.15c.24.06,2.42.69,1,.27s.24.07.48.14c2.8,1.07,5.47,1.84,8.28,2.9a134,134,0,0,1,27.23,14,179.68,179.68,0,0,1,50.72,50c3.09,4.48,13.15,4.82,18.64,4.34,2.26-.11,15.23-1.77,12.14-6.25C426.13,104.27,386.76,74.19,337,63.94c-46.17-9.71-97.68-3.26-142.91,19.38a212.49,212.49,0,0,0-62.37,47.2c-4.1,4.47,7,6.64,9.9,7a47.89,47.89,0,0,0,12.2-.07C156.79,137.5,160.35,137,161.93,134.88Z" />
  </g>
  <path class="cls-5"
    d="M479,74.5v88.69H0C9.88,151.91,20,125,31.9,115.13A128.19,128.19,0,0,1,56.32,99.19a118.52,118.52,0,0,1,47.17-12.33c3-.15,6.09-.2,9.19-.12,3.77.09,7.57.33,11.35.75A93.57,93.57,0,0,1,150.52,94q2.23.93,4.39,2c3.23,1.66,6.32,3.48,9.38,5.35,6.61,4,13.08,8.18,20.56,11.12l.54.21h0c22.72,8.68,51.37,1.76,73.83-4.17,13.53-3.32,26.62-7.42,40.16-10.94,13.06-3.14,25.89-6.09,38.53-10.4,4.19-1.44,8.36-3,12.52-4.54,6.95-2.6,13.87-5.32,20.85-7.93s13.81-5.08,20.84-7.26a186.84,186.84,0,0,1,25.34-6.15c1.54-.26,3.08-.49,4.64-.69a85.51,85.51,0,0,1,11.81-.74c16.26.13,30.8,5.12,44.15,14C478.38,74.08,478.69,74.28,479,74.5Z" />
</svg>
