<svg width="280" height="108" viewBox="0 0 280 108" fill="none" xmlns="http://www.w3.org/2000/svg">
  <path
    d="M244.861 0C224.22 14.8629 203.961 25.931 178.351 35.576C158.666 43.0074 135.731 48.2253 115.281 42.0588C94.4493 35.7341 75.5284 25.1404 57.7542 14.3885C50.1094 9.80317 45.7136 5.0597 39.7889 0H22.588C47.6248 18.6576 76.2929 36.2085 107.254 46.9603C126.749 53.6012 145.287 55.1823 165.355 49.4902C187.334 43.1656 207.402 32.4137 226.131 21.0294C237.025 14.3885 247.728 7.43143 257.857 0H244.861Z"
    fill="#37444D" />
  <path
    d="M145.861 104.514C145.861 93.4463 145.861 82.3782 145.861 71.3101C145.861 66.7248 137.26 66.7248 137.26 71.3101C137.26 82.3782 137.26 93.4463 137.26 104.514C137.26 109.1 145.861 109.1 145.861 104.514Z"
    fill="#37444D" />
  <path
    d="M201.095 90.7586C195.934 81.9041 190.774 72.8915 184.276 64.6695C181.218 60.8747 173.764 64.3533 176.822 68.3062C183.32 76.5282 188.672 85.5408 193.641 94.3953C196.126 98.5063 203.388 94.8696 201.095 90.7586Z"
    fill="#37444D" />
  <path
    d="M246.39 66.4086C238.745 59.2934 230.718 52.0201 221.927 46.0117C217.722 43.1656 211.606 48.0672 215.811 51.0714C224.602 57.2379 232.63 64.3531 240.274 71.4683C243.906 74.7887 250.022 69.729 246.39 66.4086Z"
    fill="#37444D" />
  <path
    d="M277.925 37.7895C271.427 33.2042 264.356 28.3026 256.52 25.1403C251.55 23.0848 247.155 29.2513 252.124 31.3068C259.386 34.1529 265.693 38.5801 271.809 42.8492C276.014 45.8534 282.13 40.7937 277.925 37.7895Z"
    fill="#37444D" />
  <path
    d="M86.6134 94.3954C91.7737 85.5409 96.9339 76.5283 103.432 68.3063C106.49 64.5115 99.0363 60.8749 95.9783 64.6697C89.4802 72.8917 84.1289 81.9043 79.1597 90.7588C76.8663 94.8698 84.32 98.5064 86.6134 94.3954Z"
    fill="#37444D" />
  <path
    d="M39.98 71.3101C47.6249 64.1949 55.6519 56.9216 64.4435 50.9132C68.6482 47.909 62.5323 43.0074 58.3276 45.8535C49.5361 52.02 41.509 59.1352 33.8642 66.2504C30.2329 69.7289 36.3487 74.7886 39.98 71.3101Z"
    fill="#37444D" />
  <path
    d="M8.44515 42.8492C14.561 38.5801 20.868 34.1529 28.1306 31.3068C33.0997 29.2513 28.704 23.0848 23.7348 25.1403C15.8989 28.3026 8.82739 33.2042 2.32928 37.7895C-1.87538 40.7937 4.24049 45.8534 8.44515 42.8492Z"
    fill="#37444D" />
</svg>
