<svg width="393" height="303" viewBox="0 0 393 100" fill="none" xmlns="http://www.w3.org/2000/svg">
<g>
<path d="M32.2622 190.294C53.0043 163.811 77.7912 141.252 106.717 122.384C113.67 117.857 120.774 113.617 128.03 109.663C131.535 107.659 135.287 105.709 138.944 103.991C139.285 103.814 142.013 102.396 141.237 102.982C140.214 103.514 142.601 102.273 142.942 102.096C144.894 101.264 146.846 100.432 148.645 99.314C155.959 95.8777 163.578 93.0136 171.196 90.1495C175.005 88.7175 179.061 87.3398 183.022 86.1939C183.951 85.8938 184.88 85.5937 185.808 85.2936C183.857 86.1255 184.88 85.5937 186.149 85.1163C188.007 84.5162 190.111 83.9704 191.968 83.3702C199.55 81.2555 207.53 79.4814 215.169 77.8845C217.766 77.4475 212.231 78.4987 214.923 77.8301C215.757 77.7616 216.686 77.4615 217.52 77.3931C219.529 77.079 221.539 76.7649 223.548 76.4508C227.226 75.9999 231.245 75.3717 234.829 75.1524C235.663 75.084 236.497 75.0156 237.578 75.0016C238.166 74.8787 241.996 74.7139 239 74.8103C236.251 74.9611 239.247 74.8647 240.081 74.7963C241.162 74.7823 242.242 74.7683 243.171 74.4682C247.001 74.3033 250.585 74.0841 254.32 74.1509C256.235 74.0685 257.809 74.1633 259.724 74.0809C260.218 74.1897 260.559 74.0124 261.052 74.1213C261.052 74.1213 257.563 74.1089 259.478 74.0264C260.805 74.0669 262.133 74.1073 263.213 74.0933C267.935 74.3778 272.411 74.6078 277.038 75.124C279.105 75.3276 281.173 75.5313 283.486 75.7894C283.98 75.8982 284.473 76.0071 285.06 75.8842C286.634 75.979 284.074 75.6665 284.074 75.6665C284.719 76.0615 286.881 76.0335 287.621 76.1967C291.907 76.8901 296.194 77.5835 300.386 78.5086C304.824 79.4881 309.263 80.4676 313.361 81.6244C315.826 82.1686 311.881 81.2979 314.347 81.8421C315.333 82.0597 316.32 82.2774 317.211 82.7267C319.336 83.4482 321.556 83.9379 323.68 84.6593C332.028 87.2589 340.186 90.3219 347.909 93.7938C349.693 94.6925 351.571 95.3595 353.355 96.2581C354.247 96.7075 355.139 97.1568 356.031 97.6062C356.031 97.6062 357.568 98.4504 356.676 98.0011C356.031 97.6062 357.568 98.4504 357.814 98.5048C361.629 100.357 365.348 102.44 368.916 104.237C399.167 121.014 424.932 142.861 446.284 168.279C449.038 171.412 451.698 174.777 454.111 178.087C457.626 182.65 467.107 182.47 473.041 181.759C475.638 181.322 488.319 178.565 484.957 174.288C463.62 146.853 437.321 122.363 406.346 103.407C375.523 84.7365 340.214 71.1367 302.092 65.7542C266.284 60.6299 228.324 62.1011 190.773 70.4806C156.748 78.123 123.357 91.4608 92.8934 109.485C61.7478 127.863 33.6817 151.214 10.7781 177.725C7.7872 181.105 5.04294 184.54 2.29868 187.974C-1.59996 192.922 9.43889 194.853 12.3403 194.988C16.3225 195.109 20.6458 195.053 24.5126 194.139C27.2987 193.239 30.5779 192.447 32.2622 190.294Z" fill="#D98C24"/>
<path d="M74.7866 198.132C91.9709 176.42 112.591 157.487 136.118 141.973C141.953 138.21 147.939 134.734 153.926 131.257C156.749 129.608 159.724 128.244 162.547 126.594C163.911 125.885 165.522 125.231 166.886 124.522C167.568 124.167 168.25 123.813 169.179 123.513C169.52 123.335 172.836 121.794 170.543 122.804C176.739 120.131 182.936 117.458 189.531 115.126C192.658 114.048 195.538 112.916 198.571 112.07C200.087 111.647 201.603 111.225 203.214 110.57C203.802 110.447 204.636 110.379 205.071 109.97C203.214 110.57 203.214 110.57 204.484 110.093C205.071 109.97 205.659 109.847 206.341 109.492C212.406 107.801 218.87 106.449 224.993 105.276C225.827 105.207 226.415 105.084 227.344 104.784C230.528 104.224 224.5 105.167 226.756 104.907C228.178 104.716 229.941 104.347 231.363 104.156C234.547 103.596 237.638 103.268 240.974 102.994C242.643 102.858 244.311 102.721 245.98 102.584C248.236 102.324 241.562 102.872 244.899 102.598C245.733 102.529 246.321 102.407 247.06 102.57C250.056 102.473 253.393 102.2 256.294 102.335C257.622 102.375 259.29 102.239 260.618 102.279C263.86 102.237 256.635 102.158 260.371 102.225C261.205 102.156 261.698 102.265 262.533 102.197C266.515 102.318 270.402 102.671 274.29 103.023C275.371 103.009 276.357 103.227 277.344 103.445C278.083 103.608 279.998 103.526 276.85 103.336C278.671 103.485 280.397 103.866 281.971 103.961C285.764 104.545 289.558 105.13 293.256 105.946C294.982 106.327 296.708 106.708 298.188 107.035C298.681 107.143 301.887 107.851 299.174 107.252C299.914 107.415 300.407 107.524 301.147 107.687C304.751 108.735 308.356 109.783 311.96 110.831C318.828 113.104 325.354 115.554 332.033 118.291C330.648 117.733 332.431 118.631 332.925 118.74C333.57 119.135 334.556 119.353 335.202 119.748C336.833 120.36 338.124 121.15 339.661 121.994C342.982 123.737 346.303 125.48 349.377 127.168C377.199 142.651 400.345 163.666 419.267 187.79C422.63 192.068 432.698 191.764 438.139 190.945C440.395 190.685 453.228 188.214 449.866 183.937C414.376 138.482 361.856 103.156 297.921 93.8452C238.977 86.1405 174.716 98.7259 120.212 130.888C90.8661 148.148 65.0932 170.489 44.7291 196.044C40.925 200.76 52.1526 202.227 55.0539 202.363C59.0361 202.484 63.3592 202.428 67.226 201.513C69.5766 201.022 73.1023 200.285 74.7866 198.132Z" fill="#FDD2A7"/>
<path d="M118.756 206.277C131.606 189.92 147.531 175.253 165.13 163.732C169.506 160.91 174.129 158.142 178.657 155.606C181.044 154.365 183.185 153.07 185.573 151.829C186.596 151.297 187.96 150.588 188.983 150.056C189.665 149.702 190.253 149.579 190.688 149.17C191.029 148.993 193.322 147.984 192.053 148.461C191.029 148.993 192.394 148.284 192.394 148.284C193.076 147.929 193.663 147.806 194.099 147.397C195.369 146.92 196.392 146.388 197.662 145.911C200.201 144.956 202.741 144.001 205.28 143.047C207.479 142.269 209.677 141.492 212.122 140.769C213.392 140.291 214.567 140.046 215.837 139.568C216.425 139.445 217.259 139.377 217.695 138.968C216.577 139.731 215.591 139.514 217.695 138.968C222.49 137.754 227.286 136.539 232.234 135.611C233.409 135.365 234.243 135.297 235.419 135.051C231.058 135.856 235.078 135.228 236.253 134.983C238.85 134.546 241.353 134.34 243.95 133.903C245.125 133.658 246.453 133.698 247.534 133.684C249.202 133.547 245.372 133.712 245.619 133.767C246.206 133.644 246.699 133.753 247.287 133.63C249.79 133.424 252.198 133.451 254.948 133.3C256.028 133.286 257.356 133.327 258.437 133.313C260.011 133.407 256.616 133.163 256.616 133.163C257.356 133.327 257.943 133.204 258.778 133.135C261.679 133.271 264.827 133.46 267.975 133.65C268.715 133.813 269.303 133.69 270.043 133.854C272.11 134.057 267.482 133.541 269.549 133.745C270.782 134.017 272.11 134.057 273.096 134.275C276.15 134.696 278.863 135.295 281.822 135.948C283.055 136.22 284.534 136.547 285.767 136.819C286.014 136.873 288.233 137.363 286.754 137.037C285.274 136.71 287 137.091 287.247 137.145C290.112 138.03 292.824 138.629 295.689 139.514C306.655 142.944 314.131 146.361 323.754 151.768C345.181 163.82 363.088 179.894 377.547 198.489C380.91 202.767 390.979 202.463 396.42 201.644C398.676 201.384 411.51 198.913 408.147 194.636C380.482 158.984 339.291 131.459 288.953 124.39C242.256 117.62 191.262 127.326 147.554 152.782C124.63 166.158 104.328 183.648 88.2981 203.848C84.4938 208.564 95.722 210.032 98.6235 210.167C102.606 210.289 106.929 210.233 110.796 209.318C113.792 209.222 117.318 208.485 118.756 206.277Z" fill="#E8521F"/>
</g>
</svg>

