<svg width="224" height="344" viewBox="0 0 224 344" fill="none" xmlns="http://www.w3.org/2000/svg">
<path d="M18.3686 300.414C-36.0809 294.318 -97.2577 277.424 -146.872 238.238C-162.008 226.22 -161.378 196.09 -146.241 183.725C-138.883 177.629 -130.474 169.966 -121.014 168.224C-73.2915 159.69 -29.1433 136.875 22.1527 141.751C41.9143 143.667 62.727 147.324 67.3521 165.437C75.551 196.787 84.5908 228.833 84.8011 260.531C85.0113 294.492 72.3976 300.414 18.3686 300.414Z" fill="#F0BE69"/>
<path d="M124.745 265.755C125.165 267.671 125.586 273.767 127.898 279.34C136.518 301.284 128.108 323.926 105.824 337.51C89.216 347.612 70.0851 344.825 55.369 332.808C43.1757 322.881 28.0392 315.566 15.4254 305.813C-2.65435 291.705 -0.972515 269.064 17.5277 255.479C20.6811 253.215 22.9937 249.558 24.6755 246.249C32.8745 229.355 51.5849 224.304 72.6079 231.967C83.1193 235.799 95.1024 237.366 106.665 238.411C119.489 239.282 125.796 246.249 124.745 265.755Z" fill="#F0AD9D"/>
<path d="M-89.8995 105.699C-93.6836 50.3149 -37.7626 32.7244 -8.33043 0.678392C-6.22814 -1.75989 12.9028 2.76835 19.8403 7.99325C33.0848 18.0947 44.8577 30.2861 54.7384 43.0001C107.086 110.053 159.853 177.106 209.678 245.378C220.189 259.659 219.558 279.514 223.973 296.93C201.899 293.098 175.62 294.318 158.592 284.564C94.2616 247.294 33.295 206.365 -29.3534 167.178C-57.3139 149.762 -100.411 142.099 -89.8995 105.699Z" fill="#E8521F"/>
<path d="M94.682 63.2031C105.824 68.2539 116.966 73.4788 128.108 78.3553C131.893 79.9228 136.307 81.1419 140.722 81.3161C160.063 82.0128 162.796 85.1477 158.382 100.997C156.069 109.356 154.177 117.89 153.336 126.424C151.234 146.627 122.222 165.089 99.0968 159.167C93.0001 157.6 86.9035 150.981 84.8012 145.408C78.0738 128.514 73.659 111.098 67.7726 94.03C59.3634 69.1247 61.2555 66.8606 94.682 63.2031Z" fill="#556876"/>
</svg>
