<svg width="182" height="134" viewBox="0 0 182 134" fill="none" xmlns="http://www.w3.org/2000/svg">
  <path d="M130.883 12.5479H50.3286V114.623H130.883V12.5479Z" fill="white" />
  <path
    d="M130.877 114.901H50.3284C50.2545 114.901 50.1836 114.872 50.1314 114.82C50.0792 114.767 50.0498 114.697 50.0498 114.623V12.5476C50.0498 12.4737 50.0792 12.4029 50.1314 12.3506C50.1836 12.2984 50.2545 12.269 50.3284 12.269H130.877C130.951 12.269 131.021 12.2984 131.074 12.3506C131.126 12.4029 131.155 12.4737 131.155 12.5476V114.623C131.155 114.697 131.126 114.767 131.074 114.82C131.021 114.872 130.951 114.901 130.877 114.901ZM50.6006 114.344H130.604V12.8199H50.6006V114.344Z"
    fill="#556876" />
  <path
    d="M75.8757 72.9492C72.6395 73.339 69.573 74.6117 67.0117 76.6278C62.719 79.9961 61.4971 91.9498 61.4971 91.9498L69.6139 95.1661L65.4795 123.202H109.166L111.465 93.9379L121.424 83.8076C121.424 83.8076 122.19 74.0002 108.856 73.538C93.3441 73.0252 75.8757 72.9492 75.8757 72.9492Z"
    fill="#D98C24" />
  <path
    d="M110.553 64.9403C111.902 64.1045 113.016 63.0408 113.218 62.1987C113.35 61.2635 113.246 60.3101 112.915 59.4256C110.331 49.8335 111.572 39.1271 106.767 30.4341C106.184 29.2413 105.314 28.2122 104.234 27.4393C103.691 27.0622 103.053 26.8451 102.393 26.8126C101.732 26.7802 101.076 26.9337 100.499 27.2557C96.2566 19.0248 84.3789 24.0267 80.7257 30.2631C76.8635 36.8668 74.3942 44.5594 71.3805 51.5873C70.4498 53.759 69.4811 56.0193 69.633 58.3936C69.785 60.7679 71.2982 63.2244 73.6345 63.5853L75.0021 61.4833C74.3689 62.0468 74.4955 63.1548 75.0654 63.7943C75.6964 64.3859 76.4749 64.797 77.3194 64.9846C85.4932 67.5615 94.3065 69.7458 102.537 67.3652C103.804 66.9916 105.33 65.9913 104.905 64.7376C105.513 66.979 108.381 66.2952 110.553 64.9403Z"
    fill="white" />
  <path
    d="M94.9779 68.6567C89.0833 68.6567 83.0431 67.0802 77.2499 65.2504C76.3578 65.0528 75.5367 64.6149 74.8756 63.9841C74.6254 63.7001 74.4493 63.3586 74.3628 62.9901L73.8816 63.7372C73.8515 63.7821 73.8095 63.8177 73.7603 63.8401C73.7111 63.8624 73.6566 63.8707 73.603 63.8638C71.0198 63.465 69.4939 60.7614 69.3673 58.4188C69.2407 55.9432 70.2473 53.5753 71.1401 51.4859C72.0328 49.3966 72.8875 47.2059 73.7233 45.0912C75.7114 40.0261 77.7754 34.79 80.4979 30.1301C82.9862 25.888 88.8744 22.5324 93.6483 22.6717C95.0834 22.6645 96.4928 23.0531 97.7214 23.7948C98.9501 24.5365 99.9505 25.6025 100.613 26.8757C101.223 26.6053 101.891 26.4943 102.556 26.553C103.22 26.6117 103.859 26.8382 104.412 27.2113C105.522 28.0149 106.42 29.0777 107.027 30.3073C110.002 35.689 110.692 41.9318 111.357 47.9657C111.681 51.8058 112.297 55.6156 113.2 59.3622L113.238 59.4888C113.559 60.3782 113.65 61.3342 113.504 62.2683C113.295 63.1231 112.199 64.2627 110.718 65.1808C108.85 66.3268 107.052 66.7446 105.912 66.2951C105.624 66.1832 105.366 66.0054 105.159 65.7759C105.137 65.8305 105.112 65.8834 105.083 65.9342C104.512 66.7894 103.639 67.3976 102.639 67.6374C100.146 68.338 97.5669 68.6812 94.9779 68.6567ZM74.9009 62.148C74.8775 62.2328 74.8626 62.3198 74.8566 62.4076C74.8358 62.8467 74.9881 63.2763 75.2808 63.6043C75.878 64.1574 76.6127 64.54 77.4082 64.7122C85.677 67.3208 94.4334 69.4165 102.468 67.0929C103.319 66.8876 104.068 66.3817 104.576 65.6683C104.702 65.4429 104.738 65.1784 104.678 64.9275L104.64 64.8009C104.621 64.7313 104.63 64.6573 104.665 64.5943C104.7 64.5313 104.758 64.4842 104.826 64.4629C104.895 64.4416 104.969 64.4478 105.034 64.4801C105.098 64.5124 105.147 64.5684 105.171 64.6363C105.171 64.6869 105.171 64.7312 105.209 64.7756C105.272 64.9985 105.385 65.2041 105.54 65.3764C105.695 65.5488 105.887 65.6833 106.102 65.7696C107.065 66.1495 108.717 65.7696 110.408 64.6933C111.75 63.8638 112.775 62.8318 112.94 62.1227C113.061 61.2799 112.969 60.4204 112.674 59.6218V59.4952C111.764 55.7215 111.142 51.8842 110.813 48.0163C110.18 42.0331 109.477 35.8473 106.552 30.5606C105.989 29.4125 105.154 28.4193 104.12 27.6671C103.622 27.3179 103.036 27.115 102.429 27.0814C101.821 27.0478 101.216 27.1849 100.682 27.4772C100.65 27.4985 100.614 27.5128 100.575 27.5193C100.537 27.5257 100.498 27.5241 100.461 27.5145C100.423 27.505 100.388 27.4878 100.358 27.4639C100.327 27.44 100.302 27.4101 100.284 27.3759C99.6871 26.1246 98.7472 25.0686 97.5736 24.331C96.3999 23.5934 95.0408 23.2046 93.6546 23.2098C89.0517 23.0959 83.3914 26.3122 80.9918 30.4023C78.2819 35.0179 76.2305 40.235 74.2488 45.2811C73.4131 47.4022 72.552 49.5928 71.6593 51.6885C70.7665 53.7842 69.8105 56.0319 69.9308 58.3745C70.0447 60.4449 71.3363 62.8065 73.527 63.275L74.4134 61.9074C74.4992 61.6624 74.6477 61.4442 74.844 61.2743C74.8944 61.233 74.9577 61.2107 75.0229 61.2113C75.088 61.2119 75.1509 61.2353 75.2006 61.2775C75.2503 61.3196 75.2836 61.3779 75.2948 61.4421C75.306 61.5063 75.2943 61.5724 75.2618 61.6288L74.9009 62.148Z"
    fill="#556876" />
  <path
    d="M108.812 73.5445C108.812 73.5445 103.304 80.1355 91.8058 79.9835C80.308 79.8316 75.876 72.9367 75.876 72.9367C78.3348 71.9426 80.6294 70.5829 82.6822 68.9036C82.8864 68.739 83.0693 68.5497 83.2267 68.3401C85.0629 65.7379 84.455 58.6847 84.455 58.6847L97.4788 58.5327C97.4788 58.5327 97.2825 61.7301 97.2762 64.7058C97.2762 66.7952 97.3648 68.7706 97.6814 69.4671C98.4475 71.1576 108.812 73.5445 108.812 73.5445Z"
    fill="white" />
  <path
    d="M92.1919 80.275H91.8056C80.2951 80.1167 75.6859 73.1712 75.6415 73.0952C75.6245 73.0585 75.6157 73.0185 75.6157 72.9781C75.6157 72.9376 75.6245 72.8976 75.6415 72.8609C75.6554 72.8225 75.6773 72.7874 75.7056 72.7579C75.734 72.7285 75.7683 72.7053 75.8062 72.69C78.2345 71.7033 80.5027 70.3611 82.5364 68.7075C82.7223 68.5584 82.8882 68.386 83.0303 68.1947C84.7904 65.7001 84.2206 58.7925 84.2143 58.6976C84.2111 58.6598 84.2156 58.6218 84.2276 58.5859C84.2395 58.55 84.2587 58.5169 84.2839 58.4886C84.3369 58.4324 84.4094 58.3984 84.4865 58.3937L97.5039 58.2417C97.5799 58.2417 97.6559 58.2417 97.7128 58.3303C97.7384 58.3584 97.7577 58.3915 97.7697 58.4275C97.7817 58.4634 97.7861 58.5015 97.7825 58.5393C97.7825 58.5393 97.5925 61.762 97.5862 64.6997C97.5862 67.8654 97.7888 68.9544 97.9661 69.3407C98.479 70.474 104.931 72.3481 108.907 73.2661C108.953 73.2756 108.996 73.2969 109.032 73.328C109.067 73.3591 109.094 73.3988 109.109 73.4434C109.122 73.4886 109.124 73.5362 109.115 73.5823C109.107 73.6285 109.087 73.6719 109.059 73.7093C108.97 73.8043 103.424 80.275 92.1919 80.275ZM76.3063 73.0699C77.2814 74.3362 81.916 79.5912 91.812 79.7179C101.512 79.8635 106.969 75.0453 108.274 73.7157C106.07 73.1902 98.1434 71.1831 97.4153 69.5939C97.1304 68.9608 96.9847 67.3653 96.9847 64.7187C96.9847 62.2938 97.124 59.6916 97.1747 58.8242L84.7398 58.9698C84.8348 60.3627 85.1197 66.137 83.4418 68.5113C83.2702 68.7459 83.0703 68.9586 82.8467 69.1444C80.8639 70.7566 78.6617 72.0784 76.3063 73.0699Z"
    fill="#556876" />
  <path
    d="M97.4786 58.5454C97.4786 58.5454 97.2824 61.7428 97.276 64.7185C92.9643 68.1502 87.0508 68.9099 82.6821 68.9163C82.8863 68.7517 83.0692 68.5624 83.2266 68.3528C85.0627 65.7506 84.4549 58.6974 84.4549 58.6974L97.4786 58.5454Z"
    fill="#556876" />
  <path
    d="M82.6823 69.2518C82.6134 69.2511 82.5462 69.2296 82.4897 69.1901C82.4332 69.1505 82.39 69.0948 82.3658 69.0302C82.3434 68.966 82.3412 68.8965 82.3592 68.8309C82.3773 68.7653 82.4149 68.7067 82.4671 68.663C82.6475 68.5148 82.811 68.347 82.9546 68.1628C84.702 65.6873 84.1322 58.7987 84.1259 58.7227C84.12 58.678 84.1244 58.6325 84.1386 58.5898C84.1529 58.547 84.1767 58.508 84.2082 58.4758C84.2391 58.4406 84.2771 58.4123 84.3196 58.3927C84.3621 58.373 84.4083 58.3625 84.4551 58.3618L97.4725 58.2099C97.5196 58.2035 97.5675 58.2102 97.611 58.2291C97.6546 58.2481 97.6921 58.2787 97.7194 58.3175C97.7818 58.3845 97.8158 58.4729 97.8144 58.5644C97.8144 58.5644 97.6181 61.7871 97.6118 64.7249C97.6123 64.775 97.6011 64.8246 97.5791 64.8696C97.5572 64.9147 97.525 64.954 97.4852 64.9845C93.0532 68.4984 86.994 69.2455 82.6823 69.2518ZM84.816 59.0266C84.9173 60.5272 85.1642 66.1874 83.4991 68.5237V68.5554C87.5828 68.4604 92.9962 67.6437 96.9597 64.5413C96.9597 62.2113 97.0926 59.7674 97.1433 58.843L84.816 59.0266Z"
    fill="#556876" />
  <path
    d="M80.9853 48.8144C81.0122 48.0542 80.8785 47.297 80.5928 46.592C80.1369 45.3637 79.2505 44.1481 78.1425 44.2241C77.2625 44.2811 76.5343 45.1738 76.2431 46.1932C76.0271 47.2413 76.0596 48.3255 76.3381 49.3589C76.7813 51.3406 77.8006 53.3666 79.4468 53.8732"
    fill="white" />
  <path
    d="M79.4783 54.1259H79.396C77.2243 53.4548 76.3695 50.5993 76.0973 49.4027C75.8056 48.3366 75.7752 47.216 76.0087 46.1357C76.3252 44.9137 77.1926 44.021 78.1234 43.9577C79.3896 43.8817 80.371 45.224 80.8522 46.4902C81.1526 47.2335 81.2929 48.0317 81.2637 48.8329C81.2558 48.9051 81.2205 48.9715 81.1652 49.0185C81.1099 49.0656 81.0387 49.0898 80.9662 49.0861C80.9301 49.0846 80.8947 49.0757 80.8622 49.06C80.8296 49.0443 80.8006 49.0222 80.7769 48.9949C80.7532 48.9677 80.7353 48.9359 80.7243 48.9015C80.7133 48.8671 80.7094 48.8308 80.7129 48.7949C80.7357 48.0732 80.6063 47.3548 80.333 46.6865C79.9405 45.6355 79.1364 44.4199 78.1613 44.4958C77.4712 44.5465 76.7938 45.2873 76.5405 46.256C76.3351 47.2541 76.3676 48.2865 76.6355 49.2697C77.1546 51.568 78.2436 53.1762 79.5542 53.5814C79.6247 53.6033 79.6837 53.6523 79.7181 53.7175C79.7525 53.7828 79.7596 53.8591 79.7379 53.9297C79.7206 53.9854 79.6863 54.0344 79.6397 54.0696C79.5931 54.1049 79.5367 54.1245 79.4783 54.1259Z"
    fill="#556876" />
  <path
    d="M91.388 63.6994L90.0647 63.6361C88.5675 63.5679 87.0986 63.205 85.7418 62.5683C84.3851 61.9316 83.1673 61.0335 82.1581 59.9255C81.1489 58.8175 80.3681 57.5214 79.8606 56.1112C79.353 54.7011 79.1285 53.2047 79.2 51.7077C79.3709 48.1115 80.7955 41.3179 80.7955 41.3179C80.7955 41.3179 86.1645 39.735 90.3749 38.4118C97.4535 36.1894 99.5175 32.5615 99.5175 32.5615C99.589 35.0627 99.9936 37.5433 100.72 39.9376C101.516 41.6575 102.459 43.3056 103.538 44.8635C103.538 44.8635 103.411 50.4921 103.304 52.841C103.235 54.3365 102.872 55.8038 102.235 57.1589C101.599 58.514 100.702 59.7305 99.5954 60.7389C98.4889 61.7473 97.1945 62.5277 95.7862 63.0357C94.378 63.5437 92.8834 63.7692 91.388 63.6994Z"
    fill="white" />
  <path
    d="M91.9197 63.9907H91.3625L90.0393 63.9337C86.9451 63.7844 84.0365 62.4141 81.9511 60.1234C79.8658 57.8327 78.7739 54.8086 78.915 51.714C79.0796 48.1305 80.4978 41.3495 80.5105 41.2799C80.5207 41.2313 80.5436 41.1863 80.577 41.1496C80.6104 41.1128 80.653 41.0857 80.7004 41.0709C80.7574 41.0709 86.1201 39.4754 90.2799 38.1712C97.1558 36.0185 99.2641 32.4729 99.2831 32.4729C99.3132 32.4198 99.3598 32.3781 99.4158 32.3541C99.4719 32.3301 99.5342 32.3251 99.5934 32.3399C99.6519 32.3554 99.7036 32.39 99.7403 32.4381C99.777 32.4863 99.7966 32.5453 99.796 32.6058C99.8727 35.0745 100.273 37.5224 100.986 39.887C101.775 41.5862 102.707 43.2151 103.772 44.7558C103.803 44.8028 103.818 44.858 103.816 44.9141C103.816 44.9711 103.696 50.5744 103.582 52.898C103.428 55.8886 102.133 58.7062 99.9629 60.77C97.7931 62.8337 94.9142 63.9865 91.9197 63.9907ZM81.0297 41.5331C80.8144 42.5842 79.6304 48.4977 79.4785 51.7204C79.3426 54.6692 80.3823 57.5515 82.3695 59.7344C84.3566 61.9174 87.1287 63.2227 90.0773 63.3638L91.4005 63.4208C94.3479 63.555 97.2283 62.5156 99.4107 60.5302C101.593 58.5447 102.9 55.7752 103.044 52.8284C103.145 50.6694 103.259 45.6739 103.278 44.9458C102.2 43.3954 101.263 41.751 100.48 40.0326C99.8144 37.871 99.4146 35.6365 99.2895 33.3783C98.3271 34.5559 95.7945 37.0062 90.4571 38.6777C86.6963 39.8553 81.9541 41.2546 81.0297 41.5331Z"
    fill="#556876" />
  <path
    d="M91.6221 52.1572C90.812 52.1606 90.0031 52.097 89.2035 51.9673C89.085 51.9468 88.9729 51.8989 88.8762 51.8275C88.7794 51.756 88.7007 51.663 88.6463 51.5558C87.8612 50.0932 90.3748 44.2113 90.8813 43.0463C90.8957 42.9994 90.9199 42.9559 90.9523 42.919C90.9847 42.882 91.0246 42.8523 91.0693 42.8319C91.1139 42.8114 91.1625 42.8007 91.2116 42.8003C91.2608 42.7999 91.3094 42.81 91.3544 42.8298C91.3994 42.8496 91.4397 42.8787 91.4726 42.9152C91.5056 42.9516 91.5304 42.9947 91.5455 43.0414C91.5607 43.0882 91.5657 43.1377 91.5603 43.1865C91.555 43.2354 91.5393 43.2825 91.5144 43.3249C90.3874 45.9018 88.7729 50.3275 89.2541 51.2265C89.2858 51.2772 89.3048 51.2835 89.3237 51.2835C90.3874 51.4483 91.4656 51.4993 92.5401 51.4355C92.5855 51.4311 92.6314 51.4359 92.6749 51.4496C92.7185 51.4632 92.7588 51.4855 92.7936 51.515C92.8285 51.5445 92.857 51.5807 92.8776 51.6214C92.8982 51.6621 92.9105 51.7065 92.9137 51.752C92.9207 51.8434 92.8914 51.9339 92.8321 52.0038C92.7729 52.0738 92.6884 52.1175 92.5971 52.1256C92.5971 52.1256 92.1855 52.1572 91.6221 52.1572Z"
    fill="#556876" />
  <path d="M50.8669 114.623H130.902L143.749 128.97H38.0205L50.8669 114.623Z" fill="white" />
  <path
    d="M143.749 129.261H38.014C37.9604 129.261 37.908 129.245 37.8631 129.216C37.8182 129.187 37.7827 129.145 37.7607 129.096C37.7396 129.048 37.7326 128.994 37.7404 128.941C37.7482 128.889 37.7706 128.839 37.8051 128.799L50.6515 114.452C50.6778 114.422 50.71 114.399 50.746 114.382C50.7819 114.366 50.8209 114.357 50.8604 114.357H130.902C130.942 114.358 130.98 114.367 131.016 114.383C131.052 114.399 131.085 114.423 131.111 114.452L143.958 128.799C143.992 128.839 144.014 128.889 144.022 128.941C144.03 128.994 144.023 129.048 144.002 129.096C143.98 129.145 143.944 129.187 143.899 129.216C143.855 129.245 143.802 129.261 143.749 129.261ZM38.6471 128.71H143.115L130.769 114.914H50.9934L38.6471 128.71Z"
    fill="#556876" />
  <path d="M143.749 128.97H38.1406V133.427H143.749V128.97Z" fill="white" />
  <path
    d="M143.749 133.693H38.1409C38.067 133.693 37.9961 133.664 37.9439 133.612C37.8917 133.559 37.8623 133.489 37.8623 133.415V128.983C37.864 128.91 37.894 128.841 37.9461 128.79C37.9982 128.739 38.0681 128.71 38.1409 128.71H143.749C143.822 128.71 143.892 128.739 143.944 128.79C143.996 128.841 144.026 128.91 144.027 128.983V133.415C144.027 133.489 143.998 133.559 143.946 133.612C143.894 133.664 143.823 133.693 143.749 133.693ZM38.4195 133.136H143.47V129.261H38.4195V133.136Z"
    fill="#556876" />
  <path
    d="M85.7595 45.4396C85.3757 45.4318 84.9975 45.3457 84.6481 45.1868C84.2986 45.0279 83.9853 44.7993 83.7271 44.5152C83.6985 44.4803 83.6769 44.4401 83.6638 44.3968C83.6507 44.3536 83.6462 44.3082 83.6506 44.2632C83.655 44.2182 83.6682 44.1745 83.6895 44.1347C83.7108 44.0948 83.7397 44.0595 83.7746 44.0309C83.8095 44.0022 83.8498 43.9806 83.893 43.9675C83.9363 43.9544 83.9817 43.9499 84.0266 43.9543C84.0716 43.9587 84.1153 43.9719 84.1551 43.9932C84.195 44.0145 84.2303 44.0434 84.259 44.0783C84.316 44.1416 85.4809 45.4839 87.3171 44.167C87.392 44.122 87.481 44.1069 87.5666 44.1245C87.6522 44.1422 87.728 44.1913 87.779 44.2623C87.83 44.3332 87.8524 44.4207 87.8419 44.5074C87.8314 44.5942 87.7887 44.6738 87.7223 44.7305C87.1594 45.1683 86.4723 45.4165 85.7595 45.4396Z"
    fill="#556876" />
  <path
    d="M97.0419 45.1293C96.2305 45.1576 95.435 44.8999 94.7943 44.4012C94.7534 44.3732 94.7189 44.3367 94.6933 44.2942C94.6676 44.2518 94.6513 44.2043 94.6455 44.1551C94.6396 44.1058 94.6444 44.0559 94.6594 44.0086C94.6745 43.9613 94.6994 43.9178 94.7326 43.881C94.7658 43.8441 94.8065 43.8148 94.852 43.7949C94.8975 43.7751 94.9466 43.7652 94.9962 43.7659C95.0458 43.7666 95.0947 43.7779 95.1396 43.799C95.1845 43.8201 95.2243 43.8506 95.2565 43.8884C95.3261 43.9454 96.8267 45.218 99.6062 43.6858C99.6878 43.6425 99.7832 43.6328 99.8719 43.6589C99.9606 43.6849 100.036 43.7445 100.081 43.8251C100.124 43.9058 100.133 44.0002 100.107 44.0879C100.081 44.1755 100.022 44.2494 99.9417 44.2936C99.0623 44.8151 98.064 45.1028 97.0419 45.1293Z"
    fill="#556876" />
  <path
    d="M92.6162 55.8865C89.9205 55.8537 87.2575 55.2922 84.7779 54.234C84.7364 54.2153 84.6989 54.1886 84.6676 54.1554C84.6364 54.1222 84.612 54.0832 84.5958 54.0406C84.5796 53.998 84.572 53.9526 84.5734 53.907C84.5748 53.8614 84.5851 53.8166 84.6038 53.775C84.6225 53.7334 84.6492 53.696 84.6824 53.6647C84.7156 53.6335 84.7546 53.6091 84.7973 53.5929C84.8399 53.5767 84.8853 53.5691 84.9309 53.5705C84.9764 53.5718 85.0213 53.5822 85.0628 53.6009C85.1325 53.6009 91.9324 56.6843 97.7257 54.234C97.7672 54.2164 97.8119 54.2071 97.857 54.2068C97.9021 54.2065 97.9469 54.2151 97.9887 54.2322C98.0305 54.2492 98.0685 54.2744 98.1005 54.3063C98.1325 54.3381 98.1579 54.3759 98.1752 54.4176C98.2111 54.5025 98.2119 54.5981 98.1775 54.6835C98.1431 54.7689 98.0763 54.8372 97.9916 54.8735C96.2859 55.5684 94.4578 55.9129 92.6162 55.8865Z"
    fill="#556876" />
  <path
    d="M102.265 49.2385C102.46 48.5649 102.905 47.9913 103.509 47.635C104.113 47.2788 104.83 47.1669 105.514 47.3222C106.197 47.4776 106.796 47.8884 107.187 48.4707C107.577 49.0529 107.731 49.7625 107.615 50.4541C107.484 51.0479 107.232 51.6082 106.874 52.1003C105.794 53.6791 104.263 54.8951 102.48 55.5889"
    fill="white" />
  <path
    d="M102.481 55.8673C102.416 55.8673 102.353 55.8447 102.303 55.8032C102.253 55.7617 102.219 55.7041 102.207 55.6402C102.195 55.5764 102.205 55.5103 102.237 55.4535C102.268 55.3967 102.319 55.3527 102.379 55.3291C104.109 54.6588 105.594 53.48 106.64 51.9481C106.984 51.4932 107.221 50.9677 107.337 50.4096C107.438 49.7897 107.299 49.1546 106.948 48.6336C106.597 48.1126 106.061 47.7449 105.448 47.6053C104.836 47.4657 104.193 47.5648 103.651 47.8823C103.11 48.1997 102.709 48.7118 102.531 49.3143C102.522 49.3496 102.505 49.3827 102.483 49.4117C102.461 49.4407 102.433 49.465 102.401 49.4833C102.369 49.5015 102.334 49.5133 102.298 49.518C102.262 49.5227 102.225 49.5201 102.189 49.5105C102.119 49.4899 102.06 49.4425 102.024 49.3785C101.989 49.3146 101.98 49.2392 101.999 49.1686C102.198 48.4117 102.684 47.7616 103.353 47.3553C104.021 46.949 104.822 46.8183 105.585 46.9907C106.349 47.1631 107.016 47.6251 107.445 48.2794C107.875 48.9337 108.033 49.7292 107.888 50.4982C107.751 51.133 107.483 51.7324 107.103 52.2584C105.99 53.8817 104.415 55.1326 102.582 55.8483C102.55 55.8607 102.515 55.8672 102.481 55.8673Z"
    fill="#556876" />
  <path
    d="M62.3899 88.1069C62.3899 88.1069 55.5963 119.384 62.8521 121.505C72.9 124.443 100.999 120.125 100.999 120.125C100.999 120.125 100.746 122.657 105.431 122.271C110.116 121.885 110.129 119.739 112.788 121.353C115.447 122.968 119.271 122.524 118.486 120.277C117.701 118.029 112.87 111.799 105.311 112.008C97.7508 112.217 74.9704 109.862 74.9704 109.862L77.579 91.1713"
    fill="white" />
  <path
    d="M73.3054 122.828C69.1393 122.828 65.3784 122.543 62.7699 121.784C55.3558 119.612 61.8392 89.3479 62.1368 88.0563C62.1548 87.9861 62.1989 87.9255 62.26 87.8866C62.3212 87.8478 62.3948 87.8338 62.466 87.8473C62.5381 87.8625 62.6013 87.9057 62.6417 87.9674C62.682 88.0292 62.6963 88.1044 62.6813 88.1766C61.5855 93.4244 60.7551 98.7242 60.193 104.056C59.1737 114.484 60.1234 120.429 62.9472 121.252C72.8179 124.139 100.695 119.91 100.98 119.865C101.021 119.858 101.064 119.861 101.104 119.875C101.143 119.888 101.179 119.911 101.208 119.941C101.239 119.97 101.264 120.005 101.279 120.045C101.295 120.084 101.301 120.127 101.297 120.169C101.292 120.372 101.331 120.574 101.411 120.76C101.491 120.947 101.609 121.114 101.759 121.252C102.392 121.885 103.658 122.164 105.437 122.012C106.817 121.908 108.167 121.554 109.42 120.967C110.572 120.46 111.319 120.131 112.965 121.132C114.782 122.246 117.106 122.297 117.967 121.594C118.142 121.452 118.262 121.255 118.31 121.035C118.357 120.815 118.328 120.585 118.227 120.384C117.448 118.244 112.744 112.071 105.317 112.293C97.8903 112.515 75.1731 110.172 74.9262 110.147C74.8893 110.143 74.8535 110.133 74.8208 110.115C74.7881 110.098 74.7594 110.074 74.7363 110.045C74.6928 109.985 74.6726 109.911 74.6793 109.836L77.2878 91.1396C77.2932 91.1039 77.3056 91.0696 77.3243 91.0386C77.343 91.0076 77.3676 90.9807 77.3967 90.9592C77.4258 90.9377 77.4588 90.9222 77.4939 90.9135C77.529 90.9048 77.5655 90.9032 77.6012 90.9086C77.637 90.914 77.6713 90.9264 77.7023 90.945C77.7332 90.9637 77.7602 90.9883 77.7817 91.0174C77.8031 91.0465 77.8187 91.0795 77.8274 91.1146C77.836 91.1497 77.8377 91.1862 77.8323 91.222L75.2681 109.634C77.921 109.906 98.2891 111.945 105.285 111.748C113.029 111.533 117.917 117.966 118.727 120.207C118.868 120.516 118.902 120.863 118.824 121.193C118.747 121.523 118.561 121.818 118.296 122.031C117.144 122.974 114.555 122.778 112.655 121.606C111.275 120.758 110.718 120.973 109.622 121.48C108.314 122.089 106.908 122.458 105.469 122.569C103.5 122.733 102.107 122.423 101.335 121.638C101.015 121.322 100.807 120.911 100.739 120.467C98.4031 120.809 84.4297 122.828 73.3054 122.828Z"
    fill="#556876" />
  <path
    d="M121.38 83.8269C121.38 83.8269 121.228 113.705 104.988 115.389C90.9006 116.852 90.584 102.675 90.4258 90.4179C90.2358 75.5644 93.028 65.7253 93.6421 64.2121C94.2563 62.6989 99.619 59.9764 100.841 58.2416C102.063 56.5068 102.373 52.1635 102.525 51.6C102.677 51.0365 104.469 50.3717 104.159 52.4167C104.159 52.4167 104.266 51.1504 104.925 51.6506C105.11 51.8117 105.236 52.0299 105.283 52.2708C105.33 52.5117 105.295 52.7613 105.184 52.9802C105.184 52.9802 105.748 51.448 106.254 52.0115C106.761 52.575 106.514 54.0502 106.514 54.0502C106.514 54.0502 107.223 52.2141 107.584 53.2335C107.945 54.2528 107.483 60.2803 105.748 62.4773C104.013 64.6743 99.4607 67.5108 99.4607 67.5108L105.286 96.3884L107.432 85.2071"
    fill="white" />
  <path
    d="M103.076 115.769C99.9733 115.769 97.4345 114.908 95.478 113.198C90.3496 108.627 90.223 98.5285 90.1217 90.4053C89.9381 75.7418 92.6542 65.9281 93.357 64.0983C93.7116 63.2119 95.3514 62.0849 97.0862 60.8883C98.5361 59.8816 100.043 58.8495 100.594 58.0708C101.512 56.7665 101.904 53.8161 102.094 52.3725C102.158 51.9293 102.196 51.6381 102.234 51.4988C102.356 51.2315 102.563 51.0123 102.823 50.8759C103.083 50.7395 103.382 50.6935 103.671 50.7453C103.814 50.7794 103.946 50.8479 104.057 50.9451C104.167 51.0422 104.252 51.1649 104.304 51.3025H104.367C104.481 51.2567 104.606 51.2449 104.726 51.2685C104.846 51.2921 104.957 51.3501 105.045 51.4355C105.209 51.554 105.34 51.7133 105.425 51.8977C105.537 51.7602 105.69 51.6625 105.862 51.6191C105.962 51.6016 106.066 51.6111 106.161 51.6467C106.257 51.6823 106.341 51.7427 106.406 51.8217C106.645 52.1327 106.778 52.5121 106.786 52.9043C106.842 52.829 106.915 52.7672 106.998 52.7234C107.081 52.6796 107.173 52.6549 107.267 52.6511C107.432 52.6511 107.653 52.7397 107.793 53.1449C108.166 54.215 107.729 60.3501 105.893 62.6421C104.31 64.6428 100.543 67.0741 99.7011 67.6375L105.209 94.9513L107.109 85.1502C107.123 85.0782 107.164 85.0146 107.225 84.9731C107.285 84.9316 107.36 84.9157 107.432 84.9286C107.504 84.9425 107.567 84.9841 107.609 85.0446C107.65 85.105 107.666 85.1794 107.653 85.2515L105.507 96.4392C105.494 96.5017 105.46 96.5579 105.41 96.5982C105.361 96.6386 105.299 96.6606 105.235 96.6607C105.171 96.6606 105.109 96.6386 105.059 96.5982C105.01 96.5579 104.976 96.5017 104.963 96.4392L99.1439 67.5552C99.1318 67.5011 99.1368 67.4446 99.1584 67.3935C99.18 67.3424 99.217 67.2993 99.2642 67.2703C99.3086 67.2703 103.791 64.4339 105.475 62.3002C107.16 60.1665 107.609 54.2783 107.273 53.3222C107.259 53.2915 107.246 53.2598 107.235 53.2273C107.01 53.5005 106.834 53.8113 106.716 54.1453C106.692 54.209 106.645 54.2612 106.584 54.2917C106.523 54.3222 106.453 54.3287 106.387 54.3099C106.321 54.292 106.264 54.2506 106.227 54.1934C106.189 54.1362 106.174 54.0672 106.184 53.9997C106.279 53.4742 106.305 52.5245 106.001 52.1889C105.855 52.1889 105.621 52.5245 105.456 52.9107C105.434 52.9732 105.409 53.0345 105.38 53.0943C105.349 53.1571 105.295 53.2056 105.229 53.2303C105.163 53.2549 105.091 53.2538 105.026 53.2273C104.96 53.2005 104.907 53.1491 104.879 53.084C104.851 53.019 104.849 52.9454 104.874 52.879C104.874 52.8347 104.912 52.7777 104.937 52.7144C104.994 52.567 105.002 52.4056 104.961 52.2532C104.92 52.1007 104.832 51.9652 104.709 51.866C104.627 51.8027 104.589 51.8027 104.589 51.8027C104.484 51.9401 104.42 52.105 104.405 52.2775V52.4548C104.393 52.5254 104.354 52.5885 104.296 52.631C104.238 52.6734 104.166 52.692 104.095 52.6828C104.06 52.6796 104.026 52.6695 103.995 52.6531C103.964 52.6367 103.936 52.6144 103.914 52.5873C103.892 52.5602 103.875 52.529 103.865 52.4954C103.854 52.4618 103.851 52.4265 103.855 52.3915C103.855 52.3472 103.855 52.2775 103.855 52.1952C103.886 51.8407 103.855 51.3785 103.525 51.3088C103.373 51.2905 103.219 51.3145 103.079 51.3782C102.939 51.4419 102.82 51.5427 102.734 51.6697C102.734 51.771 102.664 52.0939 102.614 52.4738C102.405 54.0503 101.98 56.9818 101.012 58.3937C100.379 59.2548 98.9287 60.2931 97.3711 61.3441C95.8136 62.3951 94.1295 63.5791 93.8382 64.3136C93.1164 66.118 90.4572 75.8367 90.6725 90.4053C90.7738 98.4082 90.9004 108.374 95.8453 112.774C98.0613 114.75 101.031 115.509 104.925 115.11C120.753 113.471 121.07 84.1182 121.07 83.8206C121.07 83.7468 121.099 83.6759 121.151 83.6237C121.203 83.5714 121.274 83.5421 121.348 83.5421C121.422 83.5437 121.492 83.5735 121.543 83.6254C121.595 83.6773 121.625 83.7473 121.627 83.8206C121.627 84.1245 121.279 113.965 104.982 115.655C104.349 115.726 103.713 115.764 103.076 115.769Z"
    fill="#556876" />
  <path
    d="M107.115 106.93C107.051 106.93 106.989 106.908 106.94 106.868C106.89 106.827 106.856 106.771 106.843 106.709C106.438 104.556 104.386 93.7862 104.386 93.324C104.386 93.2501 104.416 93.1793 104.468 93.127C104.52 93.0748 104.591 93.0454 104.665 93.0454C104.739 93.0454 104.81 93.0748 104.862 93.127C104.914 93.1793 104.943 93.2501 104.943 93.324C104.943 93.7482 106.419 101.498 107.387 106.62C107.395 106.656 107.395 106.693 107.388 106.73C107.38 106.766 107.366 106.8 107.345 106.831C107.325 106.862 107.298 106.888 107.267 106.908C107.237 106.928 107.202 106.942 107.166 106.949L107.115 106.93Z"
    fill="#556876" />
  <path d="M176.71 126.374L130.978 114.832V12.5475L176.71 0.999023V126.374Z" fill="white" />
  <path
    d="M176.71 126.652H176.641L130.915 115.104C130.855 115.09 130.802 115.056 130.764 115.007C130.726 114.959 130.706 114.899 130.706 114.838V12.5476C130.705 12.4859 130.725 12.4257 130.763 12.3772C130.801 12.3286 130.855 12.2949 130.915 12.2817L176.641 0.73319C176.682 0.721092 176.725 0.719385 176.767 0.728224C176.809 0.737063 176.848 0.756174 176.881 0.783842C176.913 0.809717 176.939 0.842535 176.957 0.879824C176.974 0.917114 176.983 0.957899 176.982 0.999108V126.361C176.982 126.402 176.973 126.443 176.956 126.48C176.938 126.517 176.913 126.55 176.881 126.576C176.834 126.62 176.774 126.646 176.71 126.652ZM131.257 114.623L176.432 126.019V1.36633L131.257 12.7629V114.623Z"
    fill="#556876" />
  <path
    d="M169.435 117.491C169.404 117.497 169.371 117.497 169.34 117.491L135.999 110.102C135.906 110.083 135.823 110.032 135.764 109.958C135.705 109.884 135.674 109.791 135.676 109.697V83.358C135.676 83.3006 135.687 83.2438 135.71 83.1912C135.733 83.1387 135.767 83.0915 135.81 83.0527C135.852 83.014 135.902 82.9845 135.956 82.9662C136.011 82.9479 136.068 82.9412 136.125 82.9465L169.467 85.783C169.57 85.791 169.667 85.8378 169.737 85.9141C169.808 85.9905 169.847 86.0906 169.847 86.1945V117.085C169.846 117.148 169.833 117.21 169.806 117.267C169.78 117.323 169.742 117.374 169.695 117.415C169.618 117.467 169.527 117.494 169.435 117.491ZM136.512 109.348L169.023 116.554V86.5617L136.512 83.8012V109.348ZM169.435 81.9081H169.403L136.062 79.6731C135.957 79.6651 135.859 79.6176 135.787 79.5401C135.715 79.4626 135.676 79.3608 135.676 79.2553V48.1174C135.676 48.0118 135.715 47.9101 135.787 47.8326C135.859 47.755 135.957 47.7075 136.062 47.6995L169.403 45.4645C169.461 45.4601 169.518 45.4677 169.572 45.4868C169.626 45.5059 169.676 45.5361 169.717 45.5754C169.759 45.6147 169.792 45.6624 169.814 45.7153C169.837 45.7681 169.848 45.825 169.847 45.8824V81.4903C169.847 81.5448 169.837 81.599 169.817 81.6497C169.797 81.7004 169.767 81.7465 169.728 81.7854C169.69 81.8243 169.644 81.8551 169.594 81.8762C169.544 81.8973 169.49 81.9081 169.435 81.9081ZM136.512 78.8691L169.023 81.0471V46.3193L136.512 48.4973V78.8691ZM136.094 44.4198C136.039 44.4207 135.985 44.4107 135.934 44.3903C135.884 44.37 135.838 44.3399 135.799 44.3016C135.76 44.2633 135.729 44.2176 135.708 44.1673C135.687 44.1169 135.676 44.0629 135.676 44.0083V17.6886C135.674 17.594 135.705 17.5017 135.764 17.4276C135.823 17.3536 135.906 17.3026 135.999 17.2834L169.34 9.89464C169.402 9.88247 169.465 9.88352 169.526 9.89771C169.587 9.9119 169.645 9.9389 169.695 9.97694C169.742 10.0177 169.78 10.0682 169.806 10.125C169.833 10.1818 169.846 10.2436 169.847 10.3062V41.1908C169.847 41.2947 169.808 41.3948 169.737 41.4712C169.667 41.5475 169.57 41.5944 169.467 41.6024L136.125 44.4198H136.094ZM136.505 18.0052V43.5524L169.017 40.7919V10.819L136.505 18.0052Z"
    fill="#FDD2A7" />
  <path d="M176.71 0.999023L180.927 3.01875V124.341L176.71 126.361V0.999023Z" fill="white" />
  <path
    d="M176.71 126.64C176.657 126.637 176.605 126.622 176.558 126.596C176.52 126.57 176.488 126.535 176.466 126.494C176.444 126.453 176.432 126.408 176.432 126.361V0.999277C176.432 0.952869 176.444 0.907271 176.466 0.866444C176.488 0.825616 176.52 0.790797 176.558 0.765016C176.6 0.741724 176.647 0.729492 176.694 0.729492C176.742 0.729492 176.789 0.741724 176.831 0.765016L181.047 2.78474C181.094 2.80649 181.134 2.84131 181.162 2.88506C181.191 2.92882 181.205 2.97969 181.206 3.03166V124.342C181.205 124.394 181.191 124.444 181.162 124.488C181.134 124.532 181.094 124.567 181.047 124.588L176.831 126.608C176.793 126.627 176.752 126.638 176.71 126.64ZM176.982 1.43615V125.924L180.655 124.164V3.19628L176.982 1.43615Z"
    fill="#556876" />
  <path d="M4.59668 126.374L50.3285 114.832V12.5475L4.59668 0.999023V126.374Z" fill="white" />
  <path
    d="M4.59698 126.652C4.53541 126.652 4.47556 126.632 4.42603 126.595C4.3943 126.569 4.36876 126.536 4.35124 126.499C4.33373 126.462 4.32467 126.421 4.32473 126.38V1.01815C4.32422 0.976943 4.33307 0.936155 4.35062 0.898866C4.36817 0.861576 4.39395 0.828758 4.42603 0.802884C4.45882 0.775215 4.49796 0.756107 4.53995 0.747268C4.58194 0.738429 4.62546 0.740133 4.66662 0.752231L50.3921 12.3007C50.4524 12.3139 50.5062 12.3477 50.5443 12.3962C50.5824 12.4447 50.6025 12.505 50.601 12.5666V114.832C50.6013 114.893 50.5808 114.953 50.5429 115.001C50.5049 115.049 50.4518 115.083 50.3921 115.098L4.66662 126.646L4.59698 126.652ZM4.87556 1.36638V126.032L50.0502 114.635V12.7629L4.87556 1.36638Z"
    fill="#556876" />
  <path
    d="M11.8716 117.491C11.7777 117.49 11.6865 117.459 11.612 117.402C11.5645 117.361 11.5264 117.311 11.5002 117.254C11.474 117.197 11.4603 117.135 11.46 117.073V86.2072C11.4597 86.1033 11.4987 86.0031 11.5691 85.9268C11.6396 85.8505 11.7363 85.8036 11.8399 85.7956L45.1811 82.9591C45.2383 82.9538 45.2959 82.9606 45.3503 82.9789C45.4047 82.9972 45.4547 83.0266 45.497 83.0654C45.5393 83.1041 45.5731 83.1513 45.5961 83.2039C45.6191 83.2565 45.6309 83.3133 45.6306 83.3707V109.709C45.6326 109.804 45.6014 109.896 45.5424 109.97C45.4834 110.044 45.4004 110.095 45.3078 110.115L11.9665 117.478C11.936 117.488 11.9037 117.493 11.8716 117.491ZM12.2894 86.5617V116.554L44.8012 109.348V83.8012L12.2894 86.5617ZM11.8716 81.9081C11.817 81.9081 11.7629 81.8973 11.7126 81.8762C11.6622 81.8551 11.6166 81.8242 11.5783 81.7854C11.54 81.7465 11.5098 81.7004 11.4895 81.6497C11.4692 81.599 11.4592 81.5448 11.46 81.4903V45.8824C11.4594 45.8258 11.4704 45.7697 11.4921 45.7174C11.5139 45.6652 11.5461 45.6179 11.5866 45.5785C11.6291 45.5392 11.6789 45.5089 11.7333 45.4893C11.7877 45.4697 11.8455 45.4613 11.9032 45.4645L45.2444 47.6995C45.3497 47.7075 45.448 47.755 45.5197 47.8326C45.5913 47.9101 45.631 48.0118 45.6306 48.1174V79.2426C45.631 79.3482 45.5913 79.4499 45.5197 79.5274C45.448 79.6049 45.3497 79.6525 45.2444 79.6605L11.9032 81.8955L11.8716 81.9081ZM12.2894 46.3256V81.0471L44.8012 78.8691V48.4783L12.2894 46.3256ZM45.2128 44.4262L11.8716 41.5897C11.768 41.5817 11.6713 41.5348 11.6008 41.4585C11.5303 41.3822 11.4914 41.282 11.4917 41.1781V10.3062C11.4919 10.2436 11.5057 10.1818 11.5319 10.125C11.5581 10.0682 11.5962 10.0177 11.6436 9.97694C11.6935 9.9389 11.7509 9.9119 11.8121 9.89771C11.8732 9.88352 11.9366 9.88247 11.9982 9.89464L45.3394 17.2834C45.4321 17.3026 45.5151 17.3536 45.5741 17.4276C45.6331 17.5017 45.6643 17.594 45.6623 17.6886V44.0273C45.6623 44.0819 45.6515 44.1359 45.6304 44.1862C45.6093 44.2366 45.5784 44.2823 45.5395 44.3206C45.5006 44.3588 45.4545 44.389 45.4039 44.4093C45.3532 44.4296 45.299 44.4397 45.2444 44.4388L45.2128 44.4262ZM12.2894 40.7983L44.8012 43.5588V18.0242L12.2894 10.819V40.7983Z"
    fill="#FDD2A7" />
  <path d="M4.59709 0.999023L0.380371 3.01875V124.341L4.59709 126.361V0.999023Z" fill="white" />
  <path
    d="M4.59687 126.64C4.55493 126.638 4.51385 126.627 4.47657 126.608L0.259848 124.588C0.212647 124.567 0.17266 124.532 0.144612 124.488C0.116563 124.444 0.101624 124.393 0.101562 124.341V3.01892C0.101624 2.96694 0.116563 2.91607 0.144612 2.87232C0.17266 2.82856 0.212647 2.79375 0.259848 2.77199L4.47657 0.733277C4.51816 0.709985 4.56503 0.697754 4.6127 0.697754C4.66036 0.697754 4.70723 0.709985 4.74882 0.733277C4.78741 0.759059 4.81912 0.793876 4.84119 0.834703C4.86326 0.87553 4.87502 0.921131 4.87545 0.967539V126.33C4.87502 126.376 4.86326 126.422 4.84119 126.462C4.81912 126.503 4.78741 126.538 4.74882 126.564C4.70522 126.601 4.65302 126.627 4.59687 126.64ZM0.652395 124.196L4.32462 125.956V1.43606L0.652395 3.1962V124.196Z"
    fill="#556876" />
</svg>
