<svg width="582" height="473" viewBox="0 0 582 473" fill="none" xmlns="http://www.w3.org/2000/svg">
  <path
    d="M1.24561 401.391H580.617V421.819C580.617 423.812 579.826 425.723 578.417 427.132C577.008 428.541 575.097 429.333 573.105 429.333H8.7786C6.78628 429.333 4.87555 428.541 3.46676 427.132C2.05798 425.723 1.26653 423.812 1.26653 421.819V401.391H1.24561Z"
    fill="#E6E7E8" />
  <path
    d="M573.105 430.38H8.77819C6.51735 430.363 4.35443 429.454 2.75965 427.851C1.16488 426.248 0.267173 424.081 0.261719 421.819V401.391C0.267076 401.115 0.37902 400.852 0.57408 400.657C0.769141 400.462 1.03216 400.35 1.30797 400.345H580.617C580.894 400.345 581.16 400.455 581.356 400.651C581.553 400.848 581.663 401.114 581.663 401.391V421.819C581.663 424.09 580.761 426.267 579.156 427.872C577.551 429.478 575.374 430.38 573.105 430.38ZM2.35422 402.438V421.819C2.35976 423.536 3.04563 425.181 4.26153 426.394C5.47743 427.606 7.12419 428.287 8.84097 428.287H573.105C574.818 428.281 576.459 427.598 577.67 426.386C578.882 425.174 579.565 423.533 579.57 421.819V402.438H2.35422Z"
    fill="#231F20" />
  <path
    d="M500.683 37.8965H93.7338C84.4307 37.8965 76.8892 45.44 76.8892 54.7453V300.78C76.8892 310.086 84.4307 317.629 93.7338 317.629H500.683C509.986 317.629 517.528 310.086 517.528 300.78V54.7453C517.528 45.44 509.986 37.8965 500.683 37.8965Z"
    fill="#231F20" />
  <path
    d="M500.683 318.675H93.7336C88.9921 318.664 84.4479 316.775 81.0951 313.421C77.7423 310.068 75.8538 305.523 75.8428 300.78V54.724C75.8538 49.9832 77.743 45.4401 81.0964 42.0897C84.4498 38.7394 88.994 36.8551 93.7336 36.8496H500.683C505.423 36.8551 509.967 38.7394 513.32 42.0897C516.674 45.4401 518.563 49.9832 518.574 54.724V300.78C518.563 305.523 516.674 310.068 513.322 313.421C509.969 316.775 505.425 318.664 500.683 318.675ZM93.7336 38.9426C89.5473 38.9426 85.5321 40.6046 82.5699 43.5636C79.6077 46.5226 77.9408 50.5366 77.9353 54.724V300.78C77.9408 304.969 79.607 308.985 82.5686 311.948C85.5302 314.91 89.5453 316.577 93.7336 316.582H500.683C504.871 316.577 508.886 314.91 511.848 311.948C514.81 308.985 516.476 304.969 516.481 300.78V54.724C516.476 50.5366 514.809 46.5226 511.847 43.5636C508.885 40.6046 504.869 38.9426 500.683 38.9426H93.7336Z"
    fill="#231F20" />
  <path
    d="M513.908 317.628H80.5302C79.3876 317.632 78.2579 317.87 77.2107 318.327C76.1634 318.784 75.2209 319.451 74.441 320.287L3.46345 397.268C2.4181 398.465 1.73506 399.935 1.49418 401.506C1.25331 403.077 1.46455 404.685 2.10321 406.14C2.74188 407.596 3.78157 408.839 5.10074 409.725C6.41991 410.612 7.96406 411.104 9.55263 411.145H572.435C574.026 411.103 575.572 410.609 576.892 409.72C578.212 408.832 579.251 407.585 579.888 406.126C580.525 404.668 580.733 403.058 580.488 401.485C580.242 399.912 579.554 398.442 578.503 397.247L520.081 320.266C519.294 319.418 518.338 318.745 517.275 318.29C516.211 317.836 515.064 317.61 513.908 317.628Z"
    fill="white" />
  <path
    d="M572.33 412.212H9.55246C7.72775 412.223 5.93996 411.698 4.41024 410.703C2.88052 409.708 1.67599 408.286 0.945655 406.614C0.215318 404.941 -0.00878949 403.091 0.301072 401.292C0.610933 399.494 1.44117 397.825 2.68906 396.493L73.6667 319.512C74.5437 318.568 75.6058 317.815 76.7867 317.3C77.9675 316.785 79.2418 316.519 80.5301 316.519H513.908C515.193 316.52 516.464 316.786 517.641 317.301C518.819 317.816 519.877 318.569 520.75 319.512L579.236 396.577C580.459 397.896 581.267 399.547 581.557 401.323C581.848 403.099 581.608 404.921 580.868 406.561C580.161 408.241 578.974 409.674 577.454 410.679C575.935 411.685 574.152 412.218 572.33 412.212ZM80.5928 318.675C79.5941 318.671 78.6055 318.875 77.6903 319.276C76.7751 319.676 75.9534 320.262 75.2779 320.998L4.2375 397.98C3.2783 399.011 2.64156 400.3 2.40569 401.689C2.16982 403.077 2.34512 404.505 2.91001 405.795C3.4749 407.085 4.40471 408.182 5.58494 408.95C6.76517 409.719 8.14429 410.125 9.55246 410.119H572.435C573.839 410.116 575.212 409.704 576.386 408.934C577.56 408.164 578.485 407.069 579.049 405.782C579.612 404.496 579.789 403.073 579.559 401.688C579.328 400.303 578.7 399.014 577.75 397.98L519.202 320.935C518.527 320.22 517.713 319.65 516.81 319.261C515.906 318.872 514.933 318.673 513.95 318.675H80.5928Z"
    fill="#231F20" />
  <path d="M536.067 368.322H56.2568L88.2512 330.333H506.165L536.067 368.322Z" fill="white" />
  <path
    d="M536.067 369.285H56.2567C56.0578 369.286 55.8629 369.229 55.6957 369.121C55.5285 369.013 55.3963 368.859 55.3151 368.678C55.2345 368.497 55.2055 368.298 55.2314 368.102C55.2572 367.906 55.3369 367.721 55.4615 367.568L87.4559 329.58C87.5522 329.462 87.6735 329.367 87.811 329.302C87.9485 329.237 88.0989 329.203 88.251 329.203H506.165C506.323 329.202 506.478 329.238 506.62 329.307C506.761 329.376 506.885 329.476 506.981 329.601L536.883 367.589C537.004 367.744 537.08 367.93 537.102 368.126C537.125 368.322 537.092 368.52 537.009 368.698C536.922 368.875 536.788 369.023 536.622 369.127C536.455 369.23 536.263 369.285 536.067 369.285ZM58.5166 367.191H533.849L505.6 331.296H88.7323L58.5166 367.191Z"
    fill="#D1D3D4" />
  <path d="M367.789 400.303H226.629L244.98 373.596H349.459L367.789 400.303Z" fill="white" />
  <path
    d="M367.788 401.349H226.628C226.439 401.348 226.254 401.295 226.092 401.196C225.931 401.098 225.799 400.957 225.711 400.79C225.623 400.622 225.582 400.434 225.592 400.245C225.603 400.056 225.664 399.874 225.77 399.717L244.101 373.01C244.199 372.868 244.33 372.751 244.483 372.671C244.636 372.591 244.807 372.549 244.979 372.549H349.458C349.628 372.549 349.795 372.591 349.945 372.671C350.095 372.752 350.222 372.868 350.316 373.01L368.646 399.717C368.752 399.874 368.814 400.056 368.824 400.245C368.834 400.434 368.794 400.622 368.705 400.79C368.617 400.957 368.486 401.098 368.324 401.196C368.163 401.295 367.977 401.348 367.788 401.349ZM228.616 399.256H365.8L348.893 374.642H245.523L228.616 399.256Z"
    fill="#D1D3D4" />
  <path d="M498.884 52.1709H91.9761V301.262H498.884V52.1709Z" fill="white" />
  <path d="M389.718 85.1777H106.917V249.396H389.718V85.1777Z" fill="white" />
  <path
    d="M389.697 250.442H106.979C106.702 250.442 106.436 250.332 106.24 250.136C106.043 249.94 105.933 249.673 105.933 249.396V85.1774C105.933 84.8998 106.043 84.6336 106.24 84.4374C106.436 84.2411 106.702 84.1309 106.979 84.1309H389.697C389.974 84.1309 390.241 84.2411 390.437 84.4374C390.633 84.6336 390.743 84.8998 390.743 85.1774V249.396C390.743 249.673 390.633 249.94 390.437 250.136C390.241 250.332 389.974 250.442 389.697 250.442ZM107.963 248.349H388.651V86.2239H107.963V248.349Z"
    fill="#231F20" />
  <path d="M449.919 87.1445H402.963V125.656H449.919V87.1445Z" fill="#E6E7E8" />
  <path
    d="M488.798 91.4561H460.528C459.222 91.4561 458.164 92.5103 458.164 93.8107C458.164 95.1111 459.222 96.1654 460.528 96.1654H488.798C490.104 96.1654 491.162 95.1111 491.162 93.8107C491.162 92.5103 490.104 91.4561 488.798 91.4561Z"
    fill="#E6E7E8" />
  <path
    d="M488.798 101.691H460.528C459.222 101.691 458.164 102.746 458.164 104.046C458.164 105.346 459.222 106.401 460.528 106.401H488.798C490.104 106.401 491.162 105.346 491.162 104.046C491.162 102.746 490.104 101.691 488.798 101.691Z"
    fill="#E6E7E8" />
  <path
    d="M488.798 111.905H460.528C459.222 111.905 458.164 112.959 458.164 114.26C458.164 115.56 459.222 116.615 460.528 116.615H488.798C490.104 116.615 491.162 115.56 491.162 114.26C491.162 112.959 490.104 111.905 488.798 111.905Z"
    fill="#E6E7E8" />
  <path d="M449.919 137.817H402.963V176.329H449.919V137.817Z" fill="#E6E7E8" />
  <path
    d="M488.798 142.149H460.528C459.222 142.149 458.164 143.204 458.164 144.504C458.164 145.804 459.222 146.859 460.528 146.859H488.798C490.104 146.859 491.162 145.804 491.162 144.504C491.162 143.204 490.104 142.149 488.798 142.149Z"
    fill="#E6E7E8" />
  <path
    d="M488.798 152.363H460.528C459.222 152.363 458.164 153.417 458.164 154.718C458.164 156.018 459.222 157.073 460.528 157.073H488.798C490.104 157.073 491.162 156.018 491.162 154.718C491.162 153.417 490.104 152.363 488.798 152.363Z"
    fill="#E6E7E8" />
  <path
    d="M488.798 162.577H460.528C459.222 162.577 458.164 163.631 458.164 164.932C458.164 166.232 459.222 167.286 460.528 167.286H488.798C490.104 167.286 491.162 166.232 491.162 164.932C491.162 163.631 490.104 162.577 488.798 162.577Z"
    fill="#E6E7E8" />
  <path d="M449.919 188.51H402.963V227.022H449.919V188.51Z" fill="#E6E7E8" />
  <path
    d="M488.798 192.822H460.528C459.222 192.822 458.164 193.876 458.164 195.176C458.164 196.477 459.222 197.531 460.528 197.531H488.798C490.104 197.531 491.162 196.477 491.162 195.176C491.162 193.876 490.104 192.822 488.798 192.822Z"
    fill="#E6E7E8" />
  <path
    d="M488.798 203.036H460.528C459.222 203.036 458.164 204.09 458.164 205.39C458.164 206.691 459.222 207.745 460.528 207.745H488.798C490.104 207.745 491.162 206.691 491.162 205.39C491.162 204.09 490.104 203.036 488.798 203.036Z"
    fill="#E6E7E8" />
  <path
    d="M488.798 213.25H460.528C459.222 213.25 458.164 214.304 458.164 215.604C458.164 216.905 459.222 217.959 460.528 217.959H488.798C490.104 217.959 491.162 216.905 491.162 215.604C491.162 214.304 490.104 213.25 488.798 213.25Z"
    fill="#E6E7E8" />
  <path d="M449.919 239.182H402.963V277.693H449.919V239.182Z" fill="#E6E7E8" />
  <path
    d="M488.798 243.515H460.528C459.222 243.515 458.164 244.569 458.164 245.869C458.164 247.17 459.222 248.224 460.528 248.224H488.798C490.104 248.224 491.162 247.17 491.162 245.869C491.162 244.569 490.104 243.515 488.798 243.515Z"
    fill="#E6E7E8" />
  <path
    d="M488.798 253.729H460.528C459.222 253.729 458.164 254.783 458.164 256.084C458.164 257.384 459.222 258.438 460.528 258.438H488.798C490.104 258.438 491.162 257.384 491.162 256.084C491.162 254.783 490.104 253.729 488.798 253.729Z"
    fill="#E6E7E8" />
  <path
    d="M488.798 263.943H460.528C459.222 263.943 458.164 264.997 458.164 266.298C458.164 267.598 459.222 268.652 460.528 268.652H488.798C490.104 268.652 491.162 267.598 491.162 266.298C491.162 264.997 490.104 263.943 488.798 263.943Z"
    fill="#E6E7E8" />
  <path
    d="M121.25 287.406C128.3 287.406 134.014 281.689 134.014 274.638C134.014 267.587 128.3 261.871 121.25 261.871C114.201 261.871 108.486 267.587 108.486 274.638C108.486 281.689 114.201 287.406 121.25 287.406Z"
    fill="#E6E7E8" />
  <path d="M261.259 261.871H143.431V274.638H261.259V261.871Z" fill="#E6E7E8" />
  <path d="M226.796 278.384H143.431V287.426H226.796V278.384Z" fill="#E6E7E8" />
  <path
    d="M378.962 265.847H331.944C326.004 265.847 321.188 270.664 321.188 276.605C321.188 282.547 326.004 287.363 331.944 287.363H378.962C384.902 287.363 389.718 282.547 389.718 276.605C389.718 270.664 384.902 265.847 378.962 265.847Z"
    fill="#E6E7E8" />
  <path
    d="M393.652 93.0054C393.652 93.0054 406.207 80.824 407.19 78.0821C408.174 75.3403 411.919 60.5007 415.456 56.1682C418.992 51.8356 420.75 55.2891 418.385 66.1937C418.385 66.1937 429.496 47.3565 433.242 47.21C437.762 47.0007 445.504 57.8007 444.311 62.6565C443.642 65.4193 441.277 81.4937 429.203 91.1426C422.54 96.8733 416.882 103.679 412.463 111.277L393.652 93.0054Z"
    fill="white" />
  <path
    d="M412.589 112.157C412.34 112.152 412.101 112.055 411.919 111.885L393.087 93.6125C392.902 93.43 392.797 93.1817 392.794 92.9218C392.793 92.7927 392.818 92.6648 392.869 92.546C392.919 92.4272 392.993 92.32 393.087 92.2311C397.921 87.5846 405.809 79.5265 406.395 77.7055C406.542 77.2451 406.772 76.4706 407.065 75.466C408.571 70.1916 411.731 59.2451 414.807 55.4776C416.356 53.6148 417.737 52.9451 418.887 53.5102C420.394 54.2218 420.854 56.8381 420.31 61.2962C424.14 55.2055 430.25 46.3102 433.305 46.1637C436.36 46.0172 439.478 49.4916 440.712 50.9776C443.6 54.473 446.153 59.4962 445.358 62.8032C445.358 63.0334 445.232 63.3683 445.127 63.8079C444.144 68.5381 441.152 82.8962 429.894 91.8125C423.353 97.4715 417.795 104.176 413.447 111.654C413.374 111.784 413.271 111.895 413.148 111.979C413.024 112.062 412.883 112.116 412.735 112.136L412.589 112.157ZM395.117 93.0055L412.484 109.75C416.817 102.443 422.324 95.9022 428.785 90.3892C439.52 82.0172 442.407 68.0567 443.432 63.5148C443.432 63.0544 443.6 62.6776 443.663 62.4265C444.186 60.3334 442.365 55.8753 439.478 52.2753C437.385 49.68 435.083 48.0893 433.619 48.0893C431.526 48.0893 424.767 57.7799 419.557 66.6125C419.437 66.8038 419.256 66.9492 419.044 67.0252C418.831 67.1011 418.599 67.1032 418.385 67.0311C418.174 66.9433 418 66.7845 417.893 66.582C417.786 66.3795 417.753 66.146 417.799 65.9218C419.578 57.6962 418.636 55.4567 418.302 55.2474C417.967 55.0381 417.569 55.4358 416.523 56.7125C413.698 60.166 410.497 71.3637 409.116 76.0102C408.823 77.0567 408.592 77.852 408.446 78.3125C407.358 80.8869 398.276 89.8451 395.117 93.0055Z"
    fill="#231F20" />
  <path
    d="M310.747 90.9123C316.773 80.9705 318.301 68.9146 317.736 57.424C317.336 44.7413 313.998 32.3246 307.985 21.1519C305.542 16.3563 301.947 12.2425 297.522 9.17978C292.103 5.74722 288.399 8.07048 283.084 7.08676C278.606 6.31234 273.919 3.11001 268.939 2.29373C257.46 0.363416 245.677 2.85376 235.961 9.2635C218.949 20.7751 211.081 42.7519 193.504 53.4472C176.283 63.9123 154.228 60.7309 134.914 66.5077C126.762 68.952 119.164 72.9616 112.545 78.3123C107.988 81.8229 104.253 86.2876 101.601 91.3937C97.0817 100.875 98.2744 112.177 101.601 122.161C104.929 132.145 110.599 142.338 119.388 148.659C126.732 153.954 135.751 156.403 144.686 158.015C156.797 160.555 169.29 160.683 181.451 158.391C190.451 156.577 198.831 152.475 205.787 146.482C208.779 143.824 210.432 140.203 213.215 137.545C217.045 133.903 223.008 131.684 227.486 128.901C234.517 124.526 241.548 119.859 249.541 117.808C269.818 112.45 298.506 111.005 310.747 90.9123Z"
    fill="white" />
  <path
    d="M165.319 160.882C158.295 160.812 151.292 160.112 144.394 158.789C136.651 157.387 126.712 155.043 118.698 149.266C110.683 143.489 104.49 134.238 100.702 122.308C97.94 113.936 95.722 101.503 100.828 90.9123C103.508 85.6521 107.342 81.0658 112.043 77.496C118.751 72.059 126.457 67.9851 134.726 65.503C142.54 63.4347 150.524 62.0689 158.581 61.4216C171.136 60.0402 182.833 58.7426 193.086 52.5472C202.021 47.1472 208.571 38.524 214.89 30.1728C220.916 22.2403 227.152 14.0356 235.48 8.38444C245.403 1.82901 257.444 -0.714397 269.169 1.26816C271.823 1.81565 274.401 2.67999 276.849 3.84259C278.915 4.81963 281.084 5.56373 283.315 6.06119C284.999 6.29905 286.705 6.3412 288.399 6.18677C291.781 5.73212 295.215 6.47238 298.109 8.27979C302.663 11.4279 306.365 15.6564 308.885 20.5868C314.991 31.8801 318.373 44.4445 318.762 57.2775C319.41 71.0705 317.025 82.5402 311.626 91.4146C301.582 107.824 280.887 112.052 262.662 115.757C258.079 116.698 253.769 117.577 249.73 118.624C242.532 120.466 236.003 124.547 229.705 128.503L227.947 129.591C226.357 130.575 224.557 131.517 222.82 132.417C219.567 133.899 216.532 135.822 213.802 138.131C212.557 139.418 211.436 140.82 210.454 142.317C209.278 144.082 207.91 145.711 206.373 147.173C199.295 153.281 190.762 157.462 181.598 159.312C176.244 160.421 170.786 160.947 165.319 160.882ZM261.322 2.52398C252.496 2.48214 243.857 5.06867 236.505 9.95421C228.407 15.417 222.276 23.4961 216.355 31.303C209.91 39.8007 203.256 48.5705 194.007 54.1589C183.398 60.5844 170.864 61.9658 158.727 63.3054C150.784 63.938 142.913 65.2759 135.207 67.303C127.205 69.7303 119.75 73.6897 113.257 78.9612C108.792 82.3644 105.14 86.7183 102.564 91.7077C97.7517 101.796 99.8861 113.622 102.564 121.763C106.289 133.254 112.316 142.254 119.974 147.78C127.633 153.305 137.342 155.608 144.896 156.968C158.957 159.501 170.864 159.626 181.305 157.366C190.146 155.591 198.377 151.561 205.202 145.666C206.628 144.29 207.904 142.768 209.01 141.124C210.071 139.557 211.269 138.086 212.588 136.729C215.449 134.299 218.632 132.278 222.046 130.722C223.825 129.801 225.52 128.922 227.026 127.98L228.784 126.87C235.229 122.852 241.883 118.708 249.353 116.761C253.434 115.715 257.723 114.836 262.369 113.894C280.218 110.252 300.452 106.129 310.036 90.3263C315.225 81.7867 317.527 70.6519 316.878 57.2775C316.531 44.7357 313.234 32.4525 307.253 21.424C304.897 16.7627 301.416 12.7628 297.125 9.78677C294.569 8.20925 291.533 7.60032 288.567 8.07049C286.726 8.24809 284.871 8.19888 283.043 7.92398C280.667 7.4044 278.357 6.61802 276.158 5.57979C273.842 4.48122 271.405 3.65928 268.897 3.13096C266.394 2.71522 263.86 2.51216 261.322 2.52398Z"
    fill="#231F20" />
  <path
    d="M395.409 86.433L360.276 123.228C360.276 123.228 277.644 83.2307 258.372 78.1865C251.215 76.3027 229.077 88.1283 203.527 104.475V163.289L199.74 248.412H289.843C291.412 240.333 295.618 224.803 299.468 217.017C304.323 207.242 325.101 192.821 318.573 155.398C318.573 155.398 367.537 186.375 381.348 172.142C395.158 157.91 424.935 103.617 424.935 103.617L395.409 86.433Z"
    fill="#F0AD9D" />
  <path
    d="M256.593 106.023C256.593 106.023 269.881 147.277 272.141 164.754C274.4 182.23 274.756 211.093 274.756 211.093C274.756 211.093 295.681 146.712 293.17 106.944L256.593 106.023Z"
    fill="#231F20" />
  <path
    d="M274.777 212.015H274.63C274.414 211.981 274.216 211.872 274.071 211.708C273.925 211.544 273.842 211.334 273.835 211.115C273.835 210.822 273.479 182.085 271.24 164.859C269.001 147.634 255.84 106.715 255.714 106.255C255.671 106.113 255.662 105.964 255.687 105.818C255.713 105.673 255.772 105.536 255.86 105.417C255.953 105.308 256.069 105.219 256.198 105.158C256.328 105.096 256.47 105.063 256.614 105.062L293.191 105.982C293.419 105.992 293.637 106.084 293.802 106.242C293.968 106.4 294.07 106.613 294.09 106.841C296.685 146.336 275.844 210.696 275.635 211.345C275.581 211.534 275.469 211.7 275.315 211.82C275.161 211.941 274.972 212.009 274.777 212.015ZM257.869 106.966C260.087 113.999 271.031 148.973 273.061 164.629C274.714 177.187 275.342 196.024 275.572 205.38C280.447 189.159 294.132 140.287 292.312 107.845L257.869 106.966Z"
    fill="#231F20" />
  <path
    d="M288.629 83.8165L293.17 106.84C293.17 106.84 293.274 120.235 278.522 118.958C274.142 118.544 269.908 117.159 266.129 114.903C262.351 112.648 259.121 109.579 256.677 105.919L250.65 65.5235C251.177 58.1651 250.584 50.7692 248.893 43.5886C265.946 40.0724 276.953 24.584 276.953 24.584C276.953 24.584 284.528 32.3072 287.604 34.6096C290.023 36.3546 292.216 38.3935 294.132 40.6793C297.355 44.677 298.317 50.2654 299.154 55.2049C300.199 61.0704 300.724 67.0168 300.724 72.9747C300.535 84.3398 288.629 83.8165 288.629 83.8165Z"
    fill="white" />
  <path
    d="M280.364 120.215C279.715 120.215 279.046 120.215 278.271 120.215C273.734 119.804 269.347 118.375 265.438 116.034C261.529 113.693 258.198 110.501 255.693 106.694C255.63 106.584 255.587 106.463 255.568 106.338L249.625 65.7963C249.563 65.1 249.563 64.3995 249.625 63.7032C249.999 57.0438 249.393 50.3655 247.826 43.8823C247.802 43.7599 247.802 43.6339 247.827 43.5118C247.853 43.3896 247.902 43.2737 247.972 43.1707C248.117 42.9621 248.333 42.8134 248.579 42.7521C265.047 39.3614 275.949 24.2916 276.053 24.1451C276.136 24.0308 276.242 23.9359 276.365 23.8672C276.488 23.7985 276.624 23.7576 276.765 23.7474C276.903 23.736 277.041 23.7544 277.171 23.8014C277.301 23.8483 277.42 23.9227 277.518 24.0195C277.518 24.0195 285.072 31.7218 287.981 33.9614C290.484 35.7192 292.761 37.7789 294.76 40.0939C298.171 44.28 299.176 50.2869 299.971 55.08C301.033 60.9995 301.558 67.003 301.54 73.0172C301.594 74.5687 301.324 76.1145 300.748 77.5559C300.171 78.9974 299.301 80.3029 298.192 81.3893C295.807 83.4398 292.797 84.6204 289.655 84.7381L293.965 106.757C293.96 108.621 293.588 110.466 292.87 112.186C292.152 113.906 291.102 115.468 289.78 116.782C287.194 119.085 283.825 120.313 280.364 120.215ZM257.514 105.773C259.874 109.267 262.97 112.202 266.585 114.372C270.2 116.541 274.246 117.893 278.439 118.331C280.223 118.617 282.048 118.522 283.793 118.053C285.539 117.584 287.165 116.752 288.567 115.61C290.757 113.362 292.026 110.375 292.124 107.238L287.604 84.2149C287.575 84.0718 287.578 83.924 287.615 83.7826C287.651 83.6412 287.719 83.5099 287.813 83.3986C287.909 83.2888 288.029 83.2018 288.163 83.1439C288.297 83.086 288.442 83.0586 288.587 83.0637C291.629 83.1328 294.597 82.1163 296.958 80.1962C297.874 79.2804 298.591 78.1845 299.063 76.9777C299.534 75.7709 299.751 74.4794 299.699 73.1846C299.713 67.2895 299.195 61.4051 298.15 55.6032C297.334 50.7893 296.434 45.3474 293.337 41.4963C291.463 39.2334 289.312 37.2153 286.934 35.4893C283.451 32.5493 280.12 29.4337 276.953 26.1544C274.338 29.5032 264.398 41.0358 249.918 44.4265C251.38 50.7766 251.929 57.3027 251.55 63.8079C251.491 64.3644 251.491 64.9257 251.55 65.4823C251.529 65.6079 257.054 102.633 257.514 105.668V105.773Z"
    fill="#231F20" />
  <path
    d="M290.659 95.2238C290.659 95.2238 281.326 97.3169 274.107 92.2936C272.085 91.0246 270.363 89.3298 269.062 87.3272C267.761 85.3247 266.912 83.0625 266.574 80.6982C266.574 80.6982 278.02 85.5959 288.629 83.8168L290.659 95.2238Z"
    fill="#231F20" />
  <path
    d="M285.783 96.6258C281.434 96.7095 277.165 95.4446 273.563 93.0048C271.418 91.6643 269.597 89.8656 268.23 87.7378C266.862 85.61 265.982 83.2059 265.653 80.6979C265.648 80.5436 265.682 80.3906 265.752 80.2528C265.821 80.1151 265.924 79.997 266.051 79.9095C266.178 79.822 266.326 79.7678 266.479 79.7519C266.632 79.7361 266.787 79.7591 266.93 79.8188C267.034 79.8188 278.271 84.57 288.462 82.8746C288.58 82.8505 288.702 82.8504 288.82 82.8744C288.939 82.8984 289.051 82.946 289.151 83.0144C289.25 83.0827 289.335 83.1704 289.4 83.2723C289.465 83.3741 289.509 83.488 289.529 83.6072L291.621 95.0141C291.66 95.2462 291.611 95.4844 291.483 95.682C291.355 95.8795 291.158 96.0221 290.931 96.0816C289.239 96.446 287.513 96.6284 285.783 96.6258ZM267.746 82.142C268.83 86.0037 271.275 89.3421 274.63 91.5397C279.086 94.3273 284.414 95.3708 289.592 94.4699L287.876 84.863C281.046 85.4837 274.165 84.5536 267.746 82.142Z"
    fill="#231F20" />
  <path
    d="M289.493 49.6536C290.191 49.4923 290.511 48.2933 290.206 46.9755C289.902 45.6578 289.089 44.7203 288.391 44.8817C287.693 45.043 287.374 46.2421 287.678 47.5598C287.982 48.8776 288.795 49.815 289.493 49.6536Z"
    fill="#231F20" />
  <path
    d="M268.162 51.8245C268.86 51.6632 269.18 50.4642 268.875 49.1464C268.571 47.8287 267.758 46.8912 267.06 47.0526C266.362 47.2139 266.043 48.413 266.347 49.7307C266.651 51.0484 267.464 51.9859 268.162 51.8245Z"
    fill="#231F20" />
  <path
    d="M256.049 52.2748C253.726 48.5073 248.286 47.9841 244.498 49.5329C243.239 49.9846 242.143 50.8011 241.349 51.8784C240.555 52.9556 240.1 54.2448 240.041 55.5818C240.03 57.2273 240.329 58.8602 240.92 60.3957C241.928 63.2603 243.445 65.9193 245.398 68.2445C246.318 69.4633 247.526 70.4343 248.913 71.0701C249.792 71.3905 250.746 71.436 251.651 71.2004C252.555 70.9649 253.367 70.4595 253.977 69.7515"
    fill="white" />
  <path
    d="M250.483 72.3265C249.824 72.321 249.171 72.1933 248.558 71.9498C247.025 71.2643 245.687 70.2067 244.666 68.873C242.637 66.4549 241.064 63.6894 240.021 60.7102C239.369 59.0666 239.055 57.3082 239.1 55.5405C239.169 54.0211 239.685 52.5558 240.582 51.3275C241.478 50.0991 242.717 49.1622 244.143 48.6335C248.328 46.9172 254.312 47.6288 256.865 51.773C256.971 51.988 256.992 52.2347 256.926 52.4648C256.86 52.695 256.71 52.8921 256.506 53.0176C256.302 53.1432 256.058 53.1882 255.823 53.1438C255.588 53.0994 255.377 52.9689 255.233 52.7777C253.141 49.5335 248.286 49.0312 244.771 50.4126C243.681 50.7966 242.732 51.4985 242.046 52.4275C241.36 53.3565 240.968 54.47 240.92 55.6242C240.894 57.1497 241.171 58.6652 241.736 60.0823C242.715 62.8364 244.174 65.3947 246.047 67.6381C246.895 68.7364 248.002 69.6066 249.269 70.1707C249.978 70.4133 250.742 70.4394 251.465 70.2455C252.188 70.0517 252.837 69.6467 253.329 69.0823C253.509 68.9021 253.754 68.8009 254.009 68.8009C254.264 68.8009 254.508 68.9021 254.689 69.0823C254.778 69.1699 254.848 69.2742 254.896 69.3892C254.944 69.5042 254.969 69.6275 254.969 69.7521C254.969 69.8767 254.944 70 254.896 70.115C254.848 70.23 254.778 70.3343 254.689 70.4219C254.153 71.0068 253.504 71.477 252.781 71.8044C252.058 72.1317 251.276 72.3093 250.483 72.3265Z"
    fill="#231F20" />
  <path
    d="M283.879 62.9492L272.663 64.0376C272.663 64.0376 275.007 81.3469 280.029 80.7818C285.051 80.2167 285.113 67.8888 283.879 62.9492Z"
    fill="white" />
  <path
    d="M279.841 81.8289C274.4 81.8289 272.161 67.1778 271.743 64.1638C271.719 63.9148 271.793 63.6663 271.949 63.471C272.105 63.2756 272.332 63.1488 272.58 63.1173L283.795 62.0289C284.015 62.0071 284.235 62.0649 284.415 62.1916C284.596 62.3184 284.725 62.5058 284.779 62.7196C285.741 66.6126 286.055 75.9057 283.23 79.8615C282.89 80.3942 282.435 80.8449 281.9 81.1814C281.364 81.5179 280.761 81.7319 280.134 81.808L279.841 81.8289ZM273.73 64.8754C274.735 71.4894 277.141 79.9661 279.841 79.9661C280.206 79.9174 280.556 79.7866 280.864 79.5837C281.172 79.3807 281.43 79.1108 281.619 78.794C283.712 75.7801 283.879 68.3289 283.042 63.9545L273.73 64.8754Z"
    fill="#231F20" />
  <path
    d="M313.676 195.794C313.498 195.795 313.324 195.744 313.174 195.648C312.959 195.514 312.805 195.3 312.746 195.053C312.687 194.806 312.728 194.546 312.86 194.329C312.986 194.141 325.248 173.399 313.509 130.471C313.456 130.344 313.431 130.208 313.434 130.071C313.438 129.934 313.471 129.8 313.531 129.677C313.591 129.553 313.677 129.444 313.783 129.357C313.888 129.27 314.011 129.206 314.143 129.17C314.276 129.134 314.414 129.126 314.549 129.148C314.684 129.17 314.813 129.22 314.928 129.296C315.042 129.371 315.139 129.47 315.212 129.586C315.285 129.702 315.332 129.833 315.35 129.969C327.34 173.922 315.016 194.475 314.492 195.334C314.405 195.472 314.285 195.587 314.143 195.667C314 195.748 313.84 195.791 313.676 195.794Z"
    fill="#231F20" />
  <path
    d="M266.01 58.5755C263.779 58.5755 261.598 57.9138 259.744 56.6742C257.889 55.4346 256.443 53.6727 255.59 51.6113C254.736 49.5499 254.512 47.2816 254.948 45.0932C255.383 42.9048 256.457 40.8947 258.034 39.3169C259.612 37.7392 261.621 36.6648 263.809 36.2295C265.997 35.7942 268.265 36.0176 270.326 36.8714C272.387 37.7253 274.148 39.1713 275.387 41.0265C276.627 42.8817 277.288 45.0628 277.288 47.2941C277.283 50.2844 276.093 53.1506 273.979 55.2651C271.865 57.3796 268.999 58.57 266.01 58.5755ZM266.01 37.8755C264.141 37.8714 262.314 38.422 260.759 39.4576C259.204 40.4933 257.991 41.9673 257.274 43.693C256.557 45.4187 256.368 47.3184 256.732 49.1514C257.095 50.9845 257.994 52.6683 259.316 53.9897C260.637 55.3111 262.32 56.2106 264.153 56.5742C265.985 56.9377 267.884 56.749 269.61 56.032C271.335 55.3149 272.809 54.1018 273.844 52.5463C274.879 50.9908 275.43 49.1628 275.426 47.2941C275.42 44.7978 274.426 42.4054 272.662 40.6402C270.897 38.8751 268.505 37.881 266.01 37.8755Z"
    fill="#231F20" />
  <path
    d="M289.027 55.6663C286.796 55.6663 284.616 55.0047 282.761 53.765C280.906 52.5254 279.461 50.7635 278.607 48.7021C277.753 46.6407 277.53 44.3724 277.965 42.184C278.4 39.9957 279.475 37.9855 281.052 36.4078C282.629 34.83 284.639 33.7556 286.827 33.3203C289.015 32.885 291.282 33.1084 293.343 33.9623C295.404 34.8161 297.166 36.2621 298.405 38.1173C299.644 39.9725 300.306 42.1537 300.306 44.3849C300.3 47.3752 299.11 50.2415 296.996 52.356C294.882 54.4704 292.017 55.6608 289.027 55.6663ZM289.027 34.9663C287.165 34.9663 285.344 35.5187 283.796 36.5536C282.247 37.5886 281.04 39.0595 280.328 40.7806C279.615 42.5016 279.428 44.3954 279.792 46.2224C280.155 48.0494 281.052 49.7277 282.369 51.0449C283.686 52.3621 285.364 53.2591 287.19 53.6225C289.017 53.986 290.91 53.7994 292.631 53.0866C294.351 52.3737 295.822 51.1665 296.856 49.6176C297.891 48.0687 298.443 46.2477 298.443 44.3849C298.438 41.8886 297.444 39.4962 295.679 37.7311C293.915 35.9659 291.523 34.9718 289.027 34.9663Z"
    fill="#231F20" />
  <path
    d="M276.263 44.3848C276.263 44.3848 285.825 54.0964 284.423 56.3569C283.021 58.6173 277.832 58.3034 277.832 58.3034"
    fill="white" />
  <path
    d="M278.565 59.245H277.728C277.481 59.2288 277.252 59.1167 277.087 58.9328C276.923 58.7488 276.837 58.5077 276.849 58.2613C276.87 58.0171 276.984 57.7901 277.166 57.6268C277.349 57.4634 277.587 57.376 277.832 57.3822C279.046 57.3822 282.687 57.3822 283.587 55.8962C283.963 54.8497 280.218 49.7846 275.572 45.0543C275.4 44.8795 275.305 44.6434 275.307 44.3981C275.309 44.1528 275.408 43.9183 275.583 43.7462C275.758 43.5741 275.994 43.4785 276.239 43.4805C276.484 43.4825 276.719 43.5818 276.891 43.7567C280.657 47.5869 286.725 54.3683 285.261 56.8799C283.9 58.9729 280.301 59.245 278.565 59.245Z"
    fill="#231F20" />
  <path
    d="M419.661 81.6616H419.369C419.128 81.5804 418.929 81.4072 418.815 81.1797C418.701 80.9523 418.682 80.6891 418.762 80.4476C421.503 71.5523 417.904 66.9267 417.757 66.7383C417.678 66.6413 417.618 66.5294 417.582 66.4091C417.546 66.2888 417.535 66.1625 417.549 66.0377C417.562 65.9129 417.601 65.7921 417.662 65.6824C417.723 65.5726 417.805 65.4762 417.904 65.3988C418.099 65.2407 418.349 65.1653 418.599 65.1888C418.849 65.2122 419.08 65.3327 419.243 65.5244C419.41 65.7546 423.658 71.0709 420.582 81.0127C420.516 81.2039 420.392 81.3694 420.227 81.4859C420.061 81.6024 419.864 81.6638 419.661 81.6616Z"
    fill="#231F20" />
  <path
    d="M185.615 248.412L163.665 190.373L209.511 158.517L206.959 102.361C163.874 130.052 117.358 162.661 112.922 172.164C108.485 181.666 129.18 224.908 144.037 248.412H185.615Z"
    fill="#F0AD9D" />
  <path
    d="M170.382 186.752C170.231 186.749 170.083 186.712 169.948 186.643C169.814 186.574 169.698 186.475 169.608 186.354C169.472 186.164 169.412 185.93 169.439 185.698C169.466 185.466 169.578 185.252 169.754 185.098L227.654 144.535C227.756 144.464 227.872 144.414 227.994 144.389C228.117 144.363 228.243 144.361 228.365 144.385C228.488 144.408 228.605 144.456 228.709 144.525C228.813 144.594 228.903 144.683 228.972 144.786C229.047 144.887 229.1 145.002 229.129 145.124C229.158 145.245 229.162 145.372 229.141 145.495C229.119 145.619 229.073 145.737 229.004 145.841C228.936 145.946 228.846 146.036 228.742 146.105L170.842 186.668C170.697 186.73 170.54 186.759 170.382 186.752Z"
    fill="#231F20" />
  <path
    d="M420.039 189.535L424.412 179.866H453.058C453.058 179.866 457.871 190.331 457.871 189.975C457.871 189.619 420.039 189.535 420.039 189.535Z"
    fill="#C4D7D1" />
  <path
    d="M457.787 190.958C457.698 190.983 457.604 190.983 457.515 190.958C455.276 190.749 434.079 190.603 420.017 190.561C419.859 190.561 419.702 190.522 419.563 190.446C419.424 190.37 419.306 190.261 419.22 190.127C419.134 189.993 419.084 189.84 419.073 189.682C419.063 189.524 419.092 189.365 419.159 189.221L423.533 179.551C423.613 179.386 423.738 179.245 423.893 179.146C424.048 179.046 424.227 178.991 424.412 178.986H453.058C453.24 178.99 453.417 179.045 453.569 179.145C453.72 179.245 453.841 179.386 453.916 179.551C455.569 183.11 458.31 188.97 458.645 189.514C458.72 189.581 458.777 189.666 458.81 189.762C458.843 189.857 458.851 189.959 458.833 190.058C458.838 190.279 458.765 190.494 458.627 190.666C458.489 190.838 458.296 190.956 458.08 191L457.787 190.958ZM421.503 188.572C443.537 188.572 452.556 188.677 456.259 188.949C455.527 187.484 454.376 185.014 452.43 180.828H425.039L421.503 188.572Z"
    fill="#231F20" />
  <path
    d="M432.907 182.482H428.596C427.799 182.482 427.152 183.129 427.152 183.926V185.349C427.152 186.147 427.799 186.794 428.596 186.794H432.907C433.704 186.794 434.351 186.147 434.351 185.349V183.926C434.351 183.129 433.704 182.482 432.907 182.482Z"
    fill="#231F20" />
  <path d="M438.828 226.854H432.446V245.713H438.828V226.854Z" fill="white" />
  <path
    d="M438.829 246.654H432.551C432.3 246.649 432.06 246.545 431.884 246.365C431.708 246.185 431.61 245.943 431.61 245.692V226.854C431.607 226.729 431.629 226.604 431.675 226.488C431.721 226.371 431.79 226.265 431.878 226.175C431.966 226.085 432.07 226.014 432.186 225.965C432.302 225.917 432.426 225.892 432.551 225.892H438.829C438.955 225.892 439.08 225.916 439.197 225.965C439.314 226.013 439.42 226.084 439.509 226.174C439.599 226.263 439.67 226.369 439.718 226.486C439.766 226.603 439.791 226.728 439.791 226.854V245.692C439.786 245.945 439.683 246.187 439.503 246.366C439.324 246.546 439.082 246.649 438.829 246.654ZM433.409 244.75H437.866V227.796H433.409V244.75Z"
    fill="#231F20" />
  <path d="M445.86 245.691H425.416V257.14H445.86V245.691Z" fill="white" />
  <path
    d="M445.964 258.103H425.52C425.271 258.103 425.031 258.004 424.854 257.827C424.678 257.651 424.579 257.411 424.579 257.161V245.796C424.579 245.547 424.678 245.307 424.854 245.13C425.031 244.954 425.271 244.854 425.52 244.854H445.964C446.216 244.854 446.457 244.953 446.637 245.129C446.817 245.305 446.921 245.545 446.927 245.796V257.266C446.896 257.499 446.781 257.713 446.604 257.867C446.426 258.021 446.199 258.105 445.964 258.103ZM426.483 256.199H445.001V246.654H426.483V256.199Z"
    fill="#231F20" />
  <path
    d="M435.648 472.826C434.816 472.826 434.018 472.495 433.429 471.906C432.84 471.318 432.51 470.519 432.51 469.686V261.305C432.51 260.472 432.84 259.674 433.429 259.085C434.018 258.496 434.816 258.166 435.648 258.166C436.481 258.166 437.279 258.496 437.868 259.085C438.456 259.674 438.787 260.472 438.787 261.305V469.749C438.771 470.571 438.433 471.353 437.846 471.929C437.259 472.504 436.47 472.826 435.648 472.826Z"
    fill="#231F20" />
  <path
    d="M375.112 452.168C374.836 452.167 374.561 452.125 374.296 452.043C373.898 451.938 373.525 451.756 373.198 451.506C372.871 451.257 372.596 450.945 372.39 450.589C372.184 450.233 372.05 449.84 371.997 449.432C371.943 449.024 371.971 448.609 372.078 448.212L422.298 260.489C422.515 259.684 423.042 258.998 423.764 258.582C424.486 258.166 425.344 258.054 426.148 258.27C426.953 258.487 427.639 259.014 428.055 259.737C428.471 260.459 428.583 261.317 428.367 262.122L378.147 449.824C377.968 450.493 377.574 451.085 377.026 451.509C376.477 451.932 375.805 452.164 375.112 452.168Z"
    fill="#231F20" />
  <path
    d="M496.017 452.168C495.327 452.163 494.657 451.931 494.113 451.507C493.568 451.083 493.178 450.492 493.003 449.824L442.679 262.122C442.462 261.317 442.574 260.459 442.99 259.737C443.406 259.014 444.092 258.487 444.897 258.27C445.701 258.054 446.559 258.166 447.281 258.582C448.003 258.998 448.53 259.684 448.747 260.489L498.967 448.212C499.074 448.609 499.102 449.024 499.049 449.432C498.995 449.84 498.861 450.233 498.655 450.589C498.449 450.945 498.174 451.257 497.847 451.506C497.52 451.756 497.147 451.938 496.749 452.043C496.512 452.117 496.265 452.159 496.017 452.168Z"
    fill="#231F20" />
  <path
    d="M465.173 188.845H414.158C412.009 188.845 410.266 190.588 410.266 192.738V218.482C410.266 220.632 412.009 222.375 414.158 222.375H465.173C467.323 222.375 469.065 220.632 469.065 218.482V192.738C469.065 190.588 467.323 188.845 465.173 188.845Z"
    fill="#C4D7D1" />
  <path
    d="M465.152 223.338H414.158C412.874 223.338 411.643 222.829 410.733 221.923C409.823 221.017 409.309 219.788 409.304 218.503V192.738C409.309 191.454 409.823 190.224 410.733 189.318C411.643 188.412 412.874 187.903 414.158 187.903H465.152C466.436 187.903 467.668 188.412 468.578 189.318C469.488 190.224 470.001 191.454 470.007 192.738V218.587C469.98 219.857 469.456 221.065 468.549 221.953C467.641 222.841 466.422 223.338 465.152 223.338ZM414.158 189.85C413.379 189.85 412.632 190.158 412.079 190.707C411.527 191.256 411.213 192.001 411.208 192.78V218.587C411.213 219.366 411.527 220.111 412.079 220.66C412.632 221.209 413.379 221.517 414.158 221.517H465.152C465.931 221.517 466.679 221.209 467.231 220.66C467.784 220.111 468.097 219.366 468.103 218.587V192.738C468.097 191.959 467.784 191.214 467.231 190.665C466.679 190.116 465.931 189.808 465.152 189.808L414.158 189.85Z"
    fill="#231F20" />
  <path d="M448.099 192.675H415.079V218.168H448.099V192.675Z" fill="white" />
  <path
    d="M448.057 219.131H415.079C414.828 219.126 414.588 219.022 414.412 218.842C414.236 218.662 414.138 218.42 414.138 218.168V192.675C414.138 192.423 414.236 192.182 414.412 192.002C414.588 191.822 414.828 191.718 415.079 191.712H448.057C448.312 191.712 448.557 191.814 448.738 191.994C448.918 192.175 449.02 192.42 449.02 192.675V218.168C449.02 218.424 448.918 218.668 448.738 218.849C448.557 219.03 448.312 219.131 448.057 219.131ZM416 217.226H447.115V193.638H416.042L416 217.226Z"
    fill="#231F20" />
  <path
    d="M458.645 218.629C461.037 218.629 462.977 216.689 462.977 214.296C462.977 211.904 461.037 209.964 458.645 209.964C456.253 209.964 454.313 211.904 454.313 214.296C454.313 216.689 456.253 218.629 458.645 218.629Z"
    fill="white" />
  <path
    d="M458.645 219.57C457.602 219.57 456.583 219.261 455.716 218.681C454.848 218.102 454.173 217.278 453.773 216.314C453.374 215.351 453.27 214.29 453.473 213.267C453.677 212.244 454.179 211.304 454.917 210.566C455.654 209.829 456.594 209.326 457.616 209.123C458.639 208.919 459.7 209.024 460.663 209.423C461.627 209.822 462.45 210.498 463.03 211.366C463.609 212.233 463.918 213.253 463.918 214.296C463.918 215.695 463.363 217.036 462.374 218.025C461.385 219.015 460.044 219.57 458.645 219.57ZM458.645 210.926C457.979 210.926 457.328 211.124 456.774 211.494C456.219 211.864 455.788 212.391 455.533 213.006C455.278 213.622 455.211 214.3 455.341 214.953C455.471 215.607 455.792 216.207 456.263 216.679C456.734 217.15 457.334 217.471 457.988 217.601C458.641 217.731 459.319 217.664 459.934 217.409C460.55 217.154 461.076 216.722 461.446 216.168C461.817 215.614 462.014 214.962 462.014 214.296C462.014 213.402 461.659 212.545 461.027 211.913C460.396 211.281 459.539 210.926 458.645 210.926Z"
    fill="#231F20" />
  <path
    d="M458.645 206.824C460.332 206.824 461.7 205.456 461.7 203.768C461.7 202.081 460.332 200.712 458.645 200.712C456.958 200.712 455.59 202.081 455.59 203.768C455.59 205.456 456.958 206.824 458.645 206.824Z"
    fill="#231F20" />
  <path
    d="M458.645 198.305C460.332 198.305 461.7 196.937 461.7 195.25C461.7 193.562 460.332 192.194 458.645 192.194C456.958 192.194 455.59 193.562 455.59 195.25C455.59 196.937 456.958 198.305 458.645 198.305Z"
    fill="#231F20" />
  <path d="M445.985 222.396H425.312V227.629H445.985V222.396Z" fill="white" />
  <path
    d="M445.964 228.571H425.311C425.058 228.565 424.816 228.462 424.636 228.283C424.457 228.103 424.354 227.861 424.349 227.608V222.396C424.349 222.141 424.45 221.896 424.631 221.715C424.811 221.535 425.056 221.433 425.311 221.433H445.964C446.091 221.43 446.218 221.453 446.336 221.501C446.454 221.548 446.561 221.619 446.651 221.709C446.741 221.799 446.812 221.906 446.859 222.024C446.907 222.142 446.93 222.269 446.927 222.396V227.608C446.927 227.863 446.825 228.108 446.645 228.289C446.464 228.469 446.219 228.571 445.964 228.571ZM426.274 226.645H445.106V223.338H426.274V226.645Z"
    fill="#231F20" />
  <path d="M452.346 257.161H418.929V265.47H452.346V257.161Z" fill="white" />
  <path
    d="M452.346 266.412H418.866C418.615 266.412 418.373 266.314 418.193 266.138C418.013 265.962 417.909 265.722 417.904 265.47V257.098C417.904 256.843 418.005 256.598 418.186 256.417C418.366 256.237 418.611 256.135 418.866 256.135H452.346C452.474 256.133 452.6 256.156 452.718 256.203C452.836 256.25 452.943 256.321 453.033 256.411C453.123 256.501 453.194 256.608 453.242 256.726C453.289 256.845 453.312 256.971 453.309 257.098V265.47C453.309 265.596 453.284 265.72 453.235 265.836C453.187 265.951 453.115 266.056 453.026 266.144C452.936 266.232 452.83 266.301 452.713 266.347C452.597 266.393 452.472 266.415 452.346 266.412ZM419.892 264.508H451.405V258.103H419.892V264.508Z"
    fill="#231F20" />
  <path
    d="M40.0191 303.814C40.2218 300.863 39.5987 297.913 38.2195 295.296C37.0896 293.412 35.3319 291.905 34.3903 289.917C32.779 286.442 33.9299 282.382 33.5323 278.593C33.1892 275.434 31.7881 272.483 29.5566 270.221C27.4641 268.128 25.0159 266.831 23.1117 264.738C20.0148 261.305 19.115 256.47 17.3364 252.179C14.8382 246.109 10.4885 240.982 4.90694 237.528C8.31772 244.352 0.575466 253.017 4.09087 259.777C5.19989 261.87 7.31332 263.503 8.12939 265.763C10.0963 271.268 3.54681 277.212 5.63931 282.654C6.68556 285.375 9.59414 286.84 10.9543 289.519C12.7747 292.993 11.3309 297.221 11.4983 301.135C11.6866 306.556 14.9928 311.391 18.9058 315.138C21.3331 317.482 24.0533 319.491 26.6899 321.605C29.8286 324.138 31.1678 326.775 33.9299 322.735C37.7541 317.154 39.87 310.579 40.0191 303.814Z"
    fill="#231F20" />
  <path
    d="M43.5975 306.912C42.5931 302.726 41.8817 298.184 43.5975 294.229C45.5226 289.771 50.3354 286.61 50.9004 281.671C51.277 278.51 49.6658 275.391 50.2935 272.168C50.9213 268.945 53.4951 266.915 55.5876 264.612C60.4389 259.279 63.3252 252.449 63.7692 245.252C67.0203 249.11 69.6469 253.453 71.5533 258.124C72.4866 260.471 72.8699 263 72.6741 265.518C72.4782 268.036 71.7083 270.476 70.4234 272.65C69.6091 273.619 68.9459 274.705 68.4564 275.873C67.4939 278.971 70.1304 281.838 71.4906 284.768C72.2932 286.436 72.6277 288.291 72.4582 290.134C72.2886 291.977 71.6215 293.74 70.528 295.233C67.7659 298.666 62.43 300.026 61.0699 304.233C60.7401 305.802 60.5788 307.402 60.5886 309.005C60.3184 311.81 59.2096 314.469 57.4068 316.634C55.604 318.8 53.1909 320.371 50.4819 321.145C47.1966 321.94 47.2594 320.643 46.6735 317.88C45.9202 314.175 44.4973 310.68 43.5975 306.912Z"
    fill="#231F20" />
  <path
    d="M33.1764 276.793C30.8537 268.819 29.933 260.447 27.4639 252.326C25.3619 246.069 22.8166 239.97 19.8472 234.075L29.8284 238.261C33.0299 239.621 36.4825 241.212 37.9891 244.331C40.6257 249.793 35.8966 256.763 38.6587 262.142C39.8629 263.89 41.1842 265.554 42.6136 267.124C45.5431 271.31 45.1036 276.919 43.4924 281.775C42.8019 283.868 39.7678 294.521 37.0684 291.549C35.9803 290.377 35.8966 285.94 35.4363 284.328C34.7667 281.754 33.9088 279.284 33.1764 276.793Z"
    fill="#231F20" />
  <path
    d="M38.4496 383.726C36.3571 370.582 30.247 324.222 30.0796 323.74L32.1721 323.468C32.1721 323.929 38.4496 370.268 40.4374 383.412L38.4496 383.726Z"
    fill="#231F20" />
  <path
    d="M41.1701 396.117H39.0776C39.0776 380.483 45.7318 320.769 49.5401 316.583L51.0886 317.985C48.18 321.145 41.2957 378.829 41.1701 396.117Z"
    fill="#231F20" />
  <path
    d="M44.5393 393.145H42.4468C43.9325 359.489 36.7762 288.787 36.7134 288.075L38.8059 287.866C38.8896 288.494 46.0459 359.342 44.5393 393.145Z"
    fill="#231F20" />
  <path
    d="M21.5425 346.01H58.6844L56.0897 388.121C55.6502 395.426 50.2307 401.098 43.7021 401.098H36.5248C29.9962 401.098 24.5975 395.426 24.1372 388.121L21.5425 346.01Z"
    fill="white" />
  <path
    d="M43.7022 402.249H36.5249C29.4523 402.249 23.5514 396.117 23.0702 388.268L20.4755 346.073C20.4639 345.926 20.4829 345.778 20.5313 345.638C20.5798 345.499 20.6565 345.371 20.7568 345.263C20.8571 345.155 20.9787 345.069 21.1139 345.01C21.2492 344.951 21.3951 344.921 21.5426 344.921H58.6845C58.8348 344.92 58.9836 344.951 59.1208 345.013C59.2581 345.074 59.3804 345.164 59.4796 345.277C59.5823 345.381 59.6616 345.506 59.7121 345.643C59.7626 345.78 59.7833 345.927 59.7726 346.073L57.1779 388.268C56.7594 396.117 50.7748 402.249 43.7022 402.249ZM22.7772 347.098L25.2254 388.121C25.6439 394.819 30.6032 400.073 36.5249 400.073H43.7022C49.6449 400.073 54.6041 394.819 55.0226 388.121L57.5336 347.077L22.7772 347.098Z"
    fill="#231F20" />
</svg>
