<svg width="410" height="489" viewBox="0 0 410 489" fill="none" xmlns="http://www.w3.org/2000/svg">
  <rect width="410" height="489" rx="20" fill="white" />
  <path
    d="M114.487 358.925C119.785 363.36 126.423 365.867 133.041 367.887C135.812 368.74 138.614 369.511 141.425 370.212H263.844C265.925 370.212 270.949 363.35 271.964 361.422C274.383 356.221 275.337 350.459 274.725 344.755C273.842 337.823 269.589 331.56 269.193 324.598C268.94 320.132 270.29 315.696 270.208 311.22C269.975 301.527 262.159 293.589 253.887 289.458C248.904 286.961 244.448 278.588 243.189 273.441C241.606 266.966 239.271 263.505 235.069 258.034C234.124 256.875 233.272 255.643 232.521 254.349C230.552 250.746 230.238 246.503 229.091 242.565C228.689 240.88 227.892 239.314 226.766 237.998C225.067 236.382 222.808 235.487 220.463 235.501C216.505 235.379 215.155 236.759 211.947 234.486C209.572 232.811 208.638 230.121 205.482 229.411C202.171 228.657 198.736 228.629 195.413 229.329C192.09 230.028 188.958 231.44 186.233 233.465C183.507 235.49 181.253 238.082 179.624 241.061C177.995 244.041 177.031 247.338 176.798 250.726C176.656 252.756 176.798 254.867 175.925 256.714C175.052 258.562 173.53 259.759 172.474 261.444C169.206 266.519 171.581 273.411 169.703 279.156C167.957 284.525 162.832 288.007 157.746 290.453C152.661 292.899 147.15 294.817 143.1 298.756C136.827 304.846 134.889 315.077 127.276 319.391C117.735 324.8 107.24 327.703 106.063 340.827C105.383 347.75 109.189 354.479 114.487 358.925Z"
    fill="white" />
  <path
    d="M263.844 370.719H141.303C138.37 369.978 135.538 369.197 132.889 368.385C126.728 366.497 119.694 363.949 114.162 359.321C108.153 354.246 104.905 347.364 105.494 340.827C106.509 329.612 114.122 325.694 122.181 321.542C123.754 320.74 125.378 319.898 126.961 319.005C131.224 316.589 133.63 312.316 136.177 307.84C138.045 304.541 139.963 301.131 142.694 298.481C145.942 295.315 150.144 293.406 154.204 291.59C155.3 291.102 156.386 290.575 157.462 290.087C163.938 286.971 167.764 283.378 169.165 279.095C169.824 276.603 170.101 274.027 169.987 271.452C169.987 267.93 170.038 264.286 172.017 261.302C172.476 260.618 172.981 259.967 173.529 259.353C174.285 258.537 174.927 257.622 175.438 256.633C175.976 255.186 176.234 253.65 176.199 252.106C176.199 251.68 176.199 251.243 176.26 250.817C176.586 246.842 177.872 243.006 180.008 239.638C182.143 236.27 185.065 233.471 188.521 231.481C193.708 228.6 199.773 227.726 205.563 229.025C207.364 229.528 208.944 230.622 210.049 232.131C210.69 232.888 211.416 233.569 212.211 234.161C212.921 234.711 213.747 235.094 214.625 235.28C215.504 235.467 216.414 235.452 217.286 235.237C218.353 235.097 219.428 235.039 220.504 235.064C222.982 235.038 225.371 235.99 227.152 237.713C228.337 239.085 229.175 240.721 229.598 242.484C229.984 243.814 230.278 245.184 230.562 246.544C231.005 249.197 231.821 251.774 232.988 254.197C233.727 255.464 234.561 256.672 235.485 257.81C239.545 263.028 242.062 266.671 243.707 273.411C244.904 278.283 249.309 286.677 254.151 289.093C262.007 293.021 270.492 300.917 270.746 311.301C270.747 313.463 270.577 315.621 270.239 317.756C269.862 320.037 269.702 322.348 269.762 324.658C269.965 328.292 271.284 331.824 272.553 335.245C273.825 338.31 274.741 341.511 275.283 344.786C275.91 350.587 274.938 356.448 272.472 361.736C271.487 363.462 266.29 370.719 263.844 370.719ZM141.486 369.704H263.844C265.499 369.704 270.391 363.381 271.487 361.188C273.864 356.079 274.801 350.418 274.197 344.816C273.658 341.623 272.759 338.5 271.518 335.509C270.218 332.017 268.879 328.404 268.665 324.628C268.607 322.25 268.77 319.871 269.153 317.523C269.486 315.438 269.652 313.331 269.65 311.22C269.406 301.293 261.205 293.701 253.613 289.905C248.436 287.306 243.91 278.74 242.641 273.553C241.098 267.23 238.895 263.911 234.602 258.328C233.644 257.145 232.779 255.889 232.014 254.573C230.793 252.067 229.945 249.396 229.497 246.645C229.212 245.336 228.918 243.976 228.542 242.687C228.157 241.084 227.403 239.593 226.34 238.333C224.741 236.803 222.604 235.964 220.392 235.998C219.374 235.975 218.356 236.033 217.347 236.171C216.361 236.393 215.337 236.395 214.35 236.178C213.362 235.96 212.434 235.528 211.633 234.912C210.769 234.27 209.986 233.527 209.298 232.699C208.325 231.353 206.933 230.368 205.34 229.898C199.794 228.663 193.988 229.5 189.018 232.253C185.709 234.161 182.911 236.843 180.866 240.069C178.821 243.295 177.588 246.969 177.275 250.776C177.275 251.193 177.224 251.619 177.214 252.045C177.24 253.718 176.95 255.381 176.361 256.948C175.825 258.019 175.142 259.009 174.331 259.891C173.819 260.479 173.342 261.096 172.9 261.738C171.114 264.52 171.093 267.828 171.063 271.391C171.176 274.069 170.882 276.749 170.19 279.339C168.698 283.896 164.699 287.692 158.01 290.93C156.924 291.448 155.828 291.945 154.722 292.442C150.733 294.239 146.602 296.096 143.496 299.131C140.877 301.679 138.989 305.028 137.162 308.266C134.655 312.712 132.087 317.3 127.56 319.857C125.967 320.761 124.332 321.603 122.749 322.415C114.944 326.475 107.524 330.231 106.611 340.888C106.062 346.978 109.239 353.758 114.913 358.509C120.293 363.025 127.225 365.532 133.295 367.39C135.802 368.222 138.593 368.983 141.486 369.704Z"
    fill="#231F20" />
  <path
    d="M206.71 214.805C203.807 214.48 200.904 214.033 197.991 213.851C193.129 213.566 190.348 210.917 189.739 206.309C188.805 199.204 185.679 193.043 181.954 187.024C176.381 178.437 174.425 167.997 176.514 157.975C180.736 137.208 199.006 126.388 220.321 130.874C251.786 137.492 257.115 171.393 237.941 192.394C232.765 198.067 227.791 203.559 225.051 210.897C223.518 214.957 220.209 216.5 215.855 215.85C212.83 215.404 209.765 215.15 206.71 214.805Z"
    fill="white" />
  <path
    d="M217.682 216.5C217.05 216.496 216.419 216.449 215.794 216.358C213.764 216.043 211.592 215.83 209.542 215.617L206.659 215.312L203.979 214.957C202.01 214.703 199.919 214.45 197.96 214.328C192.885 214.023 189.84 211.283 189.242 206.34C188.227 198.808 184.786 192.465 181.528 187.248C175.907 178.536 173.928 167.967 176.016 157.813C178.046 147.957 183.182 140.091 190.876 135.046C198.996 129.707 209.511 128.043 220.432 130.337C234.257 133.25 244.011 141.502 247.909 153.58C252.111 166.633 248.436 181.614 238.327 192.688C233.404 198.088 228.309 203.66 225.538 211.039C225.009 212.685 223.954 214.112 222.534 215.099C221.114 216.086 219.409 216.578 217.682 216.5ZM206.771 214.297C207.725 214.409 208.689 214.51 209.643 214.602C211.673 214.815 213.845 215.038 215.946 215.353C220.219 215.982 223.203 214.338 224.584 210.725C227.426 203.163 232.582 197.53 237.576 192.049C247.442 181.239 251.035 166.674 246.944 153.935C243.168 142.212 233.678 134.204 220.229 131.372C209.562 129.129 199.341 130.753 191.434 135.929C183.964 140.821 178.98 148.475 177.001 158.056C175.967 162.956 175.911 168.012 176.834 172.934C177.757 177.856 179.642 182.547 182.38 186.74C185.709 192.049 189.242 198.514 190.246 206.238C190.825 210.684 193.444 213.079 198.021 213.343C200.051 213.465 202.081 213.719 204.111 213.973L206.771 214.287V214.297Z"
    fill="#231F20" />
  <path
    d="M218.393 216.143L194.909 213.521C192.803 213.286 190.906 214.803 190.671 216.909L190.535 218.119C190.3 220.225 191.817 222.123 193.923 222.358L217.406 224.98C219.512 225.215 221.41 223.698 221.645 221.592L221.78 220.382C222.015 218.276 220.498 216.378 218.393 216.143Z"
    fill="white" />
  <path
    d="M217.844 225.523C217.679 225.533 217.513 225.533 217.347 225.523L193.85 222.904C193.284 222.841 192.737 222.667 192.238 222.392C191.74 222.117 191.301 221.746 190.947 221.301C190.587 220.857 190.32 220.345 190.161 219.796C190.002 219.247 189.956 218.671 190.023 218.104L190.155 216.886C190.286 215.741 190.862 214.695 191.759 213.972C192.205 213.616 192.717 213.352 193.266 213.195C193.815 213.038 194.389 212.992 194.956 213.059L218.453 215.678C219.595 215.808 220.639 216.385 221.356 217.283C222.073 218.181 222.405 219.326 222.28 220.468L222.148 221.697C222.085 222.262 221.911 222.81 221.636 223.308C221.36 223.806 220.99 224.245 220.544 224.6C219.776 225.207 218.823 225.533 217.844 225.523ZM217.459 224.508C218.335 224.605 219.213 224.351 219.902 223.801C220.591 223.251 221.034 222.451 221.133 221.575L221.275 220.347C221.323 219.914 221.285 219.476 221.163 219.058C221.042 218.64 220.838 218.25 220.565 217.911C220.294 217.566 219.957 217.279 219.574 217.068C219.19 216.857 218.767 216.726 218.332 216.683L194.845 214.054C194.41 214.003 193.97 214.04 193.55 214.162C193.13 214.284 192.738 214.489 192.398 214.764C192.054 215.032 191.768 215.368 191.556 215.75C191.345 216.132 191.214 216.553 191.17 216.987L191.028 218.215C190.939 219.082 191.193 219.948 191.736 220.629C192.279 221.311 193.067 221.752 193.931 221.859L217.459 224.508Z"
    fill="#231F20" />
  <path
    d="M217.408 224.982L193.924 222.361C191.818 222.126 189.921 223.642 189.686 225.748L189.551 226.959C189.315 229.064 190.832 230.962 192.938 231.197L216.421 233.819C218.527 234.054 220.425 232.537 220.66 230.432L220.795 229.221C221.03 227.115 219.514 225.217 217.408 224.982Z"
    fill="white" />
  <path
    d="M216.85 234.364C216.687 234.374 216.525 234.374 216.362 234.364L192.916 231.715C191.772 231.584 190.725 231.008 190.003 230.111C189.647 229.665 189.383 229.153 189.226 228.604C189.07 228.055 189.023 227.481 189.089 226.914L189.221 225.696C189.349 224.568 189.914 223.535 190.794 222.817C191.674 222.1 192.8 221.756 193.931 221.859L217.428 224.488C218.572 224.616 219.618 225.192 220.337 226.09C221.057 226.988 221.39 228.135 221.265 229.279L221.123 230.507C221.001 231.565 220.496 232.542 219.703 233.252C218.91 233.963 217.884 234.358 216.819 234.364H216.85ZM193.505 222.854C192.687 222.852 191.897 223.152 191.288 223.698C190.679 224.243 190.294 224.995 190.206 225.807L190.074 227.025C189.977 227.901 190.231 228.78 190.781 229.469C191.331 230.158 192.131 230.6 193.007 230.7L216.504 233.329C217.38 233.426 218.259 233.171 218.948 232.621C219.637 232.072 220.079 231.271 220.179 230.395L220.321 229.167C220.372 228.733 220.336 228.293 220.216 227.873C220.095 227.452 219.893 227.06 219.62 226.718C219.348 226.377 219.01 226.093 218.627 225.882C218.243 225.672 217.822 225.54 217.388 225.493L193.89 222.874C193.752 222.855 193.613 222.848 193.474 222.854H193.505Z"
    fill="#231F20" />
  <path
    d="M216.738 233.866C216.363 237.196 210.648 239.297 204 238.556C197.352 237.815 192.236 234.496 192.601 231.167L216.738 233.866Z"
    fill="#231F20" />
  <path
    d="M206.699 239.216C205.777 239.216 204.855 239.162 203.939 239.053C200.913 238.777 197.989 237.823 195.382 236.262C193.068 234.75 191.901 232.923 192.104 231.116C192.119 230.983 192.186 230.861 192.291 230.778C192.395 230.694 192.529 230.655 192.662 230.669L216.789 233.359C216.856 233.366 216.922 233.387 216.981 233.42C217.04 233.453 217.092 233.498 217.134 233.552C217.175 233.604 217.206 233.665 217.223 233.729C217.241 233.794 217.245 233.861 217.235 233.928C216.89 237.094 212.454 239.216 206.699 239.216ZM193.098 231.735C193.21 232.994 194.195 234.273 195.94 235.409C198.414 236.888 201.19 237.79 204.06 238.048C209.968 238.708 215.276 237.033 216.139 234.313L193.098 231.735Z"
    fill="#231F20" />
  <path
    d="M214.596 211.465C214.465 211.465 214.339 211.415 214.244 211.324C214.15 211.233 214.094 211.109 214.089 210.978C213.722 203.343 214.285 195.691 215.764 188.191C212.25 188.735 208.666 188.614 205.197 187.836C205.197 194.941 203.797 202.046 202.426 208.989L202.264 209.851C202.235 209.982 202.156 210.096 202.044 210.17C201.933 210.244 201.797 210.272 201.665 210.247C201.599 210.235 201.536 210.21 201.48 210.173C201.424 210.136 201.377 210.088 201.34 210.032C201.303 209.976 201.277 209.914 201.265 209.848C201.253 209.782 201.255 209.714 201.269 209.648L201.432 208.786C202.812 201.843 204.223 194.708 204.182 187.593C199.834 186.48 195.832 184.3 192.54 181.249C190.564 179.553 189.084 177.354 188.257 174.885C187.833 173.613 187.742 172.253 187.995 170.936C188.247 169.619 188.834 168.389 189.698 167.364C190.437 166.667 191.31 166.13 192.265 165.785C193.22 165.441 194.235 165.297 195.248 165.361C196.261 165.426 197.25 165.698 198.153 166.162C199.056 166.625 199.854 167.269 200.498 168.054C202.477 170.865 203.908 175.331 204.751 181.34C205.007 183.15 205.153 184.973 205.187 186.801C208.729 187.629 212.401 187.739 215.987 187.126C216.048 186.852 216.109 186.578 216.18 186.303L216.342 185.583C217.631 180 219.235 173.058 223.741 169.089C224.472 168.45 227.05 166.389 229.405 166.927C229.966 167.075 230.482 167.358 230.907 167.753C231.332 168.148 231.653 168.642 231.841 169.191C232.474 170.88 232.698 172.696 232.493 174.488C232.288 176.281 231.661 178 230.664 179.503C228.667 182.444 225.866 184.749 222.594 186.141C220.755 186.981 218.823 187.605 216.839 187.999C215.318 195.544 214.735 203.249 215.104 210.938C215.107 211.071 215.057 211.201 214.967 211.3C214.876 211.398 214.75 211.457 214.617 211.465H214.596ZM228.613 167.82C227.03 168.025 225.556 168.737 224.411 169.85C220.148 173.596 218.585 180.376 217.306 185.816L217.144 186.537C217.144 186.659 217.083 186.791 217.063 186.912C218.811 186.534 220.513 185.966 222.138 185.217C225.236 183.91 227.89 181.736 229.781 178.955C230.692 177.589 231.265 176.027 231.454 174.396C231.643 172.766 231.441 171.114 230.867 169.576C230.74 169.178 230.516 168.818 230.215 168.529C229.913 168.24 229.544 168.031 229.141 167.922C228.968 167.883 228.791 167.863 228.613 167.861V167.82ZM194.723 166.318C193.931 166.294 193.143 166.432 192.406 166.724C191.669 167.015 191 167.454 190.439 168.013C189.704 168.915 189.208 169.988 188.997 171.132C188.786 172.276 188.866 173.455 189.231 174.56C190.013 176.851 191.394 178.89 193.231 180.467C196.327 183.353 200.078 185.443 204.162 186.557C204.125 184.859 203.986 183.164 203.746 181.482C202.924 175.636 201.554 171.332 199.686 168.642C199.152 167.959 198.474 167.402 197.701 167.011C196.927 166.62 196.076 166.404 195.21 166.379L194.723 166.318Z"
    fill="#D1D3D4" />
  <path
    d="M152.478 371.267H251.431C252.75 355.788 254.77 336.869 257.642 325.399L299.562 285.388L270.99 258.165C270.99 258.165 207.714 298.4 203.238 298.126C197.534 297.771 128.819 245.042 128.819 245.042L116.101 283.612L152.813 333.113C152.813 346.267 152.671 360.183 152.478 371.267Z"
    fill="black" />
  <path
    d="M204.883 365.583C204.744 365.579 204.613 365.52 204.517 365.421C204.47 365.373 204.432 365.317 204.406 365.255C204.38 365.194 204.367 365.127 204.367 365.06C204.367 364.993 204.38 364.927 204.406 364.865C204.432 364.803 204.47 364.747 204.517 364.7C218.017 351.779 220.402 345.029 220.016 341.639C219.954 340.934 219.721 340.256 219.337 339.661C218.953 339.067 218.43 338.575 217.814 338.229C217.743 338.186 217.684 338.127 217.642 338.056C217.599 337.985 217.575 337.905 217.57 337.823C217.565 337.742 217.579 337.662 217.611 337.588C217.643 337.514 217.691 337.448 217.753 337.396C218.484 336.798 219.296 336.219 220.148 335.61C222.757 333.753 225.457 331.824 226.309 329.023C227.446 325.308 225.65 320.141 224.198 315.98C223.812 314.853 223.437 313.787 223.183 312.813C223.153 312.747 223.138 312.675 223.138 312.603C223.138 312.53 223.154 312.458 223.184 312.392C223.214 312.326 223.258 312.268 223.313 312.22C223.368 312.173 223.432 312.137 223.502 312.117C223.572 312.096 223.645 312.091 223.717 312.101C223.788 312.111 223.857 312.137 223.918 312.176C223.98 312.215 224.032 312.267 224.071 312.328C224.111 312.388 224.137 312.457 224.147 312.529C224.442 313.473 224.807 314.559 225.162 315.645C226.654 319.949 228.512 325.287 227.284 329.317C226.33 332.453 223.356 334.575 220.737 336.422C220.108 336.869 219.499 337.305 218.93 337.741C219.522 338.189 220.013 338.755 220.373 339.404C220.733 340.052 220.954 340.768 221.021 341.507C221.62 346.765 216.301 354.804 205.218 365.421C205.129 365.514 205.01 365.571 204.883 365.583Z"
    fill="#231F20" />
  <path
    d="M183.08 364.162C182.981 364.162 182.884 364.134 182.801 364.08C182.718 364.026 182.653 363.948 182.613 363.858C182.268 363.046 181.822 362.092 181.324 361.016C178.371 354.652 173.418 343.994 176.381 337.6C177.337 335.586 179.053 334.034 181.152 333.286C178.807 332.2 174.047 329.53 174.473 326.079C175.072 321.329 179.974 317.026 183.222 314.163L183.405 314.001C183.508 313.914 183.641 313.87 183.776 313.88C183.91 313.889 184.036 313.951 184.126 314.052C184.17 314.101 184.204 314.159 184.225 314.222C184.246 314.285 184.255 314.351 184.25 314.418C184.245 314.484 184.228 314.548 184.197 314.608C184.167 314.667 184.126 314.719 184.075 314.762L183.892 314.935C180.756 317.685 176.026 321.837 175.478 326.201C175.092 329.246 180.604 332.058 182.756 332.88C182.856 332.917 182.942 332.985 183 333.075C183.059 333.164 183.087 333.27 183.08 333.377C183.074 333.484 183.034 333.587 182.967 333.67C182.9 333.754 182.808 333.815 182.705 333.844C181.543 334.081 180.452 334.582 179.514 335.306C178.576 336.031 177.817 336.962 177.295 338.026C174.534 343.994 179.325 354.388 182.248 360.589C182.745 361.665 183.192 362.619 183.547 363.452C183.599 363.576 183.6 363.715 183.551 363.84C183.502 363.965 183.406 364.066 183.283 364.122C183.218 364.145 183.15 364.158 183.08 364.162Z"
    fill="#231F20" />
  <path d="M216.9 304.308L189.912 305.262L190.521 367.552L216.9 304.308Z" fill="#231F20" />
  <path
    d="M190.52 368.06H190.419C190.304 368.036 190.201 367.974 190.127 367.884C190.053 367.793 190.013 367.68 190.013 367.563L189.404 305.272C189.403 305.207 189.414 305.142 189.438 305.081C189.462 305.02 189.497 304.964 189.542 304.917C189.588 304.87 189.642 304.832 189.702 304.806C189.761 304.78 189.826 304.766 189.891 304.764L216.88 303.81C216.965 303.806 217.05 303.823 217.126 303.86C217.202 303.897 217.268 303.954 217.316 304.024C217.366 304.093 217.397 304.175 217.406 304.26C217.415 304.346 217.401 304.432 217.367 304.511L190.977 367.755C190.938 367.845 190.874 367.921 190.794 367.975C190.713 368.029 190.618 368.058 190.52 368.06ZM190.419 305.749L191.008 365.076L216.129 304.846L190.419 305.749Z"
    fill="#231F20" />
  <path
    d="M191.901 288.94L189.871 305.292C189.871 305.292 192.622 314.742 203.624 313.3C214.627 311.859 216.819 304.338 216.819 304.338L220.473 269.767C220.473 269.767 216.941 268.691 213.307 250.005C213.307 250.005 204.761 255.384 189.029 251.639C189.029 251.639 185.435 268.894 185.588 277.359C185.576 279.666 186.149 281.938 187.253 283.963C188.357 285.988 189.956 287.7 191.901 288.94Z"
    fill="white" />
  <path
    d="M201.462 313.92C198.812 313.953 196.22 313.148 194.055 311.618C191.891 310.088 190.267 307.913 189.414 305.404C189.404 305.337 189.404 305.268 189.414 305.201L191.322 289.184C189.392 287.874 187.814 286.11 186.727 284.046C185.64 281.982 185.078 279.682 185.09 277.349C184.938 268.925 188.501 251.69 188.541 251.517C188.552 251.45 188.577 251.386 188.616 251.33C188.655 251.274 188.705 251.227 188.765 251.193C188.822 251.158 188.885 251.134 188.951 251.124C189.017 251.113 189.085 251.116 189.15 251.132C204.467 254.765 212.972 249.609 213.053 249.548C213.124 249.506 213.204 249.481 213.286 249.476C213.368 249.471 213.45 249.485 213.525 249.518C213.6 249.551 213.667 249.601 213.719 249.664C213.771 249.728 213.807 249.803 213.825 249.883C217.266 267.615 220.625 269.249 220.656 269.27C220.765 269.303 220.859 269.375 220.918 269.472C220.978 269.569 221 269.685 220.981 269.798L217.418 304.358C217.296 304.764 214.941 312.306 203.736 313.767C202.982 313.871 202.223 313.922 201.462 313.92ZM190.419 305.211C190.754 306.226 193.626 314.062 203.614 312.763C214.129 311.382 216.332 304.45 216.423 304.155L219.945 270.011C218.869 269.239 215.946 265.809 212.962 250.726C210.719 251.873 202.66 255.212 189.424 252.197C188.836 255.111 185.973 269.798 186.105 277.288C186.09 279.486 186.624 281.654 187.66 283.593C188.695 285.532 190.198 287.182 192.033 288.392C192.102 288.437 192.166 288.488 192.226 288.545C192.28 288.598 192.322 288.663 192.346 288.736C192.371 288.808 192.378 288.885 192.368 288.961L190.419 305.211Z"
    fill="#231F20" />
  <path
    d="M216.261 270.325C217.174 267.838 219.448 266.336 221.904 265.534C222.704 265.23 223.561 265.104 224.415 265.166C225.269 265.227 226.099 265.474 226.847 265.89C227.766 266.568 228.463 267.505 228.848 268.58C229.233 269.656 229.289 270.821 229.009 271.929C228.677 273.612 227.9 275.175 226.76 276.457C225.619 277.738 224.156 278.691 222.523 279.217C220.315 279.809 217.963 279.506 215.977 278.374"
    fill="white" />
  <path
    d="M220.321 280.029C218.725 280.027 217.157 279.607 215.773 278.811C215.672 278.737 215.601 278.628 215.575 278.505C215.549 278.382 215.57 278.254 215.633 278.145C215.696 278.037 215.798 277.955 215.917 277.917C216.037 277.879 216.166 277.886 216.281 277.938C218.146 279.005 220.358 279.29 222.432 278.729C223.968 278.22 225.342 277.312 226.412 276.097C227.482 274.883 228.21 273.406 228.522 271.817C228.908 270 228.461 267.493 226.593 266.316C225.905 265.942 225.145 265.721 224.363 265.668C223.582 265.616 222.798 265.733 222.066 266.012C220.158 266.641 217.682 267.94 216.748 270.508C216.725 270.57 216.69 270.628 216.645 270.677C216.6 270.726 216.546 270.765 216.485 270.792C216.425 270.82 216.359 270.835 216.293 270.837C216.226 270.838 216.16 270.827 216.098 270.802C215.972 270.756 215.869 270.662 215.812 270.541C215.754 270.419 215.748 270.279 215.794 270.153C216.87 267.209 219.63 265.748 221.752 265.078C222.624 264.748 223.558 264.614 224.488 264.686C225.418 264.758 226.32 265.034 227.131 265.494C228.137 266.227 228.902 267.243 229.327 268.413C229.752 269.583 229.818 270.853 229.517 272.061C229.162 273.834 228.34 275.481 227.135 276.83C225.931 278.179 224.387 279.182 222.665 279.734C221.9 279.934 221.112 280.033 220.321 280.029Z"
    fill="#231F20" />
  <path
    d="M200.823 261.261C200.823 261.261 194.022 268.813 195.149 270.396C196.276 271.98 200.133 271.614 200.133 271.614"
    fill="white" />
  <path
    d="M199.006 272.234C197.666 272.234 195.596 272.01 194.733 270.742C193.515 268.955 198.326 263.281 200.447 260.916C200.491 260.862 200.544 260.818 200.606 260.786C200.667 260.753 200.734 260.734 200.803 260.728C200.872 260.723 200.941 260.731 201.007 260.754C201.072 260.776 201.132 260.811 201.184 260.858C201.235 260.904 201.276 260.961 201.305 261.024C201.333 261.087 201.349 261.155 201.35 261.224C201.352 261.293 201.339 261.362 201.313 261.426C201.287 261.49 201.248 261.548 201.198 261.596C197.717 265.463 195.108 269.463 195.565 270.163C196.347 271.3 199.087 271.269 200.072 271.178C200.138 271.168 200.206 271.172 200.271 271.189C200.335 271.207 200.396 271.237 200.448 271.279C200.501 271.321 200.544 271.374 200.575 271.433C200.606 271.492 200.625 271.558 200.63 271.625C200.644 271.758 200.605 271.891 200.522 271.996C200.438 272.1 200.316 272.167 200.183 272.183C200.021 272.183 199.605 272.234 199.006 272.234Z"
    fill="#231F20" />
  <path
    d="M200.295 280.029C195.088 280.029 190.327 276.121 190.145 275.969C190.093 275.927 190.051 275.875 190.02 275.816C189.989 275.757 189.97 275.693 189.964 275.627C189.959 275.56 189.966 275.494 189.987 275.43C190.007 275.367 190.04 275.309 190.084 275.258C190.169 275.155 190.291 275.09 190.424 275.077C190.558 275.064 190.69 275.103 190.794 275.187C190.855 275.187 196.722 280.059 202.183 278.852C204.913 278.253 207.105 276.223 208.719 272.822C208.783 272.711 208.886 272.628 209.008 272.589C209.131 272.551 209.263 272.56 209.379 272.615C209.495 272.671 209.585 272.768 209.633 272.887C209.68 273.007 209.68 273.14 209.633 273.259C207.887 276.954 205.451 279.176 202.396 279.846C201.704 279.985 201 280.046 200.295 280.029Z"
    fill="#231F20" />
  <path
    d="M190.521 259.404C190.521 259.404 190.784 256.237 193.566 255.872C196.347 255.506 195.768 259.404 195.768 259.404"
    fill="white" />
  <path
    d="M195.758 259.911H195.676C195.545 259.891 195.427 259.82 195.347 259.714C195.268 259.608 195.233 259.475 195.25 259.343C195.428 258.424 195.254 257.471 194.763 256.673C194.61 256.538 194.428 256.441 194.23 256.389C194.032 256.338 193.825 256.335 193.626 256.379C191.292 256.684 191.038 259.343 191.028 259.424C191.023 259.491 191.004 259.556 190.974 259.616C190.944 259.675 190.902 259.728 190.851 259.772C190.8 259.815 190.741 259.848 190.677 259.868C190.613 259.889 190.546 259.897 190.48 259.891C190.346 259.878 190.222 259.814 190.135 259.711C190.048 259.609 190.004 259.477 190.013 259.343C190.114 258.105 191.028 255.679 193.494 255.344C193.855 255.267 194.229 255.28 194.583 255.383C194.938 255.486 195.261 255.674 195.524 255.933C196.62 257.049 196.336 259.211 196.296 259.455C196.283 259.586 196.219 259.707 196.119 259.792C196.019 259.877 195.889 259.92 195.758 259.911Z"
    fill="#231F20" />
  <path
    d="M203.848 260.206C203.848 260.206 204.112 257.039 206.893 256.674C209.674 256.308 209.085 260.206 209.085 260.206"
    fill="white" />
  <path
    d="M209.085 260.714H209.014C208.947 260.705 208.883 260.683 208.825 260.649C208.767 260.615 208.717 260.569 208.677 260.515C208.637 260.461 208.609 260.4 208.593 260.334C208.578 260.269 208.576 260.201 208.587 260.135C208.757 259.218 208.58 258.27 208.09 257.476C207.939 257.338 207.756 257.239 207.558 257.188C207.36 257.137 207.152 257.134 206.953 257.181C204.629 257.486 204.365 260.135 204.355 260.226C204.343 260.361 204.278 260.485 204.174 260.572C204.07 260.658 203.936 260.7 203.802 260.688C203.667 260.676 203.543 260.611 203.456 260.507C203.37 260.403 203.328 260.27 203.34 260.135C203.441 258.897 204.304 256.471 206.821 256.136C207.183 256.064 207.557 256.08 207.91 256.185C208.264 256.289 208.587 256.478 208.851 256.735C209.937 257.851 209.653 260.013 209.613 260.257C209.602 260.387 209.541 260.508 209.442 260.593C209.344 260.679 209.215 260.722 209.085 260.714Z"
    fill="#231F20" />
  <path
    d="M191.901 288.94C191.901 288.94 201.767 292.503 208.141 289.793C208.141 289.793 199.879 302.694 190.531 300.126L191.901 288.94Z"
    fill="#231F20" />
  <path
    d="M193.058 300.978C192.157 300.979 191.259 300.859 190.389 300.623C190.27 300.59 190.167 300.516 190.098 300.413C190.029 300.311 189.999 300.187 190.013 300.065L191.353 288.9C191.362 288.824 191.387 288.751 191.428 288.686C191.468 288.621 191.522 288.566 191.586 288.524C191.656 288.492 191.733 288.475 191.81 288.475C191.887 288.475 191.963 288.492 192.033 288.524C192.124 288.524 201.797 291.985 207.928 289.387C208.029 289.346 208.14 289.337 208.245 289.363C208.351 289.388 208.446 289.447 208.517 289.529C208.58 289.616 208.614 289.721 208.614 289.828C208.614 289.936 208.58 290.041 208.517 290.128C208.243 290.554 201.462 300.978 193.058 300.978ZM191.079 299.74C198.082 301.303 204.507 293.843 206.801 290.788C201.31 292.27 194.368 290.29 192.287 289.62L191.079 299.74Z"
    fill="#231F20" />
  <path
    d="M152.529 366.913C152.462 366.91 152.397 366.895 152.336 366.867C152.276 366.839 152.221 366.799 152.176 366.75C152.131 366.701 152.096 366.644 152.073 366.581C152.05 366.518 152.039 366.452 152.042 366.385C152.428 355.961 152.286 347.76 152.154 339.823C152.062 334.149 151.971 328.79 152.062 322.7C152.062 322.633 152.075 322.568 152.101 322.507C152.127 322.446 152.164 322.391 152.211 322.344C152.259 322.298 152.315 322.262 152.376 322.237C152.438 322.213 152.504 322.201 152.57 322.202C152.704 322.202 152.833 322.256 152.929 322.351C153.024 322.446 153.077 322.575 153.077 322.71C152.986 328.8 153.077 334.139 153.169 339.802C153.301 347.75 153.443 355.971 153.057 366.426C153.054 366.492 153.039 366.558 153.011 366.619C152.983 366.679 152.943 366.734 152.894 366.779C152.845 366.824 152.788 366.859 152.725 366.882C152.662 366.905 152.596 366.916 152.529 366.913Z"
    fill="#231F20" />
  <path
    d="M270.99 258.125C263.722 249.085 256.465 240.038 249.218 230.984C245.611 226.491 242.008 221.988 238.408 217.474C237.02 215.504 235.461 213.66 233.749 211.963C232.176 210.662 231.047 208.904 230.517 206.933C229.988 204.961 230.086 202.874 230.796 200.96C231.578 199.341 232.082 197.601 232.288 195.814C232.359 192.424 229.71 189.329 230.126 185.969C230.142 185.719 230.222 185.478 230.359 185.269C230.847 184.619 231.892 185.005 232.521 185.522C233.641 186.444 234.54 187.606 235.15 188.923C238.727 185.483 241.775 181.532 244.194 177.199C244.671 176.337 245.381 175.322 246.356 175.464C247.33 175.606 247.756 176.956 247.645 178.001C247.371 180.488 245.838 182.619 244.478 184.71C243.382 186.395 243.138 198.453 244.113 199.499C246.813 202.432 288.773 237.257 299.562 250.746C313.701 268.468 307.225 283.429 299.562 285.348C291.899 287.266 270.99 258.125 270.99 258.125Z"
    fill="white" />
  <path
    d="M298.841 285.936C290.447 285.936 271.528 259.739 270.584 258.43C263.33 249.396 256.076 240.356 248.822 231.309C245.216 226.802 241.612 222.296 238.012 217.789C237.637 217.322 237.272 216.845 236.906 216.358C235.876 214.91 234.707 213.568 233.415 212.349C231.767 210.976 230.584 209.126 230.03 207.055C229.476 204.983 229.577 202.79 230.319 200.778L230.654 199.945C231.266 198.64 231.647 197.239 231.78 195.804C231.706 194.258 231.341 192.739 230.704 191.328C229.908 189.636 229.535 187.776 229.618 185.908C229.645 185.569 229.761 185.244 229.953 184.964C230.063 184.815 230.203 184.69 230.364 184.597C230.525 184.504 230.703 184.446 230.887 184.426C231.606 184.4 232.307 184.651 232.846 185.126C233.842 185.947 234.672 186.949 235.292 188.08C238.622 184.775 241.468 181.016 243.747 176.915C244.082 176.306 244.986 174.713 246.437 174.885C247.888 175.058 248.294 176.621 248.152 177.93C247.888 180.315 246.559 182.335 245.27 184.294L244.894 184.873C243.879 186.487 243.798 198.068 244.488 199.083C245.178 200.098 248.893 203.051 253.999 207.477C268.209 219.829 292.102 240.505 299.958 250.35C310.514 263.545 308.697 273.777 307.418 277.542C305.967 281.836 303.074 284.911 299.684 285.754C299.412 285.852 299.129 285.913 298.841 285.936ZM231.09 185.451H231.009C230.961 185.453 230.914 185.466 230.872 185.489C230.83 185.512 230.793 185.544 230.765 185.583C230.686 185.723 230.641 185.879 230.633 186.04C230.566 187.745 230.915 189.442 231.648 190.983C232.332 192.514 232.721 194.16 232.795 195.835C232.667 197.394 232.258 198.917 231.588 200.331L231.273 201.153C230.604 202.97 230.515 204.949 231.018 206.818C231.522 208.687 232.593 210.353 234.084 211.587C235.428 212.851 236.641 214.245 237.708 215.749L238.804 217.17C242.397 221.677 246.001 226.18 249.614 230.68C256.861 239.733 264.118 248.777 271.386 257.811C276.938 265.555 292.274 284.911 298.791 284.911C299.017 284.915 299.242 284.888 299.461 284.83C302.506 284.079 305.155 281.186 306.474 277.278C307.702 273.665 309.428 263.89 299.187 251.051C291.391 241.276 266.646 219.829 253.349 208.309C248.031 203.691 244.519 200.646 243.757 199.824C242.641 198.616 242.884 186.233 244.072 184.416L244.448 183.848C245.666 181.98 246.924 180.062 247.158 177.92C247.239 177.189 247.026 176.052 246.305 175.951C245.787 175.88 245.29 176.337 244.661 177.433C242.217 181.807 239.138 185.795 235.526 189.268C235.466 189.322 235.395 189.363 235.318 189.386C235.24 189.408 235.159 189.413 235.079 189.4C234.999 189.387 234.924 189.354 234.86 189.305C234.796 189.255 234.746 189.19 234.714 189.115C234.134 187.869 233.281 186.769 232.217 185.898C231.901 185.626 231.506 185.463 231.09 185.431V185.451Z"
    fill="#231F20" />
  <path
    d="M147.556 258.125C154.823 249.085 162.08 240.038 169.327 230.984C172.941 226.491 176.544 221.988 180.137 217.475C181.526 215.505 183.085 213.66 184.796 211.963C187.973 209.182 188.775 205.558 187.932 201.316C187.344 198.352 185.902 195.226 186.988 192.455C187.516 191.156 188.541 190.11 189.018 188.801C189.495 187.491 189.018 185.634 187.689 185.37C187.216 185.343 186.746 185.443 186.326 185.661C185.906 185.879 185.553 186.206 185.303 186.608C184.705 187.41 184.288 188.638 183.355 188.994C180.431 183.919 178.564 178.59 176.097 173.302C175.832 172.634 175.431 172.03 174.92 171.525C174.66 171.265 174.33 171.084 173.97 171.007C173.609 170.93 173.234 170.958 172.89 171.089C172.575 171.259 172.314 171.514 172.135 171.824C171.955 172.134 171.866 172.487 171.875 172.845C171.893 173.561 172.033 174.268 172.291 174.936C173.423 178.918 174.345 182.956 175.052 187.035C175.6 189.592 177.244 192.952 175.052 195.297C172.342 198.23 128.697 236.536 118.922 250.746C106.742 268.468 111.259 283.429 118.922 285.348C126.586 287.266 147.556 258.125 147.556 258.125Z"
    fill="white" />
  <path
    d="M119.704 285.936C119.42 285.939 119.136 285.905 118.861 285.834C115.948 285.114 113.502 282.627 112.142 279.024C109.209 271.249 111.604 260.571 118.567 250.462C126.149 239.439 154.031 213.972 167.429 201.742C171.316 198.189 174.138 195.652 174.737 194.962C176.28 193.287 175.64 191.003 175.011 188.79C174.859 188.222 174.696 187.664 174.585 187.146C174.361 186.06 174.148 184.984 173.935 183.898C173.413 180.929 172.715 177.994 171.844 175.108C171.56 174.383 171.405 173.613 171.388 172.835C171.388 172.379 171.514 171.932 171.753 171.543C171.991 171.155 172.332 170.839 172.737 170.632C173.163 170.47 173.626 170.433 174.071 170.525C174.517 170.616 174.928 170.833 175.255 171.15C175.817 171.703 176.259 172.367 176.554 173.098C177.406 174.925 178.198 176.793 178.97 178.6C180.312 181.908 181.833 185.14 183.527 188.283C183.858 187.943 184.139 187.556 184.359 187.136C184.532 186.852 184.714 186.557 184.897 186.314C185.199 185.818 185.637 185.419 186.158 185.163C186.68 184.908 187.264 184.807 187.841 184.872C188.157 184.937 188.456 185.071 188.716 185.264C188.975 185.457 189.189 185.704 189.343 185.989C189.582 186.445 189.724 186.946 189.759 187.46C189.794 187.973 189.721 188.489 189.546 188.973C189.261 189.69 188.893 190.372 188.45 191.003C188.085 191.526 187.772 192.084 187.516 192.668C186.734 194.596 187.303 196.728 187.912 198.93C188.115 199.681 188.328 200.463 188.48 201.234C189.414 205.954 188.338 209.598 185.181 212.399C183.892 213.621 182.722 214.963 181.69 216.408C181.324 216.896 180.959 217.423 180.583 217.84C176.99 222.346 173.387 226.853 169.774 231.359C162.527 240.406 155.273 249.447 148.012 258.48C147.017 259.739 128.098 285.936 119.704 285.936ZM173.499 171.474C173.363 171.471 173.229 171.496 173.103 171.546C172.876 171.683 172.688 171.876 172.558 172.107C172.428 172.339 172.361 172.6 172.362 172.865C172.383 173.502 172.513 174.13 172.748 174.722C173.639 177.668 174.354 180.664 174.889 183.695C175.102 184.771 175.316 185.847 175.539 186.923C175.651 187.43 175.793 187.938 175.955 188.506C176.584 190.749 177.366 193.581 175.437 195.611C174.808 196.301 172.128 198.747 168.068 202.452C154.701 214.632 126.88 240.078 119.348 251.01C112.578 260.845 110.213 271.178 113.045 278.638C114.284 281.917 116.476 284.18 119.054 284.819C125.073 286.332 141.333 265.829 147.088 257.8C154.356 248.767 161.613 239.723 168.86 230.669C172.46 226.176 176.063 221.673 179.67 217.16L180.766 215.739C181.836 214.237 183.049 212.843 184.39 211.577C187.252 209.08 188.226 205.751 187.364 201.427C187.222 200.696 187.008 199.935 186.805 199.194C186.186 196.9 185.547 194.535 186.45 192.282C186.732 191.64 187.072 191.025 187.465 190.445C187.875 189.889 188.216 189.286 188.48 188.648C188.606 188.303 188.659 187.935 188.637 187.569C188.614 187.202 188.516 186.844 188.348 186.517C188.269 186.359 188.154 186.221 188.013 186.114C187.873 186.006 187.71 185.933 187.536 185.898C187.161 185.889 186.789 185.978 186.458 186.156C186.127 186.334 185.848 186.595 185.648 186.913C185.475 187.15 185.316 187.398 185.171 187.654C184.808 188.411 184.224 189.04 183.496 189.46C183.382 189.509 183.254 189.514 183.136 189.475C183.018 189.436 182.919 189.355 182.857 189.247C181.025 185.928 179.394 182.501 177.975 178.985C177.214 177.189 176.422 175.331 175.569 173.515C175.347 172.912 175.001 172.362 174.554 171.901C174.275 171.646 173.917 171.495 173.539 171.474H173.499Z"
    fill="#231F20" />
  <path
    d="M100.196 220.712C100.099 220.713 100.005 220.685 99.9237 220.633C99.8426 220.581 99.7784 220.506 99.739 220.418C99.7099 220.357 99.6931 220.292 99.6897 220.224C99.6862 220.157 99.696 220.09 99.7187 220.027C99.7414 219.964 99.7764 219.905 99.8217 219.856C99.867 219.806 99.9217 219.766 99.9826 219.738L152.316 195.479C152.437 195.424 152.576 195.418 152.701 195.464C152.826 195.509 152.929 195.602 152.986 195.723C153.015 195.783 153.031 195.848 153.035 195.914C153.038 195.98 153.028 196.047 153.006 196.109C152.983 196.172 152.948 196.229 152.903 196.278C152.857 196.326 152.803 196.365 152.742 196.393L100.409 220.661C100.342 220.693 100.27 220.71 100.196 220.712Z"
    fill="#D1D3D4" />
  <path
    d="M152.549 170.703H152.488L86.5135 163.344C86.3804 163.329 86.2588 163.262 86.1752 163.157C86.0915 163.053 86.0526 162.919 86.0669 162.786C86.0717 162.719 86.0903 162.654 86.1216 162.594C86.1528 162.535 86.196 162.483 86.2484 162.441C86.3008 162.399 86.3614 162.368 86.4262 162.351C86.491 162.333 86.5587 162.329 86.6251 162.339L152.6 169.688C152.667 169.696 152.732 169.716 152.79 169.749C152.849 169.782 152.901 169.826 152.942 169.879C152.984 169.932 153.015 169.992 153.032 170.057C153.05 170.122 153.055 170.19 153.047 170.256C153.034 170.379 152.976 170.493 152.884 170.576C152.792 170.658 152.673 170.704 152.549 170.703Z"
    fill="#D1D3D4" />
  <path
    d="M166.739 141.928C166.665 141.928 166.592 141.911 166.526 141.877L133.68 125.576C133.62 125.547 133.567 125.506 133.522 125.456C133.478 125.406 133.444 125.348 133.423 125.285C133.401 125.221 133.392 125.155 133.396 125.088C133.4 125.021 133.418 124.956 133.447 124.896C133.51 124.778 133.616 124.69 133.742 124.648C133.869 124.606 134.007 124.615 134.127 124.673L166.972 140.963C167.092 141.024 167.183 141.13 167.224 141.257C167.266 141.385 167.256 141.524 167.196 141.644C167.153 141.728 167.088 141.8 167.007 141.85C166.927 141.9 166.834 141.927 166.739 141.928Z"
    fill="#D1D3D4" />
  <path
    d="M314.056 220.712C313.986 220.726 313.914 220.726 313.843 220.712L261.489 196.444C261.429 196.416 261.374 196.377 261.329 196.328C261.284 196.28 261.249 196.222 261.226 196.16C261.204 196.098 261.194 196.031 261.197 195.965C261.2 195.898 261.217 195.833 261.246 195.774C261.303 195.653 261.405 195.56 261.531 195.514C261.656 195.469 261.794 195.474 261.916 195.53L314.269 219.789C314.33 219.817 314.385 219.857 314.43 219.907C314.476 219.956 314.511 220.014 314.533 220.078C314.556 220.141 314.566 220.208 314.562 220.275C314.559 220.342 314.542 220.408 314.513 220.469C314.467 220.547 314.399 220.612 314.319 220.655C314.238 220.697 314.147 220.717 314.056 220.712Z"
    fill="#D1D3D4" />
  <path
    d="M261.702 167.029C261.577 167.029 261.457 166.982 261.364 166.898C261.272 166.813 261.215 166.697 261.205 166.572C261.191 166.439 261.23 166.306 261.313 166.201C261.397 166.096 261.519 166.029 261.652 166.014L327.627 158.655C327.693 158.648 327.761 158.654 327.825 158.674C327.889 158.693 327.949 158.725 328.001 158.767C328.053 158.81 328.096 158.862 328.127 158.921C328.159 158.98 328.179 159.045 328.185 159.112C328.199 159.245 328.16 159.378 328.077 159.483C327.993 159.588 327.871 159.655 327.738 159.67L261.763 167.019L261.702 167.029Z"
    fill="#D1D3D4" />
  <path
    d="M255.419 145.196C255.325 145.194 255.232 145.167 255.152 145.117C255.072 145.067 255.006 144.996 254.963 144.912C254.933 144.852 254.916 144.787 254.912 144.72C254.907 144.654 254.916 144.587 254.938 144.524C254.96 144.46 254.994 144.402 255.038 144.352C255.082 144.302 255.136 144.261 255.196 144.232L288.031 127.992C288.091 127.963 288.156 127.946 288.223 127.941C288.29 127.937 288.357 127.946 288.42 127.968C288.483 127.99 288.541 128.024 288.591 128.068C288.641 128.112 288.682 128.166 288.711 128.226C288.741 128.286 288.758 128.351 288.762 128.417C288.766 128.484 288.757 128.551 288.735 128.614C288.714 128.677 288.68 128.735 288.636 128.785C288.592 128.835 288.538 128.876 288.478 128.906L255.643 145.146C255.574 145.181 255.497 145.198 255.419 145.196Z"
    fill="#D1D3D4" />
  <path
    d="M119.542 184.223L121.257 187.705L125.094 188.263L122.313 190.973L122.972 194.789L119.542 192.993L116.101 194.789L116.761 190.973L113.979 188.263L117.826 187.705L119.542 184.223Z"
    fill="#D1D3D4" />
  <path
    d="M299.907 229.989L300.516 232.303L302.78 233.115L300.76 234.415L300.699 236.81L298.831 235.298L296.537 235.978L297.4 233.735L296.04 231.755L298.435 231.887L299.907 229.989Z"
    fill="#D1D3D4" />
  <path
    d="M116.101 138.558L118.882 144.191L125.094 145.095L120.597 149.48L121.663 155.661L116.101 152.738L110.539 155.661L111.604 149.48L107.108 145.095L113.32 144.191L116.101 138.558Z"
    fill="#D1D3D4" />
  <path
    d="M287.879 141.826L289.595 145.308L293.441 145.866L290.66 148.576L291.31 152.392L287.879 150.596L284.448 152.392L285.098 148.576L282.327 145.866L286.164 145.308L287.879 141.826Z"
    fill="#D1D3D4" />
  <path
    d="M95.4556 233.521L100.348 238.85L107.494 237.835L103.951 244.128L107.118 250.624L100.043 249.193L94.8466 254.217L94.0143 247.031L87.6401 243.651L94.2072 240.647L95.4556 233.521Z"
    fill="#D1D3D4" />
  <path
    d="M296.263 299.608L297.237 303.962L301.379 305.637L297.542 307.911L297.237 312.366L293.888 309.413L289.554 310.499L291.32 306.398L288.955 302.622L293.401 303.039L296.263 299.608Z"
    fill="#D1D3D4" />
  <path
    d="M174.95 124.582L176.666 128.063L180.502 128.621L177.731 131.331L178.381 135.158L174.95 133.351L171.51 135.158L172.169 131.331L169.388 128.621L173.235 128.063L174.95 124.582Z"
    fill="#D1D3D4" />
  <path
    d="M303.47 174.53L304.312 184.193L312.747 188.983L303.815 192.769L301.876 202.28L295.512 194.952L285.87 196.038L290.874 187.725L286.854 178.894L296.314 181.077L303.47 174.53Z"
    fill="#D1D3D4" />
  <path
    d="M251.786 366.913H251.725C251.592 366.895 251.471 366.825 251.389 366.719C251.307 366.612 251.271 366.478 251.288 366.345L258.586 310.794C258.594 310.727 258.614 310.663 258.647 310.604C258.68 310.546 258.725 310.495 258.778 310.454C258.831 310.414 258.891 310.384 258.956 310.367C259.021 310.351 259.088 310.347 259.155 310.357C259.288 310.375 259.409 310.445 259.49 310.551C259.572 310.658 259.608 310.792 259.591 310.926L252.293 366.466C252.278 366.59 252.218 366.704 252.125 366.786C252.031 366.869 251.91 366.914 251.786 366.913Z"
    fill="#231F20" />
</svg>
