<svg xmlns="http://www.w3.org/2000/svg" viewBox="0 0 859.23 332.92"><defs><style>.cls-1{fill:#dd8525;}</style></defs><title>Logo Jevitas</title><g id="Layer_2" data-name="Layer 2"><g id="Capa_1" data-name="Capa 1"><path class="cls-1" d="M65.51,15.37h87.28v3.86q-16,0-19.83,12.33Q131,37.86,131,48v62.38q0,27.56-4.59,43-14.76,49.08-70.6,49.32-44.23,0-53.67-29A52.83,52.83,0,0,1,.24,153.41q1.93-18.61,18.13-24.18a31,31,0,0,1,26.84,3.15q10.15,6.28,11.84,16.44Q45,148.82,39.77,162t.84,25.26q6,11.37,19.1,11.61,9.18,0,15.47-9.19a56.14,56.14,0,0,0,8.59-22.12,258.77,258.77,0,0,0,3.26-26q1-13,.73-22l-.25-9.18V48q0-19.82-7-25.14-5.07-3.63-15-3.63Z"/><path class="cls-1" d="M215.16,81.85q29.75.24,44.48,19.1,8.72,11.6,5.81,23.93-4.12,14.26-21.52,16.68l-45.69,5.08c.32,1.29.72,2.66,1.21,4.11q7,21.52,25.62,28.77,18.13,7.24,34.33-3.63A43.05,43.05,0,0,0,272,162.6l2.9,2.9q-10.87,27.32-38.19,36-25.16,8.21-49.8-3.39Q162.46,186.3,155,161.39a58.77,58.77,0,0,1-2.18-11.85q-3.39-36.75,19.1-54.64Q188.08,81.85,215.16,81.85Zm-.24,3.87q-14.74,0-18.37,23.69-2,14.27.72,32.39a2.2,2.2,0,0,1,.24,1l8.46-1q25.64-2.9,27.08-21v-4.35Q229.9,86,214.92,85.72Z"/><path class="cls-1" d="M274.59,81.85H352v3.87q-19.35.48-6.53,28.77l22.24,49.07,18.61-49.07q8-20.55,2.66-25.63Q386,86.21,379,85.72V81.85h47.63v3.87q-13.07,1-17.89,3.38-10.65,5.81-18.13,25.39L357,202.73H336l-38.68-88.24q-9.44-19.09-11.85-22.25Q280.4,86,274.59,85.72Z"/><path class="cls-1" d="M481.37,81.85h3.87v88.24q0,21.75,10.39,26.59A26.45,26.45,0,0,0,507,198.86v3.87H420v-3.87q15.48,0,19.34-9.91,2.42-6.28,2.42-18.86V139.87q0-26.59-11.6-31.43a37.18,37.18,0,0,0-6.29-1.45v-3.87A83.67,83.67,0,0,0,442.69,101a80.18,80.18,0,0,0,16.07-5.32q6.66-3.13,12-6.29a66.93,66.93,0,0,0,8-5.32Z"/><path class="cls-1" d="M560.67,37.85h3.86v51h23v3.87h-23V160.9q0,23.94,10.16,24.18,7.48,0,15-12.33a2,2,0,0,0,.24-.73l2.9,2.66q-8,13.78-13.54,19.1-11.12,10.88-25.87,10.88-24.9,0-30.46-24.66A84,84,0,0,1,521,160.9V92.73H501V88.86A95.14,95.14,0,0,0,546.4,61.78Q557.28,49.95,560.67,37.85Z"/><path class="cls-1" d="M657.61,81.85q41.08,0,54.15,16.68,6.76,8.94,9.67,27.08l.48,3.62L726,166a67.75,67.75,0,0,0,4.6,16.8q2.89,6.41,5.92,8.22a15.16,15.16,0,0,0,5.92,2.18,7.32,7.32,0,0,0,4.59-.61l1.7-1v2.9q-1.69,4.59-15.72,8.22-23,5.79-37.23-3.15a26.49,26.49,0,0,1-9.43-10.39q-6.29,7.74-19.82,12.33A60.24,60.24,0,0,1,647,204.66q-28.53,0-38.44-15.71a28.42,28.42,0,0,1-4.35-15.72q0-23,22.24-30.46,5.31-1.68,26.83-5.08,18.38-3.13,22.25-9.91A16.9,16.9,0,0,0,677,118.6l-.49-2.66q-2.18-15.48-4.11-19.83-4.83-10.15-15-10.39-18.12.48-18.61,12.08-.24,9.2,9.91,10.4a31.41,31.41,0,0,0,3.87.24q3.38,13.07-7.5,20.31-9.66,6.52-19.34,2.18-7.25-3.15-9.42-11.61-4.12-15.46,8-26.83Q636.09,81.86,657.61,81.85Zm20.79,49.32q-1.7,3.87-12.09,9.67-13.3,7.74-17.41,14.5a28.6,28.6,0,0,0-3.38,13.78q0,16.68,13.29,22.49,10.65,4.59,19.1-1,6.76-4.35,5.8-12.81Z"/><path class="cls-1" d="M805.07,81.85q7.74,0,23.46,3.14c3.86.65,6.2-.08,7-2.17.15-.33.32-.65.48-1h3.87l3.87,39.65-4.11.24q-6.3-27.31-21-33.61a36.4,36.4,0,0,0-13.54-2.41q-11.84,0-14.74,10.15a17.63,17.63,0,0,0,1.45,13.3q3.63,7,23.21,15.71,23.44,10.16,30.22,15,14,10.15,14,23.21,0,22.48-22,33.84-15.22,7.74-37,7.74-26.6,0-39.41-15.23Q752.37,179,755.27,167q3.15-11.85,15.23-12.82H772q11.12-.24,17.16,8.47,4.59,6.77,2.42,15.47-7.26-3.63-11.85,4.11a13.15,13.15,0,0,0-1.93,6.52q.22,8,10.88,10.88a55,55,0,0,0,9.42,1.21q17.18,0,22.25-13.54a20.08,20.08,0,0,0,1.45-7.49q0-11.35-16-19.58a111.37,111.37,0,0,0-12.09-5.81q-21-9.18-28.28-16.92a32.25,32.25,0,0,1-8.95-18.85q-1.93-22.25,18.86-31.43Q787.18,81.85,805.07,81.85Z"/><path class="cls-1" d="M499.12,20.61c-4.71-4.15-18.2,3.47-30.12,17-.43.48-.84,1-1.25,1.44-.25-2.1-.58-4.24-1-6.42C462.93,13.11,453.35-1.45,445.35.11S434,18.77,437.76,38.3s13.39,34.08,21.4,32.52l.14,0c6.19.07,17-7.05,26.77-18.14C498,39.11,503.84,24.77,499.12,20.61Z"/><path class="cls-1" d="M157.87,236.08h3v10.64q9.12-10.46,24.33-10.64,35.53.38,41.06,34.4l2.47,22.81q3.22,25.48,5.51,30,2.66,4.56,8.94,4.75v3H182.4v-3q11.58,0,13.49-13.31a38.12,38.12,0,0,0,0-9.31l-3.8-38.4q-2.47-22-14.83-23.57a16.75,16.75,0,0,0-3.61,0q-9.12,1.33-11.4,12.92-1.33,6.85-1.33,21.29v27.76q0,18.44,8,21.67a14.78,14.78,0,0,0,5.32.95v3H113.39v-3q10.27,0,12.36-11.79a54,54,0,0,0,1-10.83V281.7q0-20.91-9.31-24.71a29.52,29.52,0,0,0-4.76-1.15v-3a64.48,64.48,0,0,0,14.73-1.71A65.54,65.54,0,0,0,140,246.91q5.31-2.47,9.5-4.94a52.69,52.69,0,0,0,6.27-4.18Z"/><path class="cls-1" d="M289.8,201.48h3v40.11H310.9v3H292.84v53.6q0,18.82,8,19,5.9,0,11.79-9.69a1.54,1.54,0,0,0,.19-.57l2.28,2.09q-6.27,10.83-10.64,15a28.22,28.22,0,0,1-20.34,8.55q-19.59,0-24-19.39a66.25,66.25,0,0,1-1.52-15v-53.6H242.85v-3a74.81,74.81,0,0,0,35.73-21.29Q287.15,211,289.8,201.48Z"/><path class="cls-1" d="M363.93,236.08q23.38.18,35,15,6.84,9.14,4.56,18.82-3.23,11.22-16.91,13.12l-35.93,4c.25,1,.57,2.09.95,3.23q5.51,16.92,20.15,22.62,14.25,5.7,27-2.85a34.16,34.16,0,0,0,9.89-10.45l2.28,2.28q-8.56,21.48-30,28.32-19.77,6.46-39.16-2.66-19.2-9.31-25.09-28.89a46.09,46.09,0,0,1-1.71-9.32q-2.65-28.89,15-43Q342.65,236.08,363.93,236.08Zm-.19,3q-11.6,0-14.44,18.63a91.24,91.24,0,0,0,.57,25.47,1.78,1.78,0,0,1,.19.76l6.65-.76q20.15-2.28,21.29-16.54v-3.42Q375.53,239.31,363.74,239.12Z"/><path class="cls-1" d="M455.75,236.08h3v10.64q9.12-10.46,24.33-10.64,35.55.38,41.06,34.4l2.47,22.81q3.23,25.48,5.51,30,2.67,4.56,8.94,4.75v3H480.27v-3q11.6,0,13.49-13.31a37.15,37.15,0,0,0,0-9.31l-3.8-38.4q-2.46-22-14.82-23.57a16.84,16.84,0,0,0-3.62,0q-9.12,1.33-11.4,12.92-1.33,6.85-1.33,21.29v27.76q0,18.44,8,21.67a14.78,14.78,0,0,0,5.32.95v3H411.26v-3q10.28,0,12.36-11.79a54,54,0,0,0,.95-10.83V281.7q0-20.91-9.31-24.71a29.27,29.27,0,0,0-4.76-1.15v-3a64.57,64.57,0,0,0,14.74-1.71,65.66,65.66,0,0,0,12.64-4.18q5.31-2.47,9.5-4.94a53.83,53.83,0,0,0,6.28-4.18Z"/><path class="cls-1" d="M585.2,236.08q6.07,0,18.44,2.47c3,.5,4.87-.07,5.51-1.71.12-.26.25-.51.38-.76h3l3,31.17-3.23.19Q607.43,246,595.84,241a28.4,28.4,0,0,0-10.64-1.9q-9.32,0-11.6,8a13.93,13.93,0,0,0,1.14,10.46q2.85,5.51,18.25,12.35,18.43,8,23.76,11.79,11,8,11,18.25,0,17.67-17.3,26.61-12,6.09-29.08,6.08-20.92,0-31-12Q543.75,312.5,546,303q2.46-9.32,12-10.08h1.14q8.75-.18,13.5,6.66a14.45,14.45,0,0,1,1.9,12.16q-5.7-2.85-9.31,3.23a10.31,10.31,0,0,0-1.52,5.13q.18,6.29,8.55,8.56a42.79,42.79,0,0,0,7.41,1q13.5,0,17.49-10.65a15.71,15.71,0,0,0,1.14-5.89q0-8.93-12.54-15.4a86.77,86.77,0,0,0-9.51-4.56q-16.53-7.22-22.24-13.3A25.38,25.38,0,0,1,547,265q-1.53-17.49,14.83-24.71Q571.12,236.08,585.2,236.08Z"/><path class="cls-1" d="M679.1,236.08q32.31,0,42.58,13.11,5.33,7,7.6,21.29l.38,2.85,3.23,28.9a53.58,53.58,0,0,0,3.62,13.21q2.28,5,4.65,6.46a12,12,0,0,0,4.66,1.71,5.85,5.85,0,0,0,3.61-.47l1.33-.76v2.28q-1.32,3.61-12.35,6.46-18.06,4.56-29.28-2.47a20.8,20.8,0,0,1-7.41-8.18q-5,6.09-15.59,9.7a47.19,47.19,0,0,1-15.39,2.47q-22.44,0-30.23-12.36a22.31,22.31,0,0,1-3.42-12.35q0-18.06,17.49-23.95,4.17-1.34,21.1-4,14.45-2.48,17.49-7.8a13.26,13.26,0,0,0,1.14-7.22l-.38-2.09q-1.71-12.16-3.24-15.59-3.8-8-11.78-8.17-14.26.38-14.64,9.5-.19,7.23,7.8,8.17a23.75,23.75,0,0,0,3,.2q2.65,10.26-5.9,16-7.61,5.13-15.2,1.71-5.71-2.46-7.42-9.12-3.23-12.17,6.28-21.1Q662.17,236.07,679.1,236.08Zm16.35,38.77q-1.34,3-9.51,7.61-10.46,6.09-13.68,11.4a22.46,22.46,0,0,0-2.67,10.84q0,13.11,10.46,17.68,8.36,3.6,15-.77,5.31-3.42,4.56-10.07Z"/><path class="cls-1" d="M795.05,236.08q6.09,0,18.44,2.47,4.56.75,5.52-1.71c.12-.26.25-.51.38-.76h3l3,31.17-3.23.19Q817.29,246,805.7,241a28.42,28.42,0,0,0-10.65-1.9q-9.31,0-11.59,8a13.83,13.83,0,0,0,1.14,10.46q2.85,5.51,18.25,12.35,18.43,8,23.76,11.79,11,8,11,18.25,0,17.67-17.3,26.61-12,6.09-29.09,6.08-20.91,0-31-12-6.66-8.16-4.37-17.67,2.46-9.32,12-10.08H769q8.75-.18,13.5,6.66a14.49,14.49,0,0,1,1.9,12.16q-5.7-2.85-9.32,3.23a10.42,10.42,0,0,0-1.52,5.13q.2,6.29,8.56,8.56a42.79,42.79,0,0,0,7.41,1Q803,329.6,807,319a15.71,15.71,0,0,0,1.14-5.89q0-8.93-12.55-15.4a87.32,87.32,0,0,0-9.5-4.56q-16.54-7.22-22.24-13.3a25.32,25.32,0,0,1-7-14.83q-1.53-17.49,14.82-24.71Q781,236.08,795.05,236.08Z"/><path class="cls-1" d="M98.93,326.33q-8.34-3.88-8.34-21.33V243.17a31.5,31.5,0,0,1,1.07-5.25q3.18-9.57,15.37-9.56v-3H39.56v3q7.5,0,11.43,2.81,5.43,4.13,5.44,19.49v.61l-.74,29.5V305q0,10.08-1.93,15.12-3.1,8-15.51,7.95v3.1H108v-3.1A21.24,21.24,0,0,1,98.93,326.33Z"/></g></g></svg>