<svg width="254" height="255" viewBox="0 0 254 255" fill="none" xmlns="http://www.w3.org/2000/svg">
<path d="M229.162 131.322C212.601 144.131 197.954 159.133 181.756 172.421C182.235 172.057 182.794 171.634 183.212 171.191C169.926 182.019 155.27 191.372 138.667 196.167C139.267 195.964 140.007 195.78 140.607 195.576C133.986 197.454 127.2 198.452 120.348 198.368C121.129 198.403 121.911 198.439 122.632 198.396C118.424 198.318 114.134 197.799 110.062 196.739C110.965 196.935 111.787 197.191 112.69 197.386C108.056 196.249 103.64 194.569 99.2625 192.609C100.206 193.025 101.01 193.421 101.953 193.837C94.7446 190.63 87.9129 186.759 81.2795 182.487C82.204 183.043 83.0486 183.66 83.9731 184.216C78.8667 180.797 73.9393 177.117 69.3504 173.054C70.1152 173.732 70.9405 174.488 71.7053 175.166C68.9075 172.636 66.2692 169.986 64.0301 167.032C64.6353 167.831 65.2404 168.629 65.8649 169.287C64.473 167.451 63.161 165.555 62.0085 163.537C62.4734 164.316 62.8584 165.156 63.2627 165.855C62.4128 164.236 61.6428 162.558 61.2333 160.857C61.4174 161.597 61.6016 162.337 61.8463 163.158C60.2519 157.076 59.6181 150.769 59.7657 144.498C59.749 145.139 59.713 145.92 59.6963 146.561C60.0432 136.242 62.696 126.312 66.9942 116.894C66.6968 117.496 66.4793 118.038 66.1819 118.641C70.5406 109.302 76.2255 100.718 82.4937 92.5714C85.0208 89.2726 87.6084 86.0536 90.196 82.8346C91.8477 80.7023 93.2985 78.4709 95.0107 76.4185C99.6903 70.9848 105.154 66.0878 110.417 61.0918C118.151 53.7187 125.947 46.4255 133.742 39.1323C139.503 33.6327 145.465 28.2323 150.984 22.4135C151.322 22.0311 151.661 21.6487 152 21.2663C153.434 19.6761 152.879 16.9545 152.188 15.2152C151.113 12.6366 148.896 10.044 146.764 8.39248C144.491 6.72169 141.718 5.05356 138.752 4.78876C136.627 4.63972 134.464 4.77133 133.011 6.50188C127.434 12.7416 121.092 18.3044 115.012 24.046C106.46 32.1646 97.9268 40.1428 89.3747 48.2614C86.0854 51.384 82.7961 54.5065 79.6279 57.7887C77.8745 59.621 76.1403 61.3129 74.7088 63.404C69.459 70.9041 63.3041 77.7079 58.0543 85.208C50.8554 95.443 44.724 106.754 41.4817 118.891C39.7157 126.013 38.8717 133.189 39.0898 140.44C39.1686 144.025 39.528 147.65 40.1875 151.172C40.8688 155.055 41.751 159.037 43.5525 162.573C47.8455 171.385 54.5332 178.381 61.8594 184.894C68.3603 190.649 75.5576 195.499 83.0137 200.027C90.4093 204.476 98.1628 208.401 106.172 211.504C115.607 215.16 125.513 216.951 135.629 216.697C144.322 216.391 152.826 214.343 160.964 211.315C168.862 208.468 176.414 204.502 183.463 200.037C200.775 189.048 215.363 174.467 230.598 160.904C234.347 157.558 238.237 154.232 242.186 150.986C241.707 151.349 241.149 151.773 240.73 152.216C242.266 150.926 243.783 149.776 245.379 148.565C246.298 148.12 246.956 147.495 247.232 146.532C247.788 145.608 247.923 144.625 247.697 143.665C247.464 141.202 245.627 138.447 243.935 136.713C241.8 134.561 239.145 132.552 236.135 131.566C235.232 131.37 234.41 131.114 233.507 130.919C231.983 130.566 230.601 130.734 229.162 131.322Z" fill="#C4D7D1"/>
<path d="M211.418 124.665C195.362 138.473 181.566 155.093 163.494 166.407C155.587 171.397 147.033 175.369 137.847 177.18C133.725 178.043 128.978 178.249 124.589 177.931C124.027 177.854 123.527 177.857 122.885 177.84C122.605 177.802 122.324 177.763 122.043 177.724C122.684 177.741 121.903 177.705 121.903 177.705C120.64 177.532 119.377 177.358 118.194 177.124C115.827 176.655 113.541 176.127 111.273 175.457C110.17 175.163 109.146 174.808 108.043 174.513C107.842 174.414 107.16 174.177 108.043 174.513C107.762 174.474 107.501 174.295 107.22 174.257C106.538 174.02 105.856 173.783 105.234 173.626C103.046 172.897 100.878 172.027 98.7704 171.236C96.4619 170.347 94.0929 169.378 91.8835 168.288C91.6221 168.109 91.3414 168.07 91.0801 167.891C90.8792 167.792 90.0758 167.396 90.7389 167.773C91.402 168.15 90.538 167.674 90.3372 167.575C90.0758 167.396 89.7951 167.357 89.5338 167.178C88.469 166.603 87.3437 165.948 86.2982 165.232C85.3737 164.676 86.4385 165.251 86.5596 165.411C86.4385 165.251 86.0368 165.053 85.836 164.954C85.3132 164.596 84.7905 164.239 84.287 163.74C84.0862 163.641 83.3819 163.044 84.0257 163.561C84.73 164.159 84.0257 163.561 83.8441 163.322C83.4012 162.904 82.9583 162.485 82.4548 161.987C81.6488 161.09 82.5759 162.147 82.5759 162.147C82.5759 162.147 82.1522 161.588 82.0917 161.508C81.7286 161.029 81.426 160.63 81.0629 160.151C81.6488 161.09 80.8402 159.692 80.6586 159.452C80.4771 159.213 80.4359 158.993 80.3341 158.693C80.3341 158.693 79.7869 157.474 80.0508 158.153C78.3652 153.775 78.7627 149.326 79.3997 144.694C80.7316 135.011 82.4625 125.026 87.0852 116.367C91.8869 107.447 98.9611 100.197 105.834 92.8489C120.06 77.7888 133.922 62.2499 149.9 49.0036C151.835 47.4107 153.85 45.7574 155.846 44.2443C156.564 43.6996 155.854 42.1007 155.632 41.6411C155.084 40.422 153.896 39.1862 152.79 38.3907C151.101 37.1576 148.347 35.3491 146.351 36.8621C129.19 49.8743 114.67 66.0377 99.9267 81.7416C92.8139 89.2716 85.2994 96.6034 79.6557 105.408C76.8339 109.81 74.6751 114.589 73.1382 119.526C71.6013 124.462 70.7468 129.635 69.8923 134.808C69.0571 139.841 68.3622 144.893 69.09 149.998C69.9414 155.763 73.1733 160.854 77.121 164.9C85.1954 172.73 96.1766 177.1 106.594 180.891C116.268 184.366 126.4 187.117 136.675 186.742C146.309 186.351 155.809 183.296 164.341 178.963C183.882 168.924 198.74 152.378 214.631 137.69C216.684 135.756 218.718 133.962 220.832 132.108C221.49 131.483 220.901 130.044 220.618 129.504C220.071 128.285 218.883 127.049 217.777 126.254C216.228 125.04 213.273 123.133 211.418 124.665Z" fill="#F0BE69"/>
<path d="M199.944 110.361C186.691 119.907 178.575 134.734 165.08 143.961C159.251 147.878 152.816 150.997 146.035 152.996C139.394 155.015 133.048 155.93 126.056 155.826C124.273 155.796 122.57 155.705 120.806 155.534C120.385 155.476 120.104 155.437 119.683 155.379C119.402 155.341 118.56 155.225 119.262 155.321C118.42 155.206 117.517 155.01 116.675 154.894C114.931 154.583 113.206 154.131 111.56 153.619C111.079 153.482 110.737 153.363 110.256 153.225C111.079 153.482 110.116 153.206 109.774 153.088C108.751 152.733 107.747 152.237 106.742 151.742C106.541 151.642 106.341 151.543 106.14 151.444C106.14 151.444 107.004 151.92 106.481 151.563C106.019 151.285 105.617 151.086 105.155 150.808C104.954 150.709 104.833 150.55 104.632 150.451C104.109 150.093 105.094 150.729 105.094 150.729C104.913 150.489 104.008 149.793 103.807 149.694C103.807 149.694 104.693 150.53 104.189 150.032C104.068 149.873 103.867 149.773 103.746 149.614C103.625 149.454 102.478 148.439 103.122 148.956C103.705 149.394 102.819 148.557 102.698 148.397C102.577 148.238 102.456 148.078 102.335 147.918C102.759 148.477 102.456 148.078 102.214 147.759C101.972 147.44 101.87 147.14 101.708 146.76C101.587 146.6 101.24 145.48 101.485 146.3C101.24 145.48 100.916 144.721 100.812 143.92C100.402 142.219 100.317 141.278 100.348 139.495C100.35 132.203 103.481 125.555 107.577 119.684C112.309 112.828 118.288 106.786 124.046 100.786C130.223 94.3423 136.744 88.5182 143.848 83.1318C150.952 77.7454 157.976 72.4195 165.14 67.1129C166.896 65.7814 168.652 64.45 170.408 63.1185C171.047 62.6343 170.417 60.9749 170.115 60.5758C169.487 59.4172 168.299 58.1814 167.193 57.3859C165.564 56.2326 162.75 54.3443 160.834 55.7968C153.411 61.4253 146.007 66.9135 138.584 72.542C131.161 78.1705 123.878 83.8183 117.382 90.5037C111.304 96.7461 105.066 103.11 99.7535 110.029C95.0379 116.244 91.109 123.497 90.3886 131.334C90.0464 134.862 90.4471 138.706 91.7065 142.025C93.5543 146.783 96.7398 150.653 100.644 153.977C107.645 159.73 116.555 162.528 125.396 163.743C139.771 165.791 155 162.665 167.685 155.687C174.717 151.863 180.841 146.843 186.36 141.024C192.458 134.641 197.85 127.661 204.371 121.837C206.006 120.346 207.682 119.075 209.438 117.743C210.077 117.259 209.447 115.6 209.144 115.201C208.517 114.042 207.329 112.806 206.223 112.011C204.613 110.717 201.859 108.909 199.944 110.361Z" fill="#FDD2A7"/>
<path d="M197.97 104.442C197.97 104.442 176.572 131.099 150.717 140.271C124.861 149.443 110.946 147.172 115.502 129.639C120.119 112.186 171.056 68.284 171.056 68.284L197.97 104.442Z" fill="#F0AD9D"/>
</svg>

