<svg width="257" height="255" viewBox="0 0 257 255" fill="none" xmlns="http://www.w3.org/2000/svg">
<path d="M28.2114 148.483C41.2348 132.09 51.8752 114.024 64.4317 97.2529C64.0533 97.7199 63.6119 98.2647 63.3114 98.7948C73.6273 85.1073 85.6259 72.5252 100.603 63.9037C100.069 64.2446 99.3945 64.6002 98.8605 64.9411C104.842 61.5362 111.194 58.9471 117.867 57.3925C117.1 57.5442 116.332 57.6959 115.643 57.9107C119.747 56.9816 124.037 56.4605 128.244 56.5176C127.321 56.5432 126.461 56.491 125.538 56.5166C130.309 56.5146 134.999 57.091 139.718 57.9491C138.702 57.7708 137.827 57.5777 136.812 57.3994C144.578 58.7924 152.136 60.9195 159.598 63.484C158.567 63.1648 157.6 62.7677 156.569 62.4485C162.344 64.549 168.008 66.946 173.434 69.7952C172.53 69.3203 171.548 68.7824 170.643 68.3075C173.964 70.0957 177.159 72.0395 180.039 74.3725C179.26 73.7419 178.482 73.1114 177.719 72.6218C179.508 74.072 181.235 75.6 182.836 77.2837C182.199 76.6384 181.625 75.9153 181.065 75.333C182.277 76.7015 183.425 78.1478 184.229 79.7014C183.874 79.0266 183.518 78.3517 183.084 77.6138C186.085 83.1388 188.207 89.1121 189.561 95.2371C189.424 94.6105 189.272 93.8431 189.135 93.2165C191.263 103.32 191.058 113.596 189.133 123.769C189.278 123.113 189.36 122.534 189.505 121.878C187.502 131.987 184.032 141.681 179.89 151.088C178.224 154.895 176.48 158.639 174.736 162.383C173.641 164.848 172.765 167.361 171.593 169.763C168.346 176.157 164.21 182.217 160.292 188.325C154.542 197.332 148.714 206.276 142.886 215.219C138.605 221.936 134.105 228.603 130.135 235.572C129.897 236.024 129.66 236.476 129.423 236.928C128.41 238.815 129.599 241.325 130.684 242.85C132.344 245.097 135.116 247.085 137.581 248.179C140.187 249.259 143.278 250.217 146.222 249.766C148.321 249.403 150.39 248.759 151.388 246.731C155.313 239.34 160.143 232.424 164.676 225.397C171.042 215.471 177.423 205.686 183.789 195.76C186.238 191.942 188.686 188.124 190.979 184.181C192.244 181.983 193.524 179.925 194.415 177.553C197.722 169.016 202.074 160.939 205.381 152.403C209.927 140.745 213.18 128.297 213.431 115.736C213.445 108.399 212.551 101.229 210.608 94.2401C209.675 90.7771 208.46 87.3437 206.979 84.0807C205.39 80.4728 203.582 76.8167 200.989 73.8129C194.715 66.281 186.551 61.084 177.881 56.5097C170.194 52.4733 162.047 49.4822 153.725 46.8655C145.481 44.3119 137.015 42.3513 128.496 41.2509C118.461 39.9533 108.414 40.5799 98.6512 43.242C90.2828 45.6153 82.5143 49.635 75.3349 54.5186C68.3446 59.1688 61.9582 64.8239 56.1796 70.8425C41.9928 85.6482 31.3081 103.291 19.7526 120.1C16.911 124.244 13.9286 128.402 10.8683 132.498C11.2466 132.031 11.688 131.486 11.9886 130.956C10.8052 132.576 9.60713 134.054 8.34597 135.611C7.55974 136.263 7.07005 137.027 7.03254 138.028C6.71326 139.058 6.81663 140.044 7.26483 140.923C8.07942 143.259 10.5215 145.495 12.5785 146.775C15.1655 148.356 18.2235 149.673 21.382 149.911C22.3051 149.886 23.1652 149.938 24.0883 149.912C25.6528 149.89 26.9542 149.398 28.2114 148.483Z" fill="#C4D7D1"/>
<path d="M47.0326 150.71C59.326 133.468 68.7547 114.034 83.6016 98.7317C90.0886 91.9978 97.4464 86.0984 105.934 82.1457C109.731 80.3231 114.292 78.9901 118.63 78.2502C119.193 78.1911 119.679 78.069 120.305 77.932C120.587 77.9025 120.869 77.8729 121.151 77.8433C120.524 77.9803 121.292 77.8286 121.292 77.8286C122.56 77.6956 123.827 77.5626 125.032 77.5074C127.442 77.397 129.789 77.3645 132.15 77.4729C133.292 77.4956 134.371 77.596 135.513 77.6187C135.732 77.667 136.451 77.734 135.513 77.6187C135.795 77.5892 136.091 77.7005 136.373 77.6709C137.092 77.7379 137.811 77.8049 138.453 77.8089C140.751 77.9951 143.064 78.3221 145.3 78.5862C147.754 78.8985 150.286 79.2739 152.691 79.8049C152.988 79.9162 153.27 79.8866 153.566 79.998C153.785 80.0462 154.66 80.2394 153.926 80.0315C153.192 79.8236 154.145 80.0798 154.363 80.128C154.66 80.2394 154.942 80.2098 155.238 80.3211C156.409 80.6255 157.659 80.993 158.845 81.4383C159.875 81.7575 158.704 81.4531 158.548 81.327C158.704 81.4531 159.141 81.5497 159.36 81.5979C159.953 81.8206 160.546 82.0433 161.154 82.4068C161.373 82.4551 162.199 82.8669 161.451 82.5181C160.624 82.1063 161.451 82.5181 161.684 82.7073C162.214 83.0078 162.744 83.3083 163.352 83.6718C164.349 84.3506 163.196 83.5457 163.196 83.5457C163.196 83.5457 163.741 83.9871 163.819 84.0501C164.286 84.4284 164.675 84.7437 165.142 85.122C164.349 84.3506 165.468 85.5151 165.701 85.7043C165.935 85.8934 166.028 86.0974 166.198 86.3644C166.198 86.3644 167.02 87.4176 166.602 86.8205C169.284 90.6697 169.961 95.0854 170.448 99.7346C171.467 109.456 172.171 119.566 169.749 129.078C167.217 138.887 162.078 147.616 157.159 156.393C146.941 174.414 137.19 192.814 124.838 209.492C123.339 211.501 121.777 213.588 120.201 215.534C119.633 216.234 120.704 217.617 121.03 218.011C121.853 219.064 123.302 219.98 124.566 220.488C126.501 221.282 129.607 222.381 131.184 220.435C144.741 203.701 154.981 184.538 165.548 165.768C170.657 156.757 176.203 147.843 179.581 137.946C181.27 132.997 182.225 127.841 182.539 122.68C182.852 117.52 182.447 112.292 182.041 107.065C181.651 101.978 181.119 96.9061 179.193 92.1229C176.99 86.7279 172.635 82.5556 167.836 79.5694C158.125 73.8936 146.418 72.273 135.397 71.0789C125.173 70.0149 114.678 69.7627 104.789 72.5804C95.5271 75.2611 87.0314 80.4965 79.7809 86.7407C63.2031 101.156 52.7252 120.772 40.8021 138.83C39.27 141.198 37.723 143.426 36.1131 145.731C35.6234 146.494 36.5385 147.752 36.9424 148.208C37.765 149.261 39.2141 150.177 40.4781 150.686C42.2721 151.494 45.597 152.641 47.0326 150.71Z" fill="#F0BE69"/>
<path d="M61.5895 161.86C72.1792 149.425 76.5201 133.089 87.4211 120.907C92.1465 115.711 97.6501 111.145 103.758 107.585C109.724 104.039 115.668 101.635 122.483 100.066C124.221 99.6696 125.897 99.3514 127.651 99.0962C128.074 99.0519 128.355 99.0223 128.778 98.978C129.06 98.9484 129.905 98.8597 129.201 98.9336C130.046 98.845 130.969 98.8193 131.814 98.7307C133.583 98.6164 135.366 98.643 137.086 98.7474C137.587 98.7661 137.946 98.7996 138.447 98.8184C137.587 98.7661 138.588 98.8036 138.947 98.8371C140.026 98.9376 141.12 99.1789 142.213 99.4203C142.432 99.4686 142.65 99.5169 142.869 99.5651C142.869 99.5651 141.917 99.309 142.51 99.5317C143.025 99.6913 143.462 99.7878 143.977 99.9474C144.196 99.9957 144.352 100.122 144.571 100.17C145.164 100.393 144.055 100.01 144.055 100.01C144.289 100.2 145.334 100.66 145.553 100.708C145.553 100.708 144.493 100.107 145.101 100.471C145.256 100.597 145.475 100.645 145.631 100.771C145.786 100.897 147.143 101.609 146.394 101.261C145.723 100.975 146.783 101.576 146.939 101.702C147.095 101.828 147.25 101.954 147.406 102.08C146.861 101.639 147.25 101.954 147.561 102.206C147.873 102.459 148.043 102.726 148.291 103.056C148.447 103.182 149.051 104.187 148.617 103.449C149.051 104.187 149.547 104.847 149.84 105.6C150.644 107.153 150.951 108.047 151.347 109.786C153.086 116.867 151.634 124.07 149.058 130.75C146.1 138.538 141.737 145.832 137.578 153.034C133.118 160.766 128.177 167.979 122.565 174.906C116.953 181.833 111.404 188.682 105.714 195.546C104.326 197.258 102.939 198.97 101.552 200.683C101.047 201.305 102.055 202.766 102.444 203.082C103.33 204.057 104.779 204.973 106.043 205.482C107.9 206.213 111.084 207.374 112.598 205.506C118.462 198.268 124.341 191.171 130.205 183.932C136.07 176.694 141.793 169.47 146.505 161.427C150.916 153.914 155.454 146.245 158.96 138.257C162.055 131.096 164.139 123.115 162.967 115.332C162.457 111.825 161.15 108.188 159.134 105.266C156.204 101.086 152.186 98.0893 147.601 95.7928C139.428 91.8786 130.109 91.2894 121.233 92.2204C106.785 93.6648 92.7426 100.337 82.091 110.142C76.1756 115.534 71.4275 121.872 67.4577 128.841C63.0612 136.495 59.4913 144.56 54.55 151.773C53.3184 153.612 51.9942 155.246 50.6069 156.958C50.1024 157.581 51.1102 159.042 51.4993 159.357C52.3849 160.333 53.8341 161.249 55.0981 161.757C56.9698 162.629 60.0761 163.728 61.5895 161.86Z" fill="#FDD2A7"/>
<path d="M64.9201 167.136C64.9201 167.136 79.3327 136.141 102.25 121.06C125.168 105.98 139.223 104.861 138.985 122.975C138.669 141.026 99.6894 195.822 99.6894 195.822L64.9201 167.136Z" fill="#F0AD9D"/>
</svg>
