<svg xmlns="http://www.w3.org/2000/svg" viewBox="0 0 46 46">
  <defs>
    <style>
      .cls-1 {
        fill: #fcebca;
      }

      .cls-2 {
        fill: #cf8945;
      }
    </style>
  </defs>
  <title>JeviFavicon</title>
  <g id="Layer_2" data-name="Layer 2">
    <g id="Layer_1-2" data-name="Layer 1">
      <rect class="cls-1" x="0.5" y="0.5" width="45" height="45" />
      <path class="cls-2"
        d="M20.45,36.5a2.69,2.69,0,0,0,2.28-1.35A8.34,8.34,0,0,0,24,31.89a35.64,35.64,0,0,0,.48-3.84c.1-1.28.13-2.36.11-3.24l0-1.36V14.26c0-1.95-.34-3.19-1-3.71A3.77,3.77,0,0,0,21.31,10V9.44H34.18V10c-1.57,0-2.54.61-2.92,1.82A8.49,8.49,0,0,0,31,14.26v9.19a23.37,23.37,0,0,1-.68,6.35c-1.45,4.82-4.35,6.73-9.84,6.76" />
      <path class="cls-2"
        d="M19.72,27.14c-.87-.06-1.73,1.9-1.92,4.4,0,.08,0,.17,0,.26-.2-.21-.42-.42-.65-.63-2.05-1.84-4.32-2.65-5.07-1.81s.29,3,2.34,4.85,4.32,2.66,5.08,1.82v0c.69-.51,1.29-2.2,1.45-4.24C21.13,29.28,20.58,27.21,19.72,27.14Z" />
    </g>
  </g>
</svg>
