<svg width="512" height="267" viewBox="0 0 512 267" fill="none" xmlns="http://www.w3.org/2000/svg">
<path d="M444.143 263.679L445.28 230.143L420.138 226.337L418.606 264.054" fill="white"/>
<path d="M418.606 264.572C418.473 264.566 418.347 264.509 418.256 264.412C418.165 264.316 418.116 264.187 418.118 264.054L419.651 226.326C419.652 226.254 419.67 226.183 419.701 226.118C419.733 226.054 419.778 225.996 419.834 225.951C419.888 225.905 419.951 225.872 420.02 225.854C420.089 225.837 420.16 225.835 420.23 225.849L445.381 229.656C445.503 229.675 445.614 229.739 445.692 229.834C445.771 229.929 445.812 230.05 445.808 230.173L444.671 263.668C444.668 263.735 444.652 263.8 444.624 263.861C444.597 263.922 444.557 263.976 444.508 264.021C444.459 264.067 444.401 264.102 444.339 264.125C444.276 264.148 444.21 264.158 444.143 264.155C444.076 264.153 444.011 264.137 443.95 264.109C443.89 264.081 443.835 264.042 443.79 263.993C443.745 263.944 443.71 263.886 443.687 263.823C443.664 263.761 443.653 263.694 443.656 263.628L444.762 230.6L420.615 226.946L419.113 264.095C419.105 264.224 419.048 264.345 418.954 264.434C418.86 264.523 418.735 264.572 418.606 264.572Z" fill="#231F20"/>
<path d="M312.021 261.197L340.786 227.093L366.506 233.386L333.732 266.911" fill="white"/>
<path d="M333.736 266.988C333.602 266.986 333.475 266.932 333.381 266.836C333.334 266.79 333.296 266.734 333.27 266.673C333.245 266.612 333.232 266.547 333.232 266.481C333.232 266.415 333.245 266.349 333.27 266.288C333.296 266.227 333.334 266.172 333.381 266.126L374.95 221.667L350.398 215.659L312.411 261.091C312.321 261.191 312.197 261.253 312.063 261.264C311.929 261.276 311.796 261.236 311.69 261.152C311.588 261.064 311.525 260.939 311.513 260.804C311.502 260.669 311.544 260.536 311.629 260.431L349.88 214.765C349.94 214.693 350.02 214.639 350.11 214.611C350.2 214.582 350.296 214.579 350.387 214.603L376.108 220.886C376.193 220.91 376.271 220.956 376.335 221.018C376.399 221.08 376.446 221.156 376.473 221.241C376.497 221.328 376.498 221.419 376.476 221.506C376.455 221.593 376.412 221.673 376.351 221.739L334.152 266.795C334.102 266.857 334.038 266.906 333.966 266.939C333.894 266.973 333.816 266.99 333.736 266.988Z" fill="#231F20"/>
<path d="M432.927 77.5068C432.927 77.5068 393.829 88.2252 394.205 89.7477C394.581 91.2702 402.213 119.467 402.213 119.467L426.573 113.377L432.927 77.5068Z" fill="black"/>
<path d="M433.719 77.2734C433.719 77.2734 421.305 80.6026 413.693 84.9874C406.08 89.3722 408.171 136.103 408.171 136.103L464.575 147.471C464.575 147.471 475.314 117.122 474.583 103.268C473.852 89.4128 465.285 69.7624 433.719 77.2734Z" fill="black"/>
<path d="M405.634 113.326C405.57 113.341 405.505 113.341 405.441 113.326C405.314 113.272 405.214 113.171 405.161 113.044C405.107 112.917 405.106 112.774 405.157 112.646C408.841 103.582 414.393 89.7579 414.546 88.7937C414.547 88.7261 414.562 88.6595 414.589 88.5978C414.616 88.536 414.656 88.4804 414.705 88.434C414.754 88.3877 414.812 88.3517 414.875 88.328C414.939 88.3044 415.006 88.2936 415.073 88.2963C415.213 88.3016 415.344 88.3605 415.441 88.4609C415.537 88.5612 415.591 88.695 415.591 88.8343C415.591 89.7072 408.973 106.089 406.121 113.042C406.076 113.131 406.006 113.206 405.92 113.256C405.833 113.307 405.734 113.331 405.634 113.326Z" fill="#231F20"/>
<path d="M437.17 71.5796L433.191 83.5363C433.191 83.5363 433.09 90.6413 440.976 90.0222C443.306 89.8139 445.56 89.0902 447.575 87.9035C449.59 86.7168 451.316 85.0968 452.628 83.1608L455.958 61.724C454.751 60.6714 453.983 59.2045 453.806 57.6132C453.631 56.4221 453.666 55.2096 453.907 54.0303C454.278 52.4466 454.869 50.9228 455.663 49.5034C451.913 48.9181 448.473 47.0748 445.909 44.2761C445.3 43.5323 444.73 42.7564 444.204 41.9518C443.96 41.5762 438.956 43.9209 438.429 44.1848C435.85 45.3213 433.651 47.1743 432.095 49.5237C431.063 51.5538 430.409 53.7551 430.166 56.0197C429.575 59.1315 429.276 62.2917 429.273 65.4592C429.334 71.4984 437.17 71.5796 437.17 71.5796Z" fill="white"/>
<path d="M439.992 90.5292C438.134 90.6182 436.314 89.9813 434.917 88.7529C433.547 87.3588 432.769 85.4898 432.745 83.5358C432.74 83.4886 432.74 83.441 432.745 83.3937L436.53 72.0156C434.602 71.8329 428.867 70.8483 428.816 65.4891C428.821 62.2977 429.123 59.1137 429.72 55.9786C429.982 53.6469 430.67 51.3831 431.75 49.2999C433.318 46.875 435.552 44.9543 438.185 43.7681C444.021 40.8855 444.407 41.4742 444.549 41.7381C444.549 41.7381 445.564 43.3215 446.214 44.0117C448.705 46.7427 452.059 48.5345 455.714 49.0867C455.785 49.1002 455.852 49.1302 455.909 49.1745C455.966 49.2188 456.012 49.2759 456.042 49.3413C456.073 49.4067 456.088 49.4784 456.085 49.5506C456.083 49.6228 456.064 49.6934 456.029 49.7566C455.254 51.1378 454.677 52.6205 454.313 54.1617C454.09 55.292 454.059 56.4518 454.222 57.5924C454.376 59.0638 455.079 60.423 456.191 61.3987C456.26 61.4462 456.314 61.5126 456.347 61.59C456.379 61.6674 456.388 61.7525 456.374 61.8351L453.045 83.2719C453.035 83.3327 453.014 83.3912 452.984 83.4445C451.644 85.4564 449.868 87.1402 447.787 88.3704C445.706 89.6006 443.375 90.3454 440.966 90.5495C440.651 90.5292 440.316 90.5292 439.992 90.5292ZM433.638 83.617C433.686 85.2876 434.355 86.8802 435.515 88.083C436.258 88.6997 437.124 89.1509 438.056 89.4065C438.987 89.662 439.962 89.716 440.915 89.5649C443.154 89.3576 445.321 88.6634 447.264 87.5307C449.206 86.3981 450.878 84.8545 452.161 83.008L455.44 61.9163C454.265 60.7945 453.518 59.2975 453.329 57.6838C453.144 56.4567 453.171 55.2069 453.41 53.9892C453.736 52.5747 454.248 51.2096 454.932 49.9292C451.307 49.2525 448.001 47.414 445.513 44.6918C444.985 44.0929 444.204 42.9358 443.899 42.4892C442.084 43.1102 440.31 43.8493 438.591 44.7019C436.117 45.8142 434.006 47.6012 432.501 49.8581C431.49 51.8484 430.843 54.0038 430.593 56.2222C430.01 59.3044 429.711 62.4335 429.7 65.5703C429.76 71.0716 436.805 71.2137 437.129 71.2239C437.201 71.2242 437.272 71.2419 437.336 71.2755C437.399 71.3091 437.454 71.3575 437.495 71.4167C437.538 71.4756 437.568 71.544 437.58 71.6163C437.592 71.6886 437.587 71.7628 437.566 71.8329L433.638 83.617Z" fill="#231F20"/>
<path d="M451.756 59.8057C452.14 58.9533 452.783 58.2433 453.593 57.7757C454.376 57.3685 455.224 57.1007 456.1 56.9839C456.57 56.8725 457.06 56.8725 457.531 56.9839C457.856 57.0889 458.156 57.2581 458.414 57.4813C459.073 57.9406 459.545 58.6215 459.744 59.3997C459.826 60.0436 459.753 60.698 459.53 61.3078C459.34 61.9848 459.06 62.6333 458.698 63.2363C458.324 63.8307 457.836 64.3448 457.262 64.7488C456.688 65.1528 456.039 65.4387 455.353 65.5898C454.668 65.7409 453.959 65.7542 453.268 65.629C452.577 65.5038 451.918 65.2425 451.329 64.8603" fill="white"/>
<path d="M454.222 66.0376C453.117 66.0386 452.035 65.7214 451.106 65.1241C451.016 65.0659 450.953 64.9746 450.93 64.8701C450.907 64.7655 450.927 64.6562 450.984 64.5659C451.012 64.5204 451.049 64.481 451.092 64.45C451.136 64.4191 451.185 64.3973 451.237 64.3859C451.289 64.3746 451.343 64.3739 451.396 64.3838C451.448 64.3938 451.498 64.4143 451.542 64.4441C452.088 64.796 452.699 65.0364 453.338 65.1513C453.977 65.2663 454.633 65.2536 455.267 65.114C456.526 64.8137 457.619 64.0345 458.312 62.9419C458.657 62.3677 458.924 61.7498 459.104 61.1047C459.301 60.5593 459.371 59.976 459.307 59.3995C459.122 58.7184 458.706 58.1228 458.13 57.7146C457.906 57.5293 457.652 57.385 457.379 57.2883C456.967 57.1981 456.541 57.1981 456.13 57.2883C455.302 57.4033 454.499 57.6572 453.755 58.0394C453.013 58.47 452.429 59.1285 452.09 59.9172C452.071 59.9664 452.041 60.0111 452.003 60.0487C451.966 60.0862 451.921 60.1158 451.872 60.1357C451.822 60.1556 451.77 60.1654 451.717 60.1644C451.664 60.1635 451.611 60.1519 451.563 60.1303C451.512 60.1116 451.467 60.0827 451.428 60.0453C451.39 60.008 451.36 59.963 451.34 59.9134C451.32 59.8637 451.31 59.8105 451.312 59.7569C451.314 59.7034 451.326 59.6508 451.349 59.6025C451.761 58.6464 452.474 57.8514 453.379 57.3391C454.202 56.9127 455.091 56.6279 456.008 56.4966C456.543 56.3748 457.098 56.3748 457.632 56.4966C458 56.6227 458.344 56.8116 458.647 57.0549C459.382 57.5791 459.905 58.3499 460.119 59.227C460.217 59.9317 460.141 60.6498 459.896 61.3179C459.696 62.0303 459.403 62.713 459.023 63.3479C458.619 63.9876 458.093 64.5411 457.475 64.9766C456.856 65.4121 456.158 65.7209 455.42 65.8854C455.027 65.9798 454.626 66.0308 454.222 66.0376Z" fill="#231F20"/>
<path d="M435.14 77.8925C438.036 78.1848 440.944 77.4676 443.372 75.8625C447.229 73.1727 447.432 69.7725 447.432 69.7725C444.2 71.1714 440.685 71.7903 437.17 71.5792L435.14 77.8925Z" fill="#231F20"/>
<path d="M436.297 78.4001C435.883 78.4049 435.469 78.3811 435.059 78.329C434.994 78.3203 434.932 78.2975 434.877 78.2622C434.822 78.2269 434.776 78.1801 434.741 78.125C434.706 78.0698 434.684 78.0077 434.676 77.943C434.667 77.8783 434.673 77.8126 434.693 77.7505L436.723 71.4473C436.755 71.3546 436.816 71.2743 436.896 71.2179C436.976 71.1614 437.072 71.1316 437.17 71.1327C440.607 71.3003 444.037 70.668 447.188 69.2854C447.256 69.2481 447.333 69.2285 447.411 69.2285C447.489 69.2285 447.566 69.2481 447.635 69.2854C447.699 69.3286 447.752 69.3876 447.788 69.4569C447.823 69.5262 447.84 69.6034 447.838 69.6812C447.838 69.8335 447.594 73.3758 443.605 76.1671C441.45 77.6324 438.903 78.4109 436.297 78.4001ZM435.718 77.4866C438.329 77.6181 440.913 76.9064 443.087 75.4566C444.888 74.2862 446.207 72.5061 446.802 70.4425C443.832 71.5998 440.66 72.1486 437.474 72.0563L435.718 77.4866Z" fill="#231F20"/>
<path d="M442.458 51.0664C442.458 51.0664 437.383 56.1414 438.094 57.4C438.804 58.6586 441.595 58.415 441.595 58.415" fill="white"/>
<path d="M441.23 58.9024C440.357 58.9024 438.408 58.7705 437.718 57.6337C436.886 56.2736 440.54 52.3658 442.154 50.752C442.195 50.7093 442.245 50.6754 442.3 50.6523C442.355 50.6291 442.414 50.6172 442.473 50.6172C442.533 50.6172 442.592 50.6291 442.647 50.6523C442.702 50.6754 442.751 50.7093 442.793 50.752C442.877 50.8373 442.924 50.9521 442.924 51.0717C442.924 51.1913 442.877 51.306 442.793 51.3914C440.215 53.9898 438.185 56.639 438.479 57.1668C438.956 57.9686 440.915 58.0295 441.524 57.9991C441.643 57.996 441.759 58.0385 441.847 58.1177C441.936 58.1969 441.991 58.3069 442.001 58.4254C442.004 58.484 441.995 58.5427 441.975 58.5979C441.955 58.6531 441.925 58.7039 441.885 58.7472C441.845 58.7906 441.798 58.8257 441.744 58.8506C441.691 58.8755 441.634 58.8897 441.575 58.8923L441.23 58.9024Z" fill="#231F20"/>
<path d="M434.673 61.3888L444.549 61.2568C444.549 61.2568 444.102 67.9558 438.358 68.3618C432.613 68.7678 434.673 61.3888 434.673 61.3888Z" fill="#231F20"/>
<path d="M444.793 51.0762C444.922 50.797 445.122 50.5564 445.373 50.3784C445.624 50.2004 445.917 50.091 446.224 50.0612C447.361 49.8785 447.939 51.2081 447.939 51.2081" fill="white"/>
<path d="M447.939 51.614C447.851 51.6157 447.765 51.5916 447.691 51.5447C447.617 51.4978 447.559 51.4301 447.523 51.3501C447.523 51.3501 447.076 50.3351 446.295 50.4671C446.066 50.4895 445.847 50.5704 445.659 50.7019C445.47 50.8335 445.319 51.0112 445.219 51.2182C445.178 51.3306 445.094 51.4223 444.986 51.4735C444.877 51.5248 444.753 51.5315 444.64 51.4922C444.531 51.4531 444.441 51.3729 444.39 51.2687C444.339 51.1644 444.33 51.0444 444.366 50.934C444.514 50.57 444.756 50.2525 445.069 50.0149C445.381 49.7773 445.752 49.6284 446.143 49.584C447.604 49.3404 448.315 50.9238 448.345 50.9949C448.369 51.0489 448.381 51.1069 448.382 51.1658C448.383 51.2246 448.372 51.2831 448.351 51.3378C448.329 51.3925 448.297 51.4424 448.256 51.4846C448.215 51.5267 448.166 51.5604 448.112 51.5836L447.939 51.614Z" fill="#231F20"/>
<path d="M435.647 50.2137C435.777 49.9345 435.977 49.6939 436.228 49.5159C436.479 49.3378 436.772 49.2285 437.079 49.1987C438.215 49.0058 438.794 50.3456 438.794 50.3456" fill="white"/>
<path d="M438.794 50.7618C438.705 50.7626 438.618 50.737 438.544 50.6882C438.47 50.6394 438.412 50.5696 438.378 50.4877C438.378 50.4877 437.931 49.4727 437.15 49.6148C436.92 49.6353 436.7 49.7154 436.512 49.8471C436.323 49.9789 436.172 50.1577 436.074 50.3659C436.032 50.4783 435.949 50.57 435.841 50.6212C435.732 50.6725 435.608 50.6792 435.495 50.6399C435.385 50.5987 435.295 50.5165 435.244 50.4107C435.193 50.3048 435.185 50.1834 435.221 50.0716C435.37 49.7088 435.613 49.3924 435.926 49.155C436.238 48.9177 436.608 48.7681 436.997 48.7216C438.459 48.478 439.17 50.0715 439.2 50.1324C439.225 50.1862 439.239 50.2445 439.24 50.3037C439.242 50.3629 439.232 50.4219 439.21 50.477C439.188 50.532 439.155 50.5821 439.113 50.6241C439.071 50.6661 439.021 50.6991 438.966 50.7211C438.913 50.7479 438.854 50.7618 438.794 50.7618Z" fill="#231F20"/>
<path d="M463.448 146.75L455.369 254.553L321.064 227.098L410.343 135.504L463.448 146.75Z" fill="#231F20"/>
<path d="M405.634 67.6712L247.903 93.9597L317.288 23.4375L405.634 67.6712Z" fill="#231F20"/>
<path d="M247.903 94.468C247.803 94.4686 247.705 94.4395 247.621 94.3844C247.537 94.3294 247.472 94.2507 247.433 94.1585C247.394 94.0662 247.383 93.9644 247.401 93.866C247.42 93.7675 247.467 93.6768 247.538 93.6053L316.923 23.0729C316.999 22.9976 317.097 22.9482 317.202 22.9318C317.308 22.9154 317.416 22.9328 317.512 22.9816L405.817 67.2254C405.915 67.2694 405.996 67.3455 406.046 67.4414C406.096 67.5373 406.111 67.6472 406.091 67.7532C406.081 67.8586 406.039 67.9583 405.969 68.0383C405.9 68.1184 405.808 68.1749 405.705 68.1998L247.984 94.4579L247.903 94.468ZM317.4 24.0575L249.395 93.1993L404.01 67.4284L317.4 24.0575Z" fill="#231F20"/>
<path d="M420.199 173.485L271.41 200.251L248.106 94.894L405.756 68.6055L420.199 173.485Z" fill="#231F20"/>
<path d="M271.42 200.758C271.304 200.761 271.191 200.723 271.1 200.65C271.009 200.578 270.947 200.476 270.923 200.363L247.578 94.9954C247.55 94.8625 247.576 94.724 247.649 94.6097C247.687 94.55 247.738 94.4993 247.798 94.4607C247.857 94.4222 247.924 94.3969 247.994 94.3864L405.705 68.0979C405.841 68.0771 405.979 68.1099 406.091 68.1893C406.146 68.23 406.193 68.2816 406.228 68.3409C406.263 68.4003 406.285 68.4661 406.294 68.5344L420.737 173.414C420.747 173.479 420.744 173.545 420.729 173.609C420.714 173.672 420.686 173.732 420.647 173.785C420.608 173.838 420.56 173.882 420.504 173.916C420.448 173.95 420.386 173.973 420.321 173.983L271.502 200.748L271.42 200.758ZM248.715 95.2999L271.806 199.672L419.631 173.069L405.329 69.2144L248.715 95.2999Z" fill="#231F20"/>
<path d="M283.905 165.386C283.905 165.386 256.5 80.7959 243.305 55.0758L390.206 15.0645L399.341 145.999L283.905 165.386Z" fill="black"/>
<path d="M269.035 69.8739C268.922 69.8745 268.813 69.8366 268.724 69.7665C268.635 69.6964 268.573 69.5983 268.548 69.4882C268.514 69.359 268.532 69.2216 268.598 69.1056C268.665 68.9897 268.774 68.9047 268.903 68.8691L376.93 40.8652C377.064 40.8316 377.207 40.8528 377.326 40.9242C377.445 40.9955 377.53 41.1113 377.564 41.2459C377.598 41.3805 377.577 41.5229 377.505 41.6419C377.434 41.7608 377.318 41.8466 377.183 41.8802L269.157 69.8536L269.035 69.8739Z" fill="white"/>
<path d="M273.603 87.5859C273.488 87.5879 273.376 87.5493 273.287 87.4768C273.198 87.4044 273.137 87.3028 273.115 87.19C273.101 87.1253 273.099 87.0583 273.11 86.9929C273.122 86.9275 273.146 86.8651 273.182 86.8092C273.218 86.7534 273.265 86.7054 273.32 86.6679C273.374 86.6305 273.436 86.6044 273.501 86.5912L378.097 63.1244C378.232 63.0961 378.372 63.1224 378.487 63.1976C378.602 63.2728 378.683 63.3907 378.711 63.5253C378.739 63.6599 378.713 63.8002 378.638 63.9153C378.563 64.0305 378.445 64.1111 378.31 64.1394L273.755 87.5757L273.603 87.5859Z" fill="white"/>
<path d="M282.565 104.161C282.448 104.163 282.333 104.123 282.242 104.049C282.151 103.975 282.089 103.87 282.068 103.755C282.054 103.69 282.054 103.622 282.067 103.557C282.079 103.491 282.105 103.429 282.142 103.373C282.178 103.318 282.226 103.27 282.281 103.233C282.336 103.195 282.398 103.169 282.464 103.156L382.492 83.7289C382.557 83.7156 382.623 83.7154 382.688 83.7282C382.753 83.741 382.814 83.7665 382.869 83.8034C382.924 83.8402 382.971 83.8876 383.007 83.9428C383.044 83.998 383.068 84.0598 383.081 84.1247C383.095 84.1901 383.097 84.2578 383.085 84.3238C383.073 84.3898 383.047 84.4526 383.01 84.5086C382.973 84.5645 382.926 84.6124 382.87 84.6493C382.814 84.6863 382.751 84.7115 382.685 84.7236L282.657 104.151L282.565 104.161Z" fill="white"/>
<path d="M287.325 125.313C287.191 125.324 287.058 125.281 286.955 125.193C286.852 125.106 286.788 124.981 286.777 124.846C286.767 124.712 286.81 124.578 286.897 124.475C286.985 124.373 287.11 124.309 287.244 124.298L382.126 108.86C382.261 108.838 382.399 108.871 382.509 108.951C382.62 109.031 382.694 109.152 382.715 109.286C382.737 109.421 382.704 109.559 382.624 109.669C382.544 109.779 382.423 109.853 382.289 109.875L287.407 125.303L287.325 125.313Z" fill="white"/>
<path d="M337.345 135.646L248.106 94.894L271.41 200.251L420.199 173.485L405.756 68.6055L337.345 135.646Z" fill="white"/>
<path d="M271.42 200.759C271.304 200.761 271.191 200.723 271.1 200.651C271.009 200.578 270.947 200.477 270.923 200.363L247.578 94.9959C247.558 94.9034 247.564 94.8072 247.595 94.718C247.627 94.6287 247.683 94.5501 247.757 94.491C247.831 94.4319 247.92 94.3946 248.014 94.3834C248.108 94.3722 248.203 94.3874 248.289 94.4275L337.213 135.027L405.4 68.1999C405.467 68.1326 405.552 68.0856 405.645 68.064C405.737 68.0425 405.834 68.0473 405.924 68.078C406.014 68.1086 406.093 68.1639 406.153 68.2375C406.213 68.3111 406.251 68.4 406.263 68.4942L420.707 173.374C420.717 173.439 420.714 173.505 420.699 173.568C420.683 173.632 420.655 173.692 420.617 173.745C420.578 173.798 420.529 173.842 420.473 173.876C420.417 173.91 420.355 173.933 420.29 173.943L271.502 200.749L271.42 200.759ZM248.816 95.7774L271.806 199.673L419.631 173.07L405.421 69.6716L337.7 136.012C337.626 136.083 337.531 136.13 337.43 136.146C337.328 136.162 337.224 136.148 337.132 136.103L248.816 95.7774Z" fill="#231F20"/>
<path d="M420.209 173.486L271.42 200.251L337.355 135.646L420.209 173.486Z" fill="white"/>
<path d="M271.42 200.759C271.326 200.76 271.234 200.735 271.153 200.686C271.073 200.638 271.007 200.568 270.964 200.485C270.915 200.389 270.898 200.28 270.916 200.173C270.935 200.067 270.987 199.97 271.065 199.896L337.04 135.281C337.115 135.21 337.209 135.163 337.31 135.147C337.412 135.131 337.516 135.146 337.609 135.19L420.453 173.019C420.551 173.065 420.632 173.141 420.685 173.235C420.738 173.33 420.76 173.439 420.747 173.547C420.734 173.653 420.688 173.752 420.615 173.831C420.542 173.909 420.446 173.962 420.341 173.983L271.512 200.759H271.42ZM337.456 136.256L272.953 199.46L418.514 173.273L337.456 136.256Z" fill="#231F20"/>
<path d="M420.209 173.486L271.42 200.251L337.355 135.646L420.209 173.486Z" fill="white"/>
<path d="M271.42 200.759C271.326 200.76 271.234 200.735 271.153 200.686C271.073 200.638 271.007 200.568 270.964 200.485C270.915 200.389 270.898 200.28 270.916 200.173C270.935 200.067 270.987 199.97 271.065 199.896L337.04 135.281C337.115 135.21 337.209 135.163 337.31 135.147C337.412 135.131 337.516 135.146 337.609 135.19L420.453 173.019C420.551 173.065 420.632 173.141 420.685 173.235C420.738 173.33 420.76 173.439 420.747 173.547C420.734 173.653 420.688 173.752 420.615 173.831C420.542 173.909 420.446 173.962 420.341 173.983L271.512 200.759H271.42ZM337.456 136.256L272.953 199.46L418.514 173.273L337.456 136.256Z" fill="#231F20"/>
<path d="M409.856 28.3096C409.856 28.3096 407.694 36.4296 400.863 36.6326C400.863 36.6326 408.07 38.6626 409.582 45.4225C410.254 43.547 411.363 41.8586 412.817 40.4976C414.272 39.1366 416.03 38.1421 417.946 37.5968C415.984 36.7592 414.238 35.4887 412.837 33.8803C411.436 32.272 410.417 30.3675 409.856 28.3096Z" fill="white"/>
<path d="M213.697 90.012C213.697 90.012 219.148 97.8072 214.317 103.836C214.317 103.836 221.31 99.0861 228.253 102.71C227.123 100.765 226.474 98.5796 226.359 96.3341C226.245 94.0886 226.667 91.8481 227.593 89.7988C227.593 89.7988 221.655 93.3919 213.697 90.012Z" fill="white"/>
<path d="M262.59 26.4521C262.59 26.4521 263.737 40.0328 253.455 44.0218C253.455 44.0218 265.523 43.1692 271.522 52.6493C271.522 52.6493 271.096 42.2557 279.987 36.1962C279.906 36.1962 269.979 36.3788 262.59 26.4521Z" fill="white"/>
<path d="M457.937 94.8027C457.937 94.8027 379.061 134.804 367.054 137.098C355.046 139.392 340.765 135.382 341.334 138.813C341.902 142.244 348.763 143.949 348.763 143.949C348.763 143.949 327.053 147.38 328.189 149.674C329.326 151.968 343.628 149.095 343.628 149.095C343.628 149.095 325.906 154.241 329.905 156.525C333.904 158.809 346.48 153.673 346.48 153.673C346.48 153.673 327.621 163.386 332.767 163.955C337.913 164.523 347.058 159.387 347.058 159.387C347.058 159.387 332.767 166.817 338.482 167.385C344.196 167.954 429.354 137.666 457.937 120.523" fill="white"/>
<path d="M338.654 167.903H338.431C337.365 167.792 336.756 167.426 336.644 166.817C336.472 165.904 337.741 164.625 339.507 163.326C337.341 164.166 335.027 164.556 332.706 164.473C331.925 164.381 331.478 164.087 331.387 163.569C331.102 162.047 336.096 158.829 340.735 156.2C336.807 157.347 331.965 158.301 329.651 156.982C329.387 156.872 329.164 156.681 329.015 156.437C328.865 156.192 328.797 155.907 328.819 155.622C329.012 154.018 333.132 152.14 337.101 150.699C332.94 151.217 328.484 151.389 327.733 149.907C327.665 149.777 327.63 149.633 327.63 149.486C327.63 149.339 327.665 149.195 327.733 149.065C328.748 147.035 341.08 144.731 346.591 143.807C344.409 142.985 341.232 141.371 340.816 138.905C340.774 138.697 340.781 138.482 340.838 138.277C340.894 138.073 340.998 137.884 341.141 137.727C342.156 136.601 345.262 136.783 349.992 137.057C354.985 137.342 361.157 137.697 366.942 136.611C378.736 134.358 456.902 94.7522 457.683 94.3564C457.804 94.2957 457.945 94.2851 458.074 94.3269C458.203 94.3687 458.311 94.4594 458.373 94.5797C458.434 94.6995 458.444 94.8383 458.402 94.9658C458.36 95.0932 458.27 95.1989 458.15 95.2597C454.922 96.8939 379.071 135.332 367.135 137.606C361.268 138.722 354.955 138.357 349.88 138.072C346.094 137.849 342.521 137.646 341.841 138.397C341.802 138.443 341.775 138.497 341.763 138.556C341.75 138.614 341.753 138.675 341.77 138.732C342.196 141.28 346.997 143.015 348.824 143.472C348.959 143.479 349.085 143.539 349.176 143.639C349.266 143.739 349.313 143.87 349.306 144.005C349.3 144.14 349.24 144.266 349.14 144.357C349.04 144.447 348.908 144.494 348.774 144.487C339.425 145.959 329.042 148.314 328.575 149.562C329.174 150.679 336.766 149.978 343.455 148.639C343.522 148.623 343.591 148.62 343.659 148.631C343.726 148.641 343.791 148.665 343.85 148.701C343.908 148.737 343.959 148.784 343.999 148.839C344.039 148.895 344.068 148.958 344.084 149.024C344.1 149.091 344.103 149.16 344.092 149.228C344.082 149.295 344.058 149.36 344.022 149.419C343.986 149.477 343.939 149.528 343.884 149.568C343.828 149.609 343.765 149.638 343.699 149.654C337.111 151.562 329.915 154.455 329.753 155.804C329.753 155.936 329.956 156.079 330.087 156.16C333.193 157.936 342.785 154.678 346.216 153.267C346.339 153.218 346.475 153.219 346.598 153.268C346.721 153.317 346.82 153.411 346.876 153.531C346.929 153.65 346.934 153.785 346.891 153.907C346.847 154.03 346.758 154.132 346.642 154.191C339.811 157.713 332.432 162.229 332.31 163.437C332.454 163.477 332.6 163.507 332.747 163.529C336.583 163.955 342.897 160.981 345.546 159.641L346.744 159.002C346.862 158.941 347 158.929 347.127 158.969C347.255 159.009 347.361 159.097 347.424 159.215C347.456 159.272 347.477 159.335 347.484 159.4C347.492 159.466 347.487 159.532 347.469 159.595C347.451 159.658 347.421 159.717 347.38 159.769C347.339 159.82 347.288 159.863 347.231 159.895C347.15 159.895 346.683 160.21 345.952 160.585C341.212 163.163 337.416 165.904 337.568 166.675C337.568 166.675 337.751 166.868 338.461 166.939H338.715C341.76 166.939 362.578 160.321 389.465 150.171C404.162 144.629 440.215 130.612 457.683 120.137C457.74 120.096 457.804 120.066 457.873 120.051C457.942 120.036 458.012 120.035 458.081 120.048C458.15 120.062 458.216 120.09 458.273 120.13C458.331 120.17 458.38 120.222 458.416 120.282C458.453 120.342 458.477 120.408 458.486 120.478C458.496 120.548 458.491 120.618 458.471 120.686C458.452 120.754 458.419 120.816 458.374 120.87C458.329 120.924 458.274 120.969 458.211 121C430.644 137.484 346.683 167.903 338.654 167.903Z" fill="#231F20"/>
<path d="M443.361 128.613C443.361 128.613 431.181 100.04 432.308 99.6547C433.435 99.269 456.668 84.0338 458.607 85.1808C460.545 86.3277 467.742 108.424 465.458 114.9C463.174 121.376 443.361 128.613 443.361 128.613Z" fill="black"/>
<path d="M446.406 128.754C446.297 128.754 446.19 128.719 446.101 128.656C446.012 128.592 445.945 128.502 445.909 128.399C445.867 128.267 445.879 128.124 445.942 128C446.004 127.877 446.113 127.783 446.244 127.739C446.417 127.678 463.326 121.974 470.005 113.428C470.048 113.374 470.1 113.329 470.16 113.296C470.22 113.263 470.286 113.242 470.354 113.235C470.422 113.227 470.49 113.233 470.556 113.252C470.622 113.271 470.683 113.303 470.736 113.346C470.791 113.387 470.838 113.439 470.873 113.498C470.908 113.558 470.93 113.624 470.939 113.692C470.947 113.76 470.942 113.83 470.923 113.896C470.903 113.962 470.871 114.024 470.827 114.077C463.956 122.867 447.279 128.5 446.579 128.734C446.523 128.75 446.465 128.757 446.406 128.754Z" fill="#231F20"/>
<path d="M459.916 66.667C459.792 66.6644 459.674 66.6174 459.581 66.5347C459.489 66.452 459.43 66.339 459.414 66.2163C459.398 66.0935 459.427 65.9691 459.494 65.8655C459.562 65.762 459.665 65.6863 459.784 65.6521C461.679 65.0867 463.423 64.1027 464.886 62.7728C466.35 61.4428 467.496 59.8009 468.239 57.9685C469.718 54.2232 470.071 50.1274 469.254 46.1844C468.686 42.3726 467.029 38.8058 464.484 35.9126C463.209 34.512 461.633 33.419 459.875 32.7157C458.117 32.0124 456.222 31.7173 454.334 31.8526L453.593 31.9541C453.039 32.0468 452.479 32.0977 451.918 32.1063C451.233 32.0733 450.554 31.9747 449.888 31.812L449.451 31.7206C445.874 31.0052 442.173 31.2051 438.694 32.3018C435.214 33.3984 432.068 35.3563 429.547 37.9937C427.026 40.6312 425.212 43.8626 424.273 47.3883C423.335 50.914 423.302 54.6196 424.178 58.1614C424.422 59.1764 425.01 60.7902 426.259 60.9425C426.327 60.9486 426.394 60.9688 426.455 61.0016C426.515 61.0344 426.569 61.0793 426.612 61.1334C426.654 61.1876 426.686 61.2499 426.703 61.3165C426.721 61.3832 426.725 61.4527 426.715 61.521C426.708 61.5892 426.687 61.6552 426.654 61.7151C426.62 61.7751 426.576 61.8279 426.522 61.8704C426.468 61.9129 426.406 61.9442 426.34 61.9627C426.274 61.9811 426.205 61.9862 426.137 61.9778C424.746 61.8052 423.691 60.5466 423.163 58.4151C422.235 54.6974 422.263 50.8054 423.244 47.1014C424.225 43.3974 426.127 40.0016 428.772 37.2301C431.418 34.4586 434.722 32.4015 438.377 31.2501C442.032 30.0986 445.918 29.8904 449.675 30.6447L450.131 30.7361C450.743 30.8903 451.369 30.9821 451.999 31.0101C452.502 30.9967 453.004 30.9492 453.501 30.868C453.765 30.868 454.019 30.7868 454.283 30.7665C456.33 30.6018 458.387 30.9129 460.294 31.6753C462.201 32.4377 463.906 33.6309 465.275 35.1615C467.977 38.1977 469.74 41.9528 470.35 45.9712C471.199 50.1183 470.815 54.4233 469.244 58.3542C468.441 60.3322 467.203 62.104 465.622 63.5379C464.04 64.9718 462.156 66.0309 460.109 66.6366L459.916 66.667Z" fill="#231F20"/>
<path d="M451.989 31.5584C451.989 31.5584 457.267 27.6405 465.844 29.7314C474.42 31.8223 477.658 47.4533 469.65 55.8372C469.65 55.8372 470.898 32.9896 451.989 31.5584Z" fill="#231F20"/>
<path d="M482.51 80.562H482.459C478.399 80.3119 474.508 78.844 471.294 76.3497C469.683 75.0787 468.387 73.4531 467.507 71.5993C466.627 69.7455 466.186 67.7136 466.219 65.6618C466.22 65.5924 466.236 65.5241 466.264 65.4609C466.293 65.3977 466.334 65.3411 466.386 65.2945C466.437 65.2479 466.497 65.2123 466.563 65.1899C466.629 65.1675 466.698 65.1589 466.767 65.1644C466.836 65.167 466.904 65.1833 466.966 65.2124C467.029 65.2415 467.085 65.2828 467.131 65.3339C467.178 65.3849 467.213 65.4447 467.236 65.5097C467.259 65.5748 467.269 65.6437 467.265 65.7125C467.236 67.5988 467.642 69.4664 468.452 71.1703C469.262 72.8742 470.453 74.3686 471.934 75.5377C474.413 77.488 477.353 78.7673 480.47 79.2526C479.614 78.2935 479.069 77.0973 478.907 75.8219C478.74 73.8989 479.036 71.964 479.77 70.1785C480.993 67.1458 482.484 64.228 484.225 61.4597C486.753 57.1459 489.138 53.0758 489.666 48.3459C489.975 45.6138 489.61 42.8476 488.604 40.289C487.597 37.7304 485.979 35.4572 483.892 33.6679C481.804 31.8786 479.31 30.6278 476.628 30.0247C473.945 29.4215 471.156 29.4844 468.503 30.2078C468.369 30.2426 468.226 30.224 468.105 30.1559C467.984 30.0877 467.894 29.9754 467.853 29.8424C467.835 29.7764 467.83 29.7075 467.838 29.6395C467.847 29.5715 467.869 29.5059 467.903 29.4464C467.937 29.3869 467.982 29.3348 468.036 29.293C468.091 29.2512 468.153 29.2206 468.219 29.203C471.039 28.4332 474.004 28.3659 476.856 29.007C479.708 29.6482 482.36 30.9783 484.579 32.881C486.798 34.7837 488.517 37.2011 489.586 39.9217C490.655 42.6424 491.042 45.5835 490.711 48.488C490.153 53.431 487.595 57.7854 485.129 62.0078C483.446 64.7153 482.002 67.5648 480.815 70.5236C480.125 72.146 479.846 73.9136 480.003 75.6697C480.082 76.4949 480.372 77.2858 480.847 77.9653C481.322 78.6447 481.965 79.1897 482.713 79.547C482.825 79.5935 482.917 79.6772 482.975 79.7839C483.032 79.8905 483.051 80.0137 483.029 80.1328C483.006 80.2518 482.943 80.3595 482.851 80.4376C482.758 80.5158 482.641 80.5597 482.52 80.562H482.51Z" fill="#231F20"/>
<path d="M435.932 103.897C435.802 103.92 435.668 103.894 435.557 103.823C435.446 103.752 435.365 103.642 435.331 103.515C435.296 103.388 435.311 103.252 435.371 103.135C435.432 103.018 435.534 102.928 435.658 102.882L456.516 90.0223C456.635 89.9506 456.777 89.9285 456.912 89.9608C457.046 89.9931 457.163 90.0771 457.236 90.1948C457.273 90.2532 457.298 90.3184 457.309 90.3865C457.321 90.4546 457.318 90.5243 457.302 90.5915C457.286 90.6586 457.257 90.7219 457.216 90.7775C457.175 90.8332 457.123 90.8801 457.064 90.9155L436.206 103.776C436.128 103.841 436.033 103.884 435.932 103.897Z" fill="#231F20"/>
<path d="M209.039 141.828C208.915 141.828 208.796 141.779 208.708 141.691C208.621 141.604 208.572 141.485 208.572 141.361C208.572 141.237 208.621 141.118 208.708 141.031C208.796 140.943 208.915 140.894 209.039 140.894L240.504 139.179C240.566 139.171 240.63 139.178 240.69 139.197C240.75 139.216 240.806 139.248 240.853 139.29C240.9 139.332 240.937 139.384 240.963 139.442C240.988 139.5 241.001 139.562 241.001 139.625C241.006 139.747 240.964 139.867 240.882 139.958C240.801 140.049 240.687 140.105 240.564 140.112L209.099 141.828H209.039Z" fill="#D1D3D4"/>
<path d="M284.484 238.425C284.394 238.426 284.306 238.402 284.23 238.354C284.126 238.285 284.053 238.179 284.027 238.058C284 237.936 284.022 237.809 284.088 237.704L299.526 213.699C299.557 213.644 299.599 213.595 299.65 213.556C299.701 213.518 299.759 213.49 299.821 213.475C299.883 213.459 299.948 213.457 300.011 213.467C300.074 213.478 300.134 213.501 300.187 213.536C300.241 213.571 300.287 213.616 300.322 213.67C300.357 213.723 300.381 213.783 300.393 213.845C300.404 213.908 300.402 213.973 300.387 214.035C300.373 214.097 300.346 214.156 300.307 214.207L284.92 238.212C284.874 238.284 284.809 238.342 284.732 238.379C284.655 238.417 284.569 238.433 284.484 238.425Z" fill="#D1D3D4"/>
<path d="M226.182 199.561C226.099 199.56 226.017 199.537 225.946 199.494C225.874 199.451 225.816 199.39 225.776 199.317C225.746 199.264 225.726 199.205 225.719 199.145C225.712 199.084 225.717 199.022 225.734 198.964C225.751 198.905 225.78 198.85 225.818 198.803C225.857 198.756 225.905 198.716 225.959 198.688L249.395 185.533C249.504 185.475 249.632 185.461 249.752 185.495C249.871 185.529 249.973 185.608 250.034 185.716C250.065 185.769 250.085 185.828 250.093 185.889C250.101 185.95 250.097 186.012 250.081 186.072C250.065 186.131 250.037 186.187 250 186.235C249.962 186.284 249.915 186.325 249.862 186.356L226.426 199.551C226.347 199.575 226.263 199.579 226.182 199.561Z" fill="#D1D3D4"/>
<path d="M399.94 17.2262C399.865 17.226 399.791 17.2076 399.724 17.1726C399.657 17.1377 399.6 17.0872 399.557 17.0254C399.515 16.9636 399.487 16.8923 399.478 16.8177C399.468 16.7431 399.477 16.6674 399.503 16.5969L405.218 1.20947C405.267 1.10213 405.355 1.01734 405.464 0.972136C405.573 0.926935 405.695 0.924683 405.805 0.965834C405.916 1.00699 406.007 1.08849 406.06 1.19395C406.113 1.29941 406.124 1.421 406.091 1.53427L400.376 16.9623C400.338 17.0447 400.276 17.1138 400.198 17.1608C400.121 17.2078 400.031 17.2306 399.94 17.2262Z" fill="white"/>
<path d="M486.245 110.393C486.135 110.394 486.029 110.356 485.945 110.285C485.861 110.214 485.806 110.116 485.788 110.007C485.778 109.947 485.78 109.884 485.794 109.825C485.808 109.765 485.834 109.708 485.87 109.658C485.905 109.608 485.951 109.566 486.003 109.533C486.055 109.501 486.113 109.479 486.174 109.469L510.747 105.409C510.869 105.391 510.994 105.422 511.094 105.494C511.194 105.566 511.263 105.674 511.285 105.795C511.295 105.856 511.293 105.918 511.28 105.978C511.266 106.038 511.24 106.094 511.204 106.144C511.168 106.194 511.123 106.237 511.071 106.269C511.018 106.301 510.96 106.323 510.9 106.333L486.316 110.342L486.245 110.393Z" fill="#D1D3D4"/>
<path d="M485.677 212.136C485.606 212.137 485.536 212.121 485.472 212.089C485.408 212.057 485.353 212.011 485.311 211.954L469.873 192.526C469.798 192.427 469.765 192.303 469.78 192.18C469.795 192.057 469.858 191.944 469.954 191.867C470.002 191.828 470.056 191.799 470.114 191.782C470.173 191.764 470.234 191.759 470.294 191.765C470.355 191.772 470.413 191.791 470.467 191.82C470.52 191.85 470.567 191.89 470.604 191.938L486.042 211.375C486.081 211.423 486.109 211.479 486.126 211.539C486.142 211.598 486.147 211.66 486.14 211.722C486.132 211.783 486.112 211.842 486.082 211.896C486.051 211.95 486.01 211.997 485.961 212.035C485.879 212.098 485.78 212.133 485.677 212.136Z" fill="#D1D3D4"/>
<path d="M245.416 47.1179C245.304 47.1192 245.196 47.0795 245.112 47.0063L234.079 37.5261C233.994 37.4374 233.946 37.3192 233.946 37.1963C233.946 37.0734 233.994 36.9552 234.079 36.8664C234.118 36.8184 234.166 36.7789 234.221 36.7502C234.276 36.7216 234.336 36.7043 234.398 36.6996C234.459 36.6948 234.521 36.7027 234.58 36.7226C234.638 36.7426 234.692 36.7742 234.738 36.8157L245.771 46.2957C245.819 46.3348 245.859 46.3833 245.888 46.4381C245.916 46.493 245.933 46.5531 245.938 46.6147C245.943 46.6764 245.935 46.7385 245.915 46.797C245.895 46.8556 245.864 46.9095 245.822 46.9555C245.774 47.0151 245.711 47.0613 245.64 47.0898C245.569 47.1182 245.492 47.1279 245.416 47.1179Z" fill="white"/>
<path d="M439.667 164.726C439.582 164.726 439.498 164.705 439.423 164.665C439.365 164.634 439.313 164.592 439.271 164.541C439.229 164.49 439.198 164.431 439.179 164.368C439.16 164.304 439.154 164.238 439.161 164.172C439.168 164.106 439.188 164.043 439.22 163.985L450.274 143.786C450.327 143.688 450.412 143.61 450.515 143.566C450.619 143.521 450.734 143.513 450.842 143.543C450.951 143.569 451.048 143.631 451.116 143.72C451.185 143.808 451.221 143.918 451.218 144.03V161.935C451.218 162.069 451.164 162.198 451.069 162.294C450.974 162.389 450.845 162.442 450.71 162.442C450.575 162.442 450.446 162.389 450.351 162.294C450.256 162.198 450.203 162.069 450.203 161.935V146.009L440.053 164.472C440.013 164.542 439.957 164.601 439.89 164.645C439.823 164.69 439.747 164.717 439.667 164.726Z" fill="white"/>
<path d="M7.3776 129.813C7.30473 129.594 7.28696 129.361 7.32586 129.133C7.36475 128.906 7.45911 128.691 7.60059 128.509C8.10234 128.03 8.9163 128.42 9.4515 128.843C11.2494 130.354 12.8793 132.055 14.3129 133.914C12.1261 131.094 10.1898 128.088 8.52605 124.931C8.04659 124.006 7.76784 122.535 8.76019 122.19C9.13349 122.096 9.52791 122.135 9.87519 122.301C10.9925 122.694 12.0308 123.283 12.9414 124.04C11.3866 122.877 10.1074 121.385 9.19504 119.671C8.98499 119.333 8.8553 118.952 8.81595 118.556C8.81595 117.587 9.80829 116.907 10.7449 116.673C13.1979 116.082 15.6955 117.386 17.7805 118.824C19.8303 120.043 21.5104 121.796 22.6419 123.895C23.5849 126.249 23.5849 128.875 22.6419 131.228C21.6273 134.037 17.9924 140.992 14.2125 139.922C11.1463 138.985 7.94625 132.711 7.3776 129.813Z" fill="white"/>
<path d="M15.0711 140.546C14.7432 140.545 14.4169 140.5 14.101 140.412C10.756 139.442 7.41103 132.978 6.83123 129.913C6.7331 129.605 6.71644 129.277 6.78288 128.961C6.84931 128.644 6.99658 128.35 7.21033 128.108C7.82358 127.517 8.81593 127.628 9.79714 128.409L9.90863 128.487C9.25078 127.372 8.62638 126.313 8.03543 125.143C7.57046 124.341 7.43837 123.389 7.66748 122.491C7.74533 122.287 7.86639 122.103 8.02232 121.951C8.17825 121.799 8.36533 121.683 8.57064 121.61C8.98079 121.482 9.42043 121.482 9.83058 121.61C9.41509 121.056 9.04235 120.471 8.71558 119.86C8.4497 119.43 8.29633 118.939 8.26958 118.434C8.33965 117.828 8.60843 117.262 9.034 116.824C9.45957 116.387 10.018 116.102 10.6222 116.015C13.432 115.335 16.1972 116.951 18.115 118.244C20.2493 119.526 21.9951 121.364 23.166 123.561C24.1726 126.041 24.1726 128.815 23.166 131.295C22.2963 133.903 18.9959 140.546 15.0711 140.546ZM7.92393 129.701C8.48143 132.521 11.6034 138.54 14.4132 139.331C17.6356 140.256 21.1032 133.992 22.2182 130.994C23.0964 128.775 23.0964 126.304 22.2182 124.084C21.1262 122.077 19.5121 120.402 17.5464 119.236C15.7178 117.977 13.2982 116.606 10.9567 117.174C10.2097 117.353 9.45149 117.865 9.45149 118.512C9.48218 118.833 9.58921 119.143 9.76369 119.415C10.5583 120.89 11.634 122.197 12.9303 123.26C13.0821 123.366 13.2274 123.481 13.3651 123.605C13.4719 123.699 13.539 123.829 13.5527 123.97C13.5665 124.112 13.5259 124.253 13.4391 124.365C13.3524 124.477 13.2261 124.552 13.086 124.575C12.9458 124.597 12.8024 124.565 12.685 124.486C12.5289 124.374 12.3951 124.263 12.2501 124.14C11.4604 123.592 10.5919 123.168 9.67448 122.881C9.43924 122.766 9.17447 122.728 8.91628 122.769C8.86245 122.785 8.81318 122.814 8.77249 122.853C8.7318 122.891 8.70085 122.939 8.68213 122.992C8.57302 123.592 8.6881 124.21 9.00549 124.731C10.6523 127.864 12.57 130.847 14.7366 133.647C14.8237 133.765 14.8619 133.912 14.8432 134.057C14.8245 134.202 14.7504 134.335 14.6362 134.427C14.5806 134.472 14.5166 134.506 14.4478 134.527C14.379 134.548 14.3068 134.555 14.2354 134.547C14.1639 134.54 14.0946 134.519 14.0314 134.485C13.9681 134.451 13.9122 134.405 13.8669 134.349C12.4513 132.526 10.8522 130.853 9.09469 129.356C8.68214 129.044 8.15809 128.799 7.97969 128.988C7.80129 129.178 7.84589 129.389 7.97969 129.779L7.92393 129.701Z" fill="#231F20"/>
<path d="M213.006 154.166C213.006 154.166 211.411 200.674 196.337 193.775C181.262 186.876 150.622 136.657 150.622 136.657L168.294 114.846C168.294 114.846 193.014 154.857 194.753 152.661C196.493 150.465 201.655 138.685 201.655 138.685L213.006 154.166Z" fill="white"/>
<path d="M199.28 195.023C198.183 195.008 197.102 194.753 196.114 194.277C181.061 187.378 151.369 139.008 150.109 136.946C150.044 136.853 150.009 136.742 150.009 136.629C150.009 136.515 150.044 136.404 150.109 136.311L167.781 114.5C167.836 114.429 167.907 114.373 167.989 114.336C168.071 114.299 168.16 114.282 168.25 114.288C168.339 114.294 168.425 114.321 168.5 114.368C168.576 114.415 168.639 114.479 168.685 114.556C177.326 128.532 191.72 150.744 194.33 152.137C196.136 149.618 201.02 138.585 201.02 138.462C201.062 138.374 201.127 138.298 201.207 138.242C201.287 138.185 201.379 138.15 201.477 138.139C201.574 138.127 201.673 138.142 201.763 138.181C201.853 138.22 201.931 138.283 201.99 138.362L213.363 153.831C213.437 153.935 213.477 154.06 213.474 154.188C213.418 155.57 212.203 188.069 202.491 194.065C201.528 194.67 200.418 195.002 199.28 195.023ZM151.279 136.701C153.989 141.092 182.499 186.798 196.582 193.262C197.42 193.717 198.363 193.943 199.316 193.917C200.27 193.892 201.199 193.616 202.012 193.118C210.843 187.656 212.337 157.063 212.448 154.344L201.755 139.855C200.518 142.653 196.682 151.167 195.177 153.062C195.096 153.163 194.992 153.242 194.873 153.295C194.755 153.347 194.626 153.37 194.497 153.363C191.564 153.185 174.148 125.5 168.205 115.871L151.279 136.701Z" fill="#231F20"/>
<path d="M185.521 169.223C185.458 169.233 185.394 169.233 185.332 169.223C185.262 169.2 185.198 169.164 185.143 169.116C185.089 169.068 185.044 169.009 185.013 168.943C184.982 168.878 184.964 168.806 184.961 168.734C184.959 168.661 184.971 168.588 184.997 168.52L190.494 152.828C190.542 152.69 190.643 152.576 190.774 152.511C190.906 152.447 191.057 152.436 191.196 152.483C191.336 152.533 191.45 152.636 191.514 152.769C191.579 152.902 191.589 153.055 191.542 153.196L186.045 168.888C186 168.989 185.926 169.074 185.833 169.133C185.74 169.193 185.632 169.224 185.521 169.223Z" fill="#231F20"/>
<path d="M93.8458 231.389L173.011 215.786C173.011 215.786 169.476 195.48 165.496 174.07C165.195 172.421 167.38 168.386 167.726 166.592C168.392 163.581 168.765 160.513 168.841 157.431C168.794 152.091 168.079 146.778 166.711 141.616C164.002 130.471 158.271 120.329 151.514 111.19C149.666 108.461 147.41 106.033 144.824 103.99C142.828 102.552 140.52 102.463 138.557 101.192C133.417 97.8489 131.466 92.8113 124.586 92.0646C117.383 91.2844 113.927 95.5976 108.196 98.2947C108.196 98.2947 68.5019 117.007 61.6892 147.333C57.2961 167.316 93.8458 231.389 93.8458 231.389Z" fill="black"/>
<path d="M173.078 215.765L182.912 264.101H82.6289L93.8458 231.401L173.078 215.765Z" fill="#231F20"/>
<path d="M182.912 264.657H82.6289C82.5355 264.664 82.4421 264.645 82.3579 264.604C82.2738 264.563 82.2019 264.501 82.1495 264.423C82.0993 264.351 82.0661 264.268 82.0526 264.182C82.0391 264.095 82.0455 264.006 82.0714 263.922L93.2995 231.222C93.3302 231.128 93.3859 231.044 93.4605 230.98C93.5351 230.915 93.6259 230.872 93.7232 230.854L172.888 215.251C173.034 215.225 173.185 215.257 173.308 215.34C173.431 215.423 173.516 215.552 173.546 215.697L183.38 264.022C183.396 264.104 183.394 264.189 183.372 264.27C183.351 264.351 183.312 264.426 183.258 264.49C183.168 264.589 183.045 264.648 182.912 264.657ZM83.4094 263.543H182.232L172.643 216.421L94.2695 231.88L83.4094 263.543Z" fill="#231F20"/>
<path d="M143.608 113.965C139.394 113.029 135.357 112.037 130.886 112.918C124.196 114.244 118.22 117.643 111.396 118.747C104.104 119.928 96.2765 119.449 88.9175 119.293C86.7544 119.293 88.9175 122.124 87.1112 120.898C80.8672 116.573 80.9453 107.702 80.8003 101.026C80.477 85.6679 81.5585 70.0759 85.4164 55.1527C87.4234 47.3511 95.3065 18.8085 108.162 30.756C105.275 28.0701 118.866 21.2827 120.762 20.7254C138.424 15.3535 154.959 30.5889 159.341 46.7604C162.519 58.4962 163.02 70.2208 168.952 81.1653C171.561 86.0023 174.906 90.7612 175.241 96.2446C175.653 102.843 171.327 109.151 165.507 112.305C159.687 115.459 152.684 115.793 146.184 114.534C145.314 114.289 144.456 114.099 143.608 113.965Z" fill="white"/>
<path d="M87.7245 121.7C87.3799 121.66 87.0544 121.52 86.7879 121.298C80.555 116.985 80.3878 108.571 80.254 101.795V100.981C79.886 83.5054 81.369 68.4596 84.8812 54.9629C87.8025 43.6394 92.8312 29.6858 100.146 27.5459C102.498 26.8549 104.895 27.4345 107.304 29.24C108.363 25.7627 119.011 20.6025 120.617 20.1121C124.074 19.0758 127.708 18.7598 131.292 19.1834C134.877 19.6071 138.336 20.7615 141.456 22.5752C150.492 27.8506 157.104 36.4513 159.876 46.5372C160.913 50.3599 161.671 54.2273 162.407 57.9609C163.99 65.9519 165.473 73.4972 169.443 80.8195C169.911 81.7111 170.413 82.5804 170.926 83.472C173.156 87.4285 175.508 91.5188 175.798 96.1217C176.2 102.586 172.163 109.251 165.763 112.717C158.906 116.428 151.268 116.06 146.072 115.001C145.192 114.834 144.333 114.645 143.474 114.455L142.85 114.322C138.881 113.43 135.123 112.594 130.986 113.408C127.899 114.104 124.869 115.032 121.922 116.183C118.544 117.53 115.045 118.552 111.474 119.237C105.275 120.24 98.7295 120.061 92.4075 119.883L88.8841 119.794C88.6388 119.794 88.505 119.794 88.4715 119.883C88.4381 119.972 88.4046 120.329 88.4715 120.541C88.5384 120.752 88.5384 121.365 88.1259 121.655C87.9993 121.709 87.8598 121.724 87.7245 121.7ZM102.041 28.3818C101.501 28.3822 100.964 28.4611 100.447 28.6158C95.1169 30.1762 89.9656 39.6272 85.9516 55.2415C82.4951 68.6156 81.001 83.5946 81.3578 100.936V101.75C81.4805 108.225 81.6366 116.239 87.2785 120.273C87.2579 120.062 87.2799 119.848 87.3431 119.645C87.4063 119.442 87.5094 119.254 87.6464 119.092C87.8162 118.938 88.0153 118.82 88.2319 118.745C88.4484 118.671 88.6779 118.641 88.9064 118.657L92.4186 118.746C98.6961 118.925 105.197 119.103 111.284 118.122C114.786 117.44 118.217 116.432 121.531 115.113C124.531 113.948 127.613 113.005 130.752 112.293C135.123 111.424 138.992 112.293 143.084 113.207L143.709 113.352C144.556 113.541 145.403 113.72 146.273 113.887C151.291 114.857 158.661 115.269 165.228 111.658C171.249 108.392 175.051 102.151 174.672 96.1217C174.405 91.764 172.13 87.7852 169.945 83.9401C169.432 83.0485 168.93 82.168 168.45 81.2764C164.403 73.7981 162.875 65.8182 161.303 58.0946C160.579 54.3833 159.82 50.5383 158.795 46.7489C156.075 36.9943 149.66 28.6828 140.91 23.5783C137.921 21.8338 134.605 20.7211 131.168 20.3089C127.731 19.8968 124.246 20.1939 120.929 21.1821C119.212 21.7059 108.976 26.9106 108.341 29.6301C108.307 29.749 108.308 29.8753 108.343 29.9938C108.379 30.1124 108.448 30.2182 108.542 30.2988C108.595 30.3488 108.637 30.4092 108.666 30.4763C108.695 30.5434 108.71 30.6157 108.71 30.6888C108.71 30.7619 108.695 30.8343 108.666 30.9014C108.637 30.9685 108.595 31.0289 108.542 31.0789C108.49 31.1311 108.428 31.1726 108.36 31.2009C108.292 31.2292 108.219 31.2438 108.146 31.2438C108.072 31.2438 107.999 31.2292 107.931 31.2009C107.863 31.1726 107.802 31.1311 107.75 31.0789C106.259 29.4939 104.224 28.5305 102.052 28.3818H102.041Z" fill="#231F20"/>
<path d="M152.718 53.1573C152.718 53.1573 159.084 71.2681 155.907 84.9877C155.106 88.8247 153.203 92.3449 150.43 95.1164C147.657 97.888 144.135 99.7906 140.297 100.591L140.185 124.898C140.185 124.898 140.241 137.336 124.999 135.341C120.588 134.757 116.398 133.059 112.826 130.407C109.254 127.755 106.417 124.236 104.583 120.184L103.067 75.4587C103.067 75.4587 120.383 65.5952 118.967 49.5352C119.023 49.5574 139.516 59.588 152.718 53.1573Z" fill="white"/>
<path d="M128.21 136.144C127.132 136.138 126.056 136.064 124.988 135.921C109.601 133.915 104.171 120.541 104.126 120.407C104.12 120.344 104.12 120.281 104.126 120.218L102.61 75.4923C102.606 75.3913 102.63 75.2913 102.68 75.203C102.729 75.1146 102.801 75.0413 102.888 74.9908C103.056 74.8905 119.881 65.1163 118.498 49.6023C118.492 49.5045 118.511 49.4067 118.554 49.3186C118.597 49.2305 118.662 49.1554 118.744 49.1007C118.828 49.0495 118.924 49.0225 119.023 49.0225C119.121 49.0225 119.217 49.0495 119.301 49.1007C119.502 49.2011 139.706 58.9307 152.506 52.7006C152.578 52.6676 152.656 52.6505 152.735 52.6505C152.813 52.6505 152.891 52.6676 152.963 52.7006C153.036 52.728 153.102 52.7712 153.156 52.8271C153.21 52.883 153.251 52.9502 153.275 53.0238C153.342 53.2133 159.698 71.4467 156.487 85.1663C155.663 89.0188 153.767 92.5602 151.017 95.382C148.267 98.2039 144.775 100.191 140.943 101.115L140.832 124.977C140.786 126.545 140.431 128.089 139.786 129.52C139.141 130.951 138.22 132.24 137.074 133.313C134.574 135.324 131.414 136.333 128.21 136.144ZM105.197 120.084C107.015 124.015 109.795 127.425 113.279 130C116.763 132.575 120.84 134.232 125.133 134.818C130.005 135.453 133.763 134.651 136.283 132.422C138.33 130.451 139.53 127.761 139.628 124.921L139.739 100.602C139.74 100.471 139.788 100.344 139.873 100.244C139.959 100.144 140.077 100.077 140.208 100.056C143.92 99.2422 147.319 97.3751 149.997 94.6788C152.675 91.9824 154.518 88.5712 155.305 84.8542C158.126 72.8175 153.376 57.1252 152.339 53.9266C140.453 59.2316 123.616 52.2771 119.58 50.4604C120.227 64.9491 105.877 74.4001 103.636 75.7821L105.197 120.084Z" fill="#231F20"/>
<path d="M111.563 72.3715C111.563 72.3715 104.115 55.4533 95.6075 66.0411C87.1001 76.6289 99.3874 88.3313 106.902 87.3951" fill="white"/>
<path d="M105.977 88.0415C101.662 88.0415 96.5218 84.698 93.8904 79.9836C92.5627 77.7773 91.9713 75.206 92.2018 72.6415C92.4323 70.0771 93.4727 67.6524 95.1727 65.7179C97.4027 62.9651 99.7442 61.7391 102.197 62.0623C107.906 62.809 111.909 71.7586 112.076 72.0929C112.107 72.16 112.124 72.2326 112.127 72.3065C112.129 72.3804 112.116 72.454 112.089 72.5228C112.062 72.5915 112.021 72.6541 111.969 72.7066C111.917 72.7592 111.855 72.8006 111.786 72.8285C111.651 72.8858 111.499 72.8889 111.362 72.837C111.225 72.785 111.113 72.6822 111.05 72.5499C111.05 72.4607 107.137 63.7898 102.041 63.1211C100.012 62.8536 97.9825 63.9458 96.0424 66.3643C94.4917 68.1361 93.5421 70.3533 93.3297 72.6978C93.1174 75.0424 93.6533 77.3939 94.8605 79.4152C97.4473 84.0293 102.822 87.3617 106.824 86.849C106.897 86.8381 106.971 86.8419 107.042 86.8602C107.114 86.8786 107.18 86.9111 107.239 86.9559C107.297 87.0006 107.346 87.0567 107.382 87.1206C107.418 87.1846 107.441 87.2552 107.449 87.3283C107.468 87.4745 107.428 87.6224 107.338 87.7394C107.248 87.8564 107.116 87.933 106.969 87.9524C106.641 88.0047 106.309 88.0345 105.977 88.0415Z" fill="#231F20"/>
<path d="M144.467 85.266C142.891 85.2398 141.323 85.0304 139.795 84.6419C139.724 84.6237 139.657 84.5916 139.598 84.5476C139.54 84.5036 139.49 84.4484 139.453 84.3852C139.416 84.3221 139.391 84.2522 139.381 84.1795C139.371 84.1069 139.375 84.033 139.394 83.962C139.435 83.8192 139.53 83.698 139.659 83.6233C139.788 83.5486 139.94 83.5262 140.085 83.5608C140.085 83.5608 144.98 84.8648 147.455 83.5608C147.522 83.5608 147.589 83.4828 147.622 83.3156C148.068 81.3986 143.597 74.4887 140.676 70.5879C140.59 70.4687 140.554 70.3208 140.574 70.1754C140.595 70.0299 140.671 69.8982 140.787 69.8077C140.906 69.7191 141.054 69.681 141.201 69.7019C141.347 69.7228 141.479 69.801 141.568 69.9192C142.382 71.0337 149.373 80.5182 148.704 83.5719C148.663 83.7804 148.576 83.9769 148.449 84.1468C148.321 84.3167 148.157 84.4555 147.968 84.5527C146.872 85.0579 145.673 85.302 144.467 85.266Z" fill="#231F20"/>
<path d="M140.352 100.59C140.352 100.59 127.352 102.162 119.892 100.223C119.892 100.223 127.954 119.415 140.308 119.37L140.352 100.59Z" fill="#231F20"/>
<path d="M140.263 119.95C127.708 119.95 119.714 101.26 119.379 100.458C119.341 100.362 119.33 100.258 119.345 100.156C119.361 100.054 119.403 99.958 119.469 99.878C119.537 99.7984 119.627 99.7403 119.728 99.7107C119.829 99.681 119.936 99.6811 120.037 99.7109C127.296 101.594 140.107 100.068 140.286 100.056C140.363 100.045 140.443 100.05 140.518 100.074C140.594 100.097 140.663 100.137 140.72 100.19C140.781 100.243 140.829 100.308 140.861 100.381C140.894 100.454 140.911 100.534 140.91 100.614V119.393C140.906 119.473 140.886 119.551 140.85 119.622C140.815 119.694 140.766 119.758 140.706 119.81C140.645 119.862 140.575 119.901 140.499 119.925C140.423 119.949 140.343 119.958 140.263 119.95ZM120.873 101.004C122.702 104.849 129.793 118.323 139.75 118.769V101.182C137.219 101.505 127.519 102.408 120.873 101.048V101.004Z" fill="#231F20"/>
<path d="M80.8449 92.1768C80.254 106.465 79.7299 132.767 102.219 125.746C106.939 124.246 110.895 120.979 113.258 116.629C117.495 108.75 105.453 97.7827 99.7776 92.8343" fill="white"/>
<path d="M95.3734 127.462C92.5677 127.536 89.8187 126.664 87.5684 124.988C79.2282 118.59 79.9306 101.393 80.3209 92.1541C80.3321 92.0083 80.3982 91.8721 80.5057 91.7728C80.6132 91.6736 80.7543 91.6187 80.9007 91.6191C81.0476 91.6278 81.1854 91.693 81.2852 91.801C81.385 91.9091 81.439 92.0516 81.4359 92.1987C81.0791 100.591 80.3209 118.055 88.2485 124.107C91.5935 126.659 96.2319 127.038 102.086 125.222C106.67 123.772 110.512 120.599 112.801 116.372C116.982 108.571 103.78 97.058 99.4208 93.2686C99.318 93.1626 99.2604 93.0207 99.2604 92.873C99.2604 92.7253 99.318 92.5834 99.4208 92.4773C99.5269 92.3745 99.6689 92.317 99.8167 92.317C99.9644 92.317 100.106 92.3745 100.212 92.4773C108.017 99.2981 117.941 109.262 113.815 116.997C111.382 121.478 107.305 124.841 102.442 126.381C100.154 127.097 97.7709 127.461 95.3734 127.462Z" fill="#231F20"/>
<path d="M126.014 69.6969C125.934 69.6962 125.855 69.679 125.782 69.6464C125.709 69.6138 125.644 69.5665 125.59 69.5075C125.487 69.4014 125.43 69.2595 125.43 69.1118C125.43 68.9641 125.487 68.8222 125.59 68.7162C127.82 66.7769 129.905 65.9522 131.722 66.2754C132.333 66.3933 132.913 66.6376 133.424 66.9927C133.934 67.3478 134.365 67.8058 134.688 68.3372C134.723 68.4016 134.746 68.4723 134.753 68.5452C134.761 68.6182 134.755 68.6919 134.734 68.7623C134.713 68.8327 134.679 68.8983 134.633 68.9554C134.587 69.0125 134.53 69.06 134.465 69.0951C134.401 69.1302 134.33 69.1523 134.257 69.1601C134.184 69.1679 134.11 69.1613 134.04 69.1406C133.97 69.1199 133.904 69.0855 133.847 69.0395C133.79 68.9934 133.742 68.9366 133.707 68.8722C133.46 68.4808 133.134 68.1449 132.75 67.8859C132.366 67.6269 131.933 67.4504 131.477 67.3676C130.005 67.1224 128.266 67.858 126.292 69.5966C126.21 69.6536 126.114 69.6882 126.014 69.6969Z" fill="#231F20"/>
<path d="M145.972 66.3417C145.851 66.3443 145.733 66.3049 145.638 66.2302C145.52 66.1414 145.441 66.0105 145.419 65.8649C145.396 65.7194 145.43 65.5706 145.515 65.4501C145.615 65.3275 147.812 62.3963 150.733 62.374C151.61 62.419 152.463 62.6744 153.22 63.1187C153.977 63.5629 154.615 64.183 155.082 64.9262C155.168 65.0455 155.204 65.1933 155.183 65.3388C155.162 65.4842 155.086 65.616 154.97 65.7064C154.851 65.7909 154.705 65.8275 154.56 65.8089C154.416 65.7903 154.283 65.7179 154.19 65.6061C153.818 65.015 153.312 64.5195 152.714 64.1594C152.116 63.7994 151.441 63.5848 150.744 63.5331C148.392 63.5331 146.44 66.1299 146.418 66.1634C146.361 66.2238 146.292 66.2711 146.215 66.3019C146.138 66.3327 146.055 66.3463 145.972 66.3417Z" fill="#231F20"/>
<path d="M151.313 77.5981C156.473 77.5981 160.657 73.4166 160.657 68.2585C160.657 63.1004 156.473 58.9189 151.313 58.9189C146.153 58.9189 141.969 63.1004 141.969 68.2585C141.969 73.4166 146.153 77.5981 151.313 77.5981Z" fill="#231F20"/>
<path d="M151.28 78.1557C148.672 78.0695 146.202 76.9623 144.403 75.0729C142.605 73.1834 141.621 70.6631 141.664 68.0553C141.707 65.4475 142.774 62.9611 144.634 61.1322C146.494 59.3033 148.999 58.2783 151.608 58.2783C154.218 58.2783 156.723 59.3033 158.583 61.1322C160.443 62.9611 161.51 65.4475 161.553 68.0553C161.596 70.6631 160.612 73.1834 158.813 75.0729C157.015 76.9623 154.545 78.0695 151.937 78.1557H151.28ZM151.28 59.4766H150.689C148.424 59.554 146.28 60.5177 144.719 62.16C143.158 63.8023 142.305 65.9918 142.344 68.2566C142.383 70.5215 143.31 72.6806 144.926 74.2685C146.542 75.8565 148.718 76.7464 150.984 76.7464C153.25 76.7464 155.426 75.8565 157.042 74.2685C158.658 72.6806 159.585 70.5215 159.624 68.2566C159.663 65.9918 158.81 63.8023 157.249 62.16C155.688 60.5177 153.544 59.554 151.28 59.4766Z" fill="#231F20"/>
<path d="M131.644 78.8804C136.805 78.8804 140.988 74.6989 140.988 69.5408C140.988 64.3826 136.805 60.2012 131.644 60.2012C126.484 60.2012 122.301 64.3826 122.301 69.5408C122.301 74.6989 126.484 78.8804 131.644 78.8804Z" fill="#231F20"/>
<path d="M131.633 79.4154C129.129 79.3292 126.759 78.2631 125.033 76.4469C123.308 74.6307 122.365 72.2096 122.408 69.7053C122.451 67.201 123.477 64.8138 125.264 63.058C127.051 61.3022 129.456 60.3184 131.962 60.3184C134.468 60.3184 136.873 61.3022 138.661 63.058C140.448 64.8138 141.473 67.201 141.516 69.7053C141.559 72.2096 140.617 74.6307 138.891 76.4469C137.166 78.2631 134.795 79.3292 132.291 79.4154H131.633ZM131.633 60.7474H131.053C128.788 60.8234 126.643 61.7861 125.081 63.428C123.519 65.0699 122.665 67.2595 122.703 69.5249C122.741 71.7902 123.668 73.95 125.284 75.5386C126.901 77.1272 129.077 78.0174 131.343 78.0174C133.61 78.0174 135.786 77.1272 137.402 75.5386C139.018 73.95 139.945 71.7902 139.983 69.5249C140.021 67.2595 139.167 65.0699 137.605 63.428C136.043 61.7861 133.899 60.8234 131.633 60.7474Z" fill="#231F20"/>
<path d="M122.289 70.6999L110.259 70.4993C110.185 70.4978 110.113 70.482 110.046 70.4526C109.979 70.4233 109.918 70.381 109.868 70.3282C109.817 70.2754 109.777 70.2132 109.75 70.145C109.724 70.0768 109.711 70.0041 109.712 69.9309C109.728 69.7875 109.793 69.6542 109.897 69.5543C110.001 69.4545 110.137 69.3944 110.281 69.3848L122.334 69.63C122.407 69.6314 122.479 69.6473 122.547 69.6766C122.614 69.706 122.674 69.7482 122.725 69.801C122.776 69.8538 122.816 69.9161 122.842 69.9842C122.869 70.0524 122.882 70.1252 122.88 70.1984C122.875 70.2702 122.855 70.3401 122.822 70.4043C122.789 70.4684 122.744 70.5254 122.689 70.572C122.634 70.6187 122.571 70.6539 122.502 70.6759C122.434 70.6978 122.361 70.706 122.289 70.6999Z" fill="#231F20"/>
<path d="M140.642 87.9414C140.642 87.9414 140.531 92.7227 141.624 94.3387C141.949 94.8085 142.377 95.1982 142.876 95.4782C143.374 95.7581 143.93 95.9211 144.5 95.9547C145.071 95.982 145.641 95.8775 146.165 95.6495C146.689 95.4214 147.153 95.0759 147.522 94.6396C148.367 93.4093 148.761 91.9251 148.637 90.4379C148.637 88.2758 151.581 88.0306 149.551 88.4095C149.049 88.4987 140.642 87.9414 140.642 87.9414Z" fill="#231F20"/>
<path d="M144.679 96.5231H144.467C143.804 96.4894 143.158 96.3041 142.578 95.9814C141.998 95.6587 141.5 95.2073 141.122 94.6619C140.007 92.9456 140.007 88.4541 140.007 87.9749C140.008 87.8997 140.025 87.8256 140.056 87.7571C140.086 87.6885 140.131 87.6268 140.186 87.5758C140.241 87.5248 140.306 87.4855 140.377 87.4602C140.448 87.4349 140.523 87.4242 140.598 87.4287C143.753 87.6405 148.938 87.9414 149.429 87.908L150.008 87.7854C150.154 87.7515 150.306 87.7671 150.441 87.8297C150.577 87.8923 150.687 87.9983 150.755 88.1309C150.789 88.2698 150.772 88.4161 150.709 88.5443C150.646 88.6725 150.54 88.7746 150.41 88.833C150.06 88.9564 149.755 89.1795 149.531 89.4746C149.307 89.7698 149.174 90.124 149.15 90.4936C149.274 92.0965 148.845 93.6934 147.934 95.0185C147.529 95.4847 147.029 95.8598 146.468 96.1191C145.907 96.3784 145.297 96.5161 144.679 96.5231ZM141.244 88.5433C141.244 90.1036 141.423 93.0013 142.136 94.0266C142.41 94.4281 142.772 94.7608 143.195 94.9988C143.618 95.2368 144.091 95.3736 144.576 95.3984C145.061 95.4233 145.545 95.3355 145.99 95.1419C146.436 94.9484 146.83 94.6544 147.143 94.283C147.905 93.1525 148.263 91.7973 148.157 90.4379C148.159 89.9093 148.318 89.3931 148.615 88.9556C146.819 88.8887 143.296 88.677 141.244 88.5433Z" fill="#231F20"/>
<path d="M174.07 134.383C185.475 134.383 194.72 125.142 194.72 113.742C194.72 102.343 185.475 93.1016 174.07 93.1016C162.666 93.1016 153.42 102.343 153.42 113.742C153.42 125.142 162.666 134.383 174.07 134.383Z" fill="black"/>
<path d="M157.847 110.097C165.255 110.097 171.26 104.095 171.26 96.6898C171.26 89.285 165.255 83.2822 157.847 83.2822C150.439 83.2822 144.433 89.285 144.433 96.6898C144.433 104.095 150.439 110.097 157.847 110.097Z" fill="black"/>
<path d="M213.731 176.735L195.166 117.409L168.261 134.339L213.731 176.735Z" fill="white"/>
<path d="M213.719 177.291C213.578 177.291 213.442 177.235 213.34 177.135L167.871 134.784C167.808 134.726 167.759 134.655 167.728 134.575C167.697 134.495 167.685 134.41 167.693 134.325C167.7 134.239 167.727 134.157 167.772 134.084C167.816 134.011 167.877 133.949 167.949 133.904L194.854 116.974C194.93 116.936 195.014 116.916 195.099 116.916C195.184 116.916 195.268 116.936 195.344 116.974C195.424 117.003 195.496 117.05 195.555 117.112C195.613 117.174 195.655 117.249 195.679 117.331L214.255 176.645C214.289 176.762 214.285 176.887 214.243 177.001C214.2 177.116 214.123 177.213 214.021 177.28C213.923 177.308 213.819 177.312 213.719 177.291ZM169.119 134.427L212.604 174.884L194.876 118.267L169.119 134.427Z" fill="#231F20"/>
<path d="M210.943 136.98C210.917 135.945 210.737 134.919 210.408 133.937C209.901 132.773 209.139 131.737 208.178 130.906C204.694 127.657 200.34 125.492 195.645 124.676C193.995 124.397 191.888 124.531 191.185 126.069C190.65 127.295 191.419 128.677 192.245 129.725C194.127 131.994 196.391 133.917 198.935 135.409C196.325 135.843 193.75 136.768 194.731 139.933C195.289 141.683 199.013 145.45 200.975 145.506C199.706 145.493 198.438 145.586 197.184 145.785C196.292 145.93 195.244 146.286 195.054 147.167C194.999 147.545 195.053 147.932 195.21 148.281C196.437 151.424 199.916 152.94 203.016 154.143C202.083 153.982 201.126 154.035 200.217 154.3C199.77 154.448 199.385 154.741 199.125 155.133C198.864 155.525 198.742 155.992 198.779 156.462C198.99 157.576 200.273 158.078 201.376 158.367C203.653 159.152 206.065 159.47 208.468 159.304C209.821 159.152 211.092 158.573 212.094 157.651C213.096 156.73 213.779 155.513 214.043 154.177C214.779 151.079 213.14 149.474 212.08 146.721C210.999 143.712 211.177 140.19 210.943 136.98Z" fill="white"/>
<path d="M207.208 159.939C205.212 159.852 203.237 159.503 201.332 158.902C200.596 158.702 198.634 158.167 198.332 156.551C198.271 155.953 198.416 155.352 198.742 154.848C199.069 154.343 199.557 153.965 200.128 153.776L200.496 153.653C198.02 152.538 195.723 150.978 194.753 148.47C194.544 148.014 194.478 147.505 194.564 147.01C194.709 146.353 195.277 145.506 197.151 145.205C197.619 145.127 198.098 145.071 198.578 145.027C196.73 143.793 195.242 142.094 194.263 140.101C194.069 139.607 193.985 139.077 194.018 138.547C194.05 138.018 194.199 137.502 194.452 137.036C195.202 136.033 196.307 135.355 197.541 135.141C195.377 133.765 193.446 132.053 191.821 130.07C190.55 128.465 190.159 127.038 190.706 125.846C191.353 124.341 193.226 123.706 195.723 124.13C200.526 124.964 204.982 127.179 208.546 130.505C209.581 131.388 210.404 132.492 210.954 133.737C211.307 134.771 211.499 135.854 211.523 136.946C211.579 137.715 211.612 138.507 211.646 139.298C211.608 141.742 211.962 144.177 212.694 146.509C212.957 147.187 213.259 147.849 213.597 148.493C214.455 150.209 215.258 151.836 214.712 154.288C214.432 155.733 213.7 157.051 212.621 158.052C211.543 159.054 210.175 159.687 208.713 159.861C208.214 159.923 207.711 159.949 207.208 159.939ZM201.834 154.611C201.386 154.598 200.941 154.666 200.518 154.812C200.191 154.913 199.905 155.118 199.704 155.395C199.503 155.673 199.397 156.008 199.403 156.35C199.526 156.985 200.217 157.465 201.633 157.821C203.839 158.576 206.174 158.887 208.501 158.735C209.739 158.597 210.9 158.065 211.813 157.219C212.726 156.372 213.344 155.255 213.575 154.032C214.065 151.97 213.418 150.688 212.582 148.983C212.27 148.337 211.935 147.679 211.634 146.91C210.859 144.464 210.482 141.909 210.519 139.343C210.519 138.563 210.453 137.782 210.397 137.024C210.377 136.043 210.212 135.071 209.906 134.138C209.415 133.052 208.687 132.088 207.777 131.318C204.37 128.137 200.106 126.022 195.512 125.233C194.006 124.965 192.167 125.11 191.709 126.281C191.364 127.072 191.709 128.12 192.691 129.379C194.552 131.604 196.785 133.489 199.291 134.951C199.386 135.012 199.46 135.1 199.504 135.203C199.547 135.307 199.559 135.421 199.537 135.531C199.515 135.642 199.459 135.743 199.377 135.821C199.295 135.899 199.191 135.949 199.08 135.966C197.808 136.177 196.047 136.59 195.411 137.626C195.237 137.956 195.139 138.32 195.124 138.692C195.108 139.064 195.176 139.435 195.322 139.777C195.846 141.449 199.459 144.915 201.031 144.926C201.179 144.926 201.32 144.985 201.425 145.09C201.53 145.194 201.588 145.336 201.588 145.484C201.585 145.631 201.526 145.771 201.422 145.874C201.318 145.978 201.178 146.038 201.031 146.041C199.795 146.023 198.56 146.116 197.34 146.319C196.771 146.409 195.801 146.654 195.656 147.256C195.623 147.539 195.674 147.826 195.801 148.08C196.916 150.978 200.128 152.405 203.328 153.653C203.454 153.703 203.558 153.797 203.619 153.918C203.681 154.04 203.696 154.179 203.662 154.311C203.633 154.441 203.556 154.557 203.447 154.635C203.338 154.713 203.205 154.748 203.071 154.734C202.661 154.67 202.248 154.629 201.834 154.611Z" fill="#231F20"/>
<path d="M167.179 132.153H167.079C166.923 132.153 151.659 129.066 154.034 109.172C154.051 109.024 154.127 108.89 154.244 108.798C154.361 108.706 154.51 108.664 154.658 108.682C154.806 108.699 154.941 108.775 155.033 108.892C155.125 109.009 155.166 109.158 155.149 109.306C152.919 128.141 166.7 130.95 167.291 131.061C167.436 131.088 167.564 131.171 167.647 131.292C167.731 131.414 167.763 131.563 167.737 131.708C167.709 131.834 167.638 131.948 167.537 132.029C167.435 132.11 167.309 132.154 167.179 132.153Z" fill="#231F20"/>
<path d="M64.7109 138.685L47.7629 188.369C47.7629 188.369 36.0888 160.696 34.9738 155.904C34.1599 152.415 32.532 148.102 32.7438 144.625C32.9557 141.148 34.0818 137.682 33.7696 133.981C33.424 129.802 31.6623 125.556 28.1946 123.159C27.2367 122.416 26.0623 122.005 24.8496 121.989C23.8366 122.09 22.8658 122.447 22.0287 123.026C16.7324 126.269 13.6104 132.332 12.7407 138.473C11.4696 147.389 14.5359 156.595 16.1526 165.366C17.6244 173.279 19.375 181.147 21.5715 188.882C23.9576 197.286 26.7674 205.778 31.0936 213.401C34.0149 218.55 38.4526 224.948 44.9308 225.55C45.8174 225.619 46.7093 225.574 47.5845 225.416C70.3639 221.649 91.2479 167.071 91.2479 167.071C91.2479 167.071 82.6289 140.111 64.7109 138.685Z" fill="white"/>
<path d="M45.8897 226.163C45.5591 226.179 45.2279 226.179 44.8973 226.163C38.0735 225.516 33.4797 218.762 30.6253 213.725C26.0761 205.7 23.2329 196.762 21.0586 189.083C18.9959 181.783 17.2119 174.082 15.6286 165.511C15.2383 163.427 14.7589 161.265 14.3017 159.181C12.7853 152.371 11.2243 145.327 12.2055 138.44C13.1867 131.552 16.7547 125.667 21.7611 122.591C22.682 121.969 23.7435 121.586 24.8496 121.477C26.1929 121.463 27.4999 121.912 28.5514 122.747C31.8184 124.976 33.9146 129.122 34.3271 133.971C34.4298 136.212 34.2614 138.457 33.8254 140.658C33.6135 141.984 33.3905 143.344 33.3013 144.714C33.356 147.492 33.8412 150.244 34.7397 152.873C35.0184 153.898 35.2972 154.89 35.5202 155.826C36.4679 159.916 45.3545 181.248 47.7071 186.854L64.1868 138.484C64.2311 138.371 64.3098 138.275 64.4118 138.209C64.5139 138.143 64.6341 138.11 64.7555 138.116C82.8408 139.543 91.4263 165.812 91.7831 166.927C91.8222 167.046 91.8222 167.175 91.7831 167.294C87.9713 176.87 83.5199 186.178 78.4588 195.157C67.6545 214.037 57.2738 224.424 47.6848 226.018C47.0909 226.111 46.4908 226.159 45.8897 226.163ZM25.0503 122.513H24.8942C23.9797 122.621 23.1043 122.946 22.3409 123.461C17.6133 126.37 14.2348 131.998 13.3094 138.529C12.3839 145.06 13.9003 152.148 15.3833 158.858C15.8516 160.953 16.331 163.126 16.7213 165.233C18.3046 173.77 20.0663 181.437 22.129 188.704C24.2921 196.327 27.1019 205.177 31.5954 213.101C34.3271 217.915 38.6979 224.38 44.9754 224.97C45.8046 225.046 46.6401 225.016 47.4618 224.881C69.0148 221.315 89.252 170.549 90.6235 167.071C89.8207 164.72 81.3467 140.947 65.0677 139.209L48.2535 188.47C48.2206 188.578 48.1543 188.673 48.0642 188.741C47.974 188.809 47.8647 188.847 47.7517 188.849C47.6388 188.849 47.5284 188.816 47.4336 188.755C47.3387 188.693 47.2634 188.606 47.2165 188.503C46.7371 187.389 35.509 160.73 34.394 155.949C34.1822 155.024 33.9146 154.043 33.6247 153.029C32.687 150.286 32.1939 147.412 32.164 144.514C32.2672 143.12 32.4421 141.732 32.6881 140.357C33.1179 138.249 33.2827 136.096 33.1787 133.948C32.7996 129.423 30.8706 125.623 27.8824 123.539C27.0601 122.929 26.0735 122.579 25.0503 122.536V122.513Z" fill="#231F20"/>
<path d="M20.7576 108.994C32.1622 108.994 41.4074 99.7532 41.4074 88.3536C41.4074 76.9541 32.1622 67.7129 20.7576 67.7129C9.35302 67.7129 0.107788 76.9541 0.107788 88.3536C0.107788 99.7532 9.35302 108.994 20.7576 108.994Z" fill="black"/>
<path d="M16.5875 81.1423C23.9955 81.1423 30.0009 75.1395 30.0009 67.7347C30.0009 60.3299 23.9955 54.3271 16.5875 54.3271C9.17943 54.3271 3.17403 60.3299 3.17403 67.7347C3.17403 75.1395 9.17943 81.1423 16.5875 81.1423Z" fill="black"/>
<path d="M21.237 162.78L36.7467 102.597L4.95804 102.797L21.237 162.78Z" fill="white"/>
<path d="M21.2371 163.338C21.115 163.337 20.9965 163.297 20.8998 163.222C20.8031 163.148 20.7336 163.044 20.7019 162.926L4.41169 102.943C4.38905 102.861 4.38635 102.774 4.4038 102.691C4.42125 102.608 4.45837 102.53 4.51205 102.464C4.56284 102.396 4.62839 102.341 4.70373 102.302C4.77908 102.263 4.86224 102.242 4.9469 102.241L36.7356 102.04C36.8194 102.04 36.9023 102.058 36.9777 102.095C37.0531 102.132 37.1191 102.186 37.1704 102.252C37.2241 102.318 37.2612 102.396 37.2787 102.479C37.2961 102.563 37.2934 102.649 37.2708 102.731L21.7722 162.915C21.74 163.034 21.6688 163.14 21.5699 163.214C21.4709 163.289 21.3499 163.329 21.2259 163.327L21.2371 163.338ZM5.62705 103.355L21.1701 160.608L35.9662 103.155L5.62705 103.355Z" fill="#231F20"/>
<path d="M32.7884 146.487C32.7884 146.487 40.3258 134.35 36.9808 129.769C33.6358 125.189 24.4482 117.822 24.8719 121.968C25.2956 126.114 30.8483 132.656 30.8483 132.656C30.8483 132.656 22.9541 140.602 26.7228 145.829" fill="white"/>
<path d="M32.7884 147.044C32.6863 147.046 32.5858 147.019 32.4985 146.966C32.3731 146.888 32.2831 146.763 32.2477 146.62C32.2123 146.476 32.2343 146.325 32.309 146.197C34.3494 142.909 39.0882 133.603 36.5237 130.07C33.4128 125.801 26.8455 120.808 25.5409 121.321C25.3848 121.388 25.4183 121.8 25.4294 121.934C25.8197 125.891 31.2163 132.254 31.272 132.31C31.3676 132.413 31.4208 132.549 31.4208 132.689C31.4208 132.83 31.3676 132.965 31.272 133.068C31.194 133.146 23.7569 140.747 27.2023 145.528C27.287 145.649 27.3215 145.798 27.2986 145.943C27.2758 146.089 27.1972 146.22 27.0796 146.308C27.0197 146.351 26.9519 146.382 26.8801 146.398C26.8084 146.414 26.7341 146.417 26.6615 146.404C26.5889 146.392 26.5196 146.365 26.4574 146.326C26.3952 146.286 26.3414 146.235 26.2991 146.175C22.7423 141.237 28.5849 134.327 30.1347 132.656C28.9194 131.162 24.727 125.801 24.3479 122.045C24.2252 120.831 24.8162 120.418 25.1841 120.285C27.5925 119.36 34.8066 125.768 37.4492 129.424C40.9837 134.272 33.6024 146.275 33.279 146.776C33.2308 146.863 33.1592 146.934 33.0724 146.981C32.9856 147.028 32.8871 147.05 32.7884 147.044Z" fill="#231F20"/>
<path d="M126.638 183.142C125.345 183.142 123.995 183.142 122.602 183.031C122.528 183.027 122.457 183.008 122.391 182.976C122.325 182.944 122.266 182.899 122.217 182.844C122.168 182.789 122.131 182.725 122.107 182.656C122.083 182.587 122.073 182.513 122.078 182.44C122.079 182.367 122.095 182.295 122.126 182.228C122.156 182.161 122.2 182.102 122.254 182.053C122.308 182.003 122.372 181.966 122.442 181.943C122.511 181.919 122.584 181.91 122.657 181.916C145.08 183.131 153.877 173.524 153.877 173.424C153.928 173.37 153.988 173.328 154.055 173.299C154.122 173.27 154.195 173.255 154.268 173.255C154.341 173.255 154.413 173.27 154.48 173.299C154.547 173.328 154.608 173.37 154.658 173.424C154.714 173.471 154.759 173.528 154.792 173.593C154.826 173.658 154.845 173.729 154.85 173.802C154.856 173.875 154.846 173.948 154.823 174.017C154.799 174.086 154.762 174.149 154.714 174.204C154.413 174.549 146.663 183.142 126.638 183.142Z" fill="#231F20"/>
<path d="M15.3498 116.194C15.2603 116.195 15.1718 116.174 15.092 116.134C15.0123 116.093 14.9439 116.033 14.8927 115.96C14.8092 115.838 14.7764 115.688 14.8014 115.542C14.8264 115.397 14.9071 115.267 15.0265 115.179L26.3995 107.278C26.4595 107.235 26.5273 107.205 26.599 107.189C26.6708 107.172 26.745 107.17 26.8175 107.183C26.8899 107.195 26.9592 107.222 27.0215 107.261C27.0837 107.3 27.1375 107.351 27.18 107.411C27.2224 107.471 27.2527 107.539 27.2689 107.611C27.2852 107.682 27.2872 107.757 27.2747 107.829C27.2623 107.902 27.2357 107.971 27.1965 108.033C27.1573 108.095 27.1062 108.149 27.0462 108.191L15.662 116.194C15.5605 116.226 15.4514 116.226 15.3498 116.194Z" fill="#E6E7E8"/>
<path d="M14.5916 124.72C14.4998 124.72 14.4096 124.696 14.3295 124.651C14.2495 124.606 14.1823 124.542 14.1345 124.463C14.0931 124.403 14.0642 124.335 14.0496 124.263C14.035 124.192 14.035 124.118 14.0495 124.046C14.0641 123.974 14.093 123.906 14.1344 123.846C14.1758 123.785 14.2289 123.734 14.2906 123.694L28.9417 114.065C29.0659 113.984 29.2173 113.955 29.3626 113.985C29.5079 114.016 29.6353 114.103 29.7166 114.227C29.7979 114.351 29.8266 114.502 29.7963 114.647C29.7659 114.793 29.6791 114.92 29.5549 115.001L14.9038 124.631C14.8093 124.687 14.7017 124.718 14.5916 124.72Z" fill="#E6E7E8"/>
<path d="M15.3498 133.246C15.2579 133.245 15.1675 133.222 15.0861 133.179C15.0047 133.137 14.9346 133.075 14.8815 133C14.8003 132.876 14.7711 132.724 14.8003 132.579C14.8294 132.433 14.9147 132.304 15.0376 132.22C15.439 131.953 22.8426 127.628 23.6231 127.127C23.7518 127.052 23.9051 127.03 24.0494 127.068C24.1937 127.106 24.3171 127.199 24.3925 127.328C24.4679 127.456 24.4891 127.609 24.4515 127.754C24.4138 127.898 24.3204 128.021 24.1918 128.097C20.9137 130.025 15.9408 132.967 15.662 133.156C15.5669 133.211 15.4596 133.242 15.3498 133.246Z" fill="#E6E7E8"/>
<path d="M29.2427 119.537C29.1576 119.538 29.0735 119.518 28.9977 119.479C28.922 119.441 28.8568 119.384 28.8079 119.314L19.1854 106.653C19.0967 106.535 19.0586 106.386 19.0796 106.24C19.1005 106.094 19.1787 105.962 19.2969 105.873C19.4152 105.784 19.5639 105.746 19.7103 105.767C19.8567 105.788 19.9887 105.866 20.0775 105.985L29.7445 118.59C29.7905 118.647 29.8244 118.713 29.8443 118.784C29.8642 118.854 29.8696 118.928 29.8602 119.001C29.8509 119.074 29.8269 119.144 29.7898 119.208C29.7526 119.271 29.7031 119.326 29.6441 119.37C29.5378 119.477 29.3934 119.537 29.2427 119.537Z" fill="#E6E7E8"/>
<path d="M24.4371 132.142C24.3475 132.144 24.259 132.123 24.1793 132.082C24.0996 132.042 24.0311 131.982 23.9799 131.908L9.67448 111.301C9.59096 111.179 9.55822 111.03 9.5832 110.884C9.60817 110.738 9.68891 110.608 9.80829 110.521C9.86888 110.479 9.93726 110.449 10.0095 110.433C10.0817 110.418 10.1562 110.417 10.2288 110.43C10.3015 110.444 10.3707 110.472 10.4325 110.512C10.4943 110.552 10.5474 110.605 10.5888 110.666L24.9277 131.273C25.0106 131.393 25.043 131.541 25.018 131.685C24.993 131.829 24.9125 131.957 24.7939 132.042C24.6891 132.114 24.5638 132.149 24.4371 132.142Z" fill="#E6E7E8"/>
<path d="M23.913 143.756C23.8332 143.755 23.7543 143.738 23.6814 143.705C23.6085 143.673 23.5431 143.625 23.4893 143.566C21.2593 141.07 17.5352 136.991 17.0112 136.578C16.8932 136.512 16.8033 136.405 16.7584 136.277C16.7135 136.15 16.7166 136.01 16.7671 135.884C16.8176 135.759 16.9121 135.656 17.0329 135.595C17.1537 135.534 17.2927 135.519 17.4237 135.553C17.6021 135.553 17.9366 135.698 24.3256 142.819C24.3778 142.871 24.4193 142.933 24.4476 143.001C24.4759 143.069 24.4905 143.142 24.4905 143.215C24.4905 143.289 24.4759 143.362 24.4476 143.429C24.4193 143.497 24.3778 143.559 24.3256 143.611C24.2717 143.664 24.2068 143.704 24.1355 143.729C24.0642 143.754 23.9882 143.763 23.913 143.756Z" fill="#E6E7E8"/>
<path d="M17.7359 144.28C17.652 144.281 17.5692 144.262 17.4938 144.225C17.4184 144.188 17.3524 144.135 17.3011 144.068C17.2093 143.951 17.1672 143.803 17.1839 143.655C17.2005 143.507 17.2747 143.371 17.3903 143.277L24.0803 138.05C24.1381 138.005 24.2043 137.971 24.2751 137.951C24.3459 137.932 24.42 137.926 24.493 137.935C24.566 137.943 24.6365 137.967 24.7006 138.003C24.7646 138.039 24.821 138.087 24.8664 138.145C24.9118 138.203 24.9453 138.269 24.9651 138.34C24.9849 138.41 24.9906 138.484 24.9818 138.557C24.973 138.63 24.9499 138.701 24.9138 138.765C24.8778 138.829 24.8294 138.885 24.7716 138.931L18.0816 144.158C17.9831 144.235 17.8615 144.279 17.7359 144.28Z" fill="#E6E7E8"/>
<path d="M181.797 142.385C181.749 142.395 181.7 142.395 181.652 142.385C181.511 142.348 181.39 142.258 181.315 142.133C181.24 142.008 181.217 141.858 181.251 141.717L184.975 127.339C185.012 127.192 185.106 127.065 185.237 126.986C185.367 126.908 185.524 126.885 185.672 126.921C185.82 126.958 185.947 127.053 186.025 127.183C186.103 127.314 186.127 127.47 186.09 127.618L182.366 141.984C182.33 142.105 182.255 142.211 182.152 142.284C182.048 142.357 181.923 142.393 181.797 142.385Z" fill="#E6E7E8"/>
<path d="M188.264 147.634H188.153C188.081 147.619 188.013 147.591 187.953 147.55C187.893 147.508 187.841 147.456 187.802 147.394C187.762 147.333 187.736 147.265 187.723 147.193C187.711 147.121 187.712 147.047 187.729 146.976L190.472 134.293C190.503 134.145 190.591 134.016 190.718 133.933C190.844 133.851 190.998 133.822 191.146 133.853C191.294 133.884 191.424 133.972 191.506 134.099C191.589 134.225 191.618 134.379 191.587 134.527L188.833 147.21C188.802 147.336 188.728 147.447 188.624 147.524C188.521 147.601 188.393 147.64 188.264 147.634Z" fill="#E6E7E8"/>
<path d="M194.764 154.533C194.618 154.53 194.477 154.47 194.373 154.366C194.269 154.263 194.21 154.122 194.207 153.976V150.833C194.207 150.685 194.266 150.543 194.37 150.439C194.475 150.334 194.617 150.275 194.764 150.275C194.912 150.275 195.054 150.334 195.159 150.439C195.263 150.543 195.322 150.685 195.322 150.833V153.976C195.322 154.123 195.263 154.265 195.159 154.37C195.054 154.474 194.912 154.533 194.764 154.533Z" fill="#E6E7E8"/>
<path d="M193.538 146.531C193.421 146.532 193.306 146.492 193.215 146.419C187.104 142.073 176.824 134.75 176.59 134.516C176.538 134.464 176.496 134.403 176.468 134.335C176.44 134.267 176.425 134.194 176.425 134.121C176.425 134.047 176.44 133.974 176.468 133.906C176.496 133.838 176.538 133.777 176.59 133.725C176.695 133.629 176.832 133.575 176.975 133.575C177.117 133.575 177.254 133.629 177.359 133.725C177.816 134.104 187.472 140.992 193.861 145.539C193.922 145.581 193.973 145.635 194.012 145.697C194.052 145.759 194.078 145.828 194.091 145.901C194.103 145.974 194.101 146.048 194.085 146.12C194.068 146.191 194.038 146.259 193.995 146.319C193.94 146.386 193.87 146.44 193.791 146.477C193.712 146.514 193.625 146.532 193.538 146.531Z" fill="#E6E7E8"/>
<path d="M192.757 139.075C192.642 139.074 192.53 139.039 192.434 138.974L180.671 130.816C180.61 130.775 180.557 130.722 180.517 130.66C180.476 130.598 180.449 130.529 180.435 130.456C180.422 130.384 180.423 130.309 180.438 130.237C180.454 130.165 180.484 130.096 180.526 130.036C180.613 129.917 180.743 129.836 180.889 129.811C181.035 129.786 181.184 129.819 181.306 129.902L193.07 138.06C193.13 138.101 193.183 138.153 193.223 138.214C193.263 138.274 193.291 138.343 193.304 138.414C193.318 138.486 193.317 138.56 193.302 138.631C193.286 138.702 193.257 138.77 193.215 138.829C193.164 138.904 193.096 138.966 193.016 139.008C192.937 139.051 192.848 139.074 192.757 139.075Z" fill="#E6E7E8"/>
</svg>
