<svg width="190" height="323" viewBox="0 0 190 323" fill="none" xmlns="http://www.w3.org/2000/svg">
<path d="M123.053 256.001C68.6033 249.905 7.42647 233.011 -42.1877 193.825C-57.3242 181.807 -56.6935 151.677 -41.557 139.311C-34.199 133.216 -25.7898 125.553 -16.3295 123.811C31.3926 115.277 75.5408 92.4616 126.837 97.3382C146.598 99.254 167.411 102.911 172.036 121.024C180.235 152.374 189.275 184.42 189.485 216.117C189.695 250.079 177.082 256.001 123.053 256.001Z" fill="#F0AD9D"/>
<path d="M91.5568 244.672C91.9772 246.587 92.3977 252.683 94.7102 258.256C103.33 280.201 94.9205 302.842 72.6361 316.427C56.028 326.528 36.8971 323.742 22.181 311.724C9.98769 301.797 -5.14882 294.482 -17.7626 284.729C-35.8423 270.622 -34.1605 247.981 -15.6603 234.396C-12.5069 232.132 -10.1943 228.474 -8.51249 225.165C-0.313536 208.271 18.3969 203.221 39.4199 210.884C49.9313 214.715 61.9144 216.283 73.4771 217.328C86.3011 218.199 92.6079 225.165 91.5568 244.672Z" fill="#F8F3EF"/>
<path d="M105.896 80.4042C110.897 103.344 75.8833 114.694 58.515 130.217C57.2814 131.388 44.8122 130.851 40.1237 129.155C31.167 125.865 23.0561 121.593 16.1333 116.968C-20.5289 92.5933 -57.4605 68.2482 -92.5629 43.1829C-99.9628 37.946 -100.482 29.5809 -104.122 22.5965C-89.7989 22.6318 -73.017 20.2514 -61.6518 23.1271C-18.6968 34.1693 22.273 46.9834 64.2394 58.948C82.966 64.2573 110.938 64.4027 105.896 80.4042Z" fill="#4E4C4D"/>
<path d="M19.7553 176.957C1.25509 172.602 -14.9326 169.99 -30.0691 165.288C-54.8762 157.45 -79.8935 149.613 -103.019 138.989C-127.195 127.668 -127.405 110.426 -106.382 95.7964C-75.8992 74.7227 -76.5298 75.071 -46.6773 98.9314C-27.1259 114.606 -5.89272 128.713 14.4995 143.865C20.386 148.22 26.2724 152.748 30.477 158.147C32.7895 161.108 33.21 167.029 31.3179 169.99C28.7952 173.473 22.6985 175.389 19.7553 176.957Z" fill="#37444D"/>
</svg>
