<svg width="144" height="368" viewBox="0 0 144 368" fill="none" xmlns="http://www.w3.org/2000/svg">
  <path
    d="M70.2367 308.818C75.8023 309.074 81.6772 307.79 86.3152 304.965C87.552 304.194 88.1704 303.424 89.098 302.396C90.3348 301.883 91.2624 301.112 92.19 300.085C95.2821 295.975 97.7557 291.352 99.3017 286.472C100.848 281.592 95.5913 277.225 89.7164 278.51C76.7299 281.335 66.5263 289.811 62.8158 300.598C61.2698 304.965 65.2894 308.561 70.2367 308.818Z"
    fill="white" />
  <path
    d="M22.9288 286.729C28.4944 286.985 34.3692 285.701 39.0073 282.876C40.2441 282.105 40.8625 281.335 41.7901 280.308C43.0269 279.794 43.9545 279.023 44.8821 277.996C47.9741 273.886 50.4478 269.263 51.9938 264.383C53.5398 259.503 48.2833 255.137 42.4085 256.421C29.422 259.246 19.2183 267.722 15.5079 278.51C13.9619 282.876 17.9815 286.215 22.9288 286.729Z"
    fill="white" />
  <path
    d="M104.249 235.359C109.815 235.616 115.689 234.332 120.327 231.507C121.564 230.736 122.183 229.966 123.11 228.938C124.347 228.425 125.275 227.654 126.202 226.627C129.294 222.517 131.768 217.894 133.314 213.014C134.86 208.134 129.604 203.767 123.729 205.052C110.742 207.877 100.539 216.353 96.8281 227.14C95.2821 231.507 99.3017 234.846 104.249 235.359Z"
    fill="white" />
  <path
    d="M49.5202 163.442C55.0858 163.698 60.9607 162.414 65.5987 159.589C66.8355 158.818 67.4539 158.048 68.3815 157.02C69.6183 156.507 70.5459 155.736 71.4736 154.709C74.5656 150.599 77.0392 145.976 78.5852 141.096C80.1312 136.216 74.8748 131.849 68.9999 133.134C56.0134 135.959 45.8098 144.435 42.0993 155.222C40.8625 159.589 44.8822 162.928 49.5202 163.442Z"
    fill="white" />
  <path
    d="M-16.3399 214.812C-10.7743 215.068 -4.89943 213.784 -0.261395 210.959C0.975415 210.188 1.59381 209.418 2.52142 208.391C3.75823 207.877 4.68583 207.106 5.61344 206.079C8.70546 201.969 11.1791 197.346 12.7251 192.466C14.2711 187.586 9.01467 183.22 3.13983 184.504C-9.84667 187.329 -20.0503 195.805 -23.7608 206.593C-25.3068 210.959 -21.2872 214.298 -16.3399 214.812Z"
    fill="white" />
  <path
    d="M107.341 157.277C112.907 157.534 118.781 156.25 123.42 153.425C124.656 152.654 125.275 151.884 126.202 150.856C127.439 150.343 128.367 149.572 129.294 148.545C132.386 144.435 134.86 139.812 136.406 134.932C137.952 130.052 132.696 125.685 126.821 126.97C113.834 129.795 103.631 138.271 99.9201 149.058C98.3741 153.425 102.394 157.021 107.341 157.277Z"
    fill="white" />
  <path
    d="M52.9214 229.708C58.4871 229.965 64.3619 228.681 68.9999 225.855C70.2368 225.085 70.8552 224.314 71.7828 223.287C73.0196 222.773 73.9472 222.003 74.8748 220.975C77.9668 216.866 80.4404 212.243 81.9864 207.363C83.5325 202.482 78.276 198.116 72.4012 199.4C59.4147 202.226 49.211 210.702 45.5006 221.489C44.2638 225.855 48.2834 229.451 52.9214 229.708Z"
    fill="white" />
  <path
    d="M14.8896 104.881C20.4552 105.138 26.3301 103.854 30.9681 101.028C32.2049 100.258 32.8233 99.4872 33.7509 98.4598C34.9877 97.9461 35.9153 97.1756 36.8429 96.1482C39.935 92.0387 42.4086 87.4155 43.9546 82.5354C45.5006 77.6554 40.2442 73.289 34.3693 74.5732C21.3828 77.3985 11.1792 85.8744 7.46873 96.6619C5.92271 101.028 9.94234 104.367 14.8896 104.881Z"
    fill="white" />
  <path
    d="M78.276 54.796C83.8416 55.0529 89.7165 53.7686 94.3545 50.9433C95.5913 50.1728 96.2097 49.4023 97.1373 48.3749C98.3741 47.8612 99.3017 47.0907 100.229 46.0633C103.321 41.9537 105.795 37.3305 107.341 32.4504C108.887 27.5703 103.631 23.2039 97.7557 24.4882C84.7692 27.3135 74.5656 35.7894 70.8551 46.577C69.3091 50.9433 73.3288 54.5392 78.276 54.796Z"
    fill="white" />
  <path
    d="M4.06742 367.635C9.63306 367.892 15.5079 366.608 20.1459 363.782C21.3827 363.012 22.0012 362.241 22.9288 361.214C24.1656 360.7 25.0932 359.93 26.0208 358.902C29.1128 354.793 31.5864 350.169 33.1324 345.289C34.6785 340.409 29.422 336.043 23.5472 337.327C10.5607 340.152 0.357 348.628 -3.35343 359.416C-4.89944 363.782 -0.879818 367.121 4.06742 367.635Z"
    fill="white" />
  <path
    d="M95.2821 90.4977C98.065 90.7545 100.539 89.984 102.703 88.6997C103.321 88.4429 103.631 87.9292 103.94 87.6724C104.558 87.4155 104.867 87.1587 105.486 86.645C107.032 84.8471 107.959 82.5354 108.887 80.4807C109.505 78.1691 107.032 76.3711 104.558 76.8848C98.6834 78.1691 93.7361 82.0218 92.1901 87.1587C91.2625 88.6998 93.1177 90.4977 95.2821 90.4977Z"
    fill="white" />
  <path
    d="M-12.6295 260.273C-9.84666 260.53 -7.37305 259.759 -5.20863 258.475C-4.59022 258.218 -4.28102 257.705 -3.97181 257.448C-3.35341 257.191 -3.04421 256.934 -2.4258 256.42C-0.879788 254.622 0.0478153 252.311 0.975423 250.256C1.59383 247.945 -0.879785 246.147 -3.35341 246.66C-9.22825 247.945 -14.1755 251.797 -15.7215 256.934C-16.6491 258.475 -14.7939 260.016 -12.6295 260.273Z"
    fill="white" />
  <path
    d="M13.962 138.013C16.7448 138.27 19.2184 137.5 21.3828 136.215C22.0012 135.959 22.3104 135.445 22.6196 135.188C23.238 134.931 23.5472 134.674 24.1656 134.161C25.7116 132.363 26.6392 130.051 27.5669 127.996C28.1853 125.685 25.7116 123.887 23.238 124.4C17.3632 125.685 12.4159 129.537 10.8699 134.674C9.63312 136.215 11.4883 138.013 13.962 138.013Z"
    fill="white" />
  <path
    d="M31.2773 28.5982C34.0601 28.8551 36.5337 28.0846 38.6981 26.8003C39.3165 26.5435 39.6257 26.0298 39.9349 25.7729C40.5533 25.5161 40.8625 25.2593 41.4809 24.7456C43.027 22.9477 43.9546 20.6361 44.8822 18.5813C45.5006 16.2697 43.0269 14.4718 40.5533 14.9855C34.6785 16.2697 29.7312 20.1224 28.1852 25.2593C27.2576 26.8003 29.1128 28.3414 31.2773 28.5982Z"
    fill="white" />
  <path
    d="M62.8158 341.694C65.5987 341.951 68.0723 341.18 70.2367 339.896C70.8551 339.639 71.1643 339.125 71.4735 338.869C72.0919 338.612 72.4011 338.355 73.0195 337.841C74.5655 336.043 75.4931 333.732 76.4207 331.677C77.0391 329.365 74.5655 327.567 72.0919 328.081C66.2171 329.365 61.2698 333.218 59.7238 338.355C58.487 339.896 60.3422 341.437 62.8158 341.694Z"
    fill="white" />
  <path
    d="M130.222 183.476C133.005 183.733 135.478 182.962 137.643 181.678C138.261 181.421 138.57 180.908 138.88 180.651C139.498 180.394 139.807 180.137 140.426 179.623C141.972 177.569 142.899 175.514 143.827 173.202C144.445 170.891 141.972 169.093 139.498 169.606C133.623 170.891 128.676 174.743 127.13 179.88C126.202 181.678 128.058 183.219 130.222 183.476Z"
    fill="white" />
  <path
    d="M125.893 13.7018C128.676 13.9586 131.15 13.1881 133.314 11.9038C133.932 11.647 134.242 11.1333 134.551 10.8765C135.169 10.6196 135.478 10.3628 136.097 9.84907C137.643 8.05115 138.57 5.73954 139.498 3.68477C140.116 1.37316 137.643 -0.42479 135.169 0.0889013C129.294 1.37313 124.347 5.22583 122.801 10.3628C121.874 11.9038 123.729 13.4449 125.893 13.7018Z"
    fill="white" />
  <path
    d="M-8.60988 319.605C-5.82706 319.862 -3.35345 319.091 -1.18903 317.807C-0.570629 317.55 -0.261422 317.037 0.0477809 316.78C0.666186 316.523 0.975388 316.266 1.59379 315.752C3.13981 313.955 4.06741 311.643 4.99502 309.588C5.61342 307.277 3.13981 305.479 0.666189 305.992C-5.20866 307.277 -10.1559 311.129 -11.7019 316.266C-12.6295 317.807 -10.7743 319.348 -8.60988 319.605Z"
    fill="white" />
</svg>
