<svg width="119" height="324" viewBox="0 0 119 324" fill="none" xmlns="http://www.w3.org/2000/svg">
  <g clip-path="url(#clip0_170:139)">
    <path
      d="M113.271 149.423C87.3417 111.394 50.8593 166.491 32.4673 203.922C27.6432 178.769 18.2964 152.717 0.809006 135.649C-18.789 116.784 -47.4322 122.772 -57.3819 148.525C-68.5377 178.17 -52.5578 217.697 -38.387 244.048C-21.5026 275.49 3.22107 302.14 31.2613 324C38.799 329.989 75.2814 253.331 92.7688 223.985C105.131 203.323 130.156 173.678 113.271 149.423Z"
      fill="#E6875E" />
    <path
      d="M106.035 79.9516C82.8191 46.1143 50.5578 94.9239 34.2764 128.162C29.7538 105.704 21.6131 82.6467 6.2362 67.6744C-11.2512 51.2049 -36.8794 56.2954 -45.6231 79.0533C-55.5728 105.405 -41.402 140.44 -28.7387 163.796C-13.6633 191.645 8.04525 215.301 33.0704 234.765C39.7035 239.856 71.9648 171.881 87.6432 145.83C98.799 127.863 120.809 101.512 106.035 79.9516Z"
      fill="#FFD2BD" />
    <path
      d="M87.3417 16.469C69.8543 -8.98385 45.7337 27.8479 33.3719 53.0014C30.0553 36.2324 24.0251 18.5651 12.2663 7.48565C-1 -5.09106 -19.995 -1.19827 -26.6281 15.8701C-34.1658 35.6335 -23.3116 62.2842 -13.9648 79.652C-2.80905 100.613 13.7739 118.28 32.4673 132.953C37.593 136.846 61.7136 85.6409 73.7739 66.177C81.9146 52.7019 98.4975 32.6391 87.3417 16.469Z"
      fill="#E6AA75" />
  </g>
  <defs>
    <clipPath id="clip0_170:139">
      <rect width="180" height="324" fill="white" transform="translate(-61)" />
    </clipPath>
  </defs>
</svg>
