<svg width="219" height="318" viewBox="0 0 219 318" fill="none" xmlns="http://www.w3.org/2000/svg">
<path d="M149.206 247.114C94.7562 241.018 33.5794 224.125 -16.0347 184.938C-31.1713 172.921 -30.5406 142.79 -15.4041 130.425C-8.04603 124.329 0.363157 116.666 9.82349 114.924C57.5456 106.39 101.694 83.5749 152.99 88.4514C172.751 90.3672 193.564 94.0247 198.189 112.138C206.388 143.487 215.428 175.533 215.638 207.231C215.848 241.193 203.235 247.114 149.206 247.114Z" fill="#F0BE69"/>
<path d="M179.741 239.388C180.162 241.304 180.582 247.4 182.895 252.973C191.514 274.918 183.105 297.559 160.82 311.144C144.212 321.245 125.081 318.459 110.365 306.441C98.172 296.514 83.0355 289.199 70.4217 279.446C52.342 265.339 54.0238 242.697 72.524 229.113C75.6775 226.849 77.99 223.191 79.6718 219.882C87.8708 202.988 106.581 197.938 127.604 205.601C138.116 209.432 150.099 211 161.661 212.045C174.485 212.916 180.792 219.882 179.741 239.388Z" fill="#F0AD9D"/>
<path d="M-3.9874 44.566C-6.42706 21.2144 29.6257 13.7977 48.6008 0.286032C49.9562 -0.742027 62.29 1.16723 66.7627 3.37021C75.3016 7.62931 82.8916 12.7696 89.2618 18.1302C123.01 46.4018 157.03 74.6735 189.152 103.459C195.929 109.481 195.523 117.852 198.369 125.195C184.137 123.58 167.195 124.094 156.217 119.981C114.743 104.267 75.4371 87.0102 35.0472 70.4878C17.0208 63.1445 -10.7642 59.9135 -3.9874 44.566Z" fill="#D98C24"/>
<path d="M152.569 22.6182C163.712 27.6689 174.854 32.8938 185.996 37.7704C189.78 39.3379 194.195 40.557 198.61 40.7312C217.951 41.4278 220.684 44.5628 216.269 60.4116C213.956 68.7715 212.064 77.3055 211.223 85.8395C209.121 106.042 180.109 124.504 156.984 118.582C150.887 117.015 144.791 110.396 142.689 104.823C135.961 87.9294 131.546 70.5131 125.66 53.4451C117.251 28.5398 119.143 26.2756 152.569 22.6182Z" fill="#556876"/>
<path d="M48.2955 158.639C29.7953 154.285 13.6076 151.673 -1.5289 146.97C-26.336 139.133 -51.3533 131.296 -74.4786 120.672C-98.6549 109.351 -98.8652 92.1088 -77.8422 77.4791C-47.3589 56.4053 -47.9896 56.7536 -18.137 80.614C1.41431 96.2887 22.6475 110.396 43.0398 125.548C48.9262 129.902 54.8126 134.43 59.0172 139.83C61.3297 142.79 61.7502 148.712 59.8581 151.673C57.3354 155.156 51.2387 157.072 48.2955 158.639Z" fill="#37444D"/>
</svg>
