<svg width="622" height="311" viewBox="0 0 622 311" fill="none" xmlns="http://www.w3.org/2000/svg">
<path d="M621 41.0129V270.487C620.9 277.289 619.1 283.791 616 289.393C609.4 301.397 596.8 309.599 582.3 309.999C581.9 309.999 581.4 309.999 581 309.999H40.8C34.3 309.999 28.2 308.399 22.8 305.698C15 301.697 8.8 295.395 5 287.592C3.3 284.191 2.1 280.39 1.5 276.489C1.2 274.388 1 272.287 1 270.087V41.0129C1 18.9058 18.9 1 41 1H581C603.1 1 621 18.9058 621 41.0129Z" fill="white" stroke="#FDD2A7" stroke-width="2" stroke-miterlimit="10"/>
<path d="M201.1 130.642H218.4V131.442C215.2 131.442 214.1 133.042 214.1 137.144V140.045V149.548C214.1 152.949 214.9 167.854 199.2 167.854C189.7 167.854 187.7 162.452 188.2 158.05C188.9 150.848 198.7 151.948 199.4 157.15C194.5 157.15 193.9 167.053 200 167.053C206.5 167.053 205.5 149.448 205.5 149.448V139.945V137.044C205.5 132.942 204.7 131.342 201.2 131.342L201.1 130.642Z" fill="#4E4C4D"/>
<path d="M229.1 143.746C233.7 143.746 236.3 145.447 237.9 147.547C240 150.348 239.8 154.95 234.7 155.55L225.6 156.65C225.6 156.95 225.7 157.25 225.8 157.551C228.2 164.753 236.5 165.953 240.2 159.951L240.7 160.451C236.2 171.755 220 170.155 216.9 159.651C216.7 158.851 216.5 158.151 216.4 157.25C215.8 150.048 219.2 143.846 228.8 143.846L229.1 143.746ZM229.1 144.446C225.7 144.446 224.8 149.848 225.6 155.55C225.6 155.65 225.6 155.75 225.6 155.85L227.3 155.65C232.2 155.05 232.8 152.349 232.7 150.648C232.4 147.547 231.5 144.446 229.1 144.446Z" fill="#4E4C4D"/>
<path d="M239.6 143.746H245.6H249.1H253.4V144.546C250.9 144.546 250.3 146.447 252.1 150.248L256.5 159.951L260.2 150.248C261.9 145.847 261.4 144.746 258.8 144.546V143.746H268.3V144.546C265.6 144.746 263.3 144.546 261.1 150.348L254.4 167.854H253.6H250.3L242.6 150.348C241 147.047 240.1 144.646 238 144.646V143.846L239.6 143.746Z" fill="#4E4C4D"/>
<path d="M279.5 143.846V158.351V161.252C279.5 165.353 280.6 166.953 283.8 166.953V167.754H266.5V166.953C270.1 166.953 270.8 165.353 270.8 161.252V158.351V155.25C270.8 151.148 269.9 148.948 267.2 148.748V147.947C273.9 147.947 278.6 143.746 278.6 143.746L279.5 143.846ZM279.5 135.643C279.5 138.444 277.2 140.645 274.5 140.645C271.7 140.645 269.5 138.344 269.5 135.643C269.5 132.943 271.8 130.642 274.5 130.642C277.2 130.542 279.5 132.843 279.5 135.643Z" fill="#4E4C4D"/>
<path d="M315.2 129.941C318.2 129.941 318.9 130.242 321.3 130.742C322.8 131.042 324.3 131.742 324.3 130.442H325.1L326.3 141.245L325.5 141.345C324.5 137.144 322.4 130.842 316.1 130.842C310.7 130.842 306.7 138.744 306.2 147.447C306.1 148.948 306.2 150.648 306.3 152.249C307.1 160.251 311 167.554 316 167.554C322.4 167.554 323.9 161.552 325.4 156.95L326.2 157.05L325 167.854H324.2C324.2 166.553 322.7 167.153 321.2 167.554C318.8 168.054 318.1 168.354 315.1 168.354C305.2 168.354 297.8 160.851 297 151.148C296.9 149.948 296.9 148.848 297 147.647C297.9 137.644 305.3 130.041 315.2 129.941Z" fill="#4E4C4D"/>
<path d="M349.7 152.449L349.8 153.149L350.6 160.451C351.8 167.754 355.1 165.553 355.1 165.553V166.153C354.5 167.654 345.3 170.355 342.7 165.053C342.7 165.053 340.2 168.154 334.8 168.154C330.5 168.154 326.3 166.553 326.3 161.952C326.3 151.749 341.5 157.851 340.7 151.148V150.548C340.4 148.448 340.2 144.546 336.9 144.546C334 144.546 333.2 145.747 333.2 146.947C333.2 148.047 333.7 149.048 335.9 149.048C337.2 153.849 329.9 155.75 328.7 151.249C327.7 147.647 330.5 143.746 336.9 143.746C347.1 143.746 348.9 147.147 349.7 152.449ZM341.1 153.549C340.2 155.75 334.6 156.05 334.6 161.152C334.6 167.354 342.7 167.254 342.2 162.952L341.1 153.549Z" fill="#4E4C4D"/>
<path d="M374.7 143.846C378.3 143.846 381.9 144.746 383.7 148.047C384.9 145.647 387.3 143.846 390.8 143.846C398.2 143.846 400.5 148.248 401.2 152.549L401.9 158.351C402.9 165.753 403 167.154 405.5 167.154V167.954H397.8H390V167.054C392.5 167.054 393.8 164.953 393.5 161.352L392.5 151.749C392.2 148.648 391 145.347 387.8 145.747C385 146.147 384.6 148.948 384.6 154.35V161.352C384.6 165.253 385.5 167.054 388 167.054V167.854H380.3H372.6V167.054C375.1 167.054 376 165.253 376 161.352V151.249C376 147.447 374.1 145.647 371.6 145.647C369.1 145.647 367.3 147.447 367.3 151.849V158.351V161.252C367.3 165.153 368.2 166.954 370.7 166.954V167.754H363H355.3V167.054C357.8 167.054 358.7 165.253 358.7 161.352V159.851V158.351V155.25C358.7 151.148 357.8 148.948 355.1 148.748V147.947C361.8 147.947 366.5 143.746 366.5 143.746H367.3V146.647C368.5 145.447 370.4 143.746 374.8 143.746L374.7 143.846Z" fill="#4E4C4D"/>
<path d="M416.5 143.746V145.947C418.1 144.746 420 143.946 422.1 143.746C422.3 143.746 422.5 143.746 422.7 143.746C422.9 143.746 423.1 143.746 423.3 143.746C429 144.046 433.6 149.048 434 155.25C434.4 161.952 429.8 167.754 423.7 168.154C421.1 168.254 418.6 167.454 416.5 165.853V171.555V174.456C416.5 178.557 417.6 180.158 420.8 180.158V180.958H403.5V180.158C407.1 180.158 407.8 178.557 407.8 174.456V171.555V155.25C407.8 151.148 406.9 148.948 404.2 148.748V147.947C410.9 147.947 415.6 143.746 415.6 143.746H416.5ZM419 145.647C418.9 145.647 418.7 145.647 418.6 145.647C417.2 146.047 416.6 147.847 416.6 150.448C416.6 152.449 417 154.95 417.7 157.551C419.3 163.552 421.9 167.954 424.4 167.254C426.8 166.553 426.8 161.352 425.3 155.45C423.7 149.948 421.3 145.647 419 145.647Z" fill="#4E4C4D"/>
<path d="M348.7 115.437H274.7C274.7 115.437 270.7 72.4229 310.7 72.4229C350.7 72.4229 348.7 115.437 348.7 115.437Z" fill="#D98C24" stroke="#D98C24" stroke-miterlimit="10"/>
<path d="M363.2 109.334C363.8 108.634 364.9 108.634 365.8 108.634C371.6 108.734 377.3 108.834 383.1 108.934" fill="#D98C24"/>
<path d="M365.3 111.536C365.2 111.636 365 111.736 364.9 111.736C365.2 111.636 365.3 111.636 365 111.636C364.7 111.636 365.5 111.636 365.6 111.636C366.4 111.636 367.3 111.636 368.1 111.636C369.7 111.636 371.4 111.736 373 111.736C376.3 111.836 379.7 111.836 383 111.936C384.6 111.936 386.1 110.535 386 108.935C385.9 107.334 384.7 105.934 383 105.934C379.3 105.834 375.5 105.834 371.8 105.734C370 105.734 368.1 105.634 366.3 105.634C364.3 105.634 362.5 105.734 361 107.234C359.8 108.335 359.9 110.335 361 111.436C362.3 112.636 364.2 112.636 365.3 111.536Z" fill="#D98C24"/>
<path d="M360.2 95.1289C360 95.429 359.5 95.529 359.2 95.229C366.1 93.9285 373 92.6281 379.8 91.4277" fill="#D98C24"/>
<path d="M358.1 93.0295C358.2 92.9295 358.3 92.9295 358.3 92.8294C358.8 92.7294 359.3 92.5293 359.8 92.4293C360.1 92.5293 360.4 92.6294 360.7 92.7294C360.5 94.53 360.2 96.4306 360 98.2312C366.9 96.9307 373.8 95.6303 380.6 94.4299C382.2 94.1298 383.1 92.2292 382.7 90.7287C382.2 89.0282 380.6 88.328 379 88.6281C372.1 89.9285 365.2 91.2289 358.4 92.4293C357.3 92.6294 356.4 93.8297 356.3 94.9301C356.2 96.2305 356.7 97.2308 357.7 97.9311C359.1 98.9314 361.2 98.6313 362.3 97.3309C363.4 96.1305 363.5 94.2299 362.3 93.1295C361.2 91.9291 359.2 91.7291 358.1 93.0295Z" fill="#D98C24"/>
<path d="M349.2 78.8244C354.1 73.6228 359.4 68.7212 365 64.2197L349.2 78.8244Z" fill="#D98C24"/>
<path d="M351.4 80.9261C356.3 75.7244 361.6 70.8228 367.2 66.3214C368.4 65.3211 368.3 63.1203 367.2 62.12C365.9 60.9196 364.3 61.0197 363 62.12C357.4 66.6215 352.1 71.523 347.2 76.7247C346.1 77.8251 346 79.8257 347.2 80.9261C348.3 82.0264 350.2 82.1265 351.4 80.9261Z" fill="#D98C24"/>
<path d="M328.8 64.1194C332.1 58.3176 335.5 52.6157 339 46.9139C339.2 46.6138 339.3 46.4137 339.3 46.1136C339.3 45.8136 338.9 45.6135 338.7 45.7135" fill="#D98C24"/>
<path d="M331.4 65.6206C333.5 61.9194 335.7 58.2182 337.9 54.5171C339 52.7165 340.1 50.9159 341.1 49.2154C341.9 48.015 342.6 46.7145 342.1 45.2141C341.5 43.4135 339.7 42.3131 337.8 42.8133C336.3 43.2134 335.2 44.914 335.7 46.5145C336.2 48.015 337.8 49.1153 339.4 48.6152C339.5 48.6152 339.5 48.6152 339.6 48.5151C339.1 48.5151 338.5 48.5151 338 48.5151C338.1 48.5151 338.1 48.5151 338.2 48.6152C337.8 48.3151 337.3 48.115 336.9 47.8149C337 47.9149 337 47.9149 337.1 48.015C336.8 47.6148 336.6 47.1147 336.3 46.7145C336.6 45.4141 336.6 45.014 336.2 45.7142C336.1 45.9143 336 46.1144 335.8 46.3144C335.6 46.6145 335.4 46.9146 335.2 47.2147C334.8 47.9149 334.3 48.6152 333.9 49.3154C333 50.8159 332.1 52.3163 331.2 53.7168C329.5 56.6177 327.8 59.5187 326.1 62.5196C325.3 63.9201 325.7 65.8207 327.2 66.6209C328.7 67.5212 330.5 67.1211 331.4 65.6206Z" fill="#D98C24"/>
<path d="M308.6 62.7201C308 55.5178 307.5 48.2154 307.1 41.0131C307.1 40.4129 307.6 39.7127 307.9 40.1128" fill="#D98C24"/>
<path d="M311.6 62.7206C311.3 59.0195 311 55.3183 310.7 51.6171C310.6 49.8165 310.5 48.1159 310.3 46.3154C310.2 45.4151 310.2 44.5148 310.1 43.6145C310.1 43.1143 310 42.6142 310 42.014C310 41.8139 310 41.6139 310 41.3138C310 40.3134 309.7 40.6135 309 42.5141C308.5 42.6142 308 42.8142 307.5 42.9143C307.6 42.9143 307.6 42.9143 307.7 42.9143C307 42.6142 306.3 42.3141 305.6 42.014L305.7 42.114C308.5 44.8149 312.7 40.5135 309.9 37.9127C307.4 35.5119 304 37.8126 303.9 40.9136C303.8 43.3144 304.2 45.8152 304.4 48.216C304.7 53.0175 305.1 57.8191 305.5 62.6206C305.6 64.2211 306.8 65.6216 308.5 65.6216C310.1 65.7216 311.7 64.3212 311.6 62.7206Z" fill="#D98C24"/>
<path d="M284.7 69.3208C282.4 62.3185 280.1 55.4163 277.8 48.4141L284.7 69.3208Z" fill="#D98C24"/>
<path d="M287.6 68.5217C285.3 61.5195 283 54.6173 280.7 47.615C280.2 46.1145 278.6 45.1142 277 45.5143C275.5 45.9145 274.4 47.615 274.9 49.2155C277.2 56.2178 279.5 63.12 281.8 70.1223C282.3 71.6227 283.9 72.6231 285.5 72.2229C287 71.8228 288.1 70.1223 287.6 68.5217Z" fill="#D98C24"/>
<path d="M273 81.8245C269 76.7228 265 71.6212 261 66.5195L273 81.8245Z" fill="#D98C24"/>
<path d="M275.1 79.6251C271.1 74.5235 267.1 69.4219 263.1 64.3202C262.1 63.1198 259.9 63.2199 258.9 64.3202C257.7 65.6206 257.9 67.2211 258.9 68.5216C262.9 73.6232 266.9 78.7248 270.9 83.8265C271.9 85.0269 274.1 84.9268 275.1 83.8265C276.3 82.6261 276.1 81.0256 275.1 79.6251Z" fill="#D98C24"/>
<path d="M265.3 97.7309C258.2 93.9297 250.9 90.4286 243.5 87.2275L265.3 97.7309Z" fill="#D98C24"/>
<path d="M266.8 95.1309C259.7 91.3297 252.4 87.8285 245 84.6275C243.5 84.0273 241.8 84.2274 240.9 85.7279C240.2 87.0283 240.5 89.229 242 89.8292C249.4 93.0302 256.7 96.5313 263.8 100.333C265.2 101.133 267.1 100.733 267.9 99.2322C268.6 97.9318 268.2 95.9311 266.8 95.1309Z" fill="#D98C24"/>
<path d="M259.3 114.436C252.6 113.836 245.8 113.736 239.1 114.136L259.3 114.436Z" fill="#D98C24"/>
<path d="M259.3 111.436C252.6 110.835 245.8 110.735 239.1 111.136C237.5 111.236 236.1 112.436 236.1 114.137C236.1 115.737 237.5 117.238 239.1 117.138C245.8 116.737 252.6 116.837 259.3 117.438C260.9 117.538 262.3 115.937 262.3 114.437C262.3 112.736 260.9 111.636 259.3 111.436Z" fill="#D98C24"/>
<path d="M33.6999 68.4221C32.5999 68.5221 31.4999 68.5221 30.5999 68.0219C29.6999 67.5218 28.9999 66.4214 29.3999 65.4211C29.6999 64.8209 30.2999 64.5208 30.7999 64.2207C33.1999 63.1204 35.8999 62.9203 38.1999 61.5198C41.5999 59.4192 43.0999 55.1178 46.4999 53.1171C50.5999 50.7164 56.0999 52.4169 60.5999 50.8164C67.2999 48.4156 69.5999 39.9129 75.7999 36.4118C80.1999 33.911 85.6999 34.5112 90.4999 36.1117C93.5999 37.112 96.6999 38.5124 98.6999 41.1133C99.7999 42.5137 100.5 44.2143 101.9 45.3146C105 47.8154 109.6 46.2149 113.5 46.615C121.1 47.4153 125.9 55.918 133.3 57.8186C136.7 58.7189 140.5 58.1187 143.8 59.4192C144.7 59.8193 145.7 60.3195 146.2 61.2197C147.3 63.0203 146.1 65.4211 144.4 66.4214C142.6 67.5218 140.5 67.5218 138.4 67.6218C110.3 68.222 40.4999 68.122 33.6999 68.4221Z" fill="#F0BE69"/>
<path d="M473.7 73.424C472.6 73.5241 471.5 73.5241 470.6 73.0239C469.7 72.5237 469 71.4234 469.4 70.4231C469.7 69.8229 470.3 69.5228 470.8 69.2227C473.2 68.1223 475.9 67.9222 478.2 66.5218C481.6 64.4211 483.1 60.1197 486.5 58.1191C490.6 55.7183 496.1 57.4189 500.6 55.8184C507.3 53.4176 509.6 44.9148 515.8 41.4137C520.2 38.9129 525.7 39.5131 530.5 41.1136C533.6 42.1139 536.7 43.5144 538.7 46.1152C539.8 47.5157 540.5 49.2162 541.9 50.3166C545 52.8174 549.6 51.2169 553.5 51.617C561.1 52.4173 565.9 60.92 573.3 62.8206C576.7 63.7209 580.5 63.1207 583.8 64.4211C584.7 64.8213 585.7 65.3214 586.2 66.2217C587.3 68.0223 586.1 70.4231 584.4 71.4234C582.6 72.5237 580.5 72.5237 578.4 72.6238C550.3 73.224 480.5 73.1239 473.7 73.424Z" fill="#F0BE69"/>
<path d="M429.7 118.438C428.6 118.538 427.5 118.538 426.6 118.038C425.7 117.537 425 116.437 425.4 115.437C425.7 114.837 426.3 114.536 426.8 114.236C429.2 113.136 431.9 112.936 434.2 111.535C437.6 109.435 439.1 105.133 442.5 103.133C446.6 100.732 452.1 102.433 456.6 100.832C463.3 98.4313 465.6 89.9285 471.8 86.4274C476.2 83.9266 481.7 84.5268 486.5 86.1273C489.6 87.1276 492.7 88.5281 494.7 91.1289C495.8 92.5294 496.5 94.2299 497.9 95.3303C501 97.8311 505.6 96.2305 509.5 96.6307C517.1 97.4309 521.9 105.934 529.3 107.834C532.7 108.735 536.5 108.134 539.8 109.435C540.7 109.835 541.7 110.335 542.2 111.235C543.3 113.036 542.1 115.437 540.4 116.437C538.6 117.537 536.5 117.537 534.4 117.637C506.3 118.238 436.5 118.138 429.7 118.438Z" fill="#F0BE69"/>
<path d="M81.6999 114.437C80.5999 114.537 79.4999 114.537 78.5999 114.037C77.6999 113.536 76.9999 112.436 77.3999 111.436C77.6999 110.836 78.2999 110.535 78.7999 110.235C81.1999 109.135 83.8999 108.935 86.1999 107.534C89.5999 105.434 91.0999 101.132 94.4999 99.1318C98.5999 96.731 104.1 98.4316 108.6 96.8311C115.3 94.4303 117.6 85.9275 123.8 82.4264C128.2 79.9256 133.7 80.5258 138.5 82.1263C141.6 83.1266 144.7 84.5271 146.7 87.1279C147.8 88.5284 148.5 90.2289 149.9 91.3293C153 93.8301 157.6 92.2296 161.5 92.6297C169.1 93.43 173.9 101.933 181.3 103.833C184.7 104.734 188.5 104.133 191.8 105.434C192.7 105.834 193.7 106.334 194.2 107.234C195.3 109.035 194.1 111.436 192.4 112.436C190.6 113.536 188.5 113.536 186.4 113.636C158.3 114.237 88.4999 114.137 81.6999 114.437Z" fill="#F0BE69"/>
<g opacity="0.33">
<path opacity="0.33" d="M174.7 265.585C174.4 264.285 174 262.984 173.6 261.784C166.9 240.877 148 223.872 126.1 220.771C116.8 219.47 106.5 220.171 98.9001 214.569C93.1001 210.267 90.3001 203.165 87.1001 196.763C85.7001 193.962 84.2001 191.161 82.6001 188.56C90.9001 186.26 99.4001 182.559 108.2 184.159C128.8 188.861 149.5 198.064 164.8 211.868C175.5 222.671 179.2 239.277 188.6 250.881C192 255.382 199 259.583 200.1 265.085C202.1 277.789 184.4 271.187 174.7 265.585Z" fill="#F0BE69"/>
</g>
<g opacity="0.46">
<path opacity="0.46" d="M176.2 275.489L173.6 275.689C164.2 274.989 154.8 274.288 145.4 273.588C145.3 273.588 145.3 273.588 145.2 273.588C131.2 272.488 117.2 271.487 103.2 270.387C84.3999 268.987 65.3999 267.586 46.7999 264.485C42.6999 263.785 38.5999 263.085 34.4999 262.184C26.8999 260.584 19.0999 258.683 11.3999 259.984C8.6999 260.384 3.6999 266.386 0.999902 265.986V261.484C0.699902 259.984 0.699902 258.983 0.999902 259.283V152.549C2.0999 151.749 3.0999 151.149 3.6999 150.949C8.8999 149.248 14.3999 148.548 19.8999 148.548C30.4999 148.548 41.1999 151.349 50.4999 156.35C66.6999 165.153 78.9999 180.058 87.1999 196.563C90.3999 203.065 93.1999 210.068 98.9999 214.369C106.6 219.971 116.9 219.271 126.2 220.571C148.1 223.672 167 240.677 173.7 261.584C175.1 266.186 176 270.787 176.2 275.489Z" fill="#F0BE69"/>
</g>
<path d="M620.7 252.981V268.186C620.7 268.987 620.7 269.687 620.7 270.387C620.4 277.189 618.7 283.691 616 289.393L5 287.593C3.3 284.191 2.1 280.39 1.5 276.489C1.2 274.388 1 272.288 1 270.087V262.284C18.9 247.28 42.6 242.178 65.1 243.078C90.5 244.079 115.2 251.681 140.2 256.683C151.3 258.883 162.4 260.584 173.7 261.784C178 262.184 182.3 262.584 186.5 262.885C207 264.185 227.6 263.485 248.1 262.885C323 260.484 397.6 260.384 472.5 257.983C518.4 256.483 564.6 252.781 610.5 251.281C613.5 251.181 616.7 251.081 619.5 252.381C619.9 252.481 620.3 252.681 620.7 252.981Z" fill="#F0BE69"/>
<path d="M621 270.487V280.39C621 296.395 603.8 309.5 582.3 309.9C581.9 309.9 581.4 309.9 581 309.9H40.8C34.3 309.9 28.2 308.299 22.8 305.598C15 301.697 8.8 295.395 5 287.593C3.3 284.192 2.1 280.39 1.5 276.489C14.4 269.487 30.4 265.786 46.7 264.485C52.9 263.985 59.1 263.885 65.3 263.985C90.7 264.585 115.4 269.587 140.4 272.888C142 273.088 143.5 273.288 145.1 273.488C145.2 273.488 145.2 273.488 145.3 273.488H145.4C159.1 275.189 172.9 276.289 186.7 276.889C207.2 277.789 227.8 277.289 248.3 276.889C323.2 275.289 397.8 275.189 472.7 273.688C518.6 272.688 564.8 270.287 610.7 269.287C613.7 269.187 616.9 269.187 619.7 269.987C620 270.087 620.4 270.187 620.7 270.287C620.8 270.487 620.9 270.487 621 270.487Z" fill="#D98C24"/>
<path d="M163.1 191.462L160.2 205.767H158.7L161.3 192.762H158L158.3 191.462H163.1Z" fill="#4E4C4D"/>
<path d="M165.5 204.466H173.3L173 205.766H162.9L163.1 204.766L170.3 198.964C171.3 198.164 172 197.464 172.4 196.864C172.8 196.263 173 195.663 173 194.963C173 194.263 172.7 193.662 172.2 193.262C171.7 192.862 170.9 192.662 169.9 192.662C169.1 192.662 168.4 192.762 167.7 193.062C167 193.362 166.4 193.763 165.9 194.263L164.9 193.362C165.5 192.762 166.2 192.262 167.2 191.862C168.1 191.462 169.1 191.262 170.1 191.262C171.5 191.262 172.6 191.562 173.4 192.162C174.2 192.762 174.5 193.663 174.5 194.663C174.5 195.463 174.3 196.363 173.8 197.064C173.3 197.864 172.5 198.664 171.3 199.664L165.5 204.466Z" fill="#4E4C4D"/>
<path d="M194 190.662L191 205.866H189.6L189.9 204.166C189.4 204.766 188.8 205.166 188.1 205.466C187.4 205.766 186.6 205.966 185.7 205.966C184.8 205.966 184 205.766 183.3 205.366C182.6 204.966 182 204.466 181.6 203.766C181.2 203.066 181 202.265 181 201.365C181 200.165 181.3 199.064 181.8 198.064C182.3 197.064 183.1 196.363 184 195.763C184.9 195.163 186 194.963 187.1 194.963C188.1 194.963 189 195.163 189.7 195.563C190.4 195.963 190.9 196.563 191.2 197.264L192.5 190.562H194V190.662ZM188.5 203.966C189.2 203.566 189.8 202.966 190.2 202.165C190.6 201.365 190.8 200.565 190.8 199.564C190.8 198.464 190.5 197.664 189.9 197.064C189.3 196.463 188.4 196.163 187.3 196.163C186.4 196.163 185.6 196.363 184.9 196.864C184.2 197.264 183.6 197.864 183.2 198.664C182.8 199.464 182.6 200.265 182.6 201.265C182.6 202.365 182.9 203.166 183.5 203.766C184.1 204.366 185 204.666 186.1 204.666C186.9 204.666 187.7 204.366 188.5 203.966Z" fill="#4E4C4D"/>
<path d="M196.7 195.063H198.2L196.1 205.866H194.6L196.7 195.063ZM199.5 190.861H201.5L197.9 193.362H196.4L199.5 190.861Z" fill="#4E4C4D"/>
<path d="M211.7 195.063L209.6 205.866H208.2L208.5 204.166C208 204.766 207.4 205.166 206.7 205.466C206 205.766 205.2 205.966 204.3 205.966C203.4 205.966 202.6 205.766 201.9 205.366C201.2 204.966 200.6 204.466 200.2 203.766C199.8 203.066 199.6 202.265 199.6 201.365C199.6 200.165 199.9 199.064 200.4 198.064C200.9 197.064 201.7 196.363 202.6 195.763C203.5 195.163 204.6 194.963 205.7 194.963C206.7 194.963 207.6 195.163 208.3 195.563C209 195.963 209.5 196.563 209.8 197.264L210.3 194.963H211.7V195.063ZM207 203.966C207.7 203.566 208.3 202.965 208.7 202.165C209.1 201.365 209.3 200.565 209.3 199.564C209.3 198.464 209 197.664 208.4 197.064C207.8 196.463 206.9 196.163 205.8 196.163C204.9 196.163 204.1 196.363 203.4 196.864C202.7 197.264 202.1 197.864 201.7 198.664C201.3 199.464 201.1 200.265 201.1 201.265C201.1 202.365 201.4 203.166 202 203.766C202.6 204.366 203.5 204.666 204.6 204.666C205.5 204.666 206.3 204.366 207 203.966Z" fill="#4E4C4D"/>
<path d="M214.1 205.566C213.3 205.366 212.7 204.966 212.3 204.666L213 203.565C213.4 203.965 213.9 204.165 214.6 204.466C215.3 204.666 216 204.766 216.7 204.766C217.7 204.766 218.5 204.566 219.1 204.265C219.7 203.965 219.9 203.465 219.9 202.865C219.9 202.565 219.8 202.265 219.6 202.065C219.4 201.865 219.1 201.665 218.8 201.565C218.5 201.465 218 201.365 217.4 201.164C216.6 200.964 216 200.864 215.6 200.664C215.1 200.464 214.7 200.264 214.4 199.864C214.1 199.464 213.9 199.064 213.9 198.364C213.9 197.363 214.3 196.563 215.2 195.963C216 195.363 217.2 195.062 218.6 195.062C219.3 195.062 220 195.163 220.6 195.363C221.3 195.563 221.8 195.763 222.2 196.063L221.6 197.263C221.2 196.963 220.7 196.763 220.2 196.563C219.6 196.363 219.1 196.363 218.5 196.363C217.5 196.363 216.8 196.563 216.2 196.863C215.7 197.263 215.4 197.663 215.4 198.264C215.4 198.664 215.5 198.864 215.7 199.164C215.9 199.364 216.2 199.564 216.6 199.664C216.9 199.764 217.4 199.864 218 199.964C218.7 200.164 219.3 200.264 219.8 200.464C220.3 200.664 220.6 200.864 221 201.264C221.3 201.665 221.5 202.065 221.5 202.665C221.5 203.765 221.1 204.566 220.2 205.166C219.3 205.766 218.2 206.066 216.7 206.066C215.7 205.966 214.8 205.766 214.1 205.566Z" fill="#4E4C4D"/>
<path d="M241.6 190.662L238.6 205.866H237.2L237.5 204.166C237 204.766 236.4 205.166 235.7 205.466C235 205.766 234.2 205.966 233.3 205.966C232.4 205.966 231.6 205.766 230.9 205.366C230.2 204.966 229.6 204.466 229.2 203.766C228.8 203.066 228.6 202.265 228.6 201.365C228.6 200.165 228.9 199.064 229.4 198.064C229.9 197.064 230.7 196.363 231.6 195.763C232.5 195.163 233.6 194.963 234.7 194.963C235.7 194.963 236.6 195.163 237.3 195.563C238 195.963 238.5 196.563 238.8 197.264L240.1 190.562H241.6V190.662ZM236.1 203.966C236.8 203.566 237.4 202.966 237.8 202.165C238.2 201.365 238.4 200.565 238.4 199.564C238.4 198.464 238.1 197.664 237.5 197.064C236.9 196.463 236 196.163 234.9 196.163C234 196.163 233.2 196.363 232.5 196.864C231.8 197.264 231.2 197.864 230.8 198.664C230.4 199.464 230.2 200.265 230.2 201.265C230.2 202.365 230.5 203.166 231.1 203.766C231.7 204.366 232.6 204.666 233.7 204.666C234.5 204.666 235.3 204.366 236.1 203.966Z" fill="#4E4C4D"/>
<path d="M243.7 200.865C243.7 200.965 243.7 201.065 243.7 201.265C243.7 202.366 244 203.166 244.6 203.766C245.2 204.366 246.1 204.666 247.4 204.666C248.1 204.666 248.8 204.566 249.4 204.266C250 204.066 250.5 203.666 250.9 203.266L251.6 204.266C251.1 204.766 250.5 205.167 249.7 205.467C248.9 205.767 248.1 205.867 247.3 205.867C245.7 205.867 244.5 205.467 243.6 204.666C242.7 203.866 242.3 202.766 242.3 201.265C242.3 200.065 242.6 198.965 243.1 197.964C243.6 196.964 244.3 196.264 245.2 195.664C246.1 195.063 247.1 194.863 248.3 194.863C249.7 194.863 250.9 195.263 251.7 196.064C252.5 196.864 253 197.964 253 199.365C253 199.765 253 200.165 252.9 200.665H243.7V200.865ZM245.4 197.164C244.6 197.764 244.1 198.664 243.8 199.765H251.5C251.5 199.665 251.5 199.565 251.5 199.365C251.5 198.364 251.2 197.564 250.6 197.064C250 196.464 249.2 196.264 248.1 196.264C247.1 196.164 246.2 196.564 245.4 197.164Z" fill="#4E4C4D"/>
<path d="M269.9 195.563C270.6 195.963 271.2 196.464 271.6 197.164C272 197.864 272.2 198.664 272.2 199.565C272.2 200.765 271.9 201.865 271.4 202.866C270.9 203.866 270.1 204.566 269.2 205.166C268.3 205.767 267.2 205.967 266.1 205.967C265.1 205.967 264.2 205.767 263.5 205.366C262.8 204.966 262.3 204.366 262 203.566L261.5 205.967H260.1L263.1 190.762H264.6L263.4 196.764C263.9 196.263 264.5 195.763 265.2 195.463C265.9 195.163 266.6 195.063 267.5 195.063C268.3 194.963 269.2 195.163 269.9 195.563ZM268.4 203.966C269.1 203.566 269.7 202.966 270.1 202.165C270.5 201.365 270.7 200.565 270.7 199.565C270.7 198.464 270.4 197.664 269.8 197.064C269.2 196.464 268.3 196.163 267.2 196.163C266.3 196.163 265.5 196.364 264.8 196.764C264.1 197.164 263.5 197.764 263.1 198.564C262.7 199.364 262.5 200.165 262.5 201.165C262.5 202.265 262.8 203.066 263.4 203.666C264 204.266 264.9 204.566 266 204.566C266.9 204.666 267.7 204.366 268.4 203.966Z" fill="#4E4C4D"/>
<path d="M275.8 195.063H277.3L275.2 205.866H273.7L275.8 195.063ZM276.4 192.362C276.2 192.162 276.1 191.962 276.1 191.662C276.1 191.362 276.2 191.062 276.4 190.862C276.6 190.662 276.9 190.562 277.2 190.562C277.5 190.562 277.7 190.662 277.9 190.862C278.1 191.062 278.2 191.262 278.2 191.462C278.2 191.762 278.1 192.062 277.9 192.262C277.7 192.462 277.4 192.562 277.1 192.562C276.9 192.662 276.6 192.562 276.4 192.362Z" fill="#4E4C4D"/>
<path d="M280.2 200.865C280.2 200.965 280.2 201.065 280.2 201.265C280.2 202.366 280.5 203.166 281.1 203.766C281.7 204.366 282.6 204.666 283.9 204.666C284.6 204.666 285.3 204.566 285.9 204.266C286.5 204.066 287 203.666 287.4 203.266L288.1 204.266C287.6 204.766 287 205.167 286.2 205.467C285.4 205.767 284.6 205.867 283.8 205.867C282.2 205.867 281 205.467 280.1 204.666C279.2 203.866 278.8 202.766 278.8 201.265C278.8 200.065 279.1 198.965 279.6 197.964C280.1 196.964 280.8 196.264 281.7 195.664C282.6 195.063 283.6 194.863 284.8 194.863C286.2 194.863 287.4 195.263 288.2 196.064C289 196.864 289.5 197.964 289.5 199.365C289.5 199.765 289.5 200.165 289.4 200.665H280.2V200.865ZM281.9 197.164C281.1 197.764 280.6 198.664 280.3 199.765H288C288 199.665 288 199.565 288 199.365C288 198.364 287.7 197.564 287.1 197.064C286.5 196.464 285.7 196.264 284.6 196.264C283.6 196.164 282.7 196.564 281.9 197.164Z" fill="#4E4C4D"/>
<path d="M301.1 195.863C301.8 196.463 302.1 197.364 302.1 198.464C302.1 198.864 302.1 199.264 302 199.664L300.8 205.766H299.3L300.5 199.664C300.6 199.264 300.6 198.964 300.6 198.664C300.6 197.864 300.4 197.264 299.9 196.864C299.4 196.463 298.7 196.263 297.8 196.263C296.6 196.263 295.7 196.563 294.9 197.264C294.1 197.864 293.6 198.864 293.4 200.065L292.3 205.866H290.8L293 195.063H294.4L294.1 196.763C295.1 195.563 296.5 194.963 298.3 194.963C299.5 194.963 300.4 195.263 301.1 195.863Z" fill="#4E4C4D"/>
<path d="M305.7 200.865C305.7 200.965 305.7 201.065 305.7 201.265C305.7 202.366 306 203.166 306.6 203.766C307.2 204.366 308.1 204.666 309.4 204.666C310.1 204.666 310.8 204.566 311.4 204.266C312 204.066 312.5 203.666 312.9 203.266L313.6 204.266C313.1 204.766 312.5 205.167 311.7 205.467C310.9 205.767 310.1 205.867 309.3 205.867C307.7 205.867 306.5 205.467 305.6 204.666C304.7 203.866 304.3 202.766 304.3 201.265C304.3 200.065 304.6 198.965 305.1 197.964C305.6 196.964 306.3 196.264 307.2 195.664C308.1 195.063 309.1 194.863 310.3 194.863C311.7 194.863 312.9 195.263 313.7 196.064C314.5 196.864 315 197.964 315 199.365C315 199.765 315 200.165 314.9 200.665H305.7V200.865ZM307.4 197.164C306.6 197.764 306.1 198.664 305.8 199.765H313.5C313.5 199.665 313.5 199.565 313.5 199.365C313.5 198.364 313.2 197.564 312.6 197.064C312 196.464 311.2 196.264 310.1 196.264C309.1 196.164 308.2 196.564 307.4 197.164Z" fill="#4E4C4D"/>
<path d="M317.3 205.566C316.5 205.366 315.9 204.966 315.5 204.666L316.2 203.565C316.6 203.965 317.1 204.165 317.8 204.466C318.5 204.666 319.2 204.766 319.9 204.766C320.9 204.766 321.7 204.566 322.3 204.265C322.9 203.965 323.1 203.465 323.1 202.865C323.1 202.565 323 202.265 322.8 202.065C322.6 201.865 322.3 201.665 322 201.565C321.7 201.465 321.2 201.365 320.6 201.164C319.8 200.964 319.2 200.864 318.8 200.664C318.3 200.464 317.9 200.264 317.6 199.864C317.3 199.464 317.1 199.064 317.1 198.364C317.1 197.363 317.5 196.563 318.4 195.963C319.2 195.363 320.4 195.062 321.8 195.062C322.5 195.062 323.2 195.163 323.8 195.363C324.5 195.563 325 195.763 325.4 196.063L324.8 197.263C324.4 196.963 323.9 196.763 323.4 196.563C322.8 196.363 322.3 196.363 321.7 196.363C320.7 196.363 320 196.563 319.4 196.863C318.9 197.263 318.6 197.663 318.6 198.264C318.6 198.664 318.7 198.864 318.9 199.164C319.1 199.364 319.4 199.564 319.8 199.664C320.1 199.764 320.6 199.864 321.2 199.964C321.9 200.164 322.5 200.264 323 200.464C323.5 200.664 323.8 200.864 324.2 201.264C324.5 201.665 324.7 202.065 324.7 202.665C324.7 203.765 324.3 204.566 323.4 205.166C322.5 205.766 321.4 206.066 319.9 206.066C318.9 205.966 318.1 205.766 317.3 205.566Z" fill="#4E4C4D"/>
<path d="M329 202.564C328.9 202.864 328.9 203.165 328.9 203.265C328.9 204.265 329.4 204.665 330.5 204.665C331.1 204.665 331.7 204.465 332.2 204.065L332.5 205.165C331.9 205.665 331.1 205.865 330.1 205.865C329.3 205.865 328.7 205.665 328.2 205.165C327.7 204.665 327.5 204.165 327.5 203.365C327.5 203.064 327.5 202.764 327.6 202.564L328.8 196.262H326.9L327.1 195.062H329L329.5 192.661H331L330.5 195.062H333.8L333.6 196.262H330.3L329 202.564Z" fill="#4E4C4D"/>
<path d="M346.1 195.063L344 205.866H342.6L342.9 204.166C342.4 204.766 341.8 205.166 341.1 205.466C340.4 205.766 339.6 205.966 338.7 205.966C337.8 205.966 337 205.766 336.3 205.366C335.6 204.966 335 204.466 334.6 203.766C334.2 203.066 334 202.265 334 201.365C334 200.165 334.3 199.064 334.8 198.064C335.3 197.064 336.1 196.363 337 195.763C337.9 195.163 339 194.963 340.1 194.963C341.1 194.963 342 195.163 342.7 195.563C343.4 195.963 343.9 196.563 344.2 197.264L344.7 194.963H346.1V195.063ZM341.5 203.966C342.2 203.566 342.8 202.965 343.2 202.165C343.6 201.365 343.8 200.565 343.8 199.564C343.8 198.464 343.5 197.664 342.9 197.064C342.3 196.463 341.4 196.163 340.3 196.163C339.4 196.163 338.6 196.363 337.9 196.864C337.2 197.264 336.6 197.864 336.2 198.664C335.8 199.464 335.6 200.265 335.6 201.265C335.6 202.365 335.9 203.166 336.5 203.766C337.1 204.366 338 204.666 339.1 204.666C339.9 204.666 340.7 204.366 341.5 203.966Z" fill="#4E4C4D"/>
<path d="M352.5 195.463C353.2 195.163 354.1 194.963 355.1 194.963L354.8 196.363H354.4C353.2 196.363 352.3 196.663 351.5 197.364C350.8 198.064 350.3 199.064 350 200.365L348.9 205.866H347.4L349.5 195.063H350.9L350.5 197.064C351.2 196.363 351.8 195.763 352.5 195.463Z" fill="#4E4C4D"/>
<path d="M355.4 203.966C355.6 204.166 355.7 204.466 355.7 204.766C355.7 204.966 355.7 205.066 355.6 205.266C355.5 205.466 355.4 205.566 355.3 205.866L353.7 208.867H352.7L354 205.866C353.8 205.766 353.7 205.666 353.6 205.466C353.5 205.266 353.4 205.066 353.4 204.866C353.4 204.566 353.5 204.266 353.7 204.066C353.9 203.866 354.2 203.766 354.5 203.766C355 203.666 355.2 203.766 355.4 203.966Z" fill="#4E4C4D"/>
<path d="M366.2 205.366C365.4 204.966 364.9 204.466 364.5 203.766C364.1 203.065 363.9 202.265 363.9 201.365C363.9 200.165 364.2 199.064 364.7 198.064C365.2 197.064 366 196.363 366.9 195.763C367.9 195.163 368.9 194.963 370.1 194.963C371.1 194.963 372 195.163 372.7 195.463C373.4 195.763 374 196.363 374.4 197.064L373.2 197.764C372.6 196.663 371.5 196.163 370.1 196.163C369.2 196.163 368.4 196.363 367.7 196.864C367 197.364 366.4 197.864 366 198.664C365.6 199.464 365.4 200.265 365.4 201.265C365.4 202.365 365.7 203.166 366.3 203.766C366.9 204.366 367.8 204.666 369 204.666C369.7 204.666 370.3 204.566 370.9 204.266C371.5 203.966 372 203.566 372.4 203.065L373.4 203.866C372.9 204.466 372.3 204.966 371.5 205.366C370.7 205.766 369.8 205.866 368.9 205.866C367.9 205.966 367 205.766 366.2 205.366Z" fill="#4E4C4D"/>
<path d="M377.4 205.366C376.7 204.966 376.1 204.466 375.7 203.766C375.3 203.065 375.1 202.265 375.1 201.365C375.1 200.165 375.4 199.064 375.9 198.064C376.4 197.064 377.2 196.363 378.1 195.763C379 195.163 380.1 194.963 381.3 194.963C382.8 194.963 384 195.363 384.9 196.163C385.8 196.964 386.2 198.064 386.2 199.464C386.2 200.665 385.9 201.765 385.4 202.765C384.9 203.766 384.1 204.466 383.2 205.066C382.3 205.666 381.2 205.866 380 205.866C379 205.966 378.2 205.766 377.4 205.366ZM382.5 203.966C383.2 203.566 383.8 202.965 384.2 202.165C384.6 201.365 384.8 200.565 384.8 199.564C384.8 198.464 384.5 197.664 383.9 197.064C383.3 196.463 382.4 196.163 381.3 196.163C380.4 196.163 379.6 196.363 378.9 196.864C378.2 197.264 377.6 197.864 377.2 198.664C376.8 199.464 376.6 200.265 376.6 201.265C376.6 202.365 376.9 203.166 377.5 203.766C378.1 204.366 379 204.666 380.1 204.666C381 204.666 381.8 204.366 382.5 203.966Z" fill="#4E4C4D"/>
<path d="M392.7 195.463C393.4 195.163 394.3 194.963 395.3 194.963L395 196.363H394.6C393.4 196.363 392.5 196.663 391.7 197.364C391 198.064 390.5 199.064 390.2 200.365L389.1 205.866H387.6L389.7 195.063H391.1L390.7 197.064C391.4 196.363 392 195.763 392.7 195.463Z" fill="#4E4C4D"/>
<path d="M407.4 195.063L405.3 205.866H403.9L404.2 204.166C403.7 204.766 403.1 205.166 402.4 205.466C401.7 205.766 400.9 205.966 400 205.966C399.1 205.966 398.3 205.766 397.6 205.366C396.9 204.966 396.3 204.466 395.9 203.766C395.5 203.066 395.3 202.265 395.3 201.365C395.3 200.165 395.6 199.064 396.1 198.064C396.6 197.064 397.4 196.363 398.3 195.763C399.2 195.163 400.3 194.963 401.4 194.963C402.4 194.963 403.3 195.163 404 195.563C404.7 195.963 405.2 196.563 405.5 197.264L406 194.963H407.4V195.063ZM402.7 203.966C403.4 203.566 404 202.965 404.4 202.165C404.8 201.365 405 200.565 405 199.564C405 198.464 404.7 197.664 404.1 197.064C403.5 196.463 402.6 196.163 401.5 196.163C400.6 196.163 399.8 196.363 399.1 196.864C398.4 197.264 397.8 197.864 397.4 198.664C397 199.464 396.8 200.265 396.8 201.265C396.8 202.365 397.1 203.166 397.7 203.766C398.3 204.366 399.2 204.666 400.3 204.666C401.2 204.666 402 204.366 402.7 203.966Z" fill="#4E4C4D"/>
<path d="M418.1 195.963L409.7 204.566H416.5L416.3 205.766H407.5L407.7 204.766L416.1 196.163H409.6L409.8 194.963H418.3L418.1 195.963Z" fill="#4E4C4D"/>
<path d="M420.7 205.366C420 204.966 419.4 204.466 419 203.766C418.6 203.065 418.4 202.265 418.4 201.365C418.4 200.165 418.7 199.064 419.2 198.064C419.7 197.064 420.5 196.363 421.4 195.763C422.3 195.163 423.4 194.963 424.6 194.963C426.1 194.963 427.3 195.363 428.2 196.163C429.1 196.964 429.5 198.064 429.5 199.464C429.5 200.665 429.2 201.765 428.7 202.765C428.2 203.766 427.4 204.466 426.5 205.066C425.6 205.666 424.5 205.866 423.3 205.866C422.3 205.966 421.4 205.766 420.7 205.366ZM425.7 203.966C426.4 203.566 427 202.965 427.4 202.165C427.8 201.365 428 200.565 428 199.564C428 198.464 427.7 197.664 427.1 197.064C426.5 196.463 425.6 196.163 424.5 196.163C423.6 196.163 422.8 196.363 422.1 196.864C421.4 197.264 420.8 197.864 420.4 198.664C420 199.464 419.8 200.265 419.8 201.265C419.8 202.365 420.1 203.166 420.7 203.766C421.3 204.366 422.2 204.666 423.3 204.666C424.2 204.666 425 204.366 425.7 203.966Z" fill="#4E4C4D"/>
<path d="M441.2 195.863C441.9 196.463 442.2 197.364 442.2 198.464C442.2 198.864 442.2 199.264 442.1 199.664L440.9 205.766H439.4L440.6 199.664C440.7 199.264 440.7 198.964 440.7 198.664C440.7 197.864 440.5 197.264 440 196.864C439.5 196.463 438.8 196.263 437.9 196.263C436.7 196.263 435.8 196.563 435 197.264C434.2 197.864 433.7 198.864 433.5 200.065L432.4 205.866H430.9L433 195.063H434.4L434.1 196.763C435.1 195.563 436.5 194.963 438.3 194.963C439.5 194.963 440.5 195.263 441.2 195.863Z" fill="#4E4C4D"/>
<path d="M445.8 200.865C445.8 200.965 445.8 201.065 445.8 201.265C445.8 202.366 446.1 203.166 446.7 203.766C447.3 204.366 448.2 204.666 449.5 204.666C450.2 204.666 450.9 204.566 451.5 204.266C452.1 204.066 452.6 203.666 453 203.266L453.7 204.266C453.2 204.766 452.6 205.167 451.8 205.467C451 205.767 450.2 205.867 449.4 205.867C447.8 205.867 446.6 205.467 445.7 204.666C444.8 203.866 444.4 202.766 444.4 201.265C444.4 200.065 444.7 198.965 445.2 197.964C445.7 196.964 446.4 196.264 447.3 195.664C448.2 195.063 449.2 194.863 450.4 194.863C451.8 194.863 453 195.263 453.8 196.064C454.6 196.864 455.1 197.964 455.1 199.365C455.1 199.765 455.1 200.165 455 200.665H445.8V200.865ZM447.5 197.164C446.7 197.764 446.2 198.664 445.9 199.765H453.6C453.6 199.665 453.6 199.565 453.6 199.365C453.6 198.364 453.3 197.564 452.7 197.064C452.1 196.564 451.3 196.264 450.2 196.264C449.2 196.164 448.2 196.564 447.5 197.164Z" fill="#4E4C4D"/>
<path d="M457.4 205.566C456.6 205.366 456 204.966 455.6 204.666L456.3 203.565C456.7 203.965 457.2 204.165 457.9 204.466C458.6 204.666 459.3 204.766 460 204.766C461 204.766 461.8 204.566 462.4 204.265C463 203.965 463.2 203.465 463.2 202.865C463.2 202.565 463.1 202.265 462.9 202.065C462.7 201.865 462.4 201.665 462.1 201.565C461.8 201.465 461.3 201.365 460.7 201.164C459.9 200.964 459.3 200.864 458.9 200.664C458.4 200.464 458 200.264 457.7 199.864C457.4 199.464 457.2 199.064 457.2 198.364C457.2 197.363 457.6 196.563 458.5 195.963C459.3 195.363 460.5 195.062 461.9 195.062C462.6 195.062 463.3 195.163 463.9 195.363C464.6 195.563 465.1 195.763 465.5 196.063L464.9 197.263C464.5 196.963 464 196.763 463.5 196.563C462.9 196.363 462.4 196.363 461.8 196.363C460.8 196.363 460.1 196.563 459.5 196.863C459 197.263 458.7 197.663 458.7 198.264C458.7 198.664 458.8 198.864 459 199.164C459.2 199.364 459.5 199.564 459.9 199.664C460.2 199.764 460.7 199.864 461.3 199.964C462 200.164 462.6 200.264 463.1 200.464C463.6 200.664 463.9 200.864 464.3 201.264C464.6 201.665 464.8 202.065 464.8 202.665C464.8 203.765 464.4 204.566 463.5 205.166C462.6 205.766 461.5 206.066 460 206.066C459 205.966 458.2 205.766 457.4 205.566Z" fill="#4E4C4D"/>
<path d="M132.8 229.975C132 229.575 131.5 229.074 131.1 228.374C130.7 227.674 130.5 226.874 130.5 225.973C130.5 224.773 130.8 223.673 131.3 222.672C131.8 221.672 132.6 220.972 133.5 220.372C134.5 219.771 135.5 219.571 136.7 219.571C137.7 219.571 138.6 219.771 139.3 220.071C140 220.372 140.6 220.972 141 221.672L139.8 222.372C139.2 221.272 138.1 220.772 136.7 220.772C135.8 220.772 135 220.972 134.3 221.472C133.6 221.972 133 222.472 132.6 223.272C132.2 224.073 132 224.873 132 225.873C132 226.974 132.3 227.774 132.9 228.374C133.5 228.974 134.4 229.274 135.6 229.274C136.3 229.274 136.9 229.174 137.5 228.874C138.1 228.574 138.6 228.174 139 227.674L140 228.474C139.5 229.074 138.9 229.575 138.1 229.975C137.3 230.375 136.4 230.475 135.5 230.475C134.5 230.475 133.6 230.275 132.8 229.975Z" fill="#4E4C4D"/>
<path d="M144.1 229.975C143.4 229.575 142.8 229.074 142.4 228.374C142 227.674 141.8 226.874 141.8 225.973C141.8 224.773 142.1 223.673 142.6 222.672C143.1 221.672 143.9 220.972 144.8 220.372C145.7 219.771 146.8 219.571 148 219.571C149.5 219.571 150.7 219.971 151.6 220.772C152.5 221.572 152.9 222.672 152.9 224.073C152.9 225.273 152.6 226.373 152.1 227.374C151.6 228.374 150.8 229.074 149.9 229.675C149 230.275 147.9 230.475 146.7 230.475C145.7 230.475 144.8 230.275 144.1 229.975ZM149.1 228.574C149.8 228.174 150.4 227.574 150.8 226.774C151.2 225.973 151.4 225.173 151.4 224.173C151.4 223.072 151.1 222.272 150.5 221.672C149.9 221.072 149 220.772 147.9 220.772C147 220.772 146.2 220.972 145.5 221.472C144.8 221.872 144.2 222.472 143.8 223.272C143.4 224.073 143.2 224.873 143.2 225.873C143.2 226.974 143.5 227.774 144.1 228.374C144.7 228.974 145.6 229.274 146.7 229.274C147.6 229.174 148.4 228.974 149.1 228.574Z" fill="#4E4C4D"/>
<path d="M164.6 220.472C165.3 221.072 165.6 221.972 165.6 223.072C165.6 223.473 165.6 223.873 165.5 224.273L164.3 230.375H162.8L164 224.273C164.1 223.873 164.1 223.573 164.1 223.272C164.1 222.472 163.9 221.872 163.4 221.472C162.9 221.072 162.2 220.872 161.3 220.872C160.1 220.872 159.2 221.172 158.4 221.872C157.6 222.472 157.1 223.473 156.9 224.673L155.8 230.475H154.3L156.4 219.671H157.8L157.5 221.372C158.5 220.171 159.9 219.571 161.7 219.571C162.9 219.571 163.9 219.871 164.6 220.472Z" fill="#4E4C4D"/>
<path d="M169.8 227.174C169.7 227.474 169.7 227.774 169.7 227.874C169.7 228.874 170.2 229.274 171.3 229.274C171.9 229.274 172.5 229.074 173 228.674L173.3 229.775C172.7 230.275 171.9 230.475 170.9 230.475C170.1 230.475 169.5 230.275 169 229.775C168.5 229.274 168.3 228.774 168.3 227.974C168.3 227.674 168.3 227.374 168.4 227.174L169.6 220.872H167.7L167.9 219.671H169.8L170.3 217.271H171.8L171.3 219.671H174.6L174.4 220.872H171.1L169.8 227.174Z" fill="#4E4C4D"/>
<path d="M176.4 225.373C176.4 225.473 176.4 225.573 176.4 225.773C176.4 226.874 176.7 227.674 177.3 228.274C177.9 228.874 178.8 229.174 180.1 229.174C180.8 229.174 181.5 229.074 182.1 228.774C182.7 228.574 183.2 228.174 183.6 227.774L184.3 228.774C183.8 229.274 183.2 229.674 182.4 229.974C181.6 230.275 180.8 230.375 180 230.375C178.4 230.375 177.2 229.975 176.3 229.174C175.4 228.374 175 227.274 175 225.773C175 224.573 175.3 223.472 175.8 222.472C176.3 221.472 177 220.772 177.9 220.171C178.8 219.571 179.8 219.371 181 219.371C182.4 219.371 183.6 219.771 184.4 220.571C185.2 221.372 185.7 222.472 185.7 223.873C185.7 224.273 185.7 224.673 185.6 225.173H176.4V225.373ZM178.1 221.772C177.3 222.372 176.8 223.272 176.5 224.373H184.2C184.2 224.273 184.2 224.173 184.2 223.973C184.2 222.972 183.9 222.172 183.3 221.672C182.7 221.072 181.9 220.872 180.8 220.872C179.7 220.772 178.8 221.072 178.1 221.772Z" fill="#4E4C4D"/>
<path d="M197.3 220.472C198 221.072 198.3 221.972 198.3 223.072C198.3 223.473 198.3 223.873 198.2 224.273L197 230.375H195.5L196.7 224.273C196.8 223.873 196.8 223.573 196.8 223.272C196.8 222.472 196.6 221.872 196.1 221.472C195.6 221.072 194.9 220.872 194 220.872C192.8 220.872 191.9 221.172 191.1 221.872C190.3 222.472 189.8 223.473 189.6 224.673L188.5 230.475H187L189.1 219.671H190.5L190.2 221.372C191.2 220.171 192.6 219.571 194.4 219.571C195.6 219.571 196.6 219.871 197.3 220.472Z" fill="#4E4C4D"/>
<path d="M202.5 227.174C202.4 227.474 202.4 227.774 202.4 227.874C202.4 228.874 202.9 229.274 204 229.274C204.6 229.274 205.2 229.074 205.7 228.674L206 229.775C205.4 230.275 204.6 230.475 203.6 230.475C202.8 230.475 202.2 230.275 201.7 229.775C201.2 229.274 201 228.774 201 227.974C201 227.674 201 227.374 201.1 227.174L202.3 220.872H200.4L200.6 219.671H202.5L203 217.271H204.5L204 219.671H207.3L207.1 220.872H203.8L202.5 227.174Z" fill="#4E4C4D"/>
<path d="M209.9 229.975C209.2 229.575 208.6 229.074 208.2 228.374C207.8 227.674 207.6 226.874 207.6 225.973C207.6 224.773 207.9 223.673 208.4 222.672C208.9 221.672 209.7 220.972 210.6 220.372C211.5 219.771 212.6 219.571 213.8 219.571C215.3 219.571 216.5 219.971 217.4 220.772C218.3 221.572 218.7 222.672 218.7 224.073C218.7 225.273 218.4 226.373 217.9 227.374C217.4 228.374 216.6 229.074 215.7 229.675C214.8 230.275 213.7 230.475 212.5 230.475C211.5 230.475 210.6 230.275 209.9 229.975ZM214.9 228.574C215.6 228.174 216.2 227.574 216.6 226.774C217 225.973 217.2 225.173 217.2 224.173C217.2 223.072 216.9 222.272 216.3 221.672C215.7 221.072 214.8 220.772 213.7 220.772C212.8 220.772 212 220.972 211.3 221.472C210.6 221.872 210 222.472 209.6 223.272C209.2 224.073 209 224.873 209 225.873C209 226.974 209.3 227.774 209.9 228.374C210.5 228.974 211.4 229.274 212.5 229.274C213.4 229.174 214.2 228.974 214.9 228.574Z" fill="#4E4C4D"/>
<path d="M221.1 230.075C220.3 229.875 219.7 229.474 219.3 229.174L220 228.074C220.4 228.474 220.9 228.674 221.6 228.974C222.3 229.174 223 229.274 223.7 229.274C224.7 229.274 225.5 229.074 226.1 228.774C226.7 228.474 226.9 227.974 226.9 227.374C226.9 227.074 226.8 226.774 226.6 226.574C226.4 226.373 226.1 226.173 225.8 226.073C225.5 225.973 225 225.873 224.4 225.673C223.6 225.473 223 225.373 222.6 225.173C222.1 224.973 221.7 224.773 221.4 224.373C221.1 223.973 220.9 223.573 220.9 222.872C220.9 221.872 221.3 221.072 222.2 220.472C223 219.871 224.2 219.571 225.6 219.571C226.3 219.571 227 219.671 227.6 219.871C228.3 220.071 228.8 220.272 229.2 220.572L228.6 221.772C228.2 221.472 227.7 221.272 227.2 221.072C226.6 220.872 226.1 220.872 225.5 220.872C224.5 220.872 223.8 221.072 223.2 221.372C222.7 221.772 222.4 222.172 222.4 222.772C222.4 223.172 222.5 223.373 222.7 223.673C222.9 223.873 223.2 224.073 223.6 224.173C223.9 224.273 224.4 224.373 225 224.473C225.7 224.673 226.3 224.773 226.8 224.973C227.3 225.173 227.6 225.373 228 225.773C228.3 226.173 228.5 226.574 228.5 227.174C228.5 228.274 228.1 229.074 227.2 229.675C226.3 230.275 225.2 230.575 223.7 230.575C222.7 230.475 221.9 230.375 221.1 230.075Z" fill="#4E4C4D"/>
<path d="M247 219.571L239.1 231.775C238.4 232.776 237.8 233.476 237.3 233.876C236.7 234.276 236 234.476 235.3 234.476C234.8 234.476 234.3 234.376 233.8 234.176C233.3 233.976 233 233.776 232.7 233.476L233.5 232.375C234 232.876 234.6 233.176 235.4 233.176C235.9 233.176 236.3 233.076 236.7 232.776C237.1 232.475 237.5 232.075 237.9 231.375L238.7 230.275L236 219.571H237.5L239.7 228.774L245.6 219.571H247Z" fill="#4E4C4D"/>
<path d="M264.2 219.571L262.1 230.375H260.7L261 228.674C260 229.875 258.6 230.475 256.8 230.475C255.6 230.475 254.7 230.175 254 229.575C253.3 228.974 253 228.074 253 226.974C253 226.574 253 226.173 253.1 225.773L254.3 219.671H255.8L254.6 225.773C254.5 226.173 254.5 226.474 254.5 226.774C254.5 227.574 254.7 228.174 255.2 228.574C255.7 228.974 256.3 229.174 257.3 229.174C258.4 229.174 259.4 228.874 260.1 228.174C260.9 227.574 261.4 226.574 261.6 225.373L262.7 219.571H264.2Z" fill="#4E4C4D"/>
<path d="M275.8 220.472C276.5 221.072 276.8 221.972 276.8 223.072C276.8 223.473 276.8 223.873 276.7 224.273L275.5 230.375H274L275.2 224.273C275.3 223.873 275.3 223.573 275.3 223.272C275.3 222.472 275.1 221.872 274.6 221.472C274.1 221.072 273.4 220.872 272.5 220.872C271.3 220.872 270.4 221.172 269.6 221.872C268.8 222.472 268.3 223.473 268.1 224.673L267 230.475H265.5L267.6 219.671H269L268.7 221.372C269.7 220.171 271.1 219.571 272.9 219.571C274.2 219.571 275.1 219.871 275.8 220.472Z" fill="#4E4C4D"/>
<path d="M291 219.571L288.9 230.374H287.5L287.8 228.674C287.3 229.274 286.7 229.674 286 229.974C285.3 230.274 284.5 230.474 283.6 230.474C282.7 230.474 281.9 230.274 281.2 229.874C280.5 229.474 279.9 228.974 279.5 228.274C279.1 227.573 278.9 226.773 278.9 225.873C278.9 224.672 279.2 223.572 279.7 222.572C280.2 221.571 281 220.871 281.9 220.271C282.8 219.671 283.9 219.471 285 219.471C286 219.471 286.9 219.671 287.6 220.071C288.3 220.471 288.8 221.071 289.1 221.771L289.6 219.471H291V219.571ZM286.3 228.574C287 228.174 287.6 227.573 288 226.773C288.4 225.973 288.6 225.173 288.6 224.172C288.6 223.072 288.3 222.272 287.7 221.671C287.1 221.071 286.2 220.771 285.1 220.771C284.2 220.771 283.4 220.971 282.7 221.471C282 221.871 281.4 222.472 281 223.272C280.6 224.072 280.4 224.872 280.4 225.873C280.4 226.973 280.7 227.773 281.3 228.374C281.9 228.974 282.8 229.274 283.9 229.274C284.8 229.174 285.6 228.974 286.3 228.574Z" fill="#4E4C4D"/>
<path d="M311.1 215.169L308.1 230.374H306.7L307 228.674C306.5 229.274 305.9 229.674 305.2 229.974C304.5 230.274 303.7 230.474 302.8 230.474C301.9 230.474 301.1 230.274 300.4 229.874C299.7 229.474 299.1 228.974 298.7 228.274C298.3 227.573 298.1 226.773 298.1 225.873C298.1 224.672 298.4 223.572 298.9 222.572C299.4 221.571 300.2 220.871 301.1 220.271C302 219.671 303.1 219.471 304.2 219.471C305.2 219.471 306.1 219.671 306.8 220.071C307.5 220.471 308 221.071 308.3 221.771L309.6 215.069H311.1V215.169ZM305.6 228.574C306.3 228.174 306.9 227.573 307.3 226.773C307.7 225.973 307.9 225.173 307.9 224.172C307.9 223.072 307.6 222.272 307 221.671C306.4 221.071 305.5 220.771 304.4 220.771C303.5 220.771 302.7 220.971 302 221.471C301.3 221.872 300.7 222.472 300.3 223.272C299.9 224.072 299.7 224.872 299.7 225.873C299.7 226.973 300 227.773 300.6 228.374C301.2 228.974 302.1 229.274 303.2 229.274C304.1 229.174 304.9 228.974 305.6 228.574Z" fill="#4E4C4D"/>
<path d="M314 229.975C313.3 229.575 312.7 229.074 312.3 228.374C311.9 227.674 311.7 226.874 311.7 225.973C311.7 224.773 312 223.673 312.5 222.672C313 221.672 313.8 220.972 314.7 220.372C315.6 219.771 316.7 219.571 317.9 219.571C319.4 219.571 320.6 219.971 321.5 220.772C322.4 221.572 322.8 222.672 322.8 224.073C322.8 225.273 322.5 226.373 322 227.374C321.5 228.374 320.7 229.074 319.8 229.675C318.9 230.275 317.8 230.475 316.6 230.475C315.6 230.475 314.7 230.275 314 229.975ZM319.1 228.574C319.8 228.174 320.4 227.574 320.8 226.774C321.2 225.973 321.4 225.173 321.4 224.173C321.4 223.072 321.1 222.272 320.5 221.672C319.9 221.072 319 220.772 317.9 220.772C317 220.772 316.2 220.972 315.5 221.472C314.8 221.872 314.2 222.472 313.8 223.272C313.4 224.073 313.2 224.873 313.2 225.873C313.2 226.974 313.5 227.774 314.1 228.374C314.7 228.974 315.6 229.274 316.7 229.274C317.6 229.174 318.4 228.974 319.1 228.574Z" fill="#4E4C4D"/>
<path d="M325.3 230.075C324.5 229.875 323.9 229.474 323.5 229.174L324.2 228.074C324.6 228.474 325.1 228.674 325.8 228.974C326.5 229.174 327.2 229.274 327.9 229.274C328.9 229.274 329.7 229.074 330.3 228.774C330.9 228.474 331.1 227.974 331.1 227.374C331.1 227.074 331 226.774 330.8 226.574C330.6 226.373 330.3 226.173 330 226.073C329.7 225.973 329.2 225.873 328.6 225.673C327.8 225.473 327.2 225.373 326.8 225.173C326.3 224.973 325.9 224.773 325.6 224.373C325.3 223.973 325.1 223.573 325.1 222.872C325.1 221.872 325.5 221.072 326.4 220.472C327.2 219.871 328.4 219.571 329.8 219.571C330.5 219.571 331.2 219.671 331.8 219.871C332.5 220.071 333 220.272 333.4 220.572L332.8 221.772C332.4 221.472 331.9 221.272 331.4 221.072C330.8 220.872 330.3 220.872 329.7 220.872C328.7 220.872 328 221.072 327.4 221.372C326.9 221.772 326.6 222.172 326.6 222.772C326.6 223.172 326.7 223.373 326.9 223.673C327.1 223.873 327.4 224.073 327.8 224.173C328.1 224.273 328.6 224.373 329.2 224.473C329.9 224.673 330.5 224.773 331 224.973C331.5 225.173 331.8 225.373 332.2 225.773C332.5 226.173 332.7 226.574 332.7 227.174C332.7 228.274 332.3 229.074 331.4 229.675C330.5 230.275 329.4 230.575 327.9 230.575C326.9 230.475 326.1 230.375 325.3 230.075Z" fill="#4E4C4D"/>
<path d="M336.4 219.571H337.9L335.8 230.375H334.3L336.4 219.571ZM337 216.97C336.8 216.77 336.7 216.57 336.7 216.27C336.7 215.97 336.8 215.67 337 215.47C337.2 215.27 337.5 215.17 337.8 215.17C338.1 215.17 338.3 215.27 338.5 215.47C338.7 215.67 338.8 215.87 338.8 216.07C338.8 216.37 338.7 216.67 338.5 216.87C338.3 217.071 338 217.171 337.7 217.171C337.4 217.271 337.2 217.171 337 216.97Z" fill="#4E4C4D"/>
<path d="M340.2 230.075C339.4 229.875 338.8 229.474 338.4 229.174L339.1 228.074C339.5 228.474 340 228.674 340.7 228.974C341.4 229.174 342.1 229.274 342.8 229.274C343.8 229.274 344.6 229.074 345.2 228.774C345.8 228.474 346 227.974 346 227.374C346 227.074 345.9 226.774 345.7 226.574C345.5 226.373 345.2 226.173 344.9 226.073C344.6 225.973 344.1 225.873 343.5 225.673C342.7 225.473 342.1 225.373 341.7 225.173C341.2 224.973 340.8 224.773 340.5 224.373C340.2 223.973 340 223.573 340 222.872C340 221.872 340.4 221.072 341.3 220.472C342.1 219.871 343.3 219.571 344.7 219.571C345.4 219.571 346.1 219.671 346.7 219.871C347.4 220.071 347.9 220.272 348.3 220.572L347.7 221.772C347.3 221.472 346.8 221.272 346.3 221.072C345.7 220.872 345.2 220.872 344.6 220.872C343.6 220.872 342.9 221.072 342.3 221.372C341.8 221.772 341.5 222.172 341.5 222.772C341.5 223.172 341.6 223.373 341.8 223.673C342 223.873 342.3 224.073 342.7 224.173C343 224.273 343.5 224.373 344.1 224.473C344.8 224.673 345.4 224.773 345.9 224.973C346.4 225.173 346.7 225.373 347.1 225.773C347.4 226.173 347.6 226.574 347.6 227.174C347.6 228.274 347.2 229.074 346.3 229.675C345.4 230.275 344.3 230.575 342.8 230.575C341.9 230.475 341 230.375 340.2 230.075Z" fill="#4E4C4D"/>
<path d="M367.8 215.169L364.8 230.374H363.4L363.7 228.674C363.2 229.274 362.6 229.674 361.9 229.974C361.2 230.274 360.4 230.474 359.5 230.474C358.6 230.474 357.8 230.274 357.1 229.874C356.4 229.474 355.8 228.974 355.4 228.274C355 227.573 354.8 226.773 354.8 225.873C354.8 224.672 355.1 223.572 355.6 222.572C356.1 221.571 356.9 220.871 357.8 220.271C358.7 219.671 359.8 219.471 360.9 219.471C361.9 219.471 362.8 219.671 363.5 220.071C364.2 220.471 364.7 221.071 365 221.771L366.3 215.069H367.8V215.169ZM362.2 228.574C362.9 228.174 363.5 227.573 363.9 226.773C364.3 225.973 364.5 225.173 364.5 224.172C364.5 223.072 364.2 222.272 363.6 221.671C363 221.071 362.1 220.771 361 220.771C360.1 220.771 359.3 220.971 358.6 221.471C357.9 221.872 357.3 222.472 356.9 223.272C356.5 224.072 356.3 224.872 356.3 225.873C356.3 226.973 356.6 227.773 357.2 228.374C357.8 228.974 358.7 229.274 359.8 229.274C360.7 229.174 361.5 228.974 362.2 228.574Z" fill="#4E4C4D"/>
<path d="M369.9 225.373C369.9 225.473 369.9 225.573 369.9 225.773C369.9 226.874 370.2 227.674 370.8 228.274C371.4 228.874 372.3 229.174 373.6 229.174C374.3 229.174 375 229.074 375.6 228.774C376.2 228.574 376.7 228.174 377.1 227.774L377.8 228.774C377.3 229.274 376.7 229.674 375.9 229.974C375.1 230.275 374.3 230.375 373.5 230.375C371.9 230.375 370.7 229.975 369.8 229.174C368.9 228.374 368.5 227.274 368.5 225.773C368.5 224.573 368.8 223.472 369.3 222.472C369.8 221.472 370.5 220.772 371.4 220.171C372.3 219.571 373.3 219.371 374.5 219.371C375.9 219.371 377.1 219.771 377.9 220.571C378.7 221.372 379.2 222.472 379.2 223.873C379.2 224.273 379.2 224.673 379.1 225.173H369.9V225.373ZM371.6 221.772C370.8 222.372 370.3 223.272 370 224.373H377.7C377.7 224.273 377.7 224.173 377.7 223.973C377.7 222.972 377.4 222.172 376.8 221.672C376.2 221.072 375.4 220.872 374.3 220.872C373.3 220.772 372.3 221.072 371.6 221.772Z" fill="#4E4C4D"/>
<path d="M388.4 219.571H389.9L387.8 230.375H386.3L388.4 219.571ZM389 216.97C388.8 216.77 388.7 216.57 388.7 216.27C388.7 215.97 388.8 215.67 389 215.47C389.2 215.27 389.5 215.17 389.8 215.17C390.1 215.17 390.3 215.27 390.5 215.47C390.7 215.67 390.8 215.87 390.8 216.07C390.8 216.37 390.7 216.67 390.5 216.87C390.3 217.071 390 217.171 389.7 217.171C389.4 217.271 389.2 217.171 389 216.97Z" fill="#4E4C4D"/>
<path d="M401.5 220.472C402.2 221.072 402.5 221.972 402.5 223.072C402.5 223.473 402.5 223.873 402.4 224.273L401.2 230.375H399.7L400.9 224.273C401 223.873 401 223.573 401 223.272C401 222.472 400.8 221.872 400.3 221.472C399.8 221.072 399.1 220.872 398.2 220.872C397 220.872 396.1 221.172 395.3 221.872C394.5 222.472 394 223.473 393.8 224.673L392.7 230.475H391.2L393.3 219.671H394.7L394.4 221.372C395.4 220.171 396.8 219.571 398.6 219.571C399.8 219.571 400.8 219.871 401.5 220.472Z" fill="#4E4C4D"/>
<path d="M406.7 227.174C406.6 227.474 406.6 227.774 406.6 227.874C406.6 228.874 407.1 229.274 408.2 229.274C408.8 229.274 409.4 229.074 409.9 228.674L410.2 229.775C409.6 230.275 408.8 230.475 407.8 230.475C407 230.475 406.4 230.275 405.9 229.775C405.4 229.274 405.2 228.774 405.2 227.974C405.2 227.674 405.2 227.374 405.3 227.174L406.5 220.872H404.6L404.8 219.671H406.7L407.2 217.271H408.7L408.2 219.671H411.5L411.3 220.872H408L406.7 227.174Z" fill="#4E4C4D"/>
<path d="M413.3 225.373C413.3 225.473 413.3 225.573 413.3 225.773C413.3 226.874 413.6 227.674 414.2 228.274C414.8 228.874 415.7 229.174 417 229.174C417.7 229.174 418.4 229.074 419 228.774C419.6 228.574 420.1 228.174 420.5 227.774L421.2 228.774C420.7 229.274 420.1 229.674 419.3 229.974C418.5 230.275 417.7 230.375 416.9 230.375C415.3 230.375 414.1 229.975 413.2 229.174C412.3 228.374 411.9 227.274 411.9 225.773C411.9 224.573 412.2 223.472 412.7 222.472C413.2 221.472 413.9 220.772 414.8 220.171C415.7 219.571 416.7 219.371 417.9 219.371C419.3 219.371 420.5 219.771 421.3 220.571C422.1 221.372 422.6 222.472 422.6 223.873C422.6 224.273 422.6 224.673 422.5 225.173H413.3V225.373ZM415 221.772C414.2 222.372 413.7 223.272 413.4 224.373H421.1C421.1 224.273 421.1 224.173 421.1 223.973C421.1 222.972 420.8 222.172 420.2 221.672C419.6 221.072 418.8 220.872 417.7 220.872C416.6 220.772 415.7 221.072 415 221.772Z" fill="#4E4C4D"/>
<path d="M434.2 220.472C434.9 221.072 435.2 221.972 435.2 223.072C435.2 223.473 435.2 223.873 435.1 224.273L433.9 230.375H432.4L433.6 224.273C433.7 223.873 433.7 223.573 433.7 223.272C433.7 222.472 433.5 221.872 433 221.472C432.5 221.072 431.8 220.872 430.9 220.872C429.7 220.872 428.8 221.172 428 221.872C427.2 222.472 426.7 223.473 426.5 224.673L425.4 230.475H423.9L426 219.671H427.4L427.1 221.372C428.1 220.171 429.5 219.571 431.3 219.571C432.5 219.571 433.5 219.871 434.2 220.472Z" fill="#4E4C4D"/>
<path d="M438.2 230.075C437.4 229.875 436.8 229.474 436.4 229.174L437.1 228.074C437.5 228.474 438 228.674 438.7 228.974C439.4 229.174 440.1 229.274 440.8 229.274C441.8 229.274 442.6 229.074 443.2 228.774C443.8 228.474 444 227.974 444 227.374C444 227.074 443.9 226.774 443.7 226.574C443.5 226.373 443.2 226.173 442.9 226.073C442.6 225.973 442.1 225.873 441.5 225.673C440.7 225.473 440.1 225.373 439.7 225.173C439.2 224.973 438.8 224.773 438.5 224.373C438.2 223.973 438 223.573 438 222.872C438 221.872 438.4 221.072 439.3 220.472C440.1 219.871 441.3 219.571 442.7 219.571C443.4 219.571 444.1 219.671 444.7 219.871C445.4 220.071 445.9 220.272 446.3 220.572L445.7 221.772C445.3 221.472 444.8 221.272 444.3 221.072C443.7 220.872 443.2 220.872 442.6 220.872C441.6 220.872 440.9 221.072 440.3 221.372C439.8 221.772 439.5 222.172 439.5 222.772C439.5 223.172 439.6 223.373 439.8 223.673C440 223.873 440.3 224.073 440.7 224.173C441 224.273 441.5 224.373 442.1 224.473C442.8 224.673 443.4 224.773 443.9 224.973C444.4 225.173 444.7 225.373 445.1 225.773C445.4 226.173 445.6 226.574 445.6 227.174C445.6 228.274 445.2 229.074 444.3 229.675C443.4 230.275 442.3 230.575 440.8 230.575C439.8 230.475 438.9 230.375 438.2 230.075Z" fill="#4E4C4D"/>
<path d="M449.3 219.571H450.8L448.7 230.375H447.2L449.3 219.571ZM449.9 216.97C449.7 216.77 449.6 216.57 449.6 216.27C449.6 215.97 449.7 215.67 449.9 215.47C450.1 215.27 450.4 215.17 450.7 215.17C451 215.17 451.2 215.27 451.4 215.47C451.6 215.67 451.7 215.87 451.7 216.07C451.7 216.37 451.6 216.67 451.4 216.87C451.2 217.071 450.9 217.171 450.6 217.171C450.3 217.271 450.1 217.171 449.9 216.97Z" fill="#4E4C4D"/>
<path d="M465.2 215.169L462.2 230.374H460.8L461.1 228.674C460.6 229.274 460 229.674 459.3 229.974C458.6 230.274 457.8 230.474 456.9 230.474C456 230.474 455.2 230.274 454.5 229.874C453.8 229.474 453.2 228.974 452.8 228.274C452.4 227.573 452.2 226.773 452.2 225.873C452.2 224.672 452.5 223.572 453 222.572C453.5 221.571 454.3 220.871 455.2 220.271C456.1 219.671 457.2 219.471 458.3 219.471C459.3 219.471 460.2 219.671 460.9 220.071C461.6 220.471 462.1 221.071 462.4 221.771L463.7 215.069H465.2V215.169ZM459.6 228.574C460.3 228.174 460.9 227.573 461.3 226.773C461.7 225.973 461.9 225.173 461.9 224.172C461.9 223.072 461.6 222.272 461 221.671C460.4 221.071 459.5 220.771 458.4 220.771C457.5 220.771 456.7 220.971 456 221.471C455.3 221.872 454.7 222.472 454.3 223.272C453.9 224.072 453.7 224.872 453.7 225.873C453.7 226.973 454 227.773 454.6 228.374C455.2 228.974 456.1 229.274 457.2 229.274C458.1 229.174 458.9 228.974 459.6 228.574Z" fill="#4E4C4D"/>
<path d="M477.9 219.571L475.8 230.374H474.4L474.7 228.674C474.2 229.274 473.6 229.674 472.9 229.974C472.2 230.274 471.4 230.474 470.5 230.474C469.6 230.474 468.8 230.274 468.1 229.874C467.4 229.474 466.8 228.974 466.4 228.274C466 227.573 465.8 226.773 465.8 225.873C465.8 224.672 466.1 223.572 466.6 222.572C467.1 221.571 467.9 220.871 468.8 220.271C469.7 219.671 470.8 219.471 471.9 219.471C472.9 219.471 473.8 219.671 474.5 220.071C475.2 220.471 475.7 221.071 476 221.771L476.5 219.471H477.9V219.571ZM473.2 228.574C473.9 228.174 474.5 227.573 474.9 226.773C475.3 225.973 475.5 225.173 475.5 224.172C475.5 223.072 475.2 222.272 474.6 221.671C474 221.071 473.1 220.771 472 220.771C471.1 220.771 470.3 220.971 469.6 221.471C468.9 221.871 468.3 222.472 467.9 223.272C467.5 224.072 467.3 224.872 467.3 225.873C467.3 226.973 467.6 227.773 468.2 228.374C468.8 228.974 469.7 229.274 470.8 229.274C471.7 229.174 472.5 228.974 473.2 228.574Z" fill="#4E4C4D"/>
<path d="M492.3 215.169L489.3 230.374H487.9L488.2 228.674C487.7 229.274 487.1 229.674 486.4 229.974C485.7 230.274 484.9 230.474 484 230.474C483.1 230.474 482.3 230.274 481.6 229.874C480.9 229.474 480.3 228.974 479.9 228.274C479.5 227.573 479.3 226.773 479.3 225.873C479.3 224.672 479.6 223.572 480.1 222.572C480.6 221.571 481.4 220.871 482.3 220.271C483.2 219.671 484.3 219.471 485.4 219.471C486.4 219.471 487.3 219.671 488 220.071C488.7 220.471 489.2 221.071 489.5 221.771L490.8 215.069H492.3V215.169ZM486.7 228.574C487.4 228.174 488 227.573 488.4 226.773C488.8 225.973 489 225.173 489 224.172C489 223.072 488.7 222.272 488.1 221.671C487.5 221.071 486.6 220.771 485.5 220.771C484.6 220.771 483.8 220.971 483.1 221.471C482.4 221.872 481.8 222.472 481.4 223.272C481 224.072 480.8 224.872 480.8 225.873C480.8 226.973 481.1 227.773 481.7 228.374C482.3 228.974 483.2 229.274 484.3 229.274C485.2 229.174 486 228.974 486.7 228.574Z" fill="#4E4C4D"/>
<path d="M546.1 234.074C546.1 237.175 545.9 240.176 545.5 243.277C545.4 244.378 545.4 245.578 545.3 246.678C545.2 247.579 545.3 248.479 545.3 249.379C545.3 251.08 545.3 252.78 545.3 254.481C545.3 255.281 545.1 255.981 545.1 256.782C545.1 257.582 545.1 258.282 545.1 259.082C545.1 259.782 545.1 260.483 545.1 261.183C545.1 261.883 545.2 262.583 545.3 263.284C545.4 264.684 545.3 266.185 545.3 267.685" stroke="#498181" stroke-width="2.3632" stroke-miterlimit="10"/>
<path d="M545.4 242.978C545.4 243.078 545.4 243.178 545.4 243.178C545 242.778 544.8 242.178 544.4 241.778C544 241.278 543.7 240.878 543.4 240.277C543.1 239.777 542.9 239.177 542.6 238.677C542.4 238.277 542.2 237.977 542 237.577C541.8 237.176 541.7 236.776 541.5 236.476C541.1 235.776 540.7 234.976 540.3 234.176C540 233.475 539.6 232.575 539.6 231.775C539.6 231.475 539.5 230.874 539.9 231.175C540.1 231.275 540.2 231.575 540.4 231.775C541.1 232.475 541.7 233.375 542.2 234.276C542.9 235.576 543.8 236.776 544.5 238.077C544.7 238.577 545 238.977 545.2 239.477C545.3 239.777 545.5 240.077 545.4 240.378V240.277C545.4 239.677 546.3 239.077 546.7 238.577C547.2 237.977 547.7 237.277 548.2 236.676C548.8 236.176 549.2 235.476 549.8 234.976C550.4 234.376 551.1 233.875 551.9 233.375C552.5 232.875 553.1 232.375 553.8 232.075C554 231.975 554 231.975 554.2 232.075C554.3 232.175 554.5 232.375 554.5 232.475C555 233.275 554.3 234.276 553.8 234.776C552.3 236.776 550.3 238.277 548.6 240.077C548 240.678 547.3 241.278 546.7 241.878C546.6 242.178 545.7 242.878 545.4 242.978Z" fill="#498181"/>
<path d="M545.1 251.281C545 250.98 544.5 250.58 544.2 250.38C543.5 249.68 542.8 248.98 542.1 248.28C541.3 247.479 540.5 246.679 539.9 245.779C539.4 245.179 538.8 244.378 538.4 243.678C537.9 242.678 537.1 241.377 537.3 240.277C537.5 239.577 538.3 239.277 538.9 239.577C539.4 239.877 539.8 240.377 540.2 240.777C540.7 241.277 541 241.878 541.4 242.378C541.8 242.878 542.1 243.478 542.5 244.078C542.7 244.378 542.9 244.578 543.1 244.879C543.3 245.179 543.3 245.379 543.5 245.579C543.8 245.879 544 246.279 544.2 246.679C544.4 247.079 544.6 247.379 544.8 247.779C544.9 247.98 545 248.28 545.2 248.48C545.3 248.58 545.5 249.18 545.6 249.18V249.08C545.7 248.58 546.1 248.28 546.4 247.879C546.9 247.179 547.5 246.579 548.1 245.879C548.3 245.579 548.5 245.279 548.8 245.079C549.1 244.778 549.6 244.478 549.9 244.078C550.5 243.478 551.2 243.178 551.8 242.778C552 242.578 552.3 242.478 552.5 242.378C552.7 242.278 552.8 242.178 553 242.078C553.4 241.978 553.7 241.878 554.1 241.878C555 241.878 554.3 243.478 554 243.978C553.6 244.578 553.2 245.079 552.7 245.579C552.3 246.079 551.7 246.379 551.2 246.879C550.4 247.679 549.4 248.18 548.6 249.08C548.3 249.38 547.9 249.48 547.7 249.78C547.5 249.98 547.2 250.18 547 250.38C546.9 250.58 545.3 251.781 545.1 251.281Z" fill="#498181"/>
<path d="M545 258.383C544.7 258.483 544.3 258.183 544 257.983C543.4 257.683 542.8 257.383 542.2 256.983C540.8 255.982 539.3 255.082 537.9 253.982C537.1 253.281 536.2 252.581 535.9 251.581C535.6 250.38 537.4 251.381 537.8 251.581C538.3 251.781 538.7 252.181 539.2 252.481C539.6 252.781 540.1 253.181 540.5 253.581C540.8 253.882 541.1 254.182 541.5 254.582C541.8 254.882 542.2 255.082 542.5 255.382C542.7 255.682 543 255.882 543.2 256.182C543.4 256.382 543.5 256.582 543.7 256.682C544 256.883 544.7 257.283 544.8 257.683C544.7 257.283 545.5 256.783 545.6 256.482C545.8 255.982 546.2 255.482 546.6 255.082C547 254.582 547.3 254.082 547.8 253.682C548.2 253.181 548.7 252.681 549.2 252.281C549.5 251.981 549.9 251.681 550.3 251.481C550.7 251.281 551.4 250.881 551.8 250.981C552.5 251.281 551.8 252.481 551.6 252.881C550.8 254.382 549.4 255.382 548.1 256.382C547.6 256.783 547.1 257.383 546.5 257.783C546.3 257.983 546 258.083 545.8 258.283C545.6 258.383 545.3 258.483 545 258.683C545 258.583 544.9 258.483 545 258.383Z" fill="#498181"/>
<path d="M570.3 234.074C570.3 237.175 570.1 240.176 569.7 243.277C569.6 244.378 569.6 245.578 569.5 246.678C569.4 247.579 569.5 248.479 569.5 249.379C569.5 251.08 569.5 252.78 569.5 254.481C569.5 255.281 569.3 255.981 569.3 256.782C569.3 257.582 569.3 258.282 569.3 259.082C569.3 259.782 569.3 260.483 569.3 261.183C569.3 261.883 569.4 262.583 569.5 263.284C569.6 264.684 569.5 266.185 569.5 267.685" stroke="#498181" stroke-width="2.3632" stroke-miterlimit="10"/>
<path d="M569.6 242.978C569.6 243.078 569.6 243.178 569.6 243.178C569.2 242.778 569 242.178 568.6 241.778C568.2 241.278 567.9 240.878 567.6 240.277C567.3 239.777 567.1 239.177 566.8 238.677C566.6 238.277 566.4 237.977 566.2 237.577C566 237.176 565.9 236.776 565.7 236.476C565.3 235.776 564.9 234.976 564.5 234.176C564.2 233.475 563.8 232.575 563.8 231.775C563.8 231.475 563.7 230.874 564.1 231.175C564.3 231.275 564.4 231.575 564.6 231.775C565.3 232.475 565.9 233.375 566.4 234.276C567.1 235.576 568 236.776 568.7 238.077C568.9 238.577 569.2 238.977 569.4 239.477C569.5 239.777 569.7 240.077 569.6 240.378V240.277C569.6 239.677 570.5 239.077 570.9 238.577C571.4 237.977 571.9 237.277 572.4 236.676C573 236.176 573.4 235.476 574 234.976C574.6 234.376 575.3 233.875 576.1 233.375C576.7 232.875 577.3 232.375 578 232.075C578.2 231.975 578.2 231.975 578.4 232.075C578.5 232.175 578.7 232.375 578.7 232.475C579.2 233.275 578.5 234.276 578 234.776C576.5 236.776 574.5 238.277 572.8 240.077C572.2 240.678 571.5 241.278 570.9 241.878C570.8 242.178 569.9 242.878 569.6 242.978Z" fill="#498181"/>
<path d="M569.3 251.281C569.2 250.98 568.7 250.58 568.4 250.38C567.7 249.68 567 248.98 566.3 248.28C565.5 247.479 564.7 246.679 564.1 245.779C563.6 245.179 563 244.378 562.6 243.678C562.1 242.678 561.3 241.377 561.5 240.277C561.7 239.577 562.5 239.277 563.1 239.577C563.6 239.877 564 240.377 564.4 240.777C564.9 241.277 565.2 241.878 565.6 242.378C566 242.878 566.3 243.478 566.7 244.078C566.9 244.378 567.1 244.578 567.3 244.879C567.5 245.179 567.5 245.379 567.7 245.579C568 245.879 568.2 246.279 568.4 246.679C568.6 247.079 568.8 247.379 569 247.779C569.1 247.98 569.2 248.28 569.4 248.48C569.5 248.58 569.7 249.18 569.8 249.18V249.08C569.9 248.58 570.3 248.28 570.6 247.879C571.1 247.179 571.7 246.579 572.3 245.879C572.5 245.579 572.7 245.279 573 245.079C573.3 244.778 573.8 244.478 574.1 244.078C574.7 243.478 575.4 243.178 576 242.778C576.2 242.578 576.5 242.478 576.7 242.378C576.9 242.278 577 242.178 577.2 242.078C577.6 241.978 577.9 241.878 578.3 241.878C579.2 241.878 578.5 243.478 578.2 243.978C577.8 244.578 577.4 245.079 576.9 245.579C576.5 246.079 575.9 246.379 575.4 246.879C574.6 247.679 573.6 248.18 572.8 249.08C572.5 249.38 572.1 249.48 571.9 249.78C571.7 249.98 571.4 250.18 571.2 250.38C571.1 250.58 569.5 251.781 569.3 251.281Z" fill="#498181"/>
<path d="M569.2 258.383C568.9 258.483 568.5 258.183 568.2 257.983C567.6 257.683 567 257.383 566.4 256.983C565 255.982 563.5 255.082 562.1 253.982C561.3 253.281 560.4 252.581 560.1 251.581C559.8 250.38 561.6 251.381 562 251.581C562.5 251.781 562.9 252.181 563.4 252.481C563.8 252.781 564.3 253.181 564.7 253.581C565 253.882 565.3 254.182 565.7 254.582C566 254.882 566.4 255.082 566.7 255.382C566.9 255.682 567.2 255.882 567.4 256.182C567.6 256.382 567.7 256.582 567.9 256.682C568.2 256.883 568.9 257.283 569 257.683C568.9 257.283 569.7 256.783 569.8 256.482C570 255.982 570.4 255.482 570.8 255.082C571.2 254.582 571.5 254.082 572 253.682C572.4 253.181 572.9 252.681 573.4 252.281C573.7 251.981 574.1 251.681 574.5 251.481C574.9 251.281 575.6 250.881 576 250.981C576.7 251.281 576 252.481 575.8 252.881C575 254.382 573.6 255.382 572.3 256.382C571.8 256.783 571.3 257.383 570.7 257.783C570.5 257.983 570.2 258.083 570 258.283C569.8 258.383 569.5 258.483 569.2 258.683C569.3 258.583 569.2 258.483 569.2 258.383Z" fill="#498181"/>
<path d="M592.3 234.074C592.3 237.175 592.1 240.176 591.7 243.277C591.6 244.378 591.6 245.578 591.5 246.678C591.4 247.579 591.5 248.479 591.5 249.379C591.5 251.08 591.5 252.78 591.5 254.481C591.5 255.281 591.3 255.981 591.3 256.782C591.3 257.582 591.3 258.282 591.3 259.082C591.3 259.782 591.3 260.483 591.3 261.183C591.3 261.883 591.4 262.583 591.5 263.284C591.6 264.684 591.5 266.185 591.5 267.685" stroke="#498181" stroke-width="2.3632" stroke-miterlimit="10"/>
<path d="M591.6 242.978C591.6 243.078 591.6 243.178 591.6 243.178C591.2 242.778 591 242.178 590.6 241.778C590.2 241.278 589.9 240.878 589.6 240.277C589.3 239.777 589.1 239.177 588.8 238.677C588.6 238.277 588.4 237.977 588.2 237.577C588 237.176 587.9 236.776 587.7 236.476C587.3 235.776 586.9 234.976 586.5 234.176C586.2 233.475 585.8 232.575 585.8 231.775C585.8 231.475 585.7 230.874 586.1 231.175C586.3 231.275 586.4 231.575 586.6 231.775C587.3 232.475 587.9 233.375 588.4 234.276C589.1 235.576 590 236.776 590.7 238.077C590.9 238.577 591.2 238.977 591.4 239.477C591.5 239.777 591.7 240.077 591.6 240.378V240.277C591.6 239.677 592.5 239.077 592.9 238.577C593.4 237.977 593.9 237.277 594.4 236.676C595 236.176 595.4 235.476 596 234.976C596.6 234.376 597.3 233.875 598.1 233.375C598.7 232.875 599.3 232.375 600 232.075C600.2 231.975 600.2 231.975 600.4 232.075C600.5 232.175 600.7 232.375 600.7 232.475C601.2 233.275 600.5 234.276 600 234.776C598.5 236.776 596.5 238.277 594.8 240.077C594.2 240.678 593.5 241.278 592.9 241.878C592.8 242.178 591.9 242.878 591.6 242.978Z" fill="#498181"/>
<path d="M591.3 251.281C591.2 250.98 590.7 250.58 590.4 250.38C589.7 249.68 589 248.98 588.3 248.28C587.5 247.479 586.7 246.679 586.1 245.779C585.6 245.179 585 244.378 584.6 243.678C584.1 242.678 583.3 241.377 583.5 240.277C583.7 239.577 584.5 239.277 585.1 239.577C585.6 239.877 586 240.377 586.4 240.777C586.9 241.277 587.2 241.878 587.6 242.378C588 242.878 588.3 243.478 588.7 244.078C588.9 244.378 589.1 244.578 589.3 244.879C589.5 245.179 589.5 245.379 589.7 245.579C590 245.879 590.2 246.279 590.4 246.679C590.6 247.079 590.8 247.379 591 247.779C591.1 247.98 591.2 248.28 591.4 248.48C591.5 248.58 591.7 249.18 591.8 249.18V249.08C591.9 248.58 592.3 248.28 592.6 247.879C593.1 247.179 593.7 246.579 594.3 245.879C594.5 245.579 594.7 245.279 595 245.079C595.3 244.778 595.8 244.478 596.1 244.078C596.7 243.478 597.4 243.178 598 242.778C598.2 242.578 598.5 242.478 598.7 242.378C598.9 242.278 599 242.178 599.2 242.078C599.6 241.978 599.9 241.878 600.3 241.878C601.2 241.878 600.5 243.478 600.2 243.978C599.8 244.578 599.4 245.079 598.9 245.579C598.5 246.079 597.9 246.379 597.4 246.879C596.6 247.679 595.6 248.18 594.8 249.08C594.5 249.38 594.1 249.48 593.9 249.78C593.7 249.98 593.4 250.18 593.2 250.38C593.1 250.58 591.5 251.781 591.3 251.281Z" fill="#498181"/>
<path d="M591.2 258.383C590.9 258.483 590.5 258.183 590.2 257.983C589.6 257.683 589 257.383 588.4 256.983C587 255.982 585.5 255.082 584.1 253.982C583.3 253.281 582.4 252.581 582.1 251.581C581.8 250.38 583.6 251.381 584 251.581C584.5 251.781 584.9 252.181 585.4 252.481C585.8 252.781 586.3 253.181 586.7 253.581C587 253.882 587.3 254.182 587.7 254.582C588 254.882 588.4 255.082 588.7 255.382C588.9 255.682 589.2 255.882 589.4 256.182C589.6 256.382 589.7 256.582 589.9 256.682C590.2 256.883 590.9 257.283 591 257.683C590.9 257.283 591.7 256.783 591.8 256.482C592 255.982 592.4 255.482 592.8 255.082C593.2 254.582 593.5 254.082 594 253.682C594.4 253.181 594.9 252.681 595.4 252.281C595.7 251.981 596.1 251.681 596.5 251.481C596.9 251.281 597.6 250.881 598 250.981C598.7 251.281 598 252.481 597.8 252.881C597 254.382 595.6 255.382 594.3 256.382C593.8 256.783 593.3 257.383 592.7 257.783C592.5 257.983 592.2 258.083 592 258.283C591.8 258.383 591.5 258.483 591.2 258.683C591.3 258.583 591.2 258.483 591.2 258.383Z" fill="#498181"/>
<path d="M612.3 234.074C612.3 237.175 612.1 240.176 611.7 243.277C611.6 244.378 611.6 245.578 611.5 246.678C611.4 247.579 611.5 248.479 611.5 249.379C611.5 251.08 611.5 252.78 611.5 254.481C611.5 255.281 611.3 255.981 611.3 256.782C611.3 257.582 611.3 258.282 611.3 259.082C611.3 259.782 611.3 260.483 611.3 261.183C611.3 261.883 611.4 262.583 611.5 263.284C611.6 264.684 611.5 266.185 611.5 267.685" stroke="#498181" stroke-width="2.3632" stroke-miterlimit="10"/>
<path d="M611.6 242.978C611.6 243.078 611.6 243.178 611.6 243.178C611.2 242.778 611 242.178 610.6 241.778C610.2 241.278 609.9 240.878 609.6 240.277C609.3 239.777 609.1 239.177 608.8 238.677C608.6 238.277 608.4 237.977 608.2 237.577C608 237.176 607.9 236.776 607.7 236.476C607.3 235.776 606.9 234.976 606.5 234.176C606.2 233.475 605.8 232.575 605.8 231.775C605.8 231.475 605.7 230.874 606.1 231.175C606.3 231.275 606.4 231.575 606.6 231.775C607.3 232.475 607.9 233.375 608.4 234.276C609.1 235.576 610 236.776 610.7 238.077C610.9 238.577 611.2 238.977 611.4 239.477C611.5 239.777 611.7 240.077 611.6 240.378V240.277C611.6 239.677 612.5 239.077 612.9 238.577C613.4 237.977 613.9 237.277 614.4 236.676C615 236.176 615.4 235.476 616 234.976C616.6 234.376 617.3 233.875 618.1 233.375C618.7 232.875 619.3 232.375 620 232.075C620.2 231.975 620.2 231.975 620.4 232.075C620.5 232.175 620.7 232.375 620.7 232.475C621.2 233.275 620.5 234.276 620 234.776C618.5 236.776 616.5 238.277 614.8 240.077C614.2 240.678 613.5 241.278 612.9 241.878C612.8 242.178 611.9 242.878 611.6 242.978Z" fill="#498181"/>
<path d="M611.3 251.281C611.2 250.98 610.7 250.58 610.4 250.38C609.7 249.68 609 248.98 608.3 248.28C607.5 247.479 606.7 246.679 606.1 245.779C605.6 245.179 605 244.378 604.6 243.678C604.1 242.678 603.3 241.377 603.5 240.277C603.7 239.577 604.5 239.277 605.1 239.577C605.6 239.877 606 240.377 606.4 240.777C606.9 241.277 607.2 241.878 607.6 242.378C608 242.878 608.3 243.478 608.7 244.078C608.9 244.378 609.1 244.578 609.3 244.879C609.5 245.179 609.5 245.379 609.7 245.579C610 245.879 610.2 246.279 610.4 246.679C610.6 247.079 610.8 247.379 611 247.779C611.1 247.98 611.2 248.28 611.4 248.48C611.5 248.58 611.7 249.18 611.8 249.18V249.08C611.9 248.58 612.3 248.28 612.6 247.879C613.1 247.179 613.7 246.579 614.3 245.879C614.5 245.579 614.7 245.279 615 245.079C615.3 244.778 615.8 244.478 616.1 244.078C616.7 243.478 617.4 243.178 618 242.778C618.2 242.578 618.5 242.478 618.7 242.378C618.9 242.278 619 242.178 619.2 242.078C619.6 241.978 619.9 241.878 620.3 241.878C621.2 241.878 620.5 243.478 620.2 243.978C619.8 244.578 619.4 245.079 618.9 245.579C618.5 246.079 617.9 246.379 617.4 246.879C616.6 247.679 615.6 248.18 614.8 249.08C614.5 249.38 614.1 249.48 613.9 249.78C613.7 249.98 613.4 250.18 613.2 250.38C613.1 250.58 611.5 251.781 611.3 251.281Z" fill="#498181"/>
<path d="M611.2 258.383C610.9 258.483 610.5 258.183 610.2 257.983C609.6 257.683 609 257.383 608.4 256.983C607 255.982 605.5 255.082 604.1 253.982C603.3 253.281 602.4 252.581 602.1 251.581C601.8 250.38 603.6 251.381 604 251.581C604.5 251.781 604.9 252.181 605.4 252.481C605.8 252.781 606.3 253.181 606.7 253.581C607 253.882 607.3 254.182 607.7 254.582C608 254.882 608.4 255.082 608.7 255.382C608.9 255.682 609.2 255.882 609.4 256.182C609.6 256.382 609.7 256.582 609.9 256.682C610.2 256.883 610.9 257.283 611 257.683C610.9 257.283 611.7 256.783 611.8 256.482C612 255.982 612.4 255.482 612.8 255.082C613.2 254.582 613.5 254.082 614 253.682C614.4 253.181 614.9 252.681 615.4 252.281C615.7 251.981 616.1 251.681 616.5 251.481C616.9 251.281 617.6 250.881 618 250.981C618.7 251.281 618 252.481 617.8 252.881C617 254.382 615.6 255.382 614.3 256.382C613.8 256.783 613.3 257.383 612.7 257.783C612.5 257.983 612.2 258.083 612 258.283C611.8 258.383 611.5 258.483 611.2 258.683C611.3 258.583 611.2 258.483 611.2 258.383Z" fill="#498181"/>
</svg>
