<svg width="620" height="310" viewBox="0 0 620 310" fill="none" xmlns="http://www.w3.org/2000/svg">
<path d="M620 40.0387V269.261C620 291.382 602.1 309.299 580 309.199H40C33.4 309.199 27.2 307.698 21.7 304.895C8.8 298.289 0 284.776 0 269.261V40.0387C0 17.9173 17.9 0 40 0H580C602.1 0 620 17.9173 620 40.0387Z" fill="#FDD2A7"/>
<path d="M434.5 298.389C439.5 302.593 445.7 304.895 452 306.797C454.6 307.598 457.3 308.298 459.9 308.999H575.3C577.3 308.999 582 302.493 583 300.691C585.3 295.786 586.2 290.381 585.6 284.976C584.8 278.469 580.8 272.564 580.4 265.957C580.2 261.753 581.4 257.549 581.4 253.345C581.2 244.236 573.8 236.729 566 232.825C561.3 230.423 557.1 222.615 555.9 217.711C554.4 211.605 552.2 208.302 548.2 203.197C547.3 202.096 546.5 200.894 545.8 199.693C543.9 196.29 543.6 192.286 542.6 188.582C542.2 186.981 541.5 185.479 540.4 184.278C538.8 182.777 536.7 181.876 534.5 181.876C530.8 181.776 529.5 183.077 526.5 180.875C524.3 179.273 523.4 176.771 520.4 176.07C508.5 173.368 496.6 180.875 493.9 192.787C493.6 193.888 493.5 195.089 493.4 196.19C493.3 198.092 493.4 200.094 492.6 201.795C491.8 203.497 490.3 204.698 489.3 206.3C486.2 211.104 488.5 217.611 486.7 223.016C485.1 228.121 480.2 231.324 475.4 233.626C470.6 235.928 465.4 237.73 461.6 241.434C455.7 247.139 453.9 256.849 446.7 260.852C437.7 265.957 427.8 268.66 426.7 281.072C425.9 287.778 429.5 294.185 434.5 298.389Z" fill="white"/>
<path d="M586.1 285.076C585.6 281.973 584.7 278.97 583.5 276.067C582.3 272.864 581.1 269.46 580.9 266.057C580.9 263.855 581 261.753 581.4 259.551C581.6 258.049 581.8 256.548 581.8 254.946C581.8 254.446 581.8 253.945 581.8 253.445C581.6 243.636 573.6 236.228 566.2 232.525C562.1 230.523 558.3 223.816 556.8 219.212C556.6 218.711 556.5 218.211 556.4 217.811C554.8 211.404 552.5 208.001 548.6 203.096C547.7 201.995 546.9 200.894 546.2 199.693C545.1 197.391 544.3 194.988 543.9 192.486C543.6 191.185 543.4 189.884 543 188.682C542.6 186.981 541.8 185.479 540.7 184.178C539 182.576 536.8 181.676 534.4 181.676C533.4 181.676 532.4 181.676 531.4 181.876C531.2 181.876 531.1 181.976 530.9 181.976C530.7 181.976 530.5 182.076 530.3 182.076C530.1 182.076 529.9 182.076 529.7 182.076C528.6 181.976 527.5 181.575 526.6 180.875C526.5 180.775 526.3 180.675 526.2 180.574C526 180.374 525.8 180.174 525.6 179.974C525.4 179.774 525.2 179.574 525.1 179.473C524.9 179.273 524.8 179.173 524.7 178.973C523.7 177.572 522.2 176.471 520.5 176.07C516 175.069 511.4 175.47 507.2 177.071C507 177.171 506.9 177.171 506.7 177.271C506.5 177.371 506.4 177.371 506.2 177.471C505.6 177.772 505 178.072 504.4 178.372C497.8 182.176 493.5 188.983 492.8 196.59C492.7 196.99 492.7 197.391 492.7 197.791C492.7 199.193 492.5 200.694 492 202.095C491.5 202.996 490.9 203.897 490.2 204.698C489.7 205.298 489.2 205.899 488.8 206.5C486.9 209.302 486.9 212.706 486.9 216.109C487 217.51 486.9 218.812 486.7 220.213C486.6 221.214 486.4 222.315 486.1 223.316C484.8 227.32 481.2 230.723 475.1 233.726C474.1 234.226 473.1 234.727 472 235.127C468.2 236.829 464.2 238.631 461.2 241.634C458.6 244.136 456.8 247.339 455.1 250.442C454.8 250.943 454.5 251.443 454.2 251.944C452.1 255.547 449.9 258.95 446.4 260.952C444.9 261.753 443.4 262.554 441.9 263.355C434.3 267.258 427.1 270.962 426.2 281.572C426.2 282.073 426.1 282.573 426.1 282.974C426.1 288.679 429.1 294.585 434.3 298.989C439.5 303.393 446.1 305.796 452 307.497C454.1 308.098 456.3 308.799 458.6 309.399C459 309.499 459.5 309.599 459.9 309.699H575.4C575.7 309.699 576.1 309.599 576.4 309.399C578.9 307.998 582.7 302.693 583.5 301.291C585.7 295.986 586.6 290.481 586.1 285.076ZM575.3 308.498H460C457.3 307.798 454.6 307.097 452.3 306.296C449.4 305.395 446.4 304.394 443.4 303.093C440.4 301.792 437.5 300.09 435 297.988C429.7 293.484 426.7 287.078 427.2 281.372C428.1 271.262 435.1 267.759 442.4 263.955C443.9 263.154 445.4 262.354 446.9 261.553C450.5 259.551 452.8 256.148 454.8 252.644C455.2 251.944 455.6 251.343 455.9 250.642C457.6 247.539 459.4 244.436 461.9 242.034C464.8 239.131 468.7 237.43 472.5 235.728C473.5 235.227 474.6 234.827 475.6 234.327C481.9 231.324 485.7 227.72 487.1 223.416C487.3 222.515 487.5 221.614 487.7 220.813C487.9 219.212 488 217.61 488 216.009C488 212.605 488.1 209.502 489.7 206.9C490.1 206.299 490.6 205.699 491 205.198C491.8 204.398 492.4 203.397 492.9 202.396C493.5 200.894 493.7 199.393 493.7 197.791C493.7 197.391 493.8 196.99 493.8 196.59C494.4 189.283 498.5 182.777 504.9 179.073C505.6 178.673 506.3 178.372 507 178.072C507.2 177.972 507.4 177.872 507.6 177.872C507.8 177.772 507.9 177.772 508.1 177.672H508.2C508.3 177.672 508.3 177.672 508.4 177.672C512.2 176.37 516.4 176.07 520.4 176.971C521.8 177.371 523.1 178.272 524 179.473C524.1 179.574 524.1 179.574 524.1 179.674C524.2 179.774 524.3 179.874 524.4 179.974C524.6 180.174 524.7 180.374 524.9 180.474C525.3 180.875 525.8 181.275 526.3 181.676C527.1 182.276 528.1 182.777 529.1 182.877C529.3 182.877 529.5 182.977 529.8 182.977C530 182.977 530.3 182.977 530.5 182.977C530.9 182.977 531.3 182.977 531.7 182.877C532.6 182.777 533.6 182.677 534.6 182.677C536.7 182.677 538.7 183.477 540.2 184.879C541.2 186.08 541.9 187.481 542.3 188.983C542.6 190.184 542.9 191.485 543.2 192.686C543.6 195.289 544.4 197.791 545.6 200.193C546.3 201.395 547.1 202.596 548 203.697C552.1 209.002 554.1 212.105 555.6 218.111C555.7 218.711 555.9 219.312 556.1 220.013C557.8 224.917 561.6 231.424 565.9 233.626C573.1 237.229 580.8 244.336 581 253.745C581 254.646 581 255.547 580.9 256.348C580.8 257.449 580.7 258.55 580.5 259.651C580.1 261.853 580 264.055 580 266.358C580.2 269.961 581.5 273.364 582.7 276.667C583.9 279.47 584.7 282.473 585.2 285.476C585.8 290.781 584.9 296.086 582.6 300.891C581.4 302.593 576.8 308.498 575.3 308.498Z" fill="#231F20"/>
<path d="M521.4 162.457C518.7 162.157 515.9 161.756 513.2 161.556C508.6 161.256 506 158.753 505.4 154.449C504.5 147.743 501.6 141.937 498.1 136.232C492.8 128.124 491 118.314 493 108.805C497 89.186 514.2 78.9761 534.3 83.2803C564 89.4863 569 121.517 550.9 141.336C546 146.642 541.3 151.847 538.8 158.753C537.4 162.557 534.2 164.058 530.1 163.458C527.2 162.957 524.3 162.757 521.4 162.457Z" fill="white"/>
<path d="M498.5 135.931C498 135.23 497.6 134.53 497.2 133.829C497.9 135.23 498.6 136.732 499.4 138.133C499.5 138.133 499.6 138.033 499.7 137.933C499.3 137.232 498.9 136.632 498.5 135.931ZM560.3 104.701C556.6 93.2898 547.4 85.4822 534.4 82.7796C524.1 80.5775 514.2 82.179 506.5 87.1839C499.3 91.9885 494.4 99.3957 492.5 108.705C491.6 113.009 491.5 117.413 492.1 121.617C492.1 122.018 492.2 122.318 492.3 122.718C492.4 123.519 492.6 124.32 492.8 125.121C493.8 129.124 495.4 132.928 497.7 136.432C499.2 138.834 500.7 141.436 502 144.239C502.4 145.14 502.7 145.941 503.1 146.842C503.7 148.543 504.2 150.245 504.6 152.047C504.8 152.847 504.9 153.648 505 154.449C505.4 157.552 506.7 159.654 509 160.855C509.2 160.955 509.5 161.055 509.7 161.155C510.7 161.556 511.9 161.856 513.2 161.956C515.1 162.056 517 162.357 518.9 162.557L521.4 162.857L524.1 163.157C526 163.358 528.1 163.558 530 163.858C530.6 163.958 531.2 163.958 531.8 163.958C532.3 163.958 532.9 163.958 533.4 163.858C533.6 163.858 533.9 163.758 534.1 163.758C536.5 163.157 538.4 161.256 539.2 158.853C540.2 156.051 541.6 153.648 543.2 151.346C543.4 151.046 543.6 150.645 543.9 150.345C544.2 149.945 544.5 149.544 544.8 149.144C546.8 146.441 549.1 144.039 551.3 141.637C553.2 139.535 554.9 137.232 556.4 134.83C557 133.929 557.5 132.928 557.9 132.027C558.5 130.826 559.1 129.525 559.5 128.224C559.7 127.723 559.8 127.323 560 126.822C560.1 126.522 560.2 126.222 560.3 125.921C562.4 118.814 562.4 111.507 560.3 104.701ZM559.3 125.521C559.3 125.721 559.2 125.821 559.1 126.021C557.4 131.327 554.5 136.532 550.4 140.936C548.8 142.738 547.1 144.539 545.6 146.441C545.3 146.742 545.1 147.042 544.8 147.442C544.4 147.843 544.1 148.343 543.7 148.743C541.5 151.646 539.5 154.849 538.1 158.553C536.8 161.956 534 163.558 530 162.957C528 162.657 526 162.457 524.1 162.257C523.2 162.156 522.3 162.056 521.4 161.956L518.9 161.656C517 161.456 515.1 161.155 513.2 161.055C508.9 160.855 506.4 158.553 505.9 154.349C505.4 150.745 504.4 147.342 503 144.339C502.8 143.939 502.6 143.538 502.5 143.138C502.3 142.838 502.2 142.537 502.1 142.237C501.4 140.836 500.7 139.535 500 138.333C499.9 138.233 499.9 138.133 499.8 137.933C499.4 137.232 499 136.632 498.6 135.931C498.1 135.23 497.7 134.53 497.3 133.829C496.2 131.827 495.3 129.725 494.6 127.623C494.3 126.522 493.9 125.421 493.7 124.42C492.5 119.415 492.5 114.11 493.6 109.005C495.5 99.9963 500.2 92.7893 507.2 88.1848C514.6 83.2801 524.3 81.7786 534.3 83.8807C547 86.5833 555.9 94.0906 559.5 105.201C561.6 111.608 561.6 118.614 559.7 125.221C559.5 125.121 559.4 125.321 559.3 125.521Z" fill="#231F20"/>
<path d="M510.3 161.156L532.4 163.658C534.4 163.858 535.8 165.66 535.6 167.662L535.5 168.763C535.3 170.765 533.5 172.166 531.5 171.966L509.4 169.464C507.4 169.263 506 167.462 506.2 165.46L506.3 164.359C506.5 162.457 508.3 160.955 510.3 161.156Z" fill="white"/>
<path d="M534.1 163.758C533.9 163.658 533.6 163.457 533.3 163.457C533 163.357 532.8 163.357 532.5 163.257L510.4 160.755C510.2 160.755 510 160.755 509.8 160.755C509.5 160.755 509.2 160.855 509 160.855C508.4 160.955 507.9 161.255 507.4 161.656C506.6 162.356 506 163.357 505.9 164.458L505.8 165.56C505.7 166.661 506 167.762 506.7 168.562C507 168.863 507.2 169.163 507.6 169.363C507.8 169.463 507.9 169.563 508.1 169.663C508.4 169.864 508.7 169.964 509.1 169.964C509.2 169.964 509.3 169.964 509.4 170.064L531.5 172.566C531.6 172.566 531.7 172.566 531.8 172.566C531.9 172.566 531.9 172.566 532 172.566C532.3 172.566 532.6 172.566 532.9 172.466C533.1 172.466 533.3 172.366 533.5 172.266C533.9 172.166 534.2 171.966 534.6 171.665C535.5 170.965 536 169.964 536.1 168.963L536.2 167.862C536.3 166.06 535.4 164.559 534.1 163.758ZM535.2 167.662L535.1 168.863C534.9 170.564 533.5 171.766 531.8 171.665C531.7 171.665 531.7 171.665 531.6 171.665L509.4 169.163C507.7 168.963 506.5 167.461 506.7 165.76L506.8 164.559C506.9 163.758 507.3 162.957 508 162.457C508.7 161.956 509.5 161.656 510.3 161.756L532.4 164.258C533.2 164.358 534 164.759 534.5 165.459C535 165.96 535.2 166.861 535.2 167.662Z" fill="#231F20"/>
<path d="M509.4 169.564L531.5 172.066C533.5 172.267 534.9 174.068 534.7 176.07L534.6 177.171C534.4 179.173 532.6 180.575 530.6 180.374L508.5 177.872C506.5 177.672 505.1 175.87 505.3 173.868L505.4 172.767C505.6 170.765 507.4 169.364 509.4 169.564Z" fill="white"/>
<path d="M533.4 172.266C533.2 172.166 533 172.066 532.8 171.966C532.5 171.766 532.1 171.666 531.7 171.666C531.6 171.666 531.6 171.666 531.5 171.666L509.3 169.163C508.9 169.163 508.4 169.163 508 169.263C507.8 169.263 507.5 169.363 507.3 169.463C506 169.964 505 171.265 504.8 172.767L504.7 173.968C504.6 175.069 504.9 176.17 505.6 176.971C505.7 177.071 505.8 177.271 506 177.371C506.1 177.471 506.2 177.571 506.3 177.671C506.5 177.771 506.6 177.872 506.8 177.972C507 178.072 507.3 178.272 507.6 178.272C507.8 178.372 507.9 178.372 508.1 178.372C508.2 178.372 508.3 178.372 508.4 178.372H508.6L509.2 178.472L524.7 180.274L525.5 180.374L526.2 180.474L530.3 180.975H530.5C530.6 180.975 530.7 180.975 530.8 180.975C530.9 180.975 530.9 180.975 531 180.975C531.1 180.975 531.2 180.975 531.3 180.975C533.2 180.774 534.8 179.273 535 177.371L535.1 176.17C535.3 174.568 534.6 173.067 533.4 172.266ZM534.3 175.97L534.2 177.171C534 178.772 532.7 179.974 531.1 179.974C531 179.974 530.9 179.974 530.7 179.974L525.1 179.373L524.5 179.273L523.8 179.173L508.6 177.471C508.5 177.471 508.4 177.471 508.3 177.371C508.1 177.271 507.8 177.271 507.6 177.071C507.5 176.971 507.3 176.871 507.2 176.871C506.3 176.27 505.8 175.169 505.9 173.968L506 172.867C506.2 171.265 507.5 170.064 509.1 170.064C509.2 170.064 509.3 170.064 509.4 170.064L531.6 172.566C531.7 172.566 531.7 172.566 531.8 172.566C533.3 172.867 534.4 174.368 534.3 175.97Z" fill="#231F20"/>
<path d="M530.9 180.374C530.5 183.477 525.2 185.479 518.9 184.778C512.6 184.078 507.8 180.975 508.2 177.771L530.9 180.374Z" fill="#231F20"/>
<path d="M531.3 180.074C531.2 179.974 531.1 179.874 531 179.874H530.7L525.1 179.273L524.5 179.173L523.8 179.073L508.3 177.371C508.2 177.371 508.2 177.371 508.1 177.371H508C507.9 177.471 507.8 177.571 507.8 177.671V177.771C507.8 177.872 507.8 178.072 507.8 178.172C507.8 179.773 508.9 181.275 510.9 182.676C513.4 184.178 516.1 185.079 519 185.279C519.9 185.379 520.7 185.379 521.6 185.379C525.5 185.379 528.7 184.378 530.4 182.676C530.6 182.476 530.7 182.276 530.8 182.176C530.9 182.076 531 181.875 531.1 181.775C531.3 181.475 531.4 181.175 531.5 180.874C531.5 180.774 531.6 180.574 531.6 180.474V180.374C531.3 180.274 531.3 180.174 531.3 180.074ZM529.7 181.875C529.6 181.976 529.5 182.076 529.3 182.276C529.1 182.476 529 182.576 528.8 182.676C526.8 184.178 523 184.878 518.9 184.378C516.2 184.178 513.6 183.277 511.3 181.875C509.6 180.774 508.7 179.573 508.6 178.372L509.2 178.472L524.7 180.174L525.5 180.274L526.2 180.374L530.3 180.874C530.2 181.175 530 181.575 529.7 181.875Z" fill="#231F20"/>
<path d="M545.1 119.415C544.7 118.414 543.9 117.613 542.8 117.313C540.6 116.813 538.1 118.715 537.5 119.315C533.3 123.019 531.7 129.625 530.5 134.83L530.3 135.531C530.2 135.831 530.2 136.031 530.1 136.332C526.7 136.932 523.3 136.832 519.9 136.031C519.9 134.33 519.7 132.628 519.5 130.926C518.7 125.221 517.4 121.017 515.5 118.414C515.4 118.314 515.3 118.214 515.2 118.014C512.6 115.211 508.1 115.111 505.3 117.714C503.7 119.716 503.1 122.418 504 124.82C504.8 127.123 506.2 129.225 508 130.826C511.1 133.729 514.9 135.731 519 136.832C519 143.539 517.7 150.245 516.4 156.851L516.3 157.652C516.3 157.852 516.4 158.153 516.7 158.153C517 158.253 517.2 158.053 517.3 157.752L517.4 156.952C518.7 150.345 520 143.739 520 137.032C523.3 137.733 526.6 137.833 530 137.333C528.6 144.439 528.1 151.646 528.4 158.853C528.4 159.154 528.6 159.354 528.9 159.354C529.2 159.354 529.4 159.154 529.4 158.853C529.1 151.646 529.6 144.339 531 137.232C532.9 136.832 534.7 136.232 536.4 135.431C539.5 134.129 542.1 131.927 544 129.125C545.9 126.222 546.3 122.618 545.1 119.415ZM508.7 130.025C507 128.524 505.7 126.622 504.9 124.42C504.2 122.318 504.6 120.016 506 118.214C507.1 117.113 508.5 116.613 510 116.613L510.5 116.713C512.2 116.813 513.7 117.513 514.7 118.815C516.5 121.317 517.7 125.421 518.5 130.926C518.7 132.528 518.9 134.129 518.9 135.731C515.2 134.73 511.6 132.728 508.7 130.025ZM543.2 128.624C541.4 131.227 538.9 133.329 536 134.53C534.5 135.231 532.9 135.731 531.2 136.131C531.2 136.031 531.3 135.931 531.3 135.731L531.4 135.03C532.6 129.925 534.1 123.519 538.1 120.016C539.2 118.915 540.6 118.314 542.1 118.114C542.3 118.114 542.4 118.114 542.6 118.214C543.4 118.414 544 119.015 544.2 119.816C545.3 122.718 544.9 126.022 543.2 128.624Z" fill="#D1D3D4"/>
<path d="M470.3 310H563.6C564.8 295.385 566.7 277.568 569.5 266.758L609 229.021L582 203.296C582 203.296 522.4 241.233 518.2 241.033C512.8 240.733 448.1 190.984 448.1 190.984L436.1 227.32L470.7 273.965C470.6 286.377 470.5 299.589 470.3 310Z" fill="black"/>
<path d="M519.7 304.595C519.6 304.595 519.4 304.494 519.4 304.394C519.2 304.194 519.2 303.894 519.4 303.694C532.1 291.482 534.4 285.176 534 281.973C533.9 280.671 533.1 279.37 531.9 278.77C531.8 278.669 531.7 278.569 531.7 278.369C531.7 278.169 531.8 278.069 531.9 277.969C532.6 277.368 533.4 276.868 534.2 276.267C536.7 274.465 539.2 272.664 540 270.061C541.1 266.558 539.4 261.653 538 257.749C537.6 256.648 537.3 255.647 537 254.746C536.9 254.546 537 254.246 537.2 254.146C537.4 254.046 537.7 254.146 537.8 254.346V254.446C538.1 255.347 538.4 256.348 538.8 257.349C540.2 261.453 542 266.458 540.8 270.261C539.9 273.264 537.1 275.266 534.6 276.968C534 277.368 533.4 277.769 532.9 278.169C534 279.07 534.7 280.271 534.9 281.672C535.5 286.677 530.5 294.184 520 304.194C519.9 304.595 519.8 304.595 519.7 304.595Z" fill="#231F20"/>
<path d="M499.2 303.293C499 303.293 498.8 303.193 498.8 302.993C498.5 302.192 498.1 301.291 497.6 300.29C494.8 294.284 490.1 284.275 492.9 278.169C493.8 276.267 495.4 274.765 497.4 274.065C495.2 273.064 490.7 270.561 491.1 267.258C491.7 262.754 496.3 258.75 499.3 256.047L499.5 255.847C499.7 255.647 500 255.747 500.2 255.847C500.4 256.047 500.4 256.347 500.2 256.548L500 256.748C497 259.35 492.6 263.254 492.1 267.358C491.7 270.261 496.9 272.863 499 273.664C499.2 273.764 499.3 273.965 499.3 274.165C499.3 274.365 499.1 274.565 498.9 274.565C496.7 275.066 494.8 276.467 493.8 278.469C491.2 284.074 495.7 293.884 498.5 299.79C499 300.791 499.4 301.691 499.7 302.492C499.8 302.692 499.7 302.993 499.5 303.093C499.3 303.293 499.2 303.293 499.2 303.293Z" fill="#231F20"/>
<path d="M531 246.839L505.6 247.74L506.2 306.497L531 246.839Z" fill="#231F20"/>
<path d="M531.4 246.538C531.3 246.438 531.2 246.338 531 246.338H530.6L506.1 247.239H505.6C505.4 247.239 505.2 247.439 505.2 247.639C505.2 247.639 505.2 247.639 505.2 247.739L505.8 306.496C505.8 306.696 506 306.897 506.2 306.997H506.3C506.5 306.997 506.7 306.896 506.7 306.696L531.2 247.839L531.4 247.339L531.5 247.039V246.938C531.5 246.838 531.5 246.638 531.4 246.538ZM528.7 251.343L506.7 304.194L506.2 250.041V249.141V248.24H506.4L530.5 247.439L530.4 247.739L529.5 249.941L528.7 251.343Z" fill="#231F20"/>
<path d="M507.5 232.324L505.6 247.739C505.6 247.739 508.2 256.648 518.6 255.247C529 253.845 531 246.838 531 246.838L534.4 214.207C534.4 214.207 531.1 213.206 527.6 195.589C527.6 195.589 519.5 200.694 504.7 197.09C504.7 197.09 501.3 213.406 501.5 221.314C501.5 225.818 503.8 229.922 507.5 232.324Z" fill="white"/>
<path d="M532.8 212.405C532.7 212.505 532.6 212.605 532.4 212.705C533 213.806 533.6 214.307 533.9 214.507L533 222.915C533.1 222.915 533.3 223.015 533.4 223.015L534.3 214.307C534.4 214.307 533.8 214.106 532.8 212.405ZM534.6 213.806C534.6 213.806 534 213.506 533.2 212.105C533.1 212.004 533 211.804 533 211.704C532.9 211.604 532.9 211.404 532.8 211.304C531.6 208.901 529.9 204.297 528.2 195.589C528.2 195.488 528.2 195.488 528.1 195.488C528 195.288 527.7 195.188 527.4 195.288C527.3 195.388 519.3 200.193 504.9 196.79C504.8 196.79 504.6 196.79 504.5 196.89C504.4 196.99 504.3 197.09 504.3 197.19C504.3 197.39 500.9 213.606 501.1 221.514C501.1 226.018 503.3 230.122 507 232.624L506.8 234.326L505.8 242.934L505.2 247.739C505.2 247.739 505.2 247.739 505.2 247.839V247.939C505.3 248.34 505.5 248.74 505.7 249.14C505.8 249.441 506 249.741 506.2 250.041C508.3 253.745 512.2 256.047 516.6 255.947C517.3 255.947 518 255.947 518.7 255.847C523.7 255.246 526.8 253.244 528.7 251.343C529.1 251.042 529.4 250.642 529.7 250.342C530.5 249.441 530.9 248.54 531.2 247.939L531.4 247.439L531.5 247.138V247.038C531.5 247.038 531.5 247.038 531.5 246.938L532.9 233.525L533.9 223.916V223.415L534 222.915L534.9 214.207C534.9 214.106 534.8 213.906 534.6 213.806ZM532.9 223.816L531.8 234.126L530.5 246.438V246.738C530.5 246.738 530.5 246.838 530.5 246.938C530.4 247.138 530.3 247.339 530.1 247.739C529.1 249.641 526.2 253.845 518.4 254.846C510 255.947 506.9 250.141 506.1 248.24C506 248.039 506 247.839 505.9 247.739V247.339L506.4 243.535L506.5 243.034L506.6 242.534L506.7 242.134L507.6 234.927L507.8 233.025L507.9 232.524V232.424C507.9 232.324 507.9 232.124 507.8 232.024C507.7 232.024 507.7 231.924 507.6 231.924C504.1 229.621 502 225.618 502 221.414C501.9 214.307 504.6 200.493 505.1 197.791C517.6 200.593 525.2 197.49 527.3 196.389C529 204.898 530.6 209.502 531.9 211.904C532 212.004 532.1 212.205 532.1 212.305C532.2 212.505 532.3 212.605 532.3 212.705C532.9 213.806 533.5 214.307 533.8 214.507L532.9 222.915V223.816Z" fill="#231F20"/>
<path d="M530.4 214.807C531.3 212.505 533.4 211.004 535.7 210.303C537.2 209.703 538.9 209.803 540.4 210.603C542.2 211.905 543 214.207 542.4 216.309C541.8 219.512 539.4 222.215 536.3 223.216C534.2 223.816 532 223.516 530.1 222.415L530.4 214.807Z" fill="white"/>
<path d="M534.3 223.917C532.8 223.917 531.3 223.516 530 222.815C529.8 222.615 529.7 222.315 529.9 222.115C530 221.915 530.3 221.915 530.5 221.915C532.3 222.916 534.3 223.216 536.3 222.615C539.2 221.614 541.4 219.112 542 216.109C542.4 214.407 541.9 212.005 540.2 210.904C538.9 210.203 537.3 210.103 535.9 210.604C534.1 211.204 531.8 212.405 530.9 214.808C530.8 215.008 530.5 215.208 530.3 215.108C530.1 215.008 529.9 214.708 530 214.507C531 211.705 533.6 210.303 535.6 209.703C537.3 209.102 539.1 209.202 540.7 210.103C542.6 211.505 543.5 214.007 542.9 216.309C542.2 219.712 539.7 222.515 536.4 223.516C535.8 223.816 535 223.917 534.3 223.917Z" fill="#231F20"/>
<path d="M515.9 206.199C515.9 206.199 509.5 213.306 510.6 214.808C511.7 216.309 515.3 215.909 515.3 215.909L515.9 206.199Z" fill="white"/>
<path d="M514.2 216.61C512.9 216.61 511 216.409 510.2 215.208C509.1 213.507 513.6 208.201 515.6 205.899C515.8 205.699 516.1 205.699 516.3 205.799C516.5 205.999 516.5 206.3 516.4 206.5C513.1 210.103 510.7 213.907 511.1 214.608C511.8 215.709 514.4 215.609 515.3 215.609C515.6 215.609 515.8 215.709 515.8 216.009C515.8 216.309 515.6 216.51 515.4 216.51C515.1 216.51 514.7 216.61 514.2 216.61Z" fill="#231F20"/>
<path d="M515.4 223.916C510.5 223.916 506 220.213 505.8 220.112C505.6 219.912 505.6 219.612 505.7 219.412C505.9 219.212 506.2 219.212 506.4 219.312C506.5 219.312 512 223.916 517.1 222.815C519.7 222.215 521.7 220.313 523.3 217.11C523.4 216.909 523.7 216.809 524 216.909C524.2 217.009 524.3 217.31 524.2 217.51C522.6 221.013 520.3 223.115 517.4 223.716C516.7 223.916 516.1 223.916 515.4 223.916Z" fill="#231F20"/>
<path d="M506.2 204.498C506.2 204.498 506.4 201.495 509.1 201.195C511.7 200.894 511.2 204.498 511.2 204.498H506.2Z" fill="white"/>
<path d="M511.1 204.998C510.8 204.998 510.6 204.698 510.6 204.498C510.8 203.597 510.6 202.696 510.1 201.995C509.8 201.695 509.4 201.595 509 201.695C506.8 201.995 506.6 204.498 506.6 204.598C506.6 204.898 506.3 205.098 506.1 204.998C505.8 204.998 505.6 204.698 505.7 204.498C505.8 203.296 506.7 200.994 509 200.694C509.7 200.594 510.4 200.794 510.9 201.295C511.9 202.396 511.7 204.398 511.6 204.598C511.6 204.798 511.4 204.998 511.1 204.998Z" fill="#231F20"/>
<path d="M518.7 205.198C518.7 205.198 518.9 202.195 521.6 201.895C524.2 201.594 523.7 205.198 523.7 205.198H518.7Z" fill="white"/>
<path d="M523.7 205.698C523.4 205.698 523.2 205.398 523.2 205.198C523.4 204.297 523.2 203.396 522.7 202.695C522.4 202.395 522 202.295 521.6 202.395C519.4 202.695 519.2 205.198 519.2 205.298C519.2 205.598 518.9 205.798 518.7 205.698C518.4 205.698 518.2 205.398 518.3 205.198C518.4 203.997 519.2 201.694 521.6 201.394C522.3 201.294 523 201.494 523.5 201.995C524.5 203.096 524.3 205.098 524.2 205.298C524.2 205.498 523.9 205.698 523.7 205.698Z" fill="#231F20"/>
<path d="M507.5 232.324C507.5 232.324 516.8 235.728 522.8 233.125C522.8 233.125 515 245.337 506.2 242.834L507.5 232.324Z" fill="#231F20"/>
<path d="M523.1 232.925C523 232.724 522.7 232.724 522.5 232.825C517.2 235.027 509.2 232.524 507.7 232.024C507.6 232.024 507.5 231.924 507.5 231.924C507.4 231.824 507.2 231.824 507.1 231.924L507 232.024C506.9 232.124 506.9 232.224 506.9 232.224V232.524L506.7 234.226L505.7 242.834V242.934C505.7 243.135 505.9 243.335 506.1 243.335C506.1 243.335 506.1 243.335 506.2 243.335C506.4 243.335 506.5 243.435 506.7 243.435C507.3 243.535 508 243.635 508.7 243.635C511.7 243.635 514.5 242.234 516.8 240.432C520.6 237.529 523.1 233.625 523.3 233.425C523.3 233.325 523.3 233.125 523.1 232.925ZM506.7 242.534L506.8 242.134L507.7 234.927L507.9 233.025C509.9 233.625 516.4 235.527 521.6 234.126C520.5 235.527 518.4 238.03 515.8 240.032C513.1 241.933 510 243.235 506.7 242.534Z" fill="#231F20"/>
<path d="M470.4 305.896C470.1 305.896 469.9 305.695 469.9 305.395C470.3 295.586 470.1 287.778 470 280.371C469.9 275.066 469.8 269.961 469.9 264.255C469.9 263.955 470.1 263.755 470.4 263.755C470.7 263.755 470.9 263.955 470.9 264.255C470.8 269.961 470.9 275.066 471 280.371C471.1 287.878 471.3 295.586 470.9 305.495C470.9 305.695 470.6 305.896 470.4 305.896Z" fill="#231F20"/>
<path d="M582 203.296C575.2 194.788 568.3 186.28 561.5 177.671C558.1 173.467 554.7 169.163 551.3 164.959C550 163.057 548.5 161.356 546.9 159.754C543.9 157.252 542.7 153.048 544.1 149.344C544.8 147.843 545.3 146.141 545.5 144.539C545.6 141.336 543.1 138.434 543.5 135.23C543.5 135.03 543.6 134.73 543.7 134.53C544.2 133.929 545.1 134.33 545.7 134.73C546.8 135.631 547.6 136.732 548.2 137.933C551.6 134.73 554.4 130.926 556.7 126.922C557.1 126.122 557.8 125.121 558.7 125.321C559.6 125.521 560 126.722 559.9 127.723C559.6 130.025 558.2 132.127 556.9 134.029C555.9 135.631 555.6 147.042 556.6 147.943C559.1 150.745 598.7 183.577 608.9 196.29C622.2 213.006 616.1 227.119 608.9 228.921C601.7 230.723 582 203.296 582 203.296Z" fill="white"/>
<path d="M609.3 195.989C601.9 186.68 579.4 167.161 566 155.55C561.2 151.346 557.7 148.643 557 147.642C556.3 146.641 556.4 135.731 557.4 134.229L557.8 133.629C559 131.827 560.3 129.825 560.5 127.623C560.6 127.022 560.5 126.321 560.3 125.821C560.2 125.621 560.1 125.421 560 125.32C559.9 125.22 559.8 125.12 559.6 125.02C559.4 124.92 559.2 124.82 558.9 124.82C557.5 124.62 556.7 126.121 556.4 126.722C554.2 130.626 551.6 134.129 548.4 137.232C547.8 136.131 547 135.23 546.1 134.429C545.6 134.029 544.9 133.729 544.2 133.729C543.9 133.729 543.5 133.929 543.3 134.229C543.1 134.529 543 134.83 543 135.13C542.9 136.932 543.3 138.633 544 140.235C544.6 141.536 544.9 143.038 545 144.439C544.9 145.84 544.5 147.142 543.9 148.343L543.8 148.643L543.6 149.043C543.5 149.344 543.4 149.744 543.3 150.044C543.2 150.445 543.1 150.745 543.1 151.145C542.7 154.449 543.9 157.752 546.5 159.954C547.7 161.155 548.8 162.356 549.8 163.758C550.1 164.258 550.5 164.659 550.8 165.059C554.2 169.263 557.6 173.567 561 177.771C567.8 186.279 574.7 194.788 581.5 203.396C582.4 204.597 600.2 229.321 608.1 229.321C608.2 229.321 608.2 229.321 608.3 229.321C608.5 229.321 608.7 229.221 608.9 229.221C612.1 228.42 614.8 225.517 616.2 221.514C617.6 218.01 619.3 208.401 609.3 195.989ZM608.8 228.42C608.7 228.42 608.6 228.52 608.4 228.52C608.3 228.52 608.2 228.52 608.2 228.52C605.1 228.52 600 223.916 595 218.511C590.9 214.106 586.9 209.001 584.1 205.298C583.5 204.397 582.9 203.696 582.4 202.996C575.6 194.487 568.7 185.979 561.9 177.371C558.5 173.167 555.1 168.863 551.7 164.659L550.7 163.357C549.7 161.956 548.6 160.655 547.3 159.454C544.4 157.051 543.4 153.147 544.7 149.644L544.9 149.244L545 148.943C545.2 148.543 545.3 148.143 545.5 147.742C545.6 147.342 545.7 146.941 545.8 146.641C546 146.041 546.1 145.44 546.1 144.739C546 143.138 545.7 141.636 545 140.135C544.3 138.733 544 137.032 544 135.43C544 135.23 544.1 135.13 544.1 135.03C544.2 134.93 544.2 134.93 544.3 134.93H544.4C544.8 134.93 545.2 135.13 545.5 135.33C546.5 136.131 547.3 137.232 547.9 138.333C548 138.433 548.1 138.533 548.2 138.633C548.4 138.633 548.5 138.633 548.6 138.533C552 135.23 554.9 131.526 557.2 127.423C557.8 126.422 558.3 125.921 558.8 126.021C559 126.021 559.1 126.121 559.2 126.321C559.3 126.522 559.4 126.722 559.5 126.922C559.6 127.222 559.6 127.623 559.6 127.923C559.6 128.123 559.6 128.223 559.5 128.423C559.3 129.725 558.6 131.026 557.9 132.227C557.6 132.628 557.3 133.028 557.1 133.528L556.7 134.029C556.6 134.229 556.5 134.629 556.3 135.03C555.5 138.433 555.4 147.542 556.4 148.543C557.1 149.344 560.4 152.146 565.4 156.551C577.9 167.461 601.2 187.681 608.6 196.89C618.3 209.001 616.6 218.21 615.5 221.614C614.2 225.017 611.7 227.72 608.8 228.42Z" fill="#231F20"/>
<path d="M465.7 203.297C472.5 194.788 479.4 186.28 486.2 177.672C489.6 173.468 493 169.164 496.4 164.96C497.7 163.058 499.2 161.356 500.8 159.755C503.8 157.152 504.5 153.749 503.8 149.745C503.2 146.942 501.9 144.039 502.9 141.337C503.4 140.136 504.4 139.135 504.8 137.933C505.2 136.732 504.8 134.931 503.5 134.73C502.6 134.63 501.7 135.131 501.3 135.932C500.7 136.732 500.3 137.833 499.5 138.134C496.7 133.329 495 128.324 492.7 123.319C492.5 122.719 492.1 122.118 491.6 121.618C491.1 121.117 490.3 120.917 489.7 121.217C489.1 121.518 488.7 122.218 488.7 122.919C488.7 123.62 488.8 124.22 489.1 124.921C490.2 128.725 491 132.528 491.7 136.332C492.2 138.734 493.8 141.937 491.7 144.139C489.1 146.942 448 183.077 438.8 196.49C427.3 213.206 431.6 227.32 438.8 229.122C445.9 230.723 465.7 203.297 465.7 203.297Z" fill="white"/>
<path d="M503.7 149.744C503.5 148.843 503.2 147.842 503 146.841C502.8 146.041 502.6 145.24 502.5 144.439C502.3 144.039 502.1 143.538 501.9 143.138C501.9 143.538 501.9 143.838 501.9 144.239C502 145.44 502.3 146.541 502.6 147.742C502.8 148.443 503 149.144 503.1 149.844C503.9 153.948 503 157.051 500.3 159.454C499 160.655 497.9 161.956 496.9 163.357L495.9 164.659C492.5 168.863 489.1 173.167 485.7 177.371C478.9 185.879 472 194.487 465.2 202.996C465 203.196 464.9 203.396 464.7 203.696C464.8 203.796 465 203.897 465.1 203.997C465.4 203.596 465.6 203.296 465.6 203.296C472.5 194.788 479.3 186.28 486.1 177.671C489.5 173.467 492.9 169.163 496.3 164.959C497.6 163.157 499.1 161.355 500.7 159.754C503.8 157.151 504.5 153.648 503.7 149.744ZM504.2 139.935C504.6 139.334 505 138.734 505.2 138.033C505.5 137.132 505.5 136.131 505 135.23C504.7 134.73 504.2 134.329 503.6 134.129C502.5 134.029 501.4 134.529 500.8 135.53C500.6 135.731 500.5 136.031 500.3 136.331C500.1 136.732 499.8 137.132 499.5 137.432C497.9 134.429 496.5 131.426 495.2 128.323C494.6 127.022 494.1 125.721 493.5 124.32C493.3 123.919 493.1 123.519 492.9 123.118C492.8 122.918 492.7 122.718 492.6 122.518C492.4 122.218 492.2 121.917 492 121.617C491.9 121.517 491.8 121.317 491.7 121.217C491.1 120.616 490.1 120.416 489.3 120.716C488.5 121.116 488 121.917 488 122.818C488 123.519 488.2 124.32 488.4 124.92C489.2 127.623 489.9 130.425 490.4 133.228C490.6 134.229 490.8 135.23 491 136.331C491.1 136.832 491.3 137.332 491.4 137.933C492 140.035 492.6 142.137 491.1 143.738C490.5 144.339 487.9 146.741 484.2 150.145C471.6 161.656 445.3 185.679 438.2 196.089C431.6 205.598 429.4 215.708 432.2 223.015C433.2 225.818 435 227.92 437.1 228.921C437.6 229.121 438 229.321 438.5 229.421C438.8 229.521 439 229.521 439.3 229.521C446.6 229.521 462.3 208.501 465.5 204.297C465.8 203.997 465.9 203.696 466 203.596C472.8 195.088 479.7 186.58 486.5 177.971C489.9 173.767 493.3 169.463 496.7 165.259C497.1 164.859 497.4 164.358 497.7 163.858C498.7 162.456 499.8 161.255 501 160.054C503.4 157.952 504.5 155.25 504.4 151.946C504.4 151.146 504.3 150.345 504.1 149.544C503.9 148.843 503.7 148.043 503.6 147.342C503.6 147.242 503.6 147.142 503.5 147.142C503.5 147.142 503.5 147.142 503.5 147.042C503.2 146.041 503 145.14 502.9 144.139C502.8 143.138 502.9 142.237 503.2 141.436C503.6 141.036 503.9 140.435 504.2 139.935ZM502.1 142.137C502 142.437 502 142.737 502 143.038C502 143.438 502 143.738 502 144.139C502.1 145.34 502.4 146.441 502.7 147.642C502.9 148.343 503.1 149.044 503.2 149.744C504 153.848 503.1 156.951 500.4 159.353C499.1 160.555 498 161.856 497 163.257L496 164.559C492.6 168.763 489.2 173.067 485.8 177.271C479 185.779 472.1 194.387 465.3 202.896C465.1 203.096 465 203.296 464.8 203.596C459 211.604 444.4 229.822 438.9 228.42C437.9 228.22 437 227.72 436.2 227.019C435 226.018 433.9 224.416 433.2 222.615C430.5 215.608 432.8 205.798 439.1 196.59C446.2 186.28 472.4 162.256 485 150.745C488.8 147.242 491.3 144.94 491.9 144.339C493.7 142.437 493 139.734 492.4 137.632C492.3 137.132 492.1 136.631 492 136.131C491.8 135.13 491.6 134.129 491.4 133.128C490.9 130.225 490.2 127.423 489.4 124.62C489.2 124.119 489.1 123.519 489 122.818C489 122.318 489.3 121.817 489.7 121.617C489.8 121.517 489.9 121.517 490.1 121.517C490.5 121.517 490.8 121.717 491.1 121.917C491.5 122.318 491.9 122.818 492.1 123.419C492.3 123.919 492.6 124.52 492.8 125.02C493.3 126.221 493.8 127.423 494.3 128.524C494.9 130.125 495.6 131.627 496.3 133.128C497.1 134.83 498 136.531 498.9 138.233C499 138.433 499.2 138.533 499.4 138.433H499.5C499.6 138.333 499.7 138.333 499.9 138.233C500.4 137.833 500.8 137.332 501.1 136.732C501.2 136.531 501.4 136.231 501.5 136.031C501.9 135.43 502.6 135.03 503.3 135.03C503.6 135.13 503.9 135.33 504.1 135.631C504.4 136.231 504.5 137.032 504.2 137.632C504 138.233 503.6 138.834 503.2 139.334C502.8 139.935 502.5 140.435 502.2 141.036C502.2 141.536 502.1 141.837 502.1 142.137Z" fill="#231F20"/>
<path d="M470.4 120.816L408.2 113.91C407.9 113.91 407.8 113.609 407.8 113.409C407.8 113.109 408 113.009 408.3 113.009L470.5 119.915C470.8 119.915 471 120.216 470.9 120.416C470.8 120.616 470.6 120.816 470.4 120.816Z" fill="#F0BE69"/>
<path d="M483.8 93.6905C483.7 93.6905 483.7 93.6905 483.6 93.6905L452.6 78.2756C452.4 78.1755 452.3 77.8752 452.4 77.675C452.5 77.4748 452.8 77.3747 453 77.4748L484 92.8897C484.2 92.9898 484.3 93.2901 484.2 93.4903C484.1 93.5904 483.9 93.6905 483.8 93.6905Z" fill="#F0BE69"/>
<path d="M620 166.861L573.1 145.14C572.9 145.04 572.8 144.739 572.9 144.539C573 144.339 573.3 144.239 573.5 144.339L620 165.96V166.861Z" fill="#F0BE69"/>
<path d="M620 111.207V112.208L573.3 117.413H573.2C573 117.413 572.8 117.213 572.7 117.013C572.7 116.712 572.9 116.512 573.1 116.512L620 111.207Z" fill="#F0BE69"/>
<path d="M567.3 96.7931C567.1 96.7931 567 96.693 566.9 96.4928C566.8 96.2926 566.9 95.9923 567.1 95.8922L598 80.5774C598.2 80.4773 598.5 80.5774 598.6 80.7775C598.7 80.9777 598.6 81.278 598.4 81.3781L567.5 96.693C567.5 96.693 567.4 96.7931 567.3 96.7931Z" fill="#F0BE69"/>
<path d="M452.3 128.524L453.9 131.828L457.5 132.328L454.9 134.931L455.5 138.534L452.3 136.832L449 138.534L449.7 134.931L447 132.328L450.7 131.828L452.3 128.524Z" fill="#F0BE69"/>
<path d="M609.3 176.771L609.8 178.873L612 179.673L610.1 180.874L610 183.177L608.2 181.775L606.1 182.376L606.9 180.274L605.6 178.372L607.9 178.572L609.3 176.771Z" fill="#F0BE69"/>
<path d="M436 90.4873L438.7 95.7924L444.5 96.6933L440.3 100.797L441.3 106.603L436 103.9L430.8 106.603L431.8 100.797L427.6 96.6933L433.4 95.7924L436 90.4873Z" fill="#F0BE69"/>
<path d="M597.9 93.5898L599.5 96.893L603.2 97.3935L600.5 99.8959L601.2 103.499L597.9 101.798L594.7 103.499L595.3 99.8959L592.7 97.3935L596.3 96.893L597.9 93.5898Z" fill="#F0BE69"/>
<path d="M605.8 242.435L606.7 246.539L610.7 248.14L607 250.242L606.7 254.446L603.6 251.643L599.5 252.644L601.2 248.841L598.9 245.237L603.1 245.638L605.8 242.435Z" fill="#F0BE69"/>
<path d="M491.5 77.2744L493.1 80.5776L496.7 81.0781L494.1 83.6806L494.7 87.2841L491.5 85.5825L488.3 87.2841L488.9 83.6806L486.3 81.0781L489.9 80.5776L491.5 77.2744Z" fill="#F0BE69"/>
<path d="M609.6 123.419L610.4 132.528L618.4 137.032L609.9 140.636L608.1 149.644L602.1 142.638L593 143.739L597.8 135.831L594 127.523L602.9 129.625L609.6 123.419Z" fill="#F0BE69"/>
<path d="M563.9 305.896C563.6 305.896 563.4 305.595 563.4 305.395L570.3 252.944C570.3 252.644 570.6 252.544 570.8 252.544C571.1 252.544 571.2 252.844 571.2 253.044L564.3 305.395C564.4 305.695 564.2 305.896 563.9 305.896Z" fill="#231F20"/>
<path d="M169.7 192.686C170.6 193.387 171.1 194.388 171.1 195.689C171.1 197.491 170.5 198.892 169.3 199.893C168.1 200.894 166.5 201.394 164.4 201.394H160.3L159.4 205.899H157.9L160.8 191.585H165.9C167.5 191.585 168.8 191.985 169.7 192.686ZM168.2 198.992C169.1 198.291 169.5 197.19 169.5 195.789C169.5 194.888 169.2 194.087 168.5 193.687C167.8 193.287 166.9 192.986 165.7 192.986H162L160.5 200.193H164.3C166 200.093 167.3 199.693 168.2 198.992Z" fill="#4E4C4D"/>
<path d="M176.7 195.589C177.4 195.289 178.3 195.089 179.3 195.089L179 196.49H178.6C177.4 196.49 176.5 196.791 175.7 197.491C175 198.192 174.5 199.193 174.2 200.494L173.1 205.999H171.6L173.7 195.189H175.1L174.7 197.191C175.4 196.49 176 195.89 176.7 195.589Z" fill="#4E4C4D"/>
<path d="M181.6 205.499C180.9 205.099 180.3 204.598 179.9 203.897C179.5 203.197 179.3 202.396 179.3 201.495C179.3 200.294 179.6 199.193 180.1 198.192C180.6 197.191 181.4 196.49 182.3 195.89C183.2 195.289 184.3 195.089 185.5 195.089C187 195.089 188.2 195.489 189.1 196.29C190 197.091 190.4 198.192 190.4 199.593C190.4 200.794 190.1 201.895 189.6 202.896C189.1 203.897 188.3 204.598 187.4 205.199C186.5 205.799 185.4 205.999 184.2 205.999C183.2 206.1 182.3 205.899 181.6 205.499ZM186.7 204.098C187.4 203.697 188 203.097 188.4 202.296C188.8 201.495 189 200.694 189 199.693C189 198.592 188.7 197.791 188.1 197.191C187.5 196.59 186.6 196.29 185.5 196.29C184.6 196.29 183.8 196.49 183.1 196.991C182.4 197.391 181.8 197.992 181.4 198.792C181 199.593 180.8 200.394 180.8 201.395C180.8 202.496 181.1 203.297 181.7 203.897C182.3 204.498 183.2 204.798 184.3 204.798C185.2 204.798 186 204.498 186.7 204.098Z" fill="#4E4C4D"/>
<path d="M204.3 195.188L202.4 204.698C202 206.6 201.3 208.001 200.3 208.802C199.3 209.602 197.9 210.103 196.1 210.103C195.1 210.103 194.2 210.003 193.4 209.703C192.6 209.402 191.9 209.002 191.3 208.501L192.2 207.4C192.6 207.901 193.2 208.201 193.9 208.501C194.6 208.802 195.4 208.902 196.2 208.902C197.6 208.902 198.6 208.601 199.4 208.001C200.2 207.4 200.7 206.399 200.9 205.098L201.1 203.897C200.6 204.497 200 204.898 199.2 205.298C198.5 205.599 197.7 205.799 196.8 205.799C195.4 205.799 194.2 205.398 193.4 204.598C192.5 203.797 192.1 202.796 192.1 201.394C192.1 200.293 192.4 199.192 192.9 198.291C193.4 197.391 194.2 196.59 195.1 196.089C196 195.589 197.1 195.289 198.3 195.289C199.3 195.289 200.2 195.489 200.9 195.889C201.6 196.29 202.2 196.89 202.5 197.691L202.9 195.289H204.3V195.188ZM199.5 203.597C200.2 203.196 200.8 202.596 201.2 201.895C201.6 201.194 201.8 200.394 201.8 199.493C201.8 198.492 201.5 197.691 200.9 197.19C200.3 196.59 199.4 196.39 198.3 196.39C197.4 196.39 196.6 196.59 195.9 196.99C195.2 197.391 194.6 197.991 194.2 198.692C193.8 199.393 193.6 200.193 193.6 201.094C193.6 202.095 193.9 202.896 194.5 203.396C195.1 203.997 196 204.197 197.1 204.197C198 204.297 198.8 203.997 199.5 203.597Z" fill="#4E4C4D"/>
<path d="M210.6 195.589C211.3 195.289 212.2 195.089 213.2 195.089L212.9 196.49H212.5C211.3 196.49 210.4 196.791 209.6 197.491C208.9 198.192 208.4 199.193 208.1 200.494L207 205.999H205.5L207.6 195.189H209L208.6 197.191C209.3 196.49 209.9 195.89 210.6 195.589Z" fill="#4E4C4D"/>
<path d="M225.3 195.189L223.2 205.999H221.8L222.1 204.298C221.6 204.898 221 205.299 220.3 205.599C219.6 205.899 218.8 206.1 217.9 206.1C217 206.1 216.2 205.899 215.5 205.499C214.8 205.099 214.2 204.598 213.8 203.897C213.4 203.197 213.2 202.396 213.2 201.495C213.2 200.294 213.5 199.193 214 198.192C214.5 197.191 215.3 196.49 216.2 195.89C217.1 195.289 218.2 195.089 219.3 195.089C220.3 195.089 221.2 195.289 221.9 195.689C222.6 196.09 223.1 196.69 223.4 197.391L223.9 195.089H225.3V195.189ZM220.6 204.098C221.3 203.697 221.9 203.097 222.3 202.296C222.7 201.495 222.9 200.694 222.9 199.693C222.9 198.592 222.6 197.791 222 197.191C221.4 196.59 220.5 196.29 219.4 196.29C218.5 196.29 217.7 196.49 217 196.991C216.3 197.391 215.7 197.992 215.3 198.792C214.9 199.593 214.7 200.394 214.7 201.395C214.7 202.496 215 203.297 215.6 203.897C216.2 204.498 217.1 204.798 218.2 204.798C219.1 204.798 219.9 204.498 220.6 204.098Z" fill="#4E4C4D"/>
<path d="M244.9 195.99C245.6 196.59 245.9 197.491 245.9 198.492C245.9 198.792 245.9 199.193 245.8 199.793L244.6 205.899H243L244.2 199.793C244.3 199.493 244.3 199.193 244.3 198.792C244.3 197.992 244.1 197.391 243.6 196.991C243.1 196.59 242.5 196.39 241.6 196.39C240.5 196.39 239.6 196.69 238.9 197.291C238.2 197.892 237.7 198.792 237.4 199.994L236.2 205.899H234.7L235.9 199.793C236 199.393 236 199.093 236 198.792C236 197.992 235.8 197.391 235.3 196.991C234.9 196.59 234.2 196.39 233.3 196.39C232.2 196.39 231.3 196.69 230.6 197.391C229.9 197.992 229.4 198.993 229.1 200.194L228 205.999H226.5L228.6 195.189H230L229.7 196.891C230.7 195.689 232 195.089 233.8 195.089C234.7 195.089 235.5 195.289 236.1 195.689C236.7 196.09 237.1 196.59 237.4 197.291C237.9 196.59 238.6 196.09 239.4 195.689C240.2 195.289 241 195.189 242 195.189C243.3 195.089 244.2 195.389 244.9 195.99Z" fill="#4E4C4D"/>
<path d="M260 195.189L257.9 205.999H256.5L256.8 204.298C256.3 204.898 255.7 205.299 255 205.599C254.3 205.899 253.5 206.1 252.6 206.1C251.7 206.1 250.9 205.899 250.2 205.499C249.5 205.099 248.9 204.598 248.5 203.897C248.1 203.197 247.9 202.396 247.9 201.495C247.9 200.294 248.2 199.193 248.7 198.192C249.2 197.191 250 196.49 250.9 195.89C251.8 195.289 252.9 195.089 254 195.089C255 195.089 255.9 195.289 256.6 195.689C257.3 196.09 257.8 196.69 258.1 197.391L258.6 195.089H260V195.189ZM255.4 204.098C256.1 203.697 256.7 203.097 257.1 202.296C257.5 201.495 257.7 200.694 257.7 199.693C257.7 198.592 257.4 197.791 256.8 197.191C256.2 196.59 255.3 196.29 254.2 196.29C253.3 196.29 252.5 196.49 251.8 196.991C251.1 197.491 250.5 197.992 250.1 198.792C249.7 199.593 249.5 200.394 249.5 201.395C249.5 202.496 249.8 203.297 250.4 203.897C251 204.498 251.9 204.798 253 204.798C253.8 204.798 254.6 204.498 255.4 204.098Z" fill="#4E4C4D"/>
<path d="M268.7 200.994C268.7 201.094 268.7 201.194 268.7 201.394C268.7 202.496 269 203.296 269.6 203.897C270.2 204.497 271.1 204.798 272.4 204.798C273.1 204.798 273.8 204.698 274.4 204.397C275 204.197 275.5 203.797 275.9 203.396L276.6 204.397C276.1 204.898 275.5 205.298 274.7 205.599C273.9 205.899 273.1 205.999 272.3 205.999C270.7 205.999 269.5 205.599 268.6 204.798C267.7 203.997 267.3 202.896 267.3 201.394C267.3 200.193 267.6 199.092 268.1 198.091C268.6 197.09 269.3 196.39 270.2 195.789C271.1 195.188 272.1 194.988 273.3 194.988C274.7 194.988 275.9 195.389 276.7 196.189C277.5 196.99 278 198.091 278 199.493C278 199.893 278 200.293 277.9 200.794H268.7V200.994ZM270.4 197.291C269.6 197.891 269.1 198.792 268.8 199.893H276.5C276.5 199.793 276.5 199.693 276.5 199.493C276.5 198.492 276.2 197.691 275.6 197.19C275 196.59 274.2 196.39 273.1 196.39C272 196.29 271.1 196.69 270.4 197.291Z" fill="#4E4C4D"/>
<path d="M280.2 205.699C279.4 205.498 278.8 205.098 278.4 204.798L279.1 203.697C279.5 204.097 280 204.297 280.7 204.598C281.4 204.798 282.1 204.898 282.8 204.898C283.8 204.898 284.6 204.698 285.2 204.397C285.8 204.097 286 203.597 286 202.996C286 202.696 285.9 202.395 285.7 202.195C285.5 201.995 285.2 201.795 284.9 201.695C284.6 201.595 284.1 201.495 283.5 201.294C282.7 201.094 282.1 200.994 281.7 200.794C281.2 200.594 280.8 200.394 280.5 199.993C280.2 199.593 280 199.192 280 198.492C280 197.491 280.4 196.69 281.3 196.089C282.1 195.489 283.3 195.188 284.7 195.188C285.4 195.188 286.1 195.289 286.7 195.489C287.4 195.689 287.9 195.889 288.3 196.189L287.7 197.391C287.3 197.09 286.8 196.89 286.3 196.69C285.7 196.49 285.2 196.49 284.6 196.49C283.6 196.49 282.9 196.69 282.3 196.99C281.7 197.291 281.5 197.791 281.5 198.392C281.5 198.792 281.6 198.992 281.8 199.292C282 199.493 282.3 199.693 282.7 199.793C283 199.893 283.5 199.993 284.1 200.093C284.8 200.293 285.4 200.394 285.9 200.594C286.4 200.794 286.7 200.994 287.1 201.394C287.4 201.795 287.6 202.195 287.6 202.796C287.6 203.897 287.2 204.698 286.3 205.298C285.4 205.899 284.3 206.199 282.8 206.199C281.9 206.099 281 205.899 280.2 205.699Z" fill="#4E4C4D"/>
<path d="M299.1 195.689C299.8 196.09 300.4 196.59 300.8 197.291C301.2 197.992 301.4 198.792 301.4 199.693C301.4 200.894 301.1 201.996 300.6 202.997C300.1 203.998 299.3 204.698 298.4 205.299C297.5 205.899 296.4 206.1 295.3 206.1C294.3 206.1 293.4 205.899 292.7 205.499C292 205.099 291.5 204.498 291.2 203.697L290 209.903H288.5L291.4 195.189H292.8L292.5 196.891C293 196.29 293.6 195.89 294.3 195.589C295 195.289 295.8 195.089 296.7 195.089C297.5 195.089 298.4 195.289 299.1 195.689ZM297.6 204.098C298.3 203.697 298.9 203.097 299.3 202.296C299.7 201.495 299.9 200.694 299.9 199.693C299.9 198.592 299.6 197.791 299 197.191C298.4 196.59 297.5 196.29 296.4 196.29C295.5 196.29 294.7 196.49 294 196.891C293.3 197.291 292.7 197.892 292.3 198.692C291.9 199.493 291.7 200.294 291.7 201.295C291.7 202.396 292 203.197 292.6 203.797C293.2 204.398 294.1 204.698 295.2 204.698C296.1 204.798 296.9 204.498 297.6 204.098Z" fill="#4E4C4D"/>
<path d="M304.5 200.994C304.5 201.094 304.5 201.194 304.5 201.394C304.5 202.496 304.8 203.296 305.4 203.897C306 204.497 306.9 204.798 308.2 204.798C308.9 204.798 309.6 204.698 310.2 204.397C310.8 204.197 311.3 203.797 311.7 203.396L312.4 204.397C311.9 204.898 311.3 205.298 310.5 205.599C309.7 205.899 308.9 205.999 308.1 205.999C306.5 205.999 305.3 205.599 304.4 204.798C303.5 203.997 303.1 202.896 303.1 201.394C303.1 200.193 303.4 199.092 303.9 198.091C304.4 197.09 305.1 196.39 306 195.789C306.9 195.188 307.9 194.988 309.1 194.988C310.5 194.988 311.7 195.389 312.5 196.189C313.3 196.99 313.8 198.091 313.8 199.493C313.8 199.893 313.8 200.293 313.7 200.794H304.5V200.994ZM306.2 197.291C305.4 197.891 304.9 198.792 304.6 199.893H312.3C312.3 199.793 312.3 199.693 312.3 199.493C312.3 198.492 312 197.691 311.4 197.19C310.8 196.59 310 196.39 308.9 196.39C307.9 196.29 307 196.69 306.2 197.291Z" fill="#4E4C4D"/>
<path d="M317.6 205.499C316.8 205.099 316.3 204.598 315.9 203.897C315.5 203.197 315.3 202.396 315.3 201.495C315.3 200.294 315.6 199.193 316.1 198.192C316.6 197.191 317.4 196.49 318.3 195.89C319.2 195.289 320.3 195.089 321.5 195.089C322.5 195.089 323.4 195.289 324.1 195.589C324.8 195.99 325.4 196.49 325.8 197.191L324.6 197.892C324 196.791 322.9 196.29 321.5 196.29C320.6 196.29 319.8 196.49 319.1 196.991C318.4 197.391 317.8 197.992 317.4 198.792C317 199.593 316.8 200.394 316.8 201.395C316.8 202.496 317.1 203.297 317.7 203.897C318.3 204.498 319.2 204.798 320.4 204.798C321.1 204.798 321.7 204.698 322.3 204.398C322.9 204.098 323.4 203.697 323.8 203.197L324.8 203.998C324.3 204.598 323.7 205.099 322.9 205.499C322.1 205.899 321.2 205.999 320.3 205.999C319.3 206.1 318.4 205.899 317.6 205.499Z" fill="#4E4C4D"/>
<path d="M328.7 195.189H330.2L328.1 205.999H326.6L328.7 195.189ZM329.4 192.486C329.2 192.286 329.1 192.086 329.1 191.786C329.1 191.485 329.2 191.185 329.4 190.985C329.6 190.785 329.9 190.685 330.2 190.685C330.5 190.685 330.7 190.785 330.9 190.985C331.1 191.185 331.2 191.385 331.2 191.585C331.2 191.886 331.1 192.186 330.9 192.386C330.7 192.586 330.4 192.687 330.1 192.687C329.8 192.787 329.6 192.687 329.4 192.486Z" fill="#4E4C4D"/>
<path d="M343.8 195.189L341.7 205.999H340.3L340.6 204.298C340.1 204.898 339.5 205.299 338.8 205.599C338.1 205.899 337.3 206.1 336.4 206.1C335.5 206.1 334.7 205.899 334 205.499C333.3 205.099 332.7 204.598 332.3 203.897C331.9 203.197 331.7 202.396 331.7 201.495C331.7 200.294 332 199.193 332.5 198.192C333 197.191 333.8 196.49 334.7 195.89C335.6 195.289 336.7 195.089 337.8 195.089C338.8 195.089 339.7 195.289 340.4 195.689C341.1 196.09 341.6 196.69 341.9 197.391L342.4 195.089H343.8V195.189ZM339.1 204.098C339.8 203.697 340.4 203.097 340.8 202.296C341.2 201.495 341.4 200.694 341.4 199.693C341.4 198.592 341.1 197.791 340.5 197.191C339.9 196.59 339 196.29 337.9 196.29C337 196.29 336.2 196.49 335.5 196.991C334.8 197.391 334.2 197.992 333.8 198.792C333.4 199.593 333.2 200.394 333.2 201.395C333.2 202.496 333.5 203.297 334.1 203.897C334.7 204.498 335.6 204.798 336.7 204.798C337.6 204.798 338.4 204.498 339.1 204.098Z" fill="#4E4C4D"/>
<path d="M348.2 190.784H349.7L346.7 205.999H345.2L348.2 190.784Z" fill="#4E4C4D"/>
<path d="M352.3 195.189H353.8L351.7 205.999H350.2L352.3 195.189ZM353 192.486C352.8 192.286 352.7 192.086 352.7 191.786C352.7 191.485 352.8 191.185 353 190.985C353.2 190.785 353.5 190.685 353.8 190.685C354.1 190.685 354.3 190.785 354.5 190.985C354.7 191.185 354.8 191.385 354.8 191.585C354.8 191.886 354.7 192.186 354.5 192.386C354.3 192.586 354 192.687 353.7 192.687C353.4 192.787 353.2 192.687 353 192.486Z" fill="#4E4C4D"/>
<path d="M364.5 196.09L356.1 204.698H362.9L362.7 205.899H353.9L354.1 204.898L362.5 196.29H356L356.2 195.089H364.7L364.5 196.09Z" fill="#4E4C4D"/>
<path d="M376.8 195.189L374.7 205.999H373.3L373.6 204.298C373.1 204.898 372.5 205.299 371.8 205.599C371.1 205.899 370.3 206.1 369.4 206.1C368.5 206.1 367.7 205.899 367 205.499C366.3 205.099 365.7 204.598 365.3 203.897C364.9 203.197 364.7 202.396 364.7 201.495C364.7 200.294 365 199.193 365.5 198.192C366 197.191 366.8 196.49 367.7 195.89C368.6 195.289 369.7 195.089 370.8 195.089C371.8 195.089 372.7 195.289 373.4 195.689C374.1 196.09 374.6 196.69 374.9 197.391L375.4 195.089H376.8V195.189ZM372.2 204.098C372.9 203.697 373.5 203.097 373.9 202.296C374.3 201.495 374.5 200.694 374.5 199.693C374.5 198.592 374.2 197.791 373.6 197.191C373 196.59 372.1 196.29 371 196.29C370.1 196.29 369.3 196.49 368.6 196.991C367.9 197.491 367.3 197.992 366.9 198.792C366.5 199.593 366.3 200.394 366.3 201.395C366.3 202.496 366.6 203.297 367.2 203.897C367.8 204.498 368.7 204.798 369.8 204.798C370.7 204.798 371.5 204.498 372.2 204.098Z" fill="#4E4C4D"/>
<path d="M391.3 190.785L388.3 205.999H386.9L387.2 204.298C386.7 204.898 386.1 205.299 385.4 205.599C384.7 205.899 383.9 206.099 383 206.099C382.1 206.099 381.3 205.899 380.6 205.499C379.9 205.099 379.3 204.598 378.9 203.897C378.5 203.197 378.3 202.396 378.3 201.495C378.3 200.294 378.6 199.193 379.1 198.192C379.6 197.191 380.4 196.49 381.3 195.89C382.2 195.289 383.3 195.089 384.4 195.089C385.4 195.089 386.3 195.289 387 195.689C387.7 196.09 388.2 196.69 388.5 197.391L389.8 190.685H391.3V190.785ZM385.7 204.098C386.4 203.697 387 203.097 387.4 202.296C387.8 201.495 388 200.694 388 199.693C388 198.592 387.7 197.791 387.1 197.191C386.5 196.59 385.6 196.29 384.5 196.29C383.6 196.29 382.8 196.49 382.1 196.991C381.4 197.391 380.8 197.992 380.4 198.792C380 199.593 379.8 200.394 379.8 201.395C379.8 202.496 380.1 203.297 380.7 203.897C381.3 204.498 382.2 204.798 383.3 204.798C384.2 204.798 385 204.498 385.7 204.098Z" fill="#4E4C4D"/>
<path d="M394.1 205.499C393.4 205.099 392.8 204.598 392.4 203.897C392 203.197 391.8 202.396 391.8 201.495C391.8 200.294 392.1 199.193 392.6 198.192C393.1 197.191 393.9 196.49 394.8 195.89C395.7 195.289 396.8 195.089 398 195.089C399.5 195.089 400.7 195.489 401.6 196.29C402.5 197.091 402.9 198.192 402.9 199.593C402.9 200.794 402.6 201.895 402.1 202.896C401.6 203.897 400.8 204.598 399.9 205.199C399 205.799 397.9 205.999 396.7 205.999C395.7 206.1 394.9 205.899 394.1 205.499ZM399.2 204.098C399.9 203.697 400.5 203.097 400.9 202.296C401.3 201.495 401.5 200.694 401.5 199.693C401.5 198.592 401.2 197.791 400.6 197.191C400 196.59 399.1 196.29 398 196.29C397.1 196.29 396.3 196.49 395.6 196.991C394.9 197.391 394.3 197.992 393.9 198.792C393.5 199.593 393.3 200.394 393.3 201.395C393.3 202.496 393.6 203.297 394.2 203.897C394.8 204.498 395.7 204.798 396.8 204.798C397.7 204.798 398.5 204.498 399.2 204.098Z" fill="#4E4C4D"/>
<path d="M419.9 195.689C420.6 196.09 421.2 196.59 421.6 197.291C422 197.992 422.2 198.792 422.2 199.693C422.2 200.894 421.9 201.996 421.4 202.997C420.9 203.998 420.1 204.698 419.2 205.299C418.3 205.899 417.2 206.1 416.1 206.1C415.1 206.1 414.2 205.899 413.5 205.499C412.8 205.099 412.3 204.498 412 203.697L410.8 209.903H409.3L412.2 195.189H413.6L413.3 196.891C413.8 196.29 414.4 195.89 415.1 195.589C415.8 195.289 416.6 195.089 417.5 195.089C418.4 195.089 419.2 195.289 419.9 195.689ZM418.4 204.098C419.1 203.697 419.7 203.097 420.1 202.296C420.5 201.495 420.7 200.694 420.7 199.693C420.7 198.592 420.4 197.791 419.8 197.191C419.2 196.59 418.3 196.29 417.2 196.29C416.3 196.29 415.5 196.49 414.8 196.891C414.1 197.291 413.5 197.892 413.1 198.692C412.7 199.493 412.5 200.294 412.5 201.295C412.5 202.396 412.8 203.197 413.4 203.797C414 204.398 414.9 204.698 416 204.698C416.9 204.798 417.7 204.498 418.4 204.098Z" fill="#4E4C4D"/>
<path d="M436 195.189L433.9 205.999H432.5L432.8 204.298C432.3 204.898 431.7 205.299 431 205.599C430.3 205.899 429.5 206.1 428.6 206.1C427.7 206.1 426.9 205.899 426.2 205.499C425.5 205.099 424.9 204.598 424.5 203.897C424.1 203.197 423.9 202.396 423.9 201.495C423.9 200.294 424.2 199.193 424.7 198.192C425.2 197.191 426 196.49 426.9 195.89C427.8 195.289 428.9 195.089 430 195.089C431 195.089 431.9 195.289 432.6 195.689C433.3 196.09 433.8 196.69 434.1 197.391L434.6 195.089H436V195.189ZM431.3 204.098C432 203.697 432.6 203.097 433 202.296C433.4 201.495 433.6 200.694 433.6 199.693C433.6 198.592 433.3 197.791 432.7 197.191C432.1 196.59 431.2 196.29 430.1 196.29C429.2 196.29 428.4 196.49 427.7 196.991C427 197.391 426.4 197.992 426 198.792C425.6 199.593 425.4 200.394 425.4 201.395C425.4 202.496 425.7 203.297 426.3 203.897C426.9 204.498 427.8 204.798 428.9 204.798C429.8 204.798 430.6 204.498 431.3 204.098Z" fill="#4E4C4D"/>
<path d="M442.4 195.589C443.1 195.289 444 195.089 445 195.089L444.7 196.49H444.3C443.1 196.49 442.2 196.791 441.4 197.491C440.7 198.192 440.2 199.193 439.9 200.494L438.8 205.999H437.3L439.4 195.189H440.8L440.4 197.191C441 196.49 441.6 195.89 442.4 195.589Z" fill="#4E4C4D"/>
<path d="M457.1 195.189L454.9 205.999H453.5L453.8 204.298C453.3 204.898 452.7 205.299 452 205.599C451.3 205.899 450.5 206.1 449.6 206.1C448.7 206.1 447.9 205.899 447.2 205.499C446.5 205.099 445.9 204.598 445.5 203.897C445.1 203.197 444.9 202.396 444.9 201.495C444.9 200.294 445.2 199.193 445.7 198.192C446.2 197.191 447 196.49 447.9 195.89C448.8 195.289 449.9 195.089 451 195.089C452 195.089 452.9 195.289 453.6 195.689C454.3 196.09 454.8 196.69 455.1 197.391L455.6 195.089H457.1V195.189ZM452.4 204.098C453.1 203.697 453.7 203.097 454.1 202.296C454.5 201.495 454.7 200.694 454.7 199.693C454.7 198.592 454.4 197.791 453.8 197.191C453.2 196.59 452.3 196.29 451.2 196.29C450.3 196.29 449.5 196.49 448.8 196.991C448.1 197.391 447.5 197.992 447.1 198.792C446.7 199.593 446.5 200.394 446.5 201.395C446.5 202.496 446.8 203.297 447.4 203.897C448 204.498 448.9 204.798 450 204.798C450.9 204.798 451.7 204.498 452.4 204.098Z" fill="#4E4C4D"/>
<path d="M204 220.614C204.7 221.214 205 222.115 205 223.116C205 223.416 205 223.817 204.9 224.417L203.7 230.523H202.2L203.4 224.417C203.5 224.117 203.5 223.817 203.5 223.416C203.5 222.616 203.3 222.015 202.8 221.615C202.3 221.214 201.7 221.014 200.8 221.014C199.7 221.014 198.8 221.314 198.1 221.915C197.4 222.516 196.9 223.416 196.6 224.618L195.4 230.523H193.9L195.1 224.417C195.2 224.017 195.2 223.717 195.2 223.416C195.2 222.616 195 222.015 194.5 221.615C194.1 221.214 193.4 221.014 192.5 221.014C191.4 221.014 190.5 221.314 189.8 222.015C189.1 222.616 188.6 223.617 188.3 224.818L187.2 230.623H185.7L187.8 219.813H189.2L188.9 221.515C189.9 220.313 191.2 219.713 193 219.713C193.9 219.713 194.7 219.913 195.3 220.313C195.9 220.714 196.3 221.214 196.6 221.915C197.1 221.214 197.8 220.714 198.6 220.313C199.4 219.913 200.2 219.813 201.2 219.813C202.4 219.713 203.4 220.013 204 220.614Z" fill="#4E4C4D"/>
<path d="M218.8 219.713L216.7 230.523H215.3L215.6 228.822C214.6 230.023 213.2 230.623 211.4 230.623C210.2 230.623 209.3 230.323 208.6 229.723C207.9 229.122 207.6 228.221 207.6 227.12C207.6 226.72 207.6 226.319 207.7 225.919L208.9 219.813H210.4L209.2 225.919C209.1 226.319 209.1 226.62 209.1 226.92C209.1 227.721 209.3 228.321 209.8 228.722C210.3 229.122 210.9 229.322 211.9 229.322C213 229.322 214 229.022 214.7 228.321C215.5 227.721 216 226.72 216.2 225.519L217.3 219.713H218.8Z" fill="#4E4C4D"/>
<path d="M216.7 234.427C216.3 234.327 216 234.127 215.7 233.927L216.4 232.826C216.8 233.226 217.3 233.426 218 233.426C218.6 233.426 219.1 233.226 219.4 232.926C219.8 232.625 220 232.125 220.1 231.324L222.4 219.813H223.9L221.6 231.424C221.2 233.626 220 234.727 218 234.727C217.5 234.627 217.1 234.527 216.7 234.427ZM223.1 217.11C222.9 216.91 222.8 216.71 222.8 216.41C222.8 216.109 222.9 215.809 223.1 215.609C223.3 215.409 223.6 215.309 223.9 215.309C224.2 215.309 224.4 215.409 224.6 215.609C224.8 215.809 224.9 216.009 224.9 216.209C224.9 216.51 224.8 216.81 224.6 217.01C224.4 217.21 224.1 217.311 223.8 217.311C223.5 217.411 223.3 217.311 223.1 217.11Z" fill="#4E4C4D"/>
<path d="M226.9 225.519C226.9 225.619 226.9 225.719 226.9 225.919C226.9 227.02 227.2 227.821 227.8 228.421C228.4 229.022 229.3 229.322 230.6 229.322C231.3 229.322 232 229.222 232.6 228.922C233.2 228.722 233.7 228.321 234.1 227.921L234.8 228.922C234.3 229.422 233.7 229.823 232.9 230.123C232.1 230.423 231.3 230.523 230.5 230.523C228.9 230.523 227.7 230.123 226.8 229.322C225.9 228.521 225.5 227.42 225.5 225.919C225.5 224.718 225.8 223.617 226.3 222.616C226.8 221.615 227.5 220.914 228.4 220.313C229.3 219.713 230.3 219.513 231.5 219.513C232.9 219.513 234.1 219.913 234.9 220.714C235.7 221.515 236.2 222.616 236.2 224.017C236.2 224.417 236.2 224.818 236.1 225.318H226.9V225.519ZM228.6 221.915C227.8 222.516 227.3 223.416 227 224.518H234.7C234.7 224.417 234.7 224.317 234.7 224.117C234.7 223.116 234.4 222.315 233.8 221.815C233.2 221.214 232.4 221.014 231.3 221.014C230.3 220.914 229.3 221.214 228.6 221.915Z" fill="#4E4C4D"/>
<path d="M242.5 220.213C243.2 219.913 244.1 219.713 245.1 219.713L244.8 221.114H244.4C243.2 221.114 242.3 221.415 241.5 222.115C240.8 222.816 240.3 223.817 240 225.118L238.9 230.623H237.4L239.5 219.813H240.9L240.5 221.815C241.2 221.014 241.8 220.514 242.5 220.213Z" fill="#4E4C4D"/>
<path d="M246.6 225.519C246.6 225.619 246.6 225.719 246.6 225.919C246.6 227.02 246.9 227.821 247.5 228.421C248.1 229.022 249 229.322 250.3 229.322C251 229.322 251.7 229.222 252.3 228.922C252.9 228.722 253.4 228.321 253.8 227.921L254.5 228.922C254 229.422 253.4 229.823 252.6 230.123C251.8 230.423 251 230.523 250.2 230.523C248.6 230.523 247.4 230.123 246.5 229.322C245.6 228.521 245.2 227.42 245.2 225.919C245.2 224.718 245.5 223.617 246 222.616C246.5 221.615 247.2 220.914 248.1 220.313C249 219.713 250 219.513 251.2 219.513C252.6 219.513 253.8 219.913 254.6 220.714C255.4 221.515 255.9 222.616 255.9 224.017C255.9 224.417 255.9 224.818 255.8 225.318H246.6V225.519ZM248.3 221.915C247.5 222.516 247 223.416 246.7 224.518H254.4C254.4 224.417 254.4 224.317 254.4 224.117C254.4 223.116 254.1 222.315 253.5 221.815C252.9 221.214 252.1 221.014 251 221.014C250 220.914 249.1 221.214 248.3 221.915Z" fill="#4E4C4D"/>
<path d="M258.2 230.223C257.4 230.023 256.8 229.622 256.4 229.322L257.1 228.221C257.5 228.622 258 228.822 258.7 229.122C259.4 229.322 260.1 229.422 260.8 229.422C261.8 229.422 262.6 229.222 263.2 228.922C263.8 228.622 264 228.121 264 227.52C264 227.22 263.9 226.92 263.7 226.72C263.5 226.519 263.2 226.319 262.9 226.219C262.6 226.119 262.1 226.019 261.5 225.819C260.7 225.619 260.1 225.519 259.7 225.318C259.2 225.118 258.8 224.918 258.5 224.518C258.2 224.117 258 223.717 258 223.016C258 222.015 258.4 221.214 259.3 220.614C260.1 220.013 261.3 219.713 262.7 219.713C263.4 219.713 264.1 219.813 264.7 220.013C265.4 220.213 265.9 220.414 266.3 220.714L265.7 221.915C265.3 221.615 264.8 221.415 264.3 221.214C263.7 221.014 263.2 221.014 262.6 221.014C261.6 221.014 260.9 221.214 260.3 221.515C259.8 221.915 259.5 222.315 259.5 222.916C259.5 223.316 259.6 223.517 259.8 223.817C260 224.017 260.3 224.217 260.7 224.317C261 224.417 261.5 224.518 262.1 224.618C262.8 224.818 263.4 224.918 263.9 225.118C264.4 225.318 264.7 225.519 265.1 225.919C265.4 226.319 265.6 226.72 265.6 227.32C265.6 228.421 265.2 229.222 264.3 229.823C263.4 230.423 262.3 230.724 260.8 230.724C259.8 230.623 259 230.523 258.2 230.223Z" fill="#4E4C4D"/>
<path d="M274.2 225.519C274.2 225.619 274.2 225.719 274.2 225.919C274.2 227.02 274.5 227.821 275.1 228.421C275.7 229.022 276.6 229.322 277.9 229.322C278.6 229.322 279.3 229.222 279.9 228.922C280.5 228.722 281 228.321 281.4 227.921L282.1 228.922C281.6 229.422 281 229.823 280.2 230.123C279.4 230.423 278.6 230.523 277.8 230.523C276.2 230.523 275 230.123 274.1 229.322C273.2 228.521 272.8 227.42 272.8 225.919C272.8 224.718 273.1 223.617 273.6 222.616C274.1 221.615 274.8 220.914 275.7 220.313C276.6 219.713 277.6 219.513 278.8 219.513C280.2 219.513 281.4 219.913 282.2 220.714C283 221.515 283.5 222.616 283.5 224.017C283.5 224.417 283.5 224.818 283.4 225.318H274.2V225.519ZM275.9 221.915C275.1 222.516 274.6 223.416 274.3 224.518H282C282 224.417 282 224.317 282 224.117C282 223.116 281.7 222.315 281.1 221.815C280.5 221.314 279.7 221.014 278.6 221.014C277.6 220.914 276.7 221.214 275.9 221.915Z" fill="#4E4C4D"/>
<path d="M303 220.614C303.7 221.214 304 222.115 304 223.116C304 223.416 304 223.817 303.9 224.417L302.7 230.523H301.2L302.4 224.417C302.5 224.117 302.5 223.817 302.5 223.416C302.5 222.616 302.3 222.015 301.8 221.615C301.3 221.214 300.7 221.014 299.8 221.014C298.7 221.014 297.8 221.314 297.1 221.915C296.4 222.516 295.9 223.416 295.6 224.618L294.4 230.523H292.9L294.1 224.417C294.2 224.017 294.2 223.717 294.2 223.416C294.2 222.616 294 222.015 293.5 221.615C293.1 221.214 292.4 221.014 291.5 221.014C290.4 221.014 289.5 221.314 288.8 222.015C288.1 222.616 287.6 223.617 287.3 224.818L286.2 230.623H284.7L286.8 219.813H288.2L287.9 221.515C288.9 220.313 290.2 219.713 292 219.713C292.9 219.713 293.7 219.913 294.3 220.313C294.9 220.714 295.3 221.214 295.6 221.915C296.1 221.214 296.8 220.714 297.6 220.313C298.4 219.913 299.2 219.813 300.2 219.813C301.4 219.713 302.4 220.013 303 220.614Z" fill="#4E4C4D"/>
<path d="M315.8 220.213C316.5 220.613 317.1 221.114 317.5 221.814C317.9 222.515 318.1 223.316 318.1 224.217C318.1 225.418 317.8 226.519 317.3 227.52C316.8 228.521 316 229.222 315.1 229.822C314.2 230.423 313.1 230.623 312 230.623C311 230.623 310.1 230.423 309.4 230.022C308.7 229.622 308.2 229.021 307.9 228.221L306.7 234.427H305.2L308.1 219.712H309.5L309.2 221.414C309.7 220.813 310.3 220.413 311 220.113C311.7 219.812 312.5 219.612 313.4 219.612C314.3 219.712 315.1 219.813 315.8 220.213ZM314.4 228.721C315.1 228.321 315.7 227.72 316.1 226.919C316.5 226.119 316.7 225.318 316.7 224.317C316.7 223.216 316.4 222.415 315.8 221.814C315.2 221.214 314.3 220.914 313.2 220.914C312.3 220.914 311.5 221.114 310.8 221.514C310.1 221.915 309.5 222.515 309.1 223.316C308.7 224.117 308.5 224.917 308.5 225.918C308.5 227.019 308.8 227.82 309.4 228.421C310 229.021 310.9 229.322 312 229.322C312.9 229.322 313.7 229.122 314.4 228.721Z" fill="#4E4C4D"/>
<path d="M324.6 220.213C325.3 219.913 326.2 219.713 327.2 219.713L326.9 221.114H326.5C325.3 221.114 324.4 221.415 323.6 222.115C322.9 222.816 322.4 223.817 322.1 225.118L321 230.623H319.5L321.6 219.813H323L322.6 221.815C323.3 221.014 323.9 220.514 324.6 220.213Z" fill="#4E4C4D"/>
<path d="M328.7 225.519C328.7 225.619 328.7 225.719 328.7 225.919C328.7 227.02 329 227.821 329.6 228.421C330.2 229.022 331.1 229.322 332.4 229.322C333.1 229.322 333.8 229.222 334.4 228.922C335 228.722 335.5 228.321 335.9 227.921L336.6 228.922C336.1 229.422 335.5 229.823 334.7 230.123C333.9 230.423 333.1 230.523 332.3 230.523C330.7 230.523 329.5 230.123 328.6 229.322C327.7 228.521 327.3 227.42 327.3 225.919C327.3 224.718 327.6 223.617 328.1 222.616C328.6 221.615 329.3 220.914 330.2 220.313C331.1 219.713 332.1 219.513 333.3 219.513C334.7 219.513 335.9 219.913 336.7 220.714C337.5 221.515 338 222.616 338 224.017C338 224.417 338 224.818 337.9 225.318H328.7V225.519ZM330.4 221.915C329.6 222.516 329.1 223.416 328.8 224.518H336.5C336.5 224.417 336.5 224.317 336.5 224.117C336.5 223.116 336.2 222.315 335.6 221.815C335 221.214 334.2 221.014 333.1 221.014C332.1 220.914 331.1 221.214 330.4 221.915Z" fill="#4E4C4D"/>
<path d="M349.6 220.614C350.3 221.214 350.6 222.115 350.6 223.216C350.6 223.617 350.6 224.017 350.5 224.417L349.3 230.523H347.8L349 224.417C349.1 224.017 349.1 223.717 349.1 223.416C349.1 222.616 348.9 222.015 348.4 221.615C347.9 221.214 347.2 221.014 346.3 221.014C345.1 221.014 344.2 221.314 343.4 222.015C342.6 222.616 342.1 223.617 341.9 224.818L340.8 230.623H339.3L341.4 219.813H342.8L342.5 221.515C343.5 220.313 344.9 219.713 346.7 219.713C347.9 219.713 348.9 220.013 349.6 220.614Z" fill="#4E4C4D"/>
<path d="M365.7 215.308L362.7 230.523H361.3L361.6 228.821C361.1 229.422 360.5 229.822 359.8 230.122C359.1 230.423 358.3 230.623 357.4 230.623C356.5 230.623 355.7 230.423 355 230.022C354.3 229.622 353.7 229.121 353.3 228.421C352.9 227.72 352.7 226.919 352.7 226.018C352.7 224.817 353 223.716 353.5 222.715C354 221.714 354.8 221.014 355.7 220.413C356.6 219.812 357.7 219.612 358.8 219.612C359.8 219.612 360.7 219.812 361.4 220.213C362.1 220.613 362.6 221.214 362.9 221.914L364.2 215.208H365.7V215.308ZM360.1 228.721C360.8 228.321 361.4 227.72 361.8 226.919C362.2 226.119 362.4 225.318 362.4 224.317C362.4 223.216 362.1 222.415 361.5 221.814C360.9 221.214 360 220.914 358.9 220.914C358 220.914 357.2 221.114 356.5 221.614C355.8 222.015 355.2 222.615 354.8 223.416C354.4 224.217 354.2 225.018 354.2 226.018C354.2 227.12 354.5 227.92 355.1 228.521C355.7 229.121 356.6 229.422 357.7 229.422C358.6 229.322 359.4 229.121 360.1 228.721Z" fill="#4E4C4D"/>
<path d="M367.8 225.519C367.8 225.619 367.8 225.719 367.8 225.919C367.8 227.02 368.1 227.821 368.7 228.421C369.3 229.022 370.2 229.322 371.5 229.322C372.2 229.322 372.9 229.222 373.5 228.922C374.1 228.722 374.6 228.321 375 227.921L375.7 228.922C375.2 229.422 374.6 229.823 373.8 230.123C373 230.423 372.2 230.523 371.4 230.523C369.8 230.523 368.6 230.123 367.7 229.322C366.8 228.521 366.4 227.42 366.4 225.919C366.4 224.718 366.7 223.617 367.2 222.616C367.7 221.615 368.4 220.914 369.3 220.313C370.2 219.713 371.2 219.513 372.4 219.513C373.8 219.513 375 219.913 375.8 220.714C376.6 221.515 377.1 222.616 377.1 224.017C377.1 224.417 377.1 224.818 377 225.318H367.8V225.519ZM369.5 221.915C368.7 222.516 368.2 223.416 367.9 224.518H375.6C375.6 224.417 375.6 224.317 375.6 224.117C375.6 223.116 375.3 222.315 374.7 221.815C374.1 221.214 373.3 221.014 372.2 221.014C371.1 220.914 370.2 221.214 369.5 221.915Z" fill="#4E4C4D"/>
<path d="M391.5 215.308L388.5 230.523H387.1L387.4 228.821C386.9 229.422 386.3 229.822 385.6 230.122C384.9 230.423 384.1 230.623 383.2 230.623C382.3 230.623 381.5 230.423 380.8 230.022C380.1 229.622 379.5 229.121 379.1 228.421C378.7 227.72 378.5 226.919 378.5 226.018C378.5 224.817 378.8 223.716 379.3 222.715C379.8 221.714 380.6 221.014 381.5 220.413C382.4 219.812 383.5 219.612 384.6 219.612C385.6 219.612 386.5 219.812 387.2 220.213C387.9 220.613 388.4 221.214 388.7 221.914L390 215.208H391.5V215.308ZM386 228.721C386.7 228.321 387.3 227.72 387.7 226.919C388.1 226.119 388.3 225.318 388.3 224.317C388.3 223.216 388 222.415 387.4 221.814C386.8 221.214 385.9 220.914 384.8 220.914C383.9 220.914 383.1 221.114 382.4 221.614C381.7 222.015 381.1 222.615 380.7 223.416C380.3 224.217 380.1 225.018 380.1 226.018C380.1 227.12 380.4 227.92 381 228.521C381.6 229.121 382.5 229.422 383.6 229.422C384.4 229.322 385.2 229.121 386 228.721Z" fill="#4E4C4D"/>
<path d="M394.4 230.123C393.7 229.723 393.1 229.222 392.7 228.521C392.3 227.821 392.1 227.02 392.1 226.119C392.1 224.918 392.4 223.817 392.9 222.816C393.4 221.815 394.2 221.114 395.1 220.514C396 219.913 397.1 219.713 398.3 219.713C399.8 219.713 401 220.113 401.9 220.914C402.8 221.715 403.2 222.816 403.2 224.217C403.2 225.418 402.9 226.519 402.4 227.52C401.9 228.521 401.1 229.222 400.2 229.823C399.3 230.423 398.2 230.623 397 230.623C396 230.623 395.1 230.423 394.4 230.123ZM399.5 228.722C400.2 228.321 400.8 227.721 401.2 226.92C401.6 226.119 401.8 225.318 401.8 224.317C401.8 223.216 401.5 222.416 400.9 221.815C400.3 221.214 399.4 220.914 398.3 220.914C397.4 220.914 396.6 221.114 395.9 221.615C395.2 222.115 394.6 222.616 394.2 223.416C393.8 224.217 393.6 225.018 393.6 226.019C393.6 227.12 393.9 227.921 394.5 228.521C395.1 229.122 396 229.422 397.1 229.422C397.9 229.322 398.7 229.122 399.5 228.722Z" fill="#4E4C4D"/>
<path d="M409.6 220.213C410.3 219.913 411.2 219.713 412.2 219.713L411.9 221.114H411.5C410.3 221.114 409.4 221.415 408.6 222.115C407.9 222.816 407.4 223.817 407.1 225.118L406 230.623H404.5L406.6 219.813H408L407.6 221.815C408.3 221.014 408.9 220.514 409.6 220.213Z" fill="#4E4C4D"/>
<path d="M424.3 219.712L422.1 230.523H420.7L421 228.821C420.5 229.422 419.9 229.822 419.2 230.122C418.5 230.423 417.7 230.623 416.8 230.623C415.9 230.623 415.1 230.423 414.4 230.022C413.7 229.622 413.1 229.122 412.7 228.421C412.3 227.72 412.1 226.919 412.1 226.019C412.1 224.817 412.4 223.716 412.9 222.715C413.4 221.714 414.2 221.014 415.1 220.413C416 219.813 417.1 219.612 418.2 219.612C419.2 219.612 420.1 219.813 420.8 220.213C421.5 220.613 422 221.214 422.3 221.915L422.8 219.612H424.3V219.712ZM419.6 228.721C420.3 228.321 420.9 227.72 421.3 226.919C421.7 226.119 421.9 225.318 421.9 224.317C421.9 223.216 421.6 222.415 421 221.814C420.4 221.214 419.5 220.914 418.4 220.914C417.5 220.914 416.7 221.114 416 221.614C415.3 222.015 414.7 222.615 414.3 223.416C413.9 224.217 413.7 225.018 413.7 226.019C413.7 227.12 414 227.92 414.6 228.521C415.2 229.122 416.1 229.422 417.2 229.422C418.1 229.322 418.9 229.122 419.6 228.721Z" fill="#4E4C4D"/>
<path d="M426.7 230.223C425.9 230.023 425.3 229.622 424.9 229.322L425.6 228.221C426 228.622 426.5 228.822 427.2 229.122C427.9 229.322 428.6 229.422 429.3 229.422C430.3 229.422 431.1 229.222 431.7 228.922C432.3 228.622 432.5 228.121 432.5 227.52C432.5 227.22 432.4 226.92 432.2 226.72C432 226.519 431.7 226.319 431.4 226.219C431.1 226.119 430.6 226.019 430 225.819C429.2 225.619 428.6 225.519 428.2 225.318C427.7 225.118 427.3 224.918 427 224.518C426.7 224.117 426.5 223.717 426.5 223.016C426.5 222.015 426.9 221.214 427.8 220.614C428.6 220.013 429.8 219.713 431.2 219.713C431.9 219.713 432.6 219.813 433.2 220.013C433.9 220.213 434.4 220.414 434.8 220.714L434.2 221.915C433.8 221.615 433.3 221.415 432.8 221.214C432.2 221.014 431.7 221.014 431.1 221.014C430.1 221.014 429.4 221.214 428.8 221.515C428.3 221.915 428 222.315 428 222.916C428 223.316 428.1 223.517 428.3 223.817C428.5 224.017 428.8 224.217 429.2 224.317C429.5 224.417 430 224.518 430.6 224.618C431.3 224.818 431.9 224.918 432.4 225.118C432.9 225.318 433.2 225.519 433.6 225.919C433.9 226.319 434.1 226.72 434.1 227.32C434.1 228.421 433.7 229.222 432.8 229.823C431.9 230.423 430.8 230.724 429.3 230.724C428.3 230.623 427.4 230.523 426.7 230.223Z" fill="#4E4C4D"/>
<path d="M77.4 219.212C66 207.401 56.6999 228.922 52.5999 243.236C49.3999 234.627 44.5999 226.019 37.3999 221.214C29.3999 215.809 19.6999 219.513 17.8999 229.122C15.7999 240.233 23.7999 253.145 30.2999 261.553C38.0999 271.563 48.2999 279.471 59.2999 285.476C62.2999 287.078 70.3999 257.95 74.6999 246.639C77.7999 238.731 84.7 226.72 77.4 219.212Z" fill="#E6875E"/>
<path d="M125 135.731H125.8H126.4L139.2 166.461L139.8 167.762C141 170.565 141.9 172.167 144.6 172.167V172.967H141.9H132.9H127.3V172.167C130.9 172.167 131.9 170.565 130.2 166.461L128.2 161.657H116.1L114.3 166.461C112.7 170.765 114.7 172.167 117.7 172.167V172.967H106.9V172.167C109.9 172.167 112.1 170.065 113.5 166.461L125 135.731ZM116.4 160.856H128L122 146.342L116.4 160.856Z" fill="#D98C24"/>
<path d="M154.8 140.436V150.545H159.4V151.346H154.8V162.157V164.859C154.8 171.466 158 170.264 159.8 167.061L160.3 167.562C159.4 169.163 157.3 173.568 152.5 173.568C148.3 173.568 146.1 171.165 146.1 164.859V162.056V152.047V151.446H142.1V150.645C147.5 149.244 152.8 144.94 154 140.536L154.8 140.436Z" fill="#D98C24"/>
<path d="M171.8 149.044C176.4 149.044 179 150.746 180.6 152.848C182.7 155.65 182.5 160.255 177.4 160.855L168.3 161.956C168.3 162.257 168.4 162.557 168.5 162.857C170.9 170.064 179.2 171.265 182.9 165.26L183.4 165.76C178.9 177.071 162.7 175.47 159.6 164.959C159.4 164.159 159.2 163.458 159.1 162.557C158.5 155.35 161.9 149.144 171.5 149.144L171.8 149.044ZM171.8 149.745C168.4 149.745 167.5 155.15 168.3 160.855C168.3 160.955 168.3 161.056 168.3 161.156L170 160.955C174.9 160.355 175.5 157.652 175.4 155.951C175.1 152.848 174.2 149.845 171.8 149.745Z" fill="#D98C24"/>
<path d="M200.9 148.844C205.3 148.844 207.9 152.848 205.6 156.652C203.8 159.654 198.9 159.054 198.4 155.651C202 155.55 201.3 150.145 198.2 150.646C195.1 151.146 194.8 153.649 194.8 159.254V163.658V166.561C194.8 170.665 195.9 172.267 199.1 172.267V173.067H181.8V172.267C185.4 172.267 186.1 170.665 186.1 166.561V163.658V160.555C186.1 156.451 185.2 154.249 182.5 154.049V153.248C189.2 153.248 193.9 149.044 193.9 149.044H194.7V151.446C195.4 150.446 196.6 149.645 198.6 149.044C199.4 148.844 200.2 148.744 200.9 148.844Z" fill="#D98C24"/>
<path d="M224.8 148.844C229.2 148.844 231.8 152.848 229.5 156.652C227.7 159.654 222.8 159.054 222.3 155.651C225.9 155.55 225.2 150.145 222.1 150.646C219 151.146 218.7 153.649 218.7 159.254V163.658V166.561C218.7 170.665 219.8 172.267 223 172.267V173.067H205.7V172.267C209.3 172.267 210 170.665 210 166.561V163.658V160.555C210 156.451 209.1 154.249 206.4 154.049V153.248C213.1 153.248 217.8 149.044 217.8 149.044H218.6V151.446C219.3 150.446 220.5 149.645 222.5 149.044C223.3 148.844 224.1 148.744 224.8 148.844Z" fill="#D98C24"/>
<path d="M242.6 149.144V163.658V166.561C242.6 170.665 243.7 172.267 246.9 172.267V173.068H229.6V172.267C233.2 172.267 233.9 170.665 233.9 166.561V163.658V160.555C233.9 156.451 233 154.249 230.3 154.049V153.248C237 153.248 241.7 149.044 241.7 149.044L242.6 149.144ZM242.6 140.936C242.6 143.739 240.3 145.941 237.6 145.941C234.9 145.941 232.6 143.639 232.6 140.936C232.6 138.234 234.9 135.932 237.6 135.932C240.3 135.932 242.6 138.134 242.6 140.936Z" fill="#D98C24"/>
<path d="M250.2 149.044H251.6H259.2H260.6H265.3H270.2V149.845L269.4 151.246L262.6 162.957L258.8 169.564L257.2 172.266H263.1C267.9 172.266 268.7 170.565 269.6 167.061H270.4L269.8 173.067H268.4H260.8H254.8H247.3V172.266L250.1 167.362L253.9 160.755L260.2 149.845H256.9C252.1 149.845 251.3 151.546 250.4 155.05H249.6L250.2 149.044Z" fill="#D98C24"/>
<path d="M294.4 157.853L294.5 158.554L295.3 165.861C296.5 173.168 299.8 170.966 299.8 170.966V171.566C299.2 173.068 290 175.77 287.4 170.465C287.4 170.465 284.9 173.568 279.5 173.568C275.2 173.568 271 171.967 271 167.362C271 157.152 286.2 163.258 285.4 156.552V155.951C285.1 153.849 284.9 149.946 281.6 149.946C278.7 149.946 277.9 151.147 277.9 152.348C277.9 153.449 278.4 154.45 280.6 154.45C281.9 159.255 274.6 161.156 273.4 156.652C272.4 153.049 275.2 149.145 281.6 149.145C291.8 149.045 293.6 152.448 294.4 157.853ZM285.9 158.854C285 161.056 279.4 161.357 279.4 166.461C279.4 172.667 287.5 172.567 287 168.263L285.9 158.854Z" fill="#D98C24"/>
<path d="M325.7 140.436V150.545H330.3V151.346H325.7V162.157V164.859C325.7 171.466 328.9 170.264 330.7 167.061L331.2 167.562C330.3 169.163 328.2 173.568 323.4 173.568C319.2 173.568 317 171.165 317 164.859V162.056V152.047V151.446H313V150.645C318.4 149.244 323.7 144.94 324.9 140.536L325.7 140.436Z" fill="#D98C24"/>
<path d="M342 149.044V161.256V164.659C342 168.463 342.9 172.367 346 172.367C349.1 172.367 350.3 168.563 350.3 164.058V160.955V160.555C350.3 156.451 349.4 154.249 346.7 154.049V153.248C353.4 153.248 358.1 149.044 358.1 149.044H358.9V163.058V165.46C358.9 173.568 362.6 170.965 362.6 170.965V171.766C361.2 173.067 353.3 175.57 350.7 170.665C349.5 172.266 347.1 173.568 343.1 173.568C337.4 173.468 333.1 170.565 333.1 164.759V163.158V160.755C333.1 156.651 332.2 154.449 329.5 154.249V153.448C336.2 153.448 340.9 149.244 340.9 149.244H342V149.044Z" fill="#D98C24"/>
<path d="M372.3 149.044C376.6 149.044 378 150.545 378.4 149.044H379.2L379.9 156.952L379.1 157.052C378 152.247 376.2 149.845 372.2 149.845C369.4 149.845 368.5 152.447 369.6 154.549C371.4 158.153 383 158.954 383 165.26C383 170.064 378.5 173.468 371.3 173.468C364.9 173.468 361.4 169.564 362.4 165.96C362.9 164.159 364.3 163.458 365.7 163.458C368 163.458 370.4 165.36 369.6 168.263C368 167.462 366.8 169.264 366.8 170.365C366.8 171.466 367.9 172.767 370.8 172.767C374.3 172.767 375.5 170.365 375.5 168.663C375.5 163.058 363.3 164.058 362.6 156.551C362.3 152.447 364.9 149.044 372.3 149.044Z" fill="#D98C24"/>
<path d="M407.9 149.144V163.658V166.561C407.9 170.665 409 172.267 412.2 172.267V173.068H394.9V172.267C398.5 172.267 399.2 170.665 399.2 166.561V163.658V160.555C399.2 156.451 398.3 154.249 395.6 154.049V153.248C402.3 153.248 407 149.044 407 149.044L407.9 149.144ZM407.9 140.936C407.9 143.739 405.6 145.941 402.9 145.941C400.2 145.941 397.9 143.639 397.9 140.936C397.9 138.234 400.2 135.932 402.9 135.932C405.6 135.932 407.9 138.134 407.9 140.936Z" fill="#D98C24"/>
<path d="M437.1 135.731V144.44V165.26C437.1 173.368 440.8 170.765 440.8 170.765V171.566C439.5 172.867 431.8 175.27 429.1 170.665C427.4 172.267 425.2 173.268 422.8 173.368C422.6 173.368 422.4 173.368 422.2 173.368C422 173.368 421.8 173.368 421.6 173.368C415.9 173.068 411.3 168.063 410.9 161.857C410.5 155.15 415.1 149.345 421.2 148.944C423.8 148.844 426.3 149.745 428.4 151.347V149.745V147.343C428.4 143.239 427.5 141.037 424.8 140.836V140.136C431.5 140.136 436.2 135.932 436.2 135.932L437.1 135.731ZM420.6 149.845C418.2 150.546 418.2 155.751 419.7 161.657C421.2 167.262 423.6 171.466 425.9 171.466C426 171.466 426.2 171.466 426.3 171.466C428.7 170.765 428.7 165.56 427.2 159.655C425.7 154.049 423.3 149.845 421 149.845C420.9 149.845 420.8 149.845 420.6 149.845Z" fill="#D98C24"/>
<path d="M452.5 149.044C457.1 149.044 459.7 150.746 461.3 152.848C463.4 155.65 463.2 160.255 458.1 160.855L449 161.956C449 162.257 449.1 162.557 449.2 162.857C451.6 170.064 459.9 171.265 463.6 165.26L464.1 165.76C459.6 177.071 443.4 175.47 440.3 164.959C440.1 164.159 439.9 163.458 439.8 162.557C439.2 155.35 442.6 149.144 452.2 149.144L452.5 149.044ZM452.5 149.745C449.1 149.745 448.2 155.15 449 160.855C449 160.955 449 161.056 449 161.156L450.7 160.955C455.6 160.355 456.2 157.652 456.1 155.951C455.9 152.848 455 149.845 452.5 149.745Z" fill="#D98C24"/>
<path d="M487.2 157.853L487.3 158.554L488.1 165.861C489.3 173.168 492.6 170.966 492.6 170.966V171.566C492 173.068 482.8 175.77 480.2 170.465C480.2 170.465 477.7 173.568 472.3 173.568C468 173.568 463.8 171.967 463.8 167.362C463.8 157.152 479 163.258 478.2 156.552V155.951C477.9 153.849 477.7 149.946 474.4 149.946C471.5 149.946 470.7 151.147 470.7 152.348C470.7 153.449 471.2 154.45 473.4 154.45C474.7 159.255 467.4 161.156 466.2 156.652C465.2 153.049 468 149.145 474.4 149.145C484.6 149.045 486.4 152.448 487.2 157.853ZM478.7 158.854C477.8 161.056 472.2 161.357 472.2 166.461C472.2 172.667 480.3 172.567 479.8 168.263L478.7 158.854Z" fill="#D98C24"/>
<path d="M502.4 149.044C506.7 149.044 508.1 150.545 508.5 149.044H509.3L510 156.952L509.2 157.052C508.1 152.247 506.3 149.845 502.3 149.845C499.5 149.845 498.6 152.447 499.7 154.549C501.5 158.153 513.1 158.954 513.1 165.26C513.1 170.064 508.6 173.468 501.4 173.468C495 173.468 491.5 169.564 492.5 165.96C493 164.159 494.4 163.458 495.8 163.458C498.1 163.458 500.5 165.36 499.7 168.263C498.1 167.462 496.9 169.264 496.9 170.365C496.9 171.466 498 172.767 500.9 172.767C504.4 172.767 505.6 170.365 505.6 168.663C505.6 163.058 493.4 164.058 492.7 156.551C492.4 152.447 495.1 149.044 502.4 149.044Z" fill="#D98C24"/>
<path d="M35.5999 63.6614C35.3999 63.6614 35.1999 63.6614 34.9999 63.5613C23.6999 57.9558 10.5999 50.2484 12.5999 44.643C13.3999 42.2406 16.6999 41.0395 22.5999 41.1396C27.5999 41.2397 34.4999 42.1405 42.4999 43.9423C43.1999 44.0424 43.6999 44.7431 43.5999 45.5438C43.4999 46.2445 42.7999 46.745 41.9999 46.6449H41.8999C23.3999 42.5409 15.6999 43.8422 15.0999 45.6439C14.4999 47.4457 19.5999 53.0511 36.1999 61.1589C36.8999 61.4592 37.1999 62.26 36.7999 62.9607C36.5999 63.3611 36.0999 63.6614 35.5999 63.6614Z" fill="#231F20"/>
<path d="M114.9 87.0849C109.3 87.0849 102.1 85.8838 95.6997 84.5825C94.9997 84.3823 94.4997 83.6816 94.6997 82.981C94.8997 82.2803 95.5997 81.7798 96.2997 81.98C114.1 85.7837 121.5 84.5825 122.1 82.7808C122.7 81.0791 117.6 75.3736 100.8 67.1656C100.1 66.8654 99.7997 66.0646 100.2 65.3639C100.5 64.6632 101.3 64.3629 102 64.7633C113.4 70.3687 126.6 78.1763 124.7 83.7817C123.7 86.184 119.9 87.0849 114.9 87.0849Z" fill="#231F20"/>
<path d="M101.3 65.1631C101.3 83.3807 86.5998 98.0949 68.3998 98.0949C59.1998 98.0949 50.3998 94.2912 44.1998 87.4847C43.3998 86.6839 42.6998 85.783 42.0998 84.8821C31.1998 70.3681 34.1998 49.648 48.6998 38.7375C63.1998 27.8269 83.8998 30.8298 94.7998 45.3439C97.1998 48.547 98.9998 52.1505 100.1 55.9541C100.9 59.0571 101.3 62.1601 101.3 65.1631Z" fill="white"/>
<path d="M68.3998 32.2314C83.0998 32.2314 95.9998 42.0409 99.9998 56.1546C105 73.6715 94.7998 91.8892 77.2998 96.894C74.3998 97.6948 71.2998 98.1953 68.2998 98.1953C59.0998 98.1953 50.3998 94.3916 44.0998 87.585C43.2998 86.7842 42.5998 85.8834 41.9998 84.9825C31.0998 70.4684 33.9998 49.8485 48.4998 38.8378C54.2998 34.5337 61.1998 32.2314 68.3998 32.2314ZM68.3998 31.6309C49.8998 31.6309 34.7998 46.6454 34.7998 65.1633C34.7998 72.4704 37.1998 79.4772 41.4998 85.3829C42.1998 86.2837 42.8998 87.1846 43.6998 87.9854C45.4998 89.8872 47.4998 91.5889 49.5998 93.0903C64.9998 103.4 85.7998 99.2963 96.1998 83.8814C99.8998 78.3761 101.9 71.8698 101.9 65.1633C101.9 63.2615 101.7 61.2595 101.4 59.3577C98.5998 43.3422 84.6998 31.6309 68.3998 31.6309Z" fill="#231F20"/>
<path d="M101.3 65.163C101.3 83.3807 86.6001 98.0949 68.4001 98.0949C61.9001 98.0949 55.5001 96.1931 50.1001 92.4895C52.2001 91.989 54.2001 90.988 55.9001 89.6868C56.9001 88.886 57.8001 87.9851 58.9001 87.4846C62.1001 86.1834 65.5001 88.9861 69.0001 89.0862C72.0001 89.1863 74.6001 87.2845 76.4001 84.8821C78.2001 82.4798 79.2001 79.6771 80.5001 77.0746C81.3001 75.473 82.4001 73.6713 84.2001 73.371C86.0001 73.0707 87.8001 75.5731 86.4001 76.7743C87.5001 77.7752 89.2001 76.7743 90.0001 75.5731C92.1001 72.8705 92.8001 69.3671 94.1001 66.164C95.4001 63.1611 97.6001 60.1582 100.8 59.5576C101.1 61.3594 101.3 63.2612 101.3 65.163Z" fill="#C4D7D1"/>
<path d="M53.3999 70.0681C52.1999 73.071 55.2999 76.4743 54.4999 79.5773C53.8999 81.7794 51.4999 82.9806 49.2999 83.6813C46.9999 84.382 44.4999 84.8824 42.0999 85.0826C31.1999 70.5686 34.0999 49.8485 48.5999 38.938C49.2999 38.4375 49.9999 37.937 50.7999 37.4365C52.3999 38.7378 53.3999 40.7397 53.5999 42.8418C53.7999 45.3442 53.0999 47.8466 51.8999 50.0487C50.7999 52.1508 49.3999 54.0526 48.8999 56.3548C48.3999 58.6571 49.1999 61.4598 51.3999 62.2605C52.9999 62.8611 55.2999 62.3606 56.1999 63.762C56.8999 64.763 56.3999 66.1643 55.5999 67.1653C54.8999 68.0662 53.8999 68.8669 53.3999 70.0681Z" fill="#C4D7D1"/>
<path d="M100 56.1547C98.6001 56.455 97.2001 56.6552 95.9001 57.0556C93.5001 57.6562 91.1001 58.9574 89.9001 61.1596C89.1001 62.7611 89.0001 64.763 87.5001 65.6639C86.3001 66.3646 84.8001 66.1644 83.4001 66.2645C80.8001 66.5648 78.6001 68.4666 77.0001 70.4686C75.3001 72.4705 74.0001 74.8728 71.9001 76.4744C69.9001 78.0759 66.8001 78.9768 64.6001 77.5754C68.9001 76.3743 72.4001 73.2713 74.2001 69.1673C75.2001 66.6649 75.8001 63.5619 78.3001 62.3607C79.9001 61.5599 81.8001 61.8602 83.3001 60.8593C86.0001 59.0575 84.8001 54.4531 87.0001 52.0507C87.9001 51.1499 89.1001 50.6494 90.3001 50.249C91.8001 49.7485 93.9001 48.6475 96.2001 47.6465C97.9001 50.249 99.2001 53.1518 100 56.1547Z" fill="#C4D7D1"/>
<path d="M92.3 42.6414C90.9 43.8426 89.4 44.9437 87.8 45.7444C82.7 48.347 76 49.3479 73.2 54.3528C71.9 56.7551 71.7 59.6579 70.6 62.1603C69.5 64.6627 66.4 66.8649 64 65.4635C62 64.2624 61.8 61.3595 62.4 59.0573C63 56.7551 64.1 54.4529 63.5 52.1506C63.1 50.3489 61.8 48.9475 60.6 47.4461C58.5 44.8436 56.7 41.8407 55.9 38.6376C55.6 37.3363 55.5 36.035 55.6 34.7338C68.4 29.5287 82.9 32.6317 92.3 42.6414Z" fill="#C4D7D1"/>
<path d="M95.8999 84.5825C95.7999 84.5825 95.6999 84.5825 95.5999 84.5825C85.0999 82.2803 74.6999 79.2773 64.4999 75.6739C54.4999 72.1705 44.5999 68.1666 34.9999 63.5621C34.2999 63.2618 33.9999 62.4611 34.3999 61.7604C34.6999 61.0597 35.4999 60.7594 36.1999 61.1598C45.6999 65.7643 55.4999 69.7681 65.3999 73.1714C75.4999 76.7749 85.7999 79.6777 96.1999 81.98C96.8999 82.0801 97.3999 82.8808 97.2999 83.5815C97.1999 84.1821 96.5999 84.5825 95.8999 84.5825Z" fill="#231F20"/>
<path d="M44.2997 87.3848L44.1997 87.4848L44.2997 87.3848Z" fill="#E6E7E8"/>
<path d="M26.9999 80.5785L23.3999 79.0771L20.0999 81.1791L20.3999 77.2753L17.3999 74.873L21.1999 73.9721L22.5999 70.2686L24.5999 73.6718L28.4999 73.872L25.9999 76.875L26.9999 80.5785Z" fill="white"/>
<path d="M20.1001 81.3788C20.0001 81.3788 19.9001 81.2787 19.9001 81.1786L20.2001 77.3749L17.2001 74.9726C17.1001 74.9726 17.1001 74.8725 17.1001 74.7724C17.1001 74.6723 17.2001 74.6723 17.2001 74.6723L20.9001 73.7715L22.3001 70.2681C22.3001 70.168 22.4001 70.168 22.5001 70.168C22.5001 70.168 22.6001 70.168 22.6001 70.2681L24.6001 73.5713L28.4001 73.7715C28.5001 73.7715 28.5001 73.7715 28.6001 73.8716C28.6001 73.9717 28.6001 73.9717 28.6001 74.0717L26.1001 76.9746L27.1001 80.6781C27.1001 80.7782 27.1001 80.7782 27.0001 80.8783C26.9001 80.8783 26.9001 80.9784 26.8001 80.8783L23.3001 79.3769L20.1001 81.3788C20.2001 81.3788 20.1001 81.3788 20.1001 81.3788ZM17.8001 74.9726L20.5001 77.1747L20.6001 77.2748L20.3001 80.7782L23.3001 78.8764C23.4001 78.8764 23.4001 78.8764 23.5001 78.8764L26.8001 80.2778L25.9001 76.8745C25.9001 76.7744 25.9001 76.7744 25.9001 76.6743L28.2001 73.9717L24.7001 73.7715C24.6001 73.7715 24.6001 73.7715 24.6001 73.6714L22.8001 70.6685L21.4001 74.0717C21.4001 74.1718 21.3001 74.1718 21.3001 74.1718L17.8001 74.9726Z" fill="#D98C24"/>
<path d="M115.4 55.7543L113 53.5522L109.8 54.2529L111.2 51.25L109.5 48.4473L112.7 48.8476L114.9 46.4453L115.5 49.6484L118.5 50.9497L115.7 52.5512L115.4 55.7543Z" fill="white"/>
<path d="M115.4 55.9541H115.3L113 53.7519L109.9 54.4526C109.8 54.4526 109.7 54.4526 109.7 54.3525V54.2524L111.1 51.3496L109.5 48.5469C109.5 48.5469 109.5 48.4468 109.5 48.3467L109.6 48.2466L112.8 48.647L114.9 46.2447C114.9 46.2447 115 46.1446 115 46.2447C115.1 46.2447 115.1 46.3448 115.1 46.3448L115.7 49.4478L118.6 50.749C118.7 50.749 118.7 50.8491 118.7 50.8491C118.7 50.9492 118.7 50.9492 118.6 50.9492L115.8 52.5508L115.5 55.7539C115.5 55.854 115.5 55.9541 115.4 55.9541ZM113 53.4517H113.1L115.3 55.4536L115.6 52.4507C115.6 52.4507 115.6 52.3506 115.7 52.3506L118.3 50.9492L115.6 49.7481L115.5 49.648L114.9 46.7452L113 48.9473C113 48.9473 112.9 49.0474 112.9 48.9473L109.9 48.5469L111.4 51.1494V51.2495L110 54.0522L113 53.4517Z" fill="#D98C24"/>
<path d="M104.5 49.0478L103 47.5464L100.9 48.0468L101.8 46.0449L100.7 44.2432L102.8 44.4433L104.2 42.8418L104.7 44.9438L106.6 45.8447L104.7 46.8457L104.5 49.0478Z" fill="white"/>
<path d="M104.5 49.1474C104.5 49.1474 104.5 49.0473 104.5 49.1474L102.9 47.646L100.9 48.1464H100.8V48.0463L101.7 46.1445L100.6 44.3428V44.2427H100.7L102.8 44.543L104.2 42.9414H104.3C104.3 42.9414 104.4 42.9414 104.4 43.0415L104.8 45.1435L106.7 45.9443C106.7 45.9443 106.8 45.9443 106.8 46.0444C106.8 46.0444 106.8 46.1445 106.7 46.1445L104.9 47.1455L104.5 49.1474C104.6 49.0473 104.6 49.0473 104.5 49.1474ZM103 47.4458L104.5 48.8471L104.7 46.9453C104.7 46.9453 104.7 46.8452 104.8 46.8452L106.5 45.9443L104.7 45.1435C104.7 45.1435 104.6 45.1435 104.6 45.0434L104.2 43.1416L102.9 44.643H102.8L100.9 44.4429L101.9 46.1445V46.2446L101.1 48.0463L103 47.4458Z" fill="#D98C24"/>
<path d="M29.1 31.6303L26.2 31.1298L24.1 33.332L23.7 30.3291L21 29.0278L23.7 27.7265L24.1 24.7236L26.2 26.9258L29.1 26.4253L27.7 29.0278L29.1 31.6303Z" fill="white"/>
<path d="M24.0999 33.4321C23.9999 33.4321 23.9999 33.332 23.9999 33.332L23.5999 30.4292L20.9999 29.1279C20.8999 29.1279 20.8999 29.0278 20.8999 28.9277C20.8999 28.9277 20.8999 28.9277 20.9999 28.8276L23.5999 27.5263L23.9999 24.6235C23.9999 24.5234 23.9999 24.5234 24.0999 24.5234H24.1999L26.1999 26.6255L29.0999 26.125C29.1999 26.125 29.1999 26.125 29.1999 26.2251V26.3252L27.8999 29.0278L29.2999 31.6303V31.7304L29.1999 31.8305L26.2999 31.33L24.2999 33.4321C24.1999 33.4321 24.1999 33.4321 24.0999 33.4321ZM21.2999 29.0278L23.6999 30.229L23.7999 30.3291L24.1999 33.0317L26.0999 31.1298H26.1999L28.8999 31.5302L27.5999 29.1279V29.0278L28.8999 26.6255L26.1999 27.0259H26.0999L24.1999 25.0239L23.7999 27.7265C23.7999 27.7265 23.7999 27.8266 23.6999 27.8266L21.2999 29.0278Z" fill="#D98C24"/>
<path d="M30.2 52.4511C31.1389 52.4511 31.9 51.6893 31.9 50.7495C31.9 49.8097 31.1389 49.0479 30.2 49.0479C29.2611 49.0479 28.5 49.8097 28.5 50.7495C28.5 51.6893 29.2611 52.4511 30.2 52.4511Z" fill="white"/>
<path d="M30.1999 52.5508C29.1999 52.5508 28.3999 51.75 28.3999 50.749C28.3999 49.748 29.1999 48.9473 30.1999 48.9473C31.1999 48.9473 31.9999 49.748 31.9999 50.749C31.9999 51.75 31.1999 52.5508 30.1999 52.5508ZM30.1999 49.2476C29.3999 49.2476 28.6999 49.9482 28.6999 50.749C28.6999 51.5498 29.3999 52.2505 30.1999 52.2505C30.9999 52.2505 31.6999 51.5498 31.6999 50.749C31.6999 49.8481 30.9999 49.2476 30.1999 49.2476Z" fill="#D98C24"/>
<path d="M96.2 93.4902C96.8627 93.4902 97.4 92.9524 97.4 92.2891C97.4 91.6257 96.8627 91.0879 96.2 91.0879C95.5373 91.0879 95 91.6257 95 92.2891C95 92.9524 95.5373 93.4902 96.2 93.4902Z" fill="white"/>
<path d="M96.1998 93.6904C95.3998 93.6904 94.7998 93.0898 94.7998 92.289C94.7998 91.4883 95.3998 90.8877 96.1998 90.8877C96.9998 90.8877 97.5998 91.4883 97.5998 92.289C97.5998 92.9897 96.9998 93.6904 96.1998 93.6904ZM96.1998 91.188C95.5998 91.188 95.0998 91.6885 95.0998 92.289C95.0998 92.8896 95.5998 93.3901 96.1998 93.3901C96.7998 93.3901 97.2998 92.8896 97.2998 92.289C97.2998 91.6885 96.7998 91.188 96.1998 91.188Z" fill="#D98C24"/>
<path d="M30.1998 96.4931C33.1821 96.4931 35.5998 94.0731 35.5998 91.0878C35.5998 88.1026 33.1821 85.6826 30.1998 85.6826C27.2175 85.6826 24.7998 88.1026 24.7998 91.0878C24.7998 94.0731 27.2175 96.4931 30.1998 96.4931Z" fill="white"/>
<path d="M30.1997 96.5937C27.1997 96.5937 24.6997 94.0912 24.6997 91.0883C24.6997 88.0854 27.1997 85.583 30.1997 85.583C33.1997 85.583 35.6997 88.0854 35.6997 91.0883C35.6997 94.0912 33.1997 96.5937 30.1997 96.5937ZM30.1997 85.8833C27.2997 85.8833 24.9997 88.1855 24.9997 91.0883C24.9997 93.9911 27.2997 96.2934 30.1997 96.2934C33.0997 96.2934 35.3997 93.9911 35.3997 91.0883C35.3997 88.1855 33.0997 85.8833 30.1997 85.8833Z" fill="#D98C24"/>
<path d="M112.2 62.9609C112.697 62.9609 113.1 62.5576 113.1 62.0601C113.1 61.5625 112.697 61.1592 112.2 61.1592C111.703 61.1592 111.3 61.5625 111.3 62.0601C111.3 62.5576 111.703 62.9609 112.2 62.9609Z" fill="white"/>
<path d="M112.2 63.1611C111.6 63.1611 111.2 62.6606 111.2 62.1601C111.2 61.5596 111.7 61.1592 112.2 61.1592C112.8 61.1592 113.2 61.6597 113.2 62.1601C113.3 62.6606 112.8 63.1611 112.2 63.1611ZM112.2 61.3594C111.8 61.3594 111.4 61.6597 111.4 62.1601C111.4 62.5605 111.7 62.9609 112.2 62.9609C112.7 62.9609 113 62.6606 113 62.1601C113 61.6597 112.7 61.3594 112.2 61.3594Z" fill="#D98C24"/>
<path d="M89.1998 98.1953C89.6969 98.1953 90.0998 97.792 90.0998 97.2944C90.0998 96.7969 89.6969 96.3936 89.1998 96.3936C88.7027 96.3936 88.2998 96.7969 88.2998 97.2944C88.2998 97.792 88.7027 98.1953 89.1998 98.1953Z" fill="white"/>
<path d="M89.1997 98.1953C88.6997 98.1953 88.1997 97.7949 88.1997 97.1943C88.1997 96.6938 88.5997 96.1934 89.1997 96.1934C89.6997 96.1934 90.1997 96.5937 90.1997 97.1943C90.1997 97.7949 89.7997 98.1953 89.1997 98.1953ZM89.1997 96.4937C88.7997 96.4937 88.3997 96.7939 88.3997 97.2944C88.3997 97.6948 88.6997 98.0952 89.1997 98.0952C89.5997 98.0952 89.9997 97.7949 89.9997 97.2944C89.9997 96.894 89.6997 96.4937 89.1997 96.4937Z" fill="#D98C24"/>
<path d="M106.4 92.4892C106.3 92.4892 106.2 92.3891 106.2 92.289V91.0879C106.2 90.9878 106.3 90.8877 106.4 90.8877C106.5 90.8877 106.6 90.9878 106.6 91.0879V92.289C106.6 92.3891 106.5 92.4892 106.4 92.4892Z" fill="#D98C24"/>
<path d="M106.4 94.8916C106.3 94.8916 106.2 94.7915 106.2 94.6914V93.4902C106.2 93.3901 106.3 93.29 106.4 93.29C106.5 93.29 106.6 93.3901 106.6 93.4902V94.6914C106.6 94.7915 106.5 94.8916 106.4 94.8916Z" fill="#D98C24"/>
<path d="M108.2 93.0895H107C106.9 93.0895 106.8 92.9895 106.8 92.8895C106.8 92.7895 106.9 92.6895 107 92.6895H108.2C108.3 92.6895 108.4 92.7895 108.4 92.8895C108.4 92.9895 108.3 93.0895 108.2 93.0895Z" fill="#D98C24"/>
<path d="M105.8 93.0895H104.6C104.5 93.0895 104.4 92.9895 104.4 92.8895C104.4 92.7895 104.5 92.6895 104.6 92.6895H105.8C105.9 92.6895 106 92.7895 106 92.8895C106 92.9895 105.9 93.0895 105.8 93.0895Z" fill="#D98C24"/>
<path d="M41.5999 94.291C41.4999 94.291 41.3999 94.1909 41.3999 94.0908V92.8897C41.3999 92.7896 41.4999 92.6895 41.5999 92.6895C41.6999 92.6895 41.7999 92.7896 41.7999 92.8897V94.0908C41.7999 94.1909 41.6999 94.291 41.5999 94.291Z" fill="#D1D3D4"/>
<path d="M41.5999 96.7939C41.4999 96.7939 41.3999 96.6938 41.3999 96.5937V95.3926C41.3999 95.2925 41.4999 95.1924 41.5999 95.1924C41.6999 95.1924 41.7999 95.2925 41.7999 95.3926V96.5937C41.7999 96.6938 41.6999 96.7939 41.5999 96.7939Z" fill="#D1D3D4"/>
<path d="M43.4 94.8912H42.2C42.1 94.8912 42 94.7912 42 94.6912C42 94.5912 42.1 94.4912 42.2 94.4912H43.4C43.5 94.4912 43.6 94.5912 43.6 94.6912C43.6 94.8912 43.5 94.8912 43.4 94.8912Z" fill="#D1D3D4"/>
<path d="M41.0001 94.8912H39.8001C39.7001 94.8912 39.6001 94.7912 39.6001 94.6912C39.6001 94.5912 39.7001 94.4912 39.8001 94.4912H41.0001C41.1001 94.4912 41.2001 94.5912 41.2001 94.6912C41.2001 94.8912 41.1001 94.8912 41.0001 94.8912Z" fill="#D1D3D4"/>
<path d="M42.2 21.6211C42.1 21.6211 42 21.521 42 21.4209V20.2197C42 20.1196 42.1 20.0195 42.2 20.0195C42.3 20.0195 42.4 20.1196 42.4 20.2197V21.4209C42.4 21.521 42.3 21.6211 42.2 21.6211Z" fill="#D98C24"/>
<path d="M42.2 24.123C42.1 24.123 42 24.0229 42 23.9228V22.7217C42 22.6216 42.1 22.5215 42.2 22.5215C42.3 22.5215 42.4 22.6216 42.4 22.7217V23.9228C42.4 24.0229 42.3 24.123 42.2 24.123Z" fill="#D98C24"/>
<path d="M44.0997 22.2213H42.8997C42.7997 22.2213 42.6997 22.1213 42.6997 22.0213C42.6997 21.9213 42.7997 21.8213 42.8997 21.8213H44.0997C44.1997 21.8213 44.2997 21.9213 44.2997 22.0213C44.2997 22.1213 44.1997 22.2213 44.0997 22.2213Z" fill="#D98C24"/>
<path d="M41.5997 22.2213H40.3997C40.2997 22.2213 40.1997 22.1213 40.1997 22.0213C40.1997 21.9213 40.2997 21.8213 40.3997 21.8213H41.5997C41.6997 21.8213 41.7997 21.9213 41.7997 22.0213C41.7997 22.1213 41.6997 22.2213 41.5997 22.2213Z" fill="#D98C24"/>
<path d="M17.3997 61.6601C17.2997 61.6601 17.1997 61.56 17.1997 61.4599V60.2588C17.1997 60.1587 17.2997 60.0586 17.3997 60.0586C17.4997 60.0586 17.5997 60.1587 17.5997 60.2588V61.4599C17.5997 61.56 17.4997 61.6601 17.3997 61.6601Z" fill="#D98C24"/>
<path d="M17.3997 64.0625C17.2997 64.0625 17.1997 63.9624 17.1997 63.8623V62.6611C17.1997 62.561 17.2997 62.4609 17.3997 62.4609C17.4997 62.4609 17.5997 62.561 17.5997 62.6611V63.8623C17.5997 64.0625 17.4997 64.0625 17.3997 64.0625Z" fill="#D98C24"/>
<path d="M19.1998 62.2604H17.9998C17.8998 62.2604 17.7998 62.1604 17.7998 62.0604C17.7998 61.9604 17.8998 61.9604 17.9998 61.8604H19.1998C19.2998 61.8604 19.3998 61.9604 19.3998 62.0604C19.3998 62.1604 19.2998 62.2604 19.1998 62.2604Z" fill="#D98C24"/>
<path d="M16.7999 62.2604H15.5999C15.4999 62.2604 15.3999 62.1604 15.3999 62.0604C15.3999 61.9604 15.4999 61.9604 15.5999 61.8604H16.7999C16.8999 61.8604 16.9999 61.9604 16.9999 62.0604C16.8999 62.1604 16.8999 62.2604 16.7999 62.2604Z" fill="#D98C24"/>
<path d="M30.2 70.4682C30.1 70.4682 30 70.3681 30 70.268V67.165C30 67.0649 30.1 66.9648 30.2 66.9648C30.3 66.9648 30.3 67.0649 30.4 67.165V70.268C30.4 70.3681 30.3 70.4682 30.2 70.4682Z" fill="#D98C24"/>
<path d="M31.8 68.8668H28.7C28.6 68.8668 28.5 68.7668 28.5 68.6668C28.5 68.5668 28.6 68.4668 28.7 68.4668H31.8C31.9 68.4668 32 68.5668 32 68.6668C31.9 68.8668 31.8 68.8668 31.8 68.8668Z" fill="#D98C24"/>
<path d="M39.3001 34.5337C39.2001 34.5337 39.1001 34.4336 39.1001 34.3335V31.2305C39.1001 31.1304 39.2001 31.0303 39.3001 31.0303C39.4001 31.0303 39.5001 31.1304 39.5001 31.2305V34.3335C39.5001 34.4336 39.4001 34.5337 39.3001 34.5337Z" fill="#D98C24"/>
<path d="M40.9001 32.9313H37.8001C37.7001 32.9313 37.6001 32.8313 37.6001 32.7313C37.6001 32.6313 37.7001 32.5312 37.8001 32.5312H40.9001C41.0001 32.5312 41.1001 32.6313 41.1001 32.7313C41.1001 32.8313 41.0001 32.9313 40.9001 32.9313Z" fill="#D98C24"/>
<path d="M107 80.5786C106.9 80.5786 106.8 80.4785 106.8 80.3784V77.2754C106.8 77.1753 106.9 77.0752 107 77.0752C107.1 77.0752 107.2 77.1753 107.2 77.2754V80.3784C107.2 80.4785 107.1 80.5786 107 80.5786Z" fill="#D98C24"/>
<path d="M108.6 78.9762H105.5C105.4 78.9762 105.3 78.8762 105.3 78.7762C105.3 78.6762 105.4 78.5762 105.5 78.5762C105.5 78.5762 105.5 78.5762 105.6 78.5762H108.7C108.8 78.5762 108.9 78.6762 108.9 78.7762C108.7 78.9762 108.6 78.9762 108.6 78.9762Z" fill="#D98C24"/>
<path d="M111.8 79.176C112.021 79.176 112.2 78.9969 112.2 78.776C112.2 78.5551 112.021 78.376 111.8 78.376C111.579 78.376 111.4 78.5551 111.4 78.776C111.4 78.9969 111.579 79.176 111.8 79.176Z" fill="#D98C24"/>
<path d="M50.5001 101.798C50.721 101.798 50.9001 101.619 50.9001 101.398C50.9001 101.177 50.721 100.998 50.5001 100.998C50.2792 100.998 50.1001 101.177 50.1001 101.398C50.1001 101.619 50.2792 101.798 50.5001 101.798Z" fill="#D1D3D4"/>
</svg>
