<svg width="620" height="309" viewBox="0 0 620 309" fill="none" xmlns="http://www.w3.org/2000/svg">
<g clip-path="url(#clip0_381:273)">
<path d="M620 40.013V269.087C620 291.194 602.1 309.1 580 309H40C33.4 309 27.2 307.5 21.7 304.699C8.8 298.096 0 284.592 0 269.087V40.013C0 17.9058 17.9 0 40 0H580C602.1 0 620 17.9058 620 40.013Z" fill="#F0AD9D"/>
<path d="M200.3 189.561C201.2 190.262 201.7 191.262 201.7 192.562C201.7 194.363 201.1 195.763 199.9 196.764C198.7 197.764 197.1 198.264 195 198.264H191L190.1 202.766H188.6L191.5 188.461H196.6C198.2 188.461 199.4 188.861 200.3 189.561ZM198.8 195.863C199.7 195.163 200.1 194.063 200.1 192.662C200.1 191.762 199.8 190.962 199.1 190.562C198.5 190.061 197.5 189.861 196.3 189.861H192.5L191 197.064H194.8C196.7 196.964 197.9 196.564 198.8 195.863Z" fill="black"/>
<path d="M207.3 192.462C208 192.162 208.9 191.962 209.9 191.962L209.6 193.362H209.2C208 193.362 207.1 193.662 206.3 194.363C205.6 195.063 205.1 196.063 204.8 197.364L203.7 202.865H202.2L204.3 192.062H205.7L205.3 194.063C206 193.362 206.6 192.762 207.3 192.462Z" fill="black"/>
<path d="M212.2 202.365C211.5 201.965 210.9 201.465 210.5 200.765C210.1 200.065 209.9 199.264 209.9 198.364C209.9 197.164 210.2 196.063 210.7 195.063C211.2 194.063 212 193.362 212.9 192.762C213.8 192.162 214.9 191.962 216.1 191.962C217.6 191.962 218.8 192.362 219.7 193.162C220.6 193.963 221 195.063 221 196.463C221 197.664 220.7 198.764 220.2 199.764C219.7 200.765 218.9 201.465 218 202.065C217.1 202.665 216 202.865 214.8 202.865C213.8 202.965 213 202.765 212.2 202.365ZM217.3 200.965C218 200.565 218.6 199.965 219 199.164C219.4 198.364 219.6 197.564 219.6 196.563C219.6 195.463 219.3 194.663 218.7 194.063C218.1 193.462 217.2 193.162 216.1 193.162C215.2 193.162 214.4 193.362 213.7 193.863C213 194.363 212.4 194.863 212 195.663C211.6 196.463 211.4 197.264 211.4 198.264C211.4 199.364 211.7 200.165 212.3 200.765C212.9 201.365 213.8 201.665 214.9 201.665C215.8 201.665 216.6 201.365 217.3 200.965Z" fill="black"/>
<path d="M234.9 192.062L233 201.566C232.6 203.466 231.9 204.867 230.9 205.667C229.9 206.467 228.5 206.967 226.7 206.967C225.7 206.967 224.8 206.867 224 206.567C223.2 206.267 222.5 205.867 221.9 205.367L222.8 204.266C223.2 204.767 223.8 205.067 224.5 205.367C225.2 205.667 226 205.767 226.8 205.767C228.2 205.767 229.2 205.467 230 204.867C230.8 204.266 231.3 203.266 231.5 201.966L231.7 200.765C231.2 201.366 230.6 201.766 229.8 202.166C229.1 202.466 228.3 202.666 227.4 202.666C226 202.666 224.8 202.266 224 201.466C223.1 200.665 222.7 199.665 222.7 198.265C222.7 197.164 223 196.064 223.5 195.164C224 194.263 224.8 193.463 225.7 192.963C226.6 192.463 227.7 192.163 228.9 192.163C229.9 192.163 230.8 192.363 231.5 192.763C232.2 193.163 232.8 193.763 233.1 194.563L233.6 192.163H234.9V192.062ZM230.1 200.465C230.8 200.065 231.4 199.465 231.8 198.765C232.2 198.064 232.4 197.264 232.4 196.364C232.4 195.364 232.1 194.563 231.5 194.063C230.9 193.563 230 193.263 228.9 193.263C228 193.263 227.2 193.463 226.5 193.863C225.8 194.263 225.2 194.863 224.8 195.564C224.4 196.264 224.2 197.064 224.2 197.964C224.2 198.965 224.5 199.765 225.1 200.265C225.7 200.865 226.6 201.065 227.7 201.065C228.6 201.165 229.4 200.865 230.1 200.465Z" fill="black"/>
<path d="M241.2 192.462C241.9 192.162 242.8 191.962 243.8 191.962L243.5 193.362H243.1C241.9 193.362 241 193.662 240.2 194.363C239.5 195.063 239 196.063 238.7 197.364L237.6 202.865H236.1L238.2 192.062H239.6L239.2 194.063C239.9 193.362 240.5 192.762 241.2 192.462Z" fill="black"/>
<path d="M255.9 192.062L253.8 202.865H252.4L252.7 201.165C252.2 201.765 251.6 202.165 250.9 202.465C250.2 202.765 249.4 202.965 248.5 202.965C247.6 202.965 246.8 202.765 246.1 202.365C245.4 201.965 244.8 201.465 244.4 200.765C244 200.065 243.8 199.264 243.8 198.364C243.8 197.164 244.1 196.063 244.6 195.063C245.1 194.063 245.9 193.362 246.8 192.762C247.7 192.162 248.8 191.962 249.9 191.962C250.9 191.962 251.8 192.162 252.5 192.562C253.2 192.962 253.7 193.562 254 194.263L254.5 191.962H255.9V192.062ZM251.2 200.965C251.9 200.565 252.5 199.965 252.9 199.164C253.3 198.364 253.5 197.564 253.5 196.563C253.5 195.463 253.2 194.663 252.6 194.063C252 193.462 251.1 193.162 250 193.162C249.1 193.162 248.3 193.362 247.6 193.863C246.9 194.363 246.3 194.863 245.9 195.663C245.5 196.463 245.3 197.264 245.3 198.264C245.3 199.364 245.6 200.165 246.2 200.765C246.8 201.365 247.7 201.665 248.8 201.665C249.7 201.665 250.5 201.365 251.2 200.965Z" fill="black"/>
<path d="M275.5 192.862C276.2 193.462 276.5 194.363 276.5 195.363C276.5 195.663 276.5 196.063 276.4 196.663L275.2 202.765H273.7L274.9 196.663C275 196.363 275 196.063 275 195.663C275 194.863 274.8 194.263 274.3 193.863C273.8 193.462 273.2 193.262 272.3 193.262C271.2 193.262 270.3 193.562 269.6 194.163C268.9 194.763 268.4 195.663 268.1 196.864L266.9 202.765H265.4L266.6 196.663C266.7 196.263 266.7 195.963 266.7 195.663C266.7 194.863 266.5 194.263 266 193.863C265.6 193.462 264.9 193.262 264 193.262C262.9 193.262 262 193.562 261.3 194.263C260.6 194.863 260.1 195.863 259.8 197.064L258.7 202.865H257.2L259.3 192.062H260.7L260.4 193.763C261.4 192.562 262.7 191.962 264.5 191.962C265.4 191.962 266.2 192.162 266.8 192.562C267.4 192.962 267.8 193.462 268.1 194.163C268.6 193.462 269.3 192.962 270.1 192.562C270.9 192.162 271.7 192.062 272.7 192.062C273.9 191.962 274.8 192.262 275.5 192.862Z" fill="black"/>
<path d="M290.7 192.062L288.6 202.865H287.2L287.5 201.165C287 201.765 286.4 202.165 285.7 202.465C285 202.765 284.2 202.965 283.3 202.965C282.4 202.965 281.6 202.765 280.9 202.365C280.2 201.965 279.6 201.465 279.2 200.765C278.8 200.065 278.6 199.264 278.6 198.364C278.6 197.164 278.9 196.063 279.4 195.063C279.9 194.063 280.7 193.362 281.6 192.762C282.5 192.162 283.6 191.962 284.7 191.962C285.7 191.962 286.6 192.162 287.3 192.562C288 192.962 288.5 193.562 288.8 194.263L289.3 191.962H290.7V192.062ZM286 200.965C286.7 200.565 287.3 199.965 287.7 199.164C288.1 198.364 288.3 197.564 288.3 196.563C288.3 195.463 288 194.663 287.4 194.063C286.8 193.462 285.9 193.162 284.8 193.162C283.9 193.162 283.1 193.362 282.4 193.863C281.7 194.263 281.1 194.863 280.7 195.663C280.3 196.463 280.1 197.264 280.1 198.264C280.1 199.364 280.4 200.165 281 200.765C281.6 201.365 282.5 201.665 283.6 201.665C284.5 201.665 285.3 201.365 286 200.965Z" fill="black"/>
<path d="M310.8 187.661L307.8 202.866H306.4L306.7 201.165C306.2 201.765 305.6 202.165 304.9 202.465C304.2 202.765 303.4 202.966 302.5 202.966C301.6 202.966 300.8 202.765 300.1 202.365C299.4 201.965 298.8 201.465 298.4 200.765C298 200.065 297.8 199.264 297.8 198.364C297.8 197.164 298.1 196.063 298.6 195.063C299.1 194.063 299.9 193.362 300.8 192.762C301.7 192.162 302.8 191.962 303.9 191.962C304.9 191.962 305.8 192.162 306.5 192.562C307.2 192.962 307.7 193.562 308 194.263L309.3 187.561H310.8V187.661ZM305.2 200.965C305.9 200.565 306.5 199.965 306.9 199.164C307.3 198.364 307.5 197.564 307.5 196.563C307.5 195.463 307.2 194.663 306.6 194.063C306 193.462 305.1 193.162 304 193.162C303.1 193.162 302.3 193.362 301.6 193.863C300.9 194.363 300.3 194.863 299.9 195.663C299.5 196.463 299.3 197.264 299.3 198.264C299.3 199.364 299.6 200.165 300.2 200.765C300.8 201.365 301.7 201.665 302.8 201.665C303.7 201.665 304.5 201.365 305.2 200.965Z" fill="black"/>
<path d="M312.9 197.864C312.9 197.964 312.9 198.064 312.9 198.264C312.9 199.365 313.2 200.165 313.8 200.765C314.4 201.365 315.3 201.665 316.6 201.665C317.3 201.665 318 201.565 318.6 201.265C319.2 201.065 319.7 200.665 320.1 200.265L320.8 201.265C320.3 201.765 319.7 202.166 318.9 202.466C318.1 202.766 317.3 202.866 316.5 202.866C314.9 202.866 313.7 202.466 312.8 201.665C311.9 200.865 311.5 199.765 311.5 198.264C311.5 197.064 311.8 195.964 312.3 194.963C312.8 193.963 313.5 193.263 314.4 192.663C315.3 192.062 316.3 191.862 317.5 191.862C318.9 191.862 320.1 192.262 320.9 193.063C321.7 193.863 322.2 194.963 322.2 196.364C322.2 196.764 322.2 197.164 322.1 197.664H312.9V197.864ZM314.6 194.163C313.8 194.763 313.3 195.664 313 196.764H320.7C320.7 196.664 320.7 196.564 320.7 196.364C320.7 195.363 320.4 194.563 319.8 194.063C319.2 193.563 318.4 193.263 317.3 193.263C316.2 193.163 315.3 193.563 314.6 194.163Z" fill="black"/>
<path d="M334.1 189.262C333.7 189.562 333.5 190.162 333.3 190.862L333 192.062H336.3L336.1 193.263H332.8L330.9 202.766H329.4L331.3 193.263H329.4L329.6 192.062H331.5L331.8 190.662C332 189.662 332.4 188.861 333 188.261C333.6 187.661 334.4 187.461 335.4 187.461C335.8 187.461 336.2 187.561 336.6 187.661C337 187.761 337.3 187.961 337.5 188.161L336.9 189.262C336.5 188.861 336 188.761 335.4 188.761C334.9 188.761 334.4 188.961 334.1 189.262Z" fill="black"/>
<path d="M338.2 202.365C337.5 201.965 336.9 201.465 336.5 200.765C336.1 200.065 335.9 199.264 335.9 198.364C335.9 197.164 336.2 196.063 336.7 195.063C337.2 194.063 338 193.362 338.9 192.762C339.8 192.162 340.9 191.962 342.1 191.962C343.6 191.962 344.8 192.362 345.7 193.162C346.6 193.963 347 195.063 347 196.463C347 197.664 346.7 198.764 346.2 199.764C345.7 200.765 344.9 201.465 344 202.065C343.1 202.665 342 202.865 340.8 202.865C339.8 202.965 339 202.765 338.2 202.365ZM343.3 200.965C344 200.565 344.6 199.965 345 199.164C345.4 198.364 345.6 197.564 345.6 196.563C345.6 195.463 345.3 194.663 344.7 194.063C344.1 193.462 343.2 193.162 342.1 193.162C341.2 193.162 340.4 193.362 339.7 193.863C339 194.363 338.4 194.863 338 195.663C337.6 196.463 337.4 197.264 337.4 198.264C337.4 199.364 337.7 200.165 338.3 200.765C338.9 201.365 339.8 201.665 340.9 201.665C341.8 201.665 342.6 201.365 343.3 200.965Z" fill="black"/>
<path d="M353.5 192.462C354.2 192.162 355.1 191.962 356.1 191.962L355.8 193.362H355.4C354.2 193.362 353.3 193.662 352.5 194.363C351.8 195.063 351.3 196.063 351 197.364L349.9 202.865H348.4L350.5 192.062H351.9L351.5 194.063C352.1 193.362 352.7 192.762 353.5 192.462Z" fill="black"/>
<path d="M374.3 192.862C375 193.462 375.3 194.363 375.3 195.363C375.3 195.663 375.3 196.063 375.2 196.663L374 202.765H372.5L373.7 196.663C373.8 196.363 373.8 196.063 373.8 195.663C373.8 194.863 373.6 194.263 373.1 193.863C372.6 193.462 372 193.262 371.1 193.262C370 193.262 369.1 193.562 368.4 194.163C367.7 194.763 367.2 195.663 366.9 196.864L365.7 202.765H364.2L365.4 196.663C365.5 196.263 365.5 195.963 365.5 195.663C365.5 194.863 365.3 194.263 364.8 193.863C364.4 193.462 363.7 193.262 362.8 193.262C361.7 193.262 360.8 193.562 360.1 194.263C359.4 194.863 358.9 195.863 358.6 197.064L357.5 202.865H356L358.1 192.062H359.5L359.2 193.763C360.2 192.562 361.5 191.962 363.3 191.962C364.2 191.962 365 192.162 365.6 192.562C366.2 192.962 366.6 193.462 366.9 194.163C367.4 193.462 368.1 192.962 368.9 192.562C369.7 192.162 370.5 192.062 371.5 192.062C372.7 191.962 373.6 192.262 374.3 192.862Z" fill="black"/>
<path d="M389.5 192.062L387.4 202.865H386L386.3 201.165C385.8 201.765 385.2 202.165 384.5 202.465C383.8 202.765 383 202.965 382.1 202.965C381.2 202.965 380.4 202.765 379.7 202.365C379 201.965 378.4 201.465 378 200.765C377.6 200.065 377.4 199.264 377.4 198.364C377.4 197.164 377.7 196.063 378.2 195.063C378.7 194.063 379.5 193.362 380.4 192.762C381.3 192.162 382.4 191.962 383.5 191.962C384.5 191.962 385.4 192.162 386.1 192.562C386.8 192.962 387.3 193.562 387.6 194.263L388.1 191.962H389.5V192.062ZM384.8 200.965C385.5 200.565 386.1 199.965 386.5 199.164C386.9 198.364 387.1 197.564 387.1 196.563C387.1 195.463 386.8 194.663 386.2 194.063C385.6 193.462 384.7 193.162 383.6 193.162C382.7 193.162 381.9 193.362 381.2 193.863C380.5 194.263 379.9 194.863 379.5 195.663C379.1 196.463 378.9 197.264 378.9 198.264C378.9 199.364 379.2 200.165 379.8 200.765C380.4 201.365 381.3 201.665 382.4 201.665C383.3 201.665 384.1 201.365 384.8 200.965Z" fill="black"/>
<path d="M393.3 202.365C392.5 201.965 392 201.465 391.6 200.765C391.2 200.065 391 199.264 391 198.364C391 197.164 391.3 196.063 391.8 195.063C392.3 194.063 393.1 193.362 394 192.762C395 192.162 396 191.962 397.2 191.962C398.2 191.962 399.1 192.162 399.8 192.462C400.5 192.862 401.1 193.362 401.5 194.063L400.3 194.763C399.7 193.662 398.6 193.162 397.2 193.162C396.3 193.162 395.5 193.362 394.8 193.863C394.1 194.263 393.5 194.863 393.1 195.663C392.7 196.463 392.5 197.264 392.5 198.264C392.5 199.364 392.8 200.165 393.4 200.765C394 201.365 394.9 201.665 396.1 201.665C396.8 201.665 397.4 201.565 398 201.265C398.6 200.965 399.1 200.565 399.5 200.065L400.5 200.865C400 201.465 399.4 201.965 398.6 202.365C397.8 202.765 396.9 202.865 396 202.865C394.9 202.965 394 202.765 393.3 202.365Z" fill="black"/>
<path d="M404.3 192.062H405.8L403.7 202.866H402.2L404.3 192.062ZM405 189.361C404.8 189.161 404.7 188.961 404.7 188.661C404.7 188.361 404.8 188.061 405 187.861C405.2 187.661 405.5 187.561 405.8 187.561C406.1 187.561 406.3 187.661 406.5 187.861C406.7 188.061 406.8 188.261 406.8 188.461C406.8 188.761 406.7 189.061 406.5 189.261C406.3 189.461 406 189.561 405.7 189.561C405.4 189.661 405.2 189.561 405 189.361Z" fill="black"/>
<path d="M409.5 202.366C408.8 201.966 408.2 201.466 407.8 200.765C407.4 200.065 407.2 199.265 407.2 198.365C407.2 197.164 407.5 196.064 408 195.064C408.5 194.063 409.3 193.363 410.2 192.763C411.1 192.163 412.2 191.963 413.4 191.963C414.9 191.963 416.1 192.363 417 193.163C417.9 193.963 418.3 195.064 418.3 196.464C418.3 197.664 418 198.765 417.5 199.765C417 200.765 416.2 201.466 415.3 202.066C414.4 202.666 413.3 202.866 412.1 202.866C411.1 202.966 410.3 202.766 409.5 202.366ZM414.6 200.966C415.3 200.565 415.9 199.965 416.3 199.165C416.7 198.365 416.9 197.564 416.9 196.564C416.9 195.464 416.6 194.664 416 194.063C415.4 193.463 414.5 193.163 413.4 193.163C412.5 193.163 411.7 193.363 411 193.863C410.3 194.263 409.7 194.864 409.3 195.664C408.9 196.464 408.7 197.264 408.7 198.265C408.7 199.365 409 200.165 409.6 200.765C410.2 201.366 411.1 201.666 412.2 201.666C413.1 201.666 413.9 201.366 414.6 200.966ZM415.9 187.861H417.9L414.3 190.362H412.8L415.9 187.861Z" fill="black"/>
<path d="M430.1 192.862C430.8 193.462 431.1 194.363 431.1 195.463C431.1 195.863 431.1 196.263 431 196.663L429.8 202.765H428.3L429.5 196.663C429.6 196.263 429.6 195.963 429.6 195.663C429.6 194.863 429.4 194.263 428.9 193.863C428.4 193.462 427.7 193.262 426.8 193.262C425.6 193.262 424.7 193.562 423.9 194.263C423.1 194.863 422.6 195.863 422.4 197.064L421.3 202.865H419.8L422 192.062H423.4L423.1 193.763C424.1 192.562 425.5 191.962 427.3 191.962C428.4 191.962 429.4 192.262 430.1 192.862Z" fill="black"/>
<path d="M77.5002 33.1106C68.9002 20.4064 56.8002 38.8124 50.7002 51.3164C49.1002 42.9137 46.0002 34.2109 40.2002 28.5091C33.7002 22.207 24.1002 24.2077 20.9002 32.7104C17.2002 42.6136 22.5002 55.8179 27.2002 64.6208C32.9002 75.2242 41.1002 84.027 50.3002 91.4294C52.8002 93.4301 64.9002 67.8218 70.7002 58.0186C74.8002 51.2164 83.1002 41.2132 77.5002 33.1106Z" fill="#E6875E"/>
<path d="M372.6 130.442C371 128.041 368.7 131.542 367.5 133.843C367.2 132.243 366.6 130.642 365.5 129.542C364.3 128.341 362.5 128.741 361.8 130.342C361.1 132.243 362.1 134.743 363 136.344C364.1 138.345 365.6 140.045 367.4 141.346C367.9 141.746 370.2 136.844 371.3 135.043C372.1 133.843 373.7 131.942 372.6 130.442Z" fill="white"/>
<path d="M76.1996 145.946C76.0996 144.246 68.5996 149.148 68.5996 149.148C68.5996 149.148 74.8996 144.246 74.3996 143.046C73.8996 141.845 66.6996 147.147 66.6996 147.147C66.6996 147.147 73.1996 142.145 72.1996 141.045C71.1996 139.945 64.2996 145.646 64.2996 145.646C64.2996 145.646 71.3996 139.444 68.6996 139.244C67.4996 139.144 57.9996 145.646 47.5996 153.449C50.4996 157.05 53.3996 160.551 56.4996 163.952C59.7996 160.551 62.3996 157.85 62.7996 157.35C63.8996 155.95 74.3996 156.85 74.3996 155.249C74.3996 153.649 67.4996 152.849 67.4996 152.849C67.4996 152.849 76.2996 147.547 76.1996 145.946Z" fill="white"/>
<path d="M76.0997 145.347C75.3997 145.047 73.6997 145.747 71.9997 146.647C73.5997 145.247 74.8997 143.646 74.5997 142.846C74.4997 142.646 74.3997 142.546 74.1997 142.546C73.5997 142.346 72.2997 143.046 70.9997 143.846C71.8997 142.946 72.5997 142.046 72.5997 141.446C72.5997 141.245 72.5997 141.045 72.3997 140.845C71.7997 140.145 69.7997 141.246 67.7997 142.546C68.8997 141.346 69.6997 140.145 69.3997 139.445C69.2997 139.145 68.8997 138.845 68.5997 138.845H68.4997C66.7997 138.845 54.8997 147.347 47.2997 153.049C47.1997 153.149 47.1997 153.149 47.1997 153.249C47.1997 153.349 47.1997 153.449 47.2997 153.449C47.3997 153.549 47.3997 153.65 47.4997 153.65C50.5997 157.551 53.3997 160.752 55.9997 163.653C56.0997 163.753 56.0997 163.853 56.1997 163.853C56.2997 163.953 56.3997 163.953 56.3997 163.953C56.4997 163.953 56.4997 163.953 56.5997 163.853C60.4997 159.751 62.4997 157.751 62.8997 157.251C63.2997 156.751 66.0997 156.55 68.3997 156.45C72.2997 156.25 74.6997 156.05 74.6997 154.95C74.6997 153.349 70.6997 152.649 68.3997 152.349C70.7997 150.849 76.4997 147.347 76.4997 145.747C76.4997 145.647 76.3997 145.447 76.0997 145.347ZM67.4997 152.249C67.3997 152.349 67.2997 152.349 67.2997 152.449C67.1997 152.549 67.0997 152.649 67.0997 152.749C67.0997 152.849 67.1997 152.949 67.3997 153.049H67.4997C70.6997 153.449 73.9997 154.25 73.9997 155.15C73.9997 155.75 70.2997 155.95 68.3997 156.05C65.0997 156.25 62.9997 156.35 62.4997 157.051C62.2997 157.351 61.0997 158.651 56.4997 163.353C53.7997 160.452 51.1997 157.351 48.0997 153.449C59.4997 144.847 67.5997 139.545 68.5997 139.545C68.6997 139.545 68.8997 139.545 68.8997 139.645V139.745C68.8997 140.545 66.3997 143.246 63.9997 145.347C63.8997 145.447 63.8997 145.647 63.9997 145.747C64.0997 145.847 64.2997 145.947 64.4997 145.847C67.9997 143.046 71.5997 140.845 71.9997 141.245V141.346C71.8997 142.346 68.5997 145.247 66.4997 146.847C66.3997 146.947 66.2997 147.147 66.3997 147.347C66.4997 147.448 66.6997 147.548 66.8997 147.448C70.2997 144.947 73.5997 142.946 74.0997 143.246C74.2997 143.746 71.6997 146.447 68.3997 148.948C68.2997 149.048 68.2997 149.248 68.2997 149.348C68.3997 149.548 68.5997 149.548 68.7997 149.448C71.8997 147.448 74.8997 145.947 75.6997 145.947C75.7997 145.947 75.7997 145.947 75.8997 145.947C75.8997 146.847 71.6997 149.848 67.4997 152.249Z" fill="#231F20"/>
<path d="M19.7997 178.158C17.6997 184.86 30.4997 215.87 30.4997 215.87L46.3997 196.263C45.9997 195.663 37.9997 181.659 37.9997 181.659C37.9997 181.659 49.7997 170.655 56.4997 163.853C53.3997 160.452 50.4997 156.951 47.5997 153.35C34.8997 162.953 20.9997 174.456 19.7997 178.158Z" fill="#231F20"/>
<path d="M56.6996 163.752C56.6996 163.652 56.6996 163.652 56.6996 163.752C53.8996 160.751 51.0996 157.45 47.7996 153.349C47.7996 153.349 47.7996 153.349 47.7996 153.249C47.6996 153.149 47.4996 153.049 47.3996 153.149C40.9996 157.95 34.3996 163.252 29.0996 167.754C23.8996 172.355 20.0996 176.156 19.4996 178.057C17.8996 183.059 24.2996 200.964 27.8996 210.267C29.0996 213.468 29.9996 215.669 30.1996 215.969C30.1996 216.069 30.2996 216.169 30.3996 216.169H30.4996C30.5996 216.169 30.6996 216.169 30.7996 216.069L46.6996 196.463C46.7996 196.363 46.7996 196.263 46.6996 196.063C46.5996 195.863 45.5996 194.162 44.3996 191.961C42.1996 188.16 39.0996 182.758 38.4996 181.658C39.9996 180.258 50.6996 170.354 56.6996 164.052C56.7996 164.052 56.7996 163.852 56.6996 163.752ZM55.9996 163.852C49.3996 170.554 37.8996 181.258 37.7996 181.458C37.6996 181.558 37.6996 181.658 37.7996 181.858L37.9996 182.258L43.8996 192.562L45.9996 196.263L30.5996 215.269C30.1996 214.369 29.3996 212.368 28.3996 209.767C25.1996 201.364 19.8996 186.56 19.8996 180.158C19.8996 179.357 19.9996 178.757 20.0996 178.257C21.2996 174.656 35.4996 162.852 47.4996 153.849C50.6996 157.85 53.3996 160.951 55.9996 163.852Z" fill="#231F20"/>
<path d="M57.5996 210.268C58.8996 219.271 64.8996 226.873 71.3996 233.875C75.2996 237.977 80.0996 242.178 85.7996 241.978C88.4996 241.878 91.0996 240.678 93.4996 239.377C99.3996 236.076 104.8 231.775 109.2 226.573C107.4 226.573 105.9 225.173 105.7 223.472C108.1 224.572 110.9 224.272 112.9 222.672C117.3 219.171 115.2 216.07 111.8 213.469C106.5 209.367 102.3 204.066 99.5996 197.964C95.3996 188.561 86.9996 175.957 74.5996 178.758C62.6996 181.558 59.3996 192.262 57.7996 202.865C57.1996 205.266 57.1996 207.767 57.5996 210.268Z" fill="white"/>
<path d="M111.8 212.968C106.6 208.967 102.4 203.665 99.6996 197.663C99.2996 196.863 98.8996 196.063 98.5996 195.263C98.2996 194.662 97.9996 194.062 97.6996 193.562C90.8996 180.858 83.3996 177.957 77.8996 177.957C77.1996 177.957 76.5996 178.057 75.8996 178.057C75.2996 178.157 74.7996 178.257 74.2996 178.357C68.9996 179.458 64.3996 182.859 61.7996 187.56C59.0996 192.262 57.8996 198.064 57.1996 202.665C56.8996 204.866 56.7996 207.166 56.9996 209.367C56.9996 209.667 57.0996 209.967 57.0996 210.267C57.2996 211.768 57.6996 213.268 58.0996 214.669C58.1996 214.969 58.2996 215.169 58.3996 215.469C58.8996 216.87 59.4996 218.27 60.1996 219.571C60.2996 219.771 60.3996 219.871 60.3996 220.071C60.4996 220.271 60.5996 220.371 60.5996 220.571C60.6996 220.671 60.6996 220.771 60.7996 220.871C60.8996 220.971 60.8996 221.071 60.9996 221.171C63.6996 225.973 67.3996 230.174 70.9996 233.975C71.0996 234.075 71.1996 234.175 71.2996 234.275C71.3996 234.375 71.4996 234.475 71.4996 234.475C71.5996 234.575 71.6996 234.675 71.7996 234.775C72.6996 235.676 73.5996 236.576 74.5996 237.376C74.6996 237.476 74.7996 237.576 74.8996 237.676C74.9996 237.776 75.0996 237.776 75.0996 237.876C77.9996 240.277 81.2996 242.078 84.9996 242.078H85.4996C88.3996 241.978 91.0996 240.677 93.2996 239.377C95.2996 238.277 97.1996 237.076 98.9996 235.776C102.7 233.075 106.1 229.974 109.1 226.573C109.2 226.473 109.2 226.373 109.1 226.173C109 226.073 108.9 225.973 108.8 225.973C107.4 225.973 106.1 225.072 105.7 223.672C108 224.572 110.7 224.072 112.7 222.571C114.5 221.171 115.3 219.671 115.3 218.27C115.6 216.67 114.4 214.969 111.8 212.968ZM105.7 222.972C105.6 222.872 105.5 222.872 105.4 222.972C105.3 223.072 105.3 223.172 105.3 223.272C105.5 224.972 106.8 226.373 108.5 226.673C105.6 229.974 102.3 232.975 98.5996 235.576C96.8996 236.776 95.0996 237.876 93.2996 238.877C91.0996 240.077 88.4996 241.378 85.7996 241.478C81.8996 241.678 78.4996 239.777 75.4996 237.176C75.3996 237.076 75.2996 237.076 75.2996 236.976C75.1996 236.876 75.0996 236.776 74.9996 236.776C74.1996 236.076 73.3996 235.276 72.6996 234.575C72.5996 234.475 72.5996 234.375 72.4996 234.375C72.3996 234.275 72.3996 234.275 72.2996 234.175C72.0996 233.975 71.9996 233.775 71.7996 233.675C68.7996 230.474 65.6996 226.873 63.1996 223.072C62.6996 222.271 62.1996 221.471 61.6996 220.671C61.5996 220.571 61.5996 220.471 61.4996 220.371C61.3996 220.271 61.3996 220.171 61.2996 220.071C61.1996 219.971 61.1996 219.871 61.0996 219.771C60.9996 219.571 60.8996 219.47 60.8996 219.37C60.7996 219.27 60.6996 219.07 60.6996 218.97C60.0996 217.77 59.5996 216.57 59.1996 215.369C59.0996 215.069 58.9996 214.869 58.9996 214.569C58.6996 213.469 58.3996 212.368 58.1996 211.268C58.1996 211.068 58.0996 210.868 58.0996 210.668C57.6996 208.167 57.7996 205.666 58.0996 203.265C59.7996 192.462 62.8996 182.158 74.6996 179.458C74.9996 179.357 75.2996 179.357 75.5996 179.257C76.1996 179.157 76.8996 179.057 77.4996 179.057C77.6996 179.057 77.7996 179.057 77.9996 179.057C83.2996 179.057 90.7996 181.958 97.4996 194.863C97.7996 195.463 98.0996 195.963 98.3996 196.563C98.6996 197.163 98.9996 197.763 99.2996 198.464C102.1 204.566 106.3 209.967 111.6 214.069C113.9 215.869 115.1 217.47 115.1 218.97C115.1 220.271 114.3 221.471 112.7 222.772C110.6 223.772 107.9 224.072 105.7 222.972Z" fill="#231F20"/>
<path d="M140 238.477C139.5 240.478 131.2 255.283 131.2 255.283L142 261.184C142 261.184 151.8 244.779 152.6 243.679C153.4 242.578 160.5 233.075 161.5 229.774C162.5 226.473 155.6 223.972 152.8 224.272C150.1 224.573 140.5 236.476 140 238.477Z" fill="white"/>
<path d="M161.2 227.274C160.8 226.773 160.3 226.373 159.6 225.973C159.5 225.873 159.4 225.873 159.3 225.773C159.2 225.673 159.1 225.673 159 225.573C158.8 225.473 158.5 225.373 158.3 225.273C158.2 225.173 158.1 225.173 158 225.073C157.9 224.973 157.8 224.973 157.7 224.973C156 224.273 154.1 223.972 152.9 224.072C152.1 224.172 150.8 225.073 149.3 226.473C149.2 226.573 149 226.673 148.9 226.873C148.8 226.973 148.6 227.173 148.5 227.274C148.2 227.574 147.9 227.874 147.5 228.274C147.4 228.374 147.3 228.474 147.2 228.674C147.1 228.774 147 228.874 146.9 228.974C146.6 229.274 146.4 229.574 146.1 229.874C146 229.974 145.9 230.074 145.8 230.274C145.7 230.375 145.6 230.475 145.5 230.675C145.5 230.675 145.5 230.675 145.5 230.775C142.6 234.076 140.1 237.677 139.8 238.677C139.8 238.777 139.7 238.877 139.7 239.077C139.6 239.177 139.6 239.377 139.5 239.577C139.4 239.778 139.3 239.878 139.3 240.078C138.7 241.278 137.8 243.079 136.7 245.179C136.5 245.679 136.2 246.08 135.9 246.58C135.7 247.08 135.4 247.58 135.1 247.98C133.7 250.681 132.1 253.382 131 255.383C131 255.483 131 255.583 131 255.583C131 255.683 131.1 255.783 131.2 255.783L142 261.685L142.1 261.785C142.2 261.785 142.3 261.685 142.3 261.685C142.3 261.685 143 260.484 144.1 258.784C144.1 258.784 144.1 258.784 144.1 258.684C144.7 257.583 145.5 256.383 146.3 254.982C147 253.782 147.7 252.582 148.4 251.481C149.8 249.181 151.2 246.88 152 245.579C152.1 245.479 152.1 245.379 152.2 245.279C152.3 245.179 152.3 245.079 152.4 244.979C152.6 244.579 152.8 244.379 152.9 244.279C152.9 244.279 153.6 243.379 154.6 241.978C154.7 241.878 154.8 241.778 154.8 241.678C154.9 241.578 155 241.478 155 241.278C155.8 240.178 156.6 238.977 157.5 237.677C157.6 237.477 157.7 237.377 157.8 237.177C157.9 236.977 158 236.877 158.1 236.677C158.3 236.276 158.6 235.976 158.8 235.576C158.9 235.376 159 235.176 159.1 235.076C159.2 234.876 159.3 234.776 159.4 234.576C160.5 232.875 161.3 231.275 161.6 230.274C162.1 228.974 161.9 227.974 161.2 227.274ZM161.3 229.674C161.1 230.475 160.5 231.675 159.7 232.975C159.6 233.175 159.5 233.275 159.4 233.476C159.3 233.676 159.2 233.876 159.1 234.076C158.9 234.476 158.6 234.876 158.4 235.176C158.3 235.376 158.2 235.576 158.1 235.676C158 235.776 157.9 235.976 157.8 236.176C156.7 237.877 155.5 239.477 154.5 240.878C154.4 240.978 154.3 241.078 154.3 241.278C154.2 241.378 154.1 241.478 154.1 241.578C153.5 242.378 153 242.979 152.7 243.479C152.6 243.579 152.3 244.079 151.9 244.679C151.8 244.779 151.8 244.879 151.7 244.979C151.6 245.079 151.6 245.179 151.5 245.279C150.7 246.58 149.5 248.58 148.2 250.681C148.1 250.781 148.1 250.881 148 250.981C147.9 251.081 147.9 251.181 147.8 251.281C145.4 255.383 142.8 259.684 142.1 260.884L131.9 255.283C132.6 254.082 135.1 249.481 137.3 245.479C137.3 245.379 137.4 245.279 137.4 245.179C137.4 245.079 137.5 244.979 137.5 244.879C138.4 243.179 139.2 241.578 139.8 240.378C139.8 240.278 139.9 240.178 139.9 240.178C139.9 240.078 140 239.978 140 239.978C140.3 239.377 140.4 238.977 140.5 238.777C140.7 237.977 142.7 235.276 145 232.375C145.1 232.275 145.2 232.175 145.3 232.075C145.4 231.975 145.4 231.875 145.5 231.775C145.5 231.775 145.5 231.775 145.6 231.675C145.7 231.575 145.8 231.475 145.9 231.375C145.9 231.375 145.9 231.375 146 231.275C146.1 231.175 146.2 231.075 146.3 230.875L147.1 229.974C147.2 229.874 147.3 229.774 147.4 229.674C147.5 229.574 147.6 229.474 147.7 229.274C148.4 228.474 149.1 227.774 149.7 227.173C149.8 227.073 150 226.873 150.1 226.773C150.2 226.673 150.3 226.573 150.5 226.473C151.6 225.473 152.6 224.773 153.2 224.673C154.3 224.573 156.2 224.973 157.8 225.673C157.9 225.673 158 225.773 158.1 225.873C158.2 225.873 158.3 225.973 158.4 225.973C158.6 226.073 158.9 226.173 159.1 226.373C159.2 226.473 159.3 226.473 159.4 226.573C159.5 226.673 159.6 226.673 159.7 226.773C160.1 227.073 160.5 227.374 160.8 227.774C161.3 228.174 161.5 228.974 161.3 229.674Z" fill="#231F20"/>
<path d="M136.9 244.879L127.2 256.683L106.3 242.679L97.3999 259.184C97.3999 259.184 127 281.391 131.1 279.291C135.3 277.19 148 250.981 148 250.981L136.9 244.879Z" fill="#231F20"/>
<path d="M148.3 250.781L148 250.581L137.3 244.779L137 244.679C136.9 244.579 136.7 244.579 136.6 244.779L136.5 244.979L127.1 256.383L115.5 248.58L106.5 242.478C106.4 242.378 106.3 242.378 106.3 242.478C106.2 242.478 106.1 242.578 106.1 242.678L97.1996 259.084C97.0996 259.184 97.1996 259.384 97.2996 259.484C98.0996 260.084 100.6 261.985 103.9 264.285C112.4 270.387 126.1 279.69 130.5 279.69C130.8 279.69 131 279.69 131.3 279.59C135.5 277.49 147.8 252.181 148.3 251.181C148.5 250.981 148.4 250.881 148.3 250.781ZM146.1 254.382C145.5 255.483 144.8 256.883 144.1 258.383V258.484C140 266.386 133.8 277.69 131.2 279.09C128.6 280.391 114.3 270.988 104.4 263.885C101.9 262.085 99.6996 260.484 97.9996 259.184L106.6 243.179L115.3 248.98L127.2 256.983C127.3 257.083 127.5 256.983 127.6 256.883L127.9 256.583L135.1 247.78L136.3 246.38L137.2 245.379H137.3L147.9 251.181C147.5 251.681 146.9 252.782 146.1 254.382Z" fill="#231F20"/>
<path d="M145.8 216.069L145.7 244.879H159.3V216.069H145.8Z" fill="#231F20"/>
<path d="M159.3 215.67H145.7C145.5 215.67 145.4 215.77 145.4 215.97V226.874V227.574V230.375V231.575V233.076V236.277V237.377V244.879C145.4 245.079 145.5 245.179 145.7 245.179H159.4C159.6 245.179 159.7 244.979 159.7 244.879V216.07C159.6 215.87 159.5 215.67 159.3 215.67ZM159 244.579H146V231.675V230.675V230.175V226.774V216.27H159V244.579Z" fill="#231F20"/>
<path d="M147.2 218.57L147.1 241.278H157.9V218.57H147.2Z" fill="white"/>
<path d="M158 218.271H147.2C147 218.271 146.9 218.371 146.9 218.571V226.673V229.874V230.875V231.575V241.378C146.9 241.478 146.9 241.578 147 241.578C147.1 241.678 147.2 241.678 147.2 241.678H158C158.2 241.678 158.3 241.578 158.3 241.378V218.671C158.3 218.371 158.1 218.271 158 218.271ZM157.6 240.878H147.4V231.275V228.674V228.174V226.573V218.871H157.5V240.878H157.6Z" fill="#231F20"/>
<path d="M139.4 239.978C139.4 239.978 137.4 230.275 140.4 228.774C143.4 227.274 154 225.473 152.3 227.874C150.7 230.275 145 231.775 145 231.775C145 231.775 146.2 235.176 144.9 237.577L139.4 239.978Z" fill="white"/>
<path d="M139.4 240.278C139.2 240.278 139.1 240.178 139.1 239.978C139 239.577 137 229.974 140.3 228.374C142.9 227.073 151.4 225.373 152.7 226.773C153 227.073 153 227.574 152.7 227.874C151.3 230.074 146.8 231.375 145.5 231.775C145.8 232.675 146.4 235.476 145.3 237.577C145.2 237.777 145 237.777 144.9 237.677C144.7 237.577 144.7 237.377 144.8 237.277C146 234.976 144.9 231.775 144.9 231.775C144.9 231.675 144.9 231.575 144.9 231.475C144.9 231.375 145 231.375 145.1 231.275C145.2 231.275 150.7 229.874 152.2 227.574C152.3 227.373 152.3 227.273 152.3 227.273C151.5 226.373 143.6 227.574 140.7 228.974C138.4 230.174 139.3 237.177 139.9 239.878C139.8 240.178 139.7 240.278 139.4 240.278C139.5 240.378 139.5 240.378 139.4 240.278Z" fill="#231F20"/>
<path d="M118.8 244.079L115.6 248.481L115.2 248.981L104.3 263.786L104.1 263.986L103.9 264.286L101.2 267.987L86.6997 260.084L86.1997 259.784C86.0997 259.884 85.9997 260.084 85.8997 260.284C85.1997 261.285 84.4997 262.885 83.6997 264.786C82.9997 266.386 82.1997 268.287 81.5997 269.988C80.4997 272.888 79.4997 275.489 78.9997 276.99C78.8997 277.29 78.7997 277.49 78.7997 277.69C78.6997 277.89 78.6997 278.09 78.6997 278.09L98.9997 308.9H39.9997C33.3997 308.9 27.1997 307.4 21.6997 304.599C21.6997 302.398 21.7997 300.297 21.8997 298.197C21.8997 297.897 21.8997 297.696 21.8997 297.396C23.0997 261.185 29.5997 239.178 32.1997 231.675C32.2997 231.275 32.3997 230.975 32.5997 230.675C33.0997 229.474 33.2997 228.774 33.2997 228.774L25.7997 212.569L27.8997 210.168L28.1997 209.868L28.3997 209.668L43.8997 192.462L44.0997 192.262L44.2997 192.062L45.8997 190.262L56.9997 209.368L57.3997 210.068L57.8997 210.868L59.3997 213.469L59.7997 214.169L61.0997 216.47L61.2997 216.87L61.4997 217.27L62.0997 218.371L62.2997 218.671L62.4997 218.971L63.9997 221.072L70.8997 223.973L71.6997 224.373L72.8997 224.873L76.0997 226.273L76.2997 226.373H76.3997H76.4997L76.5997 226.473H76.6997L76.7997 226.573L98.3997 235.676L98.7997 235.876L99.1997 235.977L118.8 244.079Z" fill="black"/>
<path d="M63.6997 250.581C73.5997 256.383 75.9997 232.875 76.3997 227.774C76.5997 226.373 76.4997 224.973 76.1997 223.572C75.5997 221.872 74.2997 220.471 72.9997 219.271C71.3997 217.87 69.5997 216.27 67.3997 216.17C65.2997 216.17 63.3997 217.17 62.1997 218.871C60.9997 220.571 60.1997 222.372 59.6997 224.373C57.3997 232.575 57.3997 241.178 61.9997 248.58C62.3997 249.281 62.8997 249.881 63.5997 250.381L63.6997 250.581Z" fill="#231F20"/>
<path d="M76.7996 225.873C76.7996 225.673 76.7996 225.473 76.7996 225.273C76.7996 225.173 76.7996 224.973 76.7996 224.873C76.7996 224.773 76.7996 224.573 76.6996 224.472C76.5996 224.172 76.5996 223.772 76.4996 223.472C76.0996 222.272 75.2996 221.171 74.3996 220.271C74.0996 219.871 73.6996 219.571 73.2996 219.171L73.1996 219.071C72.3996 218.27 71.4996 217.57 70.4996 216.97C70.1996 216.77 69.8996 216.57 69.4996 216.47C69.3996 216.37 69.2996 216.37 69.1996 216.37C69.0996 216.37 68.9996 216.27 68.8996 216.27C68.7996 216.27 68.6996 216.17 68.5996 216.17C68.1996 216.07 67.7996 215.97 67.3996 215.97C65.3996 215.97 63.5996 216.87 62.3996 218.371C62.2996 218.471 62.0996 218.671 61.9996 218.871C61.6996 219.271 61.4996 219.571 61.2996 219.971C61.1996 220.071 61.1996 220.171 61.0996 220.271C60.9996 220.371 60.9996 220.471 60.8996 220.671C60.6996 220.971 60.5996 221.271 60.3996 221.572C60.2996 221.872 60.0996 222.172 59.9996 222.472C59.7996 223.072 59.5996 223.772 59.3996 224.372C56.7996 233.575 57.5996 242.078 61.6996 248.88C62.0996 249.681 62.6996 250.281 63.3996 250.781L63.5996 250.881C64.4996 251.481 65.5996 251.781 66.6996 251.881C67.3996 251.881 68.0996 251.681 68.7996 251.381C72.0996 249.681 74.0996 243.979 75.2996 238.077C75.2996 237.977 75.2996 237.877 75.3996 237.677C75.3996 237.577 75.3996 237.477 75.4996 237.277C76.1996 233.876 76.5996 230.474 76.7996 227.774C76.7996 227.573 76.8996 227.273 76.8996 227.073C76.8996 226.873 76.8996 226.673 76.8996 226.473C76.8996 226.373 76.8996 226.273 76.8996 226.273C76.7996 226.173 76.7996 225.973 76.7996 225.873ZM75.7996 229.974C75.4996 232.475 75.1996 234.776 74.7996 236.876C74.7996 236.977 74.7996 237.077 74.6996 237.277C74.6996 237.377 74.6996 237.477 74.5996 237.677C73.1996 244.779 70.9996 249.481 68.3996 250.881C67.7996 251.181 67.1996 251.281 66.5996 251.281C65.6996 251.281 64.7996 250.981 63.7996 250.381L63.5996 250.281C62.9996 249.881 62.4996 249.281 62.0996 248.58C58.0996 241.978 57.2996 233.675 59.8996 224.673C59.8996 224.573 59.9996 224.472 59.9996 224.272C60.0996 223.972 60.1996 223.672 60.1996 223.472C60.2996 223.172 60.3996 222.872 60.4996 222.572C60.6996 222.172 60.8996 221.672 61.0996 221.271C61.1996 221.171 61.1996 221.071 61.2996 220.871C61.2996 220.771 61.3996 220.671 61.4996 220.571C61.7996 220.071 61.9996 219.571 62.3996 219.171C62.4996 219.071 62.4996 218.971 62.5996 218.871C63.6996 217.47 65.2996 216.67 67.0996 216.57H67.2996C67.6996 216.57 67.9996 216.67 68.3996 216.77C68.4996 216.77 68.5996 216.87 68.6996 216.87C68.7996 216.87 68.8996 216.97 68.9996 216.97C70.2996 217.47 71.4996 218.471 72.6996 219.571C73.9996 220.771 75.2996 222.072 75.7996 223.772C75.9996 224.573 76.0996 225.373 76.0996 226.173C76.0996 226.273 76.0996 226.273 76.0996 226.373C76.0996 226.573 76.0996 226.673 76.0996 226.873C76.0996 226.973 76.0996 227.073 76.0996 227.173C76.0996 227.173 76.0996 227.173 76.0996 227.273C76.0996 227.473 76.0996 227.674 75.9996 227.974C75.9996 228.274 75.8996 228.574 75.8996 228.874C75.8996 229.074 75.8996 229.474 75.7996 229.974Z" fill="#231F20"/>
<path d="M93.3 206.466C94.2 209.767 92.7 214.069 90.5 216.469C89 218.07 85.7 218.57 85 215.869C84.2 212.368 84.8 208.667 86.7 205.566C88.1 203.165 90.9 201.865 92.7 204.866C93 205.466 93.2 205.966 93.3 206.466Z" fill="#231F20"/>
<path d="M90.7997 203.366C90.6997 203.366 90.5997 203.266 90.4997 203.266C90.4997 203.366 90.4997 203.466 90.4997 203.566C90.5997 203.566 90.6997 203.566 90.7997 203.666C91.3997 203.866 91.8997 204.266 92.2997 204.966C92.3997 204.866 92.3997 204.766 92.4997 204.666C91.9997 203.866 91.3997 203.466 90.7997 203.366ZM93.5997 206.467C93.5997 206.267 93.4997 206.067 93.3997 205.867C93.2997 205.467 93.0997 205.167 92.8997 204.866C92.7997 204.666 92.6997 204.466 92.5997 204.366C91.9997 203.566 91.3997 203.166 90.7997 203.066C90.6997 203.066 90.5997 202.966 90.4997 202.966C90.3997 202.966 90.2997 202.966 90.2997 202.966H90.1997C88.8997 202.966 87.3997 203.966 86.3997 205.567C84.3997 208.668 83.7997 212.469 84.6997 216.07C84.7997 216.77 85.1997 217.37 85.7997 217.671C85.8997 217.771 85.8997 217.771 85.9997 217.771C86.0997 217.871 86.1997 217.871 86.2997 217.871C86.3997 217.971 86.4997 217.971 86.5997 217.971C86.8997 218.071 87.0997 218.071 87.3997 218.071C88.5997 218.071 89.7997 217.571 90.5997 216.67C90.5997 216.67 90.5997 216.57 90.6997 216.57C92.3997 214.67 93.7997 211.569 93.7997 208.568C93.8997 207.867 93.7997 207.167 93.5997 206.467ZM90.0997 216.37C89.1997 217.27 87.9997 217.671 86.7997 217.471C86.6997 217.471 86.5997 217.471 86.5997 217.37C86.4997 217.37 86.3997 217.27 86.2997 217.27C86.1997 217.27 86.0997 217.17 86.0997 217.17C85.6997 216.87 85.3997 216.47 85.2997 215.97C84.4997 212.569 85.0997 208.868 86.8997 205.967C87.7997 204.566 88.9997 203.666 90.0997 203.666C90.1997 203.666 90.1997 203.666 90.2997 203.666C90.3997 203.666 90.4997 203.666 90.5997 203.766C91.1997 203.966 91.6997 204.366 92.0997 205.067C92.0997 205.167 92.1997 205.167 92.1997 205.267C92.4997 205.767 92.6997 206.167 92.7997 206.667C93.4997 209.268 92.6997 212.369 91.2997 214.57C91.0997 215.27 90.6997 215.87 90.0997 216.37C90.1997 216.37 90.1997 216.37 90.0997 216.37Z" fill="#231F20"/>
<path d="M77.7996 221.371C76.3996 226.873 74.8995 239.577 65.6996 232.975C64.7996 232.275 63.8996 231.375 63.2996 230.374C58.7996 224.372 60.0996 220.471 62.3996 213.869C63.3996 210.968 64.2996 208.067 65.2996 205.166C66.2996 202.265 67.9996 199.564 69.2996 196.864C69.1996 196.964 73.7996 197.564 78.3996 195.463C82.9996 193.362 86.6995 191.262 86.6995 191.262C87.8995 193.062 89.2996 194.463 89.8996 196.663C90.4996 198.764 90.6996 201.065 90.3996 203.266C89.7996 208.667 87.6995 214.469 85.1995 219.271C82.6995 224.072 77.7996 221.371 77.7996 221.371Z" fill="white"/>
<path d="M89.9996 196.763C89.2996 194.563 87.9996 193.162 86.7996 191.361C86.7996 191.361 82.9996 193.562 78.4996 195.563C76.4996 196.463 74.5996 196.863 72.9996 196.963C72.8996 196.963 72.7996 196.963 72.6996 196.963C72.5996 196.963 72.4996 196.963 72.3996 196.963C71.3996 196.963 70.6996 196.963 70.1996 196.963C70.1996 197.063 70.1996 197.163 70.2996 197.263C71.0996 197.363 71.7996 197.363 72.4996 197.263C72.5996 197.263 72.6996 197.263 72.7996 197.263C72.8996 197.263 72.9996 197.263 73.0996 197.263C74.9996 197.063 76.8996 196.563 78.6996 195.763C82.4996 193.962 85.8996 192.162 86.7996 191.662C87.0996 192.062 87.2996 192.362 87.5996 192.762C88.5996 193.962 89.3996 195.263 89.8996 196.763C90.4996 198.764 90.6996 200.865 90.3996 202.865C90.3996 202.965 90.3996 203.065 90.3996 203.165C90.3996 203.265 90.3996 203.365 90.3996 203.465C90.4996 203.465 90.4996 203.465 90.5996 203.465C90.5996 203.365 90.5996 203.265 90.5996 203.165C90.5996 203.065 90.5996 202.965 90.5996 202.865C90.6996 200.865 90.4996 198.764 89.9996 196.763ZM90.2996 196.563C89.7996 195.063 88.9996 193.662 87.9996 192.362C87.6996 191.962 87.3996 191.462 87.0996 191.061C86.9996 190.961 86.7996 190.861 86.5996 190.961C86.5996 190.961 82.7996 193.162 78.2996 195.163C76.5996 195.963 74.7996 196.363 72.8996 196.563C72.7996 196.563 72.6996 196.563 72.5996 196.563C72.4996 196.563 72.3996 196.563 72.2996 196.563C71.9996 196.563 71.7996 196.563 71.4996 196.563C70.9996 196.563 70.4996 196.563 69.9996 196.463C69.7996 196.463 69.6996 196.463 69.4996 196.463H69.3996H69.2996C69.1996 196.463 69.1996 196.563 69.0996 196.663C68.6996 197.463 68.2996 198.164 67.8996 198.964C66.7996 200.865 65.8996 202.965 65.0996 205.066C64.6996 206.266 64.2996 207.467 63.8996 208.667C63.8996 208.767 63.7996 208.867 63.7996 208.967C63.7996 209.067 63.6996 209.167 63.6996 209.267C63.6996 209.367 63.5996 209.467 63.5996 209.567C63.0996 210.968 62.6996 212.368 62.1996 213.769C61.8996 214.669 61.5996 215.569 61.2996 216.37C60.9996 217.17 60.7996 217.87 60.5996 218.57C60.4996 218.77 60.4996 218.87 60.4996 219.07C60.4996 219.271 60.3996 219.371 60.3996 219.571C60.1996 220.571 60.0996 221.471 60.0996 222.372C60.0996 222.672 60.0996 222.972 60.0996 223.272C60.0996 223.572 60.1996 223.872 60.1996 224.172C60.4996 226.173 61.3996 228.173 63.1996 230.574C63.8996 231.575 64.6996 232.475 65.6996 233.275C67.4996 234.575 69.0996 235.176 70.4996 235.176C70.9996 235.176 71.4996 235.076 71.9996 234.876C72.0996 234.876 72.1996 234.776 72.2996 234.776C72.3996 234.676 72.4996 234.676 72.5996 234.575C74.0996 233.675 75.0996 231.975 75.8996 229.974C76.0996 229.574 76.1996 229.074 76.3996 228.574C76.5996 228.073 76.6996 227.573 76.7996 227.073C76.7996 226.873 76.8996 226.673 76.8996 226.573C77.0996 225.573 77.3996 224.672 77.5996 223.772C77.6996 223.072 77.8996 222.472 77.9996 221.871C79.3996 222.472 80.9996 222.672 82.3996 222.271C83.7996 221.771 84.8996 220.771 85.4996 219.471C85.7996 218.97 85.9996 218.47 86.1996 217.97C86.1996 217.87 86.2996 217.77 86.2996 217.67C86.2996 217.57 86.3996 217.47 86.3996 217.37C88.5996 212.568 90.0996 207.767 90.5996 203.665C90.5996 203.565 90.5996 203.465 90.5996 203.365C90.5996 203.265 90.5996 203.165 90.5996 203.065C90.9996 200.865 90.8996 198.664 90.2996 196.563ZM90.2996 202.965C90.2996 203.065 90.2996 203.165 90.2996 203.265C90.2996 203.365 90.2996 203.465 90.2996 203.565C89.7996 207.667 88.3996 212.368 86.1996 217.07C86.1996 217.17 86.0996 217.27 86.0996 217.37C86.0996 217.47 85.9996 217.57 85.9996 217.67C85.7996 218.17 85.4996 218.67 85.2996 219.171C84.7996 220.371 83.7996 221.271 82.5996 221.671C81.0996 221.971 79.5996 221.871 78.2996 221.171C78.2996 221.171 78.2996 221.171 78.1996 221.171H78.0996C77.9996 221.171 77.7996 221.271 77.7996 221.371C77.5996 222.071 77.4996 222.872 77.2996 223.672C77.1996 224.072 77.0996 224.472 76.9996 224.872C76.8996 225.172 76.8996 225.473 76.7996 225.673C76.7996 225.873 76.6996 226.073 76.5996 226.273C76.5996 226.373 76.4996 226.573 76.4996 226.673C76.4996 226.773 76.4996 226.873 76.3996 226.873C76.3996 226.873 76.3996 226.873 76.3996 226.973C75.5996 229.974 74.3996 232.975 72.3996 233.975C72.2996 234.075 72.1996 234.075 72.0996 234.075H71.9996C71.8996 234.075 71.7996 234.175 71.6996 234.175C70.1996 234.575 68.2996 234.075 66.1996 232.475C65.2996 231.775 64.4996 230.874 63.7996 229.874C61.5996 226.973 60.7996 224.572 60.7996 222.171C60.7996 221.871 60.7996 221.571 60.8996 221.271C60.8996 220.971 60.9996 220.671 60.9996 220.271C60.9996 220.071 61.0996 219.971 61.0996 219.771C61.0996 219.571 61.1996 219.471 61.1996 219.271C61.3996 218.47 61.5996 217.77 61.8996 216.87C62.1996 215.869 62.5996 214.869 62.9996 213.769C63.4996 212.368 63.8996 211.068 64.3996 209.567C64.3996 209.467 64.4996 209.367 64.4996 209.267C64.4996 209.167 64.5996 209.067 64.5996 208.967C64.5996 208.867 64.6996 208.767 64.6996 208.667C65.0996 207.467 65.4996 206.266 65.8996 205.166C66.6996 203.065 67.5996 201.065 68.6996 199.164C68.9996 198.564 69.3996 197.964 69.6996 197.263C69.6996 197.163 69.7996 197.163 69.7996 197.063C69.9996 197.063 70.1996 197.063 70.3996 197.163C71.1996 197.263 71.8996 197.263 72.5996 197.163C72.6996 197.163 72.7996 197.163 72.8996 197.163C72.9996 197.163 73.0996 197.163 73.1996 197.163C75.0996 196.963 76.9996 196.463 78.7996 195.663C82.5996 193.862 85.9996 192.062 86.8996 191.562C87.1996 191.962 87.3996 192.262 87.6996 192.662C88.6996 193.862 89.4996 195.163 89.9996 196.663C90.2996 198.764 90.4996 200.865 90.2996 202.965Z" fill="#231F20"/>
<path d="M76.2996 226.773C76.2996 226.773 71.7996 225.773 69.7996 222.072C67.7996 218.371 68.9996 215.47 68.9996 215.47C68.9996 215.47 72.8996 219.971 77.7996 221.472L76.2996 226.773Z" fill="#231F20"/>
<path d="M77.8997 221.172C73.0997 219.771 69.1997 215.37 69.1997 215.27C69.0997 215.17 68.9997 215.17 68.8997 215.17C68.7997 215.17 68.6997 215.27 68.6997 215.37C68.6997 215.37 68.5997 215.67 68.4997 216.07C68.4997 216.17 68.4997 216.27 68.4997 216.37C68.4997 216.47 68.4997 216.57 68.4997 216.77C68.2997 217.971 68.3997 219.971 69.5997 222.272C69.9997 222.972 70.3997 223.573 70.8997 224.073C72.8997 226.173 75.5997 226.974 76.1997 227.174H76.2997H76.3997C76.4997 227.174 76.4997 227.174 76.5997 227.174C76.6997 227.174 76.6997 227.074 76.6997 226.974L76.7997 226.574L76.8997 226.374L78.1997 221.672C78.1997 221.372 78.0997 221.172 77.8997 221.172ZM70.0997 221.872C69.1997 220.372 68.7997 218.671 68.9997 216.97C68.9997 216.87 68.9997 216.77 68.9997 216.67C68.9997 216.57 68.9997 216.47 69.0997 216.37C69.0997 216.27 69.0997 216.27 69.0997 216.17C69.1997 216.27 69.2997 216.37 69.3997 216.47C69.5997 216.67 69.8997 216.87 70.0997 217.171C70.8997 217.871 71.8997 218.771 73.1997 219.571C73.4997 219.771 73.8997 220.071 74.2997 220.272C75.2997 220.872 76.2997 221.372 77.3997 221.672L76.5997 224.473L76.3997 225.173L76.0997 226.073V226.273V226.374C75.4997 226.173 74.1997 225.773 72.8997 224.873C71.7997 224.173 70.7997 223.173 70.0997 221.872Z" fill="#231F20"/>
<path d="M78.9996 212.269C78.0996 212.169 77.1996 211.969 76.3996 211.468C76.1996 211.368 76.1996 211.168 76.2996 211.068C76.3996 210.968 76.5996 210.868 76.6996 210.968C77.2996 211.268 78.8996 211.969 79.5996 211.568C80.0996 211.268 79.5996 208.267 78.4996 205.066C78.3996 204.866 78.4996 204.766 78.6996 204.666C78.8996 204.566 78.9996 204.666 79.0996 204.866C79.6996 206.767 81.0996 211.368 79.9996 212.069C79.6996 212.169 79.3996 212.269 78.9996 212.269Z" fill="#231F20"/>
<path d="M77.6997 216.27C76.9997 216.27 76.1997 216.07 75.4997 215.77C73.6997 214.87 72.5997 212.769 72.1997 209.568C72.1997 209.368 72.2997 209.268 72.4997 209.168C72.6997 209.168 72.7997 209.268 72.8997 209.468C73.1997 212.469 74.1997 214.47 75.7997 215.27C78.1997 216.47 81.2997 214.67 81.2997 214.67C81.3997 214.57 81.5997 214.67 81.6997 214.77C81.7997 214.97 81.6997 215.07 81.5997 215.17C80.4997 215.77 79.0997 216.17 77.6997 216.27Z" fill="#231F20"/>
<path d="M78.0996 201.764C77.8996 201.764 77.7996 201.664 77.7996 201.464C77.6996 200.764 77.4996 200.264 77.1996 200.064C76.4996 199.664 75.0996 200.364 74.6996 200.664C74.5996 200.764 74.3996 200.764 74.2996 200.564C74.1996 200.464 74.1996 200.264 74.3996 200.164C74.4996 200.064 76.2996 198.964 77.5996 199.564C78.2996 199.964 78.5996 200.664 78.5996 201.464C78.3996 201.664 78.2996 201.764 78.0996 201.764Z" fill="#231F20"/>
<path d="M86.1 205.366C85.9 205.366 85.8 205.266 85.8 205.066C85.8 205.066 85.7 203.465 84.8 202.865C84 202.365 83.1 203.565 83.1 203.565C83 203.665 82.8 203.765 82.7 203.665C82.6 203.565 82.5 203.365 82.6 203.265C83 202.665 84.1 201.765 85.2 202.465C86.4 203.265 86.5 205.066 86.5 205.166C86.4 205.266 86.3 205.366 86.1 205.366Z" fill="#231F20"/>
<path d="M60.6998 203.666C60.5998 204.866 60.7998 205.967 61.2998 207.067C62.2998 208.968 64.8998 209.768 66.8998 209.168C72.2998 207.567 74.8998 197.264 70.7998 193.263C66.9998 189.561 62.6998 195.463 61.7998 198.964C61.3998 200.465 60.6998 201.965 60.6998 203.666Z" fill="#231F20"/>
<path d="M73 197.264C73 197.164 73 197.064 73 196.964C73 196.864 73 196.763 72.9 196.663C72.6 195.163 72 193.963 71 192.962C71 192.862 70.9 192.862 70.9 192.862C70.5 192.462 70.1 192.162 69.6 192.062C68.8 191.762 68 191.662 67.2 191.862C64.4 192.662 62.1 196.363 61.5 198.764C61.4 199.164 61.3 199.664 61.1 200.065C60.7 201.265 60.5 202.365 60.4 203.666C60.3 204.866 60.5 206.066 61 207.167C61.4 207.767 61.9 208.367 62.5 208.767C62.7 208.867 62.9 209.067 63.1 209.168C63.3 209.268 63.4 209.368 63.6 209.368C63.7 209.368 63.8 209.468 63.9 209.468C64 209.468 64.1 209.568 64.2 209.568C64.6 209.668 65 209.668 65.4 209.668C65.9 209.668 66.4 209.568 66.9 209.468C69.5 208.767 71.7 205.966 72.6 202.265C73.1 200.465 73.2 198.764 73 197.264ZM64.4 208.867C64.3 208.867 64.2 208.867 64.1 208.767C64 208.767 63.9 208.667 63.8 208.667C63.7 208.567 63.5 208.567 63.4 208.467C63.2 208.367 62.9 208.267 62.7 208.067C62.3 207.767 61.9 207.367 61.6 206.867C61.1 205.866 60.9 204.766 61.1 203.666C61.2 202.465 61.4 201.365 61.8 200.265C61.9 199.864 62.1 199.364 62.2 198.964C62.8 196.763 65 193.162 67.5 192.462C68.2 192.262 68.9 192.362 69.5 192.562C69.9 192.762 70.3 193.062 70.7 193.362L70.8 193.462C71.6 194.263 72.1 195.363 72.4 196.563C72.4 196.663 72.4 196.763 72.5 196.864C72.5 196.964 72.5 197.064 72.6 197.164C72.8 198.564 72.7 200.165 72.3 201.865C71.4 205.366 69.4 207.867 67 208.667C66 208.967 65.2 209.067 64.4 208.867Z" fill="#231F20"/>
<path d="M90.6997 209.967C90.5997 209.967 90.3997 209.967 90.2997 209.867C89.9997 209.667 89.8997 209.267 90.0997 208.867C90.1997 208.767 98.1997 195.563 99.5997 187.36C100.1 184.359 98.7997 181.358 95.8997 178.857C91.8997 175.456 85.9997 173.856 81.8997 175.156C74.4997 177.557 70.4997 194.662 70.4997 194.762C70.3997 195.163 69.9997 195.363 69.5997 195.263C69.1997 195.163 68.9997 194.762 69.0997 194.362C69.2997 193.662 73.2997 176.257 81.4997 173.656C86.1997 172.155 92.4997 173.756 96.8997 177.557C100.2 180.458 101.7 183.959 101.1 187.36C99.6997 195.863 91.7997 208.867 91.3997 209.367C91.0997 209.867 90.8997 209.967 90.6997 209.967Z" fill="#231F20"/>
<path d="M140.6 309C144.2 307.3 147.8 304.699 151.4 301.198C165.5 287.393 173.5 266.486 173.2 243.779C173.1 233.176 171.1 224.873 167.2 218.471C165.6 215.87 163.6 212.969 160.3 211.469C158.6 210.768 154.7 210.468 153.2 212.569C153 212.869 152.8 213.269 152.7 213.669C152.7 213.769 152.6 213.869 152.6 213.969C152.6 214.069 152.6 214.17 152.5 214.27C152.4 214.67 152.4 215.07 152.4 215.57V215.67C152.4 215.77 152.4 215.87 152.4 215.97C152.4 216.07 152.4 216.17 152.4 216.27C152.4 216.37 152.4 216.47 152.4 216.57C152.4 216.77 152.3 216.97 152.3 217.271C152.3 217.471 152.1 217.571 151.9 217.571C151.7 217.571 151.6 217.371 151.6 217.17C151.6 216.97 151.7 216.77 151.7 216.57C151.7 216.47 151.7 216.37 151.7 216.27C151.7 216.17 151.7 216.07 151.7 215.97C151.7 215.87 151.7 215.77 151.7 215.67V215.57C151.7 215.37 151.7 215.07 151.8 214.87C151.8 214.67 151.8 214.47 151.9 214.37C151.9 214.27 151.9 214.17 152 214.069C152 213.969 152 213.869 152.1 213.769C152.2 213.269 152.4 212.769 152.7 212.269C154.5 209.768 158.8 210.068 160.7 210.868C164.2 212.369 166.3 215.47 167.9 218.071C171.9 224.673 173.9 233.076 174.1 243.779C174.3 266.687 166.3 287.793 152 301.698C148.8 304.799 145.6 307.3 142.3 309H140.6H119.1H140.6Z" fill="#231F20"/>
<path d="M117.7 309H119.1C117.5 308.1 115.9 307.099 114.5 305.899C110.5 302.698 107 298.797 103.6 295.095C101.4 292.695 99.1998 290.294 96.7998 287.993C90.6998 282.091 84.5998 278.39 78.6998 277.09C77.3998 276.79 75.9998 276.589 74.6998 276.589C64.9998 276.089 56.3998 281.591 48.6998 287.593L46.3998 289.394C39.9998 294.395 33.3998 299.697 25.0998 298.396C23.9998 298.196 22.8998 297.896 21.7998 297.496C17.6998 295.996 14.3998 292.895 12.1998 290.394C5.49978 282.491 2.29978 271.288 3.89978 260.384C5.59978 248.68 12.0998 240.378 23.2998 235.776C26.2998 234.576 29.1998 233.175 31.9998 231.775C38.3998 228.574 44.4998 224.873 50.4998 221.172H50.5998C53.2998 219.571 55.9998 217.77 58.2998 215.57C58.3998 215.47 58.4998 215.37 58.4998 215.37C58.5998 215.27 58.6998 215.17 58.7998 215.07C59.0998 214.769 59.3998 214.469 59.5998 214.169C60.8998 212.669 62.0998 210.968 62.7998 209.168C62.7998 209.068 62.8998 208.968 62.8998 208.868C62.8998 208.767 62.9998 208.667 62.9998 208.567C63.1998 208.067 63.2998 207.667 63.3998 207.167C63.3998 206.967 63.2998 206.767 63.0998 206.767C62.8998 206.667 62.6998 206.867 62.5998 207.067C62.4998 207.467 62.3998 207.867 62.1998 208.267C62.1998 208.367 62.0998 208.467 62.0998 208.567C62.0998 208.667 61.9998 208.767 61.9998 208.868C61.2998 210.668 60.2998 212.169 58.9998 213.569C58.7998 213.869 58.4998 214.069 58.2998 214.369C58.1998 214.469 58.0998 214.569 57.9998 214.669C57.8998 214.769 57.7998 214.869 57.6998 214.869C55.3998 217.17 52.5998 219.071 49.7998 220.671H49.6998C43.8998 224.172 37.9998 227.674 31.8998 230.875C28.7998 232.475 25.6998 233.976 22.4998 235.176C11.6998 239.778 4.99978 248.18 3.29978 260.184C1.69978 271.288 4.89978 282.791 11.7998 290.794C14.0998 293.395 17.4998 296.596 21.8998 298.196C22.8998 298.597 23.9998 298.897 25.0998 298.997C33.7998 300.297 40.7998 294.695 46.9998 289.794C47.7998 289.194 48.4998 288.593 49.2998 287.993C56.9998 282.091 65.3998 276.589 74.8998 277.09C76.0998 277.19 77.3998 277.29 78.6998 277.59C84.5998 278.89 90.5998 282.491 96.5998 288.293C98.8998 290.594 101.2 292.995 103.3 295.396C106.7 299.097 110.2 302.998 114.2 306.199C115.3 307.399 116.5 308.2 117.7 309Z" fill="#231F20"/>
<path d="M60 153.049C59.9 153.049 59.8 153.049 59.7 152.949C59.6 152.849 59.6 152.549 59.7 152.449C61.3 151.049 62.9 150.449 64.4 150.649C65.7 150.849 66.9 151.449 67.7 152.549C67.8 152.749 67.8 152.949 67.6 153.049C67.4 153.149 67.2 153.149 67.1 152.949C66.4 152.049 65.4 151.549 64.3 151.349C63 151.149 61.6 151.749 60.2 152.949C60.2 153.049 60.1 153.049 60 153.049Z" fill="#231F20"/>
<path d="M81.5 269.987C81.4 269.987 81.4 269.987 81.3 269.987C81.1 269.887 81.1 269.687 81.2 269.587L90.3 251.281C90.4 251.081 90.6 251.081 90.7 251.181C90.9 251.281 90.9 251.481 90.8 251.581L81.7 269.787C81.8 269.987 81.7 269.987 81.5 269.987Z" fill="#231F20"/>
<path d="M64.5999 273.589C54.1999 273.589 41.8999 270.187 41.1999 269.987C40.9999 269.987 40.8999 269.787 40.8999 269.587C40.8999 269.387 41.0999 269.287 41.2999 269.287H41.3999C41.5999 269.387 63.4999 275.389 73.5999 271.488C73.7999 271.388 73.9999 271.488 73.9999 271.688C74.0999 271.888 73.9999 271.988 73.7999 272.088C70.7999 273.188 67.6999 273.689 64.5999 273.589Z" fill="#231F20"/>
<path d="M153.1 213.969H151.5V216.269H153.1V213.969Z" fill="#231F20"/>
<path d="M153 213.669H151.4C151.2 213.669 151.1 213.769 151.1 213.969V216.269C151.1 216.469 151.2 216.569 151.4 216.569H153C153.2 216.569 153.3 216.469 153.3 216.269V213.969C153.4 213.869 153.2 213.669 153 213.669ZM152.7 216.069H151.8V214.369H152.7V216.069Z" fill="#231F20"/>
<path d="M67 207.167L66.5 206.666C69.8 203.365 70.5 198.364 68.4 194.262L69 193.862C71.3 198.264 70.5 203.665 67 207.167Z" fill="white"/>
<path d="M90.7996 216.67L90.0996 216.37C92.1996 210.968 91.6996 206.867 91.6996 206.867L92.3996 206.767C92.3996 206.967 92.9996 211.068 90.7996 216.67Z" fill="white"/>
<path d="M37.8239 181.438L32.5791 186.801L33.0795 187.29L38.3242 181.928L37.8239 181.438Z" fill="white"/>
<path d="M127.419 256.382L127.111 257.011L132.679 259.738L132.986 259.11L127.419 256.382Z" fill="white"/>
<path d="M121.6 168.854C121.7 168.754 121.9 168.754 122 168.654C122.4 168.454 122.7 167.954 122.7 167.454C122.7 167.054 122.5 166.654 122.2 166.354C121.6 165.853 120.9 165.653 120.2 165.653C119.7 165.653 119.2 165.853 118.8 166.154L116.5 157.551L107.6 158.051L107.7 158.251C108.6 161.652 109.5 165.153 110.4 168.554C110.5 169.155 110.9 169.555 111.4 169.855C112.3 170.355 113.3 170.355 114.2 169.755C114.6 169.555 114.9 169.055 114.9 168.554C114.9 168.154 114.7 167.754 114.4 167.454C113.8 166.954 113.1 166.754 112.4 166.754C111.9 166.754 111.4 166.954 111 167.254L109.5 161.352H110.1L116.4 160.952C116.5 160.952 116.5 160.952 116.6 161.052C117.1 163.153 117.7 165.253 118.2 167.354C118.3 168.054 118.8 168.554 119.5 168.754C120 168.954 120.5 169.054 121 168.954H121.1L121.6 168.854Z" fill="#FDD2A7"/>
<path d="M156.4 286.493C156.4 286.393 156.4 286.193 156.4 286.093C156.4 285.693 156.2 285.392 156 285.092C155.6 284.592 155.2 284.092 154.6 283.792C154 283.392 153.4 283.192 152.8 283.092C152.4 282.992 152 282.992 151.6 283.092H151.5V282.992C151.6 282.692 151.6 282.391 151.7 282.191L153.1 277.09C153.6 275.289 154.2 273.389 154.7 271.588V271.488H154.2C152.8 271.388 151.4 271.688 150.2 272.188C149 272.688 148 273.589 147.4 274.689C147.2 274.989 147.1 275.389 146.9 275.689C146.8 275.889 146.7 276.089 146.6 276.389V276.49L146.8 276.389C147.4 275.989 148 275.689 148.6 275.389C149.6 274.989 150.6 274.789 151.7 274.889C152.2 274.889 152.6 274.989 153 275.189V275.289C152.1 278.29 151.3 281.391 150.4 284.392C150.4 284.492 150.4 284.492 150.4 284.592C150.5 285.092 150.7 285.592 151 285.993C151.5 286.593 152 286.993 152.7 287.293L153.3 287.493L153.8 287.693H153.9C154.3 287.793 154.8 287.793 155.2 287.693C155.6 287.593 155.9 287.493 156.1 287.193C156.2 287.093 156.3 286.993 156.3 286.893L156.4 286.493Z" fill="#FDD2A7"/>
<path d="M128.2 199.664C128.3 199.464 128.4 199.264 128.5 199.064C128.8 198.564 129.3 198.163 129.8 197.963C130.7 197.463 131.7 197.263 132.7 197.163C133.7 197.063 134.7 197.163 135.7 197.463C136.3 197.663 136.9 197.963 137.4 198.364L137.5 198.464C137.5 198.364 137.6 198.364 137.6 198.264C137.7 197.863 137.8 197.363 137.9 196.963L139.6 188.96C140.2 186.06 140.8 183.159 141.5 180.258V180.058C141.8 180.158 142 180.258 142.2 180.358C144.1 181.258 145.9 182.658 147.2 184.259C148.5 185.759 149.2 187.76 149.3 189.761C149.3 190.361 149.3 190.861 149.2 191.461C149.2 191.861 149.1 192.162 149.1 192.562V192.662L148.9 192.362C148.4 191.461 147.8 190.561 147.2 189.661C146.2 188.36 144.9 187.36 143.4 186.66C142.7 186.36 142.1 186.16 141.4 186.06C141.4 186.06 141.4 186.06 141.3 186.06C141.3 186.16 141.3 186.16 141.3 186.26L138.2 200.664C138.2 200.764 138.2 200.864 138.1 200.864C137.6 201.565 136.9 202.065 136.1 202.365C135.1 202.765 133.9 202.965 132.8 202.865C132.5 202.865 132.2 202.865 131.9 202.765L131.1 202.565L131 202.465C130.3 202.265 129.7 201.965 129.2 201.565C128.7 201.264 128.4 200.764 128.3 200.164C128.3 199.964 128.3 199.764 128.2 199.564V199.664Z" fill="#FDD2A7"/>
<path d="M132.8 220.771C132.7 220.571 132.6 220.271 132.4 220.171L132.1 219.971C131.9 219.871 131.6 219.771 131.4 219.771H131C130.8 219.771 130.6 219.771 130.4 219.871C130.2 219.971 130.1 220.071 129.9 220.171C129.8 220.271 129.7 220.471 129.6 220.671C129.5 220.871 129.5 221.071 129.5 221.271L129.6 221.671C129.7 221.871 129.8 222.171 130 222.271L130.3 222.471C130.5 222.571 130.8 222.671 131 222.671H131.4C131.6 222.671 131.8 222.671 132 222.571C132.2 222.471 132.3 222.371 132.5 222.271C132.8 221.971 132.9 221.671 132.9 221.271C132.9 221.071 132.9 220.971 132.8 220.771Z" fill="#FDD2A7"/>
<path d="M12.2997 162.053C9.99971 162.053 9.99971 165.654 12.2997 165.654C14.5997 165.654 14.5997 162.053 12.2997 162.053Z" fill="#FDD2A7"/>
<path d="M118 289.293C115.7 289.293 115.7 292.894 118 292.894C120.3 292.894 120.4 289.293 118 289.293Z" fill="#FDD2A7"/>
<path d="M150 129.942H155.4H158H158.6H158.9C168.3 129.942 173.8 132.543 173.8 138.645C173.8 143.147 170.6 146.148 165.4 147.448C170.5 147.948 175.4 150.449 175.4 156.551C175.4 163.453 169.4 167.254 161 167.254H158.6H158.3H156.1H149.9H145.6V166.454C149.2 166.454 149.9 164.854 149.9 160.752V157.851V139.545V136.645C149.9 132.543 149.1 130.943 145.6 130.943V130.142L150 129.942ZM158.6 147.348H159.1C162.4 147.348 165.1 143.647 165.1 138.845C165.1 134.044 161.4 130.743 159.1 130.743H158.7L158.6 147.348ZM158.6 166.454C163.3 166.454 166.7 161.653 166.7 156.451C166.7 151.249 163.8 148.048 160.1 148.048H158.6V166.454Z" fill="white"/>
<path d="M187.9 143.247C192.5 143.247 195.1 144.948 196.7 147.048C198.8 149.849 198.6 154.451 193.5 155.051L184.4 156.151C184.4 156.451 184.5 156.751 184.6 157.052C187 164.254 195.3 165.454 199 159.452L199.5 159.952C195 171.256 178.8 169.656 175.7 159.152C175.5 158.352 175.3 157.652 175.2 156.751C174.6 149.549 178 143.347 187.6 143.347L187.9 143.247ZM187.9 144.047C184.5 144.047 183.6 149.449 184.4 155.151C184.4 155.251 184.4 155.351 184.4 155.451L186.1 155.251C191 154.651 191.6 151.95 191.5 150.249C191.2 147.048 190.3 144.047 187.9 144.047Z" fill="white"/>
<path d="M211.4 143.347H228.7V144.147C225 144.147 224.8 146.148 226.4 149.849L231.2 160.652L235.4 149.849C236.8 146.248 236.7 144.347 234.1 144.147V143.347H243.6V144.147C238.6 144.847 237.8 146.048 236.4 149.949L227.9 172.056L227.6 172.856C225.4 178.658 222.9 179.058 220.2 179.158C217.1 179.258 213.2 177.258 213.6 172.556C214 167.755 221.2 167.454 222.1 172.156C219.7 172.156 219 175.657 221.3 176.157C223.6 176.657 225.7 175.557 226.6 173.056L227 171.956L217.1 149.849C215.5 146.248 213.5 144.147 211.5 144.147L211.4 143.347Z" fill="white"/>
<path d="M264.8 155.551C264.8 162.253 259.3 167.755 252.6 167.755C245.9 167.755 240.4 162.253 240.4 155.551C240.4 148.848 245.9 143.347 252.6 143.347C259.3 143.347 264.8 148.848 264.8 155.551ZM249.7 144.747C247.3 145.447 247.3 150.649 248.8 156.551C250.4 162.553 253 166.954 255.5 166.254C257.9 165.554 257.9 160.352 256.4 154.45C254.9 148.848 252.5 144.647 250.2 144.647C250 144.647 249.9 144.647 249.7 144.747Z" fill="white"/>
<path d="M275.9 143.347V155.551V158.952C275.9 162.753 276.8 166.654 279.9 166.654C283 166.654 284.2 162.853 284.2 158.352V155.251V154.85C284.2 150.749 283.3 148.548 280.6 148.348V147.548C287.3 147.548 292 143.347 292 143.347H292.8V157.351V159.752C292.8 167.855 296.5 165.254 296.5 165.254V166.054C295.1 167.354 287.2 169.855 284.6 164.954C283.4 166.554 281 167.855 277 167.855C271.3 167.755 267 164.854 267 159.052V157.451V155.05C267 150.949 266.1 148.748 263.4 148.548V147.748C270.1 147.748 274.8 143.547 274.8 143.547H275.9V143.347Z" fill="white"/>
<path d="M328.9 143.447C332.5 143.447 336.1 144.347 337.9 147.648C339.1 145.247 341.5 143.447 345 143.447C352.4 143.447 354.7 147.848 355.4 152.15L356.1 157.951C357.1 165.354 357.2 166.754 359.7 166.754V167.555H352H344.3V166.754C346.8 166.754 348.1 164.654 347.8 161.052L346.8 151.449C346.5 148.348 345.3 145.047 342.1 145.447C339.3 145.847 338.9 148.648 338.9 154.05V161.052C338.9 164.954 339.8 166.754 342.3 166.754V167.555H334.6H326.9V166.754C329.4 166.754 330.3 164.954 330.3 161.052V150.949C330.3 147.148 328.4 145.347 325.9 145.347C323.4 145.347 321.6 147.148 321.6 151.549V158.051V160.952C321.6 164.854 322.5 166.654 325 166.654V167.454H317.3H309.6V166.654C312.1 166.654 313 164.854 313 160.952V159.452V157.951V154.85C313 150.749 312.1 148.548 309.4 148.348V147.548C316.1 147.548 320.8 143.347 320.8 143.347H321.6V146.248C322.8 145.047 324.7 143.347 329.1 143.347L328.9 143.447Z" fill="white"/>
<path d="M373 143.347V157.852V160.753C373 164.854 374.1 166.455 377.3 166.455V167.255H360V166.455C363.6 166.455 364.3 164.854 364.3 160.753V157.852V154.751C364.3 150.649 363.4 148.449 360.7 148.249V147.448C367.4 147.448 372.1 143.247 372.1 143.247L373 143.347Z" fill="white"/>
<path d="M386.5 143.347C390.8 143.347 392.2 144.847 392.6 143.347H393.4L394.1 151.249L393.3 151.349C392.2 146.548 390.4 144.147 386.4 144.147C383.6 144.147 382.7 146.748 383.8 148.848C385.6 152.45 397.2 153.25 397.2 159.552C397.2 164.353 392.7 167.755 385.5 167.755C379.1 167.755 375.6 163.853 376.6 160.252C377.1 158.452 378.5 157.751 379.9 157.751C382.2 157.751 384.6 159.652 383.8 162.553C382.2 161.753 381 163.553 381 164.654C381 165.754 382.1 167.054 385 167.054C388.5 167.054 389.7 164.654 389.7 162.953C389.7 157.351 377.5 158.352 376.8 150.849C376.5 146.748 379.2 143.347 386.5 143.347Z" fill="white"/>
<path d="M415.3 143.447C418.9 143.447 422.5 144.347 424.3 147.648C425.5 145.247 427.9 143.447 431.4 143.447C438.8 143.447 441.1 147.848 441.8 152.15L442.5 157.951C443.5 165.354 443.6 166.754 446.1 166.754V167.555H438.4H430.7V166.754C433.2 166.754 434.5 164.654 434.2 161.052L433.2 151.449C432.9 148.348 431.7 145.047 428.5 145.447C425.7 145.847 425.3 148.648 425.3 154.05V161.052C425.3 164.954 426.2 166.754 428.7 166.754V167.555H421H413.3V166.754C415.8 166.754 416.7 164.954 416.7 161.052V150.949C416.7 147.148 414.8 145.347 412.3 145.347C409.8 145.347 408 147.148 408 151.549V158.051V160.952C408 164.854 408.9 166.654 411.4 166.654V167.454H403.7H396V166.654C398.5 166.654 399.4 164.854 399.4 160.952V159.452V157.951V154.85C399.4 150.749 398.5 148.548 395.8 148.348V147.548C402.5 147.548 407.2 143.347 407.2 143.347H408V146.248C409.2 145.047 411.1 143.347 415.5 143.347L415.3 143.447Z" fill="white"/>
<path d="M468.8 152.049L468.9 152.75L469.7 160.052C470.9 167.354 474.2 165.154 474.2 165.154V165.754C473.6 167.254 464.4 169.955 461.8 164.654C461.8 164.654 459.3 167.755 453.9 167.755C449.6 167.755 445.4 166.154 445.4 161.553C445.4 151.349 460.6 157.451 459.8 150.749V150.149C459.5 148.048 459.3 144.147 456 144.147C453.1 144.147 452.3 145.347 452.3 146.548C452.3 147.648 452.8 148.648 455 148.648C456.3 153.45 449 155.351 447.8 150.849C446.8 147.248 449.6 143.347 456 143.347C466.2 143.347 468 146.748 468.8 152.049ZM460.3 153.05C459.4 155.251 453.8 155.551 453.8 160.652C453.8 166.854 461.9 166.754 461.4 162.453L460.3 153.05Z" fill="white"/>
<path d="M574.1 260.785C565.2 264.686 554.9 266.186 545.5 262.985C537.2 260.084 530.4 252.882 528.6 244.179C526.7 234.976 531.8 226.574 539.3 221.572C547.8 215.87 558.2 214.47 568.1 213.469C569.6 213.269 570.8 210.968 569 210.168C555.6 204.166 541.2 202.266 526.7 204.366C518.9 205.467 496.3 213.969 489.9 237.477C486.1 251.482 491.2 263.886 501.3 273.689C511.1 283.192 523.7 288.294 537.5 286.693C553.1 284.792 566.2 275.289 576.2 263.586C577.6 261.985 575.9 259.984 574.1 260.785Z" fill="white"/>
<path d="M616.3 45.4149C612 40.5133 606.2 37.3122 599.7 36.3119C592.5 35.2116 586.8 37.4123 580.5 40.4132C572.6 44.2145 567.6 40.4132 561.5 35.5117C556.9 31.8105 552.2 28.0092 546.2 27.209C535.1 25.7085 526.3 34.4113 518.3 40.7133C513.7 44.3145 508.3 48.3158 502.2 48.5159C495.4 48.7159 489.7 43.9144 484.6 40.1131C479 35.9118 472.9 31.7104 465.6 31.7104C457.5 31.6104 450.2 36.3119 445.4 42.5139C443.1 45.5149 447.3 49.8163 449.6 46.7153C454.3 40.6133 461.5 36.1118 469.4 38.2125C475.4 39.813 480.3 44.5146 485.2 48.0157C494.4 54.6178 504.2 56.5184 514.3 50.7166C523.1 45.6149 530.4 35.5117 540.7 33.3109C552.7 30.8101 559.5 45.0147 570.1 47.8156C577.9 49.8163 583.1 44.6146 590.1 42.714C598.1 40.5133 606.6 43.5142 611.9 49.7162C614.6 52.5172 618.8 48.3158 616.3 45.4149Z" fill="#FDD2A7"/>
<path d="M611.2 64.721C605.2 60.9198 598.9 62.8204 592.6 64.721C585.2 67.0218 577.9 67.622 570.8 63.7207C565.1 60.5197 561.2 54.7178 554.6 53.1173C548.8 51.6168 543 53.7175 537.9 56.5184C531.5 60.1196 525.9 65.0211 518.8 67.4219C511.7 69.8227 503.8 69.9227 496.7 67.722C484.8 63.9208 471.5 53.1173 459.9 64.0208C457.1 66.6217 461.3 70.9231 464.1 68.2222C470.1 62.6204 478.5 66.1215 484.8 69.1225C490.4 71.8233 495.8 74.2241 502.1 75.0244C515.7 76.6249 526 71.0231 536.9 64.0208C542.5 60.4197 549.1 56.4184 555.7 59.9195C561.2 62.8204 564.9 67.9221 570.8 70.3229C576 72.4235 581.6 73.1238 587.1 72.3235C593.6 71.3232 601.8 65.9214 608.1 69.9227C611.4 71.9234 614.4 66.7217 611.2 64.721Z" fill="#FDD2A7"/>
<path d="M620 91.43C615.4 86.8285 609 84.3277 602.5 84.7278C593 85.328 586.7 94.0308 576.8 91.8301C568.2 89.8295 561 83.7275 552 83.0273C545.4 82.5271 538.7 85.228 535.6 91.33C533.8 94.7311 539 97.8321 540.8 94.3309C544.8 86.5284 554.5 88.9292 561 91.8301C567 94.531 572.8 97.8321 579.5 98.3322C586.6 98.8324 591.1 95.0311 597.2 92.3303C604 89.2293 611.6 91.1299 616.6 96.5316C617.7 97.732 619.1 97.632 620.1 96.9318V91.43H620Z" fill="#FDD2A7"/>
</g>
<defs>
<clipPath id="clip0_381:273">
<rect width="620" height="309" fill="white"/>
</clipPath>
</defs>
</svg>
