<svg width="620" height="309" viewBox="0 0 620 309" fill="none" xmlns="http://www.w3.org/2000/svg">
<path d="M580 309H40C17.9 309 0 291.1 0 269V40C0 17.9 17.9 0 40 0H580C602.1 0 620 17.9 620 40V269C620 291.1 602.1 309 580 309Z" fill="#F0BE69"/>
<path d="M444.3 268C444.1 247.1 441 226.4 440.2 205.5C440.2 206.1 440.2 206.8 440.3 207.4C439.7 190.3 441.1 173 447.3 156.9C447.1 157.5 446.8 158.2 446.6 158.8C449.1 152.4 452.4 146.4 456.6 141C456.1 141.6 455.6 142.2 455.2 142.8C457.8 139.5 460.8 136.4 464.1 133.8C463.4 134.4 462.7 134.9 462 135.5C465.7 132.5 469.7 130 473.9 127.7C473 128.2 472.2 128.6 471.3 129.1C478.2 125.3 485.4 122.2 492.8 119.5C491.8 119.9 490.8 120.2 489.8 120.6C495.6 118.6 501.5 116.9 507.5 115.7C506.5 115.9 505.4 116.1 504.4 116.3C508.1 115.6 511.8 115.1 515.5 115.1C514.5 115.1 513.5 115.1 512.6 115.2C514.9 115.2 517.2 115.3 519.5 115.6C518.6 115.5 517.7 115.3 516.9 115.2C518.7 115.5 520.5 115.9 522.1 116.6C521.4 116.3 520.7 116 519.9 115.7C525.7 118.1 531.1 121.4 536 125.3C535.5 124.9 534.9 124.4 534.4 124C542.4 130.5 548.7 138.6 553.6 147.7C553.3 147.1 553 146.6 552.7 146C557.5 155.1 560.9 164.8 563.6 174.7C564.7 178.7 565.7 182.7 566.7 186.7C567.4 189.3 568.3 191.8 568.9 194.4C570.4 201.4 571 208.7 571.8 215.9C573 226.5 574.1 237.1 575.2 247.7C576.1 255.6 576.8 263.6 578.1 271.5C578.2 272 578.3 272.5 578.4 273C578.8 275.1 581.3 276.3 583.1 276.8C585.8 277.5 589.2 277.3 591.8 276.6C594.5 275.8 597.5 274.6 599.5 272.4C600.9 270.8 602.1 269 601.6 266.8C600 258.6 599.4 250.2 598.5 241.9C597.2 230.2 596 218.6 594.7 206.9C594.2 202.4 593.7 197.9 593 193.4C592.6 190.9 592.3 188.5 591.5 186.1C588.7 177.4 587 168.4 584.2 159.7C580.4 147.8 575.1 136.1 567.4 126.2C563 120.5 557.7 115.6 551.9 111.3C549 109.2 545.9 107.3 542.7 105.7C539.2 103.9 535.5 102.2 531.6 101.5C521.9 99.7 512.3 100.7 502.7 102.7C494.2 104.4 486 107.2 477.9 110.4C469.9 113.6 462.1 117.4 454.8 121.9C446.2 127.2 438.8 134 432.9 142.2C427.9 149.3 424.4 157.3 421.9 165.6C419.4 173.6 418 182 417.3 190.3C415.6 210.7 418.4 231.1 420 251.4C420.4 256.4 420.7 261.5 420.9 266.6C420.9 266 420.9 265.3 420.8 264.7C420.9 266.7 420.9 268.6 420.9 270.6C420.7 271.6 420.8 272.5 421.4 273.3C421.8 274.3 422.5 275 423.4 275.4C425.5 276.7 428.8 276.9 431.2 276.6C434.2 276.2 437.4 275.3 440 273.5C440.7 272.9 441.4 272.4 442.1 271.8C443.2 270.7 444 269.5 444.3 268Z" fill="#FDD2A7"/>
<path d="M460.3 257.9C459 236.8 454.1 215.8 456 194.6C456.8 185.3 458.8 176.1 462.9 167.7C464.7 163.9 467.4 160 470.3 156.7C470.7 156.3 471 155.9 471.4 155.4C471.6 155.2 471.8 155 472 154.8C471.6 155.3 472.1 154.7 472.1 154.7C473 153.8 473.9 152.9 474.8 152.1C476.6 150.5 478.4 149 480.3 147.6C481.2 146.9 482.1 146.3 483 145.6C483.2 145.5 483.8 145.1 483 145.6C483.2 145.4 483.5 145.3 483.7 145.1C484.3 144.7 484.9 144.3 485.4 143.9C487.3 142.6 489.3 141.4 491.2 140.2C493.3 138.9 495.5 137.6 497.7 136.5C498 136.4 498.2 136.2 498.5 136.1C498.7 136 499.5 135.6 498.8 135.9C498.1 136.2 499 135.8 499.2 135.7C499.5 135.6 499.7 135.4 500 135.3C501.1 134.8 502.3 134.3 503.5 133.9C504.5 133.5 503.4 134 503.2 134C503.4 134 503.8 133.8 504 133.7C504.6 133.5 505.2 133.3 505.9 133.2C506.1 133.1 507 132.9 506.2 133.1C505.3 133.3 506.2 133.1 506.5 133.1C507.1 133 507.7 132.9 508.4 132.8C509.6 132.7 508.2 132.8 508.2 132.8C508.2 132.8 508.9 132.8 509 132.8C509.6 132.8 510.1 132.8 510.7 132.8C509.6 132.7 511.2 132.9 511.5 132.9C511.8 132.9 512 133 512.3 133.1C512.3 133.1 513.6 133.4 512.9 133.2C517.4 134.5 520.7 137.5 524 140.8C530.9 147.7 537.8 155.1 541.9 164C546.1 173.2 547.6 183.2 549.3 193.1C552.7 213.5 556.7 233.9 557.6 254.6C557.7 257.1 557.8 259.7 557.8 262.2C557.8 263.1 559.5 263.5 560 263.6C561.3 263.9 563 263.7 564.3 263.3C566.3 262.7 569.4 261.6 569.4 259.1C569.4 237.6 565.3 216.3 561.7 195.1C560 184.9 558.7 174.5 555.1 164.7C553.3 159.8 550.8 155.2 547.8 151C544.8 146.8 541.2 143 537.6 139.2C534.1 135.5 530.5 131.9 526 129.4C520.9 126.6 514.9 126.1 509.3 126.8C498.1 128.3 488 134.4 478.7 140.4C470.1 146 461.8 152.4 455.9 160.8C450.4 168.7 447.1 178.1 445.4 187.5C441.6 209.1 445.8 230.9 447.9 252.4C448.2 255.2 448.4 257.9 448.6 260.7C448.7 261.6 450.2 262 450.8 262.1C452.1 262.4 453.8 262.2 455.1 261.8C457.2 261.5 460.5 260.3 460.3 257.9Z" fill="#FDD2A7"/>
<path d="M478.7 257.4C479.1 241.1 472.2 225.7 473 209.4C473.4 202.4 474.8 195.4 477.3 188.8C479.7 182.3 482.8 176.7 487.1 171.2C488.2 169.8 489.3 168.5 490.5 167.2C490.8 166.9 491 166.7 491.3 166.4C491.5 166.2 492.1 165.6 491.6 166.1C492.2 165.5 492.9 164.9 493.5 164.3C494.8 163.1 496.2 162 497.6 161C498 160.7 498.3 160.5 498.7 160.2C498 160.7 498.8 160.1 499.1 159.9C500 159.3 501 158.8 502 158.3C502.2 158.2 502.4 158.1 502.6 158C502.6 158 501.7 158.4 502.3 158.2C502.8 158 503.2 157.8 503.7 157.6C503.9 157.5 504.1 157.5 504.3 157.4C504.9 157.2 503.8 157.6 503.8 157.6C504.1 157.6 505.2 157.3 505.4 157.2C505.4 157.2 504.2 157.4 504.9 157.3C505.1 157.3 505.3 157.2 505.5 157.2C505.7 157.2 507.2 156.9 506.4 157.1C505.7 157.3 506.9 157.1 507.1 157.1C507.3 157.1 507.5 157.1 507.7 157.1C507 157.1 507.5 157.1 507.9 157.1C508.3 157.1 508.6 157.2 509 157.3C509.2 157.3 510.3 157.7 509.5 157.4C510.3 157.7 511.1 157.9 511.8 158.3C513.4 159 514.2 159.5 515.6 160.6C521.4 165 524.8 171.5 527 178.3C529.6 186.2 530.8 194.6 532.1 202.8C533.5 211.6 534.2 220.3 534.2 229.2C534.2 238.1 534.2 246.9 534.1 255.8C534.1 258 534.1 260.2 534.1 262.4C534.1 263.2 535.8 263.7 536.3 263.7C537.6 263.9 539.3 263.7 540.6 263.3C542.5 262.7 545.7 261.6 545.7 259.2C545.7 249.9 545.8 240.7 545.8 231.4C545.8 222.1 545.7 212.9 544.3 203.7C543 195.1 541.7 186.3 539.4 177.9C537.3 170.4 533.9 162.9 528.1 157.6C525.5 155.2 522.2 153.2 518.8 152.2C513.9 150.8 508.9 151 503.9 152.1C495.1 154.2 487.5 159.6 481.2 165.9C470.9 176.1 464.2 190.1 462.1 204.4C460.9 212.3 461.2 220.2 462.5 228.1C463.9 236.8 466.2 245.3 466.9 254C467.1 256.2 467.1 258.3 467.1 260.5C467.1 261.3 468.8 261.8 469.3 261.8C470.6 262 472.3 261.8 473.6 261.4C475.6 260.9 478.6 259.8 478.7 257.4Z" fill="#FDD2A7"/>
<path d="M484.6 259.4C484.6 259.4 476.3 226.3 484.6 200.2C492.9 174.1 503.1 164.4 514.2 178.7C525.3 192.9 529.5 259.9 529.5 259.9L484.6 259.4Z" fill="#FDD2A7"/>
<path d="M167.9 126.199H194V127.399C189.1 127.399 187.5 129.799 187.5 135.999V140.399V154.699C187.5 159.799 188.7 182.399 165 182.399C150.7 182.399 147.7 174.299 148.3 167.599C149.4 156.699 164.1 158.299 165.2 166.199C157.7 166.199 156.9 181.199 166.1 181.099C175.9 180.999 174.4 154.599 174.4 154.599V140.299V135.899C174.4 129.699 173.2 127.299 167.9 127.299V126.199Z" fill="white"/>
<path d="M209.7 146C216.6 146 220.6 148.6 223 151.7C226.2 155.9 225.8 162.9 218.2 163.8L204.5 165.4C204.6 165.8 204.7 166.3 204.9 166.7C208.4 177.6 221 179.4 226.6 170.2L227.4 171C220.6 188 196.2 185.6 191.5 169.8C191.1 168.6 190.9 167.5 190.8 166.3C189.9 155.4 195 146 209.5 146H209.7ZM209.7 147.1C204.6 147.1 203.2 155.3 204.5 163.8C204.5 163.9 204.5 164.1 204.5 164.2L207 163.9C214.4 163 215.3 158.9 215.1 156.3C214.7 151.7 213.3 147.1 209.7 147.1Z" fill="white"/>
<path d="M225.1 146H234.2H239.4H245.8V147.2C242 147.2 241.2 150.1 243.8 155.8L250.5 170.4L256.1 155.8C258.6 149.1 258 147.5 253.9 147.2V146H268.2V147.2C264.1 147.5 260.7 147.2 257.4 155.9L247.3 182.3H246H241L229.4 155.9C226.9 151 225.6 147.3 222.5 147.3V146.1L225.1 146Z" fill="white"/>
<path d="M284.9 146.099V167.999V172.399C284.9 178.599 286.6 180.999 291.4 180.999V182.199H265.3V180.999C270.7 180.999 271.8 178.599 271.8 172.399V167.999V163.399C271.8 157.199 270.5 153.799 266.4 153.599V152.399C276.5 152.399 283.6 145.999 283.6 145.999L284.9 146.099ZM284.9 133.799C284.9 137.999 281.5 141.399 277.3 141.399C273.1 141.399 269.7 137.999 269.7 133.799C269.7 129.599 273.1 126.199 277.3 126.199C281.5 126.099 284.9 129.599 284.9 133.799Z" fill="white"/>
<path d="M320.7 126.1C329.2 126.1 338.6 131 338.6 142.5C338.6 149.1 335.7 154.3 330.9 157.6L340 173C343.2 178.3 344.6 181 349.6 181V182.2H345.5H337.8C330.5 182.2 329 179.7 326.8 175.9L318.3 161.5C317.9 161.5 317.4 161.5 317 161.5H311.3V167.9V172.3C311.3 178.5 313 180.9 317.8 180.9V182.1H311.3H298.3H291.8V181C297.2 181 298.3 178.6 298.3 172.4V168V140.3V135.9C298.3 129.7 297.1 127.3 291.8 127.3V126.1H298.3H310H320.7ZM311.3 140.3V160.3C321.2 160.1 325.6 150 325.6 142.6C325.6 135.1 321.9 127.2 313.2 127.2H311.2L311.3 140.3Z" fill="white"/>
<path d="M364.7 146C371.6 146 375.6 148.6 378 151.7C381.2 155.9 380.8 162.9 373.2 163.8L359.5 165.4C359.6 165.8 359.7 166.3 359.9 166.7C363.4 177.6 376 179.4 381.6 170.2L382.4 171C375.6 188 351.2 185.6 346.5 169.8C346.1 168.6 345.9 167.5 345.8 166.3C344.9 155.4 350 146 364.5 146H364.7ZM364.7 147.1C359.6 147.1 358.2 155.3 359.5 163.8C359.5 163.9 359.5 164.1 359.5 164.2L362 163.9C369.4 163 370.3 158.9 370.1 156.3C369.7 151.7 368.4 147.1 364.7 147.1Z" fill="white"/>
<path d="M398.1 133V148.3H405V149.5H398.1V165.8V169.9C398.1 179.8 402.9 178.1 405.6 173.2L406.4 174C405 176.4 401.8 183 394.6 183C388.3 183 384.9 179.5 384.9 169.8V165.5V150.4V149.5H378.9V148.3C387.1 146.1 395 139.8 396.8 133H398.1Z" fill="white"/>
<path d="M441.3 164.5C441.3 174.6 433 182.9 422.9 182.9C412.8 182.9 404.5 174.6 404.5 164.5C404.5 154.4 412.8 146.1 422.9 146.1C433 146.1 441.3 154.3 441.3 164.5ZM418.6 148.2C414.9 149.2 414.9 157 417.3 166C419.7 175 423.7 181.7 427.4 180.7C431.1 179.7 431.1 171.9 428.7 162.9C426.5 154.5 422.8 148.1 419.3 148.1C419 148.1 418.8 148.1 418.6 148.2Z" fill="white"/>
<path d="M455.6 146.1C462.1 146.1 464.2 148.4 464.9 146.1H466.1L467.2 158L466 158.1C464.3 150.9 461.6 147.3 455.6 147.3C451.3 147.3 450 151.2 451.6 154.3C454.4 159.7 471.8 160.9 471.8 170.4C471.8 177.7 465.1 182.8 454.1 182.8C444.4 182.8 439.2 176.9 440.6 171.5C441.3 168.8 443.4 167.7 445.6 167.7C449 167.7 452.6 170.5 451.5 174.9C449 173.7 447.3 176.3 447.3 178.1C447.3 179.8 449 181.6 453.4 181.6C458.6 181.6 460.5 178.1 460.5 175.4C460.5 167 442.1 168.4 441 157.1C440.4 151.1 444.5 146.1 455.6 146.1Z" fill="white"/>
<path d="M67.556 89.7388C86.0272 82.0876 94.7986 60.9111 87.1474 42.4398C79.4962 23.9686 58.3198 15.1972 39.8485 22.8484C21.3772 30.4996 12.6058 51.6761 20.2571 70.1473C27.9083 88.6186 49.0847 97.39 67.556 89.7388Z" fill="#D98C24"/>
<path d="M9.89986 93.0999C8.19986 93.1999 6.29986 93.2999 4.79986 92.4999C3.19986 91.6999 2.09986 89.7999 2.79986 88.1999C3.19986 87.1999 4.19986 86.6999 5.19986 86.1999C9.09986 84.3999 13.6999 83.9999 17.2999 81.6999C22.8999 78.2999 25.3999 71.1999 30.9999 67.8999C37.7999 63.8999 46.7999 66.7999 54.1999 64.1999C65.1999 60.2999 69.0999 46.1999 79.1999 40.4999C86.3999 36.3999 95.4999 37.3999 103.4 39.8999C108.5 41.4999 113.7 43.8999 117 48.0999C118.8 50.3999 120 53.1999 122.2 54.9999C127.3 59.0999 134.8 56.4999 141.4 57.1999C154 58.5999 161.8 72.4999 174.1 75.6999C179.8 77.1999 185.9 76.1999 191.4 78.2999C193 78.8999 194.5 79.7999 195.3 81.1999C197 84.0999 195.2 88.0999 192.3 89.7999C189.4 91.5999 185.8 91.6999 182.4 91.6999C136 92.5999 21.0999 92.4999 9.89986 93.0999Z" fill="#FDD2A7"/>
<path d="M188.7 202.7L187.3 207.3H189C190.8 207.3 192.1 207.6 192.9 208.3C193.8 209 194.2 209.9 194.2 211.1C194.2 212.1 194 212.9 193.5 213.6C193 214.3 192.3 214.9 191.4 215.3C190.5 215.7 189.5 215.9 188.3 215.9C187.2 215.9 186.2 215.7 185.4 215.4C184.5 215.1 183.9 214.6 183.4 214L184.2 212.9C184.6 213.4 185.1 213.8 185.9 214.1C186.6 214.4 187.5 214.6 188.4 214.6C189.8 214.6 190.8 214.3 191.6 213.7C192.4 213.1 192.7 212.3 192.7 211.3C192.7 209.6 191.4 208.7 188.7 208.7H185.4L187.6 201.5H195.4L195.1 202.8H188.7V202.7Z" fill="#E8521F"/>
<path d="M214.4 200.6L211.4 215.8H210L210.3 214.1C209.8 214.7 209.2 215.1 208.5 215.4C207.8 215.7 207 215.9 206.1 215.9C205.2 215.9 204.4 215.7 203.7 215.3C203 214.9 202.4 214.4 202 213.7C201.6 213 201.4 212.2 201.4 211.3C201.4 210.1 201.7 209 202.2 208C202.7 207 203.5 206.3 204.4 205.7C205.3 205.1 206.4 204.9 207.5 204.9C208.5 204.9 209.4 205.1 210.1 205.5C210.8 205.9 211.3 206.5 211.6 207.2L212.9 200.5H214.4V200.6ZM208.9 213.9C209.6 213.5 210.2 212.9 210.6 212.1C211 211.3 211.2 210.5 211.2 209.5C211.2 208.4 210.9 207.6 210.3 207C209.7 206.4 208.8 206.1 207.7 206.1C206.8 206.1 206 206.3 205.3 206.8C204.6 207.2 204 207.8 203.6 208.6C203.2 209.4 203 210.2 203 211.2C203 212.3 203.3 213.1 203.9 213.7C204.5 214.3 205.4 214.6 206.5 214.6C207.4 214.6 208.1 214.3 208.9 213.9Z" fill="#E8521F"/>
<path d="M217.1 205.001H218.6L216.5 215.801H215L217.1 205.001ZM219.9 200.801H221.9L218.3 203.301H216.8L219.9 200.801Z" fill="#E8521F"/>
<path d="M232.1 205L230 215.8H228.6L228.9 214.1C228.4 214.7 227.8 215.1 227.1 215.4C226.4 215.7 225.6 215.9 224.7 215.9C223.8 215.9 223 215.7 222.3 215.3C221.6 214.9 221 214.4 220.6 213.7C220.2 213 220 212.2 220 211.3C220 210.1 220.3 209 220.8 208C221.3 207 222.1 206.3 223 205.7C223.9 205.1 225 204.9 226.1 204.9C227.1 204.9 228 205.1 228.7 205.5C229.4 205.9 229.9 206.5 230.2 207.2L230.7 204.9H232.1V205ZM227.4 213.9C228.1 213.5 228.7 212.9 229.1 212.1C229.5 211.3 229.7 210.5 229.7 209.5C229.7 208.4 229.4 207.6 228.8 207C228.2 206.4 227.3 206.1 226.2 206.1C225.3 206.1 224.5 206.3 223.8 206.8C223.1 207.2 222.5 207.8 222.1 208.6C221.7 209.4 221.5 210.2 221.5 211.2C221.5 212.3 221.8 213.1 222.4 213.7C223 214.3 223.9 214.6 225 214.6C225.9 214.6 226.7 214.3 227.4 213.9Z" fill="#E8521F"/>
<path d="M234.5 215.5C233.7 215.3 233.1 214.9 232.7 214.6L233.4 213.5C233.8 213.9 234.3 214.1 235 214.4C235.7 214.6 236.4 214.7 237.1 214.7C238.1 214.7 238.9 214.5 239.5 214.2C240.1 213.9 240.3 213.4 240.3 212.8C240.3 212.5 240.2 212.2 240 212C239.8 211.8 239.5 211.6 239.2 211.5C238.9 211.4 238.4 211.3 237.8 211.1C237 210.9 236.4 210.8 236 210.6C235.5 210.4 235.1 210.2 234.8 209.8C234.5 209.4 234.3 209 234.3 208.3C234.3 207.3 234.7 206.5 235.6 205.9C236.4 205.3 237.6 205 239 205C239.7 205 240.4 205.1 241 205.3C241.7 205.5 242.2 205.7 242.6 206L242 207.2C241.6 206.9 241.1 206.7 240.6 206.5C240 206.3 239.5 206.3 238.9 206.3C237.9 206.3 237.2 206.5 236.6 206.8C236.1 207.2 235.8 207.6 235.8 208.2C235.8 208.6 235.9 208.8 236.1 209.1C236.3 209.3 236.6 209.5 237 209.6C237.3 209.7 237.8 209.8 238.4 209.9C239.1 210.1 239.7 210.2 240.2 210.4C240.7 210.6 241 210.8 241.4 211.2C241.7 211.6 241.9 212 241.9 212.6C241.9 213.7 241.5 214.5 240.6 215.1C239.7 215.7 238.6 216 237.1 216C236.1 215.9 235.2 215.7 234.5 215.5Z" fill="#E8521F"/>
<path d="M262 200.6L259 215.8H257.6L257.9 214.1C257.4 214.7 256.8 215.1 256.1 215.4C255.4 215.7 254.6 215.9 253.7 215.9C252.8 215.9 252 215.7 251.3 215.3C250.6 214.9 250 214.4 249.6 213.7C249.2 213 249 212.2 249 211.3C249 210.1 249.3 209 249.8 208C250.3 207 251.1 206.3 252 205.7C252.9 205.1 254 204.9 255.1 204.9C256.1 204.9 257 205.1 257.7 205.5C258.4 205.9 258.9 206.5 259.2 207.2L260.5 200.5H262V200.6ZM256.5 213.9C257.2 213.5 257.8 212.9 258.2 212.1C258.6 211.3 258.8 210.5 258.8 209.5C258.8 208.4 258.5 207.6 257.9 207C257.3 206.4 256.4 206.1 255.3 206.1C254.4 206.1 253.6 206.3 252.9 206.8C252.2 207.2 251.6 207.8 251.2 208.6C250.8 209.4 250.6 210.2 250.6 211.2C250.6 212.3 250.9 213.1 251.5 213.7C252.1 214.3 253 214.6 254.1 214.6C254.9 214.6 255.7 214.3 256.5 213.9Z" fill="#E8521F"/>
<path d="M264.1 210.801C264.1 210.901 264.1 211.001 264.1 211.201C264.1 212.301 264.4 213.101 265 213.701C265.6 214.301 266.5 214.601 267.8 214.601C268.5 214.601 269.2 214.501 269.8 214.201C270.4 214.001 270.9 213.601 271.3 213.201L272 214.201C271.5 214.701 270.9 215.101 270.1 215.401C269.3 215.701 268.5 215.801 267.7 215.801C266.1 215.801 264.9 215.401 264 214.601C263.1 213.801 262.7 212.701 262.7 211.201C262.7 210.001 263 208.901 263.5 207.901C264 206.901 264.7 206.201 265.6 205.601C266.5 205.001 267.5 204.801 268.7 204.801C270.1 204.801 271.3 205.201 272.1 206.001C272.9 206.801 273.4 207.901 273.4 209.301C273.4 209.701 273.4 210.101 273.3 210.601H264.1V210.801ZM265.8 207.101C265 207.701 264.5 208.601 264.2 209.701H271.9C271.9 209.601 271.9 209.501 271.9 209.301C271.9 208.301 271.6 207.501 271 207.001C270.4 206.401 269.6 206.201 268.5 206.201C267.5 206.101 266.6 206.501 265.8 207.101Z" fill="#E8521F"/>
<path d="M282.8 212.501C282.7 212.801 282.7 213.101 282.7 213.201C282.7 214.201 283.2 214.601 284.3 214.601C284.9 214.601 285.5 214.401 286 214.001L286.3 215.101C285.7 215.601 284.9 215.801 283.9 215.801C283.1 215.801 282.5 215.601 282 215.101C281.5 214.601 281.3 214.101 281.3 213.301C281.3 213.001 281.3 212.701 281.4 212.501L282.6 206.201H280.7L280.9 205.001H282.8L283.3 202.601H284.8L284.3 205.001H287.6L287.4 206.201H284L282.8 212.501Z" fill="#E8521F"/>
<path d="M293.3 205.4C294 205.1 294.9 204.9 295.9 204.9L295.6 206.3H295.2C294 206.3 293.1 206.6 292.3 207.3C291.6 208 291.1 209 290.8 210.3L289.7 215.8H288.2L290.3 205H291.7L291.3 207C291.9 206.3 292.5 205.7 293.3 205.4Z" fill="#E8521F"/>
<path d="M308 205L305.9 215.8H304.5L304.8 214.1C304.3 214.7 303.7 215.1 303 215.4C302.3 215.7 301.5 215.9 300.6 215.9C299.7 215.9 298.9 215.7 298.2 215.3C297.5 214.9 296.9 214.4 296.5 213.7C296.1 213 295.9 212.2 295.9 211.3C295.9 210.1 296.2 209 296.7 208C297.2 207 298 206.3 298.9 205.7C299.8 205.1 300.9 204.9 302 204.9C303 204.9 303.9 205.1 304.6 205.5C305.3 205.9 305.8 206.5 306.1 207.2L306.6 204.9H308V205ZM303.3 213.9C304 213.5 304.6 212.9 305 212.1C305.4 211.3 305.6 210.5 305.6 209.5C305.6 208.4 305.3 207.6 304.7 207C304.1 206.4 303.2 206.1 302.1 206.1C301.2 206.1 300.4 206.3 299.7 206.8C299 207.2 298.4 207.8 298 208.6C297.6 209.4 297.4 210.2 297.4 211.2C297.4 212.3 297.7 213.1 298.3 213.7C298.9 214.3 299.8 214.6 300.9 214.6C301.8 214.6 302.6 214.3 303.3 213.9Z" fill="#E8521F"/>
<path d="M319.6 205.8C320.3 206.4 320.6 207.3 320.6 208.4C320.6 208.8 320.6 209.2 320.5 209.6L319.3 215.7H317.8L319 209.6C319.1 209.2 319.1 208.9 319.1 208.6C319.1 207.8 318.9 207.2 318.4 206.8C317.9 206.4 317.2 206.2 316.3 206.2C315.1 206.2 314.2 206.5 313.4 207.2C312.6 207.8 312.1 208.8 311.9 210L310.8 215.8H309.3L311.4 205H312.8L312.5 206.7C313.5 205.5 314.9 204.9 316.7 204.9C318 204.9 319 205.2 319.6 205.8Z" fill="#E8521F"/>
<path d="M323.6 215.5C322.8 215.3 322.2 214.9 321.8 214.6L322.5 213.5C322.9 213.9 323.4 214.1 324.1 214.4C324.8 214.6 325.5 214.7 326.2 214.7C327.2 214.7 328 214.5 328.6 214.2C329.2 213.9 329.4 213.4 329.4 212.8C329.4 212.5 329.3 212.2 329.1 212C328.9 211.8 328.6 211.6 328.3 211.5C328 211.4 327.5 211.3 326.9 211.1C326.1 210.9 325.5 210.8 325.1 210.6C324.6 210.4 324.2 210.2 323.9 209.8C323.6 209.4 323.4 209 323.4 208.3C323.4 207.3 323.8 206.5 324.7 205.9C325.5 205.3 326.7 205 328.1 205C328.8 205 329.5 205.1 330.1 205.3C330.8 205.5 331.3 205.7 331.7 206L331.1 207.2C330.7 206.9 330.2 206.7 329.7 206.5C329.1 206.3 328.6 206.3 328 206.3C327 206.3 326.3 206.5 325.7 206.8C325.2 207.2 324.9 207.6 324.9 208.2C324.9 208.6 325 208.8 325.2 209.1C325.4 209.3 325.7 209.5 326.1 209.6C326.4 209.7 326.9 209.8 327.5 209.9C328.2 210.1 328.8 210.2 329.3 210.4C329.8 210.6 330.1 210.8 330.5 211.2C330.8 211.6 331 212 331 212.6C331 213.7 330.6 214.5 329.7 215.1C328.8 215.7 327.7 216 326.2 216C325.2 215.9 324.4 215.7 323.6 215.5Z" fill="#E8521F"/>
<path d="M337.8 202.2C337.4 202.5 337.2 203.1 337 203.8L336.8 205H340.1L339.9 206.2H336.6L334.7 215.7H333.2L335.1 206.2H333.2L333.4 205H335.3L335.6 203.6C335.8 202.6 336.2 201.8 336.8 201.2C337.4 200.7 338.2 200.4 339.2 200.4C339.6 200.4 340 200.5 340.4 200.6C340.8 200.7 341.1 200.9 341.3 201.1L340.7 202.2C340.3 201.8 339.8 201.7 339.2 201.7C338.7 201.7 338.2 201.9 337.8 202.2Z" fill="#E8521F"/>
<path d="M342 215.3C341.3 214.9 340.7 214.4 340.3 213.7C339.9 213 339.7 212.2 339.7 211.3C339.7 210.1 340 209 340.5 208C341 207 341.8 206.3 342.7 205.7C343.6 205.1 344.7 204.9 345.9 204.9C347.4 204.9 348.6 205.3 349.5 206.1C350.4 206.9 350.8 208 350.8 209.4C350.8 210.6 350.5 211.7 350 212.7C349.5 213.7 348.7 214.4 347.8 215C346.9 215.6 345.8 215.8 344.6 215.8C343.6 215.9 342.7 215.7 342 215.3ZM347.1 213.9C347.8 213.5 348.4 212.9 348.8 212.1C349.2 211.3 349.4 210.5 349.4 209.5C349.4 208.4 349.1 207.6 348.5 207C347.9 206.4 347 206.1 345.9 206.1C345 206.1 344.2 206.3 343.5 206.8C342.8 207.2 342.2 207.8 341.8 208.6C341.4 209.4 341.2 210.2 341.2 211.2C341.2 212.3 341.5 213.1 342.1 213.7C342.7 214.3 343.6 214.6 344.7 214.6C345.6 214.6 346.4 214.3 347.1 213.9Z" fill="#E8521F"/>
<path d="M357.2 205.4C357.9 205.1 358.8 204.9 359.8 204.9L359.5 206.3H359.1C357.9 206.3 357 206.6 356.2 207.3C355.5 208 355 209 354.7 210.3L353.6 215.8H352.1L354.2 205H355.6L355.2 207C355.9 206.3 356.5 205.7 357.2 205.4Z" fill="#E8521F"/>
<path d="M378.1 205.8C378.8 206.4 379.1 207.3 379.1 208.3C379.1 208.6 379.1 209 379 209.6L377.8 215.7H376.3L377.5 209.6C377.6 209.3 377.6 209 377.6 208.6C377.6 207.8 377.4 207.2 376.9 206.8C376.4 206.4 375.8 206.2 374.9 206.2C373.8 206.2 372.9 206.5 372.2 207.1C371.5 207.7 371 208.6 370.7 209.8L369.5 215.7H368L369.2 209.6C369.3 209.2 369.3 208.9 369.3 208.6C369.3 207.8 369.1 207.2 368.6 206.8C368.2 206.4 367.5 206.2 366.6 206.2C365.5 206.2 364.6 206.5 363.9 207.2C363.2 207.8 362.7 208.8 362.4 210L361.3 215.8H360L362.1 205H363.5L363.2 206.7C364.2 205.5 365.5 204.9 367.3 204.9C368.2 204.9 369 205.1 369.6 205.5C370.2 205.9 370.6 206.4 370.9 207.1C371.4 206.4 372.1 205.9 372.9 205.5C373.7 205.1 374.5 205 375.5 205C376.5 204.9 377.4 205.2 378.1 205.8Z" fill="#E8521F"/>
<path d="M393.2 205L391.1 215.8H389.7L390 214.1C389.5 214.7 388.9 215.1 388.2 215.4C387.5 215.7 386.7 215.9 385.8 215.9C384.9 215.9 384.1 215.7 383.4 215.3C382.7 214.9 382.1 214.4 381.7 213.7C381.3 213 381.1 212.2 381.1 211.3C381.1 210.1 381.4 209 381.9 208C382.4 207 383.2 206.3 384.1 205.7C385 205.1 386.1 204.9 387.2 204.9C388.2 204.9 389.1 205.1 389.8 205.5C390.5 205.9 391 206.5 391.3 207.2L391.8 204.9H393.2V205ZM388.6 213.9C389.3 213.5 389.9 212.9 390.3 212.1C390.7 211.3 390.9 210.5 390.9 209.5C390.9 208.4 390.6 207.6 390 207C389.4 206.4 388.5 206.1 387.4 206.1C386.5 206.1 385.7 206.3 385 206.8C384.3 207.2 383.7 207.8 383.3 208.6C382.9 209.4 382.7 210.2 382.7 211.2C382.7 212.3 383 213.1 383.6 213.7C384.2 214.3 385.1 214.6 386.2 214.6C387.1 214.6 387.8 214.3 388.6 213.9Z" fill="#E8521F"/>
<path d="M397 215.3C396.2 214.9 395.7 214.4 395.3 213.7C394.9 213 394.7 212.2 394.7 211.3C394.7 210.1 395 209 395.5 208C396 207 396.8 206.3 397.7 205.7C398.7 205.1 399.7 204.9 400.9 204.9C401.9 204.9 402.8 205.1 403.5 205.4C404.2 205.7 404.8 206.3 405.2 207L404 207.7C403.4 206.6 402.3 206.1 400.9 206.1C400 206.1 399.2 206.3 398.5 206.8C397.8 207.3 397.2 207.8 396.8 208.6C396.4 209.4 396.2 210.2 396.2 211.2C396.2 212.3 396.5 213.1 397.1 213.7C397.7 214.3 398.6 214.6 399.8 214.6C400.5 214.6 401.1 214.5 401.7 214.2C402.3 213.9 402.8 213.5 403.2 213L404.2 213.8C403.7 214.4 403.1 214.9 402.3 215.3C401.5 215.7 400.6 215.8 399.7 215.8C398.7 215.9 397.8 215.7 397 215.3Z" fill="#E8521F"/>
<path d="M408.1 205H409.6L407.5 215.8H406L408.1 205ZM408.8 202.3C408.6 202.1 408.5 201.9 408.5 201.6C408.5 201.3 408.6 201 408.8 200.8C409 200.6 409.3 200.5 409.6 200.5C409.9 200.5 410.1 200.6 410.3 200.8C410.5 201 410.6 201.2 410.6 201.4C410.6 201.7 410.5 202 410.3 202.2C410.1 202.4 409.8 202.5 409.5 202.5C409.2 202.6 409 202.5 408.8 202.3Z" fill="#E8521F"/>
<path d="M413.3 215.301C412.6 214.901 412 214.401 411.6 213.701C411.2 213.001 411 212.201 411 211.301C411 210.101 411.3 209.001 411.8 208.001C412.3 207.001 413.1 206.301 414 205.701C414.9 205.101 416 204.901 417.2 204.901C418.7 204.901 419.9 205.301 420.8 206.101C421.7 206.901 422.1 208.001 422.1 209.401C422.1 210.601 421.8 211.701 421.3 212.701C420.8 213.701 420 214.401 419.1 215.001C418.2 215.601 417.1 215.801 415.9 215.801C414.9 215.901 414.1 215.701 413.3 215.301ZM418.4 213.901C419.1 213.501 419.7 212.901 420.1 212.101C420.5 211.301 420.7 210.501 420.7 209.501C420.7 208.401 420.4 207.601 419.8 207.001C419.2 206.401 418.3 206.101 417.2 206.101C416.3 206.101 415.5 206.301 414.8 206.801C414.1 207.201 413.5 207.801 413.1 208.601C412.7 209.401 412.5 210.201 412.5 211.201C412.5 212.301 412.8 213.101 413.4 213.701C414 214.301 414.9 214.601 416 214.601C416.9 214.601 417.7 214.301 418.4 213.901ZM419.7 200.801H421.7L418.1 203.301H416.6L419.7 200.801Z" fill="#E8521F"/>
<path d="M433.8 205.8C434.5 206.4 434.8 207.3 434.8 208.4C434.8 208.8 434.8 209.2 434.7 209.6L433.5 215.7H432L433.2 209.6C433.3 209.2 433.3 208.9 433.3 208.6C433.3 207.8 433.1 207.2 432.6 206.8C432.1 206.4 431.4 206.2 430.5 206.2C429.3 206.2 428.4 206.5 427.6 207.2C426.8 207.8 426.3 208.8 426.1 210L425 215.8H423.5L425.6 205H427L426.7 206.7C427.7 205.5 429.1 204.9 430.9 204.9C432.2 204.9 433.2 205.2 433.8 205.8Z" fill="#E8521F"/>
<path d="M121.5 64.7004C121.5 64.7004 122.6 59.6004 118 55.5004C113.4 51.4004 108.8 51.9004 108.8 51.9004C108.8 51.9004 106.1 48.4004 102.8 47.7004C99.4002 47.0004 97.7002 47.6004 97.7002 47.6004C97.7002 47.6004 97.5002 45.5004 92.2002 43.7004C86.9002 41.9004 83.7002 44.6004 83.7002 44.6004C83.7002 44.6004 79.8002 40.7004 74.6002 40.4004C69.4002 40.1004 66.6002 42.1004 66.6002 42.1004C66.6002 42.1004 64.7002 39.5004 59.2002 39.7004C55.8002 39.8004 52.5002 41.1004 49.9002 43.4004L46.2002 51.2004L121.5 64.7004Z" fill="#231F20"/>
<path d="M121.5 64.9997L46.1004 51.4997C46.0004 51.4997 45.9004 51.3997 45.9004 51.3997C45.9004 51.2997 45.9004 51.1997 45.9004 51.1997L49.6004 43.3997C49.6004 43.3997 49.6004 43.2997 49.7004 43.2997C52.3004 40.9997 55.7004 39.6997 59.2004 39.5997C64.0004 39.4997 66.1004 41.2997 66.6004 41.9997C67.3004 41.4997 70.0004 40.0997 74.6004 40.3997C79.3004 40.6997 82.9004 43.7997 83.7004 44.4997C84.5004 43.9997 87.5004 42.0997 92.2004 43.6997C96.5004 45.1997 97.5004 46.7997 97.8004 47.4997C99.5004 47.1997 101.2 47.2997 102.8 47.5997C105.9 48.1997 108.4 51.0997 108.9 51.7997C109.7 51.6997 113.9 51.5997 118.1 55.3997C120.9 57.6997 122.2 61.2997 121.7 64.8997C121.7 64.8997 121.6 64.9997 121.5 64.9997ZM46.5004 51.0997L121.3 64.3997C121.7 61.0997 120.4 57.7997 117.8 55.6997C113.3 51.6997 108.9 52.1997 108.8 52.1997C108.7 52.1997 108.6 52.1997 108.6 52.0997C108.6 52.0997 106 48.5997 102.7 47.9997C99.5004 47.3997 97.7004 47.8997 97.7004 47.8997C97.6004 47.8997 97.5004 47.8997 97.5004 47.8997C97.4004 47.8997 97.4004 47.7997 97.4004 47.6997C97.4004 47.6997 97.1004 45.7997 92.1004 44.0997C87.0004 42.3997 83.9004 44.8997 83.9004 44.8997C83.8004 44.9997 83.6004 44.9997 83.6004 44.8997C83.6004 44.8997 79.7004 41.0997 74.7004 40.7997C69.6004 40.4997 66.9004 42.3997 66.9004 42.3997C66.8004 42.4997 66.6004 42.4997 66.5004 42.2997C66.5004 42.2997 64.6004 39.7997 59.3004 39.9997C56.0004 40.1997 52.8004 41.3997 50.2004 43.5997L46.5004 51.0997Z" fill="#4E4C4D"/>
<path d="M102.8 82.5004C102.8 82.5004 109.1 63.8004 121.5 64.7004C121.1 61.8004 119.1 59.3004 116.3 58.4004C111.5 56.8004 109.9 57.6004 109.9 57.6004C109.9 57.6004 96.2003 63.9004 92.5003 77.6004C92.4003 77.6004 101.6 76.9004 102.8 82.5004Z" fill="white"/>
<path d="M102.8 82.8002C102.7 82.8002 102.6 82.7001 102.6 82.6001C101.5 77.2001 92.6002 77.9002 92.5002 77.9002C92.4002 77.9002 92.3002 77.9002 92.3002 77.8002C92.2002 77.7002 92.2002 77.6001 92.2002 77.6001C95.9002 63.8001 109.6 57.5002 109.8 57.4002C109.9 57.4002 111.6 56.5001 116.4 58.2001C121.2 59.9001 121.8 64.7001 121.8 64.7001C121.8 64.8001 121.8 64.8002 121.7 64.9002C121.6 65.0002 121.6 65.0001 121.5 65.0001C109.4 64.2001 103.1 82.5001 103.1 82.6001C103 82.7001 102.9 82.8002 102.8 82.8002ZM93.5002 77.3002C95.9002 77.3002 101.3 77.8001 102.8 81.7001C104.1 78.2001 110.3 64.0002 121.2 64.4002C120.7 61.7002 118.8 59.5001 116.2 58.6001C111.6 57.0001 110 57.8001 109.9 57.8001C109.8 57.9001 96.5002 64.1002 92.7002 77.3002C92.9002 77.3002 93.2002 77.3002 93.5002 77.3002Z" fill="#231F20"/>
<path d="M92.4002 77.5998C92.4002 77.5998 89.4002 68.7998 79.2002 75.9998C79.2002 75.9998 85.3002 59.6998 99.0002 52.2998C99.0002 52.2998 106.7 47.7998 109.9 57.5998C109.8 57.5998 96.2002 63.2998 92.4002 77.5998Z" fill="white"/>
<path d="M92.4 77.9C92.3 77.9 92.2 77.8 92.2 77.7C92.2 77.7 91.1 74.6 88.2 73.7C85.8 72.9 82.8 73.8 79.4 76.2C79.3 76.3 79.2 76.3 79.1 76.2C79 76.1 79 76 79 75.9C79.1 75.7 85.3 59.5 98.9 52.1C99 52 102.1 50.2 105.3 51.5C107.5 52.3 109.1 54.4 110.2 57.6C110.2 57.7 110.2 57.9 110.1 57.9C110 58 96.5 63.7 92.8 77.8C92.6 77.8 92.5 77.9 92.4 77.9ZM86.3 72.9C87 72.9 87.6 73 88.3 73.2C90.1 73.8 91.5 75.1 92.3 76.8C96.1 64 107.7 58.2 109.5 57.4C108.5 54.5 107 52.6 105 51.9C102.1 50.8 99.1 52.5 99.1 52.5C87.4 58.9 81.2 72 79.7 75.3C82.1 73.7 84.3 72.9 86.3 72.9Z" fill="#231F20"/>
<path d="M79.2004 75.9999C79.2004 75.9999 75.5004 68.6999 67.9004 73.2999C67.9004 73.2999 77.8004 53.5999 86.0004 49.0999C94.2004 44.5999 98.7004 48.5999 99.0004 52.2999C98.9004 52.2999 88.4004 58.7999 79.2004 75.9999Z" fill="white"/>
<path d="M79.2002 76.2997C79.1002 76.2997 79.0002 76.1997 79.0002 76.1997C79.0002 76.1997 77.4002 73.1997 74.4002 72.3997C72.5002 71.8997 70.3002 72.2997 68.1002 73.5997C68.0002 73.6997 67.9002 73.5997 67.8002 73.5997C67.7002 73.4997 67.7002 73.3997 67.7002 73.2997C67.7002 73.1997 70.2002 68.2997 73.7002 62.8997C78.4002 55.5997 82.5002 50.8997 85.9002 49.0997C89.9002 46.8997 93.6002 46.4997 96.2002 47.8997C97.9002 48.7997 99.1002 50.4997 99.2002 52.4997C99.2002 52.5997 99.2002 52.6997 99.1002 52.6997C99.0002 52.7997 88.6002 59.2997 79.4002 76.2997C79.3002 76.1997 79.2002 76.2997 79.2002 76.2997ZM72.6002 71.4997C73.2002 71.4997 73.8002 71.5997 74.4002 71.7997C76.4002 72.3997 78.0002 73.6997 79.1002 75.4997C82.6002 68.8997 87.1002 62.8997 92.3002 57.4997C94.2002 55.4997 96.3002 53.6997 98.6002 52.1997C98.4002 50.4997 97.4002 48.9997 95.8002 48.1997C93.3002 46.8997 89.9002 47.2997 86.0002 49.3997C78.9002 53.2997 70.4002 68.9997 68.5002 72.6997C69.7002 71.9997 71.2002 71.5997 72.6002 71.4997Z" fill="#231F20"/>
<path d="M67.9003 73.2996C66.5003 70.9996 64.0003 69.5996 61.2003 69.5996C56.5003 69.5996 52.8003 74.3996 52.8003 74.3996C52.8003 74.3996 57.6003 58.7996 63.6003 51.3996C69.6003 43.9996 74.6003 43.7996 79.5003 44.1996C84.4003 44.5996 84.3003 50.1996 84.3003 50.1996C84.3003 50.1996 70.7003 65.5996 67.9003 73.2996Z" fill="white"/>
<path d="M52.8 74.6998H52.7C52.6 74.5998 52.5 74.4998 52.6 74.3998C52.6 74.1998 57.5 58.6998 63.5 51.2998C69.6 43.8998 74.6 43.5998 79.6 43.9998C84.6 44.3998 84.6 50.1998 84.6 50.1998C84.6 50.2998 84.6 50.2998 84.5 50.3998C84.4 50.5998 70.9 65.8998 68.1 73.3998C68.1 73.4998 68 73.5998 67.9 73.5998C67.8 73.5998 67.7 73.5998 67.6 73.4998C66.2 71.2998 63.8 69.8998 61.2 69.9998C56.7 69.9998 53.1 74.6998 53 74.6998C53 74.6998 52.9 74.6998 52.8 74.6998ZM77.2 44.3998C73.1 44.3998 68.9 45.5998 63.9 51.5998C58.9 57.5998 54.7 69.4998 53.5 73.2998C54.9 71.8998 57.8 69.2998 61.2 69.2998C63.8 69.2998 66.3 70.4998 67.8 72.6998C70.9 65.1998 83.1 51.1998 84.1 50.0998C84.1 49.3998 83.9 44.7998 79.6 44.4998C78.7 44.3998 78 44.3998 77.2 44.3998Z" fill="#231F20"/>
<path d="M67.2003 47.7998C67.2003 47.7998 68.0003 45.5998 65.3003 42.9998C62.5003 40.3998 57.9003 42.3998 55.8003 44.8998C53.7003 47.3998 38.0003 63.6998 36.8003 76.1998C36.8003 76.1998 44.2003 63.4998 52.8003 74.4998C52.8003 74.3998 59.6003 55.2998 67.2003 47.7998Z" fill="white"/>
<path d="M36.8 76.3999C36.8 76.3999 36.7 76.3999 36.8 76.3999C36.6 76.3999 36.5 76.1999 36.5 76.0999C37.2 68.4999 43.3 58.2999 54.7 45.6999C55.1 45.2999 55.4 44.8999 55.6 44.6999C56.9 43.1999 59.3 41.5999 61.8 41.4999C63.1 41.3999 64.5 41.8999 65.4 42.7999C68.3 45.4999 67.4 47.7999 67.4 47.8999C67.4 47.8999 67.4 47.9999 67.3 47.9999C59.9 55.2999 53.1 74.3999 53 74.4999C53 74.5999 52.8 74.6999 52.7 74.6999C52.6 74.6999 52.6 74.6999 52.6 74.5999C50.2 71.4999 47.7 69.9999 45.1 70.1999C40.4 70.4999 37.1 76.1999 37 76.2999C36.9 76.3999 36.9 76.3999 36.8 76.3999ZM62.1 41.9999H61.8C59.5 42.0999 57.2 43.5999 55.9 44.9999C55.7 45.1999 55.4 45.5999 55 45.9999C44.3 57.8999 38.3 67.6999 37.1 74.9999C38.3 73.2999 41.2 69.8999 45 69.5999C47.7 69.3999 50.2 70.7999 52.7 73.7999C53.8 70.9999 60 54.4999 67 47.6999C67.1 47.3999 67.5 45.4999 65.1 43.1999C64.3 42.3999 63.2 41.9999 62.1 41.9999Z" fill="#231F20"/>
<path d="M36.8004 76.1C36.8004 76.1 34.7004 73.1 30.1004 74.5C25.6004 75.9 22.9004 80.5 22.9004 80.5C22.9004 80.5 26.2004 65.9 30.8004 57.9C35.4004 49.9 39.6004 46.1 39.6004 46.1C39.6004 46.1 38.8004 41.3 43.6004 39.4C48.4004 37.5 52.9004 41.5 53.3004 47.4C53.4004 47.5 37.9004 71.1 36.8004 76.1Z" fill="white"/>
<path d="M22.9001 80.8001C22.7001 80.8001 22.6001 80.6001 22.6001 80.5001C22.6001 80.4001 25.9001 65.8001 30.6001 57.8001C34.8001 50.5001 38.7001 46.7001 39.3001 46.1001C39.2001 45.3001 39.0001 41.0001 43.5001 39.3001C45.4001 38.5001 47.6001 38.7001 49.4001 39.8001C51.7001 41.3001 53.3001 44.2001 53.6001 47.5001C53.6001 47.6001 53.6001 47.6001 53.6001 47.7001C53.5001 47.9001 38.1001 71.3001 37.0001 76.2001C37.0001 76.3001 36.9001 76.4001 36.8001 76.4001C36.7001 76.4001 36.6001 76.4001 36.5001 76.3001C36.4001 76.2001 34.4001 73.5001 30.1001 74.8001C25.7001 76.2001 23.1001 80.6001 23.1001 80.7001C23.1001 80.7001 23.0001 80.8001 22.9001 80.8001ZM46.1001 39.2001C45.3001 39.2001 44.5001 39.4001 43.8001 39.6001C39.2001 41.4001 39.9001 46.0001 39.9001 46.0001C39.9001 46.1001 39.9001 46.2001 39.8001 46.2001C39.8001 46.2001 35.6001 50.0001 31.1001 57.9001C27.4001 64.4001 24.5001 75.2001 23.5001 79.1001C24.6001 77.6001 26.8001 75.2001 30.0001 74.2001C33.6001 73.1001 35.8001 74.7001 36.6001 75.5001C38.4001 69.8001 52.0001 49.0001 53.1001 47.3001C52.8001 44.2001 51.4001 41.4001 49.2001 40.1001C48.3001 39.6001 47.2001 39.2001 46.1001 39.2001Z" fill="#231F20"/>
<path d="M45.1001 38.7995C45.1001 38.7995 42.1001 38.6995 38.6001 40.8995C35.1001 43.0995 27.6001 53.9995 23.8001 64.1995C20.0001 74.3995 20.0001 77.5995 20.7001 79.2995C21.0001 80.1995 22.0001 80.7995 23.0001 80.4995C23.0001 80.4995 27.0001 62.4995 40.3001 47.9995C40.2001 47.9995 39.3001 39.7995 45.1001 38.7995Z" fill="#231F20"/>
<path d="M22.4002 80.8C21.5002 80.8 20.7002 80.2 20.4002 79.4C19.7002 77.7 19.6002 74.7 23.5002 64.1C27.1002 54.3 34.8002 43.1 38.5002 40.7C42.0002 38.5 45.0002 38.5 45.1002 38.5C45.2002 38.5 45.4002 38.6 45.4002 38.7C45.4002 38.8 45.3002 39 45.2002 39C39.7002 39.9 40.5002 47.9 40.5002 47.9C40.5002 48 40.5002 48 40.4002 48.1C27.4002 62.4 23.2002 80.3 23.2002 80.5C23.2002 80.6 23.1002 80.7 23.0002 80.7C22.8002 80.8 22.6002 80.8 22.4002 80.8ZM42.9002 39.4C41.5002 39.8 40.1002 40.4 38.8002 41.2C35.6002 43.3 27.9002 53.9 24.0002 64.3C20.1002 74.7 20.3002 77.7 21.0002 79.2C21.2002 80 22.0002 80.4 22.8002 80.3C23.2002 78.5 27.6002 61.6 40.0002 47.9C39.9002 47.1 39.6002 41.6 42.9002 39.4Z" fill="#4E4C4D"/>
<path d="M110 56.2C109.8 56.2 109.7 56.1 109.7 55.9C109.9 54.4 108.5 52.1 108.5 52C108.4 51.9 108.5 51.7 108.6 51.6C108.7 51.5 108.9 51.6 109 51.7C109.1 51.8 110.5 54.2 110.3 55.9C110.2 56.1 110.1 56.2 110 56.2Z" fill="#231F20"/>
<path d="M99.1002 50.9998C98.9002 50.9998 98.8002 50.8998 98.8002 50.6998C99.0002 49.2998 97.4002 47.8998 97.4002 47.8998C97.3002 47.7998 97.3002 47.5998 97.4002 47.4998C97.5002 47.3998 97.7002 47.3998 97.8002 47.4998C97.9002 47.5998 99.6002 49.0998 99.4002 50.7998C99.4002 50.8998 99.2002 50.9998 99.1002 50.9998Z" fill="#231F20"/>
<path d="M84.6003 48.7C84.4003 48.7 84.3003 48.6 84.3003 48.4C84.6003 45.9 83.5003 45 83.5003 45C83.4003 44.9 83.4003 44.7 83.5003 44.6C83.6003 44.5 83.7003 44.5 83.9003 44.5C84.0003 44.5 85.3003 45.5 84.9003 48.4C84.8003 48.6 84.7003 48.7 84.6003 48.7Z" fill="#231F20"/>
<path d="M68.1002 45.8004C68.0002 45.8004 67.8002 45.7004 67.8002 45.5004C67.8002 44.3004 67.2002 43.2004 66.3002 42.4004C66.2002 42.3004 66.2002 42.2004 66.2002 42.0004C66.3002 41.9004 66.4002 41.9004 66.6002 41.9004C67.6002 42.8004 68.3002 44.0004 68.3002 45.4004C68.4002 45.7004 68.3002 45.8004 68.1002 45.8004Z" fill="#231F20"/>
<path d="M88.5003 111.7C88.4003 111.7 88.4003 111.7 88.4003 111.7C88.3003 111.6 88.3003 111.5 88.3003 111.3L121.3 64.4998C121.4 64.3998 121.6 64.3998 121.7 64.4998C121.8 64.5998 121.8 64.6998 121.8 64.7998L88.8003 111.6C88.6003 111.7 88.6003 111.7 88.5003 111.7Z" fill="#231F20"/>
<path d="M106.9 103.3C106.8 103.3 106.8 103.3 106.7 103.2L99.6 95.5998C99.5 95.4998 99.5 95.3998 99.5 95.3998L102.5 82.4998C102.5 82.3998 102.7 82.2998 102.8 82.2998C102.9 82.2998 103 82.4998 103 82.5998L100 95.3998L107 102.9C107.1 103 107.1 103.2 107 103.3C107 103.3 107 103.3 106.9 103.3Z" fill="#231F20"/>
<path d="M71.8004 111.3C71.7004 111.3 71.6004 111.2 71.6004 111.2L40.0004 48.1002C39.9004 48.0002 40.0004 47.8002 40.1004 47.8002C40.2004 47.7002 40.4004 47.8002 40.4004 47.9002L72.0004 110.9C72.1004 111 72.0004 111.2 71.9004 111.2C71.9004 111.3 71.9004 111.3 71.8004 111.3Z" fill="#231F20"/>
<path d="M61.5002 103.7C61.3002 103.7 61.2002 103.5 61.2002 103.4L62.6002 93.4998L22.9002 80.7998C22.8002 80.7998 22.7002 80.5998 22.7002 80.4998C22.7002 80.3998 22.9002 80.2998 23.0002 80.2998L63.0002 92.9998C63.1002 92.9998 63.2002 93.1998 63.2002 93.2998L61.8002 103.5C61.8002 103.6 61.6002 103.7 61.5002 103.7Z" fill="#231F20"/>
<path d="M104 114.6C104 114.6 105.7 111.7 105.1 109.7C104.5 107.7 104.9 105.7 105.4 105.5C105.9 105.3 108.4 106.4 108.5 106.8C108.6 107.2 107.9 116.5 107.9 116.7" fill="white"/>
<path d="M107.9 117C107.7 117 107.6 116.8 107.6 116.7C107.7 116.2 108.3 107.4 108.2 106.9C108 106.6 105.8 105.6 105.4 105.8C105.1 105.9 104.7 107.7 105.3 109.7C105.9 111.7 104.3 114.7 104.2 114.8C104.1 114.9 104 115 103.8 114.9C103.7 114.8 103.6 114.7 103.7 114.5C103.7 114.5 105.3 111.6 104.7 109.8C104.1 107.8 104.4 105.6 105.1 105.3C105.7 105.1 107.2 105.8 107.4 105.9C108.4 106.4 108.5 106.7 108.6 106.8C108.8 107.3 108 116.8 108 116.8C108.1 116.9 108 117 107.9 117Z" fill="#231F20"/>
<path d="M109.4 108.1C109.4 108.2 109.3 108.2 109.4 108.1C109 108 105.4 107.5 103.1 107.2C103 107.2 103 107.1 102.9 107.1C102.9 107 102.9 106.9 102.9 106.9C103 106.8 104.3 103.3 106.9 102.8C107.4 102.7 107.9 102.8 108.2 103.1C109.6 104.2 109.7 107.7 109.7 107.8C109.7 107.9 109.7 108 109.6 108C109.5 108.1 109.4 108.2 109.4 108.1ZM103.5 106.7C107.1 107.2 108.6 107.4 109.1 107.5C109 106.6 108.8 104.3 107.8 103.5C107.5 103.3 107.2 103.2 106.9 103.3C105.1 103.6 103.9 105.9 103.5 106.7Z" fill="#231F20"/>
<path d="M105 106.9C105 107 105 107 105 107.1C105.1 107.3 105.3 107.3 105.5 107.2C105.7 107.1 105.8 107 105.9 106.8C105.8 106.9 105.8 107.1 105.8 107.2C105.8 107.3 105.9 107.5 106.1 107.5C106.4 107.5 106.4 107.1 106.7 107C106.6 107.1 106.6 107.3 106.6 107.4C106.6 107.5 106.6 107.7 106.8 107.8C107 107.9 107.2 107.9 107.3 107.8C107.4 107.7 107.6 107.5 107.6 107.4C107.5 107.7 107.5 108 107.8 108.1C108.1 108.2 108.3 108.1 108.5 107.9C108.8 107.6 108.9 107.3 109 106.9C109.1 106.6 109 106.3 108.9 106.1C108.8 106 108.7 105.9 108.5 105.8C108 105.5 107.5 105.3 106.9 105.1C106.5 105 105.9 104.9 105.6 105.3C105.2 105.9 105 106.4 105 106.9Z" fill="white"/>
<path d="M107.8 108.5C107.7 108.5 107.6 108.5 107.5 108.4C107.4 108.3 107.3 108.2 107.2 108.1C107 108.3 106.7 108.3 106.4 108.1C106.3 108 106.2 107.9 106.2 107.8C106.1 107.8 106.1 107.8 106 107.8C105.8 107.8 105.6 107.7 105.5 107.5C105.4 107.6 105.2 107.6 105 107.5C104.9 107.5 104.8 107.4 104.7 107.2C104.7 107.1 104.6 107 104.7 106.9C104.7 106.3 104.9 105.8 105.1 105.3C105.4 104.9 105.9 104.8 106.7 105C107.3 105.1 107.9 105.4 108.4 105.7C108.6 105.8 108.7 105.9 108.8 106.1C109 106.4 109.1 106.8 109 107.1C108.9 107.5 108.7 107.9 108.4 108.2C108.3 108.4 108.1 108.5 107.8 108.5ZM107.5 107.2H107.6C107.7 107.3 107.8 107.4 107.7 107.5C107.6 107.7 107.7 107.9 107.7 107.9C107.8 107.9 107.9 107.9 108.1 107.7C108.3 107.5 108.5 107.2 108.5 106.9C108.6 106.7 108.5 106.5 108.4 106.3C108.3 106.2 108.2 106.1 108.1 106.1C107.6 105.8 107.1 105.6 106.6 105.5C106.3 105.4 105.7 105.4 105.6 105.6C105.4 106 105.3 106.5 105.3 106.9V107H105.4C105.5 106.9 105.6 106.8 105.7 106.7C105.8 106.6 105.9 106.6 106 106.6C106.1 106.7 106.2 106.8 106.1 106.9C106.1 107 106 107.1 106 107.2C106 107.2 106 107.2 106 107.3C106.1 107.1 106.2 107 106.4 106.9C106.5 106.8 106.6 106.9 106.7 106.9C106.8 107 106.8 107.1 106.8 107.2C106.7 107.3 106.7 107.4 106.7 107.5C106.7 107.6 106.7 107.6 106.7 107.7C106.7 107.7 106.8 107.7 106.9 107.7C107 107.6 107.1 107.5 107.2 107.4C107.3 107.3 107.4 107.2 107.5 107.2Z" fill="#231F20"/>
<path d="M105.4 111.1C105.3 110.9 104.4 109.2 103.9 108.1C103.4 106.9 103.3 106.7 103.8 106.6C104.3 106.5 105.9 109.1 105.9 109.1" fill="white"/>
<path d="M105.4 111.3C105.3 111.3 105.2 111.2 105.2 111.1C105.2 111.1 105.1 110.9 105 110.6C104.7 110 104.1 108.9 103.7 108C103.3 107.1 103.2 106.8 103.3 106.5C103.4 106.3 103.5 106.2 103.7 106.2C103.9 106.2 104.3 106 106.1 108.8C106.2 108.9 106.1 109.1 106 109.2C105.9 109.3 105.7 109.2 105.6 109.1C104.9 108.1 104 106.9 103.8 106.7H103.7C103.8 107.1 103.9 107.4 104.1 107.8C104.4 108.6 105 109.7 105.3 110.3C105.4 110.6 105.5 110.8 105.6 110.8C105.7 111.1 105.6 111.3 105.4 111.3Z" fill="#231F20"/>
<path d="M62.1003 115.7C62.1003 115.7 61.1003 112.5 62.1003 110.7C63.1003 108.9 63.1003 106.8 62.7003 106.5C62.2003 106.2 59.6003 106.8 59.4003 107.1C59.2003 107.5 58.8003 117.3 58.8003 117.1" fill="white"/>
<path d="M58.8 117.5C58.6 117.5 58.5 117.4 58.5 117.2C58.5 117.1 58.5 116.8 58.5 116.4C58.9 108.2 59 107.3 59.1 107.1C59.1 107 59.3 106.8 60.4 106.5C60.6 106.5 62.3 106 62.8 106.4C63.4 106.8 63.3 109 62.3 110.9C61.4 112.6 62.3 115.7 62.4 115.7C62.4 115.8 62.4 116 62.2 116C62.1 116 61.9 116 61.9 115.8C61.9 115.7 60.9 112.5 61.9 110.6C62.9 108.7 62.8 107 62.6 106.8C62.4 106.6 59.9 107.1 59.6 107.4C59.5 107.7 59.3 110.7 59 116.4C59 116.8 59 117 58.9 117.2C58.9 117.2 58.9 117.2 58.9 117.3C58.9 117.4 58.9 117.5 58.8 117.5Z" fill="#231F20"/>
<path d="M61.5004 112C61.6004 111.8 62.9004 110.4 63.6004 109.3C64.3004 108.2 64.4004 108.1 64.0004 107.9C63.6004 107.7 61.4004 109.9 61.4004 109.9" fill="white"/>
<path d="M61.5004 112.3C61.4004 112.3 61.2004 112.2 61.2004 112C61.2004 111.9 61.2004 111.9 61.2004 111.9C61.2004 111.9 61.4004 111.7 61.6004 111.5C62.1004 110.9 62.8004 110 63.3004 109.3C63.5004 109 63.8004 108.7 63.9004 108.3H63.8004C63.5004 108.4 62.4004 109.3 61.5004 110.2C61.4004 110.3 61.2004 110.3 61.1004 110.2C61.0004 110.1 61.0004 110 61.1004 109.9C63.4004 107.5 63.8004 107.8 64.0004 107.8C64.2004 107.9 64.3004 108 64.4004 108.2C64.5004 108.5 64.3004 108.8 63.7004 109.6C63.1004 110.4 62.4004 111.3 61.9004 111.9C61.7004 112.1 61.6004 112.3 61.6004 112.3C61.7004 112.2 61.6004 112.2 61.5004 112.3Z" fill="#231F20"/>
<path d="M57.9001 108.6C57.8001 108.6 57.8001 108.6 57.7001 108.5C57.6001 108.4 57.6001 108.4 57.6001 108.3C57.6001 108.1 58.0001 104.4 60.3001 103.3C60.7001 103.1 61.2001 103.1 61.7001 103.3C63.3001 104 64.3001 107.3 64.4001 107.5C64.4001 107.6 64.4001 107.8 64.2001 107.8H64.1001C63.9001 107.8 60.3001 108.3 57.9001 108.6ZM61.1001 103.7C60.9001 103.7 60.7001 103.7 60.6001 103.8C58.9001 104.6 58.4001 107.1 58.2001 108C61.8001 107.5 63.3001 107.4 63.8001 107.3C63.5001 106.5 62.7001 104.3 61.5001 103.7C61.4001 103.7 61.3001 103.7 61.1001 103.7Z" fill="#231F20"/>
<path d="M62.7 108C62.7 108.1 62.7 108.1 62.6 108.2C62.5 108.3 62.3 108.3 62.1 108.2C62 108.1 61.9 107.9 61.8 107.8C61.8 107.9 61.8 108.1 61.8 108.2C61.8 108.3 61.6 108.4 61.5 108.4C61.3 108.4 61.2 108 61.1 107.8C61.1 107.9 61.1 108.1 61.1 108.2C61.1 108.3 61 108.5 60.9 108.5C60.7 108.6 60.5 108.5 60.4 108.4C60.3 108.3 60.2 108.1 60.2 107.9C60.2 108.2 60.2 108.5 59.9 108.6C59.6 108.7 59.4 108.5 59.3 108.2C59.1 107.9 59 107.5 59 107.2C59 106.9 59.1 106.6 59.3 106.4C59.4 106.3 59.6 106.2 59.7 106.2C60.2 106 60.8 105.9 61.4 105.9C61.8 105.9 62.4 106 62.7 106.4C62.8 107 62.8 107.5 62.7 108Z" fill="white"/>
<path d="M59.8003 109C59.5003 109 59.2003 108.8 59.1003 108.5C58.9003 108.1 58.8003 107.7 58.8003 107.3C58.8003 106.9 58.9003 106.6 59.2003 106.3C59.4003 106.2 59.5003 106.1 59.7003 106C60.3003 105.8 60.9003 105.7 61.5003 105.7C62.3003 105.7 62.8003 105.9 63.0003 106.4C63.2003 106.9 63.2003 107.5 63.1003 108.1C63.1003 108.2 63.0003 108.3 63.0003 108.4C62.9003 108.5 62.8003 108.6 62.6003 108.6C62.4003 108.6 62.3003 108.6 62.1003 108.5C62.0003 108.7 61.8003 108.8 61.6003 108.7C61.5003 108.7 61.5003 108.7 61.4003 108.6C61.3003 108.7 61.2003 108.8 61.1003 108.9C60.8003 109 60.5003 108.9 60.3003 108.7C60.2003 108.8 60.1003 108.9 60.0003 108.9C59.9003 109 59.9003 109 59.8003 109ZM61.4003 106.2C60.8003 106.2 60.2003 106.3 59.7003 106.5C59.6003 106.5 59.5003 106.6 59.4003 106.7C59.3003 106.9 59.2003 107.1 59.2003 107.3C59.2003 107.6 59.3003 107.9 59.5003 108.2C59.6003 108.4 59.7003 108.5 59.8003 108.4C59.9003 108.3 59.9003 108.2 59.9003 108C59.9003 107.9 60.0003 107.7 60.1003 107.7C60.2003 107.7 60.4003 107.7 60.4003 107.9C60.4003 108 60.5003 108.2 60.6003 108.3C60.6003 108.4 60.7003 108.4 60.8003 108.4L60.9003 108.3C60.9003 108.2 60.9003 108.1 60.9003 108C60.9003 107.9 60.9003 107.8 61.0003 107.7C61.1003 107.6 61.2003 107.6 61.3003 107.7C61.4003 107.8 61.5003 107.9 61.5003 108.1C61.5003 108.2 61.6003 108.2 61.6003 108.3C61.6003 108.3 61.6003 108.3 61.6003 108.2C61.6003 108.1 61.6003 108 61.6003 107.9C61.6003 107.8 61.7003 107.6 61.8003 107.6C61.9003 107.6 62.1003 107.6 62.1003 107.8C62.1003 107.9 62.2003 108 62.3003 108.1H62.4003C62.4003 108.1 62.4003 108.1 62.4003 108C62.5003 107.5 62.5003 107.1 62.3003 106.6C62.3003 106.3 61.8003 106.2 61.4003 106.2Z" fill="#231F20"/>
<path d="M91.3004 113.8L100.9 117.6L103.3 109.1L108.8 110.3C108.8 110.3 107.9 126.7 105.7 126.5C103.5 126.3 90.4004 119.5 90.4004 119.5L91.3004 113.8Z" fill="black"/>
<path d="M77.1003 108.7C75.9003 108.6 74.7003 108.8 73.7003 109.4C71.2003 110.8 70.7003 113 70.0003 115.5C68.8003 119.6 67.4003 123.7 67.6003 128C67.6003 128.8 67.8003 129.6 68.1003 130.4C68.4003 131.1 68.9003 131.7 69.4003 132.2C71.8003 134.6 73.4003 135 76.5003 134.6C77.0003 134.5 83.8003 135.1 83.8003 134.9L88.3003 113.3C88.4003 112.8 78.8003 109.1 77.8003 108.9C77.6003 108.8 77.3003 108.7 77.1003 108.7Z" fill="white"/>
<path d="M83.4001 135.1C82.8001 135.1 81.8001 135 79.7001 134.9C78.3001 134.8 76.7001 134.7 76.5001 134.7C73.3001 135.1 71.7001 134.8 69.2001 132.2C68.6001 131.7 68.2001 131.1 67.8001 130.4C67.5001 129.6 67.3001 128.8 67.3001 127.9C67.1001 124 68.2001 120.2 69.3001 116.6L69.7001 115.3L69.8001 114.9C70.5001 112.5 71.1001 110.5 73.5001 109.1C74.6001 108.5 75.8001 108.2 77.1001 108.3C77.4001 108.3 77.6001 108.4 77.9001 108.4C78.4001 108.5 81.1001 109.5 83.6001 110.5C88.7001 112.5 88.7001 112.8 88.6001 113.1L84.1001 134.7C84.1001 135.1 84.1001 135.1 83.4001 135.1ZM76.7001 134.3C77.1001 134.3 78.2001 134.4 79.8001 134.5C81.2001 134.6 83.1001 134.7 83.7001 134.7C83.8001 134 84.6001 130.5 88.1001 113.4C87.3001 112.7 78.9001 109.5 77.8001 109.2C77.6001 109.1 77.3001 109.1 77.1001 109.1C76.0001 109 74.8001 109.2 73.9001 109.8C71.7001 111.1 71.1001 113 70.4001 115.3L70.3001 115.7C70.2001 116.1 70.0001 116.5 69.9001 117C68.8001 120.6 67.7001 124.3 67.9001 128.2C67.8001 129.7 68.5001 131.2 69.7001 132.1C72.1001 134.5 73.5001 134.8 76.6001 134.4L76.7001 134.3Z" fill="#231F20"/>
<path d="M69.4003 130.1C69.3003 130.1 69.1003 130 69.1003 129.8C68.7003 120.9 74.1003 109.9 74.1003 109.8C74.2003 109.7 74.3003 109.6 74.4003 109.7C74.5003 109.8 74.6003 109.9 74.5003 110C74.4003 110.1 69.2003 121 69.5003 129.8C69.6003 130 69.5003 130.1 69.4003 130.1Z" fill="#231F20"/>
<path d="M56.4 142.1C56.4 142.1 52.6 140.7 52.3 141C52 141.3 49.8 148.3 49.8 151C49.7 153.6 52 156.6 53.1 156C54.3 155.4 53.3 148.7 54.8 146.5C55.7 145.2 56.2 143.7 56.4 142.1Z" fill="white"/>
<path d="M52.7 156.3C52.4 156.3 52.1 156.2 51.8 156C50.6 155.2 49.3 153 49.4 151C49.5 148.4 51.6 141.2 52 140.8C52.1 140.7 52.4 140.4 56.4 141.8C56.5 141.8 56.6 141.9 56.6 142.1C56.5 143.7 55.9 145.3 54.9 146.6C54.1 147.7 54 150 54 152.1C53.9 154.5 53.8 155.8 53.1 156.2C53 156.3 52.9 156.3 52.7 156.3ZM52.4 141.2C52 141.9 50 148.5 49.9 151C49.8 152.8 51 154.9 52.1 155.6C52.3 155.8 52.6 155.8 52.9 155.8C53.3 155.6 53.4 153.7 53.5 152.2C53.6 150 53.7 147.6 54.5 146.4C55.3 145.2 55.9 143.8 56.1 142.3C54.6 141.7 52.8 141.2 52.4 141.2Z" fill="#231F20"/>
<path d="M87.3003 132.1C87.3003 132.1 96.6003 145.8 97.4003 147.6C98.1003 149.4 105 163.9 105 163.9L99.3003 166.1C99.3003 166.1 91.3003 154.9 89.7003 150.7C89.0003 148.6 81.0003 139 81.0003 139C81.0003 139 76.2003 156.1 74.3003 156.1C72.4003 156.1 54.8003 146.6 54.8003 146.6L56.4003 142.2L68.9003 144.3L71.0003 132L87.3003 132.1Z" fill="#231F20"/>
<path d="M99.2 166.3C99.1 166.3 99 166.3 99 166.2C98.7 165.7 90.9 155 89.4 150.7C88.8 148.9 82.5 141.3 81.1 139.5C80.8 140.7 79.7 144.2 78.6 147.6C75.7 156.3 74.7 156.3 74.3 156.3C72.4 156.3 56.5 147.7 54.7 146.7C54.6 146.6 54.5 146.5 54.6 146.4L56.2 142C56.2 141.9 56.4 141.8 56.5 141.9L68.7 143.9L70.8 131.9C70.8 131.8 70.9 131.7 71.1 131.7L87.4 131.9C87.5 131.9 87.6 131.9 87.6 132C88 132.6 97 145.8 97.7 147.5C98.4 149.3 105.3 163.7 105.3 163.8C105.3 163.9 105.3 163.9 105.3 164C105.3 164.1 105.2 164.1 105.2 164.1L99.2 166.3ZM81 138.7C81.1 138.7 81.2 138.7 81.2 138.8C81.5 139.2 89.2 148.4 90 150.5C91.4 154.4 98.4 164.3 99.4 165.7L104.7 163.7C103.7 161.7 97.9 149.3 97.2 147.6C96.5 146 88.1 133.6 87.2 132.3L71.3 132.1L69.2 144.2C69.2 144.3 69.1 144.4 68.9 144.4L56.7 142.4L55.2 146.4C60.2 149.1 72.9 155.8 74.4 155.8C75.5 155.8 78.5 147.2 80.8 138.9C80.7 138.8 80.8 138.7 81 138.7Z" fill="#231F20"/>
<path d="M95.0002 102C94.9002 101.7 94.7002 101.4 94.4002 101.2C94.1002 101 93.8002 100.8 93.4002 100.7C92.7002 100.4 92.1002 100.3 91.4002 100.2C91.1002 100.2 89.9002 100.4 89.7002 100.3C89.0002 99.9995 89.2002 99.1995 88.2002 98.9995C86.8002 98.6995 85.0002 100.1 83.9002 100.8C82.0002 102.1 79.9002 103.4 77.7002 103C78.4002 108.4 83.0002 112.7 88.0002 114.6C88.4002 114.8 88.8002 114.9 89.3002 114.8C89.8002 114.6 90.3002 114.3 90.6002 113.8C92.8002 111 95.4002 107.8 95.4002 104.1C95.3002 103.3 95.2002 102.6 95.0002 102Z" fill="white"/>
<path d="M88.9003 115.1C88.5003 115.1 88.2003 115 87.8003 114.8C82.1003 112.6 77.9003 108 77.3003 103C77.3003 102.9 77.3003 102.8 77.4003 102.8C77.5003 102.7 77.5003 102.7 77.6003 102.7C79.7003 103.1 81.7003 101.9 83.6003 100.6L83.9003 100.4C85.0003 99.5996 86.7003 98.4996 88.1003 98.6996C88.6003 98.7996 89.0003 99.0996 89.2003 99.5996C89.3003 99.7996 89.4003 99.9996 89.6003 100.1C89.9003 100.1 90.2003 100.1 90.5003 99.9996C90.8003 99.9996 91.0003 99.8996 91.3003 99.8996C92.0003 99.9996 92.7003 100.2 93.3003 100.4H93.4003C93.8003 100.5 94.1003 100.7 94.4003 100.9C94.7003 101.1 95.0003 101.5 95.1003 101.8C95.3003 102.5 95.5003 103.2 95.4003 103.9C95.4003 107.8 92.6003 111.3 90.6003 113.8C90.3003 114.3 89.7003 114.7 89.1003 114.9C89.1003 115.1 89.0003 115.1 88.9003 115.1ZM77.9003 103.3C78.7003 108 82.6003 112.3 88.0003 114.4C88.3003 114.6 88.7003 114.6 89.1003 114.6C89.6003 114.4 90.0003 114.1 90.3003 113.7C92.3003 111.2 95.1003 107.9 95.0003 104.1C95.0003 103.4 94.9003 102.8 94.7003 102.2C94.6003 101.9 94.4003 101.7 94.2003 101.5C93.9003 101.3 93.6003 101.2 93.3003 101.1H93.2003C92.6003 100.9 92.0003 100.7 91.3003 100.6C91.1003 100.6 90.8003 100.6 90.6003 100.7C90.2003 100.8 89.9003 100.8 89.5003 100.7C89.2003 100.6 89.0003 100.3 88.8003 99.9996C88.7003 99.6996 88.4003 99.3996 88.0003 99.3996C86.9003 99.1996 85.2003 100.3 84.2003 101L83.9003 101.2C82.1003 102.3 80.1003 103.5 77.9003 103.3Z" fill="#231F20"/>
<path d="M93.6 114C93.5 113.6 82.6 107.3 78 109.8C73.4 112.3 71 131.9 71 131.9C71 131.9 73.7 132 79.3 132.9C85 133.8 86.3 133 86.3 133C86.3 133 96.9 124.1 93.6 114Z" fill="black"/>
<path d="M88.5 111.5L87.6 114.6C87.6 114.6 86.8 115.9 84.9 114.8C83 113.7 83.1 112.2 83.1 112.2L85 106.5C85 106.5 88.7 105.7 89.2 102.2C89.2 102.2 90 104.5 93.1 104.9C92.6 106.7 92 108.4 91.4 110.1C90.6 111.7 88.5 111.5 88.5 111.5Z" fill="white"/>
<path d="M86.3003 115.5C85.8003 115.5 85.2003 115.3 84.8003 115C82.8003 113.9 82.8003 112.2 82.8003 112.2C82.8003 112.2 82.8003 112.2 82.8003 112.1L84.7003 106.4C84.7003 106.3 84.8003 106.2 84.9003 106.2C85.0003 106.2 88.4003 105.4 88.9003 102.2C88.9003 102.1 89.0003 102 89.1003 102C89.2003 102 89.3003 102.1 89.4003 102.2C89.4003 102.3 90.2003 104.3 93.1003 104.8C93.2003 104.8 93.2003 104.9 93.3003 104.9C93.3003 105 93.4003 105 93.3003 105.1C92.8003 106.9 92.2003 108.6 91.5003 110.3C90.9003 111.7 89.2003 111.8 88.6003 111.8L87.8003 114.7C87.8003 114.7 87.8003 114.7 87.8003 114.8C87.5003 115.2 86.9003 115.5 86.3003 115.5ZM83.3003 112.2C83.3003 112.4 83.4003 113.6 85.0003 114.5C86.6003 115.4 87.2003 114.6 87.4003 114.4L88.3003 111.4C88.3003 111.3 88.5003 111.2 88.6003 111.2C88.6003 111.2 90.5003 111.4 91.2003 110.1C91.8003 108.5 92.4003 106.9 92.9003 105.2C91.5003 105 90.2003 104.2 89.4003 103C88.6003 105.6 86.0003 106.5 85.3003 106.7L83.3003 112.2Z" fill="#231F20"/>
<path d="M85.9 106.6C85.9 106.3 85.8 106 85.6 105.8C85.4 105.6 85.2 105.4 85 105.2C84.9 105.1 84.7 105 84.6 105C84.5 105 84.4 105 84.3 105C84 105 83.8 105.2 83.7 105.4C83.6 105.6 83.5 105.8 83.5 106C83.5 106.2 83.5 106.4 83.5 106.7C83.6 107.6 84.5 108.3 85.4 108.2" fill="white"/>
<path d="M85.2002 108.4C84.8002 108.4 84.4002 108.3 84.0002 108C83.6002 107.7 83.3002 107.2 83.2002 106.7C83.2002 106.5 83.2002 106.2 83.2002 106C83.2002 105.8 83.3002 105.5 83.4002 105.3C83.6002 105 83.9002 104.9 84.2002 104.8C84.3002 104.8 84.5002 104.8 84.6002 104.8C84.8002 104.8 85.0002 104.9 85.1002 105C85.4002 105.2 85.6002 105.4 85.8002 105.6C86.0002 105.9 86.1002 106.3 86.1002 106.6C86.1002 106.7 86.0002 106.9 85.8002 106.9C85.7002 106.9 85.5002 106.8 85.5002 106.6C85.5002 106.4 85.4002 106.1 85.3002 105.9C85.1002 105.7 85.0002 105.5 84.7002 105.4C84.6002 105.3 84.5002 105.3 84.4002 105.2C84.3002 105.2 84.2002 105.2 84.2002 105.2C84.0002 105.2 83.8002 105.3 83.7002 105.5C83.6002 105.6 83.6002 105.8 83.6002 106C83.6002 106.2 83.6002 106.4 83.6002 106.6C83.7002 107.4 84.4002 107.9 85.2002 107.8C85.3002 107.8 85.5002 107.9 85.5002 108C85.5002 108.1 85.4002 108.3 85.3002 108.3C85.3002 108.4 85.2002 108.4 85.2002 108.4Z" fill="#231F20"/>
<path d="M89.8002 106.5C89.8002 106.5 90.5002 108.4 90.2002 108.6C89.9002 108.8 89.2002 108.5 89.2002 108.5" fill="white"/>
<path d="M89.9003 108.9C89.6003 108.9 89.3003 108.8 89.0003 108.7C88.9003 108.6 88.8003 108.5 88.9003 108.3C89.0003 108.2 89.1003 108.1 89.3003 108.2C89.5003 108.3 89.8003 108.4 90.0003 108.4C90.0003 107.8 89.8003 107.2 89.6003 106.6C89.6003 106.5 89.6003 106.3 89.8003 106.3C89.9003 106.3 90.1003 106.3 90.1003 106.5C90.9003 108.6 90.5003 108.8 90.4003 108.9C90.2003 108.9 90.0003 108.9 89.9003 108.9Z" fill="#231F20"/>
<path d="M89.0187 105.604C89.0243 105.383 88.8946 105.2 88.729 105.196C88.5633 105.192 88.4245 105.368 88.4189 105.588C88.4133 105.809 88.543 105.992 88.7086 105.996C88.8742 106 89.0131 105.825 89.0187 105.604Z" fill="#231F20"/>
<path d="M91.0592 106.038C91.0649 105.817 90.9352 105.635 90.7695 105.631C90.6039 105.627 90.465 105.802 90.4594 106.023C90.4538 106.244 90.5835 106.426 90.7491 106.43C90.9148 106.435 91.0536 106.259 91.0592 106.038Z" fill="#231F20"/>
<path d="M92.6 107.8C91 107.8 87.2 107 86.3 106.4C85 105.6 85.7 103.6 85.8 103.5C85.8 103.4 86 103.3 86.1 103.3L94.2 105.2C94.3 105.2 94.4 105.4 94.4 105.5C94.4 105.7 94.1 107.3 93.3 107.7C93 107.8 92.8 107.8 92.6 107.8ZM86.2 103.9C86.1 104.4 85.9 105.5 86.6 106C87.7 106.7 92.5 107.5 93.1 107.3C93.5 107.1 93.8 106.3 93.9 105.7L86.2 103.9Z" fill="#231F20"/>
<path d="M89.7001 109.6L87.6001 107.9C87.1001 108.4 87.0001 109.2 87.4001 109.8C88.0001 111 89.7001 109.6 89.7001 109.6Z" fill="white"/>
<path d="M88.2 110.5C87.8 110.5 87.4 110.2 87.2 109.8C86.8 109.1 86.9 108.2 87.5 107.6C87.6 107.5 87.7 107.5 87.8 107.6L89.9 109.3C90 109.3 90 109.4 90 109.5C90 109.6 90 109.7 89.9 109.7C89.4 110.2 88.8 110.5 88.2 110.5ZM87.6 108.3C87.3 108.7 87.3 109.2 87.6 109.7C87.7 109.9 87.8 110 88 110C88.5 110 88.9 109.9 89.3 109.6L87.6 108.3Z" fill="#231F20"/>
<path d="M88.5003 111.5C88.5003 111.5 86.9003 111 86.3003 110.3C86.3003 110.3 86.3003 112.3 87.9003 113.3L88.5003 111.5Z" fill="#231F20"/>
<path d="M87.9001 113.6H87.8001C86.1001 112.6 86.1001 110.5 86.1001 110.4C86.1001 110.3 86.2001 110.1 86.3001 110.1C86.4001 110.1 86.5001 110.1 86.5001 110.2C87.0001 110.8 88.6001 111.3 88.6001 111.3C88.7001 111.3 88.8001 111.5 88.8001 111.6L88.2001 113.4C88.2001 113.5 88.1001 113.5 87.9001 113.6C88.0001 113.6 87.9001 113.6 87.9001 113.6ZM86.6001 110.9C86.8001 111.7 87.1001 112.4 87.7001 112.9L88.1001 111.6C87.6001 111.5 87.1001 111.2 86.6001 110.9Z" fill="#231F20"/>
<path d="M91.4002 112.6C91.4002 112.6 93.2002 116.4 91.8002 121.9C90.8002 126.3 87.7002 131.2 87.7002 131.2C87.7002 131.2 92.2002 128.8 93.4002 122.6C94.6002 116.4 93.4002 113.4 93.4002 113.4L91.4002 112.6Z" fill="white"/>
<path d="M87.7003 131.5C87.6003 131.5 87.6003 131.5 87.5003 131.4C87.4003 131.3 87.4003 131.2 87.5003 131.1C87.5003 131.1 90.5003 126.1 91.6003 121.9C92.9003 116.6 91.2003 112.8 91.2003 112.8C91.2003 112.7 91.2003 112.6 91.2003 112.5C91.3003 112.4 91.4003 112.4 91.5003 112.4L93.6003 113.1C93.7003 113.1 93.7003 113.2 93.8003 113.3C93.8003 113.4 95.0003 116.5 93.8003 122.7C92.6003 128.9 88.1003 131.4 88.0003 131.5C87.8003 131.5 87.8003 131.5 87.7003 131.5ZM91.8003 113C92.7003 115.9 92.8003 119 92.1003 121.9C91.3003 125.1 89.5003 128.6 88.6003 130.3C91.0003 128.3 92.7003 125.6 93.3003 122.5C94.3003 117.1 93.5003 114.1 93.4003 113.5L91.8003 113Z" fill="#231F20"/>
<path d="M99.2002 166L104.9 163.8L106.6 164.9C106.6 164.9 114.1 160.2 116.2 161.9C116.5 162.2 102.4 171 102.4 171L99.2002 166Z" fill="white"/>
<path d="M102.5 171.3C102.4 171.3 102.3 171.3 102.3 171.2L99 166.2C99 166.1 98.9 166.1 99 166C99 165.9 99.1 165.9 99.2 165.8L104.9 163.6C105 163.6 105.1 163.6 105.1 163.6L106.7 164.6C107.8 163.9 114.3 160 116.5 161.7C116.6 161.8 116.6 161.8 116.6 161.9C116.6 162.1 116.6 162.5 102.7 171.2C102.6 171.3 102.6 171.3 102.5 171.3ZM99.6 166.2L102.6 170.7C107.5 167.6 114.6 163 115.9 162C114 161.1 108.8 163.9 106.8 165.2C106.7 165.3 106.6 165.3 106.5 165.2L104.9 164.2L99.6 166.2Z" fill="#231F20"/>
<path d="M102.6 171.1C102.7 171 102.8 170.9 102.8 170.8C103.9 169.7 105.1 168.7 106.4 167.8C108.2 166.4 110.1 165.1 112 163.9C112.8 163.3 113.7 162.8 114.6 162.3C115.2 162 116.2 161.6 116.2 162.6C116.2 163.6 115.4 164.5 114.8 165.1C113.3 166.6 111.7 167.9 109.9 168.9C108.2 170 106.4 171.1 104.5 171.7C104.1 171.8 102.3 172 102.4 171.2C102.5 171.2 102.6 171.1 102.6 171.1Z" fill="#231F20"/>
<path d="M103.6 172.2C103.2 172.2 102.8 172.1 102.5 171.9C102.3 171.8 102.2 171.5 102.3 171.3C102.3 171.2 102.4 171 102.5 170.9C102.6 170.8 102.7 170.7 102.8 170.6C103.9 169.5 105.2 168.5 106.4 167.6C108.2 166.2 110.1 164.9 112.1 163.7C113 163.1 113.8 162.6 114.7 162.1C115.2 161.8 115.9 161.6 116.4 161.9C116.7 162.1 116.8 162.4 116.7 162.7C116.7 163.7 115.9 164.7 115.2 165.4C113.7 166.9 112.1 168.2 110.3 169.3L110.2 169.4C108.5 170.5 106.8 171.6 104.8 172.2C104.4 172.2 104 172.2 103.6 172.2ZM102.8 171.2C102.8 171.2 102.7 171.3 102.7 171.4C102.7 171.5 102.7 171.5 102.7 171.5C103 171.8 104.1 171.7 104.4 171.5C106.3 170.9 108 169.8 109.7 168.8L109.8 168.7C111.6 167.6 113.2 166.4 114.6 164.9C115.2 164.3 115.9 163.4 115.9 162.6C115.9 162.5 115.9 162.3 115.8 162.2C115.7 162.1 115.4 162.1 114.7 162.5C113.8 163 112.9 163.5 112.1 164C110.2 165.2 108.3 166.6 106.5 167.9C105.2 168.8 104 169.8 102.9 170.9C103 171.1 102.9 171.1 102.8 171.2Z" fill="#231F20"/>
<path d="M78.0001 109.8C75.6001 111.1 73.4001 112.5 71.3001 114.2C68.1001 116.7 64.8001 120.4 64.2001 119.7C63.0001 118.3 62.9001 112.6 62.9001 112.6L57.9001 112.9C57.9001 112.9 55.7001 128.7 61.5001 127.2C67.3001 125.7 76.4001 118.5 76.4001 118.5L78.0001 109.8Z" fill="black"/>
<path d="M69.9004 134.9C69.9004 134.9 79.2004 138.3 81.6004 141L80.8004 143.2C80.8004 143.2 71.2004 137.9 68.9004 137.9L69.9004 134.9Z" fill="white"/>
<path d="M80.7004 143.4H80.6004C80.5004 143.3 71.0004 138.1 68.8004 138.1C68.7004 138.1 68.6004 138.1 68.6004 138C68.5004 137.9 68.5004 137.8 68.6004 137.8L69.7004 134.8C69.7004 134.7 69.8004 134.7 69.8004 134.6C69.9004 134.6 69.9004 134.6 70.0004 134.6C70.4004 134.7 79.4004 138.1 81.8004 140.8C81.9004 140.9 81.9004 141 81.8004 141.1L80.9004 143.3C80.9004 143.3 80.9004 143.4 80.7004 143.4C80.8004 143.4 80.8004 143.4 80.7004 143.4ZM69.2004 137.7C71.8004 138.1 79.1004 142 80.6004 142.8L81.3004 141C79.1004 138.7 71.5004 135.7 70.1004 135.2L69.2004 137.7Z" fill="#231F20"/>
<path d="M83.0001 142.3C83.0001 142.3 91.0001 137.6 92.8001 137.5L91.3001 134.9C91.3001 134.9 82.4001 138.8 81.6001 141L83.0001 142.3Z" fill="white"/>
<path d="M83.0003 142.6C82.9003 142.6 82.9003 142.6 82.8003 142.5L81.4003 141.2C81.3003 141.1 81.3003 141 81.3003 140.9C82.2003 138.6 90.8003 134.8 91.2003 134.6C91.3003 134.5 91.5003 134.6 91.5003 134.7L93.0003 137.3C93.1003 137.4 93.0003 137.6 92.9003 137.7H92.8003C91.4003 137.8 85.4003 141.2 83.1003 142.5C83.1003 142.5 83.1003 142.6 83.0003 142.6ZM81.9003 140.9L83.1003 141.9C84.2003 141.3 90.3003 137.8 92.4003 137.2L91.2003 135.1C88.7003 136.3 82.8003 139.2 81.9003 140.9Z" fill="#231F20"/>
<path d="M70.3001 130.3C70.3001 130.3 74.6001 128.5 78.8001 122.6C83.0001 116.7 81.5001 109.8 81.3001 109.2C81.3001 109 79.4001 109.2 79.4001 109.2C79.4001 109.2 80.9001 114.1 78.7001 118.7C76.5001 123.2 70.1001 128.6 70.1001 128.6L70.3001 130.3Z" fill="white"/>
<path d="M70.3 130.5H70.2C70.1 130.5 70.1 130.4 70.1 130.3C70.1 129.6 70 128.8 70 128.6C70 128.5 70 128.4 70 128.3C70 128.3 70 128.2 70.1 128.2C70.7 127.7 76.6 122.6 78.6 118.5C80.7 114.1 79.3 109.3 79.3 109.2C79.3 109.1 79.3 109 79.3 109C79.3 108.9 79.4 108.9 79.5 108.9C81.6 108.7 81.6 108.9 81.7 109.1C81.7 109.2 83.5 116.4 79.1 122.7C74.8 128.6 70.6 130.5 70.3 130.5C70.4 130.5 70.4 130.5 70.3 130.5ZM70.4 128.6C70.4 128.8 70.5 129.2 70.5 129.9C71.6 129.3 75.1 127.3 78.5 122.4C82.4 116.9 81.2 110.3 81 109.4C80.5 109.4 80.1 109.4 79.6 109.4C79.9 110.6 80.7 114.8 78.8 118.7C77.1 122.6 71.8 127.6 70.4 128.6Z" fill="#231F20"/>
<path d="M80.7004 132.5H80.6004C80.5004 132.4 80.4004 132.3 80.5004 132.2C83.5004 126.8 85.7004 115.4 85.7004 115.3C85.7004 115.2 85.9004 115.1 86.0004 115.1C86.1004 115.1 86.2004 115.3 86.2004 115.4C86.2004 115.5 84.0004 127.1 81.0004 132.5C80.9004 132.4 80.8004 132.5 80.7004 132.5Z" fill="#231F20"/>
<path d="M99.6001 121.5C99.4001 121.5 99.3001 121.3 99.4001 121.2L102.9 111.8C103 111.7 103.1 111.6 103.2 111.6C103.3 111.6 103.4 111.8 103.4 111.9L99.9001 121.3C99.8001 121.5 99.7001 121.5 99.6001 121.5Z" fill="#231F20"/>
<path d="M67.0002 125.1C66.9002 125.1 66.8002 125.1 66.8002 125C66.7002 124.9 66.8002 124.7 66.9002 124.7L75.5002 119C75.6002 118.9 75.8002 118.9 75.9002 119C76.0002 119.1 76.0002 119.3 75.9002 119.4L67.3002 125.1C67.1002 125.1 67.0002 125.1 67.0002 125.1Z" fill="#231F20"/>
<path d="M68.8003 148C68.7003 148 68.6003 147.9 68.6003 147.8C68.2003 146.6 68.2003 145.3 68.6003 144.1C68.6003 144 68.8003 143.9 68.9003 144C69.0003 144 69.1003 144.2 69.0003 144.3C68.6003 145.4 68.6003 146.6 69.0003 147.7C69.1003 147.8 69.0003 147.9 68.8003 148C68.9003 148 68.9003 148 68.8003 148Z" fill="white"/>
<path d="M81.2 137.8C81 137.8 81 137.7 81 137.5C81.3 136.1 81.5 134.8 81.5 134.8C81.5 134.7 81.6 134.6 81.8 134.6C81.9 134.6 82 134.7 82 134.9C82 134.9 81.8 136.2 81.5 137.6C81.4 137.7 81.3 137.8 81.2 137.8Z" fill="white"/>
<path d="M132.9 87.1C132.8 87.1 132.6 87 132.7 86.8C132.7 86.8 132.7 86 131.7 84.8C131.5 84.6 131.3 84.5 131 84.5C130.1 84.5 128.9 85.4 128.6 85.8C128.5 85.9 128.3 85.9 128.2 85.8C128.1 85.7 128.1 85.5 128.2 85.4C128.3 85.3 128.3 85 127.8 84.5C127.5 84.2 125.3 85.4 123.2 87.1C123.1 87.2 122.9 87.2 122.8 87.1C122.7 87 122.7 86.8 122.8 86.7C126.7 83.6 127.8 83.9 128.1 84.2C128.3 84.4 128.5 84.7 128.6 85C129.1 84.6 130.1 84 130.9 84C131.3 84 131.7 84.2 132 84.5C133.2 85.9 133.2 86.9 133.2 86.9C133.2 87 133 87.1 132.9 87.1Z" fill="#FDD2A7"/>
<path d="M126.9 86.5005C126.8 86.5005 126.6 86.4005 126.6 86.2005C126.6 86.1005 126.6 86.0005 126.7 86.0005C126.8 86.0005 128.6 84.9005 129.8 85.3005C129.9 85.3005 130 85.5005 130 85.6005C130 85.7005 129.8 85.8005 129.7 85.8005C128.9 85.5005 127.5 86.2005 127 86.5005C127 86.5005 127 86.5005 126.9 86.5005Z" fill="#FDD2A7"/>
<path d="M149.3 107.1C149.2 107.1 149.2 107.1 149.1 107C148.1 106 147 105.1 145.9 104.2C145.1 103.7 143.2 105.2 142.6 105.8C142.5 105.9 142.4 105.9 142.3 105.8C142.2 105.8 142.1 105.6 142.2 105.5C142.2 104.7 141.9 104 141.2 103.5C140.4 102.8 137.7 104.1 136.2 105C136.1 105.1 135.9 105 135.8 104.9C135.7 104.8 135.8 104.6 135.9 104.5C136.3 104.2 140.3 101.8 141.6 103C142.2 103.5 142.5 104.2 142.7 104.9C143.5 104.2 145.2 103 146.2 103.6C147.4 104.5 148.5 105.4 149.5 106.4C149.6 106.5 149.6 106.7 149.5 106.8C149.5 107.1 149.4 107.1 149.3 107.1Z" fill="#FDD2A7"/>
<path d="M143.8 106.2H143.7C142.8 106.1 141.9 106 141 106C140.9 106 140.7 105.9 140.7 105.8C140.7 105.7 140.8 105.5 140.9 105.5C141.8 105.5 142.8 105.6 143.7 105.7H143.8C143.9 105.7 144.1 105.8 144.1 106C144.1 106.2 144 106.2 143.8 106.2Z" fill="#FDD2A7"/>
<path d="M22.2003 137.8C22.1003 137.8 22.1003 137.8 22.0003 137.7C21.9003 137.6 21.9003 137.4 22.0003 137.3C22.6003 136.6 23.3003 135.9 24.0003 135.3C24.6003 134.9 25.6003 135.4 26.2003 135.9C26.3003 135.5 26.5003 135.1 26.8003 134.8C27.6003 133.9 30.1003 135.2 30.5003 135.4C30.6003 135.5 30.7003 135.6 30.6003 135.8C30.5003 135.9 30.4003 136 30.2003 135.9C29.2003 135.3 27.5003 134.7 27.1003 135.1C26.8003 135.4 26.6003 135.9 26.6003 136.3C26.6003 136.4 26.6003 136.5 26.5003 136.6C26.4003 136.7 26.3003 136.7 26.2003 136.6C25.6003 136.1 24.6003 135.5 24.2003 135.8C23.5003 136.4 22.9003 137 22.3003 137.7C22.4003 137.8 22.3003 137.8 22.2003 137.8Z" fill="#FDD2A7"/>
<path d="M25.7004 137C25.6004 137 25.4004 136.9 25.4004 136.8C25.4004 136.7 25.5004 136.5 25.6004 136.5H25.7004C26.3004 136.4 26.9004 136.3 27.5004 136.2C27.6004 136.2 27.8004 136.3 27.8004 136.5C27.8004 136.6 27.7004 136.8 27.5004 136.8C26.9004 136.8 26.4004 136.9 25.8004 137H25.7004Z" fill="#FDD2A7"/>
<path d="M77.5002 224.1C68.9002 211.4 56.8002 229.8 50.7002 242.3C49.1002 233.9 46.0002 225.2 40.2002 219.5C33.7002 213.2 24.1002 215.2 20.9002 223.7C17.2002 233.6 22.5002 246.8 27.2002 255.6C32.8002 266.1 41.0002 275 50.3002 282.3C52.8002 284.3 64.9002 258.7 70.7002 248.9C74.8002 242.2 83.1002 232.2 77.5002 224.1Z" fill="#E6875E"/>
<path d="M602.1 31.8998C594.4 20.6998 583.7 36.9998 578.3 48.0998C576.8 40.5998 574.1 32.8998 569 27.8998C563.2 22.2998 554.7 24.0998 551.9 31.6998C548.6 40.4998 553.3 52.1998 557.5 59.9998C562.5 69.2998 569.7 77.1998 578 83.6998C580.2 85.3998 590.9 62.6998 596.1 53.9998C599.7 47.8998 607 39.0998 602.1 31.8998Z" fill="#FFD2BD"/>
</svg>
