<svg width="76" height="73" viewBox="0 0 76 73" fill="none" xmlns="http://www.w3.org/2000/svg">
<g clip-path="url(#clip0_327:67)">
<path d="M30.5986 23.6701C28.8104 24.5652 27.0718 26.2062 25.7803 27.7478C23.9424 30.0352 22.5019 32.074 21.8065 35.008C21.2104 37.4446 20.962 40.4283 21.8561 42.8152C22.2038 43.7103 22.6509 44.5059 22.9489 45.4508C23.247 46.3458 23.9424 47.2907 24.6378 47.9371C25.3333 48.5836 26.0784 49.1306 26.7738 49.7273C27.3699 50.2246 28.264 50.6721 28.9594 51.0202C30.847 51.9153 32.5359 52.8602 34.6718 53.1088C35.5163 53.2082 36.2117 53.4072 37.0561 53.3574C37.9503 53.3077 38.9437 53.1585 39.7882 52.9099C41.6261 52.4126 43.3646 51.6667 45.1032 50.9705C46.5934 50.3738 47.9842 49.6279 49.3254 48.7328C50.0705 48.2355 50.7659 47.6388 51.4614 47.042C51.8091 46.7437 52.0574 46.4453 52.3555 46.0972C52.7529 45.5999 53.2993 45.1027 53.647 44.5557C55.5346 41.7709 56.4287 37.6435 55.5842 34.3615C54.7398 31.0298 52.4548 27.5488 50.0208 25.1122C49.6235 24.7144 49.2261 24.1674 48.7293 23.8193C48.2326 23.4712 47.5869 23.2723 47.0405 23.0734C45.898 22.6258 44.7555 22.3275 43.613 22.0788C41.4771 21.6313 39.1424 21.8302 36.9568 21.8302C35.7646 21.8302 34.7712 22.0291 33.6287 22.4269C33.0823 22.5761 32.6352 22.8745 32.0888 23.0734C31.6418 23.2226 30.7476 23.2226 30.3999 23.5706C30.6483 23.8193 30.847 23.8193 30.5986 23.6701Z" fill="#F8F3EF"/>
<path d="M47.3384 20.7365C47.4377 20.3885 47.7357 20.0404 47.8848 19.6923C48.0835 19.2944 48.2822 18.8469 48.4808 18.3994C48.8782 17.3053 49.375 16.2113 49.673 15.1173C49.8717 14.3714 50.3684 13.6752 50.6665 12.9791C50.8652 12.5812 50.9645 12.1834 51.1632 11.7856C51.3122 11.4872 51.5606 11.2386 51.7096 10.9402C51.8089 10.6916 51.8586 10.4927 51.9083 10.244C51.958 10.0451 52.0573 9.84622 52.2063 9.69703C52.3554 9.39867 52.4547 9.1003 52.554 8.80194C52.8024 8.10575 53.1501 7.40957 53.4978 6.76311C53.6965 6.31556 54.2429 5.71883 54.1436 5.17183C54.0939 4.72428 53.8455 4.77401 53.4978 4.62483C53.1998 4.47565 52.7527 4.12755 52.405 4.32646C52.0573 4.52537 52.0076 5.22156 51.9083 5.56965C51.7096 6.06693 51.6103 6.61393 51.4116 7.16093C51.1632 7.65821 50.8652 8.15548 50.7161 8.70248C50.2194 10.0451 49.6233 11.2883 49.1266 12.5812C48.5305 14.0233 47.7357 15.4157 47.0403 16.8081C46.4442 18.0513 45.8978 19.2944 45.3018 20.5874C45.9475 20.5376 46.6926 20.4382 47.3384 20.7365Z" fill="#F8F3EF"/>
<path d="M34.2741 21.2836C34.1748 20.9355 34.2244 20.488 34.1748 20.1399C34.1251 19.6923 34.0754 19.1951 33.9761 18.7475C33.7277 17.6038 33.6283 16.4103 33.2806 15.3163C33.0819 14.5704 33.1316 13.725 33.0323 12.9791C32.9826 12.5316 32.8832 12.1338 32.8336 11.6862C32.8336 11.3381 32.8832 10.99 32.8336 10.6917C32.7839 10.443 32.7342 10.1944 32.6349 9.99548C32.5852 9.79657 32.5852 9.54793 32.6349 9.34902C32.5852 9.05066 32.5355 8.70256 32.4859 8.4042C32.3368 7.65829 32.2872 6.91237 32.1878 6.16646C32.1382 5.66919 32.2872 4.92327 31.9395 4.47573C31.6414 4.12763 31.4924 4.27682 31.095 4.32654C30.797 4.37627 30.2009 4.32654 30.0022 4.67464C29.8035 5.02273 30.1512 5.66919 30.2009 5.96755C30.3002 6.51455 30.4989 7.01183 30.5983 7.60856C30.6976 8.15556 30.6976 8.75229 30.797 9.2993C31.095 10.6917 31.1944 12.084 31.4427 13.4764C31.6911 15.018 31.7408 16.6092 31.8898 18.2005C32.0388 19.5929 32.2375 20.9355 32.3865 22.3279C32.9826 21.8804 33.6283 21.3831 34.2741 21.2836Z" fill="#F8F3EF"/>
<path d="M23.4951 68.8225C23.5944 68.4744 23.8925 68.1263 24.0415 67.7782C24.2402 67.3804 24.4389 66.9328 24.6376 66.4853C25.035 65.3913 25.5317 64.2973 25.8297 63.2033C26.0284 62.4574 26.5252 61.7612 26.8232 61.065C27.0219 60.6672 27.1212 60.2693 27.3199 59.8715C27.469 59.5732 27.7173 59.3245 27.8663 59.0262C27.9657 58.7775 28.0154 58.5786 28.065 58.33C28.1147 58.1311 28.2141 57.9322 28.3631 57.783C28.5121 57.4846 28.6114 57.1862 28.7108 56.8879C28.9591 56.1917 29.3069 55.4955 29.6546 54.849C29.8533 54.4015 30.3997 53.8048 30.3003 53.2578C30.2507 52.8102 30.0023 52.8599 29.6546 52.7108C29.3565 52.5616 28.9095 52.2135 28.5618 52.4124C28.2141 52.6113 28.1644 53.3075 28.065 53.6556C27.8663 54.1529 27.767 54.6999 27.5683 55.2469C27.3199 55.7441 27.0219 56.2414 26.8729 56.7884C26.3761 58.1311 25.7801 59.3743 25.2833 60.6672C24.6873 62.1093 23.8925 63.5016 23.1971 64.894C22.601 66.1372 22.0546 67.3804 21.4585 68.6733C22.1042 68.6733 22.899 68.5241 23.4951 68.8225Z" fill="#F8F3EF"/>
<path d="M55.9316 67.4305C55.7329 67.1321 55.6335 66.6846 55.4348 66.3862C55.2361 65.9884 55.0375 65.5409 54.7891 65.143C54.193 64.1485 53.6466 63.0545 53.0009 62.1594C52.5538 61.5129 52.3054 60.7173 51.9577 60.0211C51.759 59.6233 51.5107 59.3249 51.3616 58.8774C51.2623 58.579 51.1629 58.2309 51.0139 57.9325C50.9146 57.7336 50.7656 57.485 50.5669 57.3358C50.4675 57.1369 50.3682 56.938 50.3185 56.7391C50.1695 56.4407 50.0205 56.1921 49.8714 55.9434C49.4741 55.297 49.176 54.6008 48.878 53.9046C48.6296 53.4571 48.5303 52.7112 48.0335 52.4128C47.6858 52.2139 47.5865 52.4128 47.1891 52.562C46.8911 52.7112 46.3446 52.8603 46.295 53.2582C46.2453 53.656 46.742 54.1533 46.9407 54.4019C47.1891 54.8992 47.5865 55.297 47.8348 55.7943C48.0832 56.2915 48.2819 56.8385 48.5799 57.3358C49.325 58.5293 49.9211 59.8222 50.6165 61.0157C51.4113 62.3583 51.9577 63.8999 52.6531 65.2922C53.2492 66.5354 53.895 67.7786 54.491 69.0218C54.8884 68.3753 55.2858 67.7289 55.9316 67.4305Z" fill="#F8F3EF"/>
<path d="M23.2965 29.4385C22.9984 29.1899 22.7997 28.8418 22.5514 28.5434C22.2533 28.1953 21.9056 27.8472 21.6076 27.5489C20.7631 26.7532 19.9187 25.9079 19.0246 25.162C18.4285 24.6647 17.9318 23.9685 17.435 23.4215C17.137 23.1231 16.7893 22.8745 16.5409 22.4767C16.3422 22.228 16.1435 21.8799 15.9448 21.6313C15.7462 21.4324 15.5971 21.2832 15.3488 21.1838C15.1997 21.0346 15.0507 20.8854 14.9514 20.6865C14.7527 20.4378 14.5043 20.2389 14.256 20.04C13.7096 19.5428 13.2128 18.946 12.7161 18.399C12.3684 18.0012 12.0703 17.3547 11.5239 17.2056C11.1265 17.1061 11.0769 17.305 10.7292 17.6034C10.4808 17.8023 9.98407 18.1504 10.0337 18.4985C10.0834 18.8963 10.7292 19.1947 10.9775 19.4433C11.3749 19.8411 11.8716 20.1395 12.269 20.5373C12.6664 20.9351 13.0141 21.3827 13.4115 21.7805C14.4547 22.7253 15.3984 23.7696 16.3919 24.7641C17.5344 25.8581 18.4782 27.1511 19.5213 28.2948C20.4651 29.3391 21.4089 30.3336 22.3527 31.3282C22.6011 30.632 22.7997 29.8861 23.2965 29.4385Z" fill="#F8F3EF"/>
<path d="M51.5107 24.5657C51.8585 24.6651 52.4049 24.317 52.7526 24.1678C53.2493 23.9689 53.746 23.8198 54.2924 23.6706C56.031 23.1733 57.6702 22.2285 59.4088 21.6317C61.4454 20.9853 63.4323 19.941 65.3199 18.9465C66.3134 18.4492 67.3565 18.0016 68.4493 17.6535C69.0454 17.4546 69.5918 17.206 70.1879 17.1563C70.0389 16.6093 69.7905 16.0623 69.4925 15.565C69.3434 15.2666 69.1447 15.018 68.9461 14.7196C68.797 14.471 68.7474 14.2223 68.5487 14.0234C68.35 14.1726 68.0519 14.2721 67.8036 14.4213C67.3068 14.6699 66.8101 14.8191 66.2637 15.018C65.8663 15.1672 65.5186 15.4655 65.1709 15.6147C64.8232 15.8136 64.4258 15.9131 64.0781 16.0623C63.2833 16.4104 62.5382 16.8579 61.7931 17.2557C59.6075 18.3 57.5212 19.5929 55.3356 20.6372C54.1931 21.1345 53.1003 21.7312 51.9578 22.2285C51.6598 22.3777 51.3617 22.5268 51.0637 22.7258C50.8153 22.8749 50.4179 22.9247 50.2192 23.1236C50.567 23.5214 51.0637 24.4662 51.5107 24.5657Z" fill="#F8F3EF"/>
<path d="M41.1787 0.39782C40.9303 0.696185 40.98 1.29292 40.9303 1.64101C40.8807 2.18801 40.7813 2.68529 40.6323 3.23229C40.2349 5.02248 40.2846 6.91213 39.9369 8.70232C39.5395 10.8406 39.4898 13.0286 39.3905 15.1669C39.3408 16.3106 39.1918 17.4046 38.9931 18.4986C38.8937 19.0954 38.8441 19.7418 38.5957 20.2888C39.1421 20.438 39.7382 20.438 40.3343 20.4877C40.6323 20.4877 40.98 20.438 41.3277 20.438C41.5761 20.438 41.8741 20.4877 42.1225 20.438C42.0728 20.1894 42.1225 19.891 42.1225 19.5926C42.1225 19.0456 42.2218 18.4986 42.3212 17.9516C42.3709 17.5538 42.3212 17.1063 42.3212 16.7084C42.3212 16.3106 42.4205 15.9128 42.4702 15.515C42.5696 14.6696 42.4702 13.7745 42.5696 12.9292C42.7186 10.4925 42.5696 8.05586 42.7683 5.66894C42.8676 4.42575 42.8676 3.18256 43.0166 1.93937C43.0663 1.59128 43.0166 1.29292 43.0166 0.944823C43.0166 0.646458 43.1656 0.298365 43.116 0C42.5696 0.0497275 41.5264 0.0497275 41.1787 0.39782Z" fill="#F8F3EF"/>
<path d="M3.97363 54.8987C4.32134 54.9981 4.86775 54.65 5.21546 54.5009C5.71219 54.302 6.20893 54.1528 6.75533 54.0036C8.49389 53.5063 10.1331 52.5615 11.8717 51.9648C13.9083 51.3183 15.8952 50.274 17.7828 49.2795C18.7762 48.7822 19.8194 48.3346 20.9122 47.9866C21.5083 47.7876 22.0547 47.539 22.6508 47.4893C22.5017 46.9423 22.2534 46.3953 21.9553 45.898C21.8063 45.5996 21.6076 45.351 21.4089 45.0526C21.2599 44.804 21.2102 44.5554 21.0115 44.3564C20.8128 44.5056 20.5148 44.6051 20.2664 44.7543C19.7697 45.0029 19.273 45.1521 18.7266 45.351C18.3292 45.5002 17.9815 45.7985 17.6338 45.9477C17.2861 46.1466 16.8887 46.2461 16.541 46.3953C15.7462 46.7434 15.0011 47.1909 14.256 47.5887C12.0704 48.633 9.98409 49.9259 7.79847 50.9702C6.65599 51.4675 5.56317 52.0642 4.42069 52.5615C4.12265 52.7107 3.82461 52.8599 3.52657 53.0588C3.27821 53.2079 2.88082 53.2577 2.68213 53.4566C3.02984 53.8544 3.52657 54.7992 3.97363 54.8987Z" fill="#F8F3EF"/>
<path d="M19.869 33.3668C19.6206 33.0684 19.0246 33.0187 18.6769 32.9192C18.1305 32.7701 17.6834 32.5712 17.137 32.3722C15.4481 31.6761 13.6102 31.3777 11.8716 30.7312C9.8847 29.9356 7.69908 29.5378 5.56313 29.0902C4.47032 28.8416 3.37751 28.5432 2.33438 28.1454C1.7383 27.8968 1.14222 27.7476 0.645486 27.4492C0.39712 27.9465 0.297774 28.5432 0.148754 29.14C0.0990811 29.4383 0.0990811 29.7864 0.0494079 30.1345C-0.0002653 30.3831 -0.0996117 30.6318 -0.0499385 30.9301C0.198427 30.9301 0.496467 31.0296 0.744833 31.0793C1.29124 31.1788 1.78797 31.3777 2.33438 31.5766C2.73176 31.7258 3.17882 31.6761 3.57621 31.7755C3.97359 31.875 4.3213 32.0242 4.71869 32.1236C5.56313 32.3225 6.40758 32.422 7.25202 32.6706C9.58666 33.2176 12.0206 33.516 14.405 34.1127C15.5971 34.4111 16.8389 34.6597 18.0311 34.9581C18.3788 35.0575 18.6769 35.0575 19.0246 35.1073C19.3226 35.157 19.6206 35.3559 19.9187 35.3559C19.9684 34.7592 20.1671 33.7149 19.869 33.3668Z" fill="#F8F3EF"/>
<path d="M73.7146 26.6534C73.7146 26.7032 73.7146 26.7529 73.6649 26.8026C73.4165 26.8524 73.1681 27.0015 72.9198 27.0015C72.6714 27.0513 72.3734 27.0015 72.125 27.0015C71.6283 27.0015 71.1315 27.2004 70.6348 27.3496C69.7904 27.6977 68.7969 27.7972 67.8531 28.0458C66.0152 28.5431 64.1276 28.8912 62.24 29.3885C61.0479 29.7366 59.8061 29.8857 58.6139 30.2338C57.8191 30.4825 57.074 30.8306 56.2296 30.8306C56.2793 30.8306 55.9315 31.0295 55.9812 31.0295C55.6832 30.7311 55.5342 30.1841 55.3355 29.7863C55.1368 29.4382 54.9381 28.9409 54.7891 28.5928C55.5342 28.5928 56.2296 28.4934 56.9747 28.2945C58.0675 28.0458 59.1603 27.7972 60.2034 27.5485C62.3394 26.9518 64.4753 26.4048 66.661 25.9075C68.1512 25.6092 69.6414 25.0124 71.1812 24.913C71.5786 24.8633 71.9263 24.7638 72.274 24.7141C72.7708 24.6643 72.7708 24.7638 72.7708 24.2168C72.7708 24.8135 73.2178 24.7638 73.3172 25.3605C73.4165 25.8081 73.7146 26.2059 73.7146 26.6534C73.8139 26.6534 73.6649 26.6534 73.7146 26.6534Z" fill="#F8F3EF"/>
<path d="M19.4218 40.0802C19.4218 40.1299 19.4218 40.1797 19.3722 40.2294C19.1238 40.2791 18.8754 40.4283 18.6271 40.4283C18.3787 40.478 18.0807 40.4283 17.8323 40.4283C17.3356 40.4283 16.8388 40.6272 16.3421 40.7764C15.4977 41.1245 14.5042 41.2239 13.5604 41.4726C11.7225 41.9699 9.83492 42.3179 7.94734 42.8152C6.75518 43.1633 5.51335 43.3125 4.32119 43.6606C3.57609 43.9092 2.88067 44.2573 2.03623 44.2573C2.0859 44.2573 1.73819 44.4562 1.78786 44.4562C1.48982 44.1579 1.3408 43.6109 1.14211 43.213C0.943415 42.8649 0.744723 42.3677 0.595703 42.0196C1.3408 42.0196 2.03623 41.9201 2.78132 41.7212C3.87413 41.4726 4.96694 41.2239 6.01008 40.9753C8.14603 40.3786 10.282 39.8316 12.4676 39.3343C13.9578 39.0359 15.448 38.4392 16.9879 38.3397C17.3852 38.29 17.733 38.1906 18.0807 38.1408C18.5774 38.0911 18.5774 38.1906 18.5774 37.6436C18.5774 38.2403 19.0245 38.1906 19.1238 38.7873C19.1735 39.1851 19.4218 39.6327 19.4218 40.0802C19.5212 40.0305 19.3722 40.0802 19.4218 40.0802Z" fill="#F8F3EF"/>
<path d="M63.4824 63.95C63.4327 63.95 63.3831 63.95 63.3334 63.9998C63.1844 63.8009 62.9857 63.602 62.8367 63.403C62.6876 63.2041 62.638 62.9058 62.5386 62.6571C62.3399 62.2096 61.9425 61.8118 61.5948 61.4637C60.9491 60.8172 60.4523 59.9221 59.8563 59.2259C58.6641 57.7341 57.5713 56.1428 56.3791 54.651C55.5844 53.7062 54.9386 52.6122 54.1438 51.6673C53.5974 51.0209 53.0014 50.4739 52.6536 49.728C52.6536 49.7777 52.4053 49.5291 52.4053 49.5788C52.5543 49.181 53.0014 48.8329 53.2497 48.4848C53.4981 48.1864 53.8458 47.7886 54.1438 47.4902C54.4419 48.1864 54.8393 48.7832 55.2863 49.3799C55.9321 50.275 56.5778 51.1701 57.2733 52.0652C58.6641 53.8056 60.055 55.5461 61.3465 57.3363C62.2406 58.5795 63.3831 59.7232 64.0785 61.0659C64.2772 61.4139 64.4759 61.6626 64.6746 62.0107C64.9229 62.4582 64.8236 62.5079 65.37 62.2593C64.8236 62.5079 65.0223 62.9058 64.5255 63.2041C64.1282 63.3533 63.8798 63.8009 63.4824 63.95C63.5321 64.0495 63.4327 63.9003 63.4824 63.95Z" fill="#F8F3EF"/>
<path d="M75.8013 35.6044C75.4536 36.1017 75.4536 35.8033 74.9072 35.9525C74.7582 36.0023 74.7582 36.1017 74.5595 36.1514C74.4105 36.2012 74.1621 36.1514 74.0131 36.1514C73.3673 36.1514 72.7216 36.1514 72.0758 36.1514C70.3869 36.1514 68.6981 36.1514 67.0092 36.1514C66.4131 36.1514 65.966 36.2012 65.4196 36.3006C64.7242 36.4498 63.9791 36.3006 63.3334 36.3503C61.8928 36.3503 60.4026 36.6984 58.9621 36.6984C58.5647 36.6984 58.1673 36.6984 57.77 36.6984C57.3726 36.6984 57.1739 36.8476 57.0745 36.4498C56.9255 35.8531 57.0745 35.0574 57.0745 34.411C57.4222 34.4607 57.77 34.2618 58.1177 34.2121C58.7137 34.1623 59.2602 33.9634 59.8066 33.9137C60.4026 33.8142 61.0484 33.9137 61.6445 33.864C62.2405 33.8142 62.7373 33.6651 63.3334 33.6651C64.2275 33.6651 65.1713 33.5656 66.0654 33.5159C67.0092 33.4662 67.953 33.2175 68.8967 33.1678C69.6418 33.1181 70.2876 33.0186 71.0327 33.0186C71.5791 33.0186 72.0262 32.8197 72.5726 32.8197C72.8209 32.8197 73.1686 32.8694 73.417 32.8197C73.7151 32.77 73.8641 32.6705 74.1621 32.6208C74.4105 32.6208 74.6092 32.6208 74.8575 32.6208C75.1059 32.6208 75.3046 32.4716 75.553 32.4219C75.5033 32.4219 75.8013 32.4219 75.7517 32.4716C75.553 33.0186 75.851 33.5656 75.9007 34.1126C75.9503 34.6596 75.9007 35.3061 75.9007 35.8531C76 35.7536 75.8013 35.7039 75.8013 35.6044Z" fill="#F8F3EF"/>
<path d="M17.4847 7.95657C18.0808 8.0063 17.8821 8.15548 18.2298 8.50357C18.3292 8.60303 18.4782 8.5533 18.5775 8.65275C18.6769 8.75221 18.7762 9.00085 18.8756 9.1003C19.2233 9.6473 19.571 10.1943 19.9187 10.6916C20.8625 12.084 21.7566 13.5261 22.7004 14.9184C22.9985 15.4157 23.2965 15.7638 23.6939 16.1616C24.1906 16.6589 24.4887 17.3551 24.886 17.9021C25.7305 19.0955 26.7736 20.1398 27.5684 21.383C27.7671 21.7311 28.0155 22.0792 28.2141 22.3775C28.4128 22.6759 28.6612 22.8251 28.4128 23.1235C28.0155 23.571 27.2207 23.8694 26.7239 24.2175C26.5749 23.9191 26.2272 23.6705 26.0285 23.4218C25.6311 22.9743 25.2338 22.5765 24.8364 22.1786C24.439 21.7311 24.1906 21.1344 23.7932 20.6371C23.4455 20.1895 22.9985 19.7917 22.7004 19.2944C22.2037 18.4988 21.6076 17.8026 21.0612 17.0567C20.5148 16.3108 19.7697 15.6643 19.1736 14.8687C18.7762 14.4211 18.2795 13.9239 17.8821 13.3271C17.5841 12.8796 17.1867 12.5812 16.8887 12.1337C16.7396 11.9348 16.5906 11.6364 16.4416 11.4375C16.2429 11.2386 16.0442 11.1391 15.8952 10.9402C15.7462 10.7413 15.6468 10.5424 15.4978 10.3435C15.3488 10.1446 15.1501 10.0451 14.9514 9.84621C15.0011 9.89594 14.8521 9.6473 14.8521 9.6473C15.3985 9.49812 15.7462 8.95112 16.1436 8.60303C16.5906 8.25493 17.137 7.95657 17.5841 7.6582C17.5344 7.70793 17.5841 7.90684 17.4847 7.95657Z" fill="#F8F3EF"/>
<path d="M73.5658 50.0754C73.0691 50.3738 73.1684 50.1251 72.622 50.0754C72.473 50.0754 72.4233 50.1748 72.2247 50.1251C72.0756 50.1251 71.8769 49.9759 71.7279 49.9262C71.1318 49.6776 70.5358 49.4289 69.9397 49.23C68.3998 48.5836 66.8103 47.9868 65.2704 47.3404C64.724 47.1415 64.3266 46.9923 63.7305 46.8928C63.0351 46.7436 62.3894 46.3956 61.7436 46.1469C60.3528 45.5999 58.9122 45.401 57.5214 44.854C57.124 44.7048 56.7763 44.5556 56.3789 44.4065C56.0312 44.2573 55.7828 44.307 55.8325 43.9092C55.9318 43.3124 56.3789 42.6163 56.5776 42.0195C56.8756 42.2184 57.273 42.1687 57.6207 42.2682C58.1671 42.4174 58.7632 42.4671 59.3096 42.6163C59.9057 42.7654 60.4521 43.0638 61.0482 43.2627C61.5946 43.4616 62.141 43.5114 62.6874 43.7103C63.5318 44.0584 64.426 44.307 65.3201 44.6054C66.2142 44.9037 67.2077 45.0529 68.1018 45.3513C68.7972 45.5999 69.443 45.7491 70.1384 45.9977C70.6351 46.1966 71.1318 46.1966 71.6286 46.3956C71.8769 46.495 72.1253 46.6442 72.4234 46.6939C72.6717 46.7436 72.9201 46.6939 73.1684 46.7934C73.3671 46.8928 73.6155 46.9923 73.8142 47.042C74.0626 47.1415 74.2613 47.0917 74.5096 47.1415C74.46 47.1415 74.758 47.2409 74.7083 47.2409C74.3109 47.6885 74.3606 48.3349 74.2613 48.8322C74.1122 49.3792 73.8142 49.9262 73.6155 50.4235C73.6652 50.324 73.5658 50.1748 73.5658 50.0754Z" fill="#F8F3EF"/>
<path d="M12.0208 64.4967C11.9215 63.9 12.1202 64.0989 12.3685 63.6017C12.4679 63.4525 12.3685 63.353 12.4679 63.2038C12.5176 63.1044 12.7659 62.9055 12.8653 62.806C13.3123 62.3585 13.7594 61.8612 14.2064 61.4136C15.3489 60.2202 16.5411 58.977 17.6836 57.7835C18.081 57.3857 18.379 57.0376 18.677 56.5403C19.0247 55.9436 19.6208 55.4961 20.1176 54.9988C21.111 53.9048 21.8561 52.6616 22.8993 51.5676C23.1973 51.2692 23.4457 50.9709 23.7437 50.6725C23.9921 50.3741 24.0914 50.1255 24.4391 50.3244C24.9359 50.6228 25.4326 51.319 25.8797 51.7168C25.6313 51.9157 25.4823 52.3135 25.2836 52.6119C24.9359 53.0594 24.6875 53.6064 24.3398 54.054C23.9921 54.5512 23.4953 54.9491 23.098 55.3966C22.7006 55.8442 22.4522 56.3414 22.0548 56.7393C21.4091 57.3857 20.8627 58.1316 20.2666 58.8278C19.6208 59.524 19.1738 60.4191 18.5777 61.1153C18.1306 61.6623 17.6836 62.2093 17.2365 62.7563C16.8888 63.1541 16.6901 63.6017 16.2927 63.9995C16.094 64.1984 15.8457 64.3973 15.6966 64.5962C15.5476 64.8448 15.498 65.0438 15.2993 65.2427C15.1502 65.4416 14.9515 65.541 14.8025 65.7399C14.6535 65.9388 14.6038 66.1378 14.4548 66.3864C14.5045 66.3367 14.2561 66.5356 14.3058 66.5356C14.0574 66.0383 13.4613 65.8394 13.0143 65.4913C12.5672 65.1432 12.1698 64.6459 11.7725 64.2978C11.7725 64.4968 11.9215 64.447 12.0208 64.4967Z" fill="#F8F3EF"/>
<path d="M37.8009 56.0433C37.8506 56.2919 37.6519 56.4909 37.6022 56.7395C37.5526 56.9384 37.6519 57.2368 37.6022 57.4357C37.5526 57.734 37.3539 58.0821 37.3042 58.3308C37.1552 58.8281 37.1552 59.3253 37.0558 59.8226C36.9068 60.5685 36.5591 61.2647 36.3604 61.9609C36.2114 62.4582 35.8637 62.856 35.7643 63.3533C35.665 63.7511 35.516 64.0494 35.3669 64.3975C34.9696 65.2926 34.8702 66.4364 34.6218 67.3812C34.4232 68.2265 34.1748 69.1216 34.0258 70.0167C33.9761 70.3648 33.9264 70.7129 33.8271 71.061C33.7277 71.3594 33.529 71.608 33.4794 71.9561C33.38 72.3539 32.8336 72.3539 32.4859 72.3042C31.7905 72.2545 31.3931 72.0058 30.8467 71.608C30.8467 71.6577 30.8467 71.7075 30.8467 71.7075C31.1447 70.9118 31.2441 69.967 31.4428 69.1216C31.7408 67.6298 32.3866 66.1877 32.7343 64.7456C33.1316 63.1046 33.4794 61.5133 33.8767 59.8723C34.0258 59.2756 34.0754 58.6291 34.1748 58.0324C34.3238 57.1373 34.5225 56.4909 34.9199 55.6952C35.1683 55.7449 35.3173 55.546 35.5656 55.6952C35.814 55.7947 36.112 55.7947 36.3604 55.8941C36.5591 55.9439 36.6088 56.0433 36.8571 56.093C37.0062 56.093 37.5029 56.0433 37.8009 56.0433Z" fill="#F8F3EF"/>
<path d="M45.401 72.4526C45.3513 72.4526 45.3016 72.4526 45.252 72.4029C45.0533 71.9056 45.2023 71.0602 45.2023 70.5132C45.2023 70.1652 45.1029 70.1154 45.0036 69.8171C44.9043 69.469 45.0036 69.0214 45.0036 68.6733C45.0036 68.2258 44.9539 67.9274 44.8546 67.5296C44.7552 67.1318 44.8546 66.6842 44.8049 66.2864C44.7552 65.8886 44.6062 65.5405 44.6062 65.1427C44.6062 64.6951 44.4572 64.3968 44.4075 63.9492C44.3579 63.4519 44.4075 63.0541 44.2585 62.6066C44.1592 62.2585 44.2585 61.9104 44.1592 61.5623C44.0598 61.1147 44.0598 60.7169 43.9605 60.2694C43.8611 59.8218 43.9108 59.3743 43.8114 58.877C43.6624 58.0814 43.4637 57.236 43.265 56.4404C43.116 55.6944 42.967 54.9485 42.967 54.2026C42.1226 54.2026 41.3775 54.0534 40.682 54.5507C40.2846 54.8491 40.533 56.4901 40.4833 56.9874C40.4833 57.5344 40.4833 58.0316 40.6324 58.5786C40.7317 59.1754 40.5827 59.7721 40.682 60.3191C40.831 61.3137 40.9801 62.3082 41.0297 63.3525C41.0794 64.2973 41.2781 65.1924 41.3775 66.0875C41.4271 66.3859 41.3775 66.734 41.3775 66.9826C41.3775 67.3307 41.4768 67.5793 41.5265 67.9274C41.6258 68.4744 41.5265 69.0711 41.5265 69.5684C41.5265 70.6127 41.5265 71.657 41.5265 72.7013C41.4271 72.7013 42.1722 72.9002 42.3212 72.9002C42.6193 72.9002 42.967 72.9499 43.265 72.8504C44.0598 72.8007 44.7056 72.4526 45.401 72.4526Z" fill="#F8F3EF"/>
</g>
<defs>
<clipPath id="clip0_327:67">
<rect width="76" height="73" fill="white"/>
</clipPath>
</defs>
</svg>
