<svg width="17" height="16" viewBox="0 0 17 16" fill="none" xmlns="http://www.w3.org/2000/svg">
  <path
    d="M0.982544 0.847069C0.982544 0.672399 1.05462 0.504884 1.18291 0.381374C1.3112 0.257864 1.48521 0.188477 1.66664 0.188477H2.17561C3.04214 0.188477 3.56205 0.749597 3.85849 1.2712C4.05643 1.61894 4.19963 2.022 4.31182 2.3873C4.34217 2.38499 4.3726 2.38382 4.40304 2.38378H15.8029C16.5599 2.38378 17.1072 3.08101 16.8992 3.78263L15.2319 9.41052C15.0824 9.91531 14.7661 10.3595 14.3309 10.6757C13.8958 10.992 13.3654 11.1631 12.8202 11.1633H7.39483C6.84526 11.1633 6.3109 10.9895 5.87387 10.6688C5.43684 10.348 5.12134 9.89789 4.97585 9.38769L4.28263 6.95354L3.13335 3.22327L3.13244 3.21624C2.99014 2.71835 2.85697 2.25207 2.65813 1.90433C2.46749 1.56625 2.31426 1.50566 2.17652 1.50566H1.66664C1.48521 1.50566 1.3112 1.43627 1.18291 1.31276C1.05462 1.18925 0.982544 1.02174 0.982544 0.847069ZM5.60979 6.6339L6.2948 9.03908C6.43162 9.51502 6.8813 9.84607 7.39483 9.84607H12.8202C13.068 9.84607 13.3091 9.76832 13.5069 9.62461C13.7048 9.4809 13.8486 9.27905 13.9166 9.04961L15.5009 3.70097H4.7086L5.59702 6.58736L5.60979 6.6339Z"
    fill="black" />
  <path
    d="M8.73572 13.7992C8.73572 14.265 8.54352 14.7117 8.2014 15.0411C7.85928 15.3704 7.39527 15.5555 6.91144 15.5555C6.42761 15.5555 5.9636 15.3704 5.62148 15.0411C5.27936 14.7117 5.08716 14.265 5.08716 13.7992C5.08716 13.3334 5.27936 12.8867 5.62148 12.5574C5.9636 12.228 6.42761 12.043 6.91144 12.043C7.39527 12.043 7.85928 12.228 8.2014 12.5574C8.54352 12.8867 8.73572 13.3334 8.73572 13.7992ZM7.36751 13.7992C7.36751 13.6828 7.31946 13.5711 7.23393 13.4887C7.1484 13.4064 7.0324 13.3601 6.91144 13.3601C6.79048 13.3601 6.67448 13.4064 6.58895 13.4887C6.50342 13.5711 6.45537 13.6828 6.45537 13.7992C6.45537 13.9157 6.50342 14.0273 6.58895 14.1097C6.67448 14.192 6.79048 14.2383 6.91144 14.2383C7.0324 14.2383 7.1484 14.192 7.23393 14.1097C7.31946 14.0273 7.36751 13.9157 7.36751 13.7992Z"
    fill="black" />
  <path
    d="M15.1207 13.7992C15.1207 14.265 14.9285 14.7117 14.5864 15.0411C14.2443 15.3704 13.7803 15.5555 13.2964 15.5555C12.8126 15.5555 12.3486 15.3704 12.0065 15.0411C11.6644 14.7117 11.4722 14.265 11.4722 13.7992C11.4722 13.3334 11.6644 12.8867 12.0065 12.5574C12.3486 12.228 12.8126 12.043 13.2964 12.043C13.7803 12.043 14.2443 12.228 14.5864 12.5574C14.9285 12.8867 15.1207 13.3334 15.1207 13.7992ZM13.7525 13.7992C13.7525 13.6828 13.7045 13.5711 13.6189 13.4887C13.5334 13.4064 13.4174 13.3601 13.2964 13.3601C13.1755 13.3601 13.0595 13.4064 12.974 13.4887C12.8884 13.5711 12.8404 13.6828 12.8404 13.7992C12.8404 13.9157 12.8884 14.0273 12.974 14.1097C13.0595 14.192 13.1755 14.2383 13.2964 14.2383C13.4174 14.2383 13.5334 14.192 13.6189 14.1097C13.7045 14.0273 13.7525 13.9157 13.7525 13.7992Z"
    fill="black" />
</svg>
