<svg width="19" height="16" viewBox="0 0 19 16" fill="none" xmlns="http://www.w3.org/2000/svg">
  <path
    d="M9.24951 1.43306C11.6345 1.43306 11.917 1.44106 12.8589 1.47894C13.7298 1.51404 14.2028 1.64244 14.5176 1.7504C14.9345 1.89339 15.232 2.06423 15.5446 2.34006C15.8572 2.61589 16.0507 2.87848 16.2128 3.24638C16.3351 3.52419 16.4806 3.9416 16.5204 4.7101C16.5633 5.54136 16.5724 5.79065 16.5724 7.89539C16.5724 10.0002 16.5633 10.2495 16.5204 11.0807C16.4806 11.8492 16.3351 12.2666 16.2128 12.5444C16.0507 12.9123 15.8572 13.1749 15.5446 13.4508C15.232 13.7266 14.9345 13.8974 14.5176 14.0404C14.2028 14.1483 13.7298 14.2768 12.8589 14.3118C11.9172 14.3498 11.6347 14.3578 9.24951 14.3578C6.86429 14.3578 6.5818 14.3498 5.64007 14.3118C4.76916 14.2767 4.29623 14.1483 3.98144 14.0404C3.56454 13.8974 3.26692 13.7266 2.95435 13.4508C2.64179 13.1749 2.44821 12.9123 2.28624 12.5444C2.16391 12.2666 2.01834 11.8492 1.97863 11.0807C1.93564 10.2495 1.92657 10.0002 1.92657 7.89539C1.92657 5.79065 1.93564 5.54136 1.97863 4.71016C2.01841 3.9416 2.16391 3.52419 2.28624 3.24638C2.44821 2.87848 2.64179 2.61589 2.95435 2.34006C3.26699 2.06417 3.56454 1.89339 3.98144 1.7504C4.29616 1.64244 4.76916 1.51404 5.64007 1.47894C6.58194 1.44106 6.86443 1.43306 9.24951 1.43306ZM9.24951 0.0126953C6.8236 0.0126953 6.51942 0.0217481 5.56672 0.0601146C4.61591 0.0984196 3.96657 0.231686 3.39846 0.426537C2.81102 0.627976 2.3129 0.897527 1.81631 1.33576C1.31973 1.77398 1.01435 2.21357 0.786088 2.73192C0.565221 3.23333 0.414278 3.80636 0.370872 4.64538C0.327397 5.48612 0.317139 5.75456 0.317139 7.89539C0.317139 10.0362 0.327397 10.3047 0.370872 11.1454C0.414278 11.9845 0.565221 12.5575 0.786088 13.0589C1.01428 13.5772 1.31973 14.0168 1.81631 14.4551C2.3129 14.8933 2.81102 15.1628 3.39846 15.3642C3.96664 15.5591 4.61591 15.6924 5.56665 15.7307C6.51942 15.769 6.8236 15.7781 9.24951 15.7781C11.6754 15.7781 11.9796 15.769 12.9323 15.7307C13.883 15.6924 14.5324 15.5591 15.1005 15.3642C15.6879 15.1629 16.1861 14.8933 16.6826 14.4551C17.1792 14.0168 17.4847 13.5773 17.7129 13.0589C17.9337 12.5574 18.0847 11.9845 18.1282 11.1455C18.1716 10.3047 18.1819 10.0362 18.1819 7.89539C18.1819 5.75456 18.1716 5.48612 18.1282 4.64538C18.0847 3.80636 17.9337 3.23333 17.7129 2.73198C17.4847 2.21357 17.1792 1.77398 16.6826 1.33576C16.1861 0.897527 15.6879 0.627915 15.1006 0.426537C14.5324 0.231686 13.883 0.0984196 12.9323 0.0601146C11.9796 0.0217481 11.6754 0.0126953 9.24951 0.0126953ZM9.24951 3.8475C6.71621 3.8475 4.6626 5.6599 4.6626 7.89539C4.6626 10.131 6.71621 11.9433 9.24951 11.9433C11.7827 11.9433 13.8364 10.131 13.8364 7.89539C13.8364 5.65984 11.7827 3.8475 9.24951 3.8475ZM9.24951 10.523C7.60512 10.523 6.27203 9.34654 6.27203 7.89539C6.27203 6.44423 7.60512 5.2678 9.24951 5.2678C10.8939 5.2678 12.227 6.44423 12.227 7.89539C12.227 9.34654 10.8939 10.523 9.24951 10.523ZM15.0895 3.68757C15.0895 4.21004 14.6096 4.63349 14.0176 4.63349C13.4256 4.63349 12.9457 4.21004 12.9457 3.68757C12.9457 3.16516 13.4256 2.74165 14.0176 2.74165C14.6096 2.74165 15.0895 3.16516 15.0895 3.68757Z"
    fill="#0A0A08" />
</svg>
