<svg width="19" height="15" viewBox="0 0 19 15" fill="none" xmlns="http://www.w3.org/2000/svg">
  <path
    d="M3.42525 0.621094H15.7391C16.4963 0.621046 17.2248 0.899945 17.7752 1.40058C18.3255 1.90121 18.6561 2.58562 18.6989 3.31341L18.7035 3.47499V11.8171C18.7035 12.5461 18.4138 13.2475 17.8938 13.7773C17.3738 14.3072 16.6629 14.6254 15.9069 14.6666L15.7391 14.671H3.42525C2.66805 14.6711 1.93954 14.3922 1.38916 13.8916C0.838773 13.3909 0.508245 12.7065 0.465376 11.9787L0.460815 11.8171V3.47499C0.460766 2.74603 0.750467 2.04468 1.27049 1.51482C1.79051 0.984958 2.50144 0.666755 3.25742 0.625484L3.42525 0.621094H15.7391H3.42525ZM17.3353 5.33924L9.9014 9.10638C9.81746 9.14907 9.72521 9.17447 9.63052 9.18097C9.53583 9.18748 9.44077 9.17493 9.35138 9.14414L9.26382 9.10726L1.82902 5.34012V11.8171C1.82903 12.2028 1.97967 12.5744 2.25104 12.8581C2.52241 13.1418 2.89466 13.3169 3.2939 13.3486L3.42525 13.3539H15.7391C16.1398 13.3538 16.5259 13.2087 16.8206 12.9472C17.1153 12.6858 17.2971 12.3272 17.3298 11.9427L17.3353 11.8171V5.33924ZM15.7391 1.93828H3.42525C3.02465 1.93829 2.6387 2.08332 2.34402 2.34457C2.04933 2.60581 1.86745 2.96418 1.83449 3.34854L1.82902 3.47499V3.8517L9.58215 7.77954L17.3353 3.85082V3.47499C17.3353 3.08919 17.1845 2.71751 16.9129 2.43379C16.6414 2.15007 16.2689 1.97507 15.8695 1.94354L15.7391 1.93828Z"
    fill="black" />
</svg>
