<svg width="172" height="165" viewBox="0 0 172 165" fill="none" xmlns="http://www.w3.org/2000/svg">
<path d="M69.2508 54.1065C65.2273 56.1174 61.3155 59.804 58.4096 63.2673C54.2744 68.4062 51.0332 72.9866 49.4685 79.5779C48.1273 85.052 47.5685 91.755 49.5802 97.1174C50.3626 99.1283 51.3685 100.916 52.0391 103.038C52.7096 105.049 54.2743 107.172 55.8391 108.624C57.4038 110.077 59.0802 111.305 60.6449 112.646C61.9861 113.763 63.9979 114.769 65.5626 115.551C69.8096 117.562 73.6096 119.684 78.4155 120.243C80.3155 120.466 81.8802 120.913 83.7802 120.801C85.792 120.69 88.0273 120.354 89.9273 119.796C94.0626 118.679 97.9744 117.003 101.886 115.439C105.239 114.098 108.368 112.423 111.386 110.412C113.063 109.295 114.627 107.954 116.192 106.613C116.974 105.943 117.533 105.273 118.204 104.491C119.098 103.374 120.327 102.256 121.11 101.027C125.357 94.7713 127.368 85.4989 125.468 78.1256C123.568 70.6406 118.427 62.8204 112.951 57.3463C112.057 56.4525 111.163 55.2237 110.045 54.4416C108.927 53.6596 107.474 53.2128 106.245 52.7659C103.674 51.7604 101.104 51.0901 98.5332 50.5316C93.7273 49.5261 88.4744 49.973 83.5567 49.973C80.8744 49.973 78.6391 50.4198 76.0685 51.3136C74.8391 51.6487 73.8332 52.319 72.6038 52.7659C71.5979 53.101 69.5861 53.101 68.8038 53.8831C69.3626 54.4416 69.8096 54.4416 69.2508 54.1065Z" fill="#F8F3EF"/>
<path d="M106.916 47.5159C107.139 46.7338 107.81 45.9518 108.145 45.1698C108.592 44.2761 109.039 43.2706 109.486 42.2652C110.38 39.8074 111.498 37.3496 112.169 34.8919C112.616 33.2161 113.733 31.6521 114.404 30.0881C114.851 29.1943 115.074 28.3006 115.521 27.4069C115.857 26.7366 116.416 26.178 116.751 25.5077C116.974 24.9491 117.086 24.5022 117.198 23.9437C117.31 23.4968 117.533 23.0499 117.869 22.7148C118.204 22.0445 118.427 21.3742 118.651 20.7039C119.21 19.1398 119.992 17.5758 120.774 16.1235C121.221 15.118 122.451 13.7774 122.227 12.5486C122.116 11.5431 121.557 11.6548 120.774 11.3197C120.104 10.9845 119.098 10.2025 118.316 10.6494C117.533 11.0962 117.421 12.6603 117.198 13.4423C116.751 14.5595 116.527 15.7883 116.08 17.0172C115.521 18.1344 114.851 19.2516 114.516 20.4804C113.398 23.4968 112.057 26.2897 110.939 29.1943C109.598 32.4341 107.81 35.5622 106.245 38.6902C104.904 41.4832 103.674 44.2761 102.333 47.1807C103.786 47.069 105.463 46.8456 106.916 47.5159Z" fill="#F8F3EF"/>
<path d="M77.5209 48.7449C77.2974 47.9629 77.4091 46.9574 77.2974 46.1754C77.1856 45.1699 77.0738 44.0528 76.8503 43.0473C76.2915 40.4778 76.068 37.7966 75.2856 35.3389C74.8385 33.6631 74.9503 31.7639 74.7268 30.0882C74.615 29.0827 74.3915 28.189 74.2797 27.1836C74.2797 26.4015 74.3915 25.6195 74.2797 24.9492C74.1679 24.3906 74.0562 23.8321 73.8327 23.3852C73.7209 22.9383 73.7209 22.3797 73.8327 21.9329C73.7209 21.2626 73.6091 20.4806 73.4974 19.8103C73.1621 18.1345 73.0503 16.4588 72.8268 14.783C72.715 13.6659 73.0503 11.9901 72.268 10.9847C71.5974 10.2026 71.2621 10.5378 70.3679 10.6495C69.6974 10.7612 68.3562 10.6495 67.9091 11.4315C67.4621 12.2135 68.2444 13.6659 68.3562 14.3362C68.5797 15.565 69.0268 16.6822 69.2503 18.0228C69.4738 19.2517 69.4738 20.5923 69.6974 21.8212C70.3679 24.9492 70.5915 28.0773 71.1503 31.2054C71.7091 34.6686 71.8209 38.2435 72.1562 41.8184C72.4915 44.9465 72.9385 47.9629 73.2738 51.0909C74.615 50.0855 76.068 48.9683 77.5209 48.7449Z" fill="#F8F3EF"/>
<path d="M53.2685 155.545C53.492 154.763 54.1626 153.981 54.4979 153.199C54.945 152.305 55.392 151.3 55.8391 150.294C56.7332 147.836 57.8509 145.379 58.5215 142.921C58.9685 141.245 60.0862 139.681 60.7567 138.117C61.2038 137.223 61.4273 136.33 61.8744 135.436C62.2097 134.766 62.7685 134.207 63.1038 133.537C63.3273 132.978 63.4391 132.531 63.5509 131.973C63.6626 131.526 63.8862 131.079 64.2214 130.744C64.5567 130.074 64.7803 129.403 65.0038 128.733C65.5626 127.169 66.345 125.605 67.1273 124.153C67.5744 123.147 68.8038 121.806 68.5803 120.578C68.4685 119.572 67.9097 119.684 67.1273 119.349C66.4567 119.014 65.4509 118.232 64.6685 118.678C63.8862 119.125 63.7744 120.689 63.5509 121.471C63.1038 122.589 62.8803 123.817 62.4332 125.046C61.8744 126.163 61.2038 127.281 60.8685 128.509C59.7509 131.526 58.4097 134.319 57.292 137.223C55.9509 140.463 54.1626 143.591 52.5979 146.719C51.2567 149.512 50.0273 152.305 48.6862 155.21C50.1391 155.21 51.9273 154.875 53.2685 155.545Z" fill="#F8F3EF"/>
<path d="M126.251 152.417C125.804 151.747 125.58 150.741 125.133 150.071C124.686 149.177 124.239 148.172 123.68 147.278C122.339 145.044 121.11 142.586 119.657 140.575C118.651 139.123 118.092 137.335 117.31 135.771C116.862 134.878 116.304 134.207 115.968 133.202C115.745 132.532 115.521 131.75 115.186 131.079C114.962 130.632 114.627 130.074 114.18 129.739C113.957 129.292 113.733 128.845 113.621 128.398C113.286 127.728 112.951 127.169 112.615 126.611C111.721 125.158 111.051 123.594 110.38 122.03C109.821 121.025 109.598 119.349 108.48 118.679C107.698 118.232 107.474 118.679 106.58 119.014C105.91 119.349 104.68 119.684 104.568 120.578C104.457 121.472 105.574 122.589 106.021 123.147C106.58 124.265 107.474 125.158 108.033 126.275C108.592 127.393 109.039 128.622 109.71 129.739C111.386 132.42 112.727 135.325 114.292 138.006C116.08 141.022 117.31 144.485 118.874 147.613C120.215 150.406 121.668 153.199 123.01 155.992C123.904 154.54 124.798 153.087 126.251 152.417Z" fill="#F8F3EF"/>
<path d="M52.8213 67.0658C52.1507 66.5072 51.7037 65.7252 51.1448 65.0549C50.4743 64.2729 49.6919 63.4909 49.0213 62.8206C47.1213 61.0331 45.2213 59.1339 43.2096 57.4582C41.8684 56.341 40.7507 54.777 39.6331 53.5481C38.9625 52.8778 38.1801 52.3192 37.6213 51.4255C37.1743 50.8669 36.7272 50.0849 36.2801 49.5263C35.8331 49.0794 35.4978 48.7443 34.939 48.5208C34.6037 48.1857 34.2684 47.8505 34.0448 47.4037C33.5978 46.8451 33.039 46.3982 32.4801 45.9514C31.2507 44.8342 30.1331 43.4936 29.0154 42.2647C28.2331 41.371 27.5625 39.9187 26.3331 39.5835C25.439 39.3601 25.3272 39.8069 24.5449 40.4772C23.986 40.9241 22.8684 41.7061 22.9801 42.4881C23.0919 43.3819 24.5449 44.0522 25.1037 44.6108C25.9978 45.5045 27.1154 46.1748 28.0096 47.0685C28.9037 47.9623 29.686 48.9677 30.5801 49.8614C32.9272 51.9841 35.0507 54.3301 37.286 56.5644C39.8566 59.0222 41.9801 61.9268 44.3272 64.4963C46.4507 66.8424 48.5743 69.0767 50.6978 71.311C51.2566 69.747 51.7037 68.0713 52.8213 67.0658Z" fill="#F8F3EF"/>
<path d="M116.303 56.118C117.086 56.3414 118.315 55.5594 119.097 55.2243C120.215 54.7774 121.333 54.4423 122.562 54.1071C126.474 52.9899 130.162 50.8673 134.074 49.5267C138.656 48.0744 143.127 45.7284 147.374 43.494C149.609 42.3769 151.956 41.3714 154.415 40.5894C155.756 40.1425 156.986 39.5839 158.327 39.4722C157.992 38.2433 157.433 37.0145 156.762 35.8973C156.427 35.227 155.98 34.6684 155.533 33.9981C155.197 33.4395 155.086 32.8809 154.639 32.4341C154.192 32.7692 153.521 32.9927 152.962 33.3278C151.845 33.8864 150.727 34.2215 149.497 34.6684C148.603 35.0036 147.821 35.6739 147.039 36.009C146.256 36.4559 145.362 36.6793 144.58 37.0145C142.792 37.7965 141.115 38.8019 139.439 39.6957C134.521 42.0417 129.827 44.9463 124.909 47.2924C122.339 48.4096 119.88 49.7502 117.309 50.8673C116.639 51.2025 115.968 51.5376 115.297 51.9845C114.739 52.3196 113.845 52.4314 113.397 52.8782C114.18 53.772 115.297 55.8946 116.303 56.118Z" fill="#F8F3EF"/>
<path d="M93.0568 1.82342C92.4979 2.49372 92.6097 3.83432 92.4979 4.61634C92.3862 5.84522 92.1626 6.96238 91.8274 8.19127C90.9332 12.2131 91.045 16.4583 90.2626 20.4801C89.3685 25.2839 89.2568 30.1994 89.0332 35.0033C88.9215 37.5727 88.5862 40.0305 88.1391 42.4883C87.9156 43.8289 87.8038 45.2812 87.245 46.5101C88.4744 46.8452 89.8156 46.8452 91.1568 46.9569C91.8273 46.9569 92.6097 46.8452 93.3921 46.8452C93.9509 46.8452 94.6215 46.9569 95.1803 46.8452C95.0685 46.2866 95.1803 45.6163 95.1803 44.946C95.1803 43.7172 95.4038 42.4883 95.6273 41.2594C95.7391 40.3657 95.6273 39.3602 95.6273 38.4665C95.6273 37.5727 95.8509 36.679 95.9626 35.7853C96.1862 33.8861 95.9626 31.8752 96.1862 29.976C96.5215 24.5019 96.1862 19.0278 96.6332 13.6654C96.8568 10.8725 96.8568 8.07955 97.1921 5.28664C97.3038 4.50462 97.1921 3.83432 97.1921 3.0523C97.1921 2.382 97.5274 1.59999 97.4156 0.929688C96.1862 1.0414 93.8391 1.0414 93.0568 1.82342Z" fill="#F8F3EF"/>
<path d="M9.34476 124.264C10.1271 124.487 11.3565 123.705 12.1389 123.37C13.2565 122.923 14.3742 122.588 15.6036 122.253C19.5153 121.136 23.2036 119.013 27.1153 117.673C31.6977 116.22 36.1683 113.874 40.4153 111.64C42.6506 110.523 44.9977 109.517 47.4565 108.735C48.7977 108.289 50.0271 107.73 51.3683 107.618C51.033 106.389 50.4742 105.16 49.8036 104.043C49.4683 103.373 49.0212 102.814 48.5742 102.144C48.2389 101.586 48.1271 101.027 47.6801 100.58C47.233 100.915 46.5624 101.139 46.0036 101.474C44.8859 102.032 43.7683 102.368 42.5389 102.814C41.6448 103.15 40.8624 103.82 40.0801 104.155C39.2977 104.602 38.4036 104.825 37.6212 105.16C35.833 105.942 34.1565 106.948 32.4801 107.842C27.5624 110.188 22.8683 113.092 17.9506 115.438C15.38 116.556 12.9212 117.896 10.3506 119.013C9.68005 119.348 9.00946 119.684 8.33887 120.13C7.78005 120.466 6.88593 120.577 6.43887 121.024C7.22123 121.918 8.33887 124.041 9.34476 124.264Z" fill="#F8F3EF"/>
<path d="M45.1096 75.891C44.5508 75.2207 43.2096 75.1089 42.4272 74.8855C41.1978 74.5504 40.1919 74.1035 38.9625 73.6566C35.1625 72.0926 31.0272 71.4223 27.1155 69.97C22.6449 68.1825 17.7272 67.2888 12.9213 66.2833C10.4625 65.7247 8.0037 65.0544 5.65664 64.1607C4.31546 63.6021 2.97429 63.267 1.85664 62.5967C1.29782 63.7138 1.07429 65.0544 0.738994 66.395C0.627229 67.0653 0.627229 67.8474 0.515465 68.6294C0.4037 69.188 0.180171 69.7465 0.291935 70.4168C0.850759 70.4168 1.52135 70.6403 2.08017 70.752C3.30958 70.9754 4.42723 71.4223 5.65664 71.8692C6.55076 72.2043 7.55664 72.0926 8.45076 72.316C9.34488 72.5395 10.1272 72.8746 11.0213 73.098C12.9213 73.5449 14.8213 73.7683 16.7213 74.3269C21.9743 75.5558 27.4508 76.2261 32.8155 77.5667C35.4978 78.237 38.2919 78.7956 40.9743 79.4659C41.7566 79.6893 42.4272 79.6893 43.2096 79.801C43.8802 79.9128 44.5508 80.3596 45.2213 80.3596C45.3331 79.019 45.7802 76.673 45.1096 75.891Z" fill="#F8F3EF"/>
<path d="M166.262 60.8091C166.262 60.9208 166.262 61.0325 166.15 61.1442C165.591 61.2559 165.033 61.5911 164.474 61.5911C163.915 61.7028 163.244 61.5911 162.686 61.5911C161.568 61.5911 160.45 62.038 159.333 62.3731C157.433 63.1551 155.197 63.3786 153.074 63.9371C148.939 65.0543 144.691 65.8363 140.444 66.9535C137.762 67.7355 134.968 68.0707 132.286 68.8527C130.497 69.4113 128.821 70.1933 126.921 70.1933C127.033 70.1933 126.25 70.6401 126.362 70.6401C125.691 69.9698 125.356 68.741 124.909 67.8472C124.462 67.0652 124.015 65.948 123.68 65.166C125.356 65.166 126.921 64.9426 128.597 64.4957C131.056 63.9371 133.515 63.3786 135.862 62.82C140.668 61.4794 145.474 60.2505 150.391 59.1333C153.744 58.463 157.097 57.1224 160.562 56.899C161.456 56.7873 162.239 56.5638 163.021 56.4521C164.139 56.3404 164.139 56.5638 164.139 55.335C164.139 56.6756 165.144 56.5638 165.368 57.9044C165.591 58.9099 166.262 59.8036 166.262 60.8091C166.15 60.8091 166.486 60.8091 166.262 60.8091Z" fill="#F8F3EF"/>
<path d="M44.1038 90.9729C44.1038 91.0846 44.1038 91.1963 43.992 91.3081C43.4332 91.4198 42.8744 91.7549 42.3156 91.7549C41.7568 91.8666 41.0862 91.7549 40.5273 91.7549C39.4097 91.7549 38.2921 92.2018 37.1744 92.5369C35.2744 93.319 33.0391 93.5424 30.9156 94.101C26.7803 95.2181 22.5332 96.0001 18.2862 97.1173C15.6038 97.8993 12.8097 98.2345 10.1273 99.0165C8.45088 99.5751 6.88617 100.357 4.98617 100.357C5.09794 100.357 4.31558 100.804 4.42735 100.804C3.75676 100.134 3.42147 98.9048 2.97441 98.0111C2.52735 97.229 2.08029 96.1119 1.745 95.3299C3.42147 95.3299 4.98617 95.1064 6.66264 94.6596C9.12146 94.101 11.5803 93.5424 13.9273 92.9838C18.7332 91.6432 23.5391 90.4143 28.4568 89.2971C31.8097 88.6268 35.1626 87.2862 38.6273 87.0628C39.5215 86.9511 40.3038 86.7277 41.0862 86.6159C42.2038 86.5042 42.2038 86.7277 42.2038 85.4988C42.2038 86.8394 43.2097 86.7277 43.4332 88.0683C43.545 88.962 44.1038 89.9674 44.1038 90.9729C43.992 90.9729 44.3273 90.8612 44.1038 90.9729Z" fill="#F8F3EF"/>
<path d="M143.239 144.598C143.128 144.598 143.016 144.598 142.904 144.71C142.569 144.263 142.122 143.816 141.786 143.369C141.451 142.922 141.339 142.252 141.116 141.693C140.669 140.688 139.775 139.794 138.992 139.012C137.539 137.56 136.422 135.549 135.081 133.985C132.398 130.633 129.939 127.058 127.257 123.707C125.469 121.584 124.016 119.126 122.228 117.004C120.998 115.552 119.657 114.323 118.875 112.647C118.875 112.759 118.316 112.2 118.316 112.312C118.651 111.418 119.657 110.636 120.216 109.854C120.775 109.184 121.557 108.29 122.228 107.62C122.898 109.184 123.792 110.524 124.798 111.865C126.251 113.876 127.704 115.887 129.269 117.898C132.398 121.808 135.528 125.718 138.433 129.74C140.445 132.532 143.016 135.102 144.581 138.118C145.028 138.9 145.475 139.459 145.922 140.241C146.481 141.246 146.257 141.358 147.486 140.799C146.257 141.358 146.704 142.252 145.586 142.922C144.692 143.257 144.133 144.263 143.239 144.598C143.128 144.486 143.351 144.821 143.239 144.598Z" fill="#F8F3EF"/>
<path d="M170.957 80.9182C170.175 82.0353 170.175 81.365 168.945 81.7002C168.61 81.8119 168.61 82.0353 168.163 82.147C167.828 82.2588 167.269 82.147 166.934 82.147C165.481 82.147 164.028 82.147 162.575 82.147C158.775 82.147 154.975 82.147 151.175 82.147C149.833 82.147 148.828 82.2588 147.598 82.4822C146.034 82.8173 144.357 82.4822 142.904 82.5939C139.663 82.5939 136.31 83.3759 133.069 83.3759C132.175 83.3759 131.281 83.3759 130.386 83.3759C129.492 83.3759 129.045 83.7111 128.822 82.8174C128.486 81.4768 128.822 79.6893 128.822 78.237C129.604 78.3487 130.386 77.9018 131.169 77.7901C132.51 77.6784 133.739 77.2315 134.969 77.1198C136.31 76.8964 137.763 77.1198 139.104 77.0081C140.445 76.8964 141.563 76.5612 142.904 76.5612C144.916 76.5612 147.039 76.3378 149.051 76.2261C151.175 76.1144 153.298 75.5558 155.422 75.4441C157.098 75.3323 158.551 75.1089 160.228 75.1089C161.457 75.1089 162.463 74.662 163.692 74.662C164.251 74.662 165.034 74.7738 165.592 74.662C166.263 74.5503 166.598 74.3269 167.269 74.2152C167.828 74.2152 168.275 74.2152 168.833 74.2152C169.392 74.2152 169.839 73.88 170.398 73.7683C170.286 73.7683 170.957 73.7683 170.845 73.88C170.398 75.1089 171.069 76.3378 171.181 77.5667C171.292 78.7956 171.181 80.2479 171.181 81.4767C171.404 81.2533 170.957 81.1416 170.957 80.9182Z" fill="#F8F3EF"/>
<path d="M39.7448 18.8046C41.086 18.9163 40.6389 19.2514 41.4213 20.0335C41.6448 20.2569 41.9801 20.1452 42.2036 20.3686C42.4271 20.592 42.6507 21.1506 42.8742 21.3741C43.6566 22.6029 44.4389 23.8318 45.2213 24.949C47.3448 28.0771 49.3566 31.3168 51.4801 34.4449C52.1507 35.5621 52.8213 36.3441 53.7154 37.2378C54.833 38.355 55.5036 39.919 56.3977 41.1479C58.2977 43.8291 60.6448 46.1751 62.433 48.9681C62.8801 49.7501 63.4389 50.5321 63.886 51.2024C64.333 51.8727 64.8919 52.2078 64.333 52.8781C63.4389 53.8836 61.6507 54.5539 60.533 55.3359C60.1977 54.6656 59.4154 54.107 58.9683 53.5484C58.0742 52.543 57.1801 51.6493 56.286 50.7555C55.3919 49.7501 54.833 48.4095 53.9389 47.2923C53.1566 46.2869 52.1507 45.3931 51.4801 44.276C50.3624 42.4885 49.0213 40.9245 47.7919 39.2487C46.5624 37.573 44.886 36.1207 43.5448 34.3332C42.6507 33.3277 41.533 32.2106 40.6389 30.87C39.9683 29.8645 39.0742 29.1942 38.4036 28.1888C38.0683 27.7419 37.733 27.0716 37.3977 26.6247C36.9507 26.1779 36.5036 25.9544 36.1683 25.5076C35.833 25.0607 35.6095 24.6138 35.2742 24.167C34.9389 23.7201 34.4918 23.4967 34.0448 23.0498C34.1566 23.1615 33.8213 22.6029 33.8213 22.6029C35.0507 22.2678 35.833 21.0389 36.7271 20.2569C37.733 19.4749 38.9624 18.8046 39.9683 18.1343C39.8566 18.246 39.9683 18.6929 39.7448 18.8046Z" fill="#F8F3EF"/>
<path d="M165.927 113.428C164.809 114.098 165.033 113.54 163.804 113.428C163.468 113.428 163.357 113.652 162.909 113.54C162.574 113.54 162.127 113.205 161.792 113.093C160.451 112.534 159.109 111.976 157.768 111.529C154.304 110.077 150.727 108.736 147.262 107.284C146.033 106.837 145.139 106.502 143.798 106.278C142.233 105.943 140.78 105.161 139.327 104.603C136.198 103.374 132.957 102.927 129.827 101.698C128.933 101.363 128.151 101.028 127.257 100.692C126.474 100.357 125.915 100.469 126.027 99.5753C126.251 98.2347 127.257 96.6707 127.704 95.3301C128.374 95.7769 129.268 95.6652 130.051 95.8887C131.28 96.2238 132.621 96.3355 133.851 96.6707C135.192 97.0058 136.421 97.6761 137.762 98.123C138.992 98.5699 140.221 98.6816 141.451 99.1284C143.351 99.9105 145.362 100.469 147.374 101.139C149.386 101.81 151.621 102.145 153.633 102.815C155.198 103.374 156.651 103.709 158.215 104.267C159.333 104.714 160.451 104.714 161.568 105.161C162.127 105.385 162.686 105.72 163.357 105.831C163.915 105.943 164.474 105.831 165.033 106.055C165.48 106.278 166.039 106.502 166.486 106.613C167.045 106.837 167.492 106.725 168.051 106.837C167.939 106.837 168.609 107.06 168.498 107.06C167.604 108.066 167.715 109.518 167.492 110.635C167.157 111.864 166.486 113.093 166.039 114.21C166.151 113.987 165.927 113.652 165.927 113.428Z" fill="#F8F3EF"/>
<path d="M27.4509 145.826C27.2274 144.486 27.6744 144.933 28.2332 143.816C28.4568 143.48 28.2332 143.257 28.4568 142.922C28.5685 142.698 29.1274 142.252 29.3509 142.028C30.3568 141.023 31.3626 139.906 32.3685 138.9C34.9391 136.219 37.6215 133.426 40.1921 130.745C41.0862 129.851 41.7568 129.069 42.4274 127.952C43.2097 126.611 44.5509 125.606 45.6685 124.489C47.9038 122.031 49.5803 119.238 51.9274 116.78C52.5979 116.11 53.1568 115.44 53.8274 114.769C54.3862 114.099 54.6097 113.54 55.3921 113.987C56.5097 114.658 57.6274 116.222 58.6332 117.115C58.0744 117.562 57.7391 118.456 57.2921 119.126C56.5097 120.132 55.9509 121.361 55.1685 122.366C54.3862 123.483 53.2685 124.377 52.3744 125.382C51.4803 126.388 50.9215 127.505 50.0274 128.399C48.5744 129.851 47.345 131.527 46.0038 133.091C44.5509 134.655 43.545 136.666 42.2038 138.23C41.1979 139.459 40.1921 140.688 39.1862 141.916C38.4038 142.81 37.9568 143.816 37.0626 144.709C36.6156 145.156 36.0568 145.603 35.7215 146.05C35.3862 146.609 35.2744 147.055 34.8274 147.502C34.4921 147.949 34.045 148.173 33.7097 148.619C33.3744 149.066 33.2626 149.513 32.9274 150.072C33.0391 149.96 32.4803 150.407 32.5921 150.407C32.0332 149.29 30.6921 148.843 29.6862 148.061C28.6803 147.279 27.7862 146.162 26.8921 145.38C26.8921 145.826 27.2274 145.715 27.4509 145.826Z" fill="#F8F3EF"/>
<path d="M85.4563 126.835C85.568 127.393 85.121 127.84 85.0092 128.399C84.8974 128.846 85.121 129.516 85.0092 129.963C84.8974 130.633 84.4504 131.415 84.3386 131.974C84.0033 133.091 84.0033 134.208 83.7798 135.325C83.4445 137.001 82.6621 138.565 82.2151 140.129C81.8798 141.246 81.0974 142.14 80.8739 143.257C80.6504 144.151 80.3151 144.821 79.9798 145.603C79.0857 147.614 78.8621 150.184 78.3033 152.306C77.8563 154.205 77.2974 156.216 76.9621 158.227C76.8504 159.009 76.7386 159.791 76.5151 160.573C76.2916 161.244 75.8445 161.802 75.7327 162.584C75.5092 163.478 74.2798 163.478 73.4974 163.366C71.9327 163.254 71.0386 162.696 69.8092 161.802C69.8092 161.914 69.8092 162.026 69.8092 162.026C70.4798 160.238 70.7033 158.115 71.1504 156.216C71.821 152.865 73.2739 149.625 74.0563 146.385C74.9504 142.699 75.7327 139.124 76.6268 135.437C76.9621 134.096 77.0739 132.644 77.2974 131.303C77.6327 129.293 78.0798 127.84 78.9739 126.053C79.5327 126.165 79.868 125.718 80.4268 126.053C80.9857 126.276 81.6563 126.276 82.2151 126.5C82.6621 126.611 82.7739 126.835 83.3327 126.947C83.668 126.947 84.7857 126.835 85.4563 126.835Z" fill="#F8F3EF"/>
<path d="M102.557 163.7C102.445 163.7 102.333 163.7 102.221 163.588C101.774 162.471 102.11 160.572 102.11 159.343C102.11 158.561 101.886 158.45 101.663 157.779C101.439 156.997 101.663 155.992 101.663 155.21C101.663 154.204 101.551 153.534 101.327 152.64C101.104 151.747 101.327 150.741 101.215 149.847C101.104 148.954 100.768 148.172 100.768 147.278C100.768 146.272 100.433 145.602 100.321 144.597C100.21 143.48 100.321 142.586 99.9861 141.58C99.7625 140.798 99.9861 140.016 99.7625 139.234C99.539 138.229 99.539 137.335 99.3155 136.33C99.0919 135.324 99.2037 134.319 98.9802 133.202C98.6449 131.414 98.1978 129.515 97.7508 127.727C97.4155 126.052 97.0802 124.376 97.0802 122.7C95.1802 122.7 93.5037 122.365 91.939 123.482C91.0449 124.153 91.6037 127.839 91.4919 128.956C91.4919 130.185 91.4919 131.302 91.8272 132.531C92.0507 133.872 91.7154 135.212 91.939 136.441C92.2743 138.676 92.6096 140.91 92.7213 143.256C92.8331 145.379 93.2802 147.39 93.5037 149.4C93.6155 150.071 93.5037 150.853 93.5037 151.411C93.5037 152.193 93.7272 152.752 93.839 153.534C94.0625 154.763 93.839 156.103 93.839 157.221C93.839 159.567 93.839 161.913 93.839 164.259C93.6155 164.259 95.2919 164.706 95.6272 164.706C96.2978 164.706 97.0802 164.817 97.7508 164.594C99.539 164.482 100.992 163.7 102.557 163.7Z" fill="#F8F3EF"/>
</svg>
