<svg width="19" height="17" viewBox="0 0 19 17" fill="none" xmlns="http://www.w3.org/2000/svg">
  <path
    d="M16.844 8.64919C16.844 9.54866 16.6432 10.4393 16.2532 11.2703C15.8631 12.1013 15.2914 12.8564 14.5707 13.4924C13.85 14.1284 12.9944 14.6329 12.0527 14.9772C11.1111 15.3214 10.1018 15.4985 9.08255 15.4985V16.5523C11.4577 16.5523 13.7356 15.7196 15.415 14.2375C17.0945 12.7554 18.0381 10.7452 18.0381 8.64919H16.844ZM9.08255 15.4985C7.02409 15.4985 5.04994 14.7769 3.59438 13.4924C2.13883 12.2079 1.32111 10.4657 1.32111 8.64919H0.127045C0.127045 10.7452 1.07057 12.7554 2.75005 14.2375C4.42953 15.7196 6.7074 16.5523 9.08255 16.5523V15.4985ZM1.32111 8.64919C1.32111 6.83263 2.13883 5.09047 3.59438 3.80597C5.04994 2.52147 7.02409 1.79984 9.08255 1.79984V0.746094C6.7074 0.746094 4.42953 1.57874 2.75005 3.06086C1.07057 4.54297 0.127045 6.55316 0.127045 8.64919H1.32111ZM9.08255 1.79984C10.1018 1.79984 11.1111 1.977 12.0527 2.32122C12.9944 2.66543 13.85 3.16995 14.5707 3.80597C15.2914 4.44199 15.8631 5.19705 16.2532 6.02806C16.6432 6.85906 16.844 7.74972 16.844 8.64919H18.0381C18.0381 6.55316 17.0945 4.54297 15.415 3.06086C13.7356 1.57874 11.4577 0.746094 9.08255 0.746094V1.79984ZM4.49972 11.4058C5.67707 11.1529 7.12667 11.0422 8.55 11.1655C9.9781 11.2888 11.3369 11.6439 12.3734 12.2878L13.06 11.4248C11.8026 10.645 10.2241 10.2519 8.66701 10.1171C7.17712 9.98991 5.67367 10.0796 4.21673 10.3826L4.49972 11.4058ZM4.09851 9.16763C8.21327 8.52485 11.0814 8.85467 13.4588 10.3605L14.1549 9.50378C11.411 7.76509 8.16551 7.46267 3.89074 8.13074L4.09851 9.16763ZM3.82985 6.90102C5.44542 6.39733 7.41563 6.18869 9.35122 6.32779C11.2892 6.46793 13.1483 6.95476 14.5621 7.80303L15.232 6.93053C13.6033 5.95371 11.5316 5.42789 9.44913 5.27825C7.36429 5.12757 5.22332 5.34886 3.43222 5.90734L3.82985 6.90102Z"
    fill="black" />
</svg>
