<svg width="410" height="489" viewBox="0 0 410 489" fill="none" xmlns="http://www.w3.org/2000/svg">
  <rect width="410" height="489" rx="20" fill="white" />
  <path
    d="M64.5273 227.277C65.5423 223.328 66.5573 219.36 67.5723 215.411C68.1103 213.381 68.7497 211.351 69.4196 209.321C69.7503 208.054 70.509 206.941 71.5672 206.169C72.6254 205.398 73.9179 205.016 75.2254 205.089C78.3719 205.18 81.5083 205.607 84.6548 205.85C86.3355 206.087 88.0339 206.172 89.7298 206.104C90.982 206.039 92.1745 205.549 93.1097 204.713C96.4085 201.029 99.5448 197.202 102.641 193.335C103.158 192.618 103.489 191.783 103.605 190.906C103.72 190.029 103.615 189.138 103.3 188.311C102.204 184.606 100.996 180.942 99.9204 177.227C99.4526 175.797 99.1962 174.306 99.1591 172.802C99.1598 172.249 99.2695 171.702 99.482 171.191C99.6945 170.681 100.006 170.218 100.397 169.828C105.848 165.635 111.897 162.286 118.343 159.891C119.293 159.499 120.346 159.433 121.338 159.702C122.329 159.972 123.204 160.563 123.824 161.383C126.463 164.428 129.213 167.473 131.761 170.599C132.596 171.801 133.761 172.734 135.116 173.287C136.471 173.84 137.956 173.989 139.394 173.715C143.454 173.086 147.625 172.7 151.736 172.162C152.489 172.058 153.206 171.773 153.825 171.331C154.444 170.889 154.946 170.304 155.289 169.625C156.588 167.331 157.796 164.986 159.064 162.672C160.15 160.642 161.216 158.693 162.394 156.755C162.893 155.773 163.717 154.996 164.726 154.555C165.736 154.115 166.866 154.038 167.925 154.339C173.802 155.861 179.669 157.384 185.485 159.15C186.589 159.486 187.543 160.193 188.186 161.151C188.83 162.108 189.123 163.259 189.017 164.408C188.956 167.595 188.489 170.782 188.236 173.979C188.114 175.481 188.012 177.024 188.012 178.496C187.974 179.465 188.164 180.43 188.568 181.311C188.972 182.193 189.578 182.967 190.337 183.571C193.564 186.169 196.843 188.727 199.979 191.447C200.887 192.276 202.004 192.842 203.209 193.083C204.415 193.325 205.663 193.233 206.82 192.818C210.829 191.6 214.818 190.29 218.828 189.082C221.994 188.128 224.278 188.94 225.933 191.792C228.639 196.468 231.272 201.205 233.829 206.002C235.677 209.474 235.291 211.605 232.368 214.315C230.409 216.142 228.308 217.766 226.278 219.532C224.816 220.805 223.405 222.124 222.045 223.491C221.463 224.055 221.018 224.746 220.747 225.51C220.476 226.274 220.385 227.091 220.482 227.896C220.919 232.169 221.325 236.442 221.863 240.695C221.985 241.855 222.407 242.964 223.087 243.912C223.766 244.86 224.681 245.616 225.74 246.105C228.186 247.313 230.663 248.47 233.099 249.708C234.618 250.459 236.096 251.292 237.524 252.205C238.549 252.772 239.347 253.676 239.782 254.764C240.216 255.851 240.262 257.056 239.909 258.173C238.434 263.479 236.922 268.773 235.372 274.058C235.096 274.859 234.728 275.626 234.276 276.342C233.878 277.209 233.219 277.93 232.391 278.403C231.562 278.876 230.607 279.078 229.658 278.981C225.902 278.666 222.157 278.331 218.401 277.966C218.117 277.966 217.833 277.966 217.559 277.905C214.027 277.377 211.388 278.646 209.297 281.559C207.399 284.198 205.237 286.634 203.146 289.141C202.179 290.248 201.536 291.6 201.285 293.048C201.034 294.496 201.187 295.985 201.725 297.352C202.912 300.874 204.09 304.457 205.115 307.99C206.201 311.765 205.582 313.491 202.202 315.46C197.36 318.272 192.438 320.951 187.484 323.58C184.774 324.991 182.673 324.595 180.572 322.342C178.471 320.088 176.36 317.51 174.3 315.054C169.874 309.776 168.839 309.35 161.998 310.243C159.328 310.598 156.669 310.984 154.01 311.339C152.733 311.455 151.508 311.901 150.455 312.632C149.401 313.363 148.556 314.355 148.001 315.511C146.59 318.333 145.25 321.195 143.758 323.976C142.959 325.413 142.028 326.772 140.977 328.036C140.519 328.678 139.872 329.162 139.126 329.418C138.38 329.675 137.572 329.692 136.816 329.467C131.253 327.884 125.651 326.321 120.129 324.707C119.375 324.445 118.65 324.105 117.967 323.692C117.099 323.299 116.375 322.645 115.898 321.82C115.421 320.995 115.215 320.042 115.308 319.094C115.602 315.379 115.937 311.674 116.221 307.929C116.302 306.802 116.313 305.665 116.282 304.539C116.314 303.617 116.127 302.7 115.737 301.864C115.347 301.028 114.765 300.296 114.039 299.728C110.872 297.271 107.746 294.754 104.62 292.257C103.727 291.518 102.652 291.033 101.506 290.854C100.361 290.676 99.1891 290.81 98.1137 291.242C94.5815 292.409 91.0087 293.485 87.4765 294.602L87.0705 294.744C82.4116 295.982 80.8282 295.485 78.4328 291.303C75.7735 286.644 73.3578 281.874 70.9015 277.093C69.4298 274.16 69.8155 272.394 72.3124 270.171C75.0224 267.755 77.7934 265.4 80.676 263.198C82.0877 262.238 83.1864 260.884 83.836 259.306C84.4855 257.727 84.6573 255.992 84.33 254.316C83.7616 250.5 83.315 246.653 82.8481 242.816C82.775 242.012 82.5017 241.239 82.0532 240.567C81.6047 239.895 80.9951 239.346 80.2801 238.97C76.9103 237.173 73.5202 235.427 70.1301 233.61C67.9276 232.423 65.7047 231.235 64.6491 228.738L64.5273 227.277ZM188.702 239.061C187.099 218.68 169.539 203.861 148.985 205.393C132.106 206.652 114.151 222.963 115.896 244.877C116.71 254.481 121.271 263.379 128.593 269.647C135.915 275.915 145.41 279.049 155.025 278.372C178.512 276.616 191.047 255.108 188.702 239.061Z"
    fill="white" />
  <path
    d="M137.892 330.137C137.466 330.135 137.042 330.073 136.633 329.955L132.015 328.645C127.955 327.498 123.966 326.362 119.936 325.184C119.249 324.972 118.589 324.682 117.967 324.321L117.663 324.159C116.711 323.719 115.919 322.995 115.395 322.086C114.872 321.177 114.643 320.128 114.739 319.084C114.871 317.43 115.013 315.775 115.156 314.121C115.328 312.091 115.501 310.01 115.653 307.949C115.737 306.838 115.758 305.723 115.714 304.61C115.754 303.764 115.59 302.92 115.237 302.15C114.884 301.38 114.351 300.706 113.684 300.185C110.872 297.992 108.04 295.739 105.3 293.547L104.285 292.714C103.464 292.018 102.471 291.556 101.41 291.378C100.349 291.199 99.2591 291.31 98.2558 291.699C95.7894 292.511 93.2722 293.303 90.826 294.054L87.6085 295.069L87.4664 295.12L87.1822 295.211C82.229 296.531 80.4223 295.8 77.9761 291.527C75.0428 286.401 72.4038 281.225 70.4245 277.317C68.8716 274.211 69.2877 272.171 71.9572 269.785C75.1037 266.974 77.7731 264.71 80.3411 262.782C81.6814 261.88 82.7256 260.602 83.3431 259.109C83.9606 257.616 84.1238 255.973 83.8124 254.388C83.4571 251.993 83.1526 249.567 82.8684 247.212C82.6959 245.76 82.5132 244.319 82.3305 242.878C82.2663 242.153 82.0218 241.456 81.6194 240.849C81.217 240.243 80.6694 239.747 80.0264 239.407L75.8446 237.204C73.8146 236.189 71.876 235.113 69.9069 234.047C67.6231 232.809 65.3191 231.561 64.2026 228.972C64.198 228.922 64.198 228.871 64.2026 228.82L64.0909 227.399C64.081 227.345 64.081 227.29 64.0909 227.237L64.974 223.755C65.6743 220.954 66.3848 218.152 67.1258 215.361C67.6942 213.24 68.3539 211.179 68.9832 209.271C69.3037 207.875 70.1063 206.636 71.2499 205.773C72.3934 204.909 73.8048 204.477 75.2356 204.551C77.3265 204.612 79.4377 204.825 81.4779 205.028L84.6954 205.323L85.9439 205.434C87.178 205.603 88.4256 205.65 89.6689 205.577C90.7907 205.51 91.8599 205.079 92.7139 204.348C96.2461 200.491 99.5043 196.431 102.235 193.031C102.706 192.381 103.006 191.623 103.107 190.827C103.208 190.03 103.107 189.221 102.813 188.474C102.326 186.83 101.798 185.195 101.311 183.551C100.682 181.521 100.032 179.491 99.4434 177.39C98.9664 175.91 98.7099 174.367 98.6821 172.812C98.6855 172.183 98.8148 171.561 99.0623 170.982C99.3099 170.403 99.6706 169.88 100.123 169.443C105.607 165.196 111.706 161.811 118.211 159.404C119.257 158.983 120.411 158.914 121.5 159.209C122.588 159.504 123.55 160.147 124.24 161.038C125.174 162.124 126.118 163.2 127.062 164.276C128.767 166.215 130.533 168.225 132.137 170.265C132.913 171.402 134.005 172.287 135.279 172.81C136.552 173.333 137.951 173.472 139.302 173.208C141.952 172.802 144.662 172.488 147.28 172.193L151.645 171.665C152.321 171.573 152.964 171.317 153.518 170.919C154.072 170.521 154.519 169.993 154.822 169.382C155.593 168.032 156.324 166.661 157.055 165.322C157.562 164.368 158.07 163.413 158.598 162.459L159.136 161.444C160.029 159.81 160.952 158.115 161.937 156.501C162.489 155.424 163.398 154.571 164.508 154.088C165.619 153.605 166.862 153.522 168.027 153.852C175.132 155.679 180.511 157.161 185.597 158.663C188.073 159.394 189.525 161.556 189.474 164.428C189.474 166.56 189.22 168.712 189.007 170.803C188.895 171.879 188.784 172.954 188.692 174.03C188.581 175.451 188.479 176.984 188.479 178.507C188.43 179.411 188.602 180.314 188.978 181.137C189.355 181.961 189.925 182.681 190.641 183.236L192.905 185.053C195.361 187.012 197.888 189.032 200.294 191.143C201.14 191.915 202.183 192.438 203.308 192.654C204.433 192.871 205.595 192.773 206.668 192.371C208.627 191.783 210.566 191.164 212.514 190.555C214.463 189.946 216.574 189.255 218.665 188.636C222.096 187.621 224.613 188.565 226.359 191.58C229.069 196.249 231.728 201.029 234.266 205.79C236.204 209.434 235.778 211.88 232.703 214.722C231.535 215.798 230.297 216.823 229.089 217.817C228.237 218.518 227.384 219.218 226.552 219.949C225.039 221.268 223.629 222.588 222.35 223.877C221.824 224.387 221.422 225.011 221.176 225.701C220.929 226.391 220.845 227.128 220.929 227.856L221.193 230.454C221.538 233.804 221.883 237.255 222.309 240.604C222.42 241.682 222.812 242.711 223.444 243.591C224.076 244.47 224.927 245.169 225.912 245.618C226.927 246.136 227.942 246.633 229.008 247.131C230.439 247.821 231.86 248.511 233.271 249.232C234.812 249.98 236.307 250.821 237.747 251.749C238.87 252.369 239.743 253.36 240.216 254.552C240.69 255.744 240.736 257.064 240.346 258.286C238.955 263.279 237.473 268.436 235.809 274.16C235.553 274.93 235.213 275.668 234.794 276.363L234.682 276.566C234.237 277.512 233.511 278.298 232.602 278.815C231.694 279.333 230.648 279.558 229.607 279.458L221.619 278.768L218.056 278.464C217.859 278.457 217.663 278.44 217.468 278.413C214.199 277.926 211.733 279.022 209.693 281.864C208.353 283.721 206.851 285.508 205.399 287.223C204.77 287.974 204.141 288.715 203.532 289.466C202.619 290.508 202.011 291.781 201.774 293.145C201.538 294.51 201.683 295.913 202.192 297.201C203.339 300.581 204.536 304.204 205.592 307.858C206.749 311.918 205.988 313.847 202.446 315.907C198.02 318.485 193.199 321.134 187.708 324.027C184.795 325.55 182.481 325.133 180.197 322.687C178.39 320.759 176.675 318.698 175.02 316.709L173.904 315.379C169.58 310.223 168.697 309.878 162.049 310.751L157.562 311.36L154.071 311.837C152.875 311.939 151.726 312.352 150.74 313.036C149.753 313.72 148.963 314.65 148.448 315.734C147.971 316.678 147.514 317.633 147.047 318.577C146.133 320.434 145.189 322.362 144.195 324.22C143.367 325.695 142.402 327.088 141.312 328.381C140.913 328.915 140.398 329.351 139.805 329.655C139.212 329.96 138.558 330.125 137.892 330.137ZM100.54 290.268C102.131 290.279 103.667 290.846 104.884 291.872L105.899 292.704C108.629 294.897 111.451 297.15 114.262 299.342C115.051 299.954 115.684 300.744 116.11 301.647C116.535 302.55 116.74 303.541 116.709 304.539C116.744 305.686 116.72 306.835 116.637 307.98C116.485 310.01 116.313 312.04 116.14 314.151C115.998 315.806 115.866 317.46 115.734 319.104C115.648 319.956 115.833 320.813 116.263 321.553C116.694 322.293 117.347 322.879 118.13 323.225L118.434 323.398C118.99 323.731 119.578 324.007 120.19 324.22C124.25 325.387 128.239 326.524 132.268 327.671L136.877 328.98C137.537 329.18 138.244 329.164 138.895 328.936C139.546 328.708 140.108 328.279 140.5 327.712C141.538 326.474 142.453 325.138 143.23 323.723C144.245 321.885 145.159 319.967 146.062 318.12C146.529 317.166 146.996 316.222 147.473 315.278C148.063 314.049 148.961 312.993 150.08 312.214C151.199 311.435 152.5 310.959 153.858 310.832L157.349 310.345L161.846 309.736C168.859 308.822 170.047 309.279 174.604 314.719L175.721 316.049C177.375 318.079 179.08 320.109 180.867 321.987C182.805 324.078 184.693 324.413 187.17 323.124C192.641 320.251 197.452 317.612 201.867 315.004C205.003 313.177 205.582 311.695 204.547 308.112C203.511 304.529 202.303 300.855 201.157 297.495C200.601 296.043 200.449 294.467 200.717 292.936C200.985 291.404 201.663 289.974 202.679 288.796L204.557 286.543C205.998 284.838 207.49 283.072 208.799 281.245C211.053 278.108 213.874 276.84 217.549 277.388H218.036H218.361L221.639 277.672C224.299 277.905 226.958 278.139 229.627 278.352C230.478 278.442 231.336 278.261 232.078 277.834C232.82 277.408 233.408 276.758 233.758 275.977L233.87 275.784C234.258 275.145 234.571 274.464 234.804 273.754C236.468 268.07 237.95 262.873 239.341 257.879C239.669 256.865 239.631 255.767 239.234 254.777C238.837 253.787 238.107 252.967 237.169 252.459C235.751 251.562 234.287 250.739 232.784 249.993C231.383 249.282 229.962 248.592 228.541 247.963C227.526 247.455 226.46 246.948 225.435 246.44C224.301 245.917 223.322 245.107 222.594 244.091C221.866 243.075 221.415 241.888 221.284 240.645C220.848 237.245 220.502 233.783 220.157 230.434L219.893 227.846C219.796 226.968 219.9 226.079 220.197 225.247C220.494 224.415 220.977 223.662 221.609 223.045C222.898 221.746 224.329 220.406 225.862 219.066C226.694 218.335 227.557 217.625 228.419 216.914C229.607 215.899 230.845 214.884 231.992 213.869C234.753 211.291 235.037 209.423 233.342 206.155C230.805 201.405 228.156 196.634 225.456 191.945C223.933 189.326 221.923 188.565 218.929 189.458C216.899 190.078 214.869 190.727 212.788 191.367C210.708 192.006 208.891 192.605 206.932 193.194C205.692 193.641 204.354 193.74 203.062 193.48C201.771 193.221 200.574 192.613 199.604 191.722C197.208 189.692 194.691 187.662 192.245 185.632L190.032 183.977C189.216 183.322 188.565 182.485 188.13 181.534C187.694 180.582 187.487 179.542 187.525 178.496C187.525 176.933 187.637 175.38 187.748 173.939C187.84 172.853 187.951 171.767 188.063 170.691C188.276 168.661 188.489 166.489 188.53 164.398C188.53 161.972 187.424 160.226 185.373 159.628C180.298 158.125 174.888 156.643 167.834 154.827C166.879 154.553 165.859 154.621 164.949 155.019C164.039 155.418 163.297 156.121 162.85 157.009C161.835 158.613 160.963 160.287 160.079 161.911L159.531 162.926C159.014 163.87 158.516 164.824 157.999 165.778C157.258 167.149 156.527 168.529 155.756 169.838C155.373 170.585 154.817 171.229 154.133 171.715C153.449 172.201 152.658 172.514 151.828 172.63C150.366 172.812 148.914 172.985 147.453 173.147C144.844 173.452 142.144 173.766 139.505 174.162C137.978 174.447 136.401 174.287 134.962 173.703C133.523 173.118 132.282 172.133 131.385 170.864C129.751 168.834 127.995 166.804 126.31 164.906C125.366 163.83 124.412 162.744 123.479 161.658C122.928 160.914 122.142 160.377 121.249 160.134C120.356 159.891 119.408 159.956 118.556 160.318C112.139 162.707 106.122 166.057 100.712 170.255C100.055 170.951 99.6914 171.875 99.6971 172.833C99.719 174.298 99.9584 175.752 100.408 177.146C101.006 179.176 101.646 181.288 102.275 183.287C102.783 184.931 103.29 186.576 103.777 188.23C104.117 189.133 104.227 190.106 104.095 191.061C103.964 192.016 103.597 192.924 103.026 193.701C100.286 197.122 97.0175 201.151 93.4752 205.1C92.4417 205.995 91.1367 206.517 89.7704 206.581C88.4596 206.666 87.1436 206.619 85.8424 206.439L84.6142 206.328C83.5383 206.246 82.4624 206.135 81.3865 206.033C79.3565 205.83 77.2656 205.627 75.2052 205.566C74.0061 205.495 72.8195 205.844 71.8503 206.553C70.8811 207.263 70.1902 208.289 69.8967 209.454C69.2674 211.352 68.6178 213.402 68.0596 215.544C67.3085 218.335 66.6081 221.126 65.8976 223.928L65.0349 227.328L65.1364 228.556C66.0803 230.799 68.1814 231.916 70.2926 233.083C72.4038 234.25 74.3526 235.225 76.2811 236.27L80.4629 238.473C81.2499 238.884 81.9214 239.486 82.416 240.224C82.9107 240.961 83.2128 241.811 83.2947 242.695C83.4842 244.143 83.6669 245.595 83.8428 247.049C84.127 249.394 84.4214 251.82 84.7766 254.154C85.1141 255.919 84.93 257.744 84.2468 259.406C83.5636 261.068 82.411 262.495 80.9298 263.513C78.372 265.462 75.733 267.664 72.5966 270.455C70.2621 272.556 69.9475 274.119 71.2771 276.819C73.2462 280.747 75.8751 285.954 78.8084 291.029C81.0414 294.937 82.3203 295.445 86.8675 294.227C86.9399 294.211 87.0111 294.191 87.0807 294.166L87.2532 294.105L90.4809 293.09C92.9068 292.339 95.424 291.557 97.8803 290.735C98.7357 290.437 99.6338 290.279 100.54 290.268ZM152.203 279.002C142.911 278.968 133.971 275.444 127.154 269.13C120.338 262.815 116.142 254.17 115.399 244.908C115.013 240.059 115.596 235.182 117.113 230.56C118.631 225.939 121.054 221.666 124.24 217.99C130.695 210.449 139.932 205.546 148.945 204.876C169.895 203.303 187.515 218.305 189.21 238.99C190.438 247.679 187.495 257.453 181.313 265.157C178.124 269.135 174.145 272.408 169.627 274.772C165.11 277.135 160.152 278.538 155.065 278.89C154.101 278.961 153.147 279.002 152.203 279.002ZM151.929 205.78C150.914 205.78 150.001 205.78 149.016 205.881C140.267 206.541 131.294 211.311 125.001 218.65C121.904 222.225 119.549 226.381 118.073 230.875C116.597 235.369 116.03 240.111 116.404 244.827C116.999 252.022 119.737 258.875 124.264 264.499C128.791 270.124 134.899 274.263 141.802 276.383C148.704 278.502 156.083 278.504 162.986 276.389C169.89 274.275 176.001 270.139 180.532 264.518C186.53 257.027 189.403 247.537 188.205 239.143C187.544 230.008 183.422 221.469 176.681 215.27C169.94 209.07 161.087 205.676 151.929 205.78Z"
    fill="#231F20" />
  <path
    d="M277.322 367.347C275.069 367.063 274.277 365.561 273.942 363.51C273.705 361.696 273.321 359.904 272.795 358.151C272.485 357.218 271.851 356.426 271.009 355.918C268.725 354.827 266.384 353.861 263.995 353.025C263.326 352.854 262.617 352.949 262.016 353.289C260.311 354.254 258.707 355.38 257.053 356.426C254.342 358.151 253.145 358.121 250.871 355.878C248.973 354.01 247.288 351.929 245.461 349.991C245.06 349.617 244.813 349.106 244.77 348.559C244.727 348.012 244.89 347.469 245.228 347.037C246.141 345.545 247.004 343.992 248.06 342.622C248.879 341.647 249.387 340.449 249.519 339.183C249.651 337.916 249.401 336.64 248.801 335.517C245.837 329.021 246.771 329.792 240.122 328.534C236.123 327.772 235.585 327.376 235.423 323.337C235.321 320.88 235.423 318.414 235.545 315.958C235.491 315.255 235.713 314.558 236.164 314.016C236.615 313.474 237.259 313.129 237.96 313.055C239.747 312.628 241.553 312.334 243.36 312.04C244.297 311.919 245.185 311.55 245.933 310.972C246.68 310.394 247.26 309.628 247.613 308.751C248.232 307.3 248.872 305.858 249.46 304.387C249.773 303.656 249.896 302.857 249.818 302.066C249.74 301.274 249.464 300.516 249.014 299.86C247.806 297.921 246.679 295.922 245.492 293.973C245.167 293.527 245.02 292.976 245.08 292.428C245.14 291.88 245.403 291.374 245.817 291.009C248.263 288.614 250.709 286.238 253.256 283.975C253.561 283.797 253.901 283.69 254.252 283.66C254.603 283.63 254.956 283.679 255.286 283.802C256.447 284.359 257.557 285.014 258.605 285.761C259.519 286.34 260.392 286.979 261.305 287.568C261.932 287.99 262.652 288.255 263.403 288.34C264.154 288.424 264.914 288.327 265.619 288.055C267.649 287.304 269.628 286.441 271.597 285.558C272.205 285.274 272.728 284.838 273.118 284.292C273.507 283.746 273.749 283.109 273.82 282.442C274.216 280.321 274.764 278.23 275.251 276.119C275.326 275.659 275.566 275.243 275.928 274.949C276.289 274.655 276.745 274.504 277.21 274.525C280.58 274.454 283.95 274.444 287.36 274.414C287.972 274.385 288.572 274.594 289.033 274.997C289.495 275.4 289.783 275.965 289.837 276.576C290.263 278.524 290.761 280.473 291.085 282.432C291.16 283.262 291.468 284.053 291.972 284.716C292.477 285.378 293.158 285.885 293.938 286.178C295.968 287 297.998 287.954 300.028 288.705C300.686 288.892 301.391 288.819 301.997 288.502C304.027 287.375 305.874 286.066 307.843 284.899C310.178 283.508 310.543 283.498 312.563 285.325C314.455 287.024 316.254 288.823 317.953 290.715C319.546 292.491 319.577 293.76 318.328 295.79C317.191 297.678 315.973 299.515 314.765 301.362C314.505 301.716 314.345 302.134 314.3 302.571C314.256 303.008 314.329 303.449 314.512 303.849C315.476 306.102 316.359 308.396 317.455 310.588C317.891 311.318 318.582 311.86 319.394 312.111C321.099 312.618 322.885 312.882 324.641 313.227C327.778 313.857 328.772 314.933 328.864 318.12C328.935 320.363 328.915 322.626 328.864 324.869C328.783 327.346 327.96 328.259 325.504 328.787C323.829 329.132 322.144 329.427 320.429 329.731C319.596 329.831 318.805 330.15 318.135 330.654C317.464 331.159 316.939 331.831 316.613 332.604C315.72 334.705 314.826 336.816 314.096 338.978C313.926 339.686 314.027 340.432 314.38 341.069C315.446 342.947 316.724 344.713 317.821 346.58C319.13 348.834 319.12 349.382 317.364 351.33C315.634 353.249 313.805 355.075 311.883 356.801C310.015 358.476 309.467 358.476 307.325 357.207C305.722 356.253 304.152 355.238 302.616 354.162C301.929 353.617 301.101 353.28 300.229 353.19C299.356 353.1 298.477 353.261 297.693 353.655C296.221 354.335 294.719 354.954 293.247 355.685C292.465 356.037 291.784 356.582 291.269 357.269C290.754 357.956 290.422 358.763 290.304 359.613C290.121 360.679 289.969 361.754 289.776 362.82C289.36 365.124 288.954 367.438 285.797 367.347H277.322ZM282.559 339.546C285.488 339.82 288.431 339.205 291.004 337.78C300.901 332.015 303.834 320.657 299.053 311.735C297.651 309.011 295.616 306.663 293.12 304.887C290.623 303.111 287.738 301.958 284.705 301.526C281.672 301.093 278.579 301.394 275.686 302.402C272.793 303.41 270.183 305.096 268.075 307.32C263.417 312.182 262.462 318.018 263.193 324.352C263.302 325.674 263.646 326.966 264.208 328.168C267.943 335.486 273.414 340.074 282.559 339.546Z"
    fill="white" />
  <path
    d="M285.97 367.854H277.231C274.338 367.479 273.668 365.236 273.415 363.581C273.172 361.795 272.792 360.031 272.278 358.303C272.015 357.5 271.475 356.817 270.755 356.375C268.492 355.282 266.168 354.323 263.792 353.502C263.262 353.379 262.704 353.459 262.229 353.726C261.103 354.365 259.976 355.106 258.9 355.817L257.296 356.832C254.343 358.709 252.881 358.577 250.486 356.223C249.329 355.076 248.232 353.847 247.177 352.65C246.487 351.868 245.786 351.076 245.066 350.315C244.585 349.863 244.288 349.25 244.232 348.592C244.176 347.935 244.364 347.28 244.761 346.753L245.431 345.656C246.104 344.499 246.835 343.378 247.623 342.297C248.385 341.398 248.858 340.29 248.979 339.118C249.101 337.947 248.865 336.765 248.304 335.73C248.029 335.131 247.786 334.583 247.573 334.096C245.786 330.036 245.786 330.036 241.655 329.345L240.001 329.041C235.941 328.259 235.068 327.731 234.926 323.367C234.824 320.88 234.926 318.292 235.048 315.947C235 315.132 235.264 314.33 235.786 313.702C236.308 313.075 237.049 312.669 237.859 312.567C239.443 312.192 241.067 311.918 242.64 311.654L243.289 311.542C244.142 311.435 244.95 311.102 245.63 310.577C246.31 310.053 246.837 309.355 247.157 308.558L247.4 308C247.938 306.741 248.486 305.473 249.004 304.204C249.283 303.547 249.392 302.831 249.321 302.122C249.25 301.412 249.001 300.732 248.598 300.144C247.908 299.037 247.238 297.911 246.568 296.784C246.071 295.942 245.553 295.089 245.056 294.257C244.668 293.713 244.496 293.044 244.573 292.38C244.65 291.717 244.97 291.105 245.472 290.664C247.695 288.492 250.283 285.964 252.922 283.62C253.3 283.37 253.733 283.215 254.183 283.169C254.634 283.123 255.089 283.187 255.51 283.356C256.45 283.78 257.347 284.294 258.19 284.888L258.91 285.355C259.377 285.65 259.824 285.964 260.281 286.269C260.737 286.573 261.153 286.878 261.61 287.162C262.171 287.542 262.816 287.781 263.489 287.859C264.162 287.937 264.844 287.851 265.477 287.609C267.375 286.898 269.233 286.096 271.425 285.112C271.957 284.861 272.414 284.477 272.752 283.996C273.09 283.516 273.297 282.956 273.354 282.371C273.628 280.869 273.993 279.326 274.369 277.915C274.521 277.286 274.673 276.657 274.815 276.027C274.908 275.45 275.208 274.927 275.657 274.553C276.107 274.18 276.677 273.983 277.261 273.997C279.779 273.947 282.336 273.926 284.813 273.906H287.371C288.102 273.869 288.819 274.115 289.373 274.593C289.927 275.072 290.275 275.745 290.345 276.474C290.456 276.961 290.568 277.489 290.69 277.956C291.015 279.387 291.36 280.869 291.603 282.351C291.664 283.095 291.935 283.807 292.387 284.403C292.838 284.998 293.45 285.452 294.151 285.71C294.983 286.045 295.816 286.411 296.648 286.725C297.815 287.223 299.033 287.74 300.241 288.187C300.761 288.33 301.315 288.272 301.794 288.025C302.88 287.406 303.966 286.715 305.012 285.995C305.874 285.447 306.737 284.888 307.62 284.371C310.188 282.848 310.787 282.909 312.949 284.858C314.846 286.576 316.655 288.388 318.369 290.288C320.084 292.196 320.196 293.688 318.805 295.992C317.79 297.667 316.715 299.322 315.659 300.925L315.233 301.585C315.012 301.87 314.875 302.211 314.835 302.569C314.796 302.927 314.856 303.289 315.009 303.615C315.304 304.295 315.588 304.965 315.862 305.645C316.512 307.198 317.181 308.812 317.892 310.324C318.265 310.931 318.846 311.382 319.526 311.593C320.796 311.946 322.083 312.234 323.383 312.456L324.723 312.709C328.133 313.379 329.26 314.679 329.361 318.069C329.422 320.231 329.422 322.504 329.361 324.859C329.27 327.569 328.346 328.675 325.596 329.244C324.114 329.558 322.551 329.833 321.13 330.086L320.551 330.198C319.799 330.28 319.083 330.563 318.478 331.016C317.873 331.47 317.4 332.078 317.11 332.776C316.156 335.009 315.314 337.039 314.603 339.11C314.482 339.682 314.568 340.28 314.847 340.795C315.405 341.81 316.034 342.733 316.643 343.677C317.252 344.621 317.76 345.403 318.288 346.296C319.729 348.762 319.648 349.564 317.77 351.645C316.027 353.574 314.184 355.41 312.249 357.146C310.219 358.943 309.478 359.014 307.102 357.613C305.499 356.659 303.905 355.583 302.352 354.568C301.741 354.07 300.998 353.761 300.214 353.678C299.43 353.595 298.639 353.742 297.937 354.101C297.237 354.426 296.546 354.73 295.846 355.035C295.146 355.339 294.273 355.725 293.491 356.05C292.778 356.363 292.158 356.856 291.692 357.481C291.226 358.105 290.929 358.84 290.832 359.613C290.741 360.14 290.659 360.628 290.568 361.206C290.477 361.785 290.396 362.282 290.304 362.82C289.878 365.124 289.381 367.854 285.97 367.854ZM277.333 366.839H285.798C288.386 366.931 288.843 365.327 289.279 362.779C289.37 362.242 289.462 361.704 289.543 361.176C289.624 360.648 289.716 360.1 289.807 359.562C289.938 358.629 290.304 357.745 290.87 356.992C291.437 356.239 292.185 355.643 293.045 355.258C293.826 354.893 294.618 354.548 295.41 354.243L297.44 353.32C298.303 352.884 299.273 352.704 300.235 352.802C301.197 352.899 302.111 353.269 302.87 353.868C304.392 354.954 305.966 355.979 307.549 356.913C309.579 358.09 309.833 358.06 311.508 356.557C313.414 354.846 315.229 353.037 316.948 351.137C318.531 349.381 318.562 349.107 317.344 346.976C316.836 346.103 316.268 345.24 315.72 344.398C315.172 343.555 314.471 342.469 313.903 341.464C313.473 340.703 313.357 339.804 313.578 338.957C314.289 336.846 315.141 334.806 316.106 332.553C316.461 331.7 317.036 330.957 317.773 330.399C318.509 329.841 319.38 329.488 320.297 329.376L320.876 329.264C322.338 329.01 323.85 328.746 325.322 328.432C327.565 327.955 328.204 327.214 328.275 324.991C328.346 322.768 328.367 320.403 328.275 318.272C328.194 315.359 327.402 314.455 324.459 313.867L323.129 313.623C321.791 313.398 320.466 313.1 319.161 312.73C318.213 312.446 317.411 311.811 316.918 310.954C316.146 309.401 315.466 307.777 314.816 306.203L313.964 304.173C313.748 303.697 313.662 303.172 313.713 302.652C313.765 302.132 313.953 301.634 314.258 301.21L314.695 300.54C315.71 298.946 316.816 297.302 317.821 295.647C318.988 293.719 318.907 292.714 317.496 291.131C315.806 289.257 314.02 287.472 312.147 285.782C310.32 284.127 310.198 284.117 308.016 285.416C307.143 285.934 306.29 286.431 305.438 287.02C304.372 287.7 303.276 288.39 302.17 289.05C301.432 289.437 300.573 289.52 299.774 289.283C298.536 288.837 297.308 288.268 296.13 287.791C295.308 287.436 294.486 287.081 293.654 286.776C292.792 286.453 292.038 285.895 291.478 285.165C290.918 284.434 290.575 283.561 290.487 282.645C290.243 281.194 289.908 279.722 289.584 278.301C289.462 277.804 289.35 277.286 289.238 276.809C288.964 275.591 288.366 275.043 287.29 275.043H284.732C282.225 275.043 279.708 275.043 277.201 275.134C276.845 275.11 276.494 275.221 276.217 275.445C275.941 275.669 275.759 275.99 275.709 276.342C275.566 276.971 275.414 277.601 275.262 278.23C274.917 279.671 274.562 281.163 274.247 282.645C274.161 283.391 273.884 284.102 273.443 284.71C273.002 285.318 272.412 285.803 271.73 286.116C269.517 287.131 267.67 287.913 265.721 288.634C264.942 288.932 264.104 289.038 263.275 288.945C262.447 288.851 261.653 288.56 260.961 288.096C260.504 287.801 260.057 287.497 259.611 287.182C259.164 286.868 258.717 286.573 258.261 286.289L257.54 285.812C256.744 285.257 255.902 284.772 255.023 284.361C254.776 284.273 254.514 284.235 254.252 284.251C253.991 284.267 253.735 284.335 253.5 284.452C250.871 286.786 248.283 289.304 246.071 291.466C245.736 291.75 245.524 292.151 245.477 292.587C245.43 293.023 245.551 293.461 245.817 293.81C246.334 294.653 246.832 295.505 247.339 296.348C247.999 297.474 248.659 298.591 249.369 299.697C249.862 300.42 250.165 301.256 250.25 302.127C250.335 302.998 250.2 303.876 249.856 304.681C249.339 305.96 248.841 307.228 248.243 308.497L247.999 309.055C247.614 310.009 246.983 310.843 246.169 311.473C245.356 312.102 244.39 312.505 243.371 312.638L242.731 312.75C241.168 313.014 239.564 313.288 238.011 313.653C237.717 313.679 237.43 313.763 237.168 313.9C236.906 314.037 236.674 314.225 236.485 314.452C236.296 314.68 236.154 314.943 236.068 315.225C235.982 315.508 235.952 315.805 235.981 316.1C235.86 318.566 235.758 320.982 235.86 323.428C236.012 327.234 236.428 327.488 240.143 328.148L241.797 328.452C246.365 329.274 246.487 329.366 248.456 333.791L249.187 335.415C249.824 336.617 250.088 337.981 249.945 339.334C249.802 340.686 249.259 341.965 248.385 343.007C247.613 344.022 246.923 345.179 246.253 346.276L245.583 347.382C245.324 347.73 245.209 348.163 245.26 348.594C245.311 349.024 245.524 349.419 245.857 349.696C246.578 350.467 247.289 351.259 247.989 352.051C249.004 353.228 250.11 354.456 251.247 355.573C253.277 357.603 254.292 357.684 256.809 356.05C257.337 355.718 257.865 355.38 258.393 355.035C259.489 354.324 260.626 353.573 261.783 352.914C262.516 352.507 263.379 352.401 264.188 352.619C266.61 353.459 268.982 354.435 271.293 355.542C272.257 356.103 272.98 356.999 273.323 358.06C273.854 359.84 274.244 361.659 274.491 363.5C274.744 365.621 275.597 366.616 277.322 366.85L277.333 366.839ZM283.829 340.114H282.56C274.054 340.551 268.076 336.856 263.772 328.462C263.177 327.204 262.81 325.85 262.686 324.463C261.833 317.033 263.427 311.491 267.71 307.036C269.85 304.766 272.501 303.04 275.442 302.002C278.383 300.964 281.53 300.643 284.62 301.067C287.758 301.501 290.747 302.68 293.336 304.506C295.925 306.332 298.038 308.752 299.5 311.563C304.575 321.083 301.053 332.573 291.258 338.277C288.994 339.553 286.427 340.191 283.829 340.125V340.114ZM282.56 339.099C285.376 339.367 288.206 338.776 290.68 337.404C299.997 331.974 303.377 321.073 298.546 312.029C297.159 309.36 295.152 307.062 292.693 305.328C290.235 303.594 287.397 302.474 284.417 302.062C281.485 301.658 278.498 301.962 275.706 302.947C272.915 303.932 270.4 305.571 268.37 307.726C264.31 311.948 262.808 317.226 263.62 324.341C263.736 325.61 264.08 326.848 264.635 327.995C268.695 335.994 274.409 339.526 282.489 339.089L282.56 339.099Z"
    fill="#231F20" />
  <path
    d="M193.93 350.315C194.005 350.052 194.107 349.797 194.235 349.554C194.515 349.12 194.835 348.712 195.189 348.336C195.997 347.639 196.525 346.673 196.674 345.616C196.823 344.56 196.584 343.485 196.001 342.591C195.504 341.907 194.85 341.353 194.093 340.977C193.329 340.592 192.542 340.253 191.738 339.962C191.487 339.879 191.275 339.707 191.141 339.48C191.007 339.252 190.959 338.984 191.007 338.724C191.22 337.222 191.413 335.679 191.707 334.217C191.781 334.03 191.896 333.862 192.044 333.725C192.191 333.588 192.368 333.486 192.56 333.426C193.227 333.283 193.908 333.215 194.59 333.223C195.309 333.223 196.015 333.036 196.64 332.68C197.265 332.324 197.786 331.811 198.153 331.193C199.269 329.559 199.584 328.148 198.487 326.3C197.168 324.047 197.381 323.824 199.502 322.24C200.254 321.652 201.055 321.144 201.817 320.576C201.901 320.498 202 320.438 202.107 320.399C202.215 320.361 202.329 320.343 202.443 320.349C202.558 320.355 202.67 320.383 202.773 320.432C202.876 320.482 202.969 320.551 203.045 320.637C203.857 321.327 204.689 321.997 205.501 322.667C205.802 322.939 206.163 323.135 206.555 323.239C206.947 323.343 207.358 323.352 207.754 323.266C208.313 323.154 208.871 323.002 209.439 322.88C210.123 322.762 210.756 322.442 211.255 321.961C211.755 321.479 212.098 320.859 212.241 320.18C213.185 316.82 213.814 317.328 216.199 317.724C217.021 317.866 217.833 318.089 218.645 318.241C218.936 318.259 219.21 318.386 219.411 318.597C219.612 318.808 219.727 319.087 219.731 319.378C219.823 320.464 219.995 321.55 220.056 322.636C220.053 322.933 220.129 323.225 220.277 323.483C220.425 323.74 220.64 323.952 220.899 324.098C224.34 326.26 223.944 326.29 227.466 324.636C228.734 324.047 229.14 324.118 230.023 325.174C230.907 326.229 231.526 327.133 232.267 328.127C232.476 328.348 232.592 328.64 232.592 328.945C232.592 329.249 232.476 329.541 232.267 329.762C231.444 330.777 230.612 331.792 229.841 332.807C229.636 333.103 229.546 333.464 229.587 333.822C229.77 334.755 230.054 335.659 230.298 336.572C230.409 337.022 230.64 337.433 230.964 337.764C231.289 338.094 231.697 338.331 232.145 338.45C233.027 338.69 233.878 339.03 234.682 339.465C234.886 339.603 235.056 339.785 235.179 339.997C235.302 340.21 235.375 340.448 235.393 340.693C235.308 342.097 235.152 343.497 234.926 344.885C234.892 345.267 234.709 345.62 234.416 345.867C234.124 346.114 233.745 346.236 233.363 346.205C233.163 346.215 232.963 346.215 232.764 346.205C230.196 346.012 228.613 347.341 227.537 349.524C227.315 349.911 227.187 350.345 227.162 350.791C227.138 351.237 227.217 351.682 227.395 352.092C227.73 352.863 228.054 353.624 228.41 354.385C228.611 354.719 228.674 355.118 228.585 355.498C228.495 355.877 228.261 356.206 227.933 356.415C226.863 357.194 225.808 357.985 224.766 358.791C224.649 358.899 224.512 358.983 224.362 359.037C224.212 359.091 224.053 359.115 223.894 359.107C223.735 359.098 223.579 359.058 223.436 358.988C223.293 358.918 223.165 358.82 223.061 358.699C222.35 358.07 221.609 357.471 220.909 356.821C220.637 356.54 220.297 356.334 219.922 356.222C219.547 356.11 219.149 356.096 218.767 356.182C217.836 356.353 216.919 356.597 216.027 356.913C215.535 357.133 215.131 357.512 214.88 357.989C214.53 358.711 214.261 359.47 214.078 360.252C214.007 360.743 213.749 361.188 213.357 361.493C212.965 361.798 212.47 361.939 211.977 361.886C210.586 361.734 209.206 361.43 207.815 361.196C207.527 361.156 207.263 361.01 207.076 360.787C206.888 360.564 206.79 360.28 206.8 359.988C206.739 359.329 206.709 358.669 206.658 358.009C206.648 357.607 206.608 357.207 206.536 356.811C206.009 354.781 202.426 353.117 200.538 354.051C199.817 354.406 199.127 354.832 198.376 355.137C198.211 355.197 198.036 355.222 197.861 355.21C197.686 355.198 197.515 355.149 197.361 355.066C195.947 353.917 194.835 352.439 194.123 350.762C194.047 350.618 193.982 350.469 193.93 350.315ZM213.449 348.773C215.821 348.743 218.087 347.785 219.761 346.104C221.435 344.423 222.382 342.152 222.401 339.78C222.414 338.568 222.188 337.365 221.736 336.24C221.284 335.116 220.615 334.091 219.766 333.226C218.918 332.36 217.907 331.671 216.791 331.196C215.676 330.722 214.478 330.473 213.266 330.462C210.824 330.518 208.5 331.527 206.793 333.274C205.086 335.021 204.13 337.367 204.131 339.81C204.153 341.011 204.412 342.195 204.893 343.295C205.373 344.396 206.066 345.391 206.932 346.223C207.797 347.056 208.818 347.709 209.936 348.147C211.054 348.584 212.248 348.797 213.449 348.773Z"
    fill="#D1D3D4" />
  <path
    d="M212.159 362.414H211.865C210.85 362.303 209.835 362.12 208.911 361.937L207.673 361.714C207.28 361.649 206.922 361.445 206.666 361.14C206.409 360.835 206.269 360.448 206.272 360.049C206.272 359.653 206.211 359.258 206.181 358.862L206.11 357.725C206.103 357.462 206.072 357.201 206.019 356.943C205.558 355.988 204.78 355.223 203.816 354.781C202.853 354.338 201.765 354.245 200.741 354.518L199.989 354.903C199.525 355.17 199.043 355.408 198.548 355.614C198.299 355.712 198.031 355.75 197.765 355.725C197.499 355.701 197.242 355.614 197.016 355.472C195.532 354.276 194.367 352.731 193.625 350.975C193.583 350.852 193.549 350.727 193.524 350.6V350.437C193.493 350.338 193.493 350.232 193.524 350.133C193.524 350.072 193.524 350.001 193.595 349.93C193.659 349.698 193.754 349.476 193.879 349.27C194.179 348.811 194.519 348.38 194.894 347.981C195.629 347.366 196.11 346.503 196.247 345.555C196.384 344.607 196.166 343.642 195.635 342.845C195.183 342.247 194.6 341.761 193.93 341.424C193.44 341.145 192.927 340.907 192.397 340.714L191.595 340.379C191.248 340.244 190.958 339.994 190.773 339.67C190.588 339.347 190.52 338.97 190.58 338.602L190.702 337.79C190.865 336.562 191.047 335.304 191.291 334.065C191.383 333.783 191.544 333.528 191.758 333.323C191.972 333.118 192.233 332.968 192.519 332.888C193.229 332.731 193.954 332.656 194.681 332.665C195.32 332.665 195.948 332.496 196.5 332.175C197.053 331.854 197.511 331.393 197.828 330.838C198.964 329.183 199.056 328.046 198.152 326.493C196.701 324.017 196.995 323.499 199.259 321.733C199.695 321.388 200.142 321.073 200.598 320.718L201.613 320.008C201.879 319.786 202.219 319.672 202.565 319.689C202.911 319.706 203.238 319.852 203.481 320.099C203.928 320.485 204.374 320.85 204.831 321.226L205.927 322.139C206.169 322.362 206.462 322.524 206.781 322.608C207.099 322.693 207.433 322.699 207.754 322.626L208.617 322.433C208.891 322.373 209.155 322.301 209.429 322.251C210.023 322.154 210.573 321.877 211.005 321.458C211.437 321.039 211.73 320.497 211.845 319.906C212.758 316.699 213.54 316.557 215.732 316.973L216.382 317.084C216.869 317.166 217.397 317.277 217.823 317.379C218.249 317.48 218.503 317.541 218.838 317.602C219.237 317.641 219.607 317.825 219.88 318.119C220.153 318.412 220.309 318.795 220.32 319.196C220.32 319.652 220.411 320.099 220.472 320.556C220.543 321.195 220.614 321.824 220.655 322.464C220.654 322.672 220.711 322.877 220.818 323.056C220.926 323.235 221.08 323.381 221.264 323.479L221.853 323.844C224.329 325.418 224.329 325.418 226.988 324.159L227.344 323.986C228.815 323.296 229.465 323.428 230.5 324.646C231.079 325.326 231.607 326.047 232.114 326.737C232.327 327.042 232.541 327.336 232.764 327.63C233.038 327.946 233.185 328.353 233.175 328.772C233.166 329.19 233.001 329.59 232.713 329.894L232.591 330.036C231.83 330.97 231.038 331.924 230.308 332.908C230.181 333.1 230.124 333.329 230.145 333.558C230.277 334.228 230.47 334.918 230.663 335.588L230.856 336.278C230.94 336.648 231.127 336.986 231.394 337.255C231.661 337.525 231.999 337.713 232.368 337.801C233.283 338.073 234.165 338.448 234.997 338.917C235.288 339.097 235.532 339.344 235.708 339.637C235.885 339.93 235.989 340.261 236.012 340.602C235.951 341.982 235.758 343.342 235.545 344.855C235.494 345.35 235.255 345.807 234.877 346.131C234.5 346.456 234.012 346.624 233.515 346.601H233.312C233.163 346.611 233.014 346.611 232.865 346.601C230.724 346.438 229.242 347.413 228.135 349.646C227.945 349.964 227.833 350.324 227.81 350.695C227.787 351.066 227.853 351.437 228.003 351.777L228.278 352.437C228.521 352.975 228.755 353.523 228.998 354.071C229.242 354.514 229.312 355.033 229.194 355.524C229.075 356.016 228.778 356.446 228.359 356.73C227.29 357.515 226.234 358.307 225.192 359.105C224.862 359.394 224.433 359.543 223.995 359.52C223.557 359.497 223.145 359.305 222.847 358.984L221.964 358.222C221.528 357.857 221.101 357.492 220.685 357.106C220.473 356.881 220.206 356.715 219.911 356.625C219.616 356.534 219.302 356.521 219 356.588L218.564 356.68C217.805 356.824 217.058 357.027 216.331 357.289C215.957 357.469 215.651 357.764 215.458 358.131C215.124 358.822 214.865 359.547 214.687 360.293C214.611 360.9 214.308 361.456 213.839 361.849C213.371 362.243 212.77 362.445 212.159 362.414ZM201.756 353.279C202.595 353.297 203.421 353.491 204.181 353.848C204.821 354.094 205.399 354.476 205.877 354.966C206.355 355.457 206.722 356.044 206.952 356.69C207.025 357.023 207.066 357.363 207.074 357.705L207.145 358.831C207.145 359.217 207.145 359.603 207.237 359.988C207.328 360.374 207.511 360.679 207.846 360.74L209.094 360.963C210.038 361.135 211.012 361.318 211.977 361.42C212.941 361.521 213.347 360.79 213.519 360.161C213.727 359.351 214.02 358.565 214.392 357.816C214.698 357.228 215.196 356.763 215.803 356.497C216.578 356.212 217.376 355.995 218.188 355.847L218.625 355.746C219.086 355.643 219.566 355.66 220.019 355.795C220.472 355.93 220.883 356.178 221.213 356.517L222.451 357.603C222.756 357.857 223.06 358.111 223.355 358.375C223.649 358.638 224.025 358.75 224.37 358.456C225.385 357.644 226.481 356.842 227.557 356.06C227.672 355.989 227.772 355.895 227.851 355.785C227.929 355.674 227.985 355.549 228.014 355.416C228.044 355.284 228.046 355.147 228.022 355.013C227.997 354.88 227.946 354.753 227.872 354.639C227.618 354.091 227.384 353.543 227.151 352.985L226.867 352.335C226.653 351.851 226.556 351.323 226.582 350.795C226.609 350.266 226.758 349.751 227.019 349.29C228.318 346.682 230.196 345.504 232.744 345.697C232.838 345.707 232.933 345.707 233.028 345.697H233.292C233.421 345.714 233.552 345.704 233.678 345.669C233.803 345.633 233.92 345.571 234.021 345.489C234.122 345.406 234.204 345.303 234.264 345.187C234.324 345.071 234.359 344.944 234.368 344.814C234.581 343.342 234.763 342.003 234.824 340.673C234.803 340.52 234.75 340.372 234.67 340.239C234.59 340.107 234.483 339.992 234.357 339.902C233.588 339.476 232.775 339.135 231.932 338.887C231.403 338.748 230.921 338.469 230.537 338.08C230.153 337.69 229.881 337.205 229.749 336.674L229.556 335.984C229.364 335.304 229.171 334.593 229.029 333.872C228.949 333.365 229.073 332.847 229.374 332.431C230.115 331.416 230.917 330.462 231.688 329.528L231.81 329.376C231.88 329.311 231.936 329.233 231.974 329.146C232.012 329.058 232.032 328.964 232.032 328.869C232.032 328.773 232.012 328.679 231.974 328.591C231.936 328.504 231.88 328.426 231.81 328.361C231.586 328.067 231.363 327.762 231.15 327.458C230.653 326.778 230.135 326.077 229.587 325.428C228.856 324.565 228.694 324.524 227.638 325.032L227.283 325.194C224.238 326.656 224.035 326.646 221.193 324.829L220.604 324.453C220.279 324.267 220.008 323.998 219.819 323.673C219.63 323.349 219.53 322.981 219.528 322.606C219.528 321.977 219.417 321.368 219.346 320.749C219.346 320.282 219.244 319.815 219.203 319.348C219.163 318.881 218.99 318.759 218.534 318.668C218.077 318.576 217.823 318.526 217.519 318.444C217.214 318.363 216.605 318.231 216.138 318.16L215.468 318.038C213.702 317.714 213.438 317.673 212.748 320.251C212.577 321.017 212.183 321.715 211.616 322.257C211.049 322.799 210.334 323.16 209.561 323.296L208.769 323.479L207.876 323.682C207.406 323.785 206.918 323.776 206.452 323.654C205.986 323.532 205.556 323.302 205.196 322.982L204.11 322.068C203.643 321.692 203.187 321.317 202.74 320.931C202.476 320.708 202.365 320.718 202.141 320.931L201.126 321.652C200.69 321.956 200.253 322.261 199.837 322.586C197.858 324.128 197.858 324.128 198.974 326.047C199.51 326.869 199.765 327.842 199.701 328.821C199.637 329.8 199.258 330.732 198.619 331.477C198.209 332.165 197.628 332.735 196.933 333.131C196.237 333.528 195.451 333.738 194.651 333.741C194.002 333.728 193.355 333.792 192.722 333.933C192.517 334.002 192.344 334.143 192.235 334.329C191.991 335.527 191.819 336.775 191.656 337.983L191.545 338.805C191.51 338.956 191.536 339.114 191.615 339.246C191.695 339.379 191.822 339.475 191.971 339.516L192.742 339.831C193.311 340.042 193.861 340.3 194.387 340.602C195.22 341.022 195.937 341.638 196.478 342.398C197.112 343.388 197.371 344.572 197.207 345.736C197.043 346.9 196.468 347.967 195.584 348.742C195.252 349.102 194.95 349.489 194.681 349.899C194.612 350.028 194.558 350.165 194.519 350.305V350.407C194.533 350.473 194.553 350.537 194.58 350.6C195.243 352.198 196.289 353.61 197.625 354.71C197.793 354.765 197.974 354.765 198.142 354.71C198.6 354.513 199.047 354.293 199.482 354.051L200.264 353.645C200.727 353.413 201.238 353.292 201.756 353.289V353.279ZM213.479 349.219C211.025 349.099 208.709 348.048 207.002 346.281C205.295 344.513 204.326 342.162 204.291 339.705C204.256 337.249 205.158 334.871 206.814 333.056C208.47 331.241 210.755 330.124 213.205 329.934H213.296C215.877 329.964 218.341 331.014 220.15 332.855C221.959 334.696 222.965 337.179 222.949 339.759C222.946 342.275 221.949 344.687 220.175 346.471C218.401 348.254 215.994 349.264 213.479 349.28V349.219ZM213.164 330.949C211.982 330.89 210.799 331.074 209.691 331.491C208.582 331.907 207.571 332.546 206.72 333.369C205.869 334.193 205.196 335.182 204.742 336.276C204.289 337.369 204.065 338.545 204.085 339.729C204.104 340.913 204.367 342.08 204.856 343.158C205.345 344.237 206.05 345.203 206.928 345.998C207.806 346.792 208.838 347.398 209.959 347.778C211.081 348.157 212.268 348.302 213.448 348.204C215.686 348.178 217.823 347.271 219.397 345.682C220.972 344.092 221.858 341.946 221.863 339.709C221.879 337.396 220.978 335.171 219.357 333.522C217.736 331.873 215.527 330.933 213.215 330.909L213.164 330.949Z"
    fill="#D1D3D4" />
  <path
    d="M286.924 271.145L301.033 283.721C301.033 283.721 321.018 264.213 319.617 261.939C318.217 259.666 303.885 268.577 303.885 268.577L295.186 259.158"
    fill="white" />
  <path
    d="M301.033 284.178C300.905 284.179 300.782 284.132 300.688 284.046L286.579 271.541C286.529 271.496 286.488 271.442 286.459 271.382C286.43 271.322 286.413 271.256 286.409 271.189C286.406 271.122 286.415 271.055 286.437 270.992C286.459 270.929 286.494 270.87 286.538 270.82C286.583 270.77 286.637 270.73 286.698 270.701C286.758 270.672 286.823 270.655 286.89 270.651C286.957 270.647 287.024 270.657 287.088 270.679C287.151 270.701 287.209 270.735 287.259 270.78L301.012 282.96C310.34 273.825 319.607 263.624 319.181 262.112C319.124 262.069 319.058 262.041 318.988 262.031C316.958 261.553 309.021 265.898 304.149 268.933C304.051 268.994 303.934 269.02 303.819 269.005C303.705 268.99 303.598 268.936 303.519 268.851L294.811 259.432C294.717 259.336 294.665 259.206 294.665 259.072C294.665 258.937 294.717 258.808 294.811 258.711C294.906 258.618 295.033 258.566 295.166 258.566C295.299 258.566 295.426 258.618 295.521 258.711L303.946 267.846C306.25 266.425 316.349 260.366 319.171 261.036C319.338 261.069 319.497 261.135 319.639 261.231C319.78 261.327 319.9 261.45 319.993 261.594C321.454 263.959 307.427 278.047 301.327 284.005C301.252 284.096 301.148 284.157 301.033 284.178Z"
    fill="#231F20" />
  <path
    d="M266.797 229.226C266.797 229.226 289.502 251.241 299.744 260.529L286.315 273.571C286.315 273.571 250.364 243.274 238.61 238.412L266.797 229.226Z"
    fill="black" />
  <path
    d="M286.315 274.028C286.197 274.034 286.081 273.994 285.991 273.916C285.625 273.612 249.958 243.619 238.418 238.838C238.323 238.798 238.242 238.73 238.188 238.643C238.133 238.556 238.107 238.454 238.113 238.351C238.118 238.249 238.154 238.151 238.215 238.069C238.277 237.988 238.361 237.927 238.458 237.894L266.635 228.759C266.722 228.73 266.816 228.727 266.906 228.748C266.995 228.77 267.077 228.816 267.142 228.881C267.376 229.094 289.919 250.937 300.079 260.163C300.132 260.209 300.174 260.265 300.204 260.328C300.234 260.391 300.25 260.459 300.251 260.529C300.251 260.666 300.196 260.797 300.099 260.894L286.661 273.886C286.616 273.933 286.563 273.969 286.503 273.994C286.444 274.018 286.38 274.03 286.315 274.028ZM240.011 238.503C252.191 244.39 282.469 269.694 286.285 272.901L299.003 260.59C289.208 251.658 268.989 232.109 266.665 229.855L240.011 238.503Z"
    fill="#231F20" />
  <path
    d="M201.431 208.987C201.715 209.799 199.756 237.975 213.174 241.893C226.593 245.811 251.541 241.893 251.541 241.893L246.872 265.735L263.173 268.192C263.173 268.192 279.119 228.231 275.16 224.943C268.147 219.106 226.907 205.495 226.907 205.495L201.431 208.987Z"
    fill="black" />
  <path
    d="M263.173 268.699H263.112L246.822 266.243C246.753 266.232 246.687 266.208 246.627 266.172C246.568 266.135 246.517 266.087 246.477 266.03C246.438 265.974 246.411 265.911 246.397 265.845C246.383 265.779 246.383 265.71 246.395 265.644L250.922 242.502C246.741 243.101 225.141 245.912 213.053 242.39C205.044 240.046 200.984 229.337 200.984 210.53C200.984 209.87 200.984 209.251 200.984 209.119C200.96 209.052 200.952 208.98 200.96 208.91C200.969 208.839 200.995 208.771 201.035 208.713C201.078 208.651 201.134 208.6 201.199 208.563C201.264 208.526 201.336 208.505 201.411 208.5L226.887 204.998C226.96 204.978 227.037 204.978 227.11 204.998C228.795 205.546 268.522 218.71 275.526 224.537C279.647 227.957 265.325 264.233 263.681 268.354C263.647 268.46 263.579 268.552 263.487 268.614C263.395 268.677 263.284 268.707 263.173 268.699ZM247.471 265.309L262.849 267.633C268.939 252.287 277.495 227.541 274.846 225.328C268.157 219.776 229.242 206.794 226.867 206.043L201.969 209.454C201.969 209.697 201.969 210.042 201.969 210.55C201.969 228.82 205.775 239.244 213.306 241.436C226.451 245.273 251.207 241.436 251.45 241.436C251.53 241.424 251.613 241.43 251.69 241.455C251.768 241.48 251.838 241.522 251.897 241.578C251.952 241.637 251.993 241.708 252.016 241.786C252.039 241.864 252.043 241.945 252.029 242.025L247.471 265.309Z"
    fill="#231F20" />
  <path
    d="M238.012 165.667L264.401 174.923L265.589 154.918C265.589 154.918 263.275 150.969 263.123 149.944C262.97 148.919 265.64 147.711 265.64 147.711C265.64 147.711 265.812 140.383 266.655 139.378C267.497 138.373 268.898 138.099 269.04 139.378C269.182 140.657 269.04 147.711 269.04 147.711C269.04 147.711 273.618 148.209 274.186 149.01C274.755 149.812 275.039 154.491 274.186 155.577C273.334 156.663 281.616 188.677 278.469 189.397C275.323 190.118 232.267 182.394 232.267 182.394"
    fill="white" />
  <path
    d="M277.86 189.864C271.578 189.864 233.84 183.115 232.185 182.82C232.065 182.798 231.958 182.729 231.887 182.628C231.817 182.528 231.789 182.403 231.81 182.282C231.82 182.222 231.841 182.164 231.874 182.112C231.907 182.06 231.949 182.016 231.999 181.981C232.05 181.946 232.106 181.921 232.166 181.908C232.226 181.896 232.288 181.895 232.348 181.907C244.305 184.048 275.891 189.479 278.368 188.91C279.931 188.555 276.785 172.833 275.435 166.113C273.669 157.273 273.405 155.75 273.821 155.263C274.511 154.38 274.278 149.914 273.821 149.244C273.547 148.899 271.344 148.392 269 148.138C268.885 148.125 268.779 148.071 268.702 147.984C268.625 147.898 268.583 147.786 268.583 147.671C268.583 147.6 268.725 140.647 268.583 139.399C268.583 139.033 268.38 138.993 268.33 138.972C268.071 138.963 267.814 139.019 267.583 139.136C267.352 139.253 267.155 139.428 267.01 139.642C266.564 140.19 266.208 144.169 266.127 147.691C266.127 147.777 266.102 147.861 266.055 147.933C266.008 148.005 265.942 148.062 265.863 148.097C264.655 148.676 263.6 149.528 263.65 149.884C264.304 151.556 265.113 153.163 266.066 154.685C266.112 154.761 266.134 154.849 266.127 154.938L264.929 174.954C264.925 175.025 264.904 175.094 264.869 175.155C264.834 175.217 264.785 175.269 264.726 175.309C264.667 175.348 264.6 175.374 264.53 175.385C264.46 175.395 264.388 175.39 264.32 175.37L237.88 166.103C237.78 166.052 237.702 165.966 237.66 165.861C237.619 165.757 237.616 165.641 237.653 165.535C237.69 165.429 237.764 165.339 237.862 165.283C237.959 165.227 238.074 165.209 238.184 165.23L264.046 174.284L265.193 154.999C264.747 154.238 262.889 151 262.737 149.985C262.585 148.97 264.341 147.803 265.203 147.356C265.203 145.641 265.467 140.028 266.289 139.023C266.541 138.656 266.89 138.366 267.297 138.187C267.704 138.007 268.153 137.946 268.594 138.008C268.851 138.094 269.077 138.257 269.24 138.475C269.403 138.692 269.496 138.954 269.507 139.226C269.629 140.363 269.507 145.641 269.507 147.194C271.101 147.387 273.983 147.833 274.582 148.635C275.282 149.65 275.597 154.512 274.582 155.74C274.46 156.288 275.435 161.14 276.379 165.829C279.606 181.968 280.692 189.235 278.601 189.712C278.362 189.795 278.113 189.846 277.86 189.864Z"
    fill="#231F20" />
  <path
    d="M233.139 136.546C232.132 134.949 230.688 133.674 228.978 132.872C227.486 132.293 226.481 132.74 225.06 133.014C224.492 133.126 224.248 133.917 223.659 133.968C223.071 134.019 222.076 133.237 221.467 133.085C208.607 129.817 205.004 146.392 197.401 152.786C192.407 156.948 185.871 159.587 182.501 165.139C181.463 166.854 180.786 168.763 180.51 170.749C180.234 172.735 180.366 174.756 180.897 176.69C181.745 179.338 183.088 181.801 184.856 183.947C186.875 186.648 189.323 189.001 192.103 190.91C201.116 196.888 213.712 195.914 222.654 189.895C235.271 181.298 239.767 165.981 238.407 151.548C238.011 146.169 236.193 140.992 233.139 136.546Z"
    fill="white" />
  <path
    d="M206.13 195.416C201.081 195.492 196.122 194.08 191.87 191.356C189.039 189.409 186.549 187.009 184.501 184.251C182.679 182.061 181.3 179.538 180.441 176.821C179.882 174.815 179.737 172.716 180.014 170.652C180.292 168.588 180.986 166.602 182.055 164.814C184.348 161.038 188.094 158.562 191.707 156.166C193.561 154.988 195.35 153.711 197.066 152.34C199.472 150.31 201.451 147.265 203.552 144.067C207.968 137.297 212.545 130.304 221.579 132.628C221.934 132.732 222.274 132.878 222.594 133.065C222.903 133.267 223.247 133.412 223.609 133.491C223.73 133.491 223.873 133.329 224.015 133.176C224.253 132.872 224.584 132.654 224.959 132.557L225.73 132.385C226.847 132.016 228.055 132.034 229.161 132.435C230.958 133.276 232.478 134.61 233.546 136.282C236.652 140.792 238.505 146.046 238.915 151.507C240.427 167.981 234.469 182.465 222.979 190.27C217.999 193.622 212.133 195.413 206.13 195.416ZM218.31 133.197C211.896 133.197 208.16 138.992 204.435 144.626C202.294 147.904 200.274 151 197.757 153.111C196.011 154.508 194.192 155.809 192.306 157.009C188.622 159.455 185.14 161.759 182.958 165.342C181.967 167.005 181.322 168.851 181.062 170.77C180.802 172.688 180.933 174.64 181.446 176.507C182.277 179.099 183.592 181.51 185.323 183.612C187.3 186.269 189.7 188.584 192.428 190.463C200.883 196.076 213.215 195.64 222.411 189.397C233.576 181.805 239.382 167.656 237.91 151.558C237.51 146.284 235.72 141.209 232.723 136.851C231.766 135.34 230.405 134.128 228.795 133.349C227.875 133.03 226.874 133.03 225.953 133.349C225.7 133.41 225.436 133.471 225.151 133.522C225.04 133.522 224.898 133.694 224.756 133.846C224.506 134.175 224.145 134.403 223.741 134.486C223.158 134.462 222.594 134.272 222.117 133.938C221.879 133.793 221.628 133.674 221.366 133.582C220.357 133.328 219.32 133.202 218.28 133.207L218.31 133.197Z"
    fill="#231F20" />
  <path
    d="M199.168 162.733C199.716 162.043 230.389 156.806 237.971 165.667C245.553 174.528 233.911 209.403 233.911 209.403L193.078 206.947C193.078 206.947 184.196 181.44 199.168 162.733Z"
    fill="black" />
  <path
    d="M228.145 160.541L228.704 167.717C228.704 167.717 228.034 171.066 223.142 170.325C218.249 169.584 217.255 166.346 217.255 166.346L216.696 152.928C216.696 152.928 223.801 148.29 222.147 140.667C223.244 142.379 224.842 143.71 226.725 144.479C228.607 145.247 230.681 145.415 232.662 144.96C233.027 148.49 233.169 152.04 233.089 155.587C232.794 159.353 228.145 160.541 228.145 160.541Z"
    fill="white" />
  <path
    d="M224.471 170.945C223.999 170.939 223.528 170.902 223.06 170.833C217.914 170.052 216.818 166.641 216.767 166.499C216.763 166.455 216.763 166.411 216.767 166.367L216.209 152.949C216.205 152.86 216.224 152.772 216.265 152.694C216.306 152.615 216.367 152.549 216.443 152.502C216.503 152.502 223.284 147.955 221.67 140.779C221.639 140.66 221.653 140.533 221.708 140.423C221.764 140.313 221.857 140.227 221.972 140.181C222.086 140.135 222.213 140.132 222.33 140.173C222.446 140.214 222.543 140.296 222.604 140.403C223.631 142.028 225.139 143.292 226.918 144.02C228.697 144.747 230.659 144.902 232.53 144.463C232.6 144.448 232.672 144.448 232.742 144.462C232.812 144.476 232.878 144.504 232.936 144.545C232.995 144.587 233.043 144.642 233.078 144.705C233.113 144.768 233.134 144.838 233.139 144.91C233.516 148.47 233.662 152.05 233.576 155.628C233.342 159.059 229.912 160.5 228.704 160.906L229.232 167.676C229.237 167.724 229.237 167.771 229.232 167.819C229.232 167.819 228.521 170.945 224.471 170.945ZM217.762 166.255C217.914 166.661 219.011 169.189 223.213 169.828C227.415 170.468 228.085 168.103 228.196 167.676L227.638 160.571C227.629 160.454 227.662 160.336 227.731 160.24C227.799 160.143 227.899 160.074 228.014 160.044C228.064 160.044 232.317 158.897 232.551 155.547C232.628 152.21 232.499 148.871 232.165 145.549C230.481 145.85 228.749 145.72 227.129 145.171C225.509 144.623 224.053 143.674 222.898 142.413C223.213 148.412 218.371 152.33 217.214 153.172L217.762 166.255Z"
    fill="#231F20" />
  <path
    d="M218.929 152.35C218.709 151.702 218.285 151.143 217.722 150.756C217.18 150.425 216.586 150.189 215.966 150.056C215.638 149.951 215.292 149.92 214.951 149.964C214.714 150.025 214.491 150.129 214.291 150.269C213.808 150.576 213.449 151.043 213.276 151.588C213.165 152.038 213.165 152.509 213.276 152.959C213.38 153.452 213.548 153.929 213.773 154.38C214.01 154.825 214.334 155.218 214.725 155.537C215.115 155.856 215.565 156.095 216.049 156.238C216.532 156.382 217.04 156.428 217.541 156.374C218.043 156.319 218.528 156.166 218.97 155.922"
    fill="white" />
  <path
    d="M217.133 156.917C216.72 156.917 216.31 156.855 215.915 156.735C214.825 156.397 213.913 155.641 213.377 154.634C213.131 154.142 212.95 153.62 212.84 153.081C212.69 152.555 212.673 152.001 212.789 151.467C212.992 150.796 213.437 150.225 214.037 149.863C214.289 149.679 214.576 149.548 214.88 149.477C215.301 149.413 215.732 149.448 216.138 149.579C216.815 149.722 217.461 149.983 218.046 150.35C218.702 150.793 219.194 151.438 219.447 152.187C219.489 152.314 219.48 152.452 219.421 152.572C219.362 152.691 219.258 152.783 219.133 152.827C219.005 152.869 218.865 152.86 218.744 152.801C218.623 152.743 218.529 152.639 218.483 152.512C218.298 151.973 217.941 151.51 217.468 151.193C216.976 150.894 216.437 150.681 215.874 150.563C215.616 150.48 215.343 150.449 215.073 150.472C214.9 150.52 214.739 150.599 214.595 150.706C214.205 150.936 213.907 151.295 213.753 151.721C213.688 152.096 213.709 152.481 213.814 152.847C213.908 153.297 214.058 153.734 214.261 154.146C214.681 154.921 215.392 155.497 216.237 155.748C217.082 155.999 217.992 155.905 218.767 155.486C218.825 155.452 218.889 155.43 218.955 155.422C219.021 155.413 219.089 155.418 219.153 155.436C219.218 155.454 219.278 155.485 219.33 155.526C219.382 155.568 219.426 155.62 219.457 155.679C219.52 155.798 219.533 155.936 219.495 156.065C219.457 156.194 219.371 156.303 219.254 156.369C218.606 156.732 217.876 156.921 217.133 156.917Z"
    fill="#231F20" />
  <path
    d="M226.745 148.097C226.745 148.097 229.699 151.528 229.191 152.249C228.684 152.969 226.958 152.746 226.958 152.746"
    fill="white" />
  <path
    d="M227.587 153.294C227.361 153.312 227.133 153.312 226.907 153.294C226.774 153.276 226.653 153.207 226.571 153.1C226.49 152.993 226.453 152.859 226.471 152.726C226.491 152.594 226.561 152.474 226.667 152.393C226.773 152.312 226.906 152.274 227.039 152.289C227.638 152.37 228.572 152.289 228.795 152.005C228.176 150.714 227.361 149.526 226.379 148.483C226.292 148.38 226.249 148.247 226.258 148.112C226.268 147.978 226.329 147.852 226.43 147.762C226.535 147.679 226.668 147.639 226.802 147.65C226.936 147.661 227.061 147.723 227.151 147.823C229.282 150.29 230.114 151.883 229.617 152.594C229.353 152.855 229.033 153.054 228.682 153.175C228.331 153.296 227.956 153.337 227.587 153.294Z"
    fill="#231F20" />
  <path
    d="M224.697 148.501C225.02 148.389 225.153 147.928 224.994 147.473C224.836 147.018 224.445 146.74 224.122 146.853C223.799 146.966 223.666 147.426 223.825 147.881C223.984 148.336 224.375 148.614 224.697 148.501Z"
    fill="#231F20" />
  <path
    d="M228.823 148.013C229.146 147.9 229.279 147.44 229.12 146.985C228.961 146.53 228.571 146.252 228.248 146.365C227.925 146.478 227.792 146.938 227.951 147.393C228.11 147.848 228.501 148.126 228.823 148.013Z"
    fill="#231F20" />
  <path
    d="M229.242 154.248L224.573 153.689C224.573 153.689 224.329 157.171 227.029 157.404C228.886 157.567 229.242 154.248 229.242 154.248Z"
    fill="white" />
  <path
    d="M227.171 157.922H226.989C224.451 157.699 223.944 155.039 224.065 153.659C224.079 153.522 224.145 153.395 224.248 153.304C224.357 153.218 224.496 153.178 224.634 153.192L229.303 153.75C229.436 153.766 229.557 153.833 229.641 153.938C229.725 154.042 229.764 154.176 229.749 154.309C229.617 155.669 228.897 157.922 227.171 157.922ZM225.08 154.258C225.141 155.131 225.456 156.765 227.11 156.907C228.125 156.978 228.521 155.496 228.684 154.684L225.08 154.258Z"
    fill="#231F20" />
  <path
    d="M228.146 160.541C228.146 160.541 224.41 160.754 222.624 159.831C222.624 159.831 224.299 164.012 228.41 164.906L228.146 160.541Z"
    fill="#231F20" />
  <path
    d="M228.409 165.372H228.308C223.984 164.469 222.218 160.206 222.157 160.023C222.117 159.929 222.108 159.825 222.13 159.725C222.151 159.625 222.203 159.534 222.279 159.465C222.355 159.396 222.45 159.352 222.552 159.339C222.653 159.327 222.757 159.346 222.847 159.394C224.502 160.236 228.074 160.054 228.115 160.043C228.248 160.043 228.376 160.091 228.475 160.179C228.575 160.267 228.638 160.389 228.653 160.52L228.917 164.844C228.919 164.922 228.905 164.999 228.875 165.071C228.845 165.143 228.801 165.207 228.744 165.261C228.648 165.333 228.53 165.372 228.409 165.372ZM223.669 160.723C224.621 162.332 226.103 163.56 227.861 164.195L227.668 161.069C226.326 161.107 224.985 160.991 223.669 160.723Z"
    fill="#231F20" />
  <path
    d="M261.651 268.192L258.961 277.438C258.961 277.438 270.715 283.366 268.644 284.635C266.573 285.904 245.776 283.62 245.005 283.254C244.233 282.889 247.319 264.984 247.319 264.984"
    fill="white" />
  <path
    d="M264.909 285.508C258.139 285.508 245.492 284.066 244.772 283.711C244.386 283.508 243.665 283.143 246.802 264.863C246.824 264.728 246.9 264.608 247.011 264.529C247.123 264.45 247.261 264.418 247.395 264.441C247.53 264.464 247.65 264.54 247.729 264.651C247.808 264.762 247.839 264.901 247.817 265.035C246.487 272.729 245.228 281.356 245.391 282.848C247.573 283.336 266.594 285.305 268.38 284.208C268.38 283.427 263.945 280.514 258.738 277.895C258.632 277.841 258.547 277.752 258.499 277.643C258.451 277.534 258.442 277.411 258.474 277.296L261.164 268.05C261.182 267.983 261.214 267.921 261.257 267.866C261.3 267.812 261.353 267.766 261.413 267.732C261.473 267.699 261.54 267.677 261.608 267.669C261.677 267.66 261.747 267.666 261.813 267.684C261.88 267.703 261.942 267.735 261.997 267.777C262.051 267.82 262.097 267.873 262.131 267.933C262.165 267.994 262.186 268.06 262.195 268.129C262.203 268.198 262.197 268.267 262.179 268.334L259.611 277.185C262.331 278.565 269.365 282.341 269.436 284.198C269.446 284.373 269.407 284.546 269.322 284.699C269.238 284.851 269.112 284.977 268.959 285.061C267.65 285.469 266.275 285.62 264.909 285.508Z"
    fill="#231F20" />
  <path
    d="M235.352 219.563C235.261 219.561 235.173 219.533 235.098 219.482L224.035 211.95L225.588 218.599C225.603 218.655 225.606 218.715 225.598 218.773C225.59 218.831 225.57 218.886 225.54 218.937C225.509 218.987 225.469 219.03 225.422 219.065C225.374 219.099 225.32 219.124 225.263 219.137C225.205 219.152 225.144 219.155 225.085 219.146C225.026 219.137 224.969 219.117 224.918 219.085C224.867 219.054 224.822 219.013 224.787 218.964C224.753 218.915 224.728 218.86 224.715 218.802L222.888 211.037C222.867 210.948 222.874 210.855 222.906 210.77C222.939 210.685 222.996 210.612 223.07 210.56C223.146 210.51 223.234 210.483 223.324 210.483C223.415 210.483 223.503 210.51 223.578 210.56L235.606 218.761C235.702 218.829 235.768 218.931 235.791 219.046C235.813 219.162 235.791 219.281 235.728 219.38C235.684 219.438 235.627 219.485 235.562 219.517C235.497 219.549 235.425 219.565 235.352 219.563Z"
    fill="white" />
  <path d="M243.015 222.476L226.917 211.068L258.454 203.648L279.332 216.447L243.015 222.476Z" fill="white" />
  <path
    d="M243.015 222.943C242.92 222.942 242.827 222.91 242.752 222.852L226.644 211.443C226.571 211.391 226.515 211.319 226.482 211.236C226.45 211.153 226.441 211.063 226.458 210.975C226.475 210.888 226.517 210.807 226.579 210.742C226.64 210.678 226.719 210.632 226.806 210.611L258.342 203.191C258.464 203.165 258.591 203.187 258.697 203.252L279.576 216.051C279.655 216.102 279.717 216.176 279.753 216.262C279.79 216.349 279.799 216.444 279.781 216.537C279.762 216.629 279.716 216.713 279.649 216.779C279.581 216.844 279.496 216.888 279.403 216.904L243.097 222.933L243.015 222.943ZM228.024 211.281L243.127 221.989L278.033 216.193L258.372 204.145L228.024 211.281Z"
    fill="#231F20" />
  <path
    d="M205.004 166.519C205.004 166.519 204.567 199.507 206.952 200.014C209.338 200.522 238.275 202.755 239.919 203.059C241.564 203.364 245.806 205.089 246.801 206.399C247.796 207.708 249.724 213.169 248.385 213.098C246.434 213.101 244.485 212.986 242.548 212.753C241.432 212.468 239.311 209.829 239.311 209.829C239.311 209.829 240.153 212.671 238.661 212.377C237.169 212.083 233.982 209.413 233.982 209.413C233.982 209.413 199.786 216.234 194.874 210.205C189.961 204.176 188.327 189.042 191.139 176.527C193.95 164.012 202.902 159.749 205.004 166.519Z"
    fill="white" />
  <path
    d="M248.405 213.554L247.014 213.504C245.496 213.518 243.979 213.413 242.477 213.189C241.542 212.76 240.716 212.125 240.062 211.332C240.084 211.757 239.959 212.176 239.706 212.519C239.568 212.661 239.395 212.764 239.204 212.817C239.014 212.87 238.812 212.873 238.62 212.824C237.199 212.539 234.642 210.499 233.911 209.9C230.713 210.52 199.401 216.478 194.569 210.489C189.738 204.501 187.891 189.103 190.743 176.416C192.692 167.717 197.472 163.007 201.177 162.855C203.207 162.794 204.78 164.063 205.501 166.377C205.505 166.424 205.505 166.472 205.501 166.519C205.298 181.998 205.846 198.583 207.125 199.558C208.383 199.811 218.097 200.644 226.664 201.374C233.444 201.953 239.29 202.45 240.031 202.592C241.787 202.927 246.121 204.714 247.197 206.094C248.04 207.17 249.846 211.788 249.227 213.087C249.158 213.243 249.041 213.373 248.893 213.457C248.745 213.541 248.574 213.575 248.405 213.554ZM239.27 209.352C239.338 209.353 239.405 209.369 239.467 209.399C239.528 209.429 239.582 209.472 239.625 209.525C240.417 210.54 241.919 212.113 242.619 212.296C244.052 212.492 245.497 212.587 246.943 212.58H248.364C248.679 212.042 247.349 207.84 246.395 206.622C245.441 205.404 241.483 203.78 239.788 203.455C239.097 203.323 232.987 202.806 226.511 202.247C217.914 201.506 208.18 200.674 206.81 200.4C206.171 200.268 204.963 200.024 204.577 183.033C204.405 175.228 204.496 167.382 204.506 166.54C203.897 164.662 202.72 163.657 201.126 163.728C197.848 163.87 193.382 168.407 191.555 176.568C188.764 189.012 190.398 203.973 195.199 209.85C196.518 211.484 201.289 213.098 216.179 211.545C225.222 210.611 233.769 208.906 233.85 208.896C233.919 208.881 233.991 208.883 234.059 208.901C234.128 208.918 234.192 208.951 234.246 208.997C235.098 209.718 237.575 211.636 238.702 211.859C238.783 211.859 238.884 211.859 238.925 211.859C239.138 211.626 239.036 210.651 238.823 209.921C238.792 209.819 238.797 209.71 238.838 209.611C238.879 209.513 238.953 209.432 239.047 209.383C239.129 209.345 239.222 209.335 239.311 209.352H239.27Z"
    fill="#231F20" />
  <path
    d="M243.015 222.476C243.817 220.446 253.429 190.808 253.429 190.808L291.289 185.733L279.352 216.447L243.015 222.476Z"
    fill="white" />
  <path
    d="M243.015 222.943C242.947 222.942 242.88 222.926 242.818 222.896C242.757 222.866 242.703 222.823 242.66 222.77C242.61 222.705 242.577 222.628 242.564 222.546C242.552 222.464 242.56 222.381 242.589 222.303C243.371 220.273 252.891 190.96 252.983 190.666C253.01 190.582 253.06 190.507 253.129 190.451C253.197 190.395 253.28 190.361 253.368 190.351L291.228 185.276C291.308 185.265 291.389 185.275 291.464 185.305C291.539 185.335 291.605 185.385 291.654 185.449C291.704 185.511 291.736 185.585 291.747 185.664C291.757 185.742 291.746 185.822 291.715 185.895L279.758 216.619C279.728 216.693 279.68 216.758 279.618 216.808C279.555 216.857 279.482 216.89 279.403 216.904L243.096 222.933L243.015 222.943ZM253.774 191.234C252.759 194.198 245.38 217.117 243.726 221.887L278.997 216.031L290.568 186.281L253.774 191.234Z"
    fill="#231F20" />
  <path
    d="M265.609 209.495C265.062 209.505 264.519 209.387 264.026 209.149C263.366 208.804 262.321 207.921 262.778 205.79C263.07 204.378 263.712 203.062 264.645 201.963C265.246 201.205 266.048 200.632 266.959 200.309C267.456 200.143 267.987 200.109 268.5 200.208C269.014 200.308 269.494 200.538 269.893 200.877C270.466 201.45 270.825 202.203 270.908 203.009C271.034 203.876 270.969 204.76 270.718 205.6C270.468 206.439 270.037 207.214 269.456 207.871C268.955 208.383 268.357 208.791 267.696 209.07C267.036 209.349 266.326 209.493 265.609 209.495ZM267.964 201.172C267.727 201.17 267.491 201.205 267.264 201.273C266.535 201.543 265.896 202.011 265.416 202.623C264.595 203.592 264.026 204.75 263.762 205.993C263.529 207.119 263.762 207.871 264.483 208.246C265.205 208.486 265.98 208.518 266.719 208.338C267.458 208.159 268.133 207.775 268.664 207.231C269.15 206.684 269.509 206.036 269.716 205.335C269.923 204.633 269.973 203.894 269.862 203.171C269.826 202.599 269.593 202.058 269.202 201.638C268.864 201.331 268.421 201.164 267.964 201.172Z"
    fill="#D1D3D4" />
  <path
    d="M269.304 154.238C269.183 154.238 269.067 154.19 268.981 154.104C268.895 154.018 268.847 153.902 268.847 153.781C268.832 153.288 268.639 152.818 268.303 152.458C267.966 152.097 267.511 151.871 267.02 151.822H266.695C266.581 151.798 266.479 151.731 266.411 151.635C266.344 151.539 266.315 151.421 266.33 151.305C266.352 151.19 266.414 151.087 266.505 151.014C266.596 150.942 266.711 150.904 266.827 150.909C266.949 150.9 267.071 150.9 267.193 150.909C267.735 150.95 268.28 150.857 268.779 150.64C269.278 150.422 269.716 150.086 270.055 149.66C270.136 149.569 270.217 149.447 270.187 149.366C269.954 148.818 267.629 148.29 265.609 148.148C265.549 148.145 265.489 148.131 265.435 148.104C265.38 148.078 265.332 148.041 265.292 147.996C265.252 147.95 265.222 147.897 265.203 147.839C265.184 147.782 265.177 147.721 265.183 147.661C265.187 147.599 265.203 147.539 265.23 147.484C265.257 147.429 265.295 147.38 265.341 147.339C265.387 147.299 265.441 147.268 265.499 147.248C265.557 147.228 265.619 147.22 265.68 147.224C266.787 147.305 270.461 147.661 271.04 149C271.124 149.214 271.143 149.447 271.094 149.671C271.045 149.895 270.931 150.1 270.766 150.259C270.238 150.905 269.532 151.381 268.736 151.629C269.061 151.886 269.322 152.215 269.498 152.59C269.674 152.966 269.761 153.377 269.751 153.791C269.746 153.908 269.697 154.019 269.614 154.102C269.532 154.184 269.421 154.233 269.304 154.238Z"
    fill="#231F20" />
  <path
    d="M267.081 258.346C267.028 258.357 266.972 258.357 266.919 258.346C266.863 258.326 266.812 258.295 266.769 258.255C266.725 258.215 266.69 258.166 266.666 258.112C266.641 258.059 266.628 258 266.626 257.941C266.624 257.882 266.634 257.823 266.655 257.768C268.147 253.769 273.679 236.372 273.76 236.189C273.807 236.089 273.889 236.01 273.99 235.966C274.092 235.922 274.206 235.916 274.311 235.949C274.416 235.983 274.506 236.053 274.563 236.148C274.62 236.242 274.642 236.354 274.623 236.463C274.562 236.636 269.03 254.063 267.518 258.083C267.48 258.166 267.419 258.236 267.341 258.283C267.263 258.33 267.172 258.352 267.081 258.346Z"
    fill="white" />
  <path
    d="M316.907 173.178C315.669 172.914 314.431 172.589 313.172 172.386C312.263 172.321 311.415 171.904 310.809 171.223C310.202 170.543 309.885 169.653 309.924 168.742C309.739 165.688 308.876 162.713 307.397 160.033C305.362 156.062 304.976 151.448 306.321 147.194C309.092 138.383 317.486 134.496 326.53 137.379C339.867 141.642 340.74 156.582 331.452 164.845C328.956 167.078 326.56 169.25 325.038 172.295C324.69 173.065 324.062 173.673 323.281 173.997C322.501 174.322 321.627 174.337 320.836 174.04C319.516 173.716 318.197 173.462 316.907 173.178Z"
    fill="white" />
  <path
    d="M322.053 174.71C321.594 174.706 321.137 174.645 320.693 174.528C319.8 174.304 318.907 174.122 318.013 173.939L316.785 173.675L315.638 173.421C314.796 173.228 313.923 173.025 313.07 172.883C312.051 172.786 311.106 172.308 310.425 171.544C309.744 170.779 309.376 169.786 309.396 168.762C309.199 165.782 308.358 162.88 306.93 160.257C304.847 156.173 304.45 151.435 305.823 147.062C306.391 145.066 307.356 143.205 308.661 141.592C309.965 139.979 311.583 138.646 313.416 137.673C315.465 136.68 317.69 136.102 319.963 135.973C322.237 135.845 324.513 136.167 326.661 136.922C332.538 138.8 336.578 143.012 337.745 148.432C338.311 151.512 338.057 154.686 337.007 157.637C335.958 160.587 334.151 163.21 331.767 165.24C329.412 167.341 326.986 169.513 325.474 172.548C325.18 173.206 324.699 173.761 324.09 174.146C323.482 174.531 322.773 174.727 322.053 174.71ZM316.978 172.68L318.196 172.934C319.11 173.117 320.023 173.31 320.916 173.543C321.598 173.815 322.358 173.813 323.038 173.539C323.719 173.265 324.267 172.739 324.57 172.071C326.164 168.874 328.63 166.631 331.087 164.459C333.339 162.548 335.048 160.077 336.042 157.296C337.037 154.515 337.281 151.52 336.75 148.615C335.654 143.479 331.96 139.652 326.347 137.866C324.322 137.153 322.176 136.849 320.033 136.971C317.89 137.093 315.793 137.639 313.862 138.576C312.147 139.488 310.634 140.737 309.413 142.247C308.193 143.757 307.289 145.498 306.757 147.366C306.098 149.408 305.848 151.561 306.022 153.699C306.196 155.838 306.791 157.922 307.772 159.83C309.277 162.579 310.157 165.625 310.35 168.752C310.319 169.542 310.596 170.312 311.123 170.901C311.649 171.49 312.384 171.852 313.172 171.909C314.055 172.051 314.948 172.254 315.801 172.447L316.938 172.711L316.978 172.68Z"
    fill="#F0BE69" />
  <path
    d="M321.902 174.274L311.832 172.099C310.928 171.903 310.037 172.478 309.842 173.382L309.73 173.898C309.535 174.802 310.11 175.693 311.014 175.889L321.084 178.064C321.988 178.259 322.879 177.685 323.074 176.781L323.186 176.265C323.381 175.361 322.806 174.469 321.902 174.274Z"
    fill="white" />
  <path
    d="M321.434 178.618C321.279 178.632 321.123 178.632 320.967 178.618L310.898 176.446C310.333 176.324 309.84 175.983 309.526 175.498C309.212 175.013 309.103 174.423 309.224 173.858L309.335 173.33C309.459 172.764 309.802 172.27 310.289 171.957C310.776 171.643 311.367 171.534 311.934 171.655L321.982 173.787C322.547 173.908 323.041 174.249 323.355 174.734C323.669 175.22 323.778 175.81 323.657 176.375L323.545 176.903C323.438 177.384 323.171 177.816 322.788 178.127C322.405 178.439 321.928 178.612 321.434 178.618ZM321.18 177.603C321.482 177.667 321.796 177.61 322.056 177.445C322.316 177.28 322.501 177.02 322.571 176.72L322.683 176.192C322.715 176.043 322.718 175.888 322.691 175.738C322.664 175.588 322.607 175.444 322.524 175.316C322.441 175.187 322.333 175.077 322.207 174.99C322.081 174.904 321.939 174.843 321.789 174.812L311.721 172.629C311.571 172.597 311.416 172.594 311.265 172.621C311.114 172.648 310.969 172.705 310.84 172.788C310.711 172.871 310.599 172.978 310.512 173.104C310.424 173.23 310.363 173.373 310.33 173.523L310.218 174.05C310.186 174.2 310.183 174.354 310.21 174.505C310.237 174.655 310.294 174.799 310.377 174.927C310.46 175.055 310.568 175.166 310.694 175.252C310.82 175.339 310.962 175.4 311.112 175.431L321.18 177.603Z"
    fill="#231F20" />
  <path
    d="M321.988 177.924L311.892 175.76C310.985 175.566 310.093 176.144 309.899 177.05L309.788 177.567C309.594 178.474 310.171 179.366 311.078 179.56L321.174 181.724C322.08 181.918 322.972 181.34 323.167 180.434L323.278 179.917C323.472 179.01 322.894 178.118 321.988 177.924Z"
    fill="white" />
  <path
    d="M320.612 182.404C320.458 182.407 320.305 182.39 320.155 182.353L310.076 180.191C309.513 180.067 309.022 179.726 308.71 179.241C308.398 178.756 308.291 178.167 308.412 177.603L308.523 177.075C308.647 176.512 308.989 176.021 309.474 175.709C309.959 175.397 310.548 175.29 311.112 175.411L321.18 177.583C321.462 177.643 321.729 177.758 321.966 177.922C322.204 178.086 322.406 178.296 322.561 178.538C322.717 178.781 322.823 179.052 322.874 179.335C322.924 179.619 322.918 179.91 322.855 180.191L322.743 180.719C322.631 181.2 322.359 181.628 321.972 181.934C321.585 182.24 321.105 182.406 320.612 182.404ZM310.655 176.314C310.389 176.313 310.131 176.403 309.924 176.569C309.717 176.736 309.574 176.968 309.518 177.228L309.406 177.755C309.373 177.904 309.37 178.058 309.397 178.208C309.424 178.357 309.479 178.501 309.561 178.629C309.643 178.757 309.75 178.868 309.875 178.955C310 179.042 310.141 179.103 310.289 179.136L320.368 181.318C320.518 181.351 320.672 181.354 320.822 181.326C320.973 181.299 321.116 181.242 321.245 181.159C321.373 181.076 321.484 180.969 321.57 180.842C321.657 180.716 321.717 180.574 321.749 180.425L321.86 179.897C321.895 179.748 321.899 179.594 321.871 179.444C321.843 179.293 321.784 179.151 321.698 179.024C321.616 178.895 321.509 178.784 321.384 178.697C321.258 178.609 321.117 178.548 320.967 178.517L310.898 176.345C310.817 176.341 310.735 176.348 310.655 176.365V176.314Z"
    fill="#231F20" />
  <path
    d="M320.399 181.896C320.084 183.317 317.516 183.926 314.664 183.358C311.812 182.79 309.741 181.084 310.046 179.653L320.399 181.896Z"
    fill="white" />
  <path
    d="M316.745 184.099C316.008 184.094 315.273 184.012 314.552 183.855C311.376 183.165 309.183 181.277 309.549 179.552C309.578 179.419 309.658 179.302 309.772 179.227C309.829 179.192 309.892 179.169 309.959 179.158C310.025 179.148 310.092 179.15 310.158 179.166L320.5 181.399C320.565 181.412 320.627 181.439 320.682 181.476C320.737 181.513 320.784 181.561 320.819 181.617C320.855 181.673 320.88 181.736 320.891 181.801C320.903 181.866 320.901 181.933 320.886 181.998C320.612 183.318 318.937 184.099 316.745 184.099ZM310.594 180.293C310.919 181.227 312.472 182.323 314.776 182.861C317.08 183.399 318.958 182.962 319.638 182.252L310.594 180.293Z"
    fill="#231F20" />
  <path
    d="M320.48 172.366C320.413 172.362 320.348 172.345 320.288 172.316C320.228 172.287 320.174 172.246 320.13 172.196C320.085 172.146 320.051 172.088 320.03 172.024C320.008 171.961 319.999 171.894 320.003 171.828C320.182 168.613 320.726 165.429 321.627 162.338C320.297 162.366 318.972 162.185 317.699 161.8C317.27 164.778 316.567 167.71 315.598 170.559L315.486 170.924C315.466 170.991 315.433 171.053 315.389 171.107C315.345 171.161 315.291 171.206 315.23 171.239C315.169 171.272 315.101 171.292 315.032 171.299C314.963 171.306 314.893 171.3 314.826 171.28C314.76 171.26 314.698 171.227 314.644 171.183C314.59 171.139 314.545 171.085 314.512 171.023C314.479 170.962 314.458 170.895 314.451 170.826C314.444 170.757 314.451 170.687 314.471 170.62L314.583 170.255C315.561 167.395 316.261 164.448 316.674 161.454C314.875 160.761 313.272 159.639 312.005 158.186C311.194 157.337 310.626 156.285 310.36 155.141C310.22 154.524 310.239 153.881 310.417 153.274C310.595 152.666 310.924 152.114 311.375 151.67C311.758 151.375 312.198 151.163 312.666 151.046C313.135 150.929 313.622 150.91 314.099 150.99C314.575 151.07 315.03 151.247 315.434 151.511C315.839 151.775 316.185 152.119 316.45 152.522C317.332 154.43 317.776 156.511 317.75 158.612C317.75 159.343 317.75 160.084 317.75 160.815C319.092 161.247 320.503 161.429 321.911 161.353C321.923 161.298 321.94 161.243 321.962 161.191L322.063 160.886C322.885 158.481 323.9 155.486 326.123 153.913C326.514 153.603 326.965 153.379 327.447 153.255C327.93 153.131 328.433 153.109 328.925 153.192C329.208 153.283 329.463 153.443 329.669 153.657C329.875 153.872 330.023 154.134 330.102 154.421C330.317 155.227 330.337 156.072 330.161 156.888C329.984 157.703 329.616 158.465 329.087 159.11C328.056 160.339 326.692 161.245 325.159 161.718C324.363 161.991 323.539 162.175 322.703 162.266C321.735 165.395 321.152 168.629 320.967 171.899C320.957 172.023 320.902 172.139 320.812 172.225C320.723 172.311 320.604 172.361 320.48 172.366ZM328.316 154.096C327.734 154.152 327.181 154.374 326.722 154.735C324.783 156.116 323.819 158.937 323.048 161.201C323.65 161.101 324.244 160.955 324.824 160.764C326.171 160.352 327.369 159.559 328.275 158.481C328.702 157.966 329.001 157.357 329.148 156.704C329.294 156.051 329.284 155.373 329.118 154.725C328.965 154.228 328.712 154.136 328.62 154.116C328.523 154.081 328.419 154.064 328.316 154.065V154.096ZM313.517 151.944C312.997 151.931 312.49 152.103 312.086 152.431C311.764 152.757 311.53 153.158 311.404 153.598C311.278 154.038 311.265 154.502 311.365 154.948C311.597 155.927 312.084 156.827 312.776 157.557C313.879 158.8 315.245 159.781 316.775 160.429C316.775 159.83 316.775 159.242 316.775 158.643C316.804 156.706 316.405 154.786 315.608 153.02C315.426 152.742 315.185 152.507 314.903 152.332C314.621 152.157 314.304 152.045 313.974 152.005C313.825 151.961 313.672 151.93 313.517 151.913V151.944Z"
    fill="#F0BE69" />
  <path
    d="M288.122 170.945C288.005 170.945 287.891 170.904 287.801 170.83C287.71 170.756 287.648 170.653 287.625 170.539C287.61 170.473 287.608 170.406 287.62 170.34C287.633 170.274 287.658 170.211 287.695 170.155C287.732 170.099 287.78 170.051 287.836 170.014C287.892 169.977 287.954 169.952 288.02 169.94L299.652 167.484C299.782 167.459 299.917 167.485 300.029 167.557C300.14 167.629 300.22 167.741 300.251 167.869C300.276 168.002 300.248 168.139 300.175 168.253C300.101 168.366 299.987 168.447 299.855 168.478L288.234 170.935L288.122 170.945Z"
    fill="#D1D3D4" />
  <path
    d="M305.083 134.161C304.956 134.157 304.834 134.111 304.738 134.029L297.49 127.411C297.4 127.319 297.348 127.195 297.345 127.066C297.343 126.937 297.39 126.811 297.477 126.715C297.563 126.619 297.684 126.56 297.813 126.55C297.942 126.54 298.07 126.579 298.17 126.66L305.428 133.268C305.504 133.337 305.557 133.427 305.581 133.528C305.604 133.628 305.596 133.732 305.559 133.828C305.522 133.924 305.456 134.006 305.371 134.064C305.286 134.121 305.185 134.152 305.083 134.151V134.161Z"
    fill="#D1D3D4" />
  <path
    d="M345.662 144.961C345.527 144.98 345.391 144.944 345.282 144.862C345.174 144.78 345.102 144.659 345.084 144.524C345.065 144.39 345.1 144.253 345.182 144.145C345.264 144.036 345.385 143.965 345.52 143.946L356.005 141.094C356.072 141.076 356.141 141.072 356.209 141.082C356.277 141.091 356.343 141.114 356.402 141.149C356.462 141.184 356.514 141.23 356.555 141.285C356.597 141.34 356.627 141.402 356.644 141.469C356.662 141.536 356.666 141.605 356.656 141.673C356.647 141.742 356.624 141.807 356.589 141.867C356.554 141.926 356.508 141.978 356.453 142.019C356.398 142.061 356.335 142.091 356.269 142.109L345.794 144.971L345.662 144.961Z"
    fill="#D1D3D4" />
  <path
    d="M341.754 187.611C341.683 187.611 341.612 187.596 341.547 187.566C341.482 187.537 341.425 187.493 341.379 187.438L335.086 180.425C334.996 180.324 334.949 180.191 334.957 180.056C334.964 179.921 335.025 179.794 335.126 179.704C335.227 179.614 335.36 179.567 335.495 179.575C335.63 179.583 335.757 179.644 335.847 179.745L342.13 186.758C342.177 186.805 342.215 186.862 342.241 186.923C342.267 186.985 342.28 187.052 342.28 187.119C342.28 187.186 342.267 187.252 342.241 187.314C342.215 187.376 342.177 187.432 342.13 187.479C342.081 187.527 342.022 187.564 341.957 187.587C341.892 187.61 341.823 187.618 341.754 187.611Z"
    fill="#D1D3D4" />
  <path
    d="M326.418 129.614H326.337C326.202 129.591 326.082 129.517 326.003 129.407C325.923 129.297 325.89 129.16 325.91 129.025L327.25 120.834C327.272 120.7 327.346 120.579 327.456 120.499C327.566 120.419 327.704 120.386 327.839 120.408C327.973 120.429 328.094 120.503 328.174 120.614C328.254 120.724 328.287 120.862 328.265 120.997L326.935 129.188C326.918 129.31 326.855 129.422 326.759 129.501C326.663 129.58 326.542 129.62 326.418 129.614Z"
    fill="#D1D3D4" />
  <path
    d="M294.983 151.913H294.872L284.783 149.812C284.716 149.799 284.653 149.773 284.596 149.735C284.54 149.697 284.491 149.648 284.454 149.592C284.416 149.535 284.39 149.472 284.377 149.405C284.363 149.338 284.363 149.27 284.377 149.203C284.39 149.137 284.416 149.073 284.454 149.017C284.492 148.96 284.541 148.912 284.597 148.874C284.654 148.836 284.717 148.81 284.784 148.797C284.85 148.784 284.919 148.784 284.986 148.797L295.085 150.898C295.216 150.927 295.33 151.006 295.404 151.118C295.477 151.23 295.505 151.365 295.481 151.497C295.46 151.614 295.398 151.719 295.307 151.795C295.216 151.871 295.102 151.913 294.983 151.913Z"
    fill="#D1D3D4" />
  <path
    d="M355.478 164.895H355.366L346.231 162.743C346.166 162.729 346.104 162.702 346.049 162.663C345.995 162.625 345.949 162.576 345.914 162.519C345.879 162.462 345.856 162.399 345.846 162.333C345.835 162.267 345.839 162.199 345.855 162.134C345.887 162.004 345.968 161.892 346.082 161.821C346.196 161.751 346.334 161.728 346.464 161.759L355.599 163.911C355.734 163.927 355.857 163.996 355.94 164.102C356.024 164.209 356.062 164.345 356.046 164.479C356.03 164.614 355.961 164.736 355.854 164.82C355.748 164.904 355.612 164.942 355.478 164.926V164.895Z"
    fill="#D1D3D4" />
</svg>
