<svg width="410" height="489" viewBox="0 0 410 489" fill="none" xmlns="http://www.w3.org/2000/svg">
  <rect width="410" height="489" rx="20" fill="white" />
  <path
    d="M156.81 244.281L163.438 274.731L188.357 246.413L198.507 255.375C198.507 255.375 163.205 307.871 149.117 304.44C135.029 301.009 138.865 281.095 135.871 259.689C132.877 238.282 156.81 244.281 156.81 244.281Z"
    fill="white" />
  <path
    d="M150.477 305.11C149.978 305.111 149.481 305.053 148.995 304.937C138.267 302.319 137.607 290.727 136.815 276.051C136.521 270.803 136.206 265.383 135.425 259.76C134.582 253.741 135.75 249.255 138.906 246.423C145.088 240.881 156.506 243.662 156.983 243.784C157.074 243.809 157.157 243.859 157.223 243.926C157.289 243.994 157.336 244.078 157.359 244.169L163.774 273.604L188.022 246.037C188.113 245.935 188.241 245.873 188.377 245.864C188.51 245.858 188.641 245.901 188.743 245.986L198.893 254.959C198.985 255.039 199.045 255.151 199.06 255.273C199.075 255.395 199.044 255.518 198.974 255.619C197.492 257.74 165.469 305.1 150.477 305.11ZM149.888 244.017C146.407 244.017 142.327 244.667 139.535 247.184C136.744 249.701 135.587 253.964 136.379 259.618C137.171 265.271 137.475 270.722 137.78 275.99C138.592 290.25 139.241 301.507 149.229 303.953C154.781 305.293 164.961 297.325 178.664 280.872C188.124 269.514 196.284 257.669 197.796 255.497L188.387 247.154L163.814 275.096C163.753 275.168 163.673 275.221 163.584 275.25C163.494 275.278 163.398 275.282 163.307 275.259C163.215 275.235 163.131 275.187 163.065 275.119C162.999 275.051 162.952 274.966 162.931 274.873L156.374 244.748C154.243 244.282 152.07 244.037 149.888 244.017Z"
    fill="#231F20" />
  <path
    d="M75.5191 334.159C73.4891 347.882 73.8038 351.658 73.8038 351.658L157.968 349.973L146.894 301.872L82.3602 308.784C79.1788 316.974 76.8853 325.481 75.5191 334.159Z"
    fill="#231F20" />
  <path
    d="M73.8038 352.166C73.6769 352.169 73.5536 352.123 73.4593 352.038C73.3649 351.953 73.3066 351.835 73.2963 351.709C73.2963 351.546 72.9715 347.71 75.0116 334.088C76.3927 325.369 78.6996 316.822 81.8933 308.592C81.9286 308.507 81.9858 308.433 82.0589 308.378C82.132 308.323 82.2185 308.288 82.3095 308.277L146.833 301.365C146.956 301.349 147.08 301.38 147.182 301.451C147.283 301.523 147.354 301.629 147.381 301.75L158.465 349.861C158.482 349.936 158.481 350.013 158.464 350.086C158.446 350.16 158.412 350.229 158.363 350.288C158.319 350.348 158.261 350.397 158.194 350.43C158.127 350.464 158.053 350.481 157.978 350.481L73.8139 352.166H73.8038ZM76.0165 334.241C74.3823 345.142 74.2707 349.77 74.291 351.14L157.328 349.486L146.498 302.42L82.7256 309.251C79.6255 317.325 77.3769 325.7 76.0165 334.241Z"
    fill="#231F20" />
  <path
    d="M74.6362 329.013L153.552 320.132C146.204 273.229 142.459 298.025 151.34 254.157L160.698 251.619C156.354 228.954 145.676 219.007 145.676 219.007C135.252 200.24 109.836 211.222 109.836 211.222C109.836 211.222 80.6856 213.557 73.1645 238.749C68.1808 255.415 76.7373 278.659 77.803 298.949C78.0974 304.623 76.1384 304.389 74.6362 329.013Z"
    fill="black" />
  <path
    d="M131.578 223.25C128.644 222.804 125.823 222.307 122.788 223.119C118.281 224.347 114.313 226.955 109.674 228.041C104.721 229.188 99.321 229.229 94.2562 229.462C92.7743 229.533 94.378 231.411 93.0991 230.65C88.6026 227.97 88.2474 221.87 87.8312 217.292C86.7265 206.716 87.0679 196.038 88.8462 185.553C90.5514 176.418 92.3175 167.76 101.178 163.091C107.634 159.691 116.708 157.661 123.783 160.178C130.857 162.696 136.764 169.161 139.231 176.317C141.961 184.234 142.854 192.263 147.442 199.51C149.472 202.707 151.979 205.823 152.517 209.568C153.106 214.085 150.426 218.632 146.579 221.068C142.733 223.504 137.932 224.113 133.384 223.504C132.755 223.433 132.166 223.342 131.578 223.25Z"
    fill="white" />
  <path
    d="M93.5255 231.34C93.278 231.313 93.0409 231.226 92.8353 231.086C88.2982 228.386 87.7603 222.57 87.3746 217.891V217.333C86.2987 205.325 86.6336 194.901 88.3896 185.452C90.0339 176.631 91.7391 167.506 100.986 162.634C106.802 159.589 116.322 156.961 123.996 159.691C131.101 162.218 137.12 168.521 139.749 176.144C140.642 178.722 141.342 181.341 142.022 183.878C143.484 189.288 144.854 194.394 147.909 199.225C148.275 199.814 148.66 200.392 149.046 200.971C150.792 203.6 152.598 206.32 153.004 209.497C153.593 213.963 151.117 218.784 146.843 221.484C142.276 224.377 136.978 224.448 133.344 224.001L131.527 223.737L131.091 223.677C128.34 223.25 125.731 222.854 122.971 223.606C120.885 224.225 118.849 225.002 116.881 225.93C114.598 227.012 112.219 227.878 109.776 228.518C105.459 229.372 101.072 229.821 96.672 229.858L94.2563 229.959C94.1929 229.944 94.1268 229.944 94.0634 229.959C94.0456 230.077 94.0456 230.197 94.0634 230.315C94.1142 230.468 94.1181 230.633 94.0747 230.788C94.0313 230.944 93.9426 231.083 93.8198 231.188C93.7373 231.264 93.6356 231.317 93.5255 231.34ZM116.799 159.579C111.435 159.701 106.172 161.063 101.422 163.558C92.612 168.197 90.9575 177.068 89.3538 185.655C87.608 195.013 87.3238 205.346 88.3388 217.262L88.3896 217.82C88.7753 222.154 89.2422 227.523 93.0687 230C93.0686 229.757 93.1508 229.521 93.3022 229.33C93.4189 229.199 93.5629 229.094 93.7242 229.024C93.8855 228.954 94.0601 228.92 94.236 228.924L96.6517 228.823C100.984 228.812 105.307 228.397 109.562 227.584C111.93 226.955 114.234 226.105 116.444 225.047C118.454 224.103 120.53 223.31 122.656 222.672C125.64 221.87 128.35 222.286 131.212 222.672L131.649 222.743C132.238 222.824 132.826 222.915 133.425 222.986C136.907 223.423 141.951 223.362 146.265 220.621C150.203 218.135 152.497 213.709 151.959 209.629C151.573 206.685 149.838 204.067 148.163 201.509C147.777 200.92 147.381 200.332 147.006 199.743C143.869 194.78 142.418 189.349 141.007 184.112C140.327 181.595 139.627 179.037 138.754 176.438C136.216 169.1 130.421 163.04 123.61 160.615C121.415 159.887 119.112 159.537 116.799 159.579Z"
    fill="#231F20" />
  <path
    d="M134.998 181.077C134.998 181.077 140.235 193.257 138.672 202.798C138.304 205.472 137.164 207.98 135.392 210.015C133.62 212.05 131.292 213.525 128.695 214.258L129.71 230.975C129.71 230.975 130.329 239.521 119.763 238.861C116.706 238.664 113.749 237.691 111.172 236.034C108.595 234.377 106.483 232.091 105.035 229.391L101.899 198.728C101.899 198.728 113.338 191.146 111.612 180.174C111.684 180.174 126.228 186.112 134.998 181.077Z"
    fill="white" />
  <path
    d="M120.971 239.399H119.804C116.657 239.179 113.618 238.166 110.968 236.455C108.319 234.744 106.145 232.391 104.65 229.614C104.641 229.557 104.641 229.499 104.65 229.442L101.513 198.779C101.508 198.686 101.526 198.593 101.567 198.509C101.608 198.426 101.67 198.354 101.747 198.302C101.848 198.231 112.912 190.77 111.227 180.255C111.215 180.166 111.227 180.076 111.262 179.993C111.296 179.91 111.351 179.837 111.421 179.782C111.492 179.727 111.576 179.691 111.664 179.677C111.753 179.664 111.844 179.674 111.927 179.707C112.069 179.707 126.34 185.482 134.795 180.63C134.861 180.603 134.932 180.589 135.003 180.589C135.075 180.589 135.145 180.603 135.211 180.63C135.346 180.682 135.455 180.784 135.516 180.915C135.729 181.412 140.794 193.308 139.22 202.92C138.838 205.612 137.705 208.143 135.951 210.221C134.197 212.3 131.894 213.843 129.304 214.674L130.319 230.985C130.36 232.08 130.186 233.173 129.804 234.2C129.423 235.228 128.842 236.17 128.096 236.973C126.442 238.577 124.056 239.399 120.971 239.399ZM105.604 229.249C107.025 231.846 109.077 234.044 111.571 235.641C114.065 237.237 116.921 238.18 119.875 238.384C123.214 238.597 125.721 237.876 127.335 236.263C128.632 234.836 129.327 232.963 129.273 231.035L128.258 214.318C128.253 214.198 128.289 214.079 128.361 213.983C128.434 213.887 128.537 213.819 128.654 213.79C131.16 213.098 133.406 211.68 135.108 209.715C136.811 207.75 137.896 205.326 138.226 202.747C139.566 194.526 135.749 184.224 134.795 181.818C126.99 185.878 115.51 182.133 112.343 180.986C113.358 190.77 104.223 197.804 102.559 199.002L105.604 229.249Z"
    fill="#231F20" />
  <path
    d="M129.345 203.721C128.491 203.715 127.638 203.637 126.797 203.488C126.732 203.475 126.67 203.449 126.615 203.411C126.559 203.374 126.512 203.326 126.475 203.271C126.438 203.215 126.413 203.153 126.4 203.087C126.388 203.022 126.388 202.955 126.401 202.889C126.413 202.823 126.439 202.76 126.476 202.704C126.513 202.648 126.56 202.601 126.616 202.564C126.672 202.527 126.735 202.501 126.801 202.489C126.867 202.477 126.935 202.479 127 202.493C127 202.493 130.38 203.143 131.974 202.189C132.217 200.869 129.02 196.485 126.686 193.775C126.597 193.672 126.552 193.539 126.562 193.404C126.571 193.269 126.634 193.143 126.736 193.054C126.839 192.965 126.972 192.92 127.107 192.93C127.242 192.939 127.368 193.002 127.457 193.105C128.472 194.262 133.364 200.118 133.019 202.24C133 202.404 132.943 202.561 132.853 202.7C132.763 202.839 132.643 202.956 132.502 203.041C131.526 203.538 130.438 203.772 129.345 203.721Z"
    fill="#231F20" />
  <path
    d="M125.65 209.183C125.034 209.184 124.419 209.129 123.813 209.02C120.936 208.51 118.339 206.982 116.495 204.717C116.434 204.598 116.422 204.46 116.462 204.333C116.502 204.206 116.59 204.099 116.708 204.037C116.827 203.974 116.965 203.961 117.094 203.999C117.223 204.036 117.332 204.123 117.398 204.24C119.106 206.238 121.457 207.58 124.046 208.036C127.477 208.594 130.887 207.335 134.196 204.29C134.244 204.24 134.301 204.199 134.365 204.171C134.429 204.144 134.498 204.13 134.567 204.13C134.637 204.13 134.706 204.144 134.769 204.172C134.833 204.2 134.891 204.24 134.938 204.291C134.986 204.342 135.022 204.402 135.045 204.468C135.068 204.533 135.078 204.603 135.073 204.672C135.068 204.742 135.049 204.81 135.017 204.871C134.985 204.933 134.94 204.987 134.886 205.031C131.882 207.792 128.796 209.183 125.65 209.183Z"
    fill="#231F20" />
  <path
    d="M128.695 214.257C128.695 214.257 119.845 215.952 114.627 214.968C114.627 214.968 121.063 227.777 129.548 227.148L128.695 214.257Z"
    fill="#231F20" />
  <path
    d="M128.969 227.696C120.575 227.696 114.455 215.719 114.191 215.191C114.151 215.107 114.135 215.013 114.143 214.92C114.152 214.827 114.186 214.738 114.242 214.663C114.297 214.586 114.373 214.527 114.462 214.493C114.55 214.458 114.646 214.451 114.739 214.47C119.814 215.424 128.533 213.78 128.624 213.76C128.695 213.746 128.768 213.748 128.838 213.766C128.908 213.783 128.974 213.816 129.03 213.861C129.086 213.905 129.132 213.961 129.165 214.024C129.199 214.086 129.218 214.156 129.223 214.227L130.076 227.127C130.081 227.194 130.073 227.261 130.053 227.325C130.032 227.389 130 227.448 129.956 227.499C129.913 227.55 129.86 227.591 129.8 227.622C129.74 227.652 129.675 227.67 129.609 227.676L128.969 227.696ZM115.592 215.617C117.175 218.388 122.463 226.681 128.979 226.681L128.198 214.856C126.34 215.191 120.108 216.165 115.592 215.617Z"
    fill="#231F20" />
  <path d="M179.922 214.846L201.917 213.77L190.894 260.399L167.245 262.723L179.922 214.846Z" fill="#231F20" />
  <path
    d="M167.265 263.231C167.192 263.233 167.12 263.218 167.053 263.188C166.986 263.158 166.927 263.114 166.879 263.059C166.825 262.995 166.787 262.92 166.767 262.839C166.748 262.758 166.748 262.673 166.768 262.592L179.445 214.724C179.472 214.62 179.531 214.526 179.616 214.458C179.7 214.391 179.804 214.352 179.912 214.349L201.897 213.263C201.976 213.256 202.055 213.27 202.128 213.301C202.201 213.333 202.264 213.383 202.313 213.446C202.365 213.506 202.401 213.579 202.418 213.656C202.436 213.734 202.435 213.815 202.415 213.892L191.402 260.521C191.377 260.624 191.32 260.717 191.24 260.786C191.16 260.855 191.061 260.897 190.955 260.907L167.265 263.231ZM180.338 215.344L167.935 262.145L190.509 259.933L201.288 214.308L180.338 215.344Z"
    fill="#231F20" />
  <path
    d="M151.34 254.675C151.21 254.675 151.086 254.626 150.991 254.537C150.897 254.448 150.84 254.327 150.832 254.198C150.391 247.479 148.905 240.869 146.427 234.608C146.372 234.486 146.368 234.346 146.416 234.221C146.463 234.095 146.559 233.994 146.681 233.938C146.741 233.91 146.807 233.894 146.874 233.891C146.941 233.888 147.007 233.899 147.07 233.923C147.132 233.947 147.19 233.983 147.238 234.029C147.286 234.075 147.325 234.131 147.351 234.192C149.88 240.562 151.398 247.288 151.847 254.127C151.856 254.262 151.81 254.396 151.721 254.499C151.632 254.601 151.506 254.664 151.37 254.675H151.34Z"
    fill="#231F20" />
  <path
    d="M116.83 192.973C116.779 192.983 116.728 192.983 116.677 192.973C116.55 192.933 116.443 192.845 116.381 192.727C116.318 192.609 116.304 192.471 116.342 192.343C116.756 191.035 117.667 189.941 118.88 189.298C119.49 189.061 120.146 188.962 120.799 189.009C121.452 189.057 122.086 189.249 122.656 189.572C122.767 189.636 122.851 189.739 122.889 189.862C122.927 189.984 122.918 190.117 122.863 190.232C122.807 190.348 122.71 190.439 122.591 190.486C122.471 190.533 122.339 190.533 122.219 190.486C121.779 190.231 121.288 190.077 120.781 190.033C120.274 189.989 119.764 190.057 119.286 190.232C118.353 190.738 117.649 191.58 117.317 192.587C117.29 192.696 117.227 192.793 117.139 192.863C117.051 192.933 116.942 192.971 116.83 192.973Z"
    fill="#231F20" />
  <path
    d="M130.887 189.969H130.796C130.664 189.942 130.547 189.864 130.471 189.752C130.395 189.64 130.366 189.503 130.39 189.37C130.47 188.953 130.645 188.559 130.902 188.221C131.159 187.883 131.491 187.609 131.872 187.421C132.765 187.066 133.902 187.35 135.11 188.253C135.206 188.336 135.268 188.452 135.283 188.578C135.299 188.704 135.266 188.831 135.192 188.934C135.118 189.037 135.008 189.109 134.884 189.135C134.76 189.161 134.63 189.14 134.521 189.075C133.577 188.395 132.796 188.152 132.258 188.355C132.035 188.481 131.842 188.655 131.693 188.864C131.544 189.072 131.442 189.311 131.395 189.563C131.369 189.678 131.305 189.781 131.213 189.855C131.12 189.929 131.006 189.969 130.887 189.969Z"
    fill="#231F20" />
  <path
    d="M87.2529 201.59C87.2529 201.59 88.4912 205.305 84.5631 216.064C80.6351 226.823 80.7975 235.065 90.6531 236.547C100.509 238.029 106.274 236.841 107.573 228.427C108.872 220.013 101.29 210.776 101.29 210.776"
    fill="white" />
  <path
    d="M96.804 237.592C94.7192 237.566 92.6393 237.383 90.582 237.044C86.9686 236.506 84.4108 235.014 83 232.639C80.9091 229.107 81.2643 223.626 84.086 215.881C87.872 205.518 86.7859 201.783 86.7758 201.752C86.7545 201.686 86.7465 201.616 86.7523 201.546C86.7581 201.476 86.7775 201.408 86.8096 201.346C86.8416 201.284 86.8856 201.228 86.939 201.183C86.9924 201.138 87.0542 201.104 87.1209 201.082C87.1875 201.061 87.2577 201.053 87.3275 201.059C87.3972 201.065 87.4651 201.084 87.5273 201.116C87.5895 201.148 87.6448 201.192 87.69 201.246C87.7352 201.299 87.7695 201.361 87.7908 201.428C87.7908 201.59 89.0392 205.488 85.0909 216.236C82.3808 223.676 82.0459 228.873 83.9236 232.121C85.1924 234.263 87.4355 235.542 90.785 236.039C100.153 237.45 105.837 236.648 107.127 228.376C108.375 220.327 101.037 211.182 100.955 211.121C100.912 211.07 100.88 211.011 100.86 210.947C100.841 210.884 100.834 210.817 100.841 210.751C100.847 210.684 100.867 210.62 100.899 210.562C100.931 210.503 100.974 210.452 101.026 210.41C101.13 210.326 101.263 210.286 101.396 210.3C101.529 210.313 101.652 210.378 101.737 210.481C102.052 210.867 109.451 220.063 108.121 228.569C107.005 235.43 102.904 237.592 96.804 237.592Z"
    fill="#231F20" />
  <path
    d="M360.166 138.021H217.223C215.538 138.018 213.92 138.683 212.724 139.87C211.528 141.056 210.85 142.669 210.839 144.354V187.887L194.599 207.781L210.839 202.016V324.395C210.839 326.088 211.512 327.712 212.709 328.909C213.906 330.107 215.53 330.779 217.223 330.779H360.166C361.859 330.779 363.483 330.107 364.68 328.909C365.878 327.712 366.55 326.088 366.55 324.395V144.354C366.537 142.67 365.858 141.059 364.662 139.872C363.467 138.686 361.85 138.02 360.166 138.021Z"
    fill="white" />
  <path
    d="M360.166 331.287H217.224C215.397 331.284 213.645 330.557 212.353 329.265C211.061 327.973 210.334 326.222 210.332 324.395V202.727L194.772 208.299C194.667 208.338 194.553 208.341 194.446 208.308C194.34 208.275 194.248 208.207 194.183 208.117C194.117 208.029 194.082 207.922 194.082 207.812C194.082 207.702 194.117 207.596 194.183 207.508L210.311 187.746V144.354C210.314 142.528 211.041 140.778 212.334 139.488C213.626 138.197 215.377 137.473 217.203 137.473H360.166C361.992 137.473 363.743 138.197 365.036 139.488C366.328 140.778 367.055 142.528 367.058 144.354V324.395C367.055 326.222 366.328 327.973 365.036 329.265C363.744 330.557 361.993 331.284 360.166 331.287ZM210.839 201.509C210.944 201.509 211.047 201.541 211.134 201.6C211.2 201.647 211.255 201.709 211.292 201.782C211.329 201.854 211.348 201.935 211.347 202.017V324.395C211.349 325.953 211.969 327.446 213.071 328.548C214.172 329.649 215.666 330.269 217.224 330.272H360.166C361.724 330.269 363.217 329.649 364.319 328.548C365.42 327.446 366.04 325.953 366.043 324.395V144.354C366.04 142.797 365.42 141.305 364.318 140.205C363.216 139.105 361.723 138.488 360.166 138.488H217.224C215.667 138.488 214.173 139.105 213.072 140.205C211.97 141.305 211.349 142.797 211.347 144.354V187.888C211.345 188.002 211.306 188.113 211.235 188.202L196.142 206.696L210.667 201.539C210.722 201.52 210.78 201.509 210.839 201.509Z"
    fill="#231F20" />
  <path
    d="M193.31 262.724C201.43 251.204 201.43 251.204 200.973 247.235C200.618 244.19 199.095 241.52 197.502 239.003C195.472 235.796 191.036 230.883 189.382 237.43C188.56 240.576 187.291 244.444 188.164 247.671C188.976 250.655 191.209 253.102 192.437 255.903"
    fill="white" />
  <path
    d="M193.31 263.231C193.205 263.231 193.103 263.199 193.016 263.14C192.907 263.06 192.834 262.942 192.811 262.809C192.788 262.677 192.818 262.54 192.894 262.429C200.913 251.071 200.913 251.071 200.466 247.296C200.121 244.251 198.527 241.571 197.066 239.277C195.604 236.983 193.29 234.517 191.788 234.74C190.773 234.903 190.143 236.364 189.829 237.562L189.534 238.658C188.763 241.541 187.87 244.809 188.621 247.539C189.178 249.245 189.978 250.862 190.996 252.34C191.694 253.417 192.318 254.539 192.864 255.7C192.917 255.824 192.92 255.964 192.87 256.089C192.821 256.215 192.724 256.316 192.6 256.37C192.476 256.424 192.336 256.426 192.21 256.377C192.084 256.327 191.984 256.23 191.93 256.106C191.401 254.987 190.797 253.906 190.123 252.868C189.053 251.305 188.216 249.596 187.636 247.793C186.824 244.799 187.748 241.388 188.56 238.384L188.854 237.298C189.413 235.126 190.346 233.928 191.625 233.725C194.274 233.309 197.116 237.44 197.928 238.719C199.451 241.114 201.095 243.936 201.481 247.164C201.968 251.325 201.968 251.325 193.726 263.008C193.681 263.077 193.619 263.133 193.546 263.172C193.474 263.211 193.393 263.231 193.31 263.231Z"
    fill="#231F20" />
  <path
    d="M93.6167 278.334C93.6167 278.334 130.055 312.012 140.469 308.165C150.883 304.318 163.012 288.261 170.158 277.065C177.303 265.87 186.56 250.401 187.92 243.51C189.28 236.618 187.149 231.472 184.571 232.761C181.993 234.05 172.34 243.499 172.34 243.499C172.34 243.499 175.598 234.263 174.076 234.222C172.553 234.182 168.067 238.282 166.575 251.477L135.617 282.942L110.242 258.197"
    fill="white" />
  <path
    d="M138.622 308.957C126.168 308.957 94.6825 279.999 93.2717 278.7C93.2241 278.653 93.1864 278.596 93.1606 278.535C93.1348 278.473 93.1216 278.406 93.1216 278.339C93.1216 278.272 93.1348 278.206 93.1606 278.144C93.1864 278.082 93.2241 278.026 93.2717 277.979C93.3683 277.885 93.4975 277.833 93.632 277.833C93.7665 277.833 93.8958 277.885 93.9923 277.979C94.0837 278.07 103.209 286.485 113.48 294.31C126.96 304.582 136.237 309.221 140.327 307.708C152.132 303.354 165.844 282.963 169.762 276.812C177.101 265.312 186.124 250.178 187.454 243.439C188.469 238.516 187.535 234.446 186.104 233.36C185.932 233.209 185.717 233.116 185.49 233.092C185.263 233.069 185.034 233.116 184.835 233.228C182.348 234.466 172.817 243.804 172.716 243.895C172.636 243.976 172.53 244.026 172.417 244.038C172.304 244.049 172.191 244.02 172.097 243.956C171.999 243.897 171.925 243.807 171.886 243.7C171.847 243.593 171.846 243.475 171.883 243.368C173.132 239.825 174.228 235.643 173.974 234.771C172.959 234.984 168.605 238.272 167.103 251.508C167.085 251.621 167.036 251.726 166.961 251.812L136.003 283.277C135.957 283.325 135.902 283.362 135.841 283.388C135.78 283.413 135.714 283.427 135.648 283.427C135.582 283.427 135.516 283.413 135.455 283.388C135.394 283.362 135.339 283.325 135.293 283.277L109.918 258.532C109.821 258.438 109.765 258.309 109.763 258.173C109.761 258.038 109.813 257.908 109.908 257.811C110.002 257.714 110.131 257.659 110.266 257.657C110.401 257.655 110.531 257.707 110.628 257.801L135.689 282.161L166.139 251.173C167.671 238.049 172.229 233.695 174.106 233.695C174.238 233.694 174.368 233.727 174.484 233.791C174.599 233.855 174.697 233.948 174.766 234.06C175.446 235.075 174.411 238.871 173.507 241.662C176.349 238.932 182.358 233.279 184.378 232.274C184.748 232.078 185.167 231.994 185.584 232.034C186.001 232.074 186.397 232.235 186.723 232.497C188.692 234.009 189.423 238.668 188.448 243.581C187.088 250.483 178.004 265.728 170.615 277.309C165.54 285.277 152.446 304.268 140.672 308.612C140.015 308.85 139.321 308.967 138.622 308.957Z"
    fill="#231F20" />
  <path
    d="M323.666 282.892H256.585C251.635 282.892 247.623 286.904 247.623 291.854V296.097C247.623 301.047 251.635 305.059 256.585 305.059H323.666C328.616 305.059 332.629 301.047 332.629 296.097V291.854C332.629 286.904 328.616 282.892 323.666 282.892Z"
    fill="black" />
  <path
    d="M253.317 247.529L249.795 242.221H251.825L254.18 246.169L256.555 242.221H258.493L254.971 247.529V251.589H253.307L253.317 247.529Z"
    fill="black" />
  <path
    d="M257.6 248.392C257.592 247.921 257.686 247.453 257.874 247.022C258.042 246.622 258.291 246.263 258.605 245.966C258.92 245.669 259.293 245.44 259.701 245.296C260.572 244.972 261.53 244.972 262.401 245.296C262.808 245.442 263.182 245.67 263.497 245.966C263.808 246.253 264.06 246.598 264.238 246.981C264.418 247.415 264.508 247.881 264.502 248.351C264.506 248.821 264.416 249.287 264.238 249.721C264.067 250.124 263.815 250.486 263.497 250.787C263.181 251.089 262.808 251.327 262.401 251.488C261.53 251.812 260.572 251.812 259.701 251.488C259.296 251.322 258.925 251.085 258.605 250.787C258.294 250.483 258.046 250.121 257.874 249.721C257.693 249.301 257.6 248.849 257.6 248.392ZM259.214 248.392C259.217 248.643 259.254 248.892 259.326 249.133C259.402 249.369 259.515 249.591 259.66 249.792C259.816 249.988 260.009 250.151 260.229 250.27C260.595 250.464 261.017 250.522 261.422 250.435C261.827 250.348 262.188 250.12 262.442 249.792C262.595 249.596 262.709 249.372 262.777 249.133C262.853 248.893 262.89 248.643 262.888 248.392C262.892 248.14 262.854 247.89 262.777 247.651C262.705 247.416 262.592 247.196 262.442 247.001C262.291 246.804 262.096 246.644 261.873 246.534C261.616 246.414 261.335 246.351 261.051 246.351C260.767 246.351 260.486 246.414 260.229 246.534C260.008 246.646 259.813 246.806 259.66 247.001C259.517 247.2 259.404 247.419 259.326 247.651C259.253 247.891 259.215 248.141 259.214 248.392Z"
    fill="black" />
  <path
    d="M271.81 251.589H270.308V250.574C270.145 250.915 269.892 251.206 269.577 251.416C269.209 251.656 268.778 251.78 268.339 251.772C267.989 251.774 267.643 251.702 267.324 251.558C267.039 251.425 266.788 251.227 266.593 250.98C266.403 250.735 266.262 250.456 266.177 250.158C266.092 249.85 266.048 249.533 266.045 249.214V245.245H267.638V248.757C267.624 248.953 267.624 249.15 267.638 249.346C267.657 249.538 267.716 249.725 267.811 249.894C267.892 250.055 268.015 250.192 268.166 250.29C268.35 250.409 268.567 250.466 268.785 250.452C269.011 250.457 269.235 250.405 269.435 250.3C269.616 250.205 269.775 250.074 269.902 249.914C270.025 249.749 270.118 249.564 270.176 249.366C270.235 249.161 270.266 248.95 270.267 248.737V245.245H271.81V251.589Z"
    fill="black" />
  <path
    d="M273.739 245.246H275.261V246.261C275.43 245.903 275.685 245.593 276.002 245.357C276.329 245.129 276.72 245.008 277.119 245.012H277.312C277.376 245.006 277.44 245.006 277.504 245.012V246.474L277.23 246.413H277.007C276.703 246.401 276.402 246.471 276.134 246.616C275.931 246.734 275.757 246.897 275.627 247.093C275.503 247.262 275.417 247.456 275.373 247.661C275.33 247.81 275.306 247.963 275.302 248.118V251.518H273.739V245.246Z"
    fill="black" />
  <path
    d="M281.493 246.869C281.481 246.174 281.609 245.484 281.869 244.839C282.095 244.259 282.44 243.734 282.884 243.297C283.34 242.858 283.878 242.513 284.467 242.282C285.116 242.041 285.805 241.924 286.497 241.936C287.189 241.927 287.877 242.044 288.527 242.282C289.12 242.51 289.662 242.855 290.121 243.297C290.563 243.734 290.909 244.26 291.136 244.839C291.641 246.145 291.641 247.593 291.136 248.899C290.906 249.481 290.561 250.009 290.121 250.452C289.663 250.894 289.121 251.24 288.527 251.467C287.88 251.717 287.191 251.841 286.497 251.833C285.803 251.844 285.114 251.72 284.467 251.467C283.877 251.237 283.339 250.892 282.884 250.452C282.442 250.01 282.097 249.481 281.869 248.899C281.608 248.255 281.481 247.564 281.493 246.869ZM283.3 246.869C283.295 247.34 283.374 247.807 283.533 248.25C283.67 248.653 283.889 249.023 284.178 249.336C284.466 249.649 284.817 249.898 285.208 250.067C286.048 250.405 286.987 250.405 287.827 250.067C288.209 249.896 288.554 249.651 288.842 249.346C289.135 249.03 289.359 248.657 289.501 248.25C289.66 247.807 289.739 247.34 289.735 246.869C289.738 246.409 289.658 245.952 289.501 245.519C289.354 245.118 289.13 244.749 288.842 244.433C288.559 244.123 288.213 243.878 287.827 243.713C287.411 243.53 286.961 243.44 286.507 243.449C286.053 243.439 285.603 243.529 285.188 243.713C284.803 243.88 284.458 244.126 284.173 244.433C283.891 244.752 283.671 245.12 283.523 245.519C283.369 245.953 283.294 246.41 283.3 246.869Z"
    fill="black" />
  <path
    d="M293.125 245.245H294.648V246.26C294.813 245.901 295.068 245.59 295.388 245.357C295.712 245.129 296.099 245.008 296.495 245.012H296.698C296.759 245.005 296.82 245.005 296.881 245.012V246.473L296.606 246.412H296.393C296.089 246.4 295.788 246.47 295.52 246.615C295.312 246.73 295.134 246.894 295.003 247.092C294.887 247.267 294.802 247.459 294.749 247.661C294.714 247.811 294.693 247.964 294.688 248.118V251.518H293.125V245.245Z"
    fill="black" />
  <path
    d="M304.117 251.589H302.615V250.635C302.399 251.005 302.078 251.302 301.691 251.488C301.3 251.679 300.869 251.777 300.433 251.772C300.001 251.781 299.572 251.695 299.177 251.52C298.783 251.344 298.432 251.084 298.149 250.757C297.875 250.442 297.665 250.076 297.53 249.681C297.382 249.26 297.306 248.817 297.307 248.372C297.305 247.925 297.384 247.481 297.54 247.062C297.679 246.685 297.893 246.34 298.169 246.047C298.452 245.74 298.799 245.497 299.184 245.337C299.573 245.16 299.996 245.07 300.423 245.073C300.687 245.073 300.949 245.107 301.204 245.174C301.411 245.238 301.611 245.319 301.803 245.418C301.965 245.507 302.115 245.616 302.25 245.743C302.359 245.843 302.461 245.952 302.554 246.067V241.591H304.138L304.117 251.589ZM298.89 248.392C298.893 248.643 298.931 248.892 299.002 249.133C299.078 249.371 299.194 249.594 299.347 249.793C299.5 249.99 299.694 250.153 299.915 250.27C300.163 250.396 300.439 250.459 300.717 250.452C300.989 250.458 301.258 250.395 301.499 250.27C301.726 250.158 301.927 249.999 302.087 249.803C302.249 249.61 302.376 249.39 302.463 249.153C302.544 248.914 302.585 248.664 302.585 248.412C302.583 248.16 302.542 247.91 302.463 247.671C302.376 247.431 302.249 247.208 302.087 247.011C301.924 246.815 301.724 246.653 301.499 246.534C301.258 246.409 300.989 246.346 300.717 246.352C300.439 246.345 300.163 246.408 299.915 246.534C299.692 246.644 299.498 246.804 299.347 247.001C299.197 247.197 299.08 247.417 299.002 247.651C298.929 247.891 298.892 248.141 298.89 248.392Z"
    fill="black" />
  <path
    d="M312.106 248.493V248.706C312.111 248.777 312.111 248.848 312.106 248.919H307.274C307.292 249.139 307.354 249.354 307.457 249.549C307.555 249.739 307.693 249.905 307.863 250.036C308.033 250.174 308.225 250.284 308.431 250.361C308.642 250.442 308.865 250.483 309.091 250.483C309.443 250.497 309.793 250.42 310.106 250.259C310.376 250.119 310.606 249.913 310.776 249.66L311.842 250.503C311.527 250.924 311.113 251.26 310.636 251.481C310.16 251.703 309.636 251.802 309.111 251.772C308.648 251.778 308.188 251.702 307.751 251.548C307.353 251.4 306.988 251.176 306.675 250.889C306.368 250.603 306.122 250.258 305.955 249.874C305.617 248.974 305.617 247.982 305.955 247.082C306.119 246.681 306.36 246.315 306.665 246.006C306.972 245.712 307.335 245.481 307.731 245.326C308.55 245.008 309.459 245.008 310.279 245.326C310.662 245.462 311.01 245.684 311.294 245.976C311.58 246.281 311.798 246.645 311.933 247.042C312.074 247.512 312.132 248.003 312.106 248.493ZM310.522 247.783C310.523 247.586 310.492 247.391 310.431 247.204C310.382 247.02 310.292 246.85 310.167 246.707C310.036 246.56 309.873 246.445 309.69 246.372C309.481 246.286 309.256 246.244 309.03 246.25C308.586 246.238 308.152 246.39 307.812 246.676C307.49 246.958 307.293 247.356 307.264 247.783H310.522Z"
    fill="black" />
  <path
    d="M313.638 245.245H315.161V246.26C315.327 245.901 315.582 245.59 315.902 245.357C316.225 245.129 316.612 245.008 317.008 245.012H317.211C317.272 245.005 317.333 245.005 317.394 245.012V246.473L317.12 246.412H316.907C316.603 246.4 316.301 246.47 316.034 246.615C315.825 246.73 315.648 246.894 315.516 247.092C315.401 247.267 315.315 247.459 315.262 247.661C315.227 247.811 315.207 247.964 315.201 248.118V251.518H313.608L313.638 245.245Z"
    fill="black" />
  <path
    d="M321.545 243.084C321.544 242.958 321.569 242.834 321.617 242.719C321.666 242.604 321.738 242.5 321.829 242.414C322.022 242.227 322.281 242.125 322.55 242.13C322.684 242.125 322.817 242.146 322.943 242.194C323.068 242.241 323.183 242.312 323.281 242.404C323.378 242.487 323.456 242.592 323.509 242.71C323.562 242.827 323.588 242.955 323.585 243.084C323.588 243.213 323.563 243.341 323.51 243.458C323.457 243.576 323.379 243.68 323.281 243.764C323.183 243.855 323.068 243.927 322.943 243.974C322.817 244.021 322.684 244.043 322.55 244.038C322.281 244.042 322.022 243.94 321.829 243.754C321.738 243.667 321.666 243.563 321.617 243.448C321.569 243.333 321.544 243.209 321.545 243.084ZM321.768 245.246H323.362V251.589H321.768V245.246Z"
    fill="black" />
  <path
    d="M328.782 246.93C328.627 246.731 328.429 246.568 328.204 246.453C327.959 246.315 327.682 246.245 327.402 246.25C327.16 246.245 326.92 246.297 326.701 246.403C326.601 246.449 326.517 246.523 326.459 246.617C326.401 246.711 326.373 246.82 326.377 246.93C326.372 247.045 326.404 247.157 326.468 247.252C326.532 247.347 326.624 247.419 326.732 247.458C327.062 247.588 327.401 247.693 327.747 247.773C327.991 247.828 328.231 247.895 328.468 247.976C328.703 248.063 328.925 248.183 329.127 248.331C329.325 248.475 329.491 248.658 329.615 248.869C329.742 249.113 329.805 249.385 329.797 249.661C329.816 250.013 329.738 250.364 329.574 250.676C329.438 250.937 329.239 251.16 328.995 251.325C328.742 251.502 328.455 251.626 328.153 251.691C327.34 251.88 326.49 251.828 325.707 251.538C325.264 251.369 324.865 251.102 324.54 250.757L325.555 249.742C325.742 249.978 325.977 250.172 326.245 250.31C326.536 250.463 326.86 250.539 327.189 250.534C327.303 250.548 327.419 250.548 327.534 250.534C327.652 250.515 327.766 250.473 327.869 250.412C327.969 250.356 328.052 250.276 328.112 250.178C328.177 250.071 328.209 249.948 328.204 249.823C328.209 249.702 328.176 249.583 328.111 249.481C328.045 249.38 327.95 249.3 327.838 249.255C327.488 249.105 327.124 248.99 326.752 248.91C326.515 248.857 326.281 248.79 326.052 248.707C325.835 248.63 325.632 248.516 325.453 248.372C325.277 248.234 325.132 248.061 325.027 247.864C324.919 247.629 324.867 247.372 324.874 247.113C324.865 246.795 324.939 246.48 325.088 246.2C325.227 245.946 325.426 245.731 325.666 245.57C325.911 245.404 326.182 245.281 326.468 245.205C326.773 245.123 327.087 245.082 327.402 245.083C327.859 245.083 328.313 245.166 328.742 245.327C329.145 245.464 329.498 245.719 329.757 246.057L328.782 246.93Z"
    fill="black" />
  <path
    d="M265.304 260.298C265.045 259.957 264.693 259.7 264.289 259.557C263.918 259.407 263.522 259.328 263.122 259.323C262.667 259.318 262.217 259.412 261.802 259.597C261.418 259.765 261.073 260.011 260.787 260.318C260.499 260.634 260.275 261.003 260.128 261.404C259.971 261.837 259.892 262.294 259.894 262.754C259.893 263.23 259.968 263.703 260.118 264.155C260.256 264.561 260.477 264.934 260.767 265.251C261.049 265.558 261.395 265.797 261.782 265.951C262.196 266.128 262.642 266.214 263.091 266.205C263.555 266.21 264.013 266.109 264.431 265.911C264.8 265.723 265.12 265.452 265.365 265.119L266.705 266.063C266.296 266.576 265.775 266.99 265.182 267.271C264.523 267.568 263.805 267.714 263.081 267.697C262.389 267.705 261.7 267.584 261.051 267.342C260.462 267.112 259.923 266.767 259.468 266.327C259.026 265.881 258.681 265.349 258.453 264.764C258.19 264.12 258.062 263.429 258.077 262.734C258.069 262.037 258.203 261.346 258.473 260.704C258.713 260.119 259.076 259.592 259.539 259.161C259.999 258.717 260.545 258.372 261.143 258.146C261.793 257.908 262.481 257.791 263.173 257.801C263.489 257.803 263.805 257.831 264.117 257.882C264.435 257.942 264.748 258.031 265.05 258.146C265.349 258.266 265.634 258.416 265.903 258.593C266.164 258.762 266.391 258.979 266.573 259.232L265.304 260.298Z"
    fill="black" />
  <path
    d="M267.141 264.266C267.135 263.814 267.222 263.366 267.397 262.948C267.572 262.531 267.83 262.154 268.156 261.841C268.474 261.543 268.851 261.315 269.262 261.171C270.129 260.846 271.085 260.846 271.952 261.171C272.363 261.315 272.74 261.543 273.058 261.841C273.384 262.154 273.643 262.531 273.817 262.948C273.992 263.366 274.079 263.814 274.073 264.266C274.079 264.737 273.985 265.204 273.799 265.637C273.63 266.04 273.38 266.404 273.064 266.706C272.748 267.009 272.373 267.242 271.962 267.393C271.097 267.731 270.137 267.731 269.272 267.393C268.642 267.151 268.102 266.722 267.724 266.162C267.346 265.603 267.15 264.941 267.161 264.266H267.141ZM268.755 264.266C268.758 264.517 268.795 264.767 268.866 265.007C268.942 265.246 269.059 265.469 269.211 265.667C269.365 265.865 269.559 266.027 269.78 266.144C270.035 266.265 270.314 266.327 270.597 266.327C270.879 266.327 271.158 266.265 271.414 266.144C271.635 266.027 271.829 265.865 271.982 265.667C272.136 265.471 272.249 265.247 272.317 265.007C272.397 264.768 272.438 264.518 272.439 264.266C272.439 264.014 272.398 263.764 272.317 263.525C272.249 263.289 272.135 263.069 271.982 262.876C271.832 262.676 271.637 262.512 271.414 262.399C271.157 262.286 270.878 262.227 270.597 262.227C270.316 262.227 270.037 262.286 269.78 262.399C269.557 262.512 269.362 262.676 269.211 262.876C269.059 263.07 268.942 263.29 268.866 263.525C268.797 263.766 268.763 264.016 268.765 264.266H268.755Z"
    fill="black" />
  <path
    d="M275.586 261.079H277.088V262.094C277.248 261.751 277.501 261.459 277.819 261.252C278.184 261.004 278.617 260.877 279.057 260.887C279.425 260.874 279.791 260.951 280.123 261.11C280.405 261.244 280.654 261.438 280.854 261.678C281.04 261.926 281.181 262.204 281.27 262.5C281.354 262.811 281.399 263.132 281.402 263.454V267.423H279.808V263.901C279.808 263.718 279.808 263.526 279.808 263.323C279.78 263.132 279.722 262.947 279.636 262.774C279.545 262.614 279.42 262.476 279.27 262.368C279.084 262.257 278.869 262.2 278.651 262.206C278.422 262.205 278.197 262.257 277.991 262.358C277.813 262.456 277.657 262.591 277.535 262.754C277.412 262.919 277.319 263.105 277.261 263.302C277.2 263.506 277.169 263.718 277.169 263.932V267.423H275.586V261.079Z"
    fill="black" />
  <path
    d="M283.534 262.389H282.326V261.08H283.534V260.146C283.533 259.777 283.574 259.409 283.655 259.05C283.735 258.72 283.88 258.409 284.082 258.136C284.288 257.863 284.561 257.646 284.873 257.507C285.261 257.34 285.68 257.26 286.101 257.273H286.538C286.661 257.287 286.784 257.311 286.903 257.344L286.802 258.694C286.708 258.668 286.614 258.648 286.518 258.633C286.41 258.623 286.301 258.623 286.193 258.633C285.998 258.623 285.804 258.669 285.635 258.765C285.501 258.853 285.389 258.971 285.31 259.11C285.237 259.258 285.185 259.415 285.158 259.577C285.147 259.74 285.147 259.902 285.158 260.065V261.08H286.629V262.358H285.158V267.433H283.574L283.534 262.389ZM287.523 258.958C287.525 258.706 287.627 258.465 287.807 258.288C288 258.102 288.259 258 288.527 258.004C288.663 257.998 288.798 258.019 288.926 258.066C289.053 258.113 289.169 258.185 289.268 258.278C289.361 258.366 289.435 258.471 289.486 258.588C289.536 258.705 289.562 258.831 289.562 258.958C289.562 259.086 289.536 259.212 289.486 259.329C289.435 259.446 289.361 259.551 289.268 259.638C289.169 259.731 289.053 259.803 288.926 259.85C288.798 259.897 288.663 259.919 288.527 259.912C288.259 259.917 288 259.814 287.807 259.628C287.627 259.451 287.525 259.21 287.523 258.958ZM287.756 261.11H289.339V267.464H287.756V261.11Z"
    fill="black" />
  <path
    d="M291.095 261.079H292.618V262.145C292.787 261.788 293.041 261.477 293.359 261.242C293.684 261.009 294.075 260.888 294.475 260.897H294.668C294.732 260.886 294.797 260.886 294.861 260.897V262.348H294.587H294.364C294.061 262.334 293.759 262.401 293.491 262.541C293.289 262.662 293.116 262.825 292.983 263.018C292.861 263.189 292.775 263.382 292.729 263.586C292.687 263.739 292.663 263.895 292.658 264.053V267.454H291.095V261.079Z"
    fill="black" />
  <path
    d="M303.519 260.927C303.887 260.915 304.252 260.992 304.585 261.151C304.865 261.283 305.111 261.477 305.305 261.719C305.498 261.963 305.643 262.242 305.731 262.541C305.816 262.852 305.86 263.173 305.863 263.495V267.464H304.29V263.942C304.305 263.749 304.305 263.556 304.29 263.363C304.271 263.171 304.213 262.984 304.118 262.815C304.027 262.628 303.881 262.473 303.7 262.371C303.518 262.269 303.31 262.226 303.103 262.247C302.879 262.245 302.659 262.301 302.463 262.409C302.294 262.517 302.147 262.655 302.027 262.815C301.913 262.989 301.831 263.181 301.783 263.384C301.726 263.585 301.698 263.793 301.702 264.003V267.464H300.108V263.627C300.13 263.267 300.03 262.909 299.824 262.612C299.721 262.476 299.584 262.369 299.428 262.3C299.272 262.231 299.101 262.202 298.931 262.216C298.715 262.217 298.503 262.27 298.312 262.369C298.142 262.467 297.997 262.603 297.886 262.764C297.773 262.933 297.687 263.118 297.632 263.313C297.574 263.517 297.547 263.729 297.551 263.942V267.433H295.957V261.08H297.469V262.095C297.545 261.931 297.64 261.778 297.754 261.638C297.881 261.497 298.024 261.371 298.18 261.262C298.351 261.137 298.544 261.044 298.748 260.988C299.069 260.893 299.405 260.864 299.737 260.904C300.069 260.945 300.389 261.053 300.677 261.222C301.004 261.437 301.264 261.739 301.428 262.095C301.623 261.726 301.914 261.418 302.27 261.201C302.654 260.998 303.085 260.903 303.519 260.927Z"
    fill="black" />
  <path
    d="M313.77 264.368V264.581C313.77 264.652 313.77 264.723 313.77 264.794H308.939C308.952 265.015 309.015 265.23 309.121 265.424C309.221 265.61 309.355 265.775 309.517 265.911C309.69 266.046 309.881 266.156 310.086 266.236C310.297 266.313 310.52 266.351 310.745 266.347C311.096 266.362 311.445 266.289 311.76 266.134C312.031 265.991 312.264 265.786 312.44 265.535L313.455 266.378C313.141 266.796 312.728 267.131 312.254 267.352C311.78 267.574 311.258 267.675 310.735 267.647C310.268 267.655 309.803 267.576 309.365 267.413C308.967 267.269 308.601 267.049 308.289 266.763C307.985 266.477 307.743 266.132 307.579 265.748C307.227 264.851 307.227 263.854 307.579 262.957C307.736 262.552 307.978 262.185 308.289 261.881C308.578 261.586 308.923 261.352 309.304 261.191C309.731 261.027 310.186 260.944 310.644 260.948C311.06 260.942 311.474 261.018 311.862 261.171C312.247 261.303 312.596 261.526 312.877 261.82C313.158 262.111 313.375 262.457 313.516 262.835C313.69 263.327 313.776 263.846 313.77 264.368ZM312.176 263.658C312.18 263.458 312.153 263.26 312.095 263.069C312.037 262.89 311.944 262.725 311.821 262.582C311.694 262.435 311.534 262.32 311.354 262.247C311.142 262.158 310.914 262.113 310.684 262.115C310.242 262.106 309.812 262.262 309.477 262.551C309.313 262.687 309.18 262.856 309.085 263.046C308.991 263.237 308.938 263.445 308.928 263.658H312.176Z"
    fill="black" />
  <path
    d="M321.758 267.464H320.246V266.51C320.03 266.877 319.708 267.17 319.322 267.352C318.933 267.552 318.501 267.653 318.064 267.646C317.612 267.653 317.165 267.56 316.754 267.372C316.367 267.209 316.021 266.963 315.739 266.652C315.465 266.337 315.255 265.971 315.12 265.576C314.967 265.156 314.891 264.713 314.897 264.266C314.896 263.82 314.971 263.377 315.12 262.957C315.27 262.583 315.486 262.239 315.759 261.942C316.046 261.642 316.392 261.403 316.774 261.242C317.167 261.066 317.593 260.977 318.023 260.978C318.287 260.972 318.55 261.007 318.804 261.079C319.014 261.134 319.215 261.216 319.403 261.323C319.563 261.412 319.712 261.518 319.85 261.637C319.96 261.741 320.062 261.853 320.154 261.972V257.517H321.738L321.758 267.464ZM316.531 264.266C316.534 264.517 316.571 264.767 316.643 265.007C316.719 265.243 316.832 265.466 316.977 265.667C317.137 265.863 317.334 266.025 317.556 266.144C317.804 266.271 318.08 266.333 318.358 266.327C318.629 266.331 318.898 266.269 319.139 266.144C319.367 266.032 319.568 265.873 319.728 265.677C320.043 265.281 320.218 264.792 320.225 264.287C320.226 264.034 320.182 263.783 320.094 263.546C320.014 263.305 319.89 263.081 319.728 262.886C319.565 262.69 319.365 262.528 319.139 262.409C318.898 262.284 318.629 262.222 318.358 262.226C318.093 262.217 317.829 262.271 317.589 262.384C317.349 262.497 317.139 262.665 316.977 262.876C316.832 263.073 316.719 263.292 316.643 263.525C316.57 263.766 316.532 264.015 316.531 264.266Z"
    fill="black" />
  <path
    d="M288.69 223.433C283.488 223.433 278.404 221.891 274.079 219.001C269.754 216.111 266.383 212.004 264.393 207.199C262.403 202.393 261.882 197.105 262.896 192.004C263.911 186.903 266.416 182.217 270.094 178.539C273.772 174.861 278.458 172.356 283.559 171.341C288.661 170.327 293.948 170.847 298.754 172.838C303.559 174.828 307.667 178.199 310.556 182.524C313.446 186.849 314.988 191.933 314.988 197.135C314.98 204.107 312.207 210.791 307.277 215.722C302.347 220.652 295.662 223.425 288.69 223.433ZM288.69 171.861C283.689 171.861 278.8 173.344 274.642 176.123C270.484 178.902 267.243 182.851 265.33 187.471C263.416 192.092 262.916 197.176 263.893 202.081C264.869 206.986 267.278 211.491 270.815 215.027C274.352 218.562 278.858 220.969 283.763 221.944C288.669 222.918 293.753 222.416 298.372 220.501C302.992 218.586 306.94 215.343 309.717 211.184C312.494 207.025 313.975 202.136 313.973 197.135C313.963 190.433 311.295 184.009 306.556 179.272C301.816 174.534 295.391 171.869 288.69 171.861Z"
    fill="#D1D3D4" />
  <path
    d="M349.021 153.723C348.955 153.726 348.889 153.714 348.828 153.69C348.767 153.665 348.712 153.628 348.666 153.581C348.618 153.534 348.58 153.477 348.555 153.416C348.529 153.354 348.516 153.287 348.516 153.22C348.516 153.153 348.529 153.087 348.555 153.025C348.58 152.963 348.618 152.907 348.666 152.86L355.182 146.384C355.277 146.291 355.404 146.239 355.537 146.239C355.67 146.239 355.798 146.291 355.893 146.384C355.94 146.432 355.978 146.488 356.004 146.549C356.029 146.611 356.043 146.678 356.043 146.745C356.043 146.812 356.029 146.878 356.004 146.94C355.978 147.002 355.94 147.058 355.893 147.105L349.376 153.621C349.327 153.661 349.27 153.691 349.209 153.709C349.148 153.726 349.084 153.731 349.021 153.723Z"
    fill="#D1D3D4" />
  <path
    d="M355.537 153.723C355.471 153.726 355.406 153.714 355.344 153.69C355.283 153.665 355.228 153.628 355.182 153.581L348.666 147.064C348.618 147.017 348.58 146.961 348.555 146.899C348.529 146.837 348.516 146.771 348.516 146.704C348.516 146.637 348.529 146.571 348.555 146.509C348.58 146.447 348.618 146.391 348.666 146.344C348.761 146.251 348.888 146.199 349.021 146.199C349.154 146.199 349.281 146.251 349.376 146.344L355.893 152.86C355.94 152.907 355.978 152.963 356.004 153.025C356.029 153.087 356.043 153.153 356.043 153.22C356.043 153.287 356.029 153.354 356.004 153.416C355.978 153.477 355.94 153.534 355.893 153.581C355.847 153.628 355.791 153.665 355.73 153.69C355.669 153.714 355.603 153.726 355.537 153.723Z"
    fill="#D1D3D4" />
  <path
    d="M307.162 190.506C306.983 190.797 306.779 191.072 306.553 191.328L284.914 212.938C284.802 213.105 284.652 213.243 284.475 213.338C284.297 213.433 284.1 213.482 283.899 213.482C283.698 213.482 283.5 213.433 283.323 213.338C283.146 213.243 282.995 213.105 282.884 212.938C278.824 208.756 274.764 204.567 270.704 200.372C270.55 200.257 270.427 200.107 270.345 199.934C270.262 199.761 270.223 199.571 270.23 199.379C270.237 199.188 270.29 199.001 270.385 198.834C270.48 198.668 270.613 198.527 270.775 198.423L273.82 195.673C273.929 195.535 274.068 195.424 274.226 195.348C274.384 195.272 274.558 195.232 274.733 195.232C274.909 195.232 275.082 195.272 275.24 195.348C275.398 195.424 275.537 195.535 275.647 195.673L282.843 203.001C283.594 203.762 284.152 203.772 284.873 203.001L301.681 186.264C301.791 186.094 301.941 185.954 302.118 185.858C302.296 185.761 302.494 185.71 302.696 185.71C302.898 185.71 303.097 185.761 303.274 185.858C303.452 185.954 303.602 186.094 303.711 186.264C304.665 187.218 305.62 188.172 306.553 189.136C306.769 189.389 306.966 189.657 307.142 189.938L307.162 190.506Z"
    fill="black" />
  <path
    d="M118.941 199.814C117.593 199.821 116.27 199.445 115.128 198.729C113.986 198.013 113.071 196.986 112.49 195.77C111.909 194.553 111.687 193.196 111.848 191.858C112.01 190.519 112.549 189.254 113.402 188.211C114.256 187.167 115.389 186.388 116.669 185.964C117.949 185.54 119.323 185.489 120.63 185.817C121.938 186.145 123.126 186.839 124.054 187.816C124.982 188.794 125.613 190.016 125.873 191.339C126.237 193.172 125.863 195.075 124.834 196.635C123.804 198.194 122.201 199.286 120.372 199.672C119.901 199.764 119.421 199.812 118.941 199.814ZM118.941 186.71C118.535 186.706 118.13 186.747 117.733 186.832C116.545 187.06 115.452 187.637 114.593 188.489C113.734 189.341 113.149 190.43 112.911 191.616C112.673 192.802 112.794 194.032 113.259 195.15C113.723 196.267 114.509 197.22 115.518 197.889C116.526 198.557 117.711 198.91 118.92 198.903C120.13 198.895 121.31 198.527 122.31 197.846C123.31 197.165 124.085 196.202 124.535 195.079C124.985 193.956 125.091 192.725 124.838 191.542C124.552 190.187 123.813 188.97 122.743 188.092C121.673 187.214 120.335 186.727 118.951 186.71H118.941Z"
    fill="#231F20" />
  <path
    d="M133.912 196.748C132.643 196.733 131.402 196.378 130.316 195.72C129.231 195.062 128.341 194.126 127.74 193.008C127.139 191.89 126.849 190.632 126.899 189.363C126.949 188.095 127.338 186.864 128.025 185.797C128.803 184.637 129.905 183.733 131.193 183.196C132.482 182.659 133.9 182.513 135.271 182.777C136.642 183.042 137.904 183.704 138.901 184.681C139.898 185.658 140.584 186.908 140.875 188.273C141.239 190.107 140.865 192.009 139.835 193.569C138.806 195.129 137.203 196.22 135.374 196.606C134.893 196.701 134.403 196.749 133.912 196.748ZM133.912 183.645C133.503 183.645 133.095 183.686 132.694 183.767C131.506 183.995 130.413 184.572 129.554 185.424C128.696 186.276 128.11 187.364 127.872 188.551C127.635 189.737 127.755 190.967 128.22 192.084C128.684 193.201 129.47 194.155 130.479 194.823C131.487 195.492 132.672 195.845 133.882 195.837C135.091 195.83 136.271 195.462 137.271 194.781C138.271 194.1 139.046 193.137 139.496 192.014C139.946 190.891 140.052 189.659 139.799 188.476C139.514 187.123 138.776 185.908 137.708 185.03C136.64 184.152 135.305 183.663 133.923 183.645H133.912Z"
    fill="#231F20" />
  <path
    d="M125.254 191.349C125.162 191.351 125.07 191.326 124.991 191.278C124.933 191.245 124.883 191.2 124.844 191.147C124.804 191.094 124.775 191.034 124.759 190.969C124.743 190.905 124.74 190.838 124.75 190.773C124.76 190.707 124.783 190.644 124.818 190.588C124.961 190.36 125.147 190.162 125.367 190.007C125.586 189.852 125.835 189.742 126.097 189.683C126.36 189.624 126.631 189.619 126.896 189.666C127.161 189.713 127.414 189.813 127.64 189.959C127.742 190.029 127.815 190.134 127.845 190.254C127.876 190.375 127.86 190.502 127.803 190.612C127.745 190.722 127.649 190.808 127.533 190.852C127.417 190.896 127.289 190.896 127.173 190.852C126.158 190.334 125.732 191.024 125.691 191.105C125.645 191.18 125.581 191.242 125.505 191.285C125.428 191.327 125.342 191.35 125.254 191.349Z"
    fill="#231F20" />
  <path
    d="M100.082 194.759C99.9477 194.767 99.8154 194.721 99.7145 194.632C99.6137 194.543 99.5524 194.417 99.5444 194.282C99.5363 194.147 99.582 194.015 99.6715 193.914C99.7609 193.813 99.8868 193.752 100.021 193.744L112.201 192.252C112.268 192.244 112.335 192.249 112.399 192.267C112.463 192.285 112.523 192.315 112.575 192.357C112.627 192.399 112.67 192.45 112.702 192.509C112.734 192.568 112.753 192.632 112.76 192.699C112.777 192.832 112.741 192.967 112.659 193.073C112.577 193.18 112.456 193.249 112.323 193.267L100.143 194.749L100.082 194.759Z"
    fill="#231F20" />
  <path
    d="M100.986 198.677C100.986 198.677 96.8243 184.62 102.397 175.048C107.015 167.111 119.164 161.62 128.107 161.325C125.954 159.543 123.337 158.413 120.564 158.07C117.791 157.726 114.977 158.183 112.455 159.387C103.178 163.447 98.2453 168.024 96.4081 176.347C93.7894 188.385 100.986 198.677 100.986 198.677Z"
    fill="#231F20" />
  <path
    d="M100.986 199.164C100.905 199.163 100.825 199.143 100.753 199.106C100.681 199.069 100.618 199.016 100.57 198.951C100.499 198.839 93.2717 188.334 95.9209 176.225C97.687 168.105 102.275 163.253 112.262 158.899C114.884 157.667 117.802 157.204 120.676 157.563C123.551 157.922 126.264 159.09 128.502 160.929C128.573 160.999 128.622 161.088 128.644 161.185C128.666 161.282 128.659 161.384 128.624 161.477C128.591 161.572 128.529 161.654 128.447 161.712C128.365 161.77 128.268 161.801 128.167 161.802C119.56 162.117 107.472 167.344 102.833 175.312C97.4332 184.579 101.432 198.393 101.473 198.535C101.507 198.65 101.499 198.773 101.45 198.883C101.402 198.992 101.317 199.081 101.209 199.134C101.137 199.158 101.061 199.168 100.986 199.164ZM118.921 158.463C116.764 158.478 114.634 158.945 112.668 159.833C103.016 164.055 98.6005 168.714 96.9054 176.459C95.2104 184.203 97.8088 191.531 99.717 195.399C98.8238 190.577 97.9712 181.645 101.96 174.794C106.528 166.948 118.038 161.66 126.746 160.899C124.439 159.328 121.712 158.486 118.921 158.483V158.463Z"
    fill="#231F20" />
  <path
    d="M107.624 196.201C107.624 196.201 101.717 184.955 96.3675 192.608C91.0184 200.261 100.011 207.772 105.127 206.757"
    fill="white" />
  <path
    d="M104.122 207.366C101.188 207.366 97.6969 205.336 95.7379 202.291C94.7071 200.818 94.1721 199.055 94.2104 197.257C94.2487 195.459 94.8584 193.721 95.9511 192.293C97.3619 190.263 98.9961 189.248 100.711 189.4C104.771 189.654 107.938 195.673 108.08 195.927C108.141 196.048 108.152 196.188 108.11 196.317C108.068 196.446 107.977 196.554 107.857 196.617C107.738 196.678 107.601 196.69 107.473 196.65C107.346 196.61 107.24 196.521 107.177 196.404C107.177 196.343 104.132 190.628 100.651 190.415C99.2904 190.324 97.9811 191.156 96.7834 192.871C95.8162 194.139 95.2756 195.68 95.2391 197.274C95.2026 198.868 95.6722 200.432 96.5804 201.743C98.5495 204.788 102.335 206.757 105.025 206.229C105.158 206.205 105.295 206.234 105.407 206.31C105.519 206.386 105.597 206.502 105.624 206.635C105.648 206.767 105.618 206.903 105.542 207.013C105.466 207.123 105.35 207.199 105.218 207.224C104.858 207.307 104.491 207.355 104.122 207.366Z"
    fill="#231F20" />
  <path
    d="M107.725 256.41C107.655 256.409 107.585 256.395 107.521 256.367C107.456 256.339 107.398 256.299 107.35 256.248C107.228 256.106 94.7737 242.606 86.2274 239.338C86.1582 239.32 86.0934 239.288 86.0373 239.244C85.9812 239.2 85.9351 239.144 85.902 239.081C85.8689 239.018 85.8495 238.948 85.8452 238.877C85.8408 238.805 85.8516 238.734 85.8768 238.667C85.9019 238.6 85.9409 238.539 85.9912 238.489C86.0415 238.438 86.102 238.398 86.1686 238.373C86.2352 238.347 86.3066 238.335 86.3779 238.339C86.4493 238.343 86.5191 238.361 86.5827 238.394C95.3624 241.794 107.583 254.989 108.101 255.558C108.194 255.654 108.247 255.783 108.247 255.918C108.247 256.052 108.194 256.182 108.101 256.278C108.05 256.324 107.991 256.36 107.926 256.383C107.862 256.405 107.793 256.415 107.725 256.41Z"
    fill="#231F20" />
  <path
    d="M258.767 182.315C258.662 182.315 258.56 182.283 258.473 182.224L247.308 174.51C247.199 174.431 247.126 174.312 247.103 174.179C247.08 174.047 247.11 173.911 247.186 173.799C247.224 173.745 247.272 173.698 247.328 173.663C247.383 173.627 247.446 173.603 247.511 173.591C247.576 173.58 247.643 173.582 247.707 173.597C247.772 173.611 247.833 173.639 247.887 173.678L259.052 181.392C259.107 181.428 259.154 181.476 259.191 181.531C259.228 181.587 259.253 181.649 259.265 181.714C259.278 181.779 259.277 181.846 259.263 181.911C259.249 181.976 259.222 182.038 259.184 182.092C259.137 182.16 259.076 182.216 259.003 182.255C258.931 182.294 258.85 182.315 258.767 182.315Z"
    fill="#D1D3D4" />
  <path
    d="M247.623 220.693C247.541 220.695 247.46 220.677 247.388 220.639C247.315 220.602 247.253 220.547 247.207 220.48C247.131 220.368 247.101 220.232 247.124 220.1C247.146 219.967 247.22 219.848 247.329 219.769L258.494 212.055C258.549 212.017 258.611 211.989 258.677 211.975C258.742 211.961 258.81 211.96 258.876 211.972C258.943 211.985 259.006 212.01 259.062 212.047C259.118 212.084 259.166 212.131 259.204 212.187C259.242 212.241 259.269 212.303 259.283 212.368C259.297 212.433 259.298 212.5 259.286 212.565C259.274 212.63 259.248 212.692 259.212 212.748C259.175 212.803 259.127 212.851 259.072 212.887L247.907 220.601C247.825 220.661 247.725 220.693 247.623 220.693Z"
    fill="#D1D3D4" />
  <path
    d="M257.6 197.642H247.643C247.508 197.642 247.379 197.588 247.284 197.493C247.189 197.398 247.135 197.269 247.135 197.134C247.135 197 247.189 196.871 247.284 196.776C247.379 196.68 247.508 196.627 247.643 196.627H257.6C257.734 196.627 257.864 196.68 257.959 196.776C258.054 196.871 258.107 197 258.107 197.134C258.107 197.269 258.054 197.398 257.959 197.493C257.864 197.588 257.734 197.642 257.6 197.642Z"
    fill="#D1D3D4" />
  <path
    d="M319.637 182.315C319.555 182.315 319.474 182.294 319.401 182.255C319.329 182.216 319.267 182.16 319.221 182.092C319.183 182.038 319.156 181.976 319.142 181.911C319.128 181.846 319.127 181.779 319.139 181.714C319.151 181.649 319.177 181.587 319.213 181.531C319.25 181.476 319.297 181.428 319.353 181.392L330.518 173.678C330.571 173.639 330.632 173.611 330.697 173.597C330.761 173.582 330.828 173.58 330.894 173.591C330.959 173.603 331.021 173.627 331.077 173.663C331.133 173.698 331.181 173.745 331.218 173.799C331.257 173.854 331.285 173.916 331.3 173.981C331.315 174.046 331.317 174.114 331.305 174.18C331.294 174.246 331.27 174.309 331.234 174.366C331.198 174.423 331.151 174.472 331.096 174.51L319.931 182.224C319.844 182.283 319.742 182.315 319.637 182.315Z"
    fill="#D1D3D4" />
  <path
    d="M330.781 220.693C330.68 220.692 330.58 220.66 330.497 220.601L319.332 212.887C319.277 212.851 319.229 212.803 319.193 212.748C319.156 212.692 319.131 212.63 319.118 212.565C319.106 212.5 319.107 212.433 319.121 212.368C319.135 212.303 319.162 212.241 319.2 212.187C319.238 212.131 319.286 212.084 319.343 212.047C319.399 212.01 319.462 211.985 319.528 211.972C319.594 211.96 319.662 211.961 319.728 211.975C319.793 211.989 319.856 212.017 319.911 212.055L331.076 219.769C331.131 219.807 331.177 219.856 331.213 219.913C331.249 219.97 331.273 220.033 331.285 220.099C331.296 220.165 331.294 220.233 331.279 220.298C331.264 220.363 331.237 220.425 331.198 220.48C331.152 220.547 331.089 220.602 331.017 220.639C330.944 220.677 330.863 220.695 330.781 220.693Z"
    fill="#D1D3D4" />
  <path
    d="M330.782 197.642H320.824C320.69 197.642 320.561 197.588 320.466 197.493C320.37 197.398 320.317 197.269 320.317 197.134C320.317 197 320.37 196.871 320.466 196.776C320.561 196.68 320.69 196.627 320.824 196.627H330.782C330.916 196.627 331.045 196.68 331.14 196.776C331.236 196.871 331.289 197 331.289 197.134C331.289 197.269 331.236 197.398 331.14 197.493C331.045 197.588 330.916 197.642 330.782 197.642Z"
    fill="#D1D3D4" />
</svg>
