<svg width="410" height="489" viewBox="0 0 410 489" fill="none" xmlns="http://www.w3.org/2000/svg">
<rect width="410" height="489" rx="20" fill="white"/>
<path d="M119.812 187.894H125.101V281.781H119.812C118.15 281.778 116.558 281.116 115.383 279.94C114.209 278.764 113.55 277.17 113.55 275.508V194.166C113.55 192.504 114.209 190.91 115.383 189.734C116.558 188.558 118.15 187.896 119.812 187.894Z" fill="#231F20"/>
<path d="M125.07 282.289H119.813C118.016 282.286 116.294 281.571 115.025 280.299C113.755 279.028 113.042 277.305 113.042 275.509V194.166C113.042 192.37 113.755 190.647 115.025 189.376C116.294 188.104 118.016 187.389 119.813 187.386H125.101C125.235 187.386 125.364 187.44 125.46 187.535C125.555 187.63 125.608 187.759 125.608 187.894V281.781C125.608 281.851 125.594 281.919 125.567 281.983C125.539 282.046 125.499 282.104 125.449 282.151C125.399 282.199 125.339 282.236 125.274 282.259C125.209 282.283 125.139 282.293 125.07 282.289ZM119.813 188.401C118.285 188.404 116.821 189.013 115.742 190.093C114.663 191.174 114.057 192.639 114.057 194.166V275.509C114.057 277.036 114.663 278.501 115.742 279.582C116.821 280.662 118.285 281.271 119.813 281.274H124.593V188.401H119.813Z" fill="#231F20"/>
<path d="M125.07 281.781H295.712V187.894H125.07V281.781Z" fill="white"/>
<path d="M295.722 282.289H125.08C124.946 282.289 124.817 282.235 124.721 282.14C124.626 282.045 124.573 281.916 124.573 281.781V187.894C124.573 187.759 124.626 187.63 124.721 187.535C124.817 187.44 124.946 187.386 125.08 187.386H295.722C295.856 187.389 295.983 187.443 296.078 187.538C296.173 187.632 296.227 187.76 296.23 187.894V281.781C296.23 281.916 296.176 282.045 296.081 282.14C295.986 282.235 295.857 282.289 295.722 282.289ZM125.588 281.274H295.215V188.401H125.588V281.274Z" fill="#231F20"/>
<path d="M133.221 278.401V268.394L140.224 273.824L133.221 278.401Z" fill="#D1D3D4"/>
<path d="M309.77 194.166V275.508C309.77 277.17 309.11 278.764 307.936 279.94C306.762 281.116 305.169 281.778 303.507 281.781H295.712V187.894H303.527C305.186 187.902 306.773 188.566 307.943 189.742C309.113 190.917 309.77 192.508 309.77 194.166Z" fill="#231F20"/>
<path d="M303.527 282.289H295.712C295.578 282.286 295.45 282.232 295.356 282.137C295.261 282.043 295.207 281.915 295.204 281.781V187.894C295.207 187.76 295.261 187.632 295.356 187.538C295.45 187.443 295.578 187.389 295.712 187.386H303.527C305.324 187.389 307.046 188.104 308.315 189.376C309.584 190.647 310.297 192.37 310.297 194.166V275.509C310.297 277.305 309.584 279.028 308.315 280.299C307.046 281.571 305.324 282.286 303.527 282.289ZM296.239 281.274H303.527C305.054 281.271 306.518 280.662 307.597 279.582C308.676 278.501 309.282 277.036 309.282 275.509V194.166C309.282 192.639 308.676 191.174 307.597 190.093C306.518 189.013 305.054 188.404 303.527 188.401H296.219L296.239 281.274Z" fill="#231F20"/>
<path d="M173.607 294.205C169.243 297.331 114.453 300.508 109.764 302.071C105.074 303.634 91.3516 343.077 91.3516 343.077H26.3916C26.3916 343.077 33.6692 273.408 35.1409 264.293C35.2729 263.521 35.3845 262.78 35.4962 262.07C36.1458 258.101 36.6634 255.056 36.9578 253.534C38.531 245.414 46.6003 214.294 62.7286 219.298C68.8186 210.975 80.7855 215.238 80.7855 215.238C87.0379 211.503 95.777 214.304 95.777 214.304C95.777 214.304 109.662 176.495 115.61 173.755C121.233 171.156 152.972 173.907 157.225 174.273C161.478 174.638 162.3 184.077 157.753 188.066C151.176 193.842 130.977 192.482 130.977 192.482L117.782 231.508C115.752 237.294 113.844 251.707 115.082 262.07C115.163 262.831 115.275 263.582 115.407 264.293C115.731 266.851 116.626 269.304 118.026 271.469C121.396 275.965 156.271 277.325 161.965 277.762C177.596 278.99 177.962 291.089 173.607 294.205Z" fill="white"/>
<path d="M91.3314 343.585H26.3714C26.3007 343.583 26.231 343.568 26.1666 343.539C26.1022 343.51 26.0445 343.468 25.9969 343.415C25.9494 343.363 25.913 343.301 25.8902 343.235C25.8673 343.168 25.8584 343.097 25.8639 343.026C25.935 342.326 33.1719 273.235 34.6234 264.212C34.7452 263.44 34.867 262.699 34.9786 261.999C35.6485 257.848 36.1662 254.894 36.4402 253.442C36.6534 252.367 41.6675 226.931 53.2588 219.947C54.6235 219.092 56.1543 218.535 57.7499 218.315C59.3456 218.094 60.9699 218.215 62.5156 218.669C68.3214 211.147 78.9992 214.101 80.7044 214.609C86.297 211.401 93.534 213.076 95.4422 213.594C97.1068 209.128 109.652 175.876 115.448 173.207C120.645 170.801 146.466 172.73 157.317 173.684C158.91 173.816 160.199 175.064 160.869 177.104C161.975 180.484 161.255 185.61 158.139 188.361C151.907 193.832 134.347 193.091 131.414 192.928L118.33 231.59C116.361 237.162 114.392 251.402 115.641 261.928C115.732 262.699 115.844 263.44 115.965 264.12C116.272 266.602 117.136 268.983 118.493 271.083C121.264 274.768 148.11 276.341 158.21 276.94C159.945 277.041 161.255 277.122 162.057 277.183C172.805 278.016 175.526 283.74 176.206 286.166C177.109 289.424 176.206 292.956 173.932 294.54C171.374 296.367 154.404 298.031 132.48 300.001C121.315 301.016 111.743 301.878 109.957 302.477C106.617 303.675 97.2996 327.487 91.8186 343.26C91.7797 343.357 91.7123 343.44 91.6253 343.498C91.5384 343.556 91.4359 343.586 91.3314 343.585ZM26.8789 342.57H90.9762C92.8539 337.17 104.912 303.147 109.581 301.645C111.479 301.005 120.685 300.173 132.337 299.128C148.577 297.666 170.755 295.656 173.293 293.85C175.181 292.5 175.972 289.434 175.17 286.562C174.561 284.349 172.034 279.112 161.975 278.32C161.194 278.259 159.864 278.188 158.139 278.087C139.635 277.001 120.36 275.407 117.671 271.824C116.213 269.597 115.283 267.066 114.95 264.425C114.829 263.724 114.717 262.973 114.626 262.182C113.357 251.514 115.367 237.05 117.356 231.387L130.551 192.37C130.586 192.265 130.655 192.174 130.747 192.112C130.838 192.05 130.948 192.019 131.059 192.025C131.262 192.025 151.095 193.304 157.449 187.731C160.26 185.265 160.9 180.626 159.895 177.581C159.58 176.627 158.809 174.993 157.225 174.851C148.811 174.12 120.98 171.918 115.864 174.283C111.154 176.465 100.091 204.093 96.2237 214.548C96.1798 214.671 96.0898 214.773 95.9724 214.832C95.8551 214.89 95.7196 214.901 95.5944 214.862C95.5031 214.862 86.9872 212.173 81.0089 215.745C80.9424 215.778 80.8696 215.794 80.7957 215.794C80.7218 215.794 80.649 215.778 80.5826 215.745C80.4608 215.745 68.8796 211.685 63.1043 219.633C63.044 219.72 62.9573 219.786 62.8569 219.821C62.7564 219.856 62.6475 219.857 62.546 219.826C61.0952 219.348 59.5569 219.197 58.0409 219.383C56.525 219.569 55.0688 220.088 53.7764 220.902C42.5302 227.55 37.5973 252.57 37.3842 253.635C37.1101 255.077 36.6026 258.02 35.9226 262.151C35.8211 262.862 35.6993 263.603 35.5673 264.374C34.1971 272.93 27.5793 335.932 26.8789 342.57Z" fill="#231F20"/>
<path d="M91.3312 224.799C91.2642 224.813 91.1952 224.813 91.1282 224.799C91.0059 224.744 90.9105 224.642 90.863 224.517C90.8154 224.391 90.8196 224.252 90.8745 224.129L95.239 214.132C95.2944 214.009 95.396 213.914 95.5215 213.866C95.6471 213.819 95.7864 213.823 95.9089 213.878C95.97 213.903 96.0254 213.941 96.0718 213.988C96.1183 214.035 96.1549 214.091 96.1795 214.152C96.204 214.214 96.2161 214.279 96.215 214.346C96.2138 214.412 96.1995 214.477 96.1728 214.538L91.7981 224.505C91.7581 224.595 91.6924 224.67 91.6093 224.723C91.5262 224.775 91.4294 224.802 91.3312 224.799Z" fill="#231F20"/>
<path d="M213.121 251.291H125.771V250.276H212.614V188.533H213.629V250.783C213.629 250.918 213.575 251.047 213.48 251.142C213.385 251.237 213.256 251.291 213.121 251.291Z" fill="#D1D3D4"/>
<path d="M293.702 264.628H118.036C117.901 264.628 117.772 264.574 117.677 264.479C117.582 264.384 117.528 264.255 117.528 264.12C117.528 263.986 117.582 263.857 117.677 263.761C117.772 263.666 117.901 263.613 118.036 263.613H293.702C293.836 263.613 293.966 263.666 294.061 263.761C294.156 263.857 294.209 263.986 294.209 264.12C294.207 264.254 294.152 264.382 294.058 264.476C293.963 264.571 293.836 264.625 293.702 264.628Z" fill="#231F20"/>
<path d="M286.668 273.905H147.4C147.265 273.905 147.136 273.851 147.041 273.756C146.946 273.661 146.893 273.532 146.893 273.397C146.893 273.263 146.946 273.133 147.041 273.038C147.136 272.943 147.265 272.89 147.4 272.89H286.668C286.803 272.89 286.932 272.943 287.027 273.038C287.122 273.133 287.176 273.263 287.176 273.397C287.173 273.531 287.119 273.659 287.024 273.753C286.93 273.848 286.802 273.902 286.668 273.905Z" fill="#D1D3D4"/>
<path d="M194.709 277.234C196.828 277.234 198.546 275.516 198.546 273.397C198.546 271.278 196.828 269.561 194.709 269.561C192.59 269.561 190.873 271.278 190.873 273.397C190.873 275.516 192.59 277.234 194.709 277.234Z" fill="black"/>
<path d="M312.002 343.361H384.778C389.173 313.835 389.315 262.476 382.525 257.726C375.176 252.59 370.172 264.07 370.172 264.07C370.172 264.07 370.101 255.401 359.403 252.296C348.705 249.19 346.929 267.257 346.929 267.257C346.929 267.257 342.554 256.092 331.825 255.473C321.097 254.853 323.289 272.9 323.289 272.9C323.289 272.9 296.706 215.898 290.576 211.31C284.445 206.722 278.04 211.411 277.198 218.79C276.356 226.169 302.746 306.212 302.746 306.212C302.746 306.212 274.813 294.032 264.419 290.206C248.423 284.329 239.602 296.428 248.727 305.065C258.989 314.779 312.002 343.361 312.002 343.361Z" fill="white"/>
<path d="M384.778 343.869H312.002C311.921 343.869 311.84 343.848 311.769 343.808C309.597 342.64 258.563 315.083 248.382 305.431C244.414 301.675 243.419 296.976 245.794 293.149C248.392 288.967 255.213 286.288 264.592 289.729C273.727 293.088 296.747 303.045 301.913 305.288C298.635 295.331 275.879 225.753 276.691 218.729C277.178 214.476 279.461 210.975 282.659 209.594C284.017 209.041 285.501 208.87 286.95 209.099C288.399 209.328 289.758 209.948 290.88 210.893C296.382 215.004 317.382 259.126 322.599 270.23C322.497 266.658 322.832 260.486 325.938 257.177C326.689 256.382 327.611 255.768 328.635 255.383C329.659 254.998 330.757 254.851 331.846 254.955C340.311 255.442 344.959 262.364 346.654 265.511C347.192 262.324 348.786 255.503 352.958 252.671C353.916 252.032 355.008 251.621 356.15 251.47C357.292 251.318 358.453 251.431 359.545 251.798C367.604 254.132 369.827 259.634 370.446 262.405C371.563 260.425 373.887 257.025 377.115 256.112C378.091 255.858 379.113 255.834 380.101 256.04C381.088 256.246 382.015 256.677 382.809 257.299C389.914 262.293 389.559 314.677 385.275 343.422C385.263 343.545 385.205 343.659 385.113 343.741C385.021 343.824 384.901 343.869 384.778 343.869ZM312.134 342.854H384.341C388.838 312.191 388.513 262.537 382.23 258.142C381.557 257.612 380.771 257.245 379.933 257.069C379.095 256.893 378.228 256.913 377.399 257.127C373.339 258.274 370.659 264.232 370.639 264.303C370.591 264.408 370.508 264.493 370.405 264.545C370.301 264.597 370.183 264.611 370.071 264.587C369.956 264.568 369.852 264.508 369.777 264.418C369.703 264.329 369.663 264.216 369.665 264.1C369.665 263.765 369.451 255.756 359.261 252.803C358.313 252.481 357.305 252.38 356.312 252.508C355.32 252.637 354.37 252.991 353.536 253.544C348.512 256.944 347.446 267.216 347.446 267.327C347.435 267.441 347.386 267.547 347.307 267.628C347.227 267.709 347.123 267.761 347.01 267.774C346.898 267.787 346.785 267.764 346.688 267.707C346.591 267.65 346.515 267.563 346.472 267.459C346.472 267.348 342.087 256.589 331.815 256C330.881 255.912 329.938 256.037 329.059 256.366C328.18 256.694 327.387 257.218 326.74 257.898C322.619 262.293 323.837 272.748 323.847 272.859C323.862 272.979 323.833 273.1 323.766 273.201C323.699 273.301 323.598 273.374 323.482 273.407C323.366 273.438 323.243 273.428 323.133 273.378C323.024 273.328 322.936 273.241 322.883 273.133C322.619 272.565 296.29 216.192 290.332 211.736C289.35 210.902 288.16 210.351 286.888 210.142C285.617 209.933 284.313 210.073 283.115 210.548C280.263 211.787 278.203 214.974 277.756 218.861C276.934 226.047 303.02 305.268 303.284 306.07C303.316 306.163 303.321 306.263 303.297 306.359C303.274 306.454 303.223 306.541 303.152 306.608C303.077 306.672 302.987 306.714 302.89 306.73C302.794 306.746 302.694 306.735 302.603 306.699C302.319 306.578 274.569 294.469 264.297 290.703C255.457 287.455 249.072 289.871 246.718 293.748C244.617 297.138 245.54 301.35 249.133 304.761C258.938 314.048 309.394 341.372 312.134 342.854Z" fill="#231F20"/>
<path d="M155.754 222.475H134.347C134.213 222.475 134.084 222.421 133.988 222.326C133.893 222.231 133.84 222.102 133.84 221.967V200.591C133.84 200.457 133.893 200.328 133.988 200.233C134.084 200.137 134.213 200.084 134.347 200.084H155.754C155.888 200.084 156.017 200.137 156.113 200.233C156.208 200.328 156.261 200.457 156.261 200.591V221.998C156.253 222.127 156.197 222.248 156.102 222.337C156.008 222.426 155.883 222.475 155.754 222.475ZM134.855 221.46H155.246V201.099H134.855V221.46Z" fill="#D1D3D4"/>
<path d="M181.819 222.475H160.412C160.278 222.475 160.149 222.421 160.053 222.326C159.958 222.231 159.905 222.102 159.905 221.967V200.591C159.905 200.457 159.958 200.328 160.053 200.233C160.149 200.137 160.278 200.084 160.412 200.084H181.819C181.953 200.084 182.082 200.137 182.177 200.233C182.273 200.328 182.326 200.457 182.326 200.591V221.998C182.318 222.127 182.261 222.248 182.167 222.337C182.073 222.426 181.948 222.475 181.819 222.475ZM160.92 221.46H181.311V201.099H160.92V221.46Z" fill="#D1D3D4"/>
<path d="M207.884 222.475H186.478C186.343 222.475 186.214 222.421 186.119 222.326C186.024 222.231 185.97 222.102 185.97 221.967V200.591C185.97 200.457 186.024 200.328 186.119 200.233C186.214 200.137 186.343 200.084 186.478 200.084H207.884C208.019 200.084 208.148 200.137 208.243 200.233C208.338 200.328 208.392 200.457 208.392 200.591V221.998C208.384 222.127 208.327 222.248 208.233 222.337C208.138 222.426 208.014 222.475 207.884 222.475ZM186.985 221.46H207.377V201.099H186.985V221.46Z" fill="#D1D3D4"/>
<path d="M155.754 228.433H134.347C134.213 228.433 134.084 228.38 133.988 228.284C133.893 228.189 133.84 228.06 133.84 227.925C133.84 227.791 133.893 227.662 133.988 227.567C134.084 227.471 134.213 227.418 134.347 227.418H155.754C155.888 227.418 156.017 227.471 156.113 227.567C156.208 227.662 156.261 227.791 156.261 227.925C156.261 228.06 156.208 228.189 156.113 228.284C156.017 228.38 155.888 228.433 155.754 228.433Z" fill="#D1D3D4"/>
<path d="M151.206 232.797H134.347C134.213 232.797 134.084 232.744 133.988 232.649C133.893 232.553 133.84 232.424 133.84 232.29C133.84 232.155 133.893 232.026 133.988 231.931C134.084 231.836 134.213 231.782 134.347 231.782H151.206C151.341 231.782 151.47 231.836 151.565 231.931C151.661 232.026 151.714 232.155 151.714 232.29C151.714 232.424 151.661 232.553 151.565 232.649C151.47 232.744 151.341 232.797 151.206 232.797Z" fill="#D1D3D4"/>
<path d="M181.819 228.433H160.412C160.278 228.433 160.149 228.38 160.053 228.284C159.958 228.189 159.905 228.06 159.905 227.925C159.905 227.791 159.958 227.662 160.053 227.567C160.149 227.471 160.278 227.418 160.412 227.418H181.819C181.953 227.418 182.082 227.471 182.177 227.567C182.273 227.662 182.326 227.791 182.326 227.925C182.326 228.06 182.273 228.189 182.177 228.284C182.082 228.38 181.953 228.433 181.819 228.433Z" fill="#D1D3D4"/>
<path d="M177.271 232.797H160.412C160.278 232.797 160.149 232.744 160.053 232.649C159.958 232.553 159.905 232.424 159.905 232.29C159.905 232.155 159.958 232.026 160.053 231.931C160.149 231.836 160.278 231.782 160.412 231.782H177.271C177.406 231.782 177.535 231.836 177.63 231.931C177.725 232.026 177.779 232.155 177.779 232.29C177.779 232.424 177.725 232.553 177.63 232.649C177.535 232.744 177.406 232.797 177.271 232.797Z" fill="#D1D3D4"/>
<path d="M207.884 228.433H186.478C186.343 228.433 186.214 228.38 186.119 228.284C186.024 228.189 185.97 228.06 185.97 227.925C185.97 227.791 186.024 227.662 186.119 227.567C186.214 227.471 186.343 227.418 186.478 227.418H207.884C208.019 227.418 208.148 227.471 208.243 227.567C208.338 227.662 208.392 227.791 208.392 227.925C208.392 228.06 208.338 228.189 208.243 228.284C208.148 228.38 208.019 228.433 207.884 228.433Z" fill="#D1D3D4"/>
<path d="M203.337 232.797H186.478C186.343 232.797 186.214 232.744 186.119 232.649C186.024 232.553 185.97 232.424 185.97 232.29C185.97 232.155 186.024 232.026 186.119 231.931C186.214 231.836 186.343 231.782 186.478 231.782H203.337C203.471 231.782 203.601 231.836 203.696 231.931C203.791 232.026 203.844 232.155 203.844 232.29C203.844 232.356 203.831 232.422 203.806 232.484C203.78 232.546 203.743 232.601 203.696 232.649C203.649 232.696 203.593 232.733 203.531 232.759C203.47 232.784 203.404 232.797 203.337 232.797Z" fill="#D1D3D4"/>
<path d="M267.322 190.624C267.876 190.786 268.413 191 268.926 191.264C270.367 192.011 271.612 193.088 272.56 194.408C273.507 195.727 274.129 197.251 274.376 198.856C274.596 200.465 274.423 202.103 273.872 203.63C273.32 205.158 272.407 206.528 271.21 207.626C269.261 209.371 264.967 211.229 262.47 209.656C259.977 207.959 258.066 205.534 257 202.713C255.985 199.871 255.386 195.293 257.609 192.847C258.735 191.609 261.1 191.02 262.684 190.584C264.205 190.178 265.808 190.192 267.322 190.624Z" fill="white"/>
<path d="M264.825 210.742C263.9 210.766 262.987 210.523 262.197 210.041C259.607 208.284 257.623 205.771 256.513 202.845C255.396 199.648 254.909 195.019 257.233 192.461C258.39 191.183 260.633 190.574 262.308 190.127L262.582 190.056C264.196 189.634 265.895 189.662 267.495 190.137C268.083 190.306 268.654 190.53 269.2 190.807C270.713 191.594 272.02 192.727 273.014 194.113C274.009 195.499 274.663 197.099 274.925 198.785C275.159 200.477 274.978 202.201 274.398 203.809C273.818 205.416 272.856 206.858 271.595 208.011C269.708 209.654 267.324 210.616 264.825 210.742ZM264.825 190.766C264.139 190.763 263.456 190.855 262.795 191.04L262.531 191.112C261.009 191.518 258.938 192.127 257.974 193.142C255.812 195.517 256.634 200.135 257.467 202.5C258.494 205.215 260.334 207.547 262.734 209.179C264.886 210.559 268.916 208.986 270.854 207.24C271.99 206.197 272.859 204.897 273.389 203.448C273.918 202 274.094 200.447 273.899 198.917C273.664 197.391 273.071 195.942 272.17 194.688C271.269 193.434 270.084 192.41 268.713 191.7C268.229 191.453 267.723 191.252 267.2 191.101C266.425 190.88 265.622 190.767 264.815 190.766H264.825Z" fill="#231F20"/>
<path d="M266.926 197.688C267.54 198.751 268.027 199.882 268.378 201.058C269.088 203.342 269.393 206.133 267.759 207.859C267.096 208.515 266.266 208.979 265.36 209.201C264.454 209.423 263.504 209.394 262.613 209.117C260.834 208.54 259.247 207.487 258.025 206.072C255.508 203.413 251.377 196.196 255.244 192.877C258.715 189.995 265.17 194.745 266.926 197.688Z" fill="#231F20"/>
<path d="M264.176 209.838C263.603 209.834 263.033 209.756 262.481 209.604C260.61 209.014 258.941 207.914 257.66 206.428C255.812 204.469 252.96 199.982 253.163 196.217C253.183 195.513 253.35 194.821 253.652 194.185C253.955 193.548 254.386 192.982 254.919 192.522C255.477 192.062 256.133 191.735 256.837 191.568C257.541 191.401 258.274 191.397 258.979 191.558C262.491 192.146 266.196 195.394 267.404 197.424C268.042 198.521 268.546 199.69 268.906 200.906C269.586 203.108 270.022 206.164 268.175 208.204C267.662 208.743 267.04 209.168 266.351 209.45C265.661 209.731 264.92 209.864 264.176 209.838ZM257.852 192.492C257.009 192.465 256.185 192.751 255.538 193.293C255.109 193.665 254.763 194.123 254.521 194.637C254.28 195.151 254.149 195.71 254.137 196.278C253.965 199.536 256.502 203.758 258.35 205.727C259.509 207.074 261.015 208.078 262.704 208.63C263.506 208.876 264.358 208.903 265.174 208.709C265.99 208.514 266.738 208.105 267.343 207.524C268.865 205.839 268.459 203.159 267.86 201.21C267.521 200.074 267.051 198.98 266.46 197.952C265.353 196.085 261.912 193.04 258.776 192.563C258.471 192.512 258.162 192.488 257.852 192.492Z" fill="#231F20"/>
<path d="M260.268 218.151C255.772 219.886 248.342 218.831 244.099 216.598C235.857 212.264 237.492 202.012 242.201 195.76C243.093 194.502 244.224 193.432 245.53 192.613C247.532 191.58 249.805 191.19 252.037 191.497C254.869 191.747 257.595 192.694 259.973 194.252C262.351 195.81 264.308 197.932 265.668 200.429C268.906 206.762 267.262 215.451 260.268 218.151Z" fill="white"/>
<path d="M254.807 219.511C251.012 219.523 247.263 218.684 243.835 217.055C242.383 216.33 241.111 215.291 240.112 214.013C239.113 212.734 238.412 211.249 238.06 209.665C237.045 205.24 238.496 199.8 241.775 195.455C242.696 194.137 243.877 193.021 245.246 192.177C247.347 191.077 249.741 190.669 252.087 191.01C255.003 191.275 257.808 192.253 260.256 193.859C262.704 195.464 264.719 197.647 266.125 200.216C267.061 202.037 267.611 204.032 267.74 206.075C267.869 208.119 267.575 210.167 266.876 212.091C266.338 213.58 265.486 214.936 264.377 216.065C263.268 217.195 261.929 218.073 260.451 218.638C258.637 219.266 256.726 219.562 254.807 219.511ZM250.504 191.933C248.85 191.885 247.212 192.27 245.754 193.05C244.52 193.843 243.457 194.875 242.627 196.085C239.582 200.145 238.192 205.392 239.105 209.462C239.416 210.904 240.05 212.257 240.959 213.419C241.868 214.581 243.028 215.522 244.353 216.172C248.413 218.293 255.67 219.409 260.106 217.694C261.449 217.18 262.667 216.382 263.676 215.356C264.684 214.33 265.461 213.099 265.952 211.746C266.6 209.952 266.872 208.044 266.75 206.14C266.627 204.237 266.114 202.379 265.241 200.683C263.919 198.27 262.024 196.218 259.723 194.709C257.423 193.199 254.787 192.278 252.046 192.025C251.488 191.954 251.001 191.933 250.534 191.933H250.504Z" fill="#231F20"/>
<path d="M201.499 237.7C201.499 237.7 196.424 233.406 195.308 230.747C194.191 228.088 193.968 225.499 192.781 225.885C191.593 226.271 191.877 228.737 193.217 232.168C193.217 232.168 181.595 227.6 180.925 229.032C180.572 229.757 180.388 230.554 180.388 231.361C180.388 232.168 180.572 232.965 180.925 233.69C181.687 234.929 189.218 237.984 190.06 239.121C190.903 240.257 195.399 244.744 195.399 244.744L201.499 237.7Z" fill="white"/>
<path d="M195.409 245.272C195.272 245.271 195.141 245.217 195.044 245.119C194.861 244.937 190.537 240.613 189.665 239.446C188.373 238.508 186.985 237.712 185.523 237.071C182.692 235.629 180.936 234.695 180.448 234.026C180.058 233.222 179.855 232.341 179.855 231.447C179.855 230.554 180.058 229.673 180.448 228.869C180.996 227.692 184.996 228.524 192.334 231.356C191.684 229.478 191.207 227.377 191.745 226.281C191.827 226.098 191.946 225.935 192.095 225.8C192.243 225.666 192.418 225.563 192.608 225.5C192.899 225.402 193.216 225.424 193.491 225.56C194.161 225.906 194.506 226.89 194.902 228.24C195.135 228.971 195.399 229.803 195.755 230.646C196.841 233.173 201.763 237.365 201.845 237.416C201.895 237.459 201.936 237.511 201.966 237.571C201.995 237.63 202.013 237.695 202.017 237.761C202.023 237.827 202.015 237.893 201.994 237.956C201.973 238.019 201.939 238.077 201.895 238.126L195.805 245.18C195.711 245.283 195.58 245.345 195.44 245.353L195.409 245.272ZM181.727 229.255C181.581 229.246 181.434 229.274 181.301 229.336C181.006 229.972 180.854 230.665 180.854 231.366C180.854 232.067 181.006 232.76 181.301 233.396C181.626 233.924 184.102 235.193 185.919 236.106C188.416 237.375 189.979 238.136 190.416 238.786C191.096 239.699 194.222 242.846 195.318 243.973L200.728 237.72C199.5 236.644 195.785 233.244 194.78 230.909C194.442 230.093 194.147 229.26 193.897 228.413C193.603 227.509 193.278 226.484 192.984 226.332C192.984 226.332 192.984 226.332 192.882 226.332C192.822 226.352 192.768 226.386 192.722 226.43C192.677 226.474 192.641 226.527 192.618 226.586C192.243 227.367 192.618 229.377 193.633 231.955C193.672 232.047 193.682 232.148 193.662 232.246C193.642 232.344 193.593 232.433 193.522 232.503C193.452 232.571 193.364 232.618 193.269 232.638C193.174 232.658 193.075 232.65 192.984 232.615C188.568 230.909 183.392 229.255 181.727 229.255Z" fill="#231F20"/>
<path d="M201.53 235C201.53 235 216.654 248.53 218.207 248.306C220.795 244.937 230.092 231.051 230.092 231.051C232.447 227.956 239.227 225.55 248.941 226.88C248.941 226.88 270.489 227.326 274.661 234.178C277.066 238.116 279.096 248.631 280.436 264.171H208.605C202.738 255.31 192.781 243.495 192.781 243.495L201.53 235Z" fill="black"/>
<path d="M245.571 230.047L246.048 259.451L258.989 228.443L245.571 230.047Z" fill="#231F20"/>
<path d="M246.048 259.959H245.947C245.832 259.94 245.728 259.88 245.653 259.791C245.579 259.701 245.539 259.588 245.541 259.472L245.063 230.037C245.065 229.913 245.111 229.793 245.193 229.7C245.274 229.607 245.387 229.546 245.51 229.529L258.928 227.915C259.016 227.907 259.103 227.921 259.183 227.957C259.264 227.992 259.333 228.048 259.385 228.118C259.44 228.188 259.476 228.27 259.488 228.357C259.501 228.445 259.49 228.534 259.456 228.616L246.515 259.624C246.48 259.721 246.417 259.804 246.333 259.864C246.25 259.924 246.151 259.957 246.048 259.959ZM246.048 230.524L246.474 257.036L258.137 229.073L246.048 230.524Z" fill="#231F20"/>
<path d="M242.627 211.655C242.424 210.956 242.079 210.306 241.612 209.747C241.366 209.465 241.038 209.268 240.673 209.184C240.309 209.101 239.927 209.134 239.582 209.28C239.343 209.418 239.142 209.614 238.996 209.85C238.851 210.085 238.767 210.353 238.75 210.63C238.716 211.181 238.806 211.732 239.014 212.244C239.332 213.218 239.874 214.105 240.597 214.832C240.961 215.193 241.394 215.475 241.87 215.662C242.347 215.849 242.857 215.936 243.368 215.918" fill="white"/>
<path d="M243.125 216.436C242.038 216.403 241.002 215.965 240.222 215.208C239.441 214.425 238.857 213.468 238.516 212.416C238.286 211.833 238.186 211.206 238.222 210.579C238.251 210.219 238.366 209.871 238.559 209.565C238.752 209.259 239.016 209.005 239.328 208.823C239.766 208.642 240.249 208.599 240.712 208.7C241.175 208.802 241.595 209.043 241.917 209.392C242.439 210.002 242.83 210.714 243.064 211.483C243.111 211.609 243.106 211.749 243.05 211.872C242.993 211.995 242.891 212.09 242.764 212.137C242.638 212.184 242.498 212.179 242.375 212.123C242.252 212.067 242.157 211.964 242.11 211.838C241.924 211.202 241.609 210.611 241.186 210.102C241.016 209.91 240.794 209.773 240.547 209.706C240.3 209.639 240.038 209.646 239.795 209.727C239.633 209.829 239.497 209.969 239.4 210.135C239.302 210.301 239.247 210.489 239.237 210.681C239.216 211.16 239.299 211.638 239.481 212.081C239.765 212.979 240.259 213.797 240.922 214.467C241.235 214.778 241.607 215.022 242.017 215.184C242.428 215.346 242.866 215.423 243.307 215.411C243.373 215.405 243.44 215.413 243.503 215.433C243.566 215.454 243.625 215.487 243.675 215.531C243.725 215.574 243.766 215.627 243.795 215.687C243.824 215.746 243.841 215.811 243.845 215.878C243.851 215.944 243.843 216.011 243.823 216.075C243.802 216.139 243.769 216.198 243.726 216.249C243.682 216.3 243.629 216.342 243.57 216.372C243.51 216.402 243.445 216.421 243.378 216.426L243.125 216.436Z" fill="#231F20"/>
<path d="M246.433 221.389L245.571 230.047C245.571 230.047 245.997 234.98 251.397 233.995C252.994 233.689 254.504 233.032 255.817 232.072C257.13 231.112 258.213 229.873 258.989 228.443L259.791 213.391C259.791 212.751 257.497 210.102 258.116 204.611C254.161 204.117 250.437 202.48 247.398 199.901C246.803 201.137 246.042 202.284 245.134 203.312C244.296 204.025 243.549 204.84 242.911 205.738C241.247 208.255 241.064 211.736 241.47 214.609C241.805 217.014 243.429 221.46 246.433 221.389Z" fill="white"/>
<path d="M250.047 234.655C248.955 234.682 247.884 234.347 247.002 233.701C245.924 232.798 245.234 231.515 245.074 230.118L245.896 221.886C243.003 221.46 241.349 217.359 240.983 214.7C240.679 212.579 240.476 208.539 242.506 205.474C243.167 204.543 243.941 203.697 244.81 202.957C245.664 201.969 246.384 200.874 246.951 199.698C246.985 199.626 247.036 199.564 247.1 199.516C247.164 199.468 247.238 199.437 247.317 199.424C247.394 199.406 247.474 199.407 247.551 199.429C247.627 199.45 247.697 199.491 247.753 199.546C250.718 202.044 254.341 203.634 258.187 204.124C258.253 204.132 258.317 204.153 258.374 204.186C258.432 204.22 258.482 204.264 258.522 204.317C258.606 204.423 258.645 204.557 258.634 204.692C258.266 207.317 258.724 209.992 259.943 212.345C260.153 212.672 260.278 213.045 260.309 213.431C260.309 213.431 260.309 213.766 259.497 228.484C259.507 228.548 259.507 228.613 259.497 228.677C258.695 230.185 257.563 231.494 256.185 232.504C254.807 233.515 253.219 234.201 251.539 234.513C251.047 234.606 250.548 234.654 250.047 234.655ZM246.079 230.118C246.136 230.715 246.328 231.292 246.639 231.805C246.95 232.318 247.374 232.755 247.877 233.081C248.38 233.408 248.951 233.617 249.547 233.693C250.142 233.769 250.747 233.709 251.316 233.518C252.816 233.229 254.235 232.614 255.473 231.718C256.711 230.822 257.738 229.666 258.482 228.332C258.553 226.982 259.284 213.492 259.284 213.381C259.209 213.179 259.121 212.982 259.02 212.792C257.8 210.415 257.296 207.736 257.568 205.078C253.904 204.525 250.45 203.02 247.55 200.713C247.021 201.804 246.338 202.813 245.52 203.708C244.714 204.392 243.995 205.173 243.379 206.032C241.541 208.823 241.734 212.579 242.019 214.558C242.303 216.537 243.764 220.902 246.424 220.902H246.474C246.546 220.901 246.616 220.916 246.681 220.946C246.746 220.976 246.804 221.02 246.85 221.074C246.9 221.124 246.938 221.185 246.961 221.252C246.984 221.319 246.991 221.39 246.982 221.46L246.119 230.118H246.079Z" fill="#231F20"/>
<path d="M250.057 206.519C250.057 206.519 246.88 210.427 247.469 211.208C248.057 211.99 249.966 211.685 249.966 211.685" fill="white"/>
<path d="M249.164 212.254C248.781 212.29 248.395 212.243 248.032 212.115C247.669 211.987 247.338 211.781 247.063 211.513C246.515 210.782 247.388 208.996 249.661 206.204C249.746 206.099 249.869 206.032 250.003 206.018C250.138 206.004 250.272 206.043 250.377 206.128C250.482 206.213 250.549 206.336 250.563 206.47C250.578 206.604 250.538 206.739 250.453 206.844C249.022 208.6 247.834 210.518 247.905 210.965C248.159 211.269 249.235 211.289 249.935 211.188C250.001 211.176 250.068 211.178 250.133 211.193C250.197 211.208 250.259 211.235 250.313 211.274C250.366 211.313 250.412 211.362 250.447 211.419C250.481 211.475 250.504 211.538 250.514 211.604C250.526 211.67 250.524 211.738 250.509 211.803C250.495 211.869 250.467 211.93 250.429 211.985C250.39 212.04 250.341 212.086 250.284 212.122C250.227 212.158 250.164 212.182 250.098 212.193C249.788 212.234 249.476 212.254 249.164 212.254Z" fill="#231F20"/>
<path d="M243.576 207.848C243.641 207.354 243.482 206.926 243.221 206.892C242.96 206.857 242.696 207.23 242.632 207.724C242.567 208.218 242.726 208.646 242.986 208.68C243.247 208.714 243.511 208.342 243.576 207.848Z" fill="#231F20"/>
<path d="M252.78 207.303C252.786 206.804 252.577 206.397 252.314 206.394C252.05 206.391 251.832 206.793 251.826 207.292C251.82 207.79 252.029 208.197 252.292 208.2C252.556 208.203 252.774 207.802 252.78 207.303Z" fill="#231F20"/>
<path d="M257.294 210.072C257.5 209.337 257.845 208.648 258.309 208.042C258.564 207.686 258.901 207.398 259.292 207.2C259.682 207.002 260.114 206.901 260.552 206.905C260.82 206.917 261.083 206.989 261.32 207.116C261.557 207.242 261.763 207.42 261.922 207.636C262.11 207.946 262.231 208.291 262.278 208.651C262.562 210.579 261.912 213.086 260.105 214.081C259.801 214.271 259.449 214.371 259.09 214.371C258.732 214.371 258.38 214.271 258.075 214.081" fill="white"/>
<path d="M258.928 214.882C258.49 214.895 258.061 214.759 257.71 214.497C257.653 214.458 257.604 214.408 257.567 214.349C257.53 214.291 257.505 214.225 257.494 214.157C257.483 214.089 257.486 214.019 257.503 213.951C257.52 213.884 257.551 213.821 257.593 213.767C257.636 213.712 257.689 213.666 257.749 213.633C257.81 213.599 257.877 213.578 257.946 213.572C258.015 213.565 258.084 213.572 258.15 213.594C258.216 213.615 258.277 213.649 258.329 213.695C258.561 213.821 258.822 213.88 259.085 213.868C259.348 213.855 259.603 213.771 259.821 213.624C261.405 212.751 261.983 210.447 261.729 208.711C261.702 208.421 261.611 208.141 261.466 207.889C261.347 207.732 261.194 207.605 261.017 207.517C260.841 207.429 260.647 207.382 260.451 207.382C260.095 207.384 259.744 207.47 259.428 207.634C259.112 207.798 258.84 208.035 258.634 208.326C258.227 208.899 257.927 209.543 257.751 210.224C257.711 210.351 257.623 210.458 257.505 210.52C257.387 210.583 257.249 210.597 257.121 210.559C257.057 210.541 256.996 210.511 256.943 210.469C256.891 210.428 256.847 210.376 256.815 210.318C256.782 210.259 256.762 210.194 256.756 210.127C256.749 210.061 256.756 209.993 256.776 209.929C256.976 209.13 257.32 208.373 257.791 207.696C258.099 207.277 258.503 206.937 258.969 206.706C259.436 206.474 259.951 206.358 260.471 206.367C260.818 206.382 261.157 206.476 261.463 206.641C261.769 206.806 262.034 207.039 262.237 207.321C262.469 207.701 262.614 208.127 262.663 208.569C262.978 210.691 262.247 213.411 260.237 214.517C259.835 214.739 259.387 214.864 258.928 214.882Z" fill="#231F20"/>
<path d="M230.092 261.796C229.962 261.793 229.838 261.74 229.747 261.647C229.656 261.554 229.605 261.429 229.605 261.299C229.605 260.649 232.873 243.15 233.533 239.649C233.546 239.582 233.571 239.519 233.609 239.462C233.646 239.405 233.694 239.356 233.75 239.318C233.806 239.28 233.869 239.253 233.935 239.239C234.002 239.226 234.07 239.225 234.137 239.238C234.204 239.25 234.267 239.276 234.324 239.313C234.381 239.35 234.429 239.398 234.468 239.454C234.506 239.511 234.533 239.574 234.546 239.64C234.56 239.706 234.561 239.775 234.548 239.842C233.005 248.104 230.681 260.649 230.64 261.309C230.636 261.377 230.619 261.443 230.589 261.505C230.56 261.566 230.518 261.621 230.467 261.666C230.416 261.711 230.357 261.746 230.293 261.768C230.228 261.791 230.16 261.8 230.092 261.796Z" fill="#231F20"/>
<path d="M264.957 263.176C264.823 263.176 264.694 263.123 264.598 263.028C264.503 262.933 264.45 262.804 264.45 262.669V238.898C264.45 238.763 264.503 238.634 264.598 238.539C264.694 238.444 264.823 238.39 264.957 238.39C265.092 238.39 265.221 238.444 265.316 238.539C265.411 238.634 265.465 238.763 265.465 238.898V262.669C265.465 262.804 265.411 262.933 265.316 263.028C265.221 263.123 265.092 263.176 264.957 263.176Z" fill="#231F20"/>
<path d="M253.123 212.812L246.018 213.472C246.018 213.472 246.018 218.547 249.012 218.192C252.006 217.836 252.899 215.918 253.123 212.812Z" fill="white"/>
<path d="M248.717 218.709C248.103 218.714 247.51 218.489 247.053 218.08C245.53 216.72 245.5 213.614 245.5 213.482C245.497 213.355 245.542 213.232 245.627 213.137C245.712 213.043 245.83 212.985 245.956 212.974L253.061 212.304C253.135 212.298 253.21 212.307 253.28 212.331C253.35 212.356 253.414 212.395 253.467 212.447C253.519 212.498 253.559 212.56 253.583 212.628C253.608 212.697 253.617 212.77 253.61 212.842C253.427 215.512 252.737 218.283 249.093 218.699L248.717 218.709ZM246.535 213.939C246.548 215.165 246.965 216.353 247.723 217.319C247.886 217.465 248.08 217.574 248.291 217.637C248.501 217.701 248.723 217.717 248.941 217.684C251.204 217.43 252.209 216.253 252.513 213.37L246.535 213.939Z" fill="#231F20"/>
<path d="M246.434 221.389C249.267 221.45 252.083 220.928 254.706 219.856C254.706 219.856 249.824 225.743 246.048 227.976L246.434 221.389Z" fill="#231F20"/>
<path d="M246.048 228.433C245.954 228.431 245.863 228.402 245.784 228.352C245.705 228.305 245.641 228.238 245.598 228.157C245.555 228.077 245.535 227.986 245.54 227.895L245.936 221.358C245.939 221.292 245.955 221.227 245.983 221.167C246.011 221.107 246.051 221.053 246.1 221.009C246.149 220.964 246.206 220.93 246.269 220.908C246.332 220.886 246.398 220.877 246.464 220.881C249.214 220.938 251.947 220.431 254.493 219.389C254.598 219.34 254.717 219.328 254.83 219.356C254.943 219.384 255.042 219.45 255.112 219.543C255.183 219.635 255.219 219.749 255.215 219.865C255.211 219.982 255.168 220.093 255.092 220.181C254.889 220.424 250.108 226.169 246.302 228.362C246.226 228.41 246.138 228.435 246.048 228.433ZM246.911 221.906L246.616 226.981C248.954 225.229 251.101 223.235 253.021 221.033C251.036 221.612 248.978 221.906 246.911 221.906Z" fill="#231F20"/>
<path d="M244.271 211.797C243.42 211.797 242.588 211.545 241.88 211.072C241.173 210.599 240.621 209.927 240.295 209.14C239.97 208.354 239.884 207.489 240.05 206.654C240.217 205.819 240.626 205.052 241.228 204.45C241.83 203.849 242.597 203.439 243.432 203.273C244.267 203.107 245.132 203.192 245.918 203.518C246.705 203.843 247.377 204.395 247.85 205.103C248.323 205.81 248.575 206.642 248.575 207.494C248.575 208.635 248.122 209.73 247.314 210.537C246.507 211.344 245.413 211.797 244.271 211.797ZM244.271 204.205C243.621 204.205 242.985 204.398 242.444 204.759C241.904 205.121 241.482 205.634 241.233 206.235C240.984 206.836 240.919 207.497 241.046 208.135C241.173 208.773 241.486 209.359 241.946 209.819C242.406 210.279 242.992 210.592 243.63 210.719C244.268 210.846 244.929 210.781 245.53 210.532C246.131 210.283 246.644 209.861 247.006 209.321C247.367 208.78 247.56 208.144 247.56 207.494C247.557 206.622 247.21 205.787 246.594 205.171C245.978 204.555 245.143 204.208 244.271 204.205Z" fill="#231F20"/>
<path d="M253.661 211.604C252.809 211.604 251.977 211.352 251.27 210.879C250.562 210.406 250.01 209.734 249.685 208.948C249.359 208.161 249.274 207.296 249.44 206.461C249.606 205.626 250.016 204.859 250.617 204.258C251.219 203.656 251.986 203.246 252.821 203.08C253.656 202.914 254.521 202.999 255.307 203.325C256.094 203.65 256.766 204.202 257.239 204.91C257.712 205.617 257.964 206.45 257.964 207.301C257.964 208.442 257.511 209.537 256.704 210.344C255.897 211.151 254.802 211.604 253.661 211.604ZM253.661 204.012C253.01 204.012 252.374 204.205 251.833 204.566C251.293 204.928 250.871 205.441 250.622 206.042C250.373 206.643 250.308 207.304 250.435 207.942C250.562 208.58 250.875 209.166 251.335 209.626C251.795 210.086 252.381 210.399 253.019 210.526C253.657 210.653 254.318 210.588 254.919 210.339C255.52 210.09 256.034 209.669 256.395 209.128C256.756 208.587 256.949 207.951 256.949 207.301C256.946 206.429 256.599 205.594 255.983 204.978C255.367 204.362 254.532 204.015 253.661 204.012Z" fill="#231F20"/>
<path d="M140.224 246.703H134.347C134.213 246.703 134.084 246.65 133.988 246.554C133.893 246.459 133.84 246.33 133.84 246.195C133.84 246.061 133.893 245.932 133.988 245.837C134.084 245.741 134.213 245.688 134.347 245.688H140.224C140.359 245.688 140.488 245.741 140.583 245.837C140.678 245.932 140.732 246.061 140.732 246.195C140.732 246.33 140.678 246.459 140.583 246.554C140.488 246.65 140.359 246.703 140.224 246.703Z" fill="#D1D3D4"/>
</svg>
