<svg width="410" height="489" viewBox="0 0 410 489" fill="none" xmlns="http://www.w3.org/2000/svg">
<rect width="410" height="489" rx="20" fill="white"/>
<path d="M67.7173 353.894H348.75V363.8C348.75 364.766 348.367 365.693 347.683 366.377C347 367.06 346.073 367.444 345.107 367.444H71.3713C70.4049 367.444 69.478 367.06 68.7947 366.377C68.1113 365.693 67.7274 364.766 67.7274 363.8V353.894H67.7173Z" fill="#E6E7E8"/>
<path d="M345.107 367.951H71.3713C70.2746 367.943 69.2255 367.503 68.4519 366.725C67.6783 365.948 67.2429 364.897 67.2402 363.8V353.894C67.2428 353.76 67.2971 353.632 67.3918 353.538C67.4864 353.443 67.614 353.389 67.7477 353.386H348.75C348.885 353.386 349.014 353.44 349.109 353.535C349.204 353.63 349.258 353.759 349.258 353.894V363.8C349.258 364.901 348.821 365.957 348.042 366.736C347.264 367.514 346.208 367.951 345.107 367.951ZM68.2552 354.401V363.8C68.2579 364.633 68.5906 365.431 69.1804 366.018C69.7702 366.606 70.569 366.936 71.4017 366.936H345.107C345.938 366.934 346.734 366.603 347.321 366.015C347.909 365.427 348.24 364.631 348.243 363.8V354.401H68.2552Z" fill="#231F20"/>
<path d="M309.977 177.619H112.58C108.067 177.619 104.409 181.277 104.409 185.789V305.103C104.409 309.615 108.067 313.273 112.58 313.273H309.977C314.49 313.273 318.148 309.615 318.148 305.103V185.789C318.148 181.277 314.49 177.619 309.977 177.619Z" fill="#231F20"/>
<path d="M309.977 313.781H112.58C110.28 313.776 108.076 312.86 106.45 311.233C104.823 309.607 103.907 307.403 103.902 305.103V185.779C103.907 183.48 104.824 181.277 106.45 179.653C108.077 178.028 110.281 177.114 112.58 177.111H309.977C312.276 177.114 314.481 178.028 316.107 179.653C317.734 181.277 318.65 183.48 318.656 185.779V305.103C318.65 307.403 317.734 309.607 316.108 311.233C314.482 312.86 312.277 313.776 309.977 313.781ZM112.58 178.126C110.549 178.126 108.602 178.932 107.165 180.367C105.728 181.802 104.92 183.749 104.917 185.779V305.103C104.92 307.134 105.728 309.082 107.164 310.519C108.601 311.955 110.549 312.763 112.58 312.766H309.977C312.009 312.763 313.957 311.955 315.393 310.519C316.83 309.082 317.638 307.134 317.641 305.103V185.779C317.638 183.749 316.829 181.802 315.392 180.367C313.956 178.932 312.008 178.126 309.977 178.126H112.58Z" fill="#231F20"/>
<path d="M316.392 313.273H106.176C105.621 313.275 105.073 313.391 104.565 313.612C104.057 313.834 103.6 314.157 103.222 314.562L68.7932 351.894C68.2861 352.475 67.9548 353.188 67.8379 353.95C67.7211 354.711 67.8236 355.491 68.1334 356.197C68.4431 356.903 68.9475 357.506 69.5873 357.935C70.2272 358.365 70.9762 358.604 71.7468 358.624H344.782C345.553 358.604 346.303 358.364 346.944 357.933C347.584 357.502 348.088 356.897 348.397 356.19C348.706 355.483 348.807 354.702 348.688 353.939C348.569 353.177 348.235 352.464 347.725 351.884L319.387 314.552C319.005 314.141 318.541 313.815 318.025 313.594C317.51 313.374 316.953 313.265 316.392 313.273Z" fill="white"/>
<path d="M344.731 359.141H71.7466C70.8615 359.146 69.9943 358.892 69.2523 358.409C68.5103 357.927 67.926 357.237 67.5718 356.426C67.2175 355.615 67.1088 354.718 67.2591 353.846C67.4094 352.973 67.8121 352.164 68.4174 351.519L102.846 314.187C103.272 313.729 103.787 313.364 104.36 313.114C104.932 312.865 105.551 312.736 106.175 312.735H316.392C317.015 312.736 317.632 312.865 318.203 313.115C318.774 313.364 319.288 313.729 319.711 314.187L348.08 351.559C348.674 352.199 349.066 352.999 349.207 353.86C349.347 354.722 349.231 355.605 348.872 356.401C348.529 357.215 347.953 357.91 347.216 358.398C346.479 358.886 345.615 359.144 344.731 359.141ZM106.206 313.781C105.721 313.779 105.242 313.878 104.798 314.072C104.354 314.266 103.955 314.551 103.628 314.907L69.1685 352.239C68.7033 352.739 68.3944 353.364 68.28 354.038C68.1656 354.711 68.2506 355.403 68.5246 356.029C68.7986 356.655 69.2496 357.187 69.8221 357.559C70.3946 357.932 71.0636 358.129 71.7466 358.126H344.782C345.463 358.124 346.129 357.925 346.698 357.551C347.268 357.178 347.717 356.647 347.99 356.023C348.263 355.399 348.349 354.709 348.237 354.037C348.125 353.366 347.82 352.741 347.36 352.239L318.96 314.877C318.633 314.53 318.238 314.254 317.8 314.065C317.362 313.877 316.889 313.78 316.412 313.781H106.206Z" fill="#231F20"/>
<path d="M327.141 337.857H94.4014L109.921 319.435H312.636L327.141 337.857Z" fill="white"/>
<path d="M327.141 338.323H94.4012C94.3048 338.324 94.2102 338.296 94.1291 338.244C94.048 338.192 93.9839 338.117 93.9445 338.029C93.9054 337.942 93.8913 337.845 93.9039 337.75C93.9164 337.655 93.9551 337.565 94.0155 337.491L109.535 319.069C109.582 319.012 109.64 318.966 109.707 318.934C109.774 318.903 109.847 318.886 109.921 318.886H312.636C312.713 318.886 312.788 318.903 312.857 318.936C312.925 318.97 312.985 319.019 313.032 319.079L327.537 337.501C327.595 337.577 327.632 337.667 327.643 337.762C327.654 337.857 327.638 337.953 327.597 338.039C327.556 338.125 327.491 338.197 327.41 338.247C327.329 338.297 327.236 338.324 327.141 338.323ZM95.4974 337.308H326.065L312.362 319.901H110.154L95.4974 337.308Z" fill="#D1D3D4"/>
<path d="M245.515 353.366H177.043L185.945 340.415H236.623L245.515 353.366Z" fill="white"/>
<path d="M245.515 353.873H177.043C176.951 353.872 176.861 353.847 176.783 353.799C176.704 353.751 176.641 353.683 176.598 353.602C176.555 353.521 176.535 353.429 176.54 353.338C176.545 353.246 176.575 353.157 176.627 353.081L185.518 340.13C185.566 340.061 185.629 340.005 185.704 339.966C185.778 339.927 185.86 339.907 185.944 339.907H236.623C236.706 339.907 236.787 339.927 236.86 339.966C236.932 340.005 236.994 340.061 237.039 340.13L245.931 353.081C245.982 353.157 246.012 353.246 246.017 353.338C246.022 353.429 246.002 353.521 245.96 353.602C245.917 353.683 245.853 353.751 245.775 353.799C245.696 353.847 245.606 353.872 245.515 353.873ZM178.007 352.858H244.55L236.349 340.922H186.208L178.007 352.858Z" fill="#D1D3D4"/>
<path d="M309.104 184.541H111.728V305.336H309.104V184.541Z" fill="white"/>
<path d="M256.152 200.547H118.975V280.184H256.152V200.547Z" fill="white"/>
<path d="M256.142 280.692H119.005C118.87 280.692 118.741 280.638 118.646 280.543C118.551 280.448 118.498 280.319 118.498 280.184V200.548C118.498 200.413 118.551 200.284 118.646 200.189C118.741 200.094 118.87 200.04 119.005 200.04H256.142C256.276 200.04 256.405 200.094 256.501 200.189C256.596 200.284 256.649 200.413 256.649 200.548V280.184C256.649 280.319 256.596 280.448 256.501 280.543C256.405 280.638 256.276 280.692 256.142 280.692ZM119.482 279.677H255.634V201.055H119.482V279.677Z" fill="#231F20"/>
<path d="M285.353 201.501H262.577V220.177H285.353V201.501Z" fill="#E6E7E8"/>
<path d="M304.212 203.592H290.499C289.866 203.592 289.353 204.104 289.353 204.734C289.353 205.365 289.866 205.876 290.499 205.876H304.212C304.846 205.876 305.359 205.365 305.359 204.734C305.359 204.104 304.846 203.592 304.212 203.592Z" fill="#E6E7E8"/>
<path d="M304.212 208.556H290.499C289.866 208.556 289.353 209.067 289.353 209.698C289.353 210.328 289.866 210.839 290.499 210.839H304.212C304.846 210.839 305.359 210.328 305.359 209.698C305.359 209.067 304.846 208.556 304.212 208.556Z" fill="#E6E7E8"/>
<path d="M304.212 213.509H290.499C289.866 213.509 289.353 214.02 289.353 214.651C289.353 215.281 289.866 215.793 290.499 215.793H304.212C304.846 215.793 305.359 215.281 305.359 214.651C305.359 214.02 304.846 213.509 304.212 213.509Z" fill="#E6E7E8"/>
<path d="M285.353 226.075H262.577V244.751H285.353V226.075Z" fill="#E6E7E8"/>
<path d="M304.212 228.176H290.499C289.866 228.176 289.353 228.687 289.353 229.318C289.353 229.948 289.866 230.46 290.499 230.46H304.212C304.846 230.46 305.359 229.948 305.359 229.318C305.359 228.687 304.846 228.176 304.212 228.176Z" fill="#E6E7E8"/>
<path d="M304.212 233.129H290.499C289.866 233.129 289.353 233.64 289.353 234.271C289.353 234.901 289.866 235.413 290.499 235.413H304.212C304.846 235.413 305.359 234.901 305.359 234.271C305.359 233.64 304.846 233.129 304.212 233.129Z" fill="#E6E7E8"/>
<path d="M304.212 238.082H290.499C289.866 238.082 289.353 238.593 289.353 239.224C289.353 239.855 289.866 240.366 290.499 240.366H304.212C304.846 240.366 305.359 239.855 305.359 239.224C305.359 238.593 304.846 238.082 304.212 238.082Z" fill="#E6E7E8"/>
<path d="M285.353 250.658H262.577V269.334H285.353V250.658Z" fill="#E6E7E8"/>
<path d="M304.212 252.749H290.499C289.866 252.749 289.353 253.26 289.353 253.891C289.353 254.522 289.866 255.033 290.499 255.033H304.212C304.846 255.033 305.359 254.522 305.359 253.891C305.359 253.26 304.846 252.749 304.212 252.749Z" fill="#E6E7E8"/>
<path d="M304.212 257.702H290.499C289.866 257.702 289.353 258.213 289.353 258.844C289.353 259.475 289.866 259.986 290.499 259.986H304.212C304.846 259.986 305.359 259.475 305.359 258.844C305.359 258.213 304.846 257.702 304.212 257.702Z" fill="#E6E7E8"/>
<path d="M304.212 262.655H290.499C289.866 262.655 289.353 263.167 289.353 263.797C289.353 264.428 289.866 264.939 290.499 264.939H304.212C304.846 264.939 305.359 264.428 305.359 263.797C305.359 263.167 304.846 262.655 304.212 262.655Z" fill="#E6E7E8"/>
<path d="M285.353 275.231H262.577V293.907H285.353V275.231Z" fill="#E6E7E8"/>
<path d="M304.212 277.332H290.499C289.866 277.332 289.353 277.843 289.353 278.474C289.353 279.105 289.866 279.616 290.499 279.616H304.212C304.846 279.616 305.359 279.105 305.359 278.474C305.359 277.843 304.846 277.332 304.212 277.332Z" fill="#E6E7E8"/>
<path d="M304.212 282.286H290.499C289.866 282.286 289.353 282.797 289.353 283.428C289.353 284.058 289.866 284.569 290.499 284.569H304.212C304.846 284.569 305.359 284.058 305.359 283.428C305.359 282.797 304.846 282.286 304.212 282.286Z" fill="#E6E7E8"/>
<path d="M304.212 287.239H290.499C289.866 287.239 289.353 287.75 289.353 288.381C289.353 289.011 289.866 289.523 290.499 289.523H304.212C304.846 289.523 305.359 289.011 305.359 288.381C305.359 287.75 304.846 287.239 304.212 287.239Z" fill="#E6E7E8"/>
<path d="M125.927 298.617C129.347 298.617 132.119 295.845 132.119 292.425C132.119 289.006 129.347 286.234 125.927 286.234C122.508 286.234 119.736 289.006 119.736 292.425C119.736 295.845 122.508 298.617 125.927 298.617Z" fill="#E6E7E8"/>
<path d="M193.841 286.234H136.687V292.425H193.841V286.234Z" fill="#E6E7E8"/>
<path d="M177.124 294.242H136.687V298.627H177.124V294.242Z" fill="#E6E7E8"/>
<path d="M250.935 288.162H228.128C225.246 288.162 222.911 290.498 222.911 293.379C222.911 296.261 225.246 298.596 228.128 298.596H250.935C253.816 298.596 256.152 296.261 256.152 293.379C256.152 290.498 253.816 288.162 250.935 288.162Z" fill="#E6E7E8"/>
<path d="M258.06 204.343C258.06 204.343 264.15 198.436 264.627 197.106C265.104 195.777 266.921 188.58 268.636 186.479C270.352 184.378 271.204 186.053 270.057 191.341C270.057 191.341 275.447 182.206 277.264 182.135C279.456 182.034 283.212 187.271 282.633 189.626C282.308 190.966 281.161 198.761 275.305 203.44C272.073 206.219 269.328 209.52 267.185 213.204L258.06 204.343Z" fill="white"/>
<path d="M267.246 213.631C267.125 213.628 267.009 213.581 266.921 213.499L257.786 204.638C257.696 204.549 257.645 204.429 257.644 204.303C257.644 204.24 257.656 204.178 257.68 204.121C257.705 204.063 257.741 204.011 257.786 203.968C260.131 201.715 263.957 197.807 264.242 196.924C264.313 196.7 264.424 196.325 264.566 195.838C265.297 193.28 266.83 187.971 268.322 186.144C269.073 185.241 269.743 184.916 270.301 185.19C271.032 185.535 271.255 186.804 270.991 188.966C272.849 186.012 275.813 181.699 277.294 181.628C278.776 181.557 280.289 183.242 280.888 183.962C282.288 185.657 283.527 188.093 283.141 189.697C283.141 189.809 283.08 189.971 283.029 190.184C282.552 192.478 281.101 199.441 275.64 203.765C272.467 206.509 269.771 209.761 267.662 213.387C267.627 213.45 267.577 213.504 267.517 213.544C267.457 213.585 267.389 213.611 267.317 213.62L267.246 213.631ZM258.771 204.343L267.195 212.463C269.297 208.92 271.968 205.748 275.102 203.075C280.309 199.015 281.71 192.245 282.207 190.042C282.207 189.819 282.288 189.636 282.319 189.514C282.572 188.499 281.689 186.337 280.289 184.591C279.274 183.333 278.157 182.561 277.447 182.561C276.432 182.561 273.153 187.261 270.626 191.544C270.568 191.637 270.48 191.708 270.377 191.744C270.274 191.781 270.161 191.782 270.058 191.747C269.955 191.705 269.87 191.628 269.819 191.529C269.767 191.431 269.751 191.318 269.773 191.209C270.636 187.22 270.179 186.134 270.017 186.033C269.855 185.931 269.662 186.124 269.154 186.743C267.784 188.418 266.231 193.848 265.561 196.102C265.419 196.609 265.307 196.995 265.236 197.218C264.708 198.467 260.303 202.811 258.771 204.343Z" fill="#231F20"/>
<path d="M217.846 203.329C220.769 198.507 221.51 192.661 221.236 187.089C221.042 180.938 219.423 174.917 216.506 169.499C215.321 167.173 213.577 165.178 211.431 163.693C208.802 162.028 207.005 163.155 204.427 162.678C202.255 162.302 199.982 160.749 197.566 160.354C191.998 159.417 186.283 160.625 181.57 163.734C173.318 169.316 169.501 179.974 160.975 185.16C152.622 190.235 141.924 188.692 132.555 191.494C128.601 192.679 124.916 194.624 121.705 197.218C119.494 198.921 117.682 201.086 116.396 203.562C114.204 208.16 114.783 213.641 116.396 218.483C118.01 223.324 120.761 228.267 125.024 231.333C128.587 233.9 132.961 235.088 137.295 235.87C143.17 237.102 149.23 237.164 155.129 236.052C159.494 235.172 163.559 233.183 166.933 230.277C168.385 228.988 169.187 227.232 170.537 225.943C172.394 224.177 175.287 223.101 177.459 221.751C180.869 219.63 184.28 217.366 188.157 216.371C197.992 213.773 211.908 213.073 217.846 203.329Z" fill="white"/>
<path d="M147.303 237.26C143.897 237.226 140.5 236.886 137.153 236.245C133.398 235.565 128.577 234.428 124.689 231.627C120.802 228.825 117.797 224.339 115.96 218.554C114.62 214.494 113.545 208.464 116.021 203.329C117.321 200.778 119.181 198.554 121.462 196.822C124.715 194.186 128.453 192.21 132.464 191.006C136.255 190.003 140.127 189.341 144.035 189.027C150.125 188.357 155.799 187.728 160.773 184.724C165.107 182.105 168.284 177.923 171.349 173.873C174.272 170.026 177.297 166.048 181.336 163.307C186.15 160.128 191.99 158.895 197.678 159.856C198.965 160.122 200.216 160.541 201.403 161.105C202.405 161.578 203.457 161.939 204.539 162.18C205.356 162.296 206.184 162.316 207.006 162.241C208.646 162.021 210.312 162.38 211.715 163.256C213.924 164.783 215.72 166.834 216.943 169.225C219.904 174.701 221.545 180.794 221.733 187.018C222.048 193.706 220.891 199.269 218.272 203.572C213.4 211.53 203.362 213.58 194.521 215.377C192.298 215.833 190.208 216.26 188.249 216.767C184.757 217.66 181.59 219.64 178.535 221.558L177.682 222.086C176.911 222.563 176.038 223.02 175.196 223.456C173.617 224.175 172.145 225.107 170.821 226.227C170.217 226.851 169.673 227.531 169.197 228.257C168.627 229.113 167.963 229.903 167.218 230.612C163.784 233.574 159.645 235.602 155.2 236.499C152.603 237.036 149.955 237.292 147.303 237.26ZM193.872 160.465C189.59 160.445 185.4 161.699 181.834 164.068C177.906 166.718 174.932 170.635 172.059 174.421C168.933 178.542 165.705 182.795 161.219 185.505C156.073 188.621 149.993 189.291 144.106 189.941C140.253 190.248 136.436 190.896 132.698 191.879C128.816 193.056 125.2 194.977 122.05 197.533C119.884 199.183 118.113 201.295 116.864 203.714C114.529 208.607 115.564 214.341 116.864 218.29C118.67 223.862 121.594 228.227 125.308 230.906C129.023 233.586 133.733 234.702 137.397 235.362C144.218 236.59 149.993 236.651 155.058 235.555C159.346 234.694 163.339 232.74 166.649 229.881C167.341 229.214 167.96 228.476 168.497 227.678C169.012 226.918 169.592 226.205 170.232 225.547C171.62 224.369 173.164 223.389 174.82 222.634C175.683 222.187 176.505 221.761 177.236 221.304L178.088 220.766C181.215 218.817 184.442 216.808 188.066 215.864C190.045 215.356 192.126 214.93 194.379 214.473C203.037 212.707 212.852 210.708 217.501 203.044C220.018 198.903 221.135 193.503 220.82 187.018C220.652 180.935 219.052 174.979 216.151 169.631C215.008 167.37 213.32 165.43 211.238 163.987C209.999 163.222 208.526 162.927 207.087 163.155C206.194 163.241 205.294 163.217 204.407 163.084C203.255 162.832 202.135 162.451 201.068 161.947C199.945 161.414 198.763 161.016 197.546 160.759C196.332 160.558 195.103 160.459 193.872 160.465Z" fill="#231F20"/>
<path d="M258.913 201.156L241.871 219C241.871 219 201.788 199.603 192.44 197.157C188.969 196.244 178.23 201.978 165.837 209.906V238.427L164 279.707H207.706C208.467 275.789 210.507 268.258 212.375 264.482C214.73 259.742 224.809 252.749 221.642 234.601C221.642 234.601 245.393 249.623 252.092 242.721C258.791 235.819 273.234 209.489 273.234 209.489L258.913 201.156Z" fill="black"/>
<path d="M191.578 210.657C191.578 210.657 198.023 230.662 199.119 239.138C200.215 247.613 200.388 261.61 200.388 261.61C200.388 261.61 210.538 230.388 209.32 211.103L191.578 210.657Z" fill="#231F20"/>
<path d="M200.398 262.056H200.327C200.222 262.04 200.126 261.987 200.055 261.908C199.985 261.828 199.944 261.726 199.941 261.62C199.941 261.478 199.768 247.542 198.682 239.188C197.596 230.835 191.212 210.992 191.151 210.768C191.13 210.7 191.126 210.628 191.138 210.557C191.151 210.486 191.179 210.42 191.222 210.362C191.267 210.309 191.323 210.266 191.386 210.237C191.449 210.207 191.518 210.191 191.587 210.19L209.33 210.637C209.441 210.641 209.546 210.686 209.626 210.762C209.707 210.839 209.756 210.942 209.766 211.053C211.025 230.206 200.915 261.417 200.814 261.732C200.788 261.823 200.734 261.904 200.659 261.962C200.584 262.021 200.493 262.054 200.398 262.056ZM192.197 211.114C193.272 214.524 198.581 231.485 199.565 239.077C200.367 245.167 200.672 254.302 200.783 258.839C203.148 250.973 209.786 227.272 208.903 211.54L192.197 211.114Z" fill="#231F20"/>
<path d="M207.117 199.888L209.32 211.053C209.32 211.053 209.37 217.549 202.215 216.929C200.09 216.728 198.036 216.057 196.203 214.963C194.37 213.869 192.804 212.381 191.618 210.606L188.695 191.016C188.95 187.448 188.663 183.861 187.842 180.379C196.115 178.674 201.453 171.163 201.453 171.163C201.453 171.163 205.128 174.908 206.62 176.025C207.793 176.871 208.857 177.86 209.787 178.968C211.35 180.907 211.817 183.617 212.223 186.013C212.729 188.857 212.984 191.741 212.984 194.63C212.892 200.141 207.117 199.888 207.117 199.888Z" fill="white"/>
<path d="M203.108 217.539C202.793 217.539 202.469 217.539 202.093 217.539C199.892 217.34 197.764 216.647 195.868 215.511C193.972 214.376 192.356 212.828 191.141 210.982C191.11 210.929 191.09 210.87 191.08 210.809L188.198 191.149C188.168 190.811 188.168 190.471 188.198 190.134C188.379 186.904 188.085 183.666 187.325 180.522C187.313 180.462 187.314 180.401 187.326 180.342C187.338 180.283 187.362 180.227 187.396 180.177C187.466 180.076 187.571 180.003 187.69 179.974C195.678 178.329 200.966 171.021 201.017 170.95C201.057 170.895 201.109 170.849 201.168 170.816C201.228 170.782 201.294 170.762 201.362 170.757C201.429 170.752 201.496 170.761 201.559 170.784C201.622 170.806 201.68 170.842 201.728 170.889C201.728 170.889 205.392 174.625 206.803 175.711C208.017 176.563 209.121 177.562 210.091 178.685C211.746 180.715 212.233 183.628 212.619 185.952C213.134 188.823 213.389 191.734 213.38 194.651C213.406 195.403 213.275 196.153 212.996 196.852C212.716 197.551 212.294 198.184 211.756 198.711C210.599 199.705 209.139 200.277 207.615 200.335L209.706 211.012C209.703 211.916 209.523 212.811 209.174 213.645C208.826 214.479 208.317 215.237 207.676 215.874C206.421 216.991 204.787 217.587 203.108 217.539ZM192.024 210.535C193.169 212.23 194.671 213.653 196.424 214.705C198.178 215.757 200.141 216.413 202.174 216.625C203.04 216.764 203.925 216.718 204.772 216.491C205.618 216.263 206.407 215.859 207.087 215.306C208.149 214.216 208.765 212.767 208.812 211.246L206.62 200.081C206.606 200.011 206.608 199.94 206.625 199.871C206.643 199.803 206.676 199.739 206.722 199.685C206.768 199.632 206.826 199.59 206.891 199.561C206.956 199.533 207.026 199.52 207.097 199.523C208.573 199.556 210.012 199.063 211.157 198.132C211.602 197.688 211.949 197.156 212.178 196.571C212.407 195.986 212.512 195.36 212.487 194.732C212.494 191.873 212.242 189.019 211.736 186.206C211.34 183.871 210.903 181.232 209.401 179.365C208.492 178.267 207.449 177.289 206.295 176.452C204.606 175.026 202.99 173.515 201.454 171.925C200.185 173.549 195.364 179.141 188.34 180.786C189.049 183.865 189.315 187.03 189.132 190.185C189.103 190.454 189.103 190.727 189.132 190.997C189.121 191.057 191.801 209.013 192.024 210.485V210.535Z" fill="#231F20"/>
<path d="M208.102 205.42C208.102 205.42 203.575 206.435 200.073 203.999C199.092 203.383 198.257 202.561 197.626 201.59C196.994 200.619 196.583 199.522 196.419 198.375C196.419 198.375 201.971 200.751 207.117 199.888L208.102 205.42Z" fill="#231F20"/>
<path d="M205.737 206.099C203.627 206.14 201.556 205.527 199.809 204.343C198.769 203.693 197.885 202.821 197.222 201.789C196.559 200.757 196.132 199.591 195.972 198.375C195.97 198.3 195.986 198.226 196.02 198.159C196.054 198.093 196.104 198.035 196.166 197.993C196.227 197.95 196.298 197.924 196.373 197.916C196.447 197.909 196.523 197.92 196.592 197.949C196.642 197.949 202.093 200.253 207.036 199.431C207.093 199.419 207.152 199.419 207.21 199.431C207.267 199.442 207.322 199.465 207.37 199.499C207.418 199.532 207.46 199.574 207.491 199.624C207.523 199.673 207.544 199.728 207.554 199.786L208.569 205.318C208.587 205.43 208.564 205.546 208.502 205.642C208.44 205.737 208.344 205.807 208.234 205.835C207.413 206.012 206.576 206.101 205.737 206.099ZM196.987 199.075C197.513 200.948 198.7 202.567 200.327 203.633C202.488 204.985 205.072 205.491 207.584 205.054L206.752 200.395C203.439 200.696 200.101 200.245 196.987 199.075Z" fill="#231F20"/>
<path d="M207.537 183.32C207.875 183.242 208.03 182.661 207.882 182.022C207.735 181.383 207.34 180.928 207.002 181.006C206.663 181.085 206.508 181.666 206.656 182.305C206.804 182.944 207.198 183.399 207.537 183.32Z" fill="#231F20"/>
<path d="M197.189 184.373C197.528 184.295 197.683 183.713 197.535 183.074C197.387 182.435 196.993 181.981 196.655 182.059C196.316 182.137 196.161 182.719 196.309 183.358C196.456 183.997 196.851 184.451 197.189 184.373Z" fill="#231F20"/>
<path d="M191.314 184.592C190.187 182.765 187.548 182.511 185.711 183.262C185.1 183.481 184.568 183.877 184.183 184.399C183.798 184.922 183.577 185.547 183.549 186.195C183.544 186.993 183.688 187.785 183.975 188.53C184.464 189.919 185.2 191.208 186.147 192.336C186.593 192.927 187.179 193.398 187.853 193.706C188.279 193.862 188.742 193.884 189.18 193.77C189.619 193.655 190.013 193.41 190.309 193.067" fill="white"/>
<path d="M188.614 194.315C188.294 194.313 187.977 194.251 187.68 194.133C186.936 193.8 186.288 193.287 185.792 192.641C184.808 191.468 184.045 190.127 183.539 188.682C183.223 187.885 183.071 187.032 183.092 186.175C183.126 185.438 183.376 184.728 183.811 184.132C184.246 183.536 184.847 183.082 185.538 182.826C187.568 181.993 190.471 182.338 191.71 184.348C191.761 184.452 191.771 184.572 191.739 184.684C191.707 184.795 191.634 184.891 191.535 184.952C191.436 185.013 191.318 185.034 191.204 185.013C191.09 184.991 190.988 184.928 190.918 184.835C189.903 183.262 187.548 183.018 185.843 183.688C185.315 183.875 184.854 184.215 184.521 184.666C184.189 185.116 183.998 185.656 183.975 186.216C183.962 186.956 184.097 187.69 184.371 188.378C184.846 189.713 185.554 190.954 186.462 192.042C186.873 192.574 187.41 192.996 188.025 193.27C188.369 193.388 188.74 193.4 189.09 193.306C189.441 193.212 189.756 193.016 189.994 192.742C190.082 192.655 190.201 192.606 190.324 192.606C190.448 192.606 190.567 192.655 190.654 192.742C190.697 192.785 190.731 192.835 190.754 192.891C190.778 192.947 190.79 193.007 190.79 193.067C190.79 193.127 190.778 193.187 190.754 193.243C190.731 193.299 190.697 193.349 190.654 193.392C190.394 193.675 190.079 193.903 189.728 194.062C189.378 194.221 188.999 194.307 188.614 194.315Z" fill="#231F20"/>
<path d="M204.813 189.768L199.373 190.296C199.373 190.296 200.509 198.69 202.945 198.416C205.381 198.142 205.412 192.163 204.813 189.768Z" fill="white"/>
<path d="M202.854 198.923C200.215 198.923 199.129 191.818 198.926 190.357C198.914 190.236 198.95 190.116 199.026 190.021C199.102 189.926 199.212 189.865 199.332 189.849L204.772 189.322C204.879 189.311 204.985 189.339 205.073 189.4C205.161 189.462 205.223 189.553 205.249 189.656C205.716 191.544 205.869 196.051 204.498 197.969C204.333 198.228 204.113 198.446 203.853 198.609C203.593 198.773 203.301 198.876 202.996 198.913L202.854 198.923ZM199.89 190.702C200.377 193.909 201.545 198.02 202.854 198.02C203.031 197.996 203.201 197.933 203.35 197.835C203.5 197.736 203.625 197.605 203.717 197.452C204.732 195.99 204.813 192.377 204.407 190.255L199.89 190.702Z" fill="#231F20"/>
<path d="M219.267 254.19C219.18 254.191 219.096 254.166 219.023 254.119C218.919 254.054 218.844 253.951 218.815 253.831C218.787 253.711 218.807 253.585 218.871 253.48C218.932 253.389 224.88 243.33 219.186 222.512C219.16 222.451 219.148 222.385 219.149 222.318C219.151 222.252 219.167 222.187 219.196 222.127C219.226 222.067 219.267 222.014 219.318 221.972C219.37 221.93 219.429 221.899 219.493 221.881C219.557 221.864 219.624 221.86 219.69 221.871C219.756 221.881 219.818 221.906 219.874 221.942C219.929 221.979 219.976 222.027 220.012 222.083C220.047 222.14 220.07 222.203 220.079 222.269C225.895 243.584 219.916 253.551 219.663 253.967C219.62 254.034 219.562 254.09 219.493 254.129C219.424 254.168 219.346 254.189 219.267 254.19Z" fill="#231F20"/>
<path d="M196.145 187.647C195.063 187.647 194.005 187.326 193.106 186.725C192.206 186.124 191.505 185.269 191.091 184.27C190.677 183.27 190.568 182.17 190.779 181.109C190.991 180.047 191.512 179.073 192.277 178.307C193.042 177.542 194.017 177.021 195.078 176.81C196.139 176.599 197.239 176.707 198.239 177.122C199.238 177.536 200.093 178.237 200.694 179.136C201.295 180.036 201.616 181.094 201.616 182.176C201.613 183.626 201.036 185.016 200.011 186.041C198.985 187.067 197.595 187.644 196.145 187.647ZM196.145 177.608C195.239 177.606 194.352 177.873 193.598 178.376C192.844 178.878 192.256 179.593 191.908 180.43C191.56 181.266 191.469 182.188 191.645 183.077C191.821 183.966 192.257 184.782 192.898 185.423C193.539 186.064 194.356 186.5 195.244 186.676C196.133 186.853 197.055 186.761 197.891 186.413C198.728 186.066 199.443 185.477 199.945 184.723C200.448 183.969 200.715 183.082 200.713 182.176C200.71 180.965 200.228 179.805 199.372 178.949C198.516 178.093 197.356 177.611 196.145 177.608Z" fill="#231F20"/>
<path d="M207.31 186.236C206.228 186.236 205.17 185.915 204.271 185.314C203.371 184.713 202.67 183.859 202.256 182.859C201.842 181.859 201.733 180.759 201.944 179.698C202.156 178.637 202.677 177.662 203.442 176.897C204.207 176.132 205.182 175.611 206.243 175.4C207.304 175.188 208.404 175.297 209.404 175.711C210.403 176.125 211.258 176.826 211.859 177.726C212.46 178.626 212.781 179.683 212.781 180.765C212.778 182.215 212.201 183.605 211.176 184.631C210.15 185.656 208.76 186.233 207.31 186.236ZM207.31 176.198C206.407 176.198 205.524 176.466 204.773 176.968C204.022 177.469 203.436 178.183 203.09 179.017C202.745 179.852 202.654 180.77 202.83 181.656C203.007 182.542 203.442 183.356 204.081 183.995C204.719 184.634 205.533 185.069 206.419 185.245C207.305 185.421 208.224 185.331 209.058 184.985C209.893 184.639 210.606 184.054 211.108 183.303C211.61 182.552 211.878 181.669 211.878 180.765C211.875 179.555 211.393 178.395 210.537 177.539C209.681 176.683 208.521 176.2 207.31 176.198Z" fill="#231F20"/>
<path d="M201.119 180.765C201.119 180.765 205.757 185.475 205.077 186.571C204.397 187.667 201.88 187.515 201.88 187.515" fill="white"/>
<path d="M202.235 187.972H201.829C201.71 187.964 201.598 187.909 201.518 187.82C201.439 187.731 201.397 187.614 201.403 187.495C201.413 187.376 201.468 187.266 201.557 187.187C201.645 187.108 201.761 187.065 201.88 187.068C202.469 187.068 204.235 187.068 204.671 186.348C204.854 185.84 203.037 183.384 200.784 181.09C200.7 181.005 200.654 180.891 200.655 180.772C200.656 180.653 200.704 180.539 200.789 180.456C200.874 180.372 200.988 180.326 201.107 180.327C201.226 180.328 201.34 180.376 201.423 180.461C203.25 182.318 206.194 185.607 205.483 186.825C204.823 187.84 203.078 187.972 202.235 187.972Z" fill="#231F20"/>
<path d="M270.677 198.842H270.534C270.418 198.803 270.321 198.719 270.266 198.609C270.211 198.499 270.201 198.371 270.24 198.254C271.57 193.94 269.824 191.697 269.753 191.606C269.714 191.559 269.685 191.504 269.668 191.446C269.651 191.388 269.645 191.326 269.652 191.266C269.658 191.205 269.677 191.147 269.706 191.093C269.736 191.04 269.776 190.993 269.824 190.956C269.919 190.879 270.04 190.843 270.161 190.854C270.283 190.865 270.395 190.924 270.474 191.017C270.555 191.128 272.615 193.707 271.123 198.528C271.091 198.621 271.031 198.701 270.951 198.757C270.87 198.814 270.775 198.844 270.677 198.842Z" fill="#231F20"/>
<path d="M157.149 279.708L146.501 251.562L168.74 236.113L167.502 208.881C146.603 222.309 124.039 238.123 121.887 242.731C119.736 247.339 129.774 268.309 136.981 279.708H157.149Z" fill="black"/>
<path d="M149.759 249.806C149.686 249.804 149.614 249.786 149.549 249.753C149.484 249.719 149.427 249.672 149.384 249.613C149.318 249.52 149.289 249.407 149.302 249.295C149.315 249.182 149.37 249.078 149.455 249.004L177.54 229.333C177.59 229.299 177.646 229.274 177.705 229.262C177.764 229.249 177.826 229.249 177.885 229.26C177.945 229.271 178.001 229.294 178.052 229.328C178.102 229.361 178.146 229.404 178.179 229.455C178.216 229.504 178.242 229.559 178.256 229.618C178.27 229.677 178.272 229.739 178.261 229.799C178.251 229.858 178.228 229.916 178.195 229.966C178.162 230.017 178.118 230.061 178.068 230.094L149.983 249.765C149.912 249.795 149.836 249.809 149.759 249.806Z" fill="#231F20"/>
<path d="M270.859 251.155L272.981 246.466H286.876C286.876 246.466 289.211 251.541 289.211 251.368C289.211 251.196 270.859 251.155 270.859 251.155Z" fill="white"/>
<path d="M289.17 251.845C289.127 251.857 289.081 251.857 289.038 251.845C287.952 251.744 277.67 251.673 270.849 251.652C270.772 251.653 270.696 251.634 270.629 251.597C270.561 251.56 270.504 251.507 270.462 251.442C270.421 251.377 270.396 251.303 270.391 251.226C270.386 251.15 270.4 251.073 270.433 251.003L272.554 246.314C272.593 246.233 272.654 246.165 272.729 246.117C272.804 246.068 272.891 246.042 272.981 246.04H286.876C286.964 246.041 287.05 246.068 287.124 246.116C287.197 246.165 287.256 246.233 287.292 246.314C288.094 248.039 289.423 250.881 289.586 251.145C289.623 251.177 289.65 251.219 289.666 251.265C289.682 251.311 289.686 251.361 289.677 251.409C289.679 251.516 289.644 251.62 289.577 251.703C289.51 251.787 289.417 251.844 289.312 251.866L289.17 251.845ZM271.57 250.688C282.258 250.688 286.632 250.739 288.429 250.871C288.074 250.16 287.515 248.963 286.571 246.933H273.285L271.57 250.688Z" fill="#231F20"/>
<path d="M277.101 247.735H275.01C274.624 247.735 274.31 248.048 274.31 248.435V249.125C274.31 249.512 274.624 249.826 275.01 249.826H277.101C277.488 249.826 277.802 249.512 277.802 249.125V248.435C277.802 248.048 277.488 247.735 277.101 247.735Z" fill="#231F20"/>
<path d="M279.974 269.253H276.878V278.398H279.974V269.253Z" fill="white"/>
<path d="M279.974 278.855H276.929C276.807 278.852 276.691 278.802 276.605 278.715C276.52 278.627 276.472 278.51 276.472 278.388V269.253C276.471 269.192 276.482 269.132 276.504 269.075C276.526 269.019 276.56 268.967 276.602 268.923C276.645 268.88 276.696 268.845 276.752 268.822C276.808 268.798 276.868 268.786 276.929 268.786H279.974C280.035 268.786 280.096 268.798 280.153 268.822C280.209 268.845 280.261 268.88 280.304 268.923C280.348 268.966 280.382 269.018 280.405 269.074C280.429 269.131 280.441 269.192 280.441 269.253V278.388C280.438 278.511 280.388 278.628 280.301 278.715C280.214 278.802 280.097 278.852 279.974 278.855ZM277.345 277.931H279.507V269.71H277.345V277.931Z" fill="#231F20"/>
<path d="M283.384 278.388H273.468V283.94H283.384V278.388Z" fill="white"/>
<path d="M283.435 284.407H273.518C273.397 284.407 273.281 284.359 273.195 284.273C273.11 284.187 273.062 284.071 273.062 283.95V278.439C273.062 278.318 273.11 278.201 273.195 278.116C273.281 278.03 273.397 277.982 273.518 277.982H283.435C283.557 277.982 283.674 278.03 283.761 278.115C283.849 278.2 283.899 278.317 283.902 278.439V284.001C283.887 284.114 283.831 284.218 283.745 284.292C283.659 284.367 283.549 284.408 283.435 284.407ZM273.985 283.483H282.968V278.855H273.985V283.483Z" fill="#231F20"/>
<path d="M278.431 388.535C278.027 388.535 277.64 388.375 277.355 388.089C277.069 387.804 276.909 387.417 276.909 387.013V285.96C276.909 285.556 277.069 285.168 277.355 284.883C277.64 284.597 278.027 284.437 278.431 284.437C278.835 284.437 279.222 284.597 279.508 284.883C279.793 285.168 279.954 285.556 279.954 285.96V387.043C279.946 387.442 279.782 387.821 279.497 388.1C279.212 388.379 278.83 388.535 278.431 388.535Z" fill="#231F20"/>
<path d="M249.067 378.517C248.933 378.517 248.799 378.497 248.671 378.457C248.478 378.406 248.297 378.318 248.139 378.197C247.98 378.076 247.847 377.924 247.747 377.752C247.647 377.579 247.582 377.388 247.556 377.191C247.53 376.993 247.543 376.792 247.595 376.599L271.955 285.564C272.06 285.173 272.316 284.841 272.666 284.639C273.017 284.437 273.433 284.383 273.823 284.488C274.213 284.593 274.546 284.849 274.748 285.199C274.949 285.549 275.004 285.965 274.899 286.355L250.539 377.381C250.452 377.705 250.261 377.992 249.995 378.198C249.729 378.403 249.403 378.516 249.067 378.517Z" fill="#231F20"/>
<path d="M307.714 378.517C307.379 378.515 307.054 378.402 306.79 378.197C306.526 377.991 306.337 377.704 306.252 377.381L281.841 286.355C281.736 285.965 281.791 285.549 281.993 285.199C282.194 284.849 282.527 284.593 282.917 284.488C283.308 284.383 283.724 284.437 284.074 284.639C284.424 284.841 284.68 285.173 284.785 285.564L309.145 376.599C309.197 376.792 309.21 376.993 309.184 377.191C309.158 377.388 309.094 377.579 308.994 377.752C308.894 377.924 308.76 378.076 308.602 378.197C308.443 378.318 308.262 378.406 308.069 378.457C307.954 378.493 307.834 378.513 307.714 378.517Z" fill="#231F20"/>
<path d="M292.753 250.82H268.007C266.964 250.82 266.119 251.666 266.119 252.708V265.193C266.119 266.235 266.964 267.081 268.007 267.081H292.753C293.795 267.081 294.641 266.235 294.641 265.193V252.708C294.641 251.666 293.795 250.82 292.753 250.82Z" fill="white"/>
<path d="M292.743 267.548H268.007C267.384 267.548 266.787 267.301 266.346 266.862C265.904 266.422 265.655 265.826 265.652 265.203V252.708C265.655 252.086 265.904 251.489 266.346 251.05C266.787 250.61 267.384 250.364 268.007 250.364H292.743C293.365 250.364 293.963 250.61 294.404 251.05C294.846 251.489 295.095 252.086 295.097 252.708V265.244C295.084 265.859 294.83 266.445 294.39 266.876C293.95 267.307 293.359 267.548 292.743 267.548ZM268.007 251.308C267.629 251.308 267.267 251.457 266.999 251.723C266.731 251.99 266.579 252.351 266.576 252.729V265.244C266.579 265.621 266.731 265.983 266.999 266.249C267.267 266.515 267.629 266.665 268.007 266.665H292.743C293.121 266.665 293.483 266.515 293.751 266.249C294.019 265.983 294.171 265.621 294.174 265.244V252.708C294.171 252.331 294.019 251.969 293.751 251.703C293.483 251.437 293.121 251.287 292.743 251.287L268.007 251.308Z" fill="#231F20"/>
<path d="M284.47 252.678H268.454V265.04H284.47V252.678Z" fill="white"/>
<path d="M284.45 265.507H268.454C268.332 265.505 268.216 265.454 268.13 265.367C268.045 265.28 267.997 265.163 267.997 265.041V252.678C267.997 252.556 268.045 252.438 268.13 252.351C268.216 252.264 268.332 252.214 268.454 252.211H284.45C284.574 252.211 284.693 252.26 284.78 252.348C284.868 252.435 284.917 252.554 284.917 252.678V265.041C284.917 265.164 284.868 265.283 284.78 265.371C284.693 265.458 284.574 265.507 284.45 265.507ZM268.9 264.584H283.993V253.145H268.921L268.9 264.584Z" fill="#231F20"/>
<path d="M289.586 265.264C290.746 265.264 291.687 264.323 291.687 263.163C291.687 262.003 290.746 261.062 289.586 261.062C288.426 261.062 287.485 262.003 287.485 263.163C287.485 264.323 288.426 265.264 289.586 265.264Z" fill="white"/>
<path d="M289.586 265.721C289.08 265.721 288.586 265.571 288.165 265.29C287.744 265.008 287.417 264.609 287.223 264.142C287.029 263.674 286.979 263.16 287.077 262.664C287.176 262.168 287.42 261.712 287.777 261.354C288.135 260.996 288.591 260.753 289.087 260.654C289.583 260.555 290.098 260.606 290.565 260.8C291.032 260.993 291.432 261.321 291.713 261.742C291.994 262.162 292.144 262.657 292.144 263.163C292.144 263.841 291.874 264.492 291.395 264.971C290.915 265.451 290.265 265.721 289.586 265.721ZM289.586 261.529C289.263 261.529 288.947 261.624 288.678 261.804C288.41 261.984 288.2 262.239 288.076 262.537C287.953 262.836 287.92 263.165 287.983 263.482C288.046 263.799 288.202 264.09 288.431 264.318C288.659 264.547 288.95 264.702 289.267 264.766C289.584 264.829 289.913 264.796 290.211 264.673C290.51 264.549 290.765 264.339 290.945 264.071C291.124 263.802 291.22 263.486 291.22 263.163C291.22 262.729 291.048 262.314 290.742 262.007C290.435 261.701 290.02 261.529 289.586 261.529Z" fill="#231F20"/>
<path d="M289.586 259.539C290.404 259.539 291.068 258.876 291.068 258.058C291.068 257.239 290.404 256.576 289.586 256.576C288.767 256.576 288.104 257.239 288.104 258.058C288.104 258.876 288.767 259.539 289.586 259.539Z" fill="#231F20"/>
<path d="M289.586 255.408C290.404 255.408 291.068 254.745 291.068 253.926C291.068 253.108 290.404 252.444 289.586 252.444C288.767 252.444 288.104 253.108 288.104 253.926C288.104 254.745 288.767 255.408 289.586 255.408Z" fill="#231F20"/>
<path d="M283.445 267.091H273.417V269.628H283.445V267.091Z" fill="white"/>
<path d="M283.435 270.085H273.417C273.294 270.083 273.177 270.033 273.09 269.946C273.003 269.859 272.953 269.741 272.95 269.618V267.091C272.95 266.967 272.999 266.848 273.087 266.761C273.174 266.673 273.293 266.624 273.417 266.624H283.435C283.497 266.623 283.558 266.634 283.615 266.657C283.673 266.68 283.725 266.714 283.768 266.758C283.812 266.801 283.846 266.853 283.869 266.911C283.892 266.968 283.903 267.029 283.902 267.091V269.618C283.902 269.742 283.853 269.861 283.765 269.949C283.678 270.036 283.559 270.085 283.435 270.085ZM273.884 269.151H283.019V267.548H273.884V269.151Z" fill="#231F20"/>
<path d="M286.531 283.95H270.321V287.98H286.531V283.95Z" fill="white"/>
<path d="M286.531 288.436H270.291C270.169 288.436 270.051 288.389 269.964 288.303C269.877 288.218 269.826 288.102 269.824 287.98V283.92C269.824 283.796 269.873 283.677 269.96 283.59C270.048 283.502 270.167 283.453 270.291 283.453H286.531C286.592 283.451 286.654 283.462 286.711 283.485C286.768 283.508 286.82 283.543 286.864 283.586C286.908 283.63 286.942 283.682 286.965 283.739C286.988 283.797 286.999 283.858 286.998 283.92V287.98C286.998 288.04 286.985 288.101 286.962 288.157C286.938 288.213 286.904 288.264 286.86 288.306C286.817 288.349 286.765 288.382 286.709 288.405C286.652 288.427 286.591 288.438 286.531 288.436ZM270.788 287.513H286.074V284.407H270.788V287.513Z" fill="#231F20"/>
<path d="M86.5249 306.574C86.6232 305.143 86.321 303.712 85.652 302.443C85.1039 301.53 84.2513 300.799 83.7945 299.835C83.013 298.15 83.5712 296.181 83.3784 294.343C83.2119 292.811 82.5323 291.381 81.4499 290.283C80.4349 289.268 79.2473 288.639 78.3237 287.624C76.8215 285.96 76.385 283.615 75.5223 281.534C74.3105 278.59 72.2006 276.104 69.4932 274.429C71.1476 277.738 67.3921 281.94 69.0973 285.219C69.6353 286.234 70.6604 287.025 71.0563 288.122C72.0104 290.791 68.8334 293.674 69.8484 296.313C70.3559 297.632 71.7668 298.343 72.4265 299.642C73.3096 301.327 72.6092 303.377 72.6904 305.275C72.7818 307.904 74.3855 310.249 76.2835 312.065C77.4609 313.202 78.7804 314.177 80.0593 315.202C81.5818 316.43 82.2314 317.709 83.5712 315.75C85.4262 313.043 86.4526 309.855 86.5249 306.574Z" fill="#231F20"/>
<path d="M88.2608 308.077C87.7736 306.047 87.4285 303.844 88.2608 301.926C89.1946 299.764 91.5291 298.231 91.8032 295.836C91.9859 294.303 91.2043 292.791 91.5088 291.228C91.8133 289.665 93.0618 288.68 94.0768 287.564C96.43 284.977 97.83 281.665 98.0454 278.175C99.6224 280.046 100.896 282.152 101.821 284.417C102.274 285.555 102.46 286.782 102.365 288.003C102.27 289.224 101.896 290.407 101.273 291.461C100.878 291.931 100.556 292.458 100.319 293.024C99.8521 294.526 101.131 295.917 101.791 297.338C102.18 298.147 102.342 299.046 102.26 299.94C102.178 300.834 101.854 301.689 101.324 302.413C99.9841 304.078 97.3958 304.737 96.7361 306.777C96.5761 307.538 96.4978 308.314 96.5026 309.092C96.3715 310.452 95.8337 311.741 94.9592 312.791C94.0848 313.841 92.9142 314.604 91.6002 314.979C90.0066 315.364 90.0371 314.735 89.7529 313.395C89.3875 311.599 88.6973 309.904 88.2608 308.077Z" fill="#231F20"/>
<path d="M83.2058 293.471C82.0791 289.603 81.6325 285.543 80.4348 281.605C79.4152 278.571 78.1806 275.613 76.7402 272.754L81.5818 274.784C83.1347 275.444 84.8095 276.216 85.5403 277.728C86.8192 280.377 84.5253 283.757 85.8651 286.366C86.4492 287.213 87.0901 288.02 87.7834 288.781C89.2044 290.811 88.9913 293.531 88.2097 295.886C87.8748 296.901 86.403 302.068 85.0937 300.626C84.5659 300.058 84.5253 297.906 84.302 297.125C83.9772 295.876 83.561 294.678 83.2058 293.471Z" fill="#231F20"/>
<path d="M85.7636 345.327C84.7486 338.953 81.7848 316.471 81.7036 316.237L82.7186 316.105C82.7186 316.329 85.7636 338.801 86.7279 345.175L85.7636 345.327Z" fill="#231F20"/>
<path d="M87.0834 351.336H86.0684C86.0684 343.754 89.2961 314.796 91.1434 312.766L91.8945 313.446C90.4836 314.979 87.1443 342.952 87.0834 351.336Z" fill="#231F20"/>
<path d="M88.7175 349.894H87.7025C88.4231 333.573 84.9518 299.286 84.9214 298.941L85.9364 298.84C85.977 299.144 89.4483 333.502 88.7175 349.894Z" fill="#231F20"/>
<path d="M77.5625 327.037H95.5788L94.3202 347.458C94.107 351.001 91.4782 353.751 88.3114 353.751H84.8299C81.6631 353.751 79.0444 351.001 78.8211 347.458L77.5625 327.037Z" fill="white"/>
<path d="M88.3116 354.31H84.8301C81.3994 354.31 78.5371 351.336 78.3037 347.529L77.0451 327.067C77.0394 326.996 77.0487 326.924 77.0722 326.856C77.0956 326.789 77.1329 326.727 77.1815 326.674C77.2302 326.622 77.2891 326.58 77.3548 326.552C77.4204 326.523 77.4912 326.509 77.5627 326.509H95.5789C95.6519 326.508 95.7241 326.523 95.7906 326.553C95.8572 326.583 95.9165 326.627 95.9647 326.681C96.0145 326.732 96.0529 326.792 96.0774 326.859C96.1019 326.925 96.1119 326.996 96.1068 327.067L94.8481 347.529C94.6451 351.336 91.7423 354.31 88.3116 354.31ZM78.1616 327.564L79.3491 347.458C79.5521 350.706 81.9577 353.254 84.8301 353.254H88.3116C91.1941 353.254 93.5997 350.706 93.8027 347.458L95.0207 327.554L78.1616 327.564Z" fill="#231F20"/>
</svg>
