<svg width="544" height="458" viewBox="0 0 544 458" fill="none" xmlns="http://www.w3.org/2000/svg">
  <path
    d="M450.088 245.902C448.768 164.553 368.244 99.1299 269.157 99.1299C219.848 99.1299 175.167 115.4 142.541 141.648C108.994 168.638 88.1719 206.312 88.1719 247.999C88.1719 330.216 169.202 396.85 269.157 396.85C369.112 396.85 450.142 330.18 450.142 247.999C450.142 247.312 450.142 246.607 450.088 245.902ZM381.619 226.613C381.619 265.95 331.263 297.875 269.157 297.875C207.051 297.875 156.694 265.95 156.694 226.613C156.694 187.276 207.051 155.387 269.157 155.387C331.263 155.387 381.619 187.367 381.619 226.613Z"
    fill="black" stroke="#231F20" stroke-width="1.015" stroke-linecap="round" stroke-linejoin="round" />
  <path
    d="M339.704 92.6044C317.49 81.5952 228.054 87.5427 228.054 87.5427L228.217 88.1754C212.582 76.0996 183.68 86.8558 169.546 97.5216C152.989 110.013 141.837 128.687 133.848 147.524C132.04 151.664 130.467 156.093 130.992 160.576C131.516 165.06 134.01 168.729 136.613 172.236C148.85 188.705 164.955 201.829 180.879 214.755C181.782 215.757 183.034 216.375 184.379 216.483C185.723 216.591 187.058 216.179 188.109 215.333C207.81 205.734 225.687 191.832 236.459 172.327C242.279 161.787 251.245 135.141 252.166 123.156C269.428 121.348 303.59 124.475 313.856 128.579C326.202 133.514 340.969 200.365 340.969 200.365L371.208 188.018C371.208 188.018 361.918 103.596 339.704 92.6044Z"
    fill="white" />
  <path
    d="M184.439 217.34C184.074 217.342 183.71 217.3 183.355 217.213C182.216 216.855 181.176 216.236 180.318 215.405C164.557 202.606 148.271 189.392 135.89 172.724C132.943 169.264 130.95 165.096 130.106 160.63C129.527 155.858 131.317 151.157 133.016 147.108C142.758 124.204 154.525 107.825 169.094 96.7981C183.662 85.7708 211.66 75.5569 227.819 86.6927H228.072C231.687 86.4577 318.014 80.8536 340.137 91.8448C362.532 102.944 371.714 184.511 372.094 187.982C372.117 188.176 372.077 188.373 371.98 188.542C371.882 188.712 371.732 188.845 371.552 188.922L341.312 201.251C341.194 201.308 341.064 201.338 340.933 201.338C340.801 201.338 340.671 201.308 340.553 201.251C340.435 201.193 340.331 201.11 340.249 201.006C340.168 200.903 340.111 200.783 340.083 200.654C335.998 182.197 323.237 133.423 313.495 129.519C303.228 125.415 269.735 122.432 252.962 124.095C251.732 136.497 242.93 162.564 237.218 172.905C227.367 190.729 210.973 205.318 188.416 216.291C187.184 216.93 185.826 217.289 184.439 217.34ZM210.485 83.8184C196.495 83.8184 180.174 90.6336 170.106 98.2805C155.881 109.019 144.295 125.252 134.679 147.904C133.07 151.736 131.371 156.165 131.895 160.558C132.419 164.951 134.805 168.385 137.318 171.784C149.555 188.271 165.768 201.431 181.439 214.14C182.094 214.779 182.885 215.261 183.752 215.55C185.11 215.672 186.47 215.341 187.62 214.61C209.78 203.763 225.921 189.482 235.573 171.983C241.321 161.588 250.25 135.032 251.172 123.173C251.188 122.961 251.279 122.761 251.427 122.609C251.576 122.457 251.774 122.362 251.986 122.342C269.03 120.534 303.282 123.499 314.109 127.765C326.021 132.538 339.559 190.296 341.565 199.154L370.178 187.475C369.238 179.467 359.767 103.577 339.288 93.4718C318.809 83.3664 238.845 87.8678 229.03 88.4643C228.978 88.6823 228.841 88.8708 228.651 88.9886C228.498 89.0976 228.314 89.1561 228.127 89.1561C227.939 89.1561 227.755 89.0976 227.602 88.9886C222.628 85.4145 216.606 83.5958 210.485 83.8184Z"
    fill="#231F20" />
  <path
    d="M145.596 123.155C144.458 125.885 64.0059 184.33 55.3661 216.436C46.8708 248.035 104.819 330.325 104.819 330.325C104.819 330.325 123.418 364.473 129.907 364.473C136.396 364.473 139.27 361.545 140.084 355.923C140.897 350.301 134.028 332.783 134.028 332.783C134.028 332.783 145.38 342.256 146.066 337.718C146.753 333.181 128.678 322.913 128.678 322.913C128.678 322.913 106.066 235.327 108.94 226.686C111.814 218.045 160.056 182.829 160.056 182.829"
    fill="white" />
  <path
    d="M129.907 365.323C123.22 365.323 107.169 336.399 104.024 330.705C104.024 330.578 89.4012 309.897 76.1161 285.637C58.1857 252.899 50.9195 229.597 54.4261 216.201C61.3127 190.585 112.989 148.717 135.059 130.857C140.011 126.825 144.295 123.354 144.729 122.722C144.827 122.508 145.005 122.342 145.225 122.258C145.444 122.173 145.688 122.178 145.904 122.27C146.121 122.379 146.289 122.567 146.372 122.795C146.456 123.023 146.45 123.275 146.356 123.499C146.066 124.222 144.295 125.686 136.197 132.249C114.272 150.019 62.9213 191.615 56.1794 216.671C47.8829 247.403 104.982 328.933 105.488 329.747C112.718 342.853 125.497 363.516 129.835 363.516C135.547 363.516 138.33 361.184 139.126 355.742C139.921 350.301 133.179 333.236 133.107 333.073C133.035 332.886 133.026 332.681 133.082 332.488C133.137 332.296 133.254 332.127 133.414 332.006C133.573 331.88 133.771 331.812 133.974 331.812C134.178 331.812 134.375 331.88 134.535 332.006C138.439 335.26 143.572 338.424 144.873 337.918C144.873 337.918 145.054 337.918 145.108 337.502C145.524 334.808 135.438 327.758 128.154 323.618C127.943 323.494 127.788 323.293 127.72 323.058C126.798 319.442 105.09 235.092 108.018 226.306C110.947 217.521 157.399 183.517 159.37 182.071C159.564 181.929 159.806 181.871 160.043 181.908C160.281 181.945 160.493 182.075 160.635 182.269C160.776 182.464 160.835 182.706 160.797 182.943C160.76 183.181 160.63 183.393 160.436 183.535C147.115 193.261 112.013 220.015 109.826 226.921C107.639 233.827 123.147 297.695 129.474 322.262C133.215 324.414 147.711 333.109 146.988 337.809C146.947 338.207 146.796 338.587 146.554 338.905C146.312 339.224 145.987 339.47 145.614 339.617C143.409 340.448 139.035 337.665 136.035 335.423C137.969 340.846 141.638 351.693 141.005 355.995C140.047 362.359 136.559 365.323 129.907 365.323Z"
    fill="#231F20" />
  <path
    d="M151.832 112.761C151.832 112.761 170.883 149.802 184.964 161.823C184.964 161.823 205.822 152.568 223.409 159.672C223.409 159.672 217.227 135.99 229.573 123.155L210.449 81.9564L218.475 75.0508C218.475 75.0508 236.315 115.165 241.303 118.437C246.292 121.709 259.198 125.415 259.198 125.415L304.186 207.108L318.556 217.05L228.036 281.859C228.036 281.859 175.275 230.319 163.87 208.102C169.528 184.149 172.311 170.772 172.311 170.772C172.311 170.772 146.898 135.068 144.114 123.155C141.331 111.242 151.832 112.761 151.832 112.761Z"
    fill="#231F20" />
  <path
    d="M227.946 283.034L227.404 282.491C225.253 280.394 174.408 230.609 163.057 208.518L162.912 208.229V207.903C167.991 186.445 170.775 173.339 171.263 170.971C168.57 167.156 145.849 134.815 143.174 123.354C142.216 119.232 142.65 116.123 144.494 114.116C145.484 113.22 146.66 112.553 147.938 112.166C149.217 111.778 150.565 111.679 151.886 111.875H152.356L152.573 112.291C152.754 112.652 171.299 148.554 185.108 160.703C188.452 159.311 206.148 152.604 222.126 158.154C220.969 152.531 218.204 134.165 228.488 122.902L209.329 81.6491L218.782 73.4961L219.27 74.6169C226.41 90.6337 238.285 115.328 241.773 117.605C246.599 120.769 259.288 124.439 259.433 124.475L259.794 124.583L259.975 124.909L304.873 206.421L320.11 216.96L227.946 283.034ZM164.828 207.994C175.673 228.765 222.542 275.188 228.091 280.684L316.947 217.068L303.463 207.74L258.583 126.174C256.414 125.542 245.443 122.233 240.797 119.196C236.152 116.159 221.511 83.8907 218.149 76.5331L211.552 82.1914L230.657 123.336L230.223 123.77C218.384 136.117 224.223 159.202 224.277 159.437L224.729 161.245L223.066 160.576C206.057 153.706 185.524 162.637 185.325 162.727L184.801 162.962L184.367 162.583C170.974 151.139 153.64 118.112 151.254 113.773C150.273 113.672 149.283 113.781 148.348 114.093C147.413 114.404 146.555 114.912 145.831 115.581C144.421 117.117 144.114 119.684 144.928 123.173C147.639 134.797 172.727 170.175 172.98 170.483L173.197 170.808V171.188C173.161 171.097 170.377 184.493 164.828 207.994Z"
    fill="#231F20" />
  <path
    d="M204.593 100.992C199.424 102.186 194.399 103.198 189.898 106.56C183.211 111.532 178.312 118.492 171.317 123.336C163.834 128.507 154.887 132.104 146.609 135.828C144.187 136.913 148.091 138.973 145.452 138.558C136.234 137.057 131.625 127.133 127.955 119.793C119.172 102.929 112.732 84.9443 108.814 66.3376C107.006 56.6118 100.608 20.6916 121.213 27.1815C116.586 25.7172 128.1 10.9116 129.907 9.33887C146.699 -5.97287 173.125 2.23436 186.555 17.9077C196.279 29.2785 203.039 42.0593 215.475 51.0982C220.897 55.0933 227.151 58.6184 230.441 64.5298C234.381 71.6524 232.899 80.9624 228.109 87.5426C223.319 94.1229 215.691 98.2084 207.811 100.197C206.69 100.595 205.642 100.757 204.593 100.992Z"
    fill="white" />
  <path
    d="M146.012 139.515C145.778 139.537 145.542 139.537 145.307 139.515C135.999 138.015 131.335 128.669 127.594 121.167L127.142 120.263C117.49 101.01 111.2 83.4567 107.928 66.5722C105.181 52.3813 103.391 34.141 110.477 27.8138C111.672 26.8108 113.089 26.1072 114.61 25.7613C116.132 25.4155 117.714 25.4374 119.225 25.8253C118.972 20.9624 128.262 9.70006 129.293 8.74194C132.614 5.74122 136.516 3.45476 140.757 2.02432C144.998 0.593879 149.487 0.0499461 153.947 0.426241C166.797 1.52614 178.713 7.58891 187.169 17.3288C190.332 21.0347 193.224 24.9214 196.026 28.6996C201.99 36.7442 207.63 44.3368 215.908 50.3928C216.902 51.1159 217.933 51.8209 218.945 52.544C223.572 55.7618 228.362 59.1062 231.127 64.1137C235.068 71.1459 234.164 80.7089 228.741 88.0846C223.048 95.876 214.281 99.4735 207.937 101.119C206.889 101.39 205.822 101.643 204.756 101.878L203.997 102.059C199.135 103.161 194.525 104.21 190.404 107.283C187.369 109.656 184.517 112.254 181.873 115.056C178.817 118.381 175.452 121.407 171.823 124.095C165.244 128.356 158.279 131.987 151.019 134.942L147.079 136.75C146.962 136.802 146.853 136.869 146.753 136.948C146.835 137.148 146.931 137.342 147.042 137.527C147.233 137.741 147.352 138.009 147.384 138.294C147.417 138.578 147.36 138.866 147.223 139.118C147.072 139.282 146.882 139.405 146.67 139.475C146.458 139.545 146.231 139.559 146.012 139.515ZM116.676 27.2896C114.849 27.2298 113.068 27.8773 111.706 29.0973C106.663 33.5806 105.976 46.7411 109.736 66.1564C112.971 82.8782 119.189 100.287 128.769 119.395L129.22 120.281C132.709 127.259 137.011 135.882 145.036 137.545C144.884 137.137 144.884 136.688 145.036 136.279C145.142 135.984 145.313 135.716 145.534 135.494C145.756 135.273 146.024 135.102 146.319 134.996L150.26 133.188C157.451 130.298 164.361 126.752 170.901 122.595C174.415 119.989 177.683 117.067 180.662 113.863C183.391 110.965 186.333 108.276 189.464 105.819C193.893 102.529 198.665 101.444 203.726 100.287L204.485 100.124L207.612 99.365C213.685 97.7923 222.072 94.3756 227.494 87.018C232.429 80.2751 233.332 71.417 229.772 64.9814C227.187 60.3174 222.542 57.1176 218.131 54.0083C217.101 53.2852 216.071 52.5621 215.059 51.8209C206.581 45.6384 200.599 37.5757 194.833 29.7662C192.049 26.0241 189.175 22.1555 186.048 18.5039C177.9 9.11337 166.408 3.27564 154.019 2.234C149.803 1.87352 145.557 2.38397 141.546 3.73364C137.535 5.08331 133.844 7.24338 130.703 10.0797C128.769 11.8874 120.563 22.734 121.249 25.9157C121.259 26.0284 121.304 26.1351 121.379 26.2198C121.454 26.3045 121.554 26.3627 121.665 26.3857C121.779 26.4207 121.886 26.4781 121.978 26.5544C122.07 26.6308 122.146 26.7246 122.201 26.8306C122.257 26.9365 122.29 27.0524 122.301 27.1715C122.311 27.2906 122.298 27.4107 122.262 27.5246C122.227 27.6387 122.169 27.7446 122.093 27.836C122.016 27.9274 121.922 28.0023 121.815 28.0564C121.709 28.1104 121.593 28.1424 121.474 28.1504C121.355 28.1584 121.235 28.1423 121.123 28.1031C119.692 27.603 118.192 27.3286 116.676 27.2896Z"
    fill="#231F20" />
  <path
    d="M164.611 128.579L139.306 79.6425C139.306 79.6425 153.351 59.5221 143.283 42.4026C143.283 42.4026 171.371 42.728 182.65 28.6094C182.65 28.6094 199.333 45.3673 203.021 62.3241C204.163 67.0077 203.916 71.9226 202.311 76.4683C200.706 81.0141 197.812 84.994 193.983 87.922L206.636 115.038"
    fill="white" />
  <path
    d="M164.611 129.518C164.446 129.519 164.284 129.473 164.144 129.387C164.003 129.301 163.89 129.177 163.816 129.03L138.511 80.0937C138.43 79.9502 138.387 79.7883 138.387 79.6236C138.387 79.459 138.43 79.2971 138.511 79.1536C138.655 78.9548 152.103 59.2682 142.451 42.908C142.372 42.7673 142.33 42.6085 142.33 42.447C142.33 42.2855 142.372 42.1268 142.451 41.986C142.544 41.859 142.663 41.7531 142.8 41.6752C142.937 41.5974 143.089 41.5493 143.246 41.5341C143.499 41.5341 171.009 41.6968 181.891 28.0844C181.974 27.9886 182.077 27.9118 182.192 27.8592C182.307 27.8065 182.433 27.7793 182.559 27.7793C182.686 27.7793 182.812 27.8065 182.927 27.8592C183.042 27.9118 183.145 27.9886 183.228 28.0844C183.915 28.7713 200.146 45.2219 203.834 62.233C204.962 66.9647 204.737 71.9186 203.184 76.5284C201.63 81.1382 198.811 85.2178 195.049 88.3009L207.467 114.748C207.536 114.959 207.526 115.187 207.439 115.391C207.351 115.594 207.192 115.758 206.991 115.852C206.79 115.945 206.562 115.962 206.35 115.899C206.138 115.835 205.956 115.696 205.84 115.508L193.188 88.3913C193.091 88.1995 193.069 87.9788 193.126 87.7718C193.183 87.5648 193.314 87.3862 193.495 87.2705C197.194 84.4558 199.986 80.6176 201.525 76.2314C203.064 71.8451 203.282 67.1037 202.153 62.5945C198.99 48.1324 185.885 33.4173 182.704 30.0548C172.401 41.8776 150.802 43.2334 144.747 43.378C152.79 59.0332 142.27 76.7131 140.3 79.7863L165.479 128.162C165.588 128.376 165.609 128.624 165.539 128.854C165.468 129.083 165.31 129.276 165.099 129.391C164.953 129.483 164.783 129.527 164.611 129.518Z"
    fill="#231F20" />
  <path
    d="M147.024 71.6696C147.024 71.6696 129.799 56.7918 125.949 73.0797C122.099 89.3676 141.945 95.9117 149.79 90.8681"
    fill="white" />
  <path
    d="M143.174 93.5261C138.915 93.4921 134.764 92.1755 131.263 89.7478C128.585 87.9695 126.542 85.3863 125.428 82.371C124.313 79.3558 124.186 76.0643 125.063 72.9718C126.075 68.6693 128.1 65.9939 131.082 65.0357C137.933 62.8122 147.223 70.7302 147.603 71.0737C147.694 71.1487 147.77 71.2413 147.825 71.346C147.88 71.4507 147.914 71.5655 147.924 71.6835C147.934 71.8014 147.921 71.9202 147.884 72.0329C147.847 72.1455 147.789 72.2496 147.711 72.3391C147.554 72.5211 147.331 72.6344 147.092 72.6546C146.852 72.6749 146.614 72.6006 146.428 72.4476C146.337 72.4476 137.535 64.8369 131.643 66.7531C129.311 67.5124 127.684 69.7359 126.835 73.3876C126.046 76.1222 126.146 79.0367 127.12 81.7108C128.095 84.3848 129.894 86.68 132.257 88.2655C137.517 91.9895 145.126 92.8572 149.248 90.1998C149.449 90.0851 149.686 90.0519 149.911 90.107C150.135 90.1622 150.33 90.3014 150.456 90.4961C150.581 90.6908 150.626 90.9261 150.583 91.1535C150.54 91.3808 150.411 91.583 150.224 91.7183C148.093 92.9781 145.648 93.6052 143.174 93.5261Z"
    fill="#231F20" />
  <path
    d="M183.554 71.2725C183.435 71.2832 183.316 71.2704 183.202 71.2348C183.088 71.1993 182.982 71.1417 182.891 71.0653C182.799 70.9889 182.724 70.8953 182.669 70.7897C182.613 70.6841 182.579 70.5687 182.569 70.45C182.558 70.3313 182.571 70.2116 182.606 70.0979C182.642 69.9841 182.7 69.8785 182.776 69.787C182.852 69.6955 182.946 69.62 183.051 69.5647C183.157 69.5094 183.272 69.4754 183.391 69.4648C183.391 69.4648 189.446 68.3439 191.471 65.6865C191.471 65.6865 191.471 65.6865 191.471 65.5058C191.001 63.3364 182.795 58.1482 177.137 55.1654C176.924 55.0527 176.764 54.8599 176.693 54.6294C176.622 54.3988 176.645 54.1494 176.758 53.9361C176.87 53.7227 177.063 53.5629 177.294 53.4917C177.524 53.4205 177.773 53.4438 177.987 53.5565C180.373 54.8219 192.447 61.3298 193.242 65.108C193.311 65.3963 193.317 65.6963 193.257 65.9868C193.198 66.2774 193.075 66.5513 192.899 66.7893C190.44 69.989 183.97 71.2002 183.698 71.2364L183.554 71.2725Z"
    fill="#231F20" />
  <path
    d="M178.131 82.86C174.33 82.9415 170.579 81.9786 167.286 80.076C167.196 79.9977 167.122 79.9023 167.069 79.7954C167.016 79.6885 166.984 79.5722 166.975 79.453C166.967 79.3338 166.982 79.2141 167.02 79.1008C167.058 78.9875 167.118 78.8827 167.196 78.7925C167.274 78.7023 167.37 78.6284 167.477 78.575C167.583 78.5217 167.7 78.4899 167.819 78.4815C167.938 78.4731 168.058 78.4883 168.171 78.5261C168.284 78.564 168.389 78.6238 168.479 78.7021C172.637 80.9368 177.446 81.6466 182.072 80.7087C188.163 79.3891 192.917 75.0504 196.532 67.8375C196.583 67.7295 196.655 67.6326 196.743 67.5523C196.831 67.472 196.935 67.41 197.047 67.3697C197.16 67.3294 197.279 67.3117 197.398 67.3175C197.518 67.3233 197.635 67.3526 197.743 67.4036C197.851 67.4547 197.948 67.5265 198.028 67.615C198.108 67.7035 198.17 67.8069 198.21 67.9194C198.251 68.0318 198.268 68.1511 198.263 68.2705C198.257 68.3898 198.228 68.5068 198.177 68.6148C194.435 76.4243 189.139 81.0884 182.415 82.4984C181.004 82.7709 179.568 82.8921 178.131 82.86Z"
    fill="#231F20" />
  <path
    d="M193.947 87.9404C193.947 87.9404 180.336 96.5635 171.01 98.3351C171.01 98.3351 188.307 111.604 202.026 105.024L193.947 87.9404Z"
    fill="#231F20" />
  <path
    d="M193.531 107.825C181.999 107.825 171.046 99.5636 170.467 99.1116C170.327 99.0084 170.221 98.8653 170.163 98.7008C170.104 98.5364 170.097 98.3582 170.142 98.1897C170.178 98.0183 170.265 97.8615 170.39 97.7392C170.516 97.617 170.675 97.5347 170.847 97.5027C179.884 95.695 193.332 87.3069 193.459 87.2346C193.567 87.1635 193.689 87.1169 193.817 87.0982C193.945 87.0795 194.076 87.089 194.2 87.1262C194.32 87.1621 194.432 87.2224 194.529 87.3032C194.625 87.3841 194.704 87.4838 194.76 87.5962L202.84 104.698C202.939 104.914 202.949 105.16 202.867 105.383C202.786 105.606 202.62 105.789 202.406 105.891C199.633 107.203 196.598 107.865 193.531 107.825ZM173.197 98.7862C177.643 101.715 190.296 108.964 200.815 104.589L193.585 89.2593C190.639 91.0129 181.041 96.635 173.197 98.7862Z"
    fill="#231F20" />
  <path
    d="M123.346 109.995C130.233 126.264 143.518 155.749 164.919 136.026C169.367 131.865 172.035 126.146 172.366 120.064C172.908 109.054 153.712 103.215 144.801 100.721"
    fill="white" />
  <path
    d="M151.019 143.475C150.011 143.481 149.005 143.378 148.019 143.167C135.24 140.419 126.907 120.86 122.442 110.338C122.395 110.23 122.369 110.114 122.367 109.996C122.365 109.879 122.387 109.761 122.431 109.652C122.474 109.543 122.539 109.443 122.622 109.359C122.705 109.275 122.804 109.209 122.912 109.163C123.133 109.071 123.381 109.069 123.604 109.157C123.827 109.245 124.006 109.415 124.105 109.633C128.136 119.124 136.523 138.847 148.398 141.396C153.369 142.462 158.665 140.438 164.16 135.358C168.471 131.375 171.064 125.871 171.39 120.01C171.914 109.29 151.272 103.487 144.494 101.589C144.378 101.557 144.27 101.503 144.176 101.43C144.081 101.357 144.002 101.265 143.943 101.161C143.884 101.056 143.847 100.941 143.833 100.823C143.819 100.704 143.828 100.583 143.861 100.468C143.932 100.241 144.089 100.049 144.298 99.9349C144.507 99.8203 144.752 99.791 144.982 99.8533C157.345 103.324 173.739 109.199 173.197 120.1C172.886 126.443 170.118 132.414 165.479 136.75C160.581 141.215 155.755 143.475 151.019 143.475Z"
    fill="#231F20" />
  <path
    d="M166.419 68.1446C172.528 68.1446 177.481 63.1913 177.481 57.0811C177.481 50.9709 172.528 46.0176 166.419 46.0176C160.31 46.0176 155.357 50.9709 155.357 57.0811C155.357 63.1913 160.31 68.1446 166.419 68.1446Z"
    fill="#231F20" />
  <path
    d="M166.419 69.049C164.047 69.0526 161.728 68.3523 159.754 67.0366C157.781 65.721 156.242 63.8494 155.333 61.6586C154.423 59.4678 154.185 57.0564 154.646 54.7298C155.108 52.4031 156.25 50.2659 157.927 48.5886C159.604 46.9113 161.741 45.7694 164.067 45.3075C166.394 44.8457 168.805 45.0845 170.995 45.9939C173.186 46.9033 175.057 48.4423 176.372 50.4161C177.688 52.3899 178.388 54.7096 178.384 57.0817C178.38 60.2541 177.117 63.2953 174.874 65.5386C172.632 67.7819 169.591 69.0442 166.419 69.049ZM166.419 46.904C164.405 46.9004 162.436 47.4942 160.76 48.6104C159.084 49.7266 157.777 51.3149 157.004 53.1743C156.231 55.0337 156.027 57.0806 156.418 59.0561C156.808 61.0316 157.776 62.8468 159.199 64.272C160.621 65.6971 162.434 66.6683 164.409 67.0624C166.383 67.4566 168.43 67.2561 170.291 66.4863C172.151 65.7165 173.742 64.4121 174.861 62.738C175.98 61.0638 176.577 59.0954 176.577 57.0817C176.577 54.3855 175.507 51.7995 173.603 49.8913C171.698 47.9831 169.115 46.9087 166.419 46.904Z"
    fill="#231F20" />
  <path
    d="M188.669 55.6358C194.778 55.6358 199.731 50.6825 199.731 44.5723C199.731 38.4621 194.778 33.5088 188.669 33.5088C182.56 33.5088 177.607 38.4621 177.607 44.5723C177.607 50.6825 182.56 55.6358 188.669 55.6358Z"
    fill="#231F20" />
  <path
    d="M188.669 56.5393C186.303 56.5393 183.99 55.8378 182.023 54.5236C180.056 53.2094 178.522 51.3415 177.616 49.1558C176.709 46.9701 176.472 44.5647 176.932 42.2438C177.392 39.9228 178.53 37.7904 180.201 36.1161C181.873 34.4417 184.003 33.3005 186.323 32.8367C188.643 32.3729 191.049 32.6073 193.235 33.5103C195.422 34.4133 197.292 35.9444 198.609 37.91C199.926 39.8757 200.631 42.1876 200.634 44.5538C200.634 47.7294 199.374 50.7752 197.131 53.0224C194.887 55.2696 191.844 56.5345 188.669 56.5393ZM188.669 34.4123C186.659 34.4123 184.694 35.0086 183.023 36.1257C181.352 37.2429 180.05 38.8307 179.282 40.6881C178.514 42.5456 178.314 44.5893 178.707 46.5606C179.101 48.5318 180.07 50.3421 181.492 51.7622C182.915 53.1823 184.726 54.1485 186.698 54.5385C188.67 54.9285 190.713 54.7247 192.569 53.9529C194.425 53.1812 196.01 51.8762 197.124 50.2031C198.238 48.53 198.83 46.5639 198.827 44.5538C198.817 41.8639 197.743 39.2872 195.84 37.3868C193.937 35.4864 191.358 34.417 188.669 34.4123Z"
    fill="#231F20" />
  <path
    d="M172.311 52.8873C172.182 52.8862 172.054 52.8583 171.936 52.8054C171.817 52.7525 171.711 52.6758 171.624 52.58C171.54 52.4975 171.473 52.3991 171.428 52.2904C171.382 52.1818 171.358 52.0651 171.358 51.9473C171.358 51.8294 171.382 51.7128 171.428 51.6041C171.473 51.4955 171.54 51.397 171.624 51.3146C174.025 49.1734 176.534 47.158 179.143 45.2766C179.241 45.2073 179.35 45.1579 179.467 45.1312C179.583 45.1046 179.704 45.1012 179.821 45.1214C179.939 45.1416 180.051 45.1848 180.152 45.2487C180.253 45.3126 180.34 45.3958 180.409 45.4936C180.539 45.6899 180.588 45.9284 180.548 46.1604C180.508 46.3923 180.38 46.6 180.192 46.7409C180.192 46.7409 176.577 49.3441 172.817 52.6523C172.681 52.7866 172.502 52.8696 172.311 52.8873Z"
    fill="#231F20" />
  <path
    d="M317.182 204.685C317.182 204.685 353.892 180.913 373.63 178.454C393.368 175.995 506.662 250.529 506.662 250.529C506.662 250.529 540.499 228.999 542.975 240.008C545.451 251.018 515.32 288.818 505.397 291.909C495.474 295 381.854 226.631 381.854 226.631C381.854 226.631 333.739 289.053 323.038 262.786"
    fill="white" />
  <path
    d="M504.764 292.885C490.919 292.885 396.314 236.302 382.089 227.806C377.733 233.356 348.307 270.107 331.479 270.107C331.002 270.105 330.525 270.075 330.051 270.017C326.436 269.529 323.798 267.179 322.135 263.075C322.044 262.852 322.044 262.602 322.135 262.379C322.227 262.156 322.402 261.978 322.623 261.882C322.733 261.838 322.851 261.816 322.97 261.818C323.089 261.819 323.206 261.844 323.315 261.892C323.424 261.939 323.523 262.007 323.606 262.092C323.689 262.177 323.754 262.278 323.798 262.388C325.244 265.913 327.413 267.812 330.305 268.227C346.572 270.433 380.734 226.522 381.077 226.07C381.213 225.897 381.407 225.78 381.624 225.74C381.84 225.7 382.063 225.74 382.252 225.853C427.783 253.241 498.077 293.174 505.054 291.041C509.5 289.667 519.17 280.195 528.027 268.39C537.534 255.736 543.029 244.726 542.017 240.207C541.938 239.75 541.741 239.321 541.447 238.963C541.152 238.605 540.769 238.33 540.336 238.164C534.082 235.561 514.2 246.751 507.078 251.289C506.932 251.382 506.763 251.432 506.59 251.432C506.417 251.432 506.248 251.382 506.102 251.289C504.963 250.547 392.862 176.899 373.666 179.34C354.471 181.78 317.959 205.209 317.634 205.444C317.433 205.573 317.188 205.617 316.954 205.566C316.721 205.515 316.516 205.374 316.387 205.173C316.32 205.074 316.275 204.962 316.252 204.845C316.23 204.728 316.232 204.608 316.257 204.491C316.282 204.375 316.331 204.265 316.4 204.167C316.469 204.07 316.556 203.988 316.658 203.925C318.158 202.949 353.766 180.027 373.486 177.55C393.206 175.073 497.498 243.461 506.644 249.445C510.404 247.095 533.196 233.175 540.987 236.483C541.687 236.765 542.307 237.216 542.789 237.797C543.272 238.378 543.603 239.069 543.752 239.809C546.409 251.686 515.374 289.74 505.56 292.777C505.3 292.845 505.033 292.881 504.764 292.885Z"
    fill="#231F20" />
  <path
    d="M311.633 219.129C332.094 213.199 358.99 207.432 370.865 210.668C402.948 219.454 450.142 382.514 450.142 382.514C450.142 382.514 482.822 374.976 487.304 380.923C491.787 386.871 439.966 429.227 430.097 421.001C420.228 412.776 342.776 281.804 342.776 281.804C342.776 281.804 322.551 289.288 309.681 292.234"
    fill="white" />
  <path
    d="M433.621 422.972C432.147 423.048 430.694 422.6 429.518 421.707C419.903 413.698 348.958 294.043 342.397 282.961C338.782 284.299 321.303 290.554 309.862 293.175C309.622 293.228 309.371 293.183 309.165 293.051C308.958 292.919 308.812 292.71 308.759 292.47C308.707 292.23 308.751 291.979 308.884 291.772C309.016 291.566 309.225 291.42 309.464 291.367C322.117 288.457 342.252 281.045 342.451 280.973C342.647 280.893 342.866 280.887 343.065 280.957C343.265 281.027 343.432 281.167 343.536 281.352C344.313 282.672 421.023 412.252 430.657 420.279C436.26 424.961 460.716 409.721 477.2 393.994C486.238 385.425 487.015 382.026 486.563 381.43C483.563 377.453 462.74 380.508 450.413 383.364C450.188 383.419 449.95 383.384 449.751 383.266C449.551 383.147 449.406 382.955 449.347 382.731C448.877 381.104 401.918 220.033 370.684 211.518C356.55 207.65 322.153 216.942 311.959 219.961C311.845 219.996 311.725 220.009 311.606 219.997C311.487 219.985 311.372 219.95 311.267 219.892C311.163 219.835 311.071 219.757 310.997 219.663C310.923 219.569 310.869 219.461 310.838 219.346C310.805 219.232 310.794 219.113 310.807 218.995C310.82 218.877 310.856 218.762 310.913 218.658C310.97 218.554 311.047 218.462 311.14 218.388C311.232 218.314 311.339 218.258 311.453 218.225C321.773 215.242 356.64 205.77 371.1 209.765C384.692 213.489 402.279 243.696 423.373 299.538C437.833 337.718 449.003 375.464 450.775 381.412C456.667 380.092 483.581 374.47 488.027 380.345C489.726 382.605 486.509 387.576 478.466 395.295C467.44 405.853 444.647 422.972 433.621 422.972Z"
    fill="#231F20" />
  <path
    d="M319.876 290.21C292.926 303.407 238.972 297.821 223.771 277.556C198.466 243.913 247.467 243.696 247.467 243.696C247.467 243.696 290.54 211.554 319.243 201.847C319.243 201.847 319.803 213.995 319.749 216.309C322.793 215.434 325.908 214.829 329.058 214.501C317.707 240.117 318.321 273.054 319.876 290.21Z"
    fill="#231F20" />
  <path
    d="M282.786 298.273C277.614 298.271 272.447 297.957 267.314 297.333C246.762 294.856 230.224 287.679 223.048 278.171C215.872 268.662 214.01 261.051 216.939 255.049C222.56 243.697 244.214 242.919 247.16 242.865C250.648 240.28 291.534 210.325 318.954 201.052L320.074 200.672V201.865C320.074 202.299 320.508 211.446 320.581 215.242C323.31 214.488 326.097 213.962 328.913 213.67L330.431 213.525L329.817 214.935C317.869 241.798 319.478 276.399 320.779 290.12V290.753L320.219 291.024C310.603 295.832 297.246 298.273 282.786 298.273ZM318.394 203.167C290.16 213.164 248.425 244.185 248.009 244.492L247.756 244.673H247.467C247.232 244.673 223.97 244.908 218.547 255.863C215.908 261.286 217.915 268.336 224.494 277.086C238.61 295.832 291.263 302.774 318.918 289.74C317.707 275.784 316.351 242.359 327.612 215.622C325.046 216.004 322.51 216.559 320.02 217.285L318.827 217.647V216.399C318.882 214.483 318.52 206.294 318.394 203.167Z"
    fill="#231F20" />
  <path
    d="M255.113 126.319C254.916 126.322 254.725 126.26 254.568 126.142C254.411 126.024 254.297 125.858 254.245 125.668C254.245 125.542 250.124 111.785 246.093 99.4015C246.019 99.1737 246.038 98.9259 246.147 98.7123C246.255 98.4988 246.444 98.337 246.672 98.2626C246.899 98.1933 247.145 98.2148 247.357 98.3226C247.57 98.4305 247.732 98.6162 247.81 98.8411C251.841 111.242 255.944 125.017 255.98 125.162C256.013 125.276 256.024 125.395 256.011 125.513C255.998 125.631 255.962 125.746 255.905 125.85C255.848 125.954 255.771 126.046 255.678 126.12C255.586 126.194 255.48 126.25 255.366 126.283C255.285 126.313 255.199 126.325 255.113 126.319Z"
    fill="#231F20" />
  <path
    d="M161.647 361.165C161.428 361.162 161.218 361.08 161.055 360.934C160.892 360.787 160.788 360.587 160.761 360.37C153.387 306.95 193.296 289.035 193.64 288.854C193.749 288.807 193.866 288.782 193.985 288.779C194.104 288.777 194.223 288.799 194.334 288.842C194.444 288.886 194.545 288.951 194.631 289.034C194.717 289.117 194.785 289.215 194.833 289.324C194.88 289.434 194.906 289.551 194.908 289.67C194.91 289.789 194.888 289.908 194.845 290.018C194.801 290.129 194.736 290.23 194.653 290.316C194.571 290.402 194.472 290.47 194.363 290.518C193.983 290.698 155.357 308.107 162.551 360.135C162.582 360.372 162.517 360.612 162.371 360.801C162.226 360.991 162.011 361.115 161.773 361.147L161.647 361.165Z"
    fill="#231F20" />
  <path
    d="M288.859 222.455C288.642 222.458 288.432 222.383 288.266 222.244C288.1 222.104 287.99 221.91 287.955 221.696C287.918 221.461 287.976 221.222 288.114 221.029C288.253 220.836 288.462 220.705 288.696 220.666L319.604 215.55C319.723 215.531 319.844 215.535 319.961 215.563C320.078 215.591 320.188 215.642 320.286 215.712C320.383 215.783 320.465 215.872 320.528 215.974C320.591 216.076 320.634 216.19 320.653 216.309C320.672 216.428 320.667 216.549 320.639 216.666C320.611 216.783 320.561 216.893 320.49 216.99C320.42 217.088 320.331 217.17 320.228 217.233C320.126 217.296 320.012 217.338 319.893 217.357L289.003 222.473L288.859 222.455Z"
    fill="white" />
  <path
    d="M91.9315 430.963C91.7096 430.963 91.4953 430.882 91.3281 430.736C91.1609 430.59 91.0519 430.389 91.0211 430.169C90.9903 429.949 91.0399 429.726 91.1606 429.54C91.2814 429.353 91.4652 429.217 91.6784 429.155C110.019 423.985 126.72 414.18 140.174 400.683C140.273 400.576 140.399 400.497 140.538 400.452C140.677 400.408 140.826 400.4 140.969 400.43C141.109 400.452 141.242 400.508 141.355 400.593C141.468 400.678 141.559 400.79 141.62 400.918C145.94 409.957 157.435 413.374 166.563 412.108C176.306 410.753 184.891 405.438 193.549 399.653C193.648 399.586 193.758 399.54 193.875 399.516C193.991 399.493 194.111 399.492 194.228 399.515C194.344 399.537 194.455 399.583 194.555 399.648C194.654 399.714 194.739 399.798 194.805 399.897C194.872 399.995 194.918 400.106 194.942 400.223C194.966 400.339 194.966 400.459 194.943 400.576C194.921 400.692 194.875 400.803 194.81 400.902C194.744 401.002 194.66 401.087 194.561 401.153C185.723 407.065 176.938 412.488 166.816 413.898C157.779 415.163 145.813 412.199 140.571 402.816C127.07 416.09 110.45 425.756 92.2388 430.927L91.9315 430.963Z"
    fill="#D1D3D4" />
  <path
    d="M469.283 195.846C469.044 195.87 468.804 195.798 468.618 195.645C468.431 195.492 468.313 195.272 468.289 195.032C468.265 194.793 468.337 194.553 468.49 194.367C468.643 194.18 468.863 194.062 469.103 194.038C472.163 193.2 475.022 191.751 477.507 189.778C479.992 187.805 482.052 185.349 483.563 182.559C486.645 176.819 488.839 170.644 490.07 164.246C490.111 164.071 490.203 163.912 490.335 163.789C490.467 163.667 490.633 163.587 490.811 163.559C490.99 163.525 491.176 163.549 491.342 163.627C491.507 163.704 491.644 163.833 491.732 163.993C495.04 169.543 502.071 173.032 509.681 172.725C515.845 172.508 522.333 170.158 529.563 165.493C529.664 165.428 529.776 165.383 529.894 165.362C530.011 165.341 530.132 165.345 530.249 165.372C530.365 165.399 530.475 165.449 530.572 165.52C530.668 165.59 530.75 165.68 530.811 165.783C530.94 165.984 530.984 166.229 530.933 166.462C530.882 166.696 530.741 166.9 530.54 167.03C523.02 171.839 516.206 174.261 509.717 174.514C506.251 174.71 502.786 174.098 499.597 172.728C496.407 171.357 493.579 169.264 491.335 166.614C490.094 172.512 487.993 178.195 485.099 183.481C483.448 186.489 481.203 189.13 478.499 191.243C475.796 193.356 472.691 194.898 469.374 195.773L469.283 195.846Z"
    fill="#D1D3D4" />
  <path
    d="M24.4938 139.859C24.2541 139.859 24.0243 139.763 23.8548 139.594C23.6853 139.424 23.5901 139.195 23.5901 138.955C23.5901 138.715 23.6853 138.485 23.8548 138.316C24.0243 138.146 24.2541 138.051 24.4938 138.051C32.2172 137.875 39.7208 135.446 46.0823 131.062C52.4437 126.678 57.3856 120.53 60.3004 113.375C60.3498 113.244 60.4297 113.126 60.5334 113.032C60.6371 112.938 60.7617 112.869 60.8969 112.833C61.031 112.789 61.174 112.779 61.3128 112.804C61.4517 112.83 61.5821 112.889 61.6922 112.977C66.5602 116.431 72.4435 118.155 78.4051 117.877C84.3667 117.598 90.0637 115.333 94.5887 111.441C94.7607 111.274 94.9908 111.181 95.2304 111.181C95.4699 111.181 95.7 111.274 95.872 111.441C95.9562 111.523 96.023 111.622 96.0687 111.73C96.1143 111.839 96.1378 111.956 96.1378 112.073C96.1378 112.191 96.1143 112.308 96.0687 112.417C96.023 112.525 95.9562 112.624 95.872 112.706C91.1809 116.763 85.2987 119.187 79.1112 119.61C72.9237 120.034 66.7661 118.436 61.5657 115.056C58.4379 122.327 53.2735 128.537 46.6956 132.938C40.1176 137.339 32.407 139.743 24.4938 139.859Z"
    fill="#D1D3D4" />
  <path
    d="M461.349 350.066C461.152 350.069 460.96 350.009 460.801 349.893C460.642 349.778 460.526 349.613 460.468 349.425C460.411 349.237 460.417 349.036 460.484 348.851C460.552 348.667 460.678 348.509 460.843 348.403C472.464 340.539 482.517 330.577 490.486 319.027C490.584 318.892 490.716 318.786 490.869 318.721C491.022 318.655 491.19 318.632 491.355 318.655C491.52 318.677 491.676 318.743 491.806 318.847C491.936 318.951 492.036 319.088 492.094 319.244C494.101 324.667 500.21 327.487 505.398 327.849C511.218 328.246 517.183 326.312 522.442 324.613L541.439 318.43C541.667 318.356 541.915 318.375 542.128 318.484C542.342 318.592 542.504 318.781 542.578 319.009C542.646 319.239 542.622 319.487 542.511 319.699C542.4 319.912 542.21 320.073 541.981 320.148L522.967 326.33C517.544 328.138 511.435 330.072 505.253 329.656C499.975 329.277 493.812 326.583 491.046 321.377C483.11 332.546 473.243 342.206 461.909 349.903C461.748 350.022 461.549 350.08 461.349 350.066Z"
    fill="#D1D3D4" />
  <path
    d="M356.242 89.7474C356.037 89.7451 355.839 89.6746 355.679 89.5469C355.518 89.4192 355.405 89.2417 355.357 89.0424C355.33 88.926 355.327 88.8056 355.347 88.6879C355.367 88.5703 355.41 88.4578 355.474 88.3569C355.538 88.2561 355.621 88.1689 355.719 88.1004C355.817 88.0318 355.927 87.9834 356.044 87.9577C361.969 86.4938 367.377 83.4245 371.672 79.0872C375.967 74.7499 378.984 69.3124 380.391 63.3722C380.42 63.217 380.491 63.0726 380.596 62.9548C380.701 62.8369 380.836 62.75 380.987 62.7033C381.137 62.6511 381.299 62.6404 381.455 62.6722C381.611 62.704 381.755 62.7772 381.873 62.8841C387.194 67.3003 393.821 69.8419 400.73 70.1163C407.639 70.3908 414.447 68.3829 420.101 64.4026C420.196 64.3314 420.304 64.2796 420.419 64.2501C420.534 64.2206 420.654 64.2141 420.771 64.2309C420.889 64.2477 421.002 64.2875 421.104 64.3479C421.206 64.4084 421.295 64.4884 421.367 64.5834C421.438 64.6783 421.49 64.7864 421.519 64.9014C421.549 65.0164 421.555 65.136 421.538 65.2535C421.522 65.371 421.482 65.4841 421.421 65.5862C421.361 65.6884 421.281 65.7776 421.186 65.8488C415.394 69.9184 408.461 72.0462 401.384 71.926C394.307 71.8058 387.451 69.4439 381.801 65.1799C380.163 71.1557 376.951 76.5818 372.5 80.8909C368.048 85.2 362.521 88.2338 356.496 89.6751L356.242 89.7474Z"
    fill="#D1D3D4" />
  <path
    d="M267.711 457.609C267.521 457.609 267.335 457.549 267.18 457.439C267.024 457.329 266.907 457.174 266.843 456.994C266.768 456.769 266.785 456.523 266.89 456.31C266.995 456.097 267.179 455.934 267.404 455.855C283.039 450.432 291.335 434 298.475 417.676C298.53 417.558 298.608 417.453 298.704 417.366C298.8 417.279 298.913 417.212 299.035 417.169C299.152 417.12 299.278 417.095 299.405 417.095C299.533 417.095 299.659 417.12 299.776 417.169C306.501 421.034 314.248 422.745 321.975 422.072C329.701 421.4 337.037 418.377 342.993 413.409L343.59 412.867C344.982 411.415 346.698 410.313 348.597 409.649C350.069 409.326 351.587 409.27 353.079 409.486L354.164 409.577C357.324 409.75 360.483 409.224 363.416 408.037C366.35 406.849 368.986 405.03 371.136 402.707C371.219 402.623 371.317 402.556 371.426 402.511C371.534 402.465 371.651 402.441 371.769 402.441C371.887 402.441 372.003 402.465 372.112 402.511C372.22 402.556 372.319 402.623 372.401 402.707C372.488 402.788 372.557 402.886 372.604 402.995C372.651 403.104 372.675 403.221 372.675 403.34C372.675 403.459 372.651 403.576 372.604 403.685C372.557 403.794 372.488 403.892 372.401 403.973C370.092 406.51 367.249 408.504 364.076 409.811C360.904 411.117 357.482 411.704 354.055 411.529H352.916C351.644 411.331 350.346 411.362 349.085 411.62C347.457 412.222 345.991 413.194 344.801 414.458L344.186 415C338.103 420.169 330.592 423.364 322.65 424.162C314.708 424.96 306.711 423.321 299.722 419.465C292.492 435.862 284.033 452.113 268 457.699C267.899 457.688 267.801 457.657 267.711 457.609Z"
    fill="#D1D3D4" />
  <path
    d="M1.86391 306.083H0.996307C0.754898 306.064 0.530469 305.951 0.371511 305.769C0.212554 305.586 0.131828 305.348 0.14678 305.106C0.153607 304.988 0.183995 304.873 0.236147 304.767C0.2883 304.661 0.361166 304.566 0.450446 304.489C0.539726 304.411 0.643612 304.352 0.755987 304.316C0.868362 304.279 0.986953 304.265 1.10476 304.275C6.68993 304.636 11.3714 300.37 13.6488 297.785C15.1129 296.14 16.4324 294.314 17.7338 292.56C19.4172 290.126 21.2908 287.829 23.337 285.691C23.5059 285.525 23.7331 285.433 23.9696 285.433C24.2062 285.433 24.4333 285.525 24.6023 285.691C28.196 288.969 32.8221 290.887 37.6805 291.115C42.5388 291.343 47.3241 289.865 51.2086 286.938C51.2993 286.862 51.4043 286.804 51.5176 286.769C51.6309 286.734 51.75 286.722 51.868 286.734C51.986 286.746 52.1005 286.781 52.2046 286.838C52.3086 286.895 52.4002 286.972 52.4739 287.065C52.6248 287.253 52.696 287.493 52.6724 287.732C52.6487 287.972 52.5321 288.193 52.3474 288.348C48.2338 291.444 43.1936 293.056 38.0473 292.921C32.9011 292.787 27.9519 290.914 24.0058 287.607C22.2693 289.503 20.663 291.514 19.1978 293.627C17.8784 295.435 16.5047 297.243 15.0044 299.05C12.6728 301.672 7.84673 306.083 1.86391 306.083Z"
    fill="#D1D3D4" />
  <path
    d="M261.692 53.5924C261.452 53.6308 261.207 53.5723 261.011 53.43C260.814 53.2876 260.682 53.0729 260.644 52.8332C260.605 52.5934 260.664 52.3483 260.806 52.1517C260.949 51.955 261.163 51.823 261.403 51.7847C264.77 50.6615 267.841 48.7945 270.388 46.3222C272.935 43.8499 274.893 40.8357 276.116 37.5033C276.586 36.1475 277.237 34.3398 278.972 33.8878C280.081 33.6805 281.227 33.8726 282.207 34.4302C285.641 35.8764 289.362 36.5098 293.08 36.2809C296.799 36.052 300.414 34.967 303.644 33.1105C303.848 33.0183 304.079 33.0051 304.292 33.0733C304.505 33.1415 304.685 33.2864 304.798 33.4798C304.91 33.6733 304.947 33.9016 304.901 34.1205C304.855 34.3395 304.729 34.5335 304.548 34.6652C301.095 36.6571 297.23 37.827 293.252 38.0841C289.275 38.3412 285.291 37.6785 281.611 36.1475C280.966 35.7521 280.214 35.5687 279.46 35.6233C278.628 35.8583 278.213 37.0876 277.815 38.1541C276.499 41.7474 274.391 44.9981 271.647 47.6646C268.902 50.331 265.593 52.3448 261.963 53.5563L261.692 53.5924Z"
    fill="#D1D3D4" />
</svg>
