<svg width="126" height="128" viewBox="0 0 126 128" fill="none" xmlns="http://www.w3.org/2000/svg">
  <path
    d="M94.3983 116.424L111.696 106.96C107.718 100.889 107.421 97.4081 106.745 92.6029C104.564 77.1748 89.2621 67.3211 77.3636 59.2054C76.362 58.5014 75.3236 57.8513 74.2527 57.2581C72.9917 56.5813 69.4719 54.483 68.5517 56.4207C67.6705 58.2804 69.8613 61.6737 70.9616 63.0369C70.2383 61.9565 69.4378 60.9298 68.5663 59.9649C68.2963 59.605 67.9225 59.3366 67.4953 59.1957C66.6969 59.0156 65.9276 59.775 65.8059 60.5832C65.7547 61.4069 65.9587 62.2263 66.3901 62.9298C67.2772 64.6862 68.3848 66.3222 69.6861 67.7982C68.8146 66.8245 65.582 63.1002 65.6501 66.8537C65.7065 69.2206 66.693 71.4699 68.3959 73.1146C67.6511 72.4569 66.8477 71.8686 65.9958 71.357C65.8759 71.2632 65.7378 71.1953 65.5904 71.1576C65.4429 71.1199 65.2892 71.1132 65.139 71.138C64.9789 71.2151 64.8415 71.3323 64.74 71.4781C64.6385 71.624 64.5763 71.7936 64.5596 71.9705C64.0241 74.3755 65.358 76.094 66.2782 78.1534C66.989 79.7454 67.4076 81.2643 68.3132 82.8076C71.6042 88.3966 75.0219 92.2719 78.7852 97.5541C79.754 98.8735 94.3593 116.449 94.3983 116.424Z"
    fill="white" />
  <path
    d="M94.4227 116.667C94.262 116.667 93.9358 116.297 91.8862 113.829C90.4939 112.164 88.6341 109.934 86.7451 107.646C84.9828 105.523 79.1942 98.5271 78.5856 97.6702C77.3199 95.8933 76.093 94.2623 74.9002 92.6996C72.4291 89.5777 70.1529 86.3064 68.0844 82.9043C67.5438 81.9356 67.083 80.9245 66.7067 79.881C66.5022 79.3406 66.2831 78.7856 66.0348 78.2257C65.8449 77.8021 65.6356 77.3835 65.4311 76.9794C64.623 75.3874 63.8586 73.8782 64.3065 71.8919C64.3253 71.6715 64.4042 71.4605 64.5347 71.2819C64.6652 71.1033 64.8422 70.964 65.0465 70.8792C65.2298 70.8433 65.4187 70.8464 65.6007 70.8883C65.7827 70.9303 65.9539 71.0101 66.103 71.1226C66.3464 71.2736 66.5898 71.4294 66.8332 71.6095C65.9179 70.1886 65.4125 68.5427 65.3727 66.853C65.3727 65.8112 65.582 65.2075 66.0689 65.0176C66.473 64.8618 66.9744 65.0176 67.5294 65.412C67.0249 64.6514 66.5665 63.8613 66.1565 63.0459C65.6976 62.3011 65.4847 61.4307 65.548 60.5581C65.5918 60.2881 65.6893 60.0296 65.8348 59.798C65.9803 59.5664 66.1708 59.3663 66.3951 59.2096C66.5564 59.0915 66.7408 59.0088 66.9363 58.9669C67.1317 58.9249 67.3339 58.9247 67.5294 58.9662C67.9627 59.0955 68.3465 59.3536 68.6297 59.7062C68.1428 58.5329 67.8605 57.2719 68.3132 56.2982C68.4056 56.0968 68.5405 55.9176 68.7085 55.7731C68.8766 55.6286 69.0739 55.5221 69.2869 55.4609C70.6744 55.0081 72.8993 56.2252 74.0969 56.8776L74.3744 57.0285C75.4538 57.6297 76.5003 58.2879 77.5097 59.0002L78.8972 59.9447C90.4744 67.8218 104.875 77.622 106.988 92.5632L107.105 93.3763C107.709 97.7141 108.181 101.166 111.905 106.818C111.924 106.846 111.937 106.877 111.943 106.911C111.949 106.944 111.947 106.978 111.939 107.011C111.931 107.043 111.916 107.074 111.895 107.1C111.874 107.127 111.848 107.148 111.818 107.164L94.52 116.633C94.4916 116.653 94.4578 116.665 94.4227 116.667ZM65.3192 71.3271C65.282 71.322 65.2443 71.322 65.2072 71.3271C64.9735 71.4001 64.8566 71.7215 64.7982 71.9844C64.3941 73.8003 65.1147 75.2316 65.8839 76.7457C66.0884 77.1546 66.3074 77.5782 66.5022 78.0164C66.7505 78.5811 66.989 79.1458 67.1838 79.6911C67.5486 80.7118 67.9981 81.7003 68.5275 82.6462C70.5787 86.0281 72.8371 89.28 75.2897 92.3831C76.4825 93.9556 77.7239 95.5817 78.9849 97.3635C80.0267 98.8241 93.1033 114.51 94.4519 116.092L111.35 106.842C107.699 101.205 107.222 97.7627 106.618 93.4201L106.501 92.6071C104.422 77.88 90.1141 68.1432 78.6197 60.3244L77.2274 59.3508C76.2336 58.6476 75.2033 57.9975 74.1408 57.4034L73.8584 57.2476C72.8068 56.678 70.6209 55.4804 69.4281 55.8698C69.2841 55.9152 69.1514 55.9908 69.0389 56.0915C68.9264 56.1923 68.8367 56.3159 68.7757 56.454C68.1964 57.6712 69.1117 59.7889 70.1876 61.4685C70.5284 61.9164 70.8546 62.3692 71.1613 62.8366C71.1972 62.8883 71.2112 62.9521 71.2003 63.0141C71.1893 63.0761 71.1543 63.1313 71.1029 63.1676C71.0521 63.2054 70.9887 63.2219 70.926 63.2137C70.8633 63.2056 70.8063 63.1733 70.7669 63.1238C70.7231 63.0654 70.3142 62.5542 69.8322 61.8093C69.3713 61.2056 68.8845 60.623 68.3717 60.0615C68.1328 59.741 67.8041 59.4986 67.4272 59.3654C67.2968 59.34 67.1625 59.3416 67.0328 59.3701C66.903 59.3986 66.7804 59.4533 66.6726 59.5309C66.503 59.6502 66.3589 59.802 66.2485 59.9775C66.1382 60.153 66.0639 60.3487 66.0299 60.5533C65.9908 61.3255 66.1878 62.0914 66.5947 62.7489C67.4715 64.4785 68.5643 66.0899 69.8468 67.5443C69.8861 67.5932 69.9051 67.6553 69.8998 67.7178C69.8944 67.7803 69.8651 67.8383 69.818 67.8798C69.7709 67.9212 69.7097 67.9429 69.647 67.9402C69.5843 67.9376 69.5251 67.9109 69.4817 67.8657V67.8364C67.4807 65.5775 66.6434 65.2659 66.2928 65.4022C66.0299 65.5045 65.8936 65.9913 65.9082 66.7751C65.9234 67.9217 66.1652 69.054 66.6197 70.1068C67.0742 71.1596 67.7325 72.112 68.5567 72.9094C68.6001 72.9537 68.625 73.0129 68.6263 73.075C68.6275 73.137 68.605 73.1972 68.5633 73.2432C68.5217 73.2892 68.464 73.3176 68.4022 73.3225C68.3403 73.3274 68.2789 73.3085 68.2305 73.2696C67.4948 72.6243 66.7029 72.0459 65.8644 71.5413C65.7026 71.4269 65.5155 71.3534 65.3192 71.3271Z"
    fill="#231F20" />
  <path
    d="M54.4604 101.853L87.8635 110.076C89.2106 110.408 90.5716 109.585 90.9032 108.237L108.488 36.808C108.819 35.4608 107.996 34.0999 106.649 33.7682L73.2458 25.5451C71.8986 25.2134 70.5377 26.0367 70.206 27.3839L52.6216 98.8133C52.2899 100.161 53.1132 101.521 54.4604 101.853Z"
    fill="white" />
  <path
    d="M88.4638 110.403C88.2389 110.402 88.015 110.374 87.7968 110.32L54.3944 102.102C53.6856 101.926 53.0755 101.476 52.6978 100.851C52.32 100.226 52.2053 99.4766 52.3789 98.7672L69.9539 27.3375C70.1302 26.6285 70.5798 26.018 71.2047 25.6395C71.8295 25.2609 72.5788 25.145 73.2888 25.3171L106.691 33.5398C107.044 33.6248 107.376 33.7787 107.668 33.9926C107.961 34.2066 108.208 34.4764 108.396 34.7864C108.584 35.0964 108.709 35.4406 108.763 35.799C108.817 36.1574 108.799 36.523 108.712 36.8747L91.1317 108.304C90.985 108.902 90.6426 109.433 90.1591 109.813C89.6757 110.193 89.0788 110.401 88.4638 110.403ZM54.5113 101.64L87.9136 109.857C88.2029 109.929 88.5034 109.942 88.798 109.898C89.0926 109.853 89.3754 109.75 89.6304 109.596C89.8854 109.442 90.1075 109.239 90.284 108.999C90.4606 108.759 90.5882 108.487 90.6594 108.197L108.239 36.7579C108.379 36.1757 108.283 35.5619 107.972 35.0503C107.661 34.5387 107.16 34.1708 106.579 34.0267L73.1769 25.7893C72.8869 25.718 72.5858 25.7045 72.2906 25.7496C71.9955 25.7947 71.7121 25.8975 71.4567 26.0521C71.2013 26.2067 70.9788 26.4101 70.802 26.6507C70.6252 26.8913 70.4975 27.1644 70.4262 27.4543L52.8511 98.8792C52.707 99.464 52.8009 100.082 53.1121 100.598C53.4234 101.114 53.9266 101.485 54.5113 101.63V101.64Z"
    fill="#231F20" />
  <path d="M56.6572 91.0699L90.9207 99.5049L105.378 40.7777L71.1146 32.3427L56.6572 91.0699Z" fill="#E6E7E8" />
  <path
    d="M68.4805 102.834L74.9995 104.439C75.8271 104.642 76.6632 104.137 76.867 103.309L77.4814 100.813C77.6852 99.9854 77.1794 99.1493 76.3518 98.9456L69.8328 97.3408C69.0052 97.137 68.1691 97.6428 67.9654 98.4704L67.3509 100.966C67.1472 101.794 67.6529 102.63 68.4805 102.834Z"
    fill="white" />
  <path
    d="M75.3725 104.735C75.2297 104.734 75.0875 104.716 74.949 104.682L68.4301 103.08C67.9701 102.965 67.5742 102.672 67.3289 102.267C67.0836 101.861 67.0087 101.374 67.1205 100.913L67.7339 98.4209C67.8491 97.9608 68.1415 97.565 68.5473 97.3196C68.9532 97.0743 69.4395 96.9994 69.9004 97.1112L76.4144 98.7178C76.6426 98.7731 76.8577 98.873 77.0473 99.0118C77.2368 99.1505 77.397 99.3254 77.5187 99.5263C77.6404 99.7272 77.7212 99.9501 77.7565 100.182C77.7917 100.415 77.7806 100.651 77.724 100.879L77.1106 103.372C77.0156 103.761 76.7926 104.107 76.4774 104.354C76.1622 104.602 75.7731 104.736 75.3725 104.735ZM68.5567 102.608L75.0755 104.209C75.2428 104.251 75.4166 104.258 75.5867 104.231C75.7568 104.204 75.9199 104.144 76.0663 104.053C76.2127 103.962 76.3396 103.843 76.4395 103.703C76.5394 103.563 76.6103 103.404 76.6481 103.236L77.2615 100.743C77.3019 100.576 77.3087 100.402 77.2815 100.232C77.2543 100.063 77.1937 99.8997 77.1031 99.7534C77.0126 99.6072 76.8939 99.4803 76.7539 99.3803C76.6139 99.2802 76.4555 99.209 76.2878 99.1706L69.7738 97.564C69.6063 97.5242 69.4326 97.5178 69.2626 97.5452C69.0926 97.5727 68.9297 97.6333 68.7832 97.7238C68.6367 97.8142 68.5095 97.9326 68.4088 98.0723C68.3081 98.212 68.2359 98.3701 68.1964 98.5377L67.583 101.03C67.5432 101.198 67.5369 101.372 67.5643 101.542C67.5917 101.712 67.6523 101.874 67.7428 102.021C67.8332 102.167 67.9517 102.295 68.0913 102.395C68.231 102.496 68.3891 102.568 68.5567 102.608Z"
    fill="#E6E7E8" />
  <path
    d="M95.4158 34.7606H95.3573L85.6205 32.3605C85.5896 32.3531 85.5606 32.3396 85.535 32.3208C85.5094 32.3021 85.4878 32.2784 85.4715 32.2512C85.4552 32.224 85.4444 32.1938 85.4399 32.1624C85.4354 32.131 85.4372 32.0991 85.4452 32.0684C85.4602 32.0058 85.4994 31.9518 85.5541 31.9181C85.6088 31.8843 85.6747 31.8736 85.7373 31.8882L95.4742 34.2884C95.5371 34.3045 95.5912 34.3446 95.6248 34.4001C95.6585 34.4556 95.6691 34.5221 95.6543 34.5853C95.6393 34.6367 95.6079 34.6817 95.5647 34.7134C95.5216 34.7451 95.4693 34.7617 95.4158 34.7606Z"
    fill="#E6E7E8" />
  <path
    d="M84.2914 32.0256H84.233L82.9282 31.7043C82.8657 31.6893 82.8117 31.6501 82.7779 31.5954C82.7442 31.5406 82.7335 31.4748 82.7481 31.4122C82.7549 31.3809 82.768 31.3513 82.7865 31.3252C82.8051 31.2991 82.8287 31.2769 82.8559 31.2601C82.8832 31.2433 82.9135 31.2322 82.9452 31.2273C82.9769 31.2225 83.0092 31.2241 83.0402 31.232L84.3498 31.5534C84.3818 31.5572 84.4127 31.5673 84.4407 31.5831C84.4688 31.5988 84.4935 31.62 84.5134 31.6453C84.5333 31.6706 84.548 31.6996 84.5567 31.7306C84.5654 31.7616 84.5679 31.794 84.564 31.826C84.5602 31.858 84.5501 31.8889 84.5343 31.9169C84.5185 31.945 84.4974 31.9697 84.4721 31.9896C84.4468 32.0094 84.4178 32.0242 84.3868 32.0328C84.3558 32.0415 84.3234 32.044 84.2914 32.0402V32.0256Z"
    fill="#E6E7E8" />
  <path
    d="M67.2459 79.8949L87.6109 84.6377C89.4125 85.0573 91.2132 83.9369 91.6328 82.1353L91.9729 80.6749C92.3925 78.8732 91.2721 77.0725 89.4704 76.653L69.1055 71.9101C67.3038 71.4905 65.5032 72.6109 65.0836 74.4126L64.7435 75.873C64.3239 77.6746 65.4443 79.4753 67.2459 79.8949Z"
    fill="#231F20" />
  <path
    d="M88.3713 84.9691C88.0974 84.9676 87.8247 84.935 87.5582 84.8717L67.1936 80.1299C66.266 79.9133 65.4624 79.3373 64.9594 78.5285C64.4564 77.7196 64.2951 76.7441 64.5111 75.8164L64.8518 74.3559C64.9585 73.8962 65.1548 73.462 65.4293 73.0781C65.7038 72.6942 66.0513 72.3682 66.4518 72.1186C66.8524 71.8691 67.2982 71.7009 67.7638 71.6236C68.2294 71.5464 68.7056 71.5617 69.1653 71.6685L89.53 76.4104C90.4568 76.6281 91.2596 77.2043 91.7625 78.0128C92.2653 78.8213 92.4271 79.7962 92.2125 80.7238L91.8717 82.1843C91.6874 82.975 91.2414 83.6803 90.606 84.1858C89.9706 84.6912 89.1832 84.9672 88.3713 84.9691ZM68.3523 72.0629C67.6511 72.0638 66.9707 72.3013 66.4212 72.7368C65.8717 73.1724 65.4851 73.7805 65.3241 74.463L64.9833 75.9235C64.8909 76.3209 64.8776 76.7325 64.9443 77.135C65.011 77.5375 65.1563 77.9229 65.3719 78.2692C65.5876 78.6155 65.8693 78.9159 66.2011 79.1533C66.5329 79.3907 66.9082 79.5604 67.3055 79.6527L87.6702 84.3946C88.4726 84.5799 89.3157 84.4396 90.0148 84.0043C90.7139 83.5689 91.2118 82.8742 91.3994 82.0724L91.7402 80.6118C91.9256 79.8094 91.7852 78.9663 91.3499 78.2672C90.9146 77.5682 90.2198 77.0703 89.418 76.8826L69.0436 72.1456C68.8173 72.0906 68.5852 72.0628 68.3523 72.0629Z"
    fill="#231F20" />
  <path
    d="M72.5341 75.5578C72.4721 75.4034 72.3653 75.2711 72.2274 75.178C72.0813 75.0764 71.9154 75.0067 71.7406 74.9735C71.6551 74.9463 71.567 74.9283 71.4777 74.92C71.3813 74.9227 71.286 74.9408 71.1953 74.9735C71.1083 75.0075 71.03 75.0608 70.9665 75.1293C70.8999 75.2073 70.8546 75.3013 70.8351 75.402C70.8154 75.4742 70.8126 75.55 70.8269 75.6234C70.8413 75.6969 70.8724 75.766 70.9178 75.8255C71.0303 75.9497 71.1578 76.0593 71.2976 76.1517C71.4534 76.2539 71.6237 76.361 71.8185 76.4681C71.9971 76.5702 72.161 76.6964 72.3053 76.843C72.4524 76.9914 72.5668 77.1688 72.6412 77.3639C72.7108 77.6057 72.7108 77.8622 72.6412 78.1039C72.5901 78.3434 72.4852 78.5682 72.3345 78.7612C72.2056 78.9304 72.0389 79.0671 71.8477 79.1604C71.6473 79.2542 71.4308 79.3087 71.2099 79.3211C70.9751 79.3523 70.7368 79.3457 70.504 79.3016C70.2031 79.2358 69.9163 79.1172 69.6569 78.9511C69.3964 78.7828 69.1862 78.5473 69.0483 78.2695L69.8516 77.7826C69.9176 77.971 70.0318 78.1389 70.1827 78.2695C70.3328 78.3976 70.5114 78.4877 70.7036 78.5324C70.808 78.552 70.9139 78.5617 71.0201 78.5616C71.1248 78.5556 71.2282 78.5342 71.3268 78.4983C71.4208 78.4623 71.5056 78.4057 71.5751 78.3328C71.6481 78.2553 71.6986 78.1593 71.7211 78.0553C71.7426 77.978 71.7468 77.8968 71.7333 77.8177C71.7198 77.7386 71.6891 77.6635 71.6432 77.5976C71.536 77.4645 71.4097 77.348 71.2684 77.252C71.1126 77.1497 70.9373 77.0426 70.7474 76.9355C70.571 76.8301 70.4076 76.7042 70.2606 76.5606C70.1132 76.4145 69.9987 76.2385 69.9247 76.0446C69.855 75.8045 69.855 75.5496 69.9247 75.3095C69.9714 75.0787 70.077 74.8641 70.2314 74.6863C70.376 74.5286 70.5517 74.4027 70.7474 74.3163C70.9515 74.2312 71.1691 74.1834 71.3901 74.1751C71.8845 74.1544 72.3745 74.2761 72.8019 74.5256C73.0277 74.6637 73.2218 74.8478 73.3715 75.066L72.5341 75.5578Z"
    fill="white" />
  <path
    d="M74.35 74.8623L77.6021 75.6072L77.422 76.3959L75.0413 75.8555L74.7686 77.0628L77.0227 77.5497L76.8426 78.3432L74.5885 77.8418L74.2818 79.1757L76.7891 79.7453L76.6089 80.5389L73.2302 79.7892L74.35 74.8623Z"
    fill="white" />
  <path
    d="M78.5905 75.8311L79.7492 76.094L81.2973 80.2857L82.1298 76.6344L83.0061 76.834L81.8961 81.7365L80.7861 81.4833L79.2136 77.165L78.3519 80.9332L77.4805 80.7336L78.5905 75.8311Z"
    fill="white" />
  <path
    d="M84.1357 77.0918L86.083 77.53C86.4013 77.6014 86.7056 77.7247 86.9837 77.8951C87.2561 78.0569 87.4929 78.2722 87.6799 78.528C87.8693 78.7958 87.9989 79.1014 88.0596 79.4238C88.1259 79.8005 88.1127 80.1869 88.0207 80.5581C87.9432 80.9376 87.7763 81.2931 87.5338 81.5951C87.3178 81.8561 87.049 82.0684 86.7451 82.2183C86.4483 82.3601 86.1284 82.4475 85.8007 82.4763C85.4863 82.5065 85.1692 82.4868 84.8611 82.4179L83.0305 82.004L84.1357 77.0918ZM84.7199 81.561C84.982 81.6188 85.2499 81.6466 85.5183 81.6438C85.7595 81.6386 85.9974 81.5874 86.2193 81.4929C86.431 81.4019 86.6168 81.2597 86.7597 81.079C86.9268 80.8649 87.0418 80.6149 87.0957 80.3488C87.1593 80.0874 87.1709 79.8162 87.1297 79.5504C87.0891 79.3309 86.9974 79.1241 86.862 78.9467C86.7208 78.7716 86.5452 78.6274 86.3459 78.5231C86.118 78.4049 85.8759 78.3165 85.6254 78.2602L84.827 78.0801L84.0724 81.4101L84.7199 81.561Z"
    fill="white" />
  <path
    d="M107.718 99.287C107.718 99.287 104.583 73.0997 101.516 70.2322C97.8696 66.8243 94.5444 64.5167 93.9408 66.464C93.3371 68.4114 92.7626 71.6489 97.7479 75.2954L97.0176 81.7801C97.0176 81.7801 92.1151 85.188 94.6661 95.8645"
    fill="white" />
  <path
    d="M107.714 99.5112C107.659 99.5093 107.607 99.4882 107.567 99.4516C107.527 99.4151 107.501 99.3654 107.494 99.3116C107.465 99.0536 104.34 73.1729 101.365 70.3931C96.8861 66.2159 95.2309 65.8508 94.6369 66.0115C94.5157 66.0467 94.4064 66.1143 94.3207 66.2069C94.2349 66.2995 94.1759 66.4137 94.1501 66.5372C93.4588 68.7573 93.2543 71.7367 97.8793 75.1252C97.9112 75.148 97.9363 75.1791 97.9517 75.2151C97.9672 75.2512 97.9725 75.2908 97.9669 75.3296L97.2415 81.8095C97.2368 81.8414 97.2257 81.8721 97.209 81.8996C97.1923 81.9272 97.1702 81.9512 97.1442 81.9702C97.0955 82.0043 92.4023 85.417 94.8852 95.8209C94.8971 95.8782 94.8866 95.938 94.8558 95.9878C94.825 96.0376 94.7763 96.0737 94.7197 96.0887C94.6622 96.1019 94.6019 96.0919 94.5518 96.0609C94.5017 96.0299 94.4658 95.9804 94.4519 95.9231C92.0469 85.8406 96.1364 82.1844 96.8082 81.6635L97.5142 75.4075C92.7674 71.8877 92.9963 68.7475 93.7265 66.4009C93.7736 66.2048 93.8726 66.0249 94.013 65.8802C94.1535 65.7354 94.3303 65.6311 94.5249 65.5782C95.7275 65.2617 98.1325 66.7758 101.667 70.0766C104.763 72.9636 107.811 98.1918 107.938 99.2872C107.942 99.3164 107.94 99.3461 107.932 99.3745C107.924 99.403 107.911 99.4296 107.893 99.4528C107.875 99.476 107.852 99.4952 107.826 99.5094C107.8 99.5237 107.772 99.5325 107.743 99.5355L107.714 99.5112Z"
    fill="#231F20" />
  <path
    d="M15.3643 108.874C15.3643 108.874 25.1303 89.9502 32.4866 81.4207C33.4895 80.2572 34.7747 80.0624 35.6754 80.6612C36.7416 81.3769 36.7854 83.7576 36.7854 83.7576C36.7854 83.7576 39.575 82.1607 40.9138 82.4918C42.2526 82.8228 42.4084 84.926 42.4084 84.926C42.4084 84.926 45.3928 83.9523 46.6196 85.0039C47.8465 86.0555 47.8806 87.925 47.8806 87.925C47.8806 87.925 63.5861 75.4764 65.3193 74.4296C67.0525 73.3829 70.1585 75.2427 68.625 77.4529C67.6513 78.8307 59.7352 86.6153 57.1695 89.0885C54.6039 91.5617 48.6254 98.2899 47.9585 100.266C47.2915 102.243 46.7219 104.492 50.7968 104.77C54.8716 105.047 58.5035 105.743 60.2902 107.243C62.0769 108.742 63.2502 110.987 62.3544 111.425C61.4586 111.863 47.0529 110.242 41.5808 112.442C36.1087 114.643 28.9861 122.666 28.9861 122.666L15.3643 108.874Z"
    fill="white" />
  <path
    d="M28.9859 122.924C28.9532 122.925 28.9207 122.919 28.8905 122.906C28.8603 122.894 28.8331 122.875 28.8106 122.851L15.179 109.049C15.1437 109.011 15.1206 108.963 15.1128 108.912C15.105 108.861 15.1128 108.808 15.1352 108.762C15.2374 108.577 24.9986 89.7115 32.2916 81.2599C33.3237 80.0672 34.7258 79.7458 35.8017 80.4615C36.6926 81.0555 36.9312 82.6231 36.9945 83.3826C37.8026 82.959 39.823 81.9951 40.9622 82.2774C42.1015 82.5598 42.5007 83.9863 42.6029 84.6143C43.4013 84.3952 45.67 83.8889 46.7654 84.8236C47.5042 85.5251 47.9671 86.4682 48.0702 87.4818C50.4654 85.588 63.581 75.2182 65.1827 74.2494C66.3317 73.5581 67.8896 74.0254 68.6734 74.8628C69.0302 75.2262 69.2416 75.7076 69.2676 76.2162C69.2936 76.7248 69.1324 77.2253 68.8146 77.6232C67.8409 79.0107 60.0514 86.6639 57.3299 89.3075C54.6085 91.951 48.8199 98.4796 48.1773 100.378C47.7975 101.508 47.4665 102.681 47.9971 103.475C48.411 104.098 49.3554 104.448 50.8062 104.56C55.5627 104.882 58.8002 105.734 60.436 107.092C61.8965 108.309 63.0017 110.076 62.8702 111.026C62.8601 111.163 62.8144 111.295 62.7376 111.41C62.6607 111.524 62.5555 111.617 62.4321 111.678C62.1205 111.834 60.9423 111.795 58.3134 111.678C53.479 111.493 45.3828 111.191 41.6438 112.691C36.2885 114.842 29.2098 122.783 29.1368 122.861C29.1157 122.887 29.0889 122.908 29.0586 122.922C29.0283 122.936 28.9951 122.944 28.9615 122.944L28.9859 122.924ZM15.661 108.806L28.9761 122.301C30.1251 121.035 36.4346 114.224 41.488 112.194C45.3292 110.651 53.4887 110.962 58.362 111.147C60.2315 111.22 61.9988 111.288 62.2568 111.181C62.3075 111.156 62.3499 111.117 62.3793 111.069C62.4086 111.021 62.4235 110.965 62.4223 110.909C62.5051 110.217 61.5898 108.611 60.1439 107.408C58.5909 106.118 55.4459 105.3 50.7916 104.974C49.1607 104.862 48.1189 104.439 47.6125 103.674C46.9553 102.701 47.3156 101.396 47.7342 100.149C48.4499 98.0366 54.6036 91.2013 56.9843 88.8839C59.5986 86.3669 67.4806 78.6261 68.4105 77.2873C68.6679 76.9821 68.8008 76.5911 68.7828 76.1923C68.7647 75.7935 68.597 75.4161 68.3131 75.1354C67.6559 74.4392 66.3414 74.0595 65.4262 74.6096C63.7319 75.632 48.1724 87.9638 48.0166 88.0855C47.9805 88.1137 47.9373 88.1313 47.8917 88.1365C47.8462 88.1417 47.8001 88.1341 47.7586 88.1147C47.718 88.0954 47.6837 88.0651 47.6596 88.0272C47.6354 87.9893 47.6225 87.9454 47.6223 87.9005C47.6223 87.9005 47.5736 86.0943 46.449 85.1352C45.3244 84.1761 42.4958 85.0914 42.4666 85.1011C42.4319 85.1134 42.3948 85.1172 42.3583 85.1121C42.3219 85.1071 42.2872 85.0933 42.2572 85.0719C42.2257 85.0521 42.1994 85.0249 42.1808 84.9927C42.1621 84.9604 42.1516 84.9241 42.1501 84.8869C42.1501 84.8869 41.9944 82.9736 40.8454 82.6912C39.823 82.4381 37.642 83.4994 36.8922 83.9278C36.8552 83.9492 36.8133 83.9604 36.7705 83.9604C36.7278 83.9604 36.6858 83.9492 36.6488 83.9278C36.6121 83.9078 36.5814 83.8782 36.56 83.8422C36.5386 83.8063 36.5272 83.7652 36.5271 83.7234C36.5271 83.0953 36.3129 81.3524 35.5242 80.8266C34.7355 80.3008 33.5184 80.5443 32.6567 81.5374C25.7678 89.5801 16.6201 106.994 15.661 108.83V108.806Z"
    fill="#231F20" />
  <path
    d="M26.537 45.4473L17.1458 70.3152L40.7187 74.5411C41.1082 73.4992 41.931 72.7689 42.5347 72.9053L45.2707 73.5089C45.4995 73.5625 45.8111 73.3434 46.0107 72.9588C46.1594 72.6954 46.2272 72.394 46.2055 72.0922C46.2053 72.016 46.182 71.9416 46.1385 71.8789C46.095 71.8163 46.0334 71.7684 45.962 71.7417L41.5464 70.5392C41.4628 70.5076 41.3895 70.4537 41.3346 70.3833C41.2796 70.3129 41.2451 70.2287 41.2348 70.14C41.2002 69.8879 41.2321 69.6311 41.3273 69.3951C41.5366 68.845 41.9651 68.4847 42.301 68.587L42.9193 68.7622L45.3194 69.512C45.6602 69.6191 46.1422 69.2101 46.3564 68.5967C46.4472 68.3562 46.4805 68.0978 46.4538 67.8421C46.4538 67.7471 46.4275 67.654 46.3776 67.5731C46.3277 67.4923 46.2563 67.427 46.1714 67.3845L41.4539 65.6708C41.3646 65.6297 41.2878 65.5658 41.2314 65.4854C41.1749 65.405 41.1408 65.311 41.1325 65.2131C41.0833 64.8618 41.1518 64.504 41.3273 64.1956C41.5707 63.7429 41.9602 63.5335 42.2474 63.6552L48.5764 66.3037C48.8636 66.4205 49.2677 66.0651 49.4819 65.5004C49.6961 64.9405 49.6426 64.3758 49.3602 64.2394L44.9786 62.1363C44.895 62.0852 44.8256 62.0138 44.7771 61.9286C44.7286 61.8435 44.7024 61.7474 44.7011 61.6494C44.6679 61.3853 44.7031 61.1171 44.8034 60.8705C45.0078 60.3252 45.4168 60.0136 45.7137 60.1694L46.1032 60.3642L48.6689 61.7273C48.9123 61.8588 49.3651 61.8004 49.6864 61.0603C50.1976 59.8871 49.6864 59.5317 49.5403 59.4489L47.0623 57.8374L26.537 45.4473Z"
    fill="white" />
  <path
    d="M26.5373 45.447L47.0529 57.8274L49.5309 59.4389C49.6672 59.5216 50.1881 59.877 49.677 61.0503C49.4384 61.5956 49.1268 61.7709 48.8834 61.7709C48.8055 61.7712 48.7287 61.7528 48.6595 61.7173L46.0938 60.3541L45.7043 60.1594C45.6528 60.1339 45.5962 60.1206 45.5388 60.1205C45.271 60.1205 44.9643 60.4126 44.7939 60.8604C44.6936 61.107 44.6584 61.3753 44.6917 61.6394C44.693 61.7374 44.7191 61.8335 44.7676 61.9186C44.8162 62.0038 44.8855 62.0752 44.9692 62.1262L49.3508 64.2294C49.6331 64.3657 49.6867 64.9305 49.4725 65.4903C49.2875 65.9772 48.9564 66.3131 48.6838 66.3131C48.6452 66.3205 48.6056 66.3205 48.567 66.3131L42.238 63.6647C42.1844 63.6408 42.1262 63.6291 42.0676 63.6306C41.9041 63.6549 41.7496 63.7203 41.6184 63.8208C41.4872 63.9213 41.3838 64.0536 41.3178 64.2051C41.1424 64.5134 41.0739 64.8712 41.1231 65.2226C41.1314 65.3205 41.1655 65.4144 41.2219 65.4948C41.2784 65.5752 41.3552 65.6392 41.4444 65.6802L46.1473 67.4134C46.2323 67.4559 46.3037 67.5212 46.3536 67.6021C46.4034 67.6829 46.4298 67.776 46.4297 67.871C46.4565 68.1267 46.4231 68.3851 46.3323 68.6256C46.1425 69.1757 45.7335 69.5604 45.4073 69.5604C45.3702 69.5654 45.3325 69.5654 45.2954 69.5604L42.8952 68.8106L42.2672 68.5915C42.23 68.5865 42.1924 68.5865 42.1552 68.5915C41.8534 68.5915 41.4931 68.9323 41.3081 69.4192C41.2129 69.6552 41.181 69.9119 41.2156 70.164C41.2259 70.2528 41.2605 70.3369 41.3154 70.4073C41.3704 70.4778 41.4436 70.5317 41.5272 70.5632L45.9429 71.7658C46.0143 71.7925 46.0758 71.8404 46.1193 71.903C46.1628 71.9656 46.1862 72.04 46.1863 72.1163C46.208 72.418 46.1402 72.7194 45.9915 72.9829C45.9363 73.1256 45.8457 73.2519 45.7281 73.3498C45.6106 73.4478 45.47 73.5142 45.3197 73.5427H45.2515L42.5155 72.939C42.4669 72.9343 42.418 72.9343 42.3694 72.939C41.7852 72.939 41.0598 73.6304 40.6996 74.5895L17.1266 70.3636L26.5178 45.4957L26.5373 45.447ZM26.5178 45.0526C26.4696 45.0433 26.42 45.0433 26.3717 45.0526C26.3097 45.0736 26.2531 45.108 26.2059 45.1535C26.1588 45.1989 26.1223 45.2543 26.0991 45.3155L16.7128 70.1786C16.6884 70.24 16.6783 70.3061 16.6834 70.3719C16.6885 70.4377 16.7085 70.5015 16.742 70.5584C16.7741 70.615 16.8182 70.6639 16.8712 70.7018C16.9241 70.7396 16.9847 70.7654 17.0487 70.7775L40.6168 75.0033H40.6996C40.7894 75.0024 40.8769 74.9746 40.9507 74.9233C41.0245 74.8721 41.0812 74.7999 41.1134 74.716C41.4493 73.8251 42.0579 73.3529 42.3694 73.3529H42.4181L45.1883 73.9468C45.2417 73.9518 45.2955 73.9518 45.3489 73.9468C45.5813 73.9217 45.8027 73.8349 45.9902 73.6953C46.1776 73.5558 46.3244 73.3686 46.4151 73.1533C46.6079 72.8081 46.6911 72.4125 46.6537 72.0189C46.6441 71.8556 46.5849 71.6991 46.484 71.5703C46.3831 71.4416 46.2452 71.3467 46.0889 71.2984L41.7073 70.1056C41.7053 70.0846 41.7053 70.0634 41.7073 70.0423C41.6907 69.8769 41.7141 69.71 41.7755 69.5555C41.8067 69.4411 41.8614 69.3344 41.9359 69.2423C42.0105 69.1501 42.1034 69.0744 42.2088 69.02L42.8173 69.1952L45.2077 69.9401C45.2864 69.9652 45.3685 69.9784 45.4511 69.979C45.7724 69.9299 46.072 69.7867 46.312 69.5674C46.552 69.3482 46.7217 69.0629 46.7997 68.7473C46.9122 68.4359 46.9522 68.1029 46.9166 67.7736C46.9069 67.5972 46.8479 67.4271 46.7464 67.2825C46.6448 67.1379 46.5047 67.0247 46.3421 66.9557L41.6392 65.2226C41.6255 65.1827 41.6141 65.142 41.6051 65.1009C41.5739 64.8512 41.6252 64.5982 41.7511 64.3803C41.8923 64.1223 42.0578 64.0347 42.1114 64.0347L48.4404 66.6831C48.5328 66.722 48.6322 66.7419 48.7325 66.7415C49.2193 66.7415 49.6818 66.3034 49.935 65.6267C50.2466 64.8136 50.1005 64.0444 49.5893 63.801L45.2077 61.6978C45.2077 61.6978 45.2077 61.654 45.1785 61.5664C45.1585 61.3762 45.1852 61.184 45.2564 61.0065C45.3095 60.8263 45.4229 60.6699 45.5777 60.5635L45.9477 60.7436L48.4988 62.1019C48.633 62.17 48.7816 62.2051 48.9321 62.2041C49.1658 62.2041 49.7451 62.1116 50.1346 61.2305C50.748 59.8186 50.1103 59.2441 49.8084 59.0591L47.3401 57.4623L26.8148 45.0721C26.746 45.0299 26.6667 45.0079 26.586 45.0088L26.5178 45.0526Z"
    fill="#231F20" />
  <path
    d="M33.7277 66.4793H33.6547C33.6229 66.4673 33.5942 66.4484 33.5706 66.424C33.5471 66.3996 33.5292 66.3702 33.5184 66.3381L26.5419 46.1487C26.5284 46.094 26.536 46.0363 26.5632 45.987C26.5904 45.9377 26.6351 45.9004 26.6885 45.8826C26.7419 45.8648 26.8001 45.8677 26.8514 45.8909C26.9027 45.914 26.9435 45.9557 26.9655 46.0075L33.8494 65.9194L46.6486 57.828C46.6987 57.7981 46.7584 57.7885 46.8155 57.8012C46.8725 57.8138 46.9225 57.8478 46.9553 57.8962C46.9711 57.921 46.9819 57.9487 46.9868 57.9777C46.9917 58.0067 46.9907 58.0364 46.9839 58.0651C46.9771 58.0937 46.9646 58.1207 46.9471 58.1443C46.9296 58.168 46.9076 58.1879 46.8822 58.2029L33.8592 66.4452C33.8201 66.4702 33.7741 66.4821 33.7277 66.4793Z"
    fill="#231F20" />
  <path
    d="M17.146 70.5388C17.0962 70.5404 17.0475 70.525 17.0077 70.4951C16.9679 70.4653 16.9394 70.4229 16.9269 70.3747C16.9144 70.3265 16.9187 70.2756 16.9391 70.2302C16.9594 70.1848 16.9946 70.1477 17.0389 70.125L32.0726 61.5955C32.1237 61.5671 32.184 61.5599 32.2404 61.5754C32.2968 61.5908 32.3449 61.6277 32.3744 61.6782C32.3891 61.7034 32.3986 61.7312 32.4024 61.7601C32.4062 61.7891 32.4042 61.8184 32.3965 61.8465C32.3888 61.8746 32.3755 61.9009 32.3575 61.9239C32.3395 61.9468 32.3171 61.9659 32.2917 61.9801L17.2579 70.5096C17.2238 70.5289 17.1852 70.539 17.146 70.5388Z"
    fill="#231F20" />
  <path
    d="M40.7187 74.7602C40.6705 74.76 40.6235 74.7443 40.5849 74.7154C40.5463 74.6864 40.5181 74.6458 40.5045 74.5995L37.3692 63.8889C37.3598 63.8345 37.3709 63.7784 37.4004 63.7316C37.4298 63.6848 37.4755 63.6506 37.5287 63.6355C37.5819 63.6204 37.6388 63.6255 37.6884 63.6498C37.7381 63.6741 37.777 63.7159 37.7976 63.7672L40.928 74.4778C40.937 74.5059 40.9401 74.5355 40.9373 74.5649C40.9345 74.5943 40.9258 74.6228 40.9117 74.6487C40.8976 74.6746 40.8784 74.6974 40.8553 74.7157C40.8322 74.734 40.8056 74.7475 40.7771 74.7553L40.7187 74.7602Z"
    fill="#231F20" />
  <path
    d="M59.954 0.989258L22.7932 35.3848L59.3698 62.648C60.9228 61.2118 62.9432 60.6666 63.8585 61.4066L68.0064 64.7658C68.3521 65.0482 69.0629 64.9411 69.7396 64.4591C70.2176 64.1345 70.5887 63.6753 70.8058 63.1398C70.8684 63.0111 70.8908 62.8665 70.87 62.7249C70.8491 62.5833 70.786 62.4513 70.6889 62.3462L64.1749 56.5187C64.0574 56.3952 63.9776 56.2407 63.9448 56.0734C63.9121 55.9061 63.9277 55.7329 63.9899 55.5742C64.1401 55.1126 64.4127 54.7003 64.7786 54.3814C65.6014 53.6219 66.6384 53.3737 67.1009 53.8167L68.0064 54.6443L71.4581 57.9597C71.945 58.4466 73.1183 58.1496 74.0043 57.2879C74.3623 56.9543 74.6388 56.5428 74.8125 56.0854C74.8941 55.9222 74.9283 55.7394 74.9111 55.5578C74.8938 55.3762 74.8259 55.203 74.7151 55.0581L68.1768 48.106C68.0611 47.9587 67.9859 47.7838 67.9586 47.5985C67.9313 47.4132 67.9528 47.224 68.021 47.0496C68.2351 46.4112 68.6545 45.8617 69.2138 45.4868C70.0122 44.9221 70.8593 44.8977 71.2488 45.3456L79.7929 55.2431C80.1824 55.6959 81.1804 55.4281 82.0226 54.6541C82.8649 53.8751 83.2543 52.8673 82.8843 52.3951L77.1737 45.0632C77.0778 44.9086 77.021 44.7329 77.0082 44.5513C76.9955 44.3698 77.0272 44.1879 77.1006 44.0214C77.2731 43.5462 77.5608 43.1213 77.938 42.7848C78.751 42.0351 79.715 41.8501 80.085 42.371L80.5718 43.0282L83.785 47.5364C84.0869 47.96 84.9096 48.2472 86.0829 47.2589C87.9573 45.6961 87.3682 44.6494 87.2027 44.3865L84.3449 39.5181L59.954 0.989258Z"
    fill="#C4D7D1" />
  <path
    d="M59.9541 0.988927L84.3839 39.5372L87.2417 44.4057C87.4073 44.6685 87.9963 45.7153 86.122 47.278C85.7278 47.6638 85.2112 47.8997 84.6615 47.945C84.5022 47.9528 84.3434 47.9214 84.1991 47.8535C84.0547 47.7856 83.9293 47.6833 83.8338 47.5555L80.6206 43.0474L80.1338 42.3901C80.0587 42.2911 79.9603 42.2122 79.8473 42.1604C79.7343 42.1086 79.6103 42.0855 79.4863 42.0931C78.9174 42.1426 78.3852 42.3948 77.9868 42.8039C77.6096 43.1404 77.3219 43.5653 77.1494 44.0405C77.076 44.207 77.0443 44.3889 77.0571 44.5705C77.0698 44.752 77.1266 44.9277 77.2225 45.0824L82.9332 52.4142C83.3032 52.9011 82.9332 53.8748 82.0714 54.6732C81.6271 55.1313 81.0362 55.419 80.4016 55.4862C80.2975 55.4922 80.1935 55.4753 80.0967 55.4366C80 55.3979 79.9129 55.3384 79.8417 55.2623L71.2976 45.3647C71.1985 45.2603 71.0781 45.1784 70.9445 45.1246C70.8109 45.0709 70.6673 45.0465 70.5235 45.0532C70.0669 45.0722 69.627 45.2301 69.2626 45.5059C68.7033 45.8808 68.2839 46.4303 68.0698 47.0687C68.0016 47.2431 67.9801 47.4323 68.0074 47.6176C68.0347 47.8029 68.1099 47.9778 68.2256 48.1251L74.7639 55.0773C74.8748 55.2222 74.9426 55.3953 74.9599 55.5769C74.9771 55.7586 74.9429 55.9414 74.8613 56.1045C74.6876 56.562 74.4111 56.9734 74.0531 57.307C73.5563 57.8302 72.8834 58.151 72.1642 58.2077C71.9234 58.2215 71.6871 58.1392 71.5069 57.9789L68.0552 54.6635L67.1497 53.8358C66.9762 53.6849 66.7514 53.6065 66.5217 53.6167C65.9651 53.6832 65.438 53.9033 64.9995 54.2524C64.5609 54.6015 64.2283 55.0658 64.0387 55.5933C63.9765 55.752 63.9609 55.9252 63.9936 56.0925C64.0264 56.2598 64.1062 56.4143 64.2238 56.5378L70.7329 62.3458C70.83 62.451 70.8931 62.583 70.9139 62.7246C70.9347 62.8662 70.9124 63.0107 70.8497 63.1394C70.6326 63.675 70.2616 64.1341 69.7835 64.4587C69.4287 64.733 68.9995 64.8942 68.5518 64.9213C68.3767 64.9248 68.2054 64.87 68.0649 64.7655L63.917 61.4062C63.6023 61.174 63.2172 61.0571 62.8265 61.0752C61.5402 61.1796 60.3327 61.7368 59.4186 62.6477L22.7933 35.3844L59.9395 0.988927H59.9541ZM59.9395 0.545898C59.8268 0.548171 59.7184 0.589467 59.6328 0.662741L22.5061 35.0583C22.4583 35.1026 22.4209 35.157 22.3966 35.2175C22.3722 35.278 22.3615 35.3431 22.3652 35.4082C22.3689 35.4733 22.387 35.5368 22.4181 35.5941C22.4492 35.6514 22.4925 35.7012 22.5451 35.7398L59.1168 63.0031C59.1954 63.0581 59.2886 63.0885 59.3845 63.0907C59.4963 63.0912 59.6041 63.0495 59.6864 62.9739C60.5181 62.143 61.6125 61.6267 62.7827 61.5133C63.0717 61.4962 63.3581 61.5768 63.5957 61.7422L67.7436 65.1014C67.9659 65.274 68.2414 65.3635 68.5226 65.3545C69.0631 65.329 69.583 65.1387 70.0123 64.8093C70.5651 64.4319 70.9924 63.8979 71.2392 63.2757C71.3339 63.0641 71.3619 62.8286 71.3193 62.6007C71.2766 62.3727 71.1655 62.1633 71.0006 62.0002L64.4915 56.197C64.3552 56.0753 64.4087 55.8124 64.438 55.7102C64.6011 55.2758 64.8778 54.8931 65.2391 54.6019C65.6005 54.3108 66.0333 54.1219 66.4924 54.0549C66.6077 54.0482 66.7216 54.0827 66.8138 54.1523L67.729 54.9604L71.1661 58.2661C71.4323 58.5059 71.7819 58.6318 72.1398 58.6166C72.9754 58.5592 73.7598 58.1931 74.3404 57.5894C74.7478 57.206 75.0625 56.7348 75.2605 56.2116C75.3668 55.9741 75.4048 55.7117 75.3705 55.4537C75.3361 55.1958 75.2306 54.9525 75.0658 54.7511L68.5226 47.8038C68.4613 47.7122 68.4243 47.6065 68.4149 47.4967C68.4056 47.3869 68.4242 47.2765 68.469 47.1758C68.6546 46.6338 69.014 46.1683 69.4914 45.8516C69.7806 45.6289 70.13 45.4983 70.4943 45.4767C70.5745 45.4716 70.6548 45.4833 70.7303 45.511C70.8057 45.5386 70.8746 45.5817 70.9325 45.6374L79.4766 55.5349C79.5892 55.6593 79.7279 55.7573 79.8827 55.8221C80.0375 55.8869 80.2047 55.9168 80.3724 55.9098C81.1103 55.8372 81.7994 55.5081 82.3197 54.9799C83.3665 54.0062 83.7803 52.7842 83.235 52.1124L77.5487 44.7854C77.5016 44.6874 77.4772 44.5801 77.4772 44.4714C77.4772 44.3627 77.5016 44.2554 77.5487 44.1574C77.6984 43.754 77.944 43.3931 78.2643 43.1058C78.5817 42.7745 79.0058 42.5659 79.462 42.5167C79.5149 42.5105 79.5686 42.517 79.6185 42.5356C79.6685 42.5542 79.7133 42.5844 79.7492 42.6238L80.236 43.2908L83.4395 47.7892C83.5785 47.973 83.759 48.1214 83.9663 48.222C84.1736 48.3227 84.4018 48.3729 84.6322 48.3686C85.2903 48.3268 85.9126 48.0544 86.3897 47.5993C88.3955 45.9197 87.9038 44.6247 87.5971 44.1428L84.7491 39.3084L60.329 0.755241C60.2938 0.699641 60.2467 0.652492 60.1912 0.61715C60.1356 0.581809 60.073 0.559143 60.0077 0.550767L59.9395 0.545898Z"
    fill="#231F20" />
  <path
    d="M54.5162 42.7901C54.4557 42.7895 54.398 42.765 54.3555 42.7219C54.3332 42.698 54.3164 42.6695 54.3063 42.6383C54.2962 42.6072 54.2931 42.5743 54.2971 42.5418L59.5647 2.21651C59.5732 2.15778 59.6046 2.1048 59.652 2.0692C59.6995 2.03361 59.7592 2.0183 59.8179 2.02664C59.8468 2.03023 59.8746 2.03953 59.8999 2.05401C59.9251 2.06849 59.9472 2.08785 59.9649 2.11097C59.9826 2.13408 59.9955 2.16048 60.0028 2.18864C60.0102 2.21679 60.0119 2.24612 60.0078 2.27493L54.7742 42.3032L83.7025 39.3822C83.7576 39.3828 83.8106 39.4037 83.8512 39.441C83.8919 39.4783 83.9173 39.5292 83.9228 39.5841C83.9282 39.6389 83.9132 39.6939 83.8806 39.7384C83.8481 39.7829 83.8002 39.8138 83.7463 39.8252L54.5356 42.7949L54.5162 42.7901Z"
    fill="#231F20" />
  <path
    d="M22.7933 35.6082C22.7369 35.6083 22.6826 35.5865 22.6417 35.5475C22.6009 35.5085 22.5767 35.4553 22.5742 35.3989C22.5723 35.3695 22.5761 35.3399 22.5856 35.312C22.595 35.2841 22.6099 35.2583 22.6294 35.2361C22.6488 35.214 22.6724 35.1958 22.6989 35.1828C22.7254 35.1698 22.7541 35.1622 22.7836 35.1603L55.6601 33.4126C55.6896 33.4091 55.7195 33.412 55.7477 33.4209C55.776 33.4299 55.8021 33.4448 55.8242 33.4645C55.8463 33.4843 55.8639 33.5086 55.8759 33.5357C55.8879 33.5629 55.894 33.5922 55.8938 33.6219C55.8952 33.681 55.8737 33.7383 55.8337 33.7818C55.7938 33.8254 55.7386 33.8518 55.6796 33.8556L22.8079 35.6082H22.7933Z"
    fill="#231F20" />
  <path
    d="M59.3846 62.8532H59.3457C59.2878 62.8425 59.2364 62.8094 59.2027 62.7612C59.169 62.7129 59.1556 62.6532 59.1656 62.5952L62.9435 41.6609C62.9542 41.603 62.9872 41.5516 63.0355 41.5179C63.0838 41.4841 63.1434 41.4708 63.2015 41.4808C63.2305 41.4854 63.2582 41.4959 63.2831 41.5115C63.3079 41.5271 63.3294 41.5476 63.3462 41.5716C63.363 41.5957 63.3748 41.6229 63.3809 41.6516C63.387 41.6803 63.3872 41.71 63.3816 41.7388L59.6037 62.6731C59.5936 62.7238 59.5663 62.7694 59.5263 62.8022C59.4864 62.8351 59.4363 62.8531 59.3846 62.8532Z"
    fill="#231F20" />
  <path
    d="M75.4163 68.5923C75.3697 68.5914 75.3243 68.5779 75.2848 68.5533L55.0029 53.763C54.9558 53.7281 54.9244 53.676 54.9158 53.618C54.9071 53.56 54.9218 53.501 54.9567 53.4538C54.9915 53.4067 55.0437 53.3754 55.1017 53.3667C55.1596 53.358 55.2187 53.3727 55.2658 53.4076L75.5477 68.193C75.5866 68.2199 75.6158 68.2587 75.6309 68.3035C75.6459 68.3484 75.6461 68.3969 75.6313 68.4418C75.6165 68.4867 75.5875 68.5257 75.5488 68.5528C75.51 68.5799 75.4636 68.5937 75.4163 68.5923Z"
    fill="white" />
  <path
    d="M78.201 62.8517C78.1405 62.8511 78.0828 62.8266 78.0403 62.7836L71.317 55.7633C71.2922 55.7433 71.272 55.7182 71.2578 55.6898C71.2435 55.6613 71.2354 55.6302 71.2341 55.5984C71.2328 55.5666 71.2383 55.5348 71.2502 55.5053C71.2621 55.4758 71.2802 55.4492 71.3032 55.4272C71.3262 55.4052 71.3537 55.3884 71.3837 55.3779C71.4138 55.3673 71.4457 55.3633 71.4774 55.3661C71.5091 55.3689 71.5399 55.3784 71.5676 55.394C71.5954 55.4096 71.6195 55.4309 71.6383 55.4566L78.3616 62.472C78.4035 62.514 78.4271 62.5709 78.4271 62.6302C78.4271 62.6896 78.4035 62.7465 78.3616 62.7885C78.3176 62.8285 78.2605 62.851 78.201 62.8517Z"
    fill="white" />
  <path
    d="M82.607 62.3564C82.5466 62.3558 82.4888 62.3313 82.4464 62.2883L78.3228 58.0138C78.2809 57.9718 78.2573 57.9149 78.2573 57.8555C78.2573 57.7962 78.2809 57.7393 78.3228 57.6973C78.3654 57.6565 78.4221 57.6338 78.481 57.6338C78.54 57.6338 78.5966 57.6565 78.6392 57.6973L82.7628 61.9718C82.8036 62.0144 82.8263 62.0711 82.8263 62.13C82.8263 62.189 82.8036 62.2457 82.7628 62.2883C82.7208 62.329 82.6654 62.3532 82.607 62.3564Z"
    fill="white" />
  <path
    d="M86.57 60.2183C86.536 60.2183 86.5025 60.2104 86.472 60.1952C86.4416 60.18 86.4152 60.1579 86.3947 60.1307C82.5 55.1649 76.5702 47.6675 76.2538 47.3754C76.2301 47.3606 76.2097 47.3412 76.1938 47.3182C76.1779 47.2953 76.1669 47.2693 76.1614 47.242C76.156 47.2146 76.1562 47.1864 76.162 47.1591C76.1678 47.1318 76.1792 47.106 76.1954 47.0833C76.2117 47.058 76.2328 47.0362 76.2575 47.0191C76.2822 47.002 76.3101 46.99 76.3395 46.9836C76.3689 46.9773 76.3992 46.9768 76.4288 46.9822C76.4583 46.9876 76.4866 46.9988 76.5118 47.0151C76.7406 47.1515 83.0209 55.1211 86.7355 59.8581C86.7712 59.9047 86.7871 59.9636 86.7798 60.0218C86.7725 60.0801 86.7426 60.1332 86.6966 60.1697C86.6601 60.198 86.6161 60.215 86.57 60.2183Z"
    fill="white" />
  <path
    d="M77.6025 66.1583C77.5551 66.1579 77.5091 66.1426 77.471 66.1145L73.4253 63.1301C73.3986 63.1142 73.3755 63.0928 73.3574 63.0674C73.3394 63.042 73.3269 63.0131 73.3207 62.9826C73.3145 62.952 73.3147 62.9206 73.3213 62.8901C73.3279 62.8597 73.3408 62.831 73.3592 62.8058C73.3776 62.7806 73.401 62.7596 73.4279 62.744C73.4549 62.7284 73.4848 62.7186 73.5158 62.7152C73.5468 62.7118 73.5781 62.7149 73.6078 62.7243C73.6375 62.7337 73.6649 62.7492 73.6882 62.7699L77.7583 65.7542C77.7972 65.7811 77.8263 65.8199 77.8414 65.8647C77.8565 65.9095 77.8566 65.958 77.8418 66.003C77.827 66.0479 77.7981 66.0868 77.7593 66.1139C77.7206 66.1411 77.6741 66.1549 77.6268 66.1534L77.6025 66.1583Z"
    fill="white" />
  <path
    d="M88.4149 52.8875C88.3777 52.8879 88.341 52.8793 88.3079 52.8623C88.2748 52.8453 88.2463 52.8206 88.225 52.7901L82.7237 44.4067C82.7074 44.3825 82.6961 44.3553 82.6904 44.3266C82.6848 44.298 82.6849 44.2686 82.6908 44.24C82.6967 44.2114 82.7082 44.1843 82.7247 44.1603C82.7413 44.1362 82.7624 44.1157 82.7869 44.1C82.8109 44.083 82.8381 44.0711 82.8669 44.0651C82.8956 44.0591 82.9253 44.059 82.9541 44.065C82.9828 44.0709 83.01 44.0827 83.0341 44.0996C83.0581 44.1165 83.0784 44.1382 83.0937 44.1632L88.5999 52.5272C88.6162 52.5514 88.6275 52.5786 88.6331 52.6072C88.6387 52.6359 88.6386 52.6653 88.6327 52.6939C88.6268 52.7225 88.6153 52.7496 88.5988 52.7736C88.5823 52.7977 88.5611 52.8182 88.5366 52.8339C88.5022 52.8634 88.4598 52.8821 88.4149 52.8875Z"
    fill="white" />
  <path
    d="M75.7475 4.7334L60.5969 12.6057L70.0417 24.7329C70.6746 24.4068 71.3805 24.4116 71.6142 24.7329L72.6609 26.1935C72.7485 26.3152 72.9871 26.3444 73.25 26.247C73.4415 26.1873 73.6109 26.0721 73.7368 25.916C73.7671 25.8781 73.7863 25.8326 73.7923 25.7845C73.7983 25.7363 73.7909 25.6875 73.7709 25.6433L72.1741 23.175C72.1474 23.1247 72.1355 23.0677 72.1398 23.0109C72.1441 22.954 72.1644 22.8995 72.1984 22.8537C72.2872 22.716 72.4117 22.6049 72.5587 22.5324C72.8946 22.362 73.2549 22.3717 73.3668 22.5324L73.5859 22.8829L74.3989 24.2899C74.5158 24.4895 74.9247 24.4993 75.2899 24.2899C75.4353 24.2134 75.5617 24.1053 75.6599 23.9735C75.7005 23.9268 75.7274 23.8699 75.7377 23.8089C75.7481 23.7479 75.7413 23.6852 75.7183 23.6278L74.2188 20.7846C74.194 20.7268 74.185 20.6635 74.1927 20.601C74.2004 20.5386 74.2245 20.4793 74.2626 20.4292C74.3892 20.2409 74.5738 20.099 74.7884 20.0252C75.1 19.9132 75.3775 19.9813 75.4651 20.1615L77.3541 24.1439C77.4417 24.3289 77.7874 24.3289 78.1282 24.1439C78.469 23.9686 78.688 23.657 78.615 23.4915L77.4174 20.5948C77.3987 20.5361 77.3951 20.4736 77.407 20.4132C77.4189 20.3527 77.4459 20.2963 77.4855 20.2491C77.5849 20.1104 77.7171 19.9983 77.8701 19.9229C78.2012 19.7525 78.5274 19.7817 78.6053 19.9813L78.7075 20.2394L79.3453 21.992C79.4086 22.1575 79.6471 22.3231 80.1194 22.1089C80.8691 21.7681 80.7717 21.3786 80.7425 21.2764L80.2557 19.4458L75.7475 4.7334Z"
    fill="white" />
  <path
    d="M75.7472 4.73207L80.2408 19.4494L80.7277 21.2799C80.7569 21.3821 80.8542 21.7667 80.1045 22.1124C79.9802 22.1746 79.8441 22.2094 79.7053 22.2146C79.6277 22.2223 79.5497 22.2052 79.4823 22.1659C79.415 22.1265 79.3619 22.0669 79.3304 21.9955L78.6927 20.2429L78.5904 19.9849C78.5609 19.9269 78.5142 19.8794 78.4567 19.8489C78.3992 19.8184 78.3337 19.8064 78.2691 19.8145C78.1246 19.8206 77.9832 19.8589 77.8553 19.9265C77.7022 20.0019 77.5701 20.1139 77.4707 20.2526C77.4311 20.2998 77.4041 20.3563 77.3921 20.4167C77.3802 20.4771 77.3838 20.5396 77.4025 20.5983L78.6002 23.495C78.6781 23.68 78.459 23.9819 78.1133 24.1474C77.9635 24.2286 77.7968 24.2737 77.6265 24.2788C77.5687 24.2859 77.51 24.2764 77.4575 24.2514C77.4049 24.2264 77.3605 24.187 77.3295 24.1377L75.4405 20.1553C75.3999 20.0915 75.3426 20.0401 75.2748 20.0066C75.2069 19.9732 75.1313 19.9589 75.0559 19.9654C74.9564 19.9682 74.8579 19.9863 74.7638 20.019C74.5492 20.0928 74.3646 20.2347 74.238 20.423C74.1999 20.4731 74.1758 20.5324 74.1681 20.5948C74.1604 20.6573 74.1694 20.7206 74.1942 20.7784L75.6937 23.6216C75.7167 23.679 75.7235 23.7417 75.7132 23.8027C75.7028 23.8637 75.6759 23.9206 75.6353 23.9673C75.5371 24.0991 75.4107 24.2072 75.2653 24.2837C75.1045 24.3745 74.924 24.4246 74.7395 24.4298C74.6756 24.4342 74.6116 24.4237 74.5525 24.3992C74.4934 24.3747 74.4407 24.3369 74.3987 24.2886L73.5759 22.9011L73.3568 22.5506C73.3173 22.4991 73.2651 22.4587 73.2055 22.4331C73.1458 22.4075 73.0806 22.3977 73.0161 22.4045C72.8463 22.405 72.6792 22.4468 72.5292 22.5262C72.3823 22.5987 72.2577 22.7098 72.1689 22.8475C72.1349 22.8933 72.1146 22.9478 72.1103 23.0047C72.106 23.0615 72.1179 23.1185 72.1446 23.1688L73.7414 25.6371C73.7615 25.6813 73.7689 25.7301 73.7629 25.7783C73.7569 25.8264 73.7376 25.8719 73.7074 25.9098C73.5815 26.0659 73.412 26.1811 73.2205 26.2408C73.1256 26.2771 73.0252 26.2969 72.9236 26.2992C72.8695 26.3049 72.8149 26.2977 72.7641 26.2782C72.7134 26.2587 72.6679 26.2276 72.6314 26.1873L71.5847 24.7267C71.5043 24.6398 71.405 24.5726 71.2943 24.5304C71.1837 24.4882 71.0648 24.4721 70.947 24.4833C70.6209 24.4921 70.3012 24.5753 70.0122 24.7267L60.5967 12.6043L75.7472 4.75154V4.73207ZM75.7472 4.30851C75.6762 4.30791 75.606 4.32462 75.5428 4.3572L60.3922 12.1856C60.3358 12.2181 60.2865 12.2616 60.2472 12.3134C60.2079 12.3652 60.1794 12.4244 60.1634 12.4875C60.1486 12.5514 60.1483 12.6179 60.1627 12.6819C60.177 12.7459 60.2055 12.806 60.2461 12.8575L69.6909 24.9848C69.7322 25.0386 69.7853 25.0824 69.846 25.1128C69.9067 25.1431 69.9735 25.1593 70.0414 25.16C70.113 25.1595 70.1833 25.1411 70.2459 25.1065C70.4715 24.9873 70.7212 24.9207 70.9762 24.9117C71.0731 24.9014 71.1708 24.9236 71.2537 24.975L72.3004 26.4356C72.3764 26.5304 72.4739 26.6059 72.5847 26.6559C72.6956 26.7058 72.8167 26.7287 72.9382 26.7228C73.0926 26.7205 73.2456 26.6926 73.3909 26.64C73.6601 26.549 73.8958 26.3795 74.0676 26.1532C74.1505 26.0446 74.1986 25.9135 74.2055 25.7771C74.2125 25.6406 74.178 25.5053 74.1066 25.3889L72.5779 23.0277C72.624 22.985 72.6746 22.9474 72.7288 22.9157C72.8103 22.8738 72.9001 22.8505 72.9917 22.8475L73.1767 23.1348L73.9946 24.5125C74.0758 24.6337 74.1872 24.7316 74.3179 24.7965C74.4485 24.8614 74.5938 24.8911 74.7395 24.8825C74.999 24.8795 75.2536 24.8108 75.4795 24.6829C75.6891 24.5751 75.8695 24.418 76.0053 24.2253C76.0928 24.1135 76.147 23.9792 76.1616 23.838C76.1763 23.6968 76.1508 23.5543 76.088 23.4269L74.6275 20.6567C74.7022 20.5598 74.8038 20.487 74.9196 20.4474C74.9645 20.4291 75.0123 20.4192 75.0608 20.4182L76.9205 24.3373C76.986 24.4644 77.0873 24.5696 77.2119 24.6397C77.3365 24.7098 77.479 24.7417 77.6216 24.7316C77.8598 24.7258 78.0933 24.6641 78.3032 24.5515C78.8777 24.2545 79.1698 23.7433 78.9945 23.3295L77.8261 20.5058C77.8846 20.4301 77.9595 20.3685 78.0452 20.3257C78.0963 20.3001 78.1502 20.2805 78.2058 20.2673L78.2642 20.4133L78.902 22.1513C78.9682 22.3032 79.0792 22.4311 79.2202 22.5182C79.3611 22.6052 79.5253 22.647 79.6907 22.6382C79.8935 22.635 80.093 22.5868 80.2749 22.497C81.3167 22.0102 81.1999 21.3286 81.1366 21.129L80.6498 19.313L76.1611 4.58114C76.1327 4.48999 76.0758 4.41041 75.9986 4.35427C75.9214 4.29812 75.8281 4.26841 75.7326 4.26956L75.7472 4.30851Z"
    fill="#231F20" />
  <path
    d="M80.0172 19.635H79.9782L70.2413 17.9846C70.2078 17.9793 70.176 17.9665 70.1481 17.9471C70.1203 17.9277 70.0972 17.9022 70.0807 17.8726C70.0676 17.8418 70.0608 17.8087 70.0608 17.7752C70.0608 17.7418 70.0676 17.7086 70.0807 17.6779L75.3727 5.0394C75.4 4.99173 75.4439 4.95576 75.4959 4.93833C75.548 4.9209 75.6047 4.92323 75.6552 4.94486C75.7057 4.9665 75.7465 5.00595 75.7698 5.05569C75.7931 5.10544 75.7973 5.16201 75.7816 5.21466L70.5724 17.5854L80.0512 19.1919C80.1046 19.2029 80.1522 19.233 80.185 19.2766C80.2178 19.3201 80.2336 19.3741 80.2294 19.4285C80.2252 19.4828 80.2014 19.5338 80.1623 19.5718C80.1232 19.6098 80.0716 19.6323 80.0172 19.635Z"
    fill="#231F20" />
  <path
    d="M71.4388 15.1802H71.3902L60.5482 12.7995C60.5164 12.7966 60.4857 12.787 60.4579 12.7713C60.4302 12.7556 60.4062 12.7341 60.3874 12.7083C60.3687 12.6826 60.3556 12.6531 60.3491 12.6219C60.3427 12.5907 60.3429 12.5585 60.3499 12.5274C60.3569 12.4963 60.3705 12.4671 60.3897 12.4416C60.4088 12.4162 60.4332 12.3951 60.4612 12.3799C60.4892 12.3646 60.5201 12.3555 60.5519 12.3532C60.5837 12.3508 60.6156 12.3553 60.6455 12.3662L71.4778 14.742C71.5349 14.7549 71.5848 14.7896 71.6166 14.8387C71.6485 14.8879 71.6598 14.9475 71.6482 15.0049C71.6375 15.0531 71.6112 15.0964 71.5733 15.1281C71.5354 15.1598 71.4882 15.1781 71.4388 15.1802Z"
    fill="#231F20" />
  <path
    d="M70.0416 24.9369C70.0112 24.9438 69.9796 24.9438 69.9491 24.9369C69.8957 24.9116 69.8544 24.8661 69.8343 24.8105C69.8143 24.7548 69.817 24.6935 69.842 24.6399L72.9383 18.1551C72.9504 18.1288 72.9675 18.1052 72.9888 18.0856C73.01 18.0659 73.0349 18.0507 73.0621 18.0407C73.0892 18.0308 73.1181 18.0263 73.147 18.0275C73.1759 18.0288 73.2042 18.0358 73.2304 18.048C73.2839 18.0734 73.3252 18.1188 73.3452 18.1744C73.3653 18.2301 73.3625 18.2914 73.3375 18.345L70.2315 24.8103C70.2145 24.8468 70.1878 24.8779 70.1543 24.9003C70.1208 24.9226 70.0818 24.9353 70.0416 24.9369Z"
    fill="#231F20" />
  <path
    d="M30.8553 127.539L36.1862 118.027C36.1862 118.027 15.7388 103.626 15.3639 103.421C14.989 103.217 1.18701 127.423 1.18701 127.423L2.24346 127.535L30.8553 127.539Z"
    fill="#231F20" />
  <path
    d="M30.8555 127.782H2.24371L1.15804 127.67C1.11799 127.666 1.07967 127.652 1.04653 127.629C1.01339 127.606 0.986466 127.575 0.968174 127.539C0.948996 127.503 0.938965 127.463 0.938965 127.422C0.938965 127.381 0.948996 127.341 0.968174 127.305C1.00225 127.247 4.45885 121.186 7.91544 115.227C15.0331 102.968 15.1743 103.056 15.4713 103.211C15.851 103.411 34.2293 116.356 36.3228 117.817C36.3727 117.85 36.4079 117.902 36.4215 117.961C36.435 118.019 36.4258 118.081 36.3958 118.133L31.0405 127.651C31.0234 127.687 30.9974 127.718 30.965 127.741C30.9327 127.764 30.895 127.778 30.8555 127.782ZM1.5816 127.222L2.26805 127.3H30.7095L35.87 118.104C29.1418 113.367 16.8831 104.75 15.3885 103.737C14.298 105.105 6.72754 118.25 1.5816 127.222Z"
    fill="#231F20" />
  <path
    d="M124.159 127.539L125.216 127.427C125.216 127.427 114.276 102.111 113.897 102.326C113.517 102.54 91.0928 116.376 91.0928 116.376L95.9223 127.539H124.159Z"
    fill="#231F20" />
  <path
    d="M124.159 127.782H95.9222C95.8748 127.782 95.8286 127.768 95.7889 127.742C95.7492 127.716 95.7178 127.679 95.6983 127.636L90.8688 116.473C90.8469 116.418 90.8447 116.358 90.8625 116.302C90.8802 116.246 90.9169 116.198 90.9661 116.166C91.8814 115.601 113.4 102.31 113.785 102.111C113.817 102.096 113.851 102.089 113.887 102.089C113.922 102.089 113.957 102.096 113.989 102.111C114.515 102.296 120.508 115.932 125.44 127.344C125.457 127.378 125.467 127.415 125.467 127.454C125.467 127.492 125.457 127.529 125.44 127.563C125.42 127.596 125.393 127.625 125.361 127.646C125.329 127.667 125.293 127.68 125.255 127.685L124.193 127.797L124.159 127.782ZM96.078 127.295H124.145L124.865 127.222C120.815 117.87 114.797 104.19 113.843 102.637C112.178 103.644 98.7751 111.916 91.3994 116.473L96.078 127.295Z"
    fill="#231F20" />
</svg>