<svg width="131" height="136" viewBox="0 0 131 136" fill="none" xmlns="http://www.w3.org/2000/svg">
  <path
    d="M130.05 34.6187V110.121C130.05 112.123 129.257 114.043 127.844 115.461C126.431 116.879 124.513 117.679 122.511 117.687H37.938C35.9323 117.685 34.0093 116.887 32.5915 115.469C31.1738 114.05 30.3774 112.126 30.3774 110.121V34.6187C30.376 33.6252 30.5706 32.6411 30.9499 31.7229C31.3293 30.8047 31.8861 29.9703 32.5883 29.2675C33.2906 28.5647 34.1246 28.0073 35.0426 27.6273C35.9605 27.2473 36.9444 27.052 37.938 27.0527H122.511C124.514 27.0585 126.432 27.8583 127.845 29.2768C129.259 30.6952 130.052 32.6163 130.05 34.6187Z"
    fill="white" />
  <path
    d="M122.511 27.0523C123.505 27.0516 124.489 27.2468 125.408 27.6268C126.326 28.0068 127.16 28.564 127.863 29.2667C128.566 29.9694 129.123 30.8038 129.503 31.7221C129.883 32.6403 130.078 33.6245 130.077 34.6183V110.12C130.077 112.127 129.28 114.051 127.861 115.47C126.443 116.889 124.518 117.686 122.511 117.686H37.938C35.9324 117.685 34.0093 116.887 32.5916 115.468C31.1739 114.049 30.3775 112.126 30.3775 110.12V34.6183C30.3761 33.6248 30.5706 32.6407 30.95 31.7225C31.3294 30.8042 31.8861 29.9698 32.5884 29.2671C33.2907 28.5643 34.1247 28.0069 35.0426 27.6269C35.9606 27.2469 36.9445 27.0516 37.938 27.0523H122.511ZM122.511 26.5088H37.938C35.7886 26.5117 33.7282 27.3672 32.2089 28.8875C30.6895 30.4079 29.8354 32.4689 29.834 34.6183V110.12C29.8354 112.27 30.6895 114.331 32.2089 115.851C33.7282 117.371 35.7886 118.227 37.938 118.23H122.511C124.662 118.228 126.724 117.373 128.244 115.853C129.765 114.332 130.62 112.271 130.621 110.12V34.6183C130.62 32.4679 129.765 30.4061 128.244 28.8856C126.724 27.3651 124.662 26.5102 122.511 26.5088Z"
    fill="#231F20" />
  <path
    d="M130.05 34.6187V38.6517H30.3774V34.6187C30.376 33.6252 30.5706 32.6411 30.9499 31.7229C31.3293 30.8047 31.8861 29.9703 32.5883 29.2675C33.2906 28.5647 34.1246 28.0073 35.0426 27.6273C35.9605 27.2473 36.9444 27.052 37.938 27.0527H122.511C124.514 27.0585 126.432 27.8583 127.845 29.2768C129.259 30.6952 130.052 32.6163 130.05 34.6187Z"
    fill="#E6E7E8" />
  <path
    d="M72.9904 74.1168C71.2185 74.1168 69.5009 74.1168 67.7833 74.1168C67.0441 74.1168 66.7343 73.7037 66.8485 72.9754L69.7346 54.7345L70.876 47.3696C71.0119 46.4891 71.4794 46.0054 72.3381 46.0108C76.2026 46.0108 80.0672 46.0108 83.9208 46.1902C85.2853 46.3275 86.6028 46.7636 87.7799 47.4675C89.8181 48.5871 90.579 50.571 90.3508 52.7941C90.2112 54.3676 89.845 55.9126 89.2637 57.3815C87.7636 61.0503 84.7035 62.5504 80.9314 62.8168C79.7193 62.9037 78.4963 62.8168 77.2788 62.844C75.2841 62.844 74.7623 63.2951 74.4416 65.2518C74.0013 67.9694 73.5774 70.6871 73.1426 73.4048C73.1045 73.633 73.0502 73.8559 72.9904 74.1168Z"
    fill="#C4D7D1" />
  <path
    d="M91.6606 54.501C92.2123 54.9068 92.6675 55.4296 92.9935 56.0319C93.3196 56.6342 93.5085 57.3012 93.5467 57.985C93.8511 60.7027 92.7803 65.4749 89.2745 67.4642C87.4608 68.4261 85.4295 68.9035 83.3772 68.8502C81.7901 68.8502 81.5183 69.0785 81.2629 70.6438C80.9639 72.4429 80.6867 74.2475 80.4259 76.0465C80.2356 77.3184 79.8823 77.6228 78.6159 77.6282C77.4256 77.6282 76.2352 77.6282 75.0449 77.6282C74.1372 77.6282 73.8872 77.3619 74.023 76.4922C74.6155 72.6875 75.2243 68.8828 75.8221 65.0781C75.92 64.4639 76.2624 64.2845 76.8657 64.2628C78.8977 64.271 80.9278 64.1421 82.9424 63.8769C87.6711 63.029 90.2964 59.9363 91.3671 55.3815C91.416 55.175 91.465 54.9684 91.5193 54.7673C91.5571 54.6739 91.6045 54.5846 91.6606 54.501Z"
    fill="#C4D7D1" />
  <path d="M64.7448 85.9326H38.5085V105.755H64.7448V85.9326Z" fill="#C4D7D1" />
  <path d="M93.329 85.9326H67.0928V105.755H93.329V85.9326Z" fill="#C4D7D1" />
  <path d="M121.913 85.9326H95.6772V105.755H121.913V85.9326Z" fill="#C4D7D1" />
  <path
    d="M4.0542 126.176L4.71187 121.828L8.71226 123.274C8.71226 123.274 8.38614 128.003 9.25579 129.644C10.1254 131.286 11.4897 133.324 11.4897 133.324C11.4897 133.324 8.272 134.373 6.43487 133.324C4.59773 132.275 4.0542 126.176 4.0542 126.176Z"
    fill="white" />
  <path
    d="M8.55452 134.073C7.76636 134.103 6.98392 133.929 6.28257 133.568C4.34216 132.481 3.80406 126.453 3.78232 126.198C3.77959 126.176 3.77959 126.154 3.78232 126.132L4.43999 121.784C4.44569 121.744 4.46038 121.705 4.48296 121.672C4.50554 121.638 4.53543 121.609 4.57044 121.589C4.6064 121.573 4.64528 121.564 4.68458 121.564C4.72389 121.564 4.76276 121.573 4.79872 121.589L8.80455 123.034C8.85979 123.054 8.90711 123.091 8.93944 123.14C8.97177 123.189 8.98737 123.247 8.98391 123.306C8.98391 123.355 8.6741 127.98 9.47853 129.535C10.283 131.089 11.6853 133.166 11.6961 133.187C11.7203 133.222 11.7359 133.262 11.7417 133.303C11.7475 133.345 11.7433 133.388 11.7295 133.427C11.7158 133.467 11.6927 133.503 11.6624 133.532C11.632 133.561 11.5951 133.583 11.5548 133.595C10.5828 133.897 9.57237 134.059 8.55452 134.073ZM4.32585 126.181C4.4726 127.866 5.15202 132.296 6.54889 133.095C7.94577 133.894 10.1797 133.399 11.0385 133.171C10.6199 132.535 9.65246 131.035 9.00022 129.78C8.2121 128.269 8.37516 124.415 8.45669 123.469L4.95635 122.208L4.32585 126.181Z"
    fill="#231F20" />
  <path
    d="M27.04 123.829V127.334C27.04 127.334 30.8448 130.693 33.0189 130.275C33.0189 130.275 31.6383 128.275 31.6981 127.014C31.7579 125.753 31.6981 123.796 31.6981 123.796L27.04 123.829Z"
    fill="white" />
  <path
    d="M32.6113 130.595C30.3121 130.595 27.0075 127.687 26.8607 127.557C26.8319 127.53 26.8088 127.499 26.7929 127.463C26.777 127.427 26.7687 127.389 26.7683 127.35V123.823C26.7697 123.751 26.7988 123.683 26.8494 123.632C26.9001 123.581 26.9684 123.552 27.0401 123.551H31.6818C31.7526 123.552 31.8201 123.58 31.8706 123.63C31.9211 123.679 31.9508 123.746 31.9536 123.817C31.9536 123.817 32.0134 125.812 31.9536 127.078C31.9047 128.024 32.8559 129.622 33.2255 130.155C33.2521 130.192 33.2686 130.236 33.2734 130.282C33.2782 130.327 33.271 130.373 33.2526 130.416C33.2358 130.457 33.2092 130.493 33.1751 130.521C33.141 130.55 33.1004 130.57 33.057 130.579C32.9092 130.598 32.76 130.603 32.6113 130.595ZM27.3118 127.225C27.8554 127.687 30.6491 130.003 32.5297 130.057C32.1167 129.388 31.3611 128.019 31.4101 127.029C31.459 126.04 31.4101 124.676 31.4101 124.094H27.3064L27.3118 127.225Z"
    fill="#231F20" />
  <path
    d="M4.05418 126.176C4.05418 126.176 2.08117 127.355 1.42349 129.127C1.0103 130.444 0.812083 131.818 0.836479 133.198L2.08117 133.595C2.08117 133.595 2.73884 131.231 3.26606 130.703C3.26606 130.703 4.44553 134.709 5.63042 135.302C6.81532 135.894 14.6911 135.628 15.0172 135.302C15.3433 134.976 11.4734 132.41 11.4734 132.41C11.4734 132.41 9.17425 133.465 7.27189 132.28C5.36953 131.095 4.05418 126.176 4.05418 126.176Z"
    fill="#231F20" />
  <path
    d="M10.2723 135.933C8.14708 135.933 6.02731 135.802 5.50552 135.547C4.49455 135.041 3.56511 132.508 3.1792 131.34C2.84141 132.093 2.56159 132.87 2.34217 133.666C2.3332 133.702 2.31698 133.735 2.29453 133.764C2.27208 133.793 2.24389 133.817 2.21172 133.834C2.14363 133.861 2.06783 133.861 1.99974 133.834L0.760492 133.459C0.705926 133.444 0.657846 133.411 0.623523 133.366C0.589199 133.321 0.5705 133.266 0.570257 133.209C0.54021 131.794 0.745936 130.383 1.17901 129.035C1.85842 127.193 3.83688 125.991 3.89666 125.942C3.93377 125.924 3.97472 125.914 4.01624 125.914C4.05777 125.914 4.09872 125.924 4.13582 125.942C4.17541 125.959 4.21073 125.984 4.23902 126.016C4.2673 126.048 4.28779 126.086 4.29888 126.127C4.29888 126.176 5.60879 130.959 7.39701 132.073C9.18522 133.188 11.3213 132.198 11.343 132.188C11.3827 132.165 11.4277 132.153 11.4735 132.153C11.5193 132.153 11.5643 132.165 11.6039 132.188C13.2345 133.275 15.2402 134.693 15.2945 135.215C15.2998 135.266 15.2938 135.317 15.2769 135.365C15.2599 135.413 15.2325 135.456 15.1967 135.492C14.9249 135.78 12.5932 135.933 10.2723 135.933ZM3.26617 130.432H3.3314C3.37725 130.443 3.4194 130.466 3.45371 130.498C3.48802 130.531 3.5133 130.572 3.52706 130.617C3.84231 131.704 4.86959 134.606 5.75011 135.047C6.72846 135.536 13.2889 135.384 14.6586 135.128C13.6515 134.241 12.5776 133.432 11.4463 132.709C10.9028 132.927 8.87541 133.59 7.09807 132.503C5.32072 131.416 4.21735 127.78 3.86405 126.6C2.89957 127.251 2.13394 128.156 1.65188 129.214C1.26422 130.436 1.06983 131.711 1.07574 132.992L1.8693 133.242C2.0704 132.573 2.58132 130.97 3.04332 130.524C3.0711 130.493 3.10558 130.469 3.14417 130.453C3.18276 130.437 3.22446 130.43 3.26617 130.432Z"
    fill="#231F20" />
  <path
    d="M8.91342 60.8488C8.91342 60.8488 9.93526 89.9494 8.91342 93.4226C7.89158 96.8958 4.07056 124.665 4.07056 124.665L9.93526 126.719C9.93526 126.719 18.3709 97.5045 20.3819 92.6073C22.393 87.7101 24.0181 74.2305 24.0181 74.2305C24.0181 74.2305 25.2357 86.6828 25.3444 90.9713C25.4531 95.2597 25.3444 123.844 25.3444 123.844C25.3444 123.844 29.1165 125.888 32.5951 124.257C32.5951 124.257 35.4921 78.9701 37.0955 68.7137C38.6989 58.4572 34.0246 49.3477 34.0246 49.3477L8.91342 60.8488Z"
    fill="#231F20" />
  <path
    d="M9.91876 126.992C9.89 126.997 9.86055 126.997 9.8318 126.992L3.96166 124.937C3.90308 124.915 3.8535 124.875 3.82094 124.822C3.78839 124.768 3.77477 124.706 3.78229 124.644C3.93992 123.508 7.62506 96.8148 8.63602 93.3634C9.64699 89.9119 8.63602 61.1646 8.63602 60.8765C8.63476 60.8225 8.6496 60.7694 8.67864 60.7239C8.70768 60.6784 8.74961 60.6426 8.79909 60.621L33.9157 49.1036C33.9797 49.0757 34.0517 49.0725 34.118 49.0946C34.1842 49.1167 34.2399 49.1625 34.2744 49.2232C34.3179 49.3156 38.9651 58.5393 37.3671 68.7577C35.7854 78.8783 32.8993 123.823 32.8721 124.274C32.8667 124.322 32.8494 124.368 32.8219 124.408C32.7944 124.448 32.7575 124.48 32.7144 124.502C29.1489 126.176 25.3768 124.171 25.2192 124.084C25.1759 124.061 25.1398 124.026 25.1149 123.984C25.0899 123.942 25.0771 123.894 25.0778 123.845C25.0778 123.562 25.1866 95.2168 25.0778 90.9773C24.9963 87.9009 24.3386 80.4925 23.9908 76.6552C23.4473 80.7643 22.1536 89.0368 20.6481 92.7111C18.6696 97.5377 10.321 126.502 10.2123 126.796C10.2017 126.831 10.1842 126.863 10.1609 126.891C10.1376 126.919 10.1088 126.942 10.0764 126.959C10.0289 126.987 9.97346 126.998 9.91876 126.992ZM4.353 124.481L9.73939 126.367C10.6036 123.372 18.2239 97.1083 20.1154 92.5046C22.0884 87.6943 23.7136 74.3289 23.7299 74.1985C23.739 74.1326 23.7715 74.0723 23.8213 74.0284C23.8712 73.9845 23.9352 73.96 24.0016 73.9593C24.0683 73.9603 24.1323 73.9858 24.1814 74.0309C24.2305 74.076 24.2613 74.1375 24.268 74.2039C24.268 74.3289 25.4855 86.7051 25.5942 90.9664C25.6975 95.0374 25.5942 121.306 25.5942 123.682C26.2899 124.013 29.3989 125.345 32.3122 124.073C32.5025 121.078 35.2636 78.5141 36.8018 68.6762C38.2313 59.5285 34.5733 51.1962 33.8776 49.7069L9.17956 61.0233C9.27196 63.7083 10.1525 90.1293 9.17956 93.4992C8.2012 96.7496 4.71717 121.85 4.353 124.481Z"
    fill="#231F20" />
  <path
    d="M25.7627 22.1224C25.7627 22.1224 32.4372 47.7227 31.9318 53.881L18.9359 55.7453C18.9359 55.7453 13.5006 32.3463 13.3158 27.4545C13.131 22.5627 17.8652 18.7852 17.8652 18.7852L25.7627 22.1224Z"
    fill="#231F20" />
  <path
    d="M18.9199 56.017C18.858 56.0173 18.7978 55.9964 18.7494 55.9578C18.701 55.9193 18.6672 55.8654 18.6535 55.805C18.4307 54.8484 13.2182 32.3245 13.0226 27.4599C12.8541 22.4865 17.4795 18.7307 17.6752 18.5731C17.713 18.5432 17.7582 18.524 17.8059 18.5173C17.8537 18.5106 17.9024 18.5167 17.947 18.5351L25.8499 21.8887C25.8878 21.9064 25.9215 21.9321 25.9487 21.964C25.9759 21.9959 25.996 22.0332 26.0075 22.0735C26.2793 23.1225 32.6821 47.7933 32.182 53.9244C32.1758 53.9859 32.1495 54.0436 32.1073 54.0888C32.0651 54.1339 32.0093 54.164 31.9483 54.1744L18.9579 56.0333L18.9199 56.017ZM17.8926 19.1003C17.1643 19.7308 13.4193 23.1823 13.5443 27.4435C13.702 31.9875 18.5231 52.9352 19.1047 55.4408L31.6059 53.6417C31.9211 47.4781 25.9695 24.2911 25.464 22.318L17.8926 19.1003Z"
    fill="#231F20" />
  <path d="M32.6112 27.4541L36.7692 42.1892L32.0731 46.7549L28.926 29.0195L32.6112 27.4541Z" fill="white" />
  <path
    d="M32.0733 47.0274H31.9918C31.9446 47.0122 31.9024 46.9845 31.8698 46.9471C31.8373 46.9098 31.8155 46.8642 31.807 46.8154L28.66 29.08C28.6486 29.0197 28.658 28.9573 28.6866 28.903C28.7153 28.8487 28.7614 28.8057 28.8176 28.781L32.5027 27.2157C32.5373 27.1984 32.5755 27.1895 32.6141 27.1895C32.6528 27.1895 32.6909 27.1984 32.7256 27.2157C32.7608 27.2314 32.7921 27.2547 32.8175 27.2838C32.8428 27.3129 32.8615 27.3471 32.8723 27.3842L37.0358 42.1247C37.0494 42.1718 37.0494 42.2217 37.036 42.2688C37.0225 42.3159 36.9961 42.3583 36.9597 42.391L32.2636 46.9567C32.2117 47.0039 32.1435 47.0293 32.0733 47.0274ZM29.2307 29.1832L32.2527 46.2066L36.4651 42.1084L32.4321 27.8244L29.2307 29.1832Z"
    fill="#231F20" />
  <path
    d="M26.5944 24.639C26.5944 24.639 29.6762 66.4419 29.5023 68.7139C29.5023 68.7139 39.3239 67.8279 39.5739 66.692C39.8239 65.556 31.7416 42.4994 31.5351 38.3631C31.3285 34.2269 31.4861 32.4604 31.372 29.8677L34.3288 29.1448C34.3288 29.1448 33.1385 23.166 30.5621 20.769C27.9858 18.3721 23.7734 18.421 23.7734 18.421"
    fill="#C4D7D1" />
  <path
    d="M16.1804 25.042C16.1804 25.042 21.3656 34.3364 22.931 39.4619C24.4964 44.5874 24.9095 69.7203 24.9095 69.7203H7.19035C7.19035 69.7203 9.66885 52.1642 8.75572 47.3214C7.84259 42.4785 5.71194 36.0268 8.57635 28.787C11.4408 21.5471 13.8867 21.7211 13.8867 21.7211L16.1804 25.042Z"
    fill="#C4D7D1" />
  <path
    d="M29.9263 44.7174C29.8719 44.9239 28.2196 49.7233 33.2962 48.0383C38.3728 46.3534 40.1229 33.2543 41.1937 31.7324C42.2644 30.2105 44.0744 24.8948 43.9113 23.7751C43.7483 22.6554 40.7915 25.6938 40.7915 25.6938C40.7915 25.6938 31.0568 40.5756 29.9263 44.7174Z"
    fill="white" />
  <path
    d="M31.4534 48.6635C31.1773 48.6776 30.9011 48.6368 30.6408 48.5435C30.3805 48.4502 30.1413 48.3063 29.9369 48.12C29.0401 47.2394 29.3934 45.5762 29.6543 44.6577L29.9261 44.6957L29.6652 44.6251C30.7903 40.4942 40.1662 26.107 40.5358 25.4982C41.2913 24.7101 43.0578 22.998 43.797 23.2317C43.891 23.2673 43.9733 23.3284 44.0348 23.408C44.0962 23.4877 44.1343 23.5828 44.1449 23.6828C44.3351 24.9655 42.4327 30.3411 41.3946 31.8358C41.1283 32.2163 40.7641 33.5751 40.3456 35.1513C39.0846 39.8692 37.1877 47.0003 33.3558 48.2722C32.7456 48.5 32.1039 48.632 31.4534 48.6635ZM43.6068 23.7752C43.2806 23.7752 42.0794 24.721 40.9869 25.8515C40.9217 25.9602 31.2903 40.7334 30.1924 44.7827C30.1924 44.7827 30.1924 44.8316 30.1924 44.837C29.9967 45.4784 29.6163 47.0438 30.3337 47.7504C30.8338 48.2395 31.8067 48.245 33.2307 47.7504C36.78 46.5709 38.7095 39.3311 39.8618 35.0046C40.3293 33.249 40.6662 31.9825 40.9869 31.5205C42.0196 30.0367 43.8079 24.8079 43.6557 23.7535L43.6068 23.7752Z"
    fill="#231F20" />
  <path d="M38.4653 16.6657L44.9441 15.9102L42.607 29.9224L35.6606 31.0747L38.4653 16.6657Z" fill="#231F20" />
  <path
    d="M35.655 31.3467C35.6194 31.3471 35.584 31.3401 35.5513 31.3261C35.5185 31.312 35.4891 31.2913 35.4648 31.2652C35.4334 31.2346 35.4101 31.1968 35.3968 31.1551C35.3835 31.1134 35.3808 31.0691 35.3887 31.026L38.1933 16.6116C38.2062 16.5552 38.236 16.5042 38.2787 16.4653C38.3215 16.4264 38.3752 16.4016 38.4325 16.3942L44.9168 15.6387C44.9589 15.6352 45.0013 15.6412 45.0408 15.6562C45.0803 15.6713 45.116 15.695 45.1451 15.7256C45.1725 15.7564 45.193 15.7927 45.2052 15.8321C45.2174 15.8715 45.221 15.913 45.2157 15.9539L42.8786 29.9661C42.8692 30.0218 42.8427 30.0732 42.8027 30.1132C42.7628 30.1531 42.7114 30.1796 42.6557 30.189L35.7039 31.3467H35.655ZM38.6934 16.9105L35.9757 30.7434L42.3513 29.6563L44.5961 16.1931L38.6934 16.9105Z"
    fill="#231F20" />
  <path
    d="M9.52759 40.3255C9.52759 40.3255 20.3004 55.0008 23.3713 53.8159C26.4423 52.631 34.7855 39.0428 36.8618 35.7C38.9381 32.3573 42.5145 27.4275 42.895 25.373C43.2754 23.3184 41.7318 22.1118 40.9709 22.5031C40.2099 22.8944 37.2368 24.9599 37.2368 24.9599C37.2368 24.9599 37.5684 22.1226 37.1172 22.1172C36.6661 22.1118 35.1388 24.0359 35.6986 28.096L23.2518 42.6029L16.925 33.5748"
    fill="white" />
  <path
    d="M23.0449 54.1468C19.4794 54.1468 10.4024 41.9337 9.33707 40.4824C9.31565 40.4539 9.30007 40.4214 9.29122 40.3868C9.28236 40.3523 9.2804 40.3163 9.28545 40.281C9.29049 40.2456 9.30245 40.2116 9.32063 40.1809C9.33882 40.1502 9.36287 40.1234 9.39142 40.102C9.45022 40.0607 9.52276 40.0438 9.59373 40.055C9.66471 40.0662 9.72859 40.1044 9.77189 40.1618C14.0549 45.9939 21.186 54.3642 23.3004 53.5598C25.2136 52.826 29.6271 46.9015 36.4158 35.9385L36.6549 35.5526C37.1985 34.6721 37.8398 33.6992 38.5193 32.6719C40.3292 29.9108 42.3838 26.7855 42.6501 25.3288C42.7592 24.8989 42.7457 24.447 42.6113 24.0243C42.4768 23.6017 42.2266 23.2251 41.8891 22.9373C41.7895 22.8409 41.6659 22.773 41.5311 22.7405C41.3964 22.708 41.2554 22.7121 41.1228 22.7525C40.3836 23.1275 37.4485 25.1657 37.4213 25.1875C37.3765 25.2154 37.3247 25.2302 37.2718 25.2302C37.219 25.2302 37.1672 25.2154 37.1224 25.1875C37.0772 25.1605 37.0408 25.121 37.0176 25.0737C36.9945 25.0264 36.9855 24.9734 36.9919 24.9212C37.1122 24.0932 37.1341 23.254 37.0572 22.4209C36.6441 22.7253 35.5081 24.4918 35.9973 28.0628C36.002 28.1015 35.9987 28.1409 35.9874 28.1783C35.9762 28.2157 35.9574 28.2504 35.932 28.2802L23.4852 42.7816C23.4604 42.8149 23.4272 42.841 23.389 42.8573C23.3508 42.8735 23.309 42.8793 23.2678 42.874C23.2258 42.8738 23.1845 42.8634 23.1475 42.8434C23.1105 42.8235 23.079 42.7948 23.0558 42.7598L16.7019 33.7264C16.6621 33.6671 16.6471 33.5945 16.6603 33.5243C16.6736 33.4542 16.7139 33.392 16.7726 33.3513C16.8013 33.3306 16.834 33.3158 16.8685 33.3079C16.9031 33.3 16.9389 33.299 16.9738 33.3051C17.0087 33.3111 17.0421 33.3241 17.0719 33.3433C17.1018 33.3624 17.1275 33.3873 17.1476 33.4165L23.2732 42.1728L35.4157 28.041C35.0352 25.0842 35.7472 23.0731 36.5027 22.247C36.731 21.9915 36.9376 21.8502 37.1387 21.8665C37.1937 21.867 37.2479 21.8794 37.2976 21.9029C37.3473 21.9263 37.3914 21.9603 37.4268 22.0024C37.7094 22.3231 37.6713 23.4862 37.5898 24.4211C38.4703 23.8178 40.2803 22.584 40.851 22.285C41.0739 22.1945 41.3176 22.1679 41.5547 22.2082C41.7919 22.2485 42.0131 22.3542 42.1935 22.5133C42.609 22.8614 42.9192 23.3184 43.0891 23.8331C43.2591 24.3477 43.2821 24.8996 43.1556 25.4266C42.8675 26.992 40.8673 30.0303 38.9378 32.9654C38.2638 33.9981 37.6279 34.9656 37.0843 35.8407L36.8452 36.2266C34.2906 40.3466 26.5181 52.8967 23.4634 54.0707C23.3289 54.1183 23.1876 54.144 23.0449 54.1468Z"
    fill="#231F20" />
  <path
    d="M31.5896 32.336C31.5216 32.3377 31.4556 32.3132 31.4051 32.2677C31.3546 32.2223 31.3234 32.1592 31.3178 32.0914C31.163 30.1133 30.7009 28.1713 29.9481 26.3355C29.9202 26.2697 29.9187 26.1956 29.944 26.1288C29.9693 26.0619 30.0195 26.0075 30.084 25.9767C30.116 25.9612 30.1509 25.9523 30.1864 25.9505C30.2219 25.9487 30.2575 25.9541 30.2909 25.9662C30.3244 25.9784 30.355 25.9971 30.3811 26.0213C30.4072 26.0455 30.4281 26.0747 30.4427 26.1072C31.2285 27.9975 31.7074 30.0012 31.8614 32.0425C31.8643 32.0782 31.8602 32.1142 31.8492 32.1483C31.8383 32.1824 31.8206 32.214 31.7974 32.2413C31.7742 32.2686 31.7458 32.291 31.7138 32.3073C31.6819 32.3235 31.6471 32.3333 31.6113 32.336H31.5896Z"
    fill="#231F20" />
  <path
    d="M26.8989 23.5575C25.9211 23.1982 24.8774 23.0536 23.8388 23.1336C20.4798 23.6173 16.8599 25.4599 14.115 22.2585C13.0239 20.8528 12.3937 19.1443 12.3105 17.3667C12.0659 14.4588 12.7345 11.3498 13.6095 8.5887C14.1966 6.73526 16.4794 -0.06975 19.4308 2.99033C18.7622 2.30005 22.1484 0.816206 22.605 0.723805C26.9532 -0.363257 30.7579 3.56104 31.5895 7.52882C32.2037 10.4095 32.1711 13.2468 33.4593 15.9753C34.0028 17.1765 34.7692 18.3723 34.7801 19.7039C34.7408 20.5058 34.4804 21.2811 34.0276 21.944C33.5748 22.6069 32.9473 23.1315 32.2146 23.4597C30.7282 24.0906 29.0699 24.1904 27.5185 23.7423C27.312 23.6717 27.1054 23.6119 26.8989 23.5575Z"
    fill="white" />
  <path
    d="M18.1535 24.3724C17.344 24.3999 16.5392 24.2389 15.8025 23.9022C15.0658 23.5654 14.4175 23.0622 13.9085 22.432C12.7659 20.9833 12.1113 19.21 12.0388 17.3663C11.8268 14.8443 12.2562 11.931 13.3487 8.48503C14.2129 5.76738 15.637 2.40292 17.5013 1.96266C17.7971 1.90073 18.1032 1.90722 18.3962 1.98164C18.6891 2.05606 18.9612 2.19643 19.1916 2.39205C19.7352 1.50066 22.23 0.516867 22.5398 0.440773C23.4079 0.231287 24.3098 0.202313 25.1896 0.355645C26.0694 0.508977 26.9083 0.841348 27.6544 1.33216C29.7984 2.74482 31.306 4.93891 31.8559 7.44689C32.057 8.39263 32.1875 9.33838 32.3179 10.2515C32.5897 12.1973 32.8615 14.029 33.7039 15.8336C33.8072 16.0564 33.9159 16.2738 34.0246 16.4912C34.608 17.4596 34.9596 18.5496 35.0519 19.6763C35.0168 20.5309 34.7438 21.3586 34.2636 22.0663C33.7835 22.7741 33.1153 23.3337 32.3342 23.6822C30.7865 24.3404 29.0598 24.4479 27.4424 23.9865L26.85 23.818L26.6978 23.7746C25.8021 23.452 24.8474 23.326 23.8986 23.405C23.1975 23.5028 22.4637 23.6713 21.7571 23.8289C20.5795 24.142 19.371 24.3243 18.1535 24.3724ZM17.9252 2.45727C17.8281 2.45886 17.7314 2.47163 17.6371 2.49532C16.3762 2.78883 15.0445 4.97382 13.8759 8.65353C12.7888 12.0343 12.3866 14.8715 12.5932 17.35C12.6575 19.079 13.2662 20.7434 14.3325 22.1059C16.387 24.5083 18.9307 23.9322 21.6267 23.3289C22.3441 23.1658 23.0888 22.9973 23.8008 22.894C24.8242 22.803 25.8552 22.9346 26.8228 23.2799L26.975 23.3234L27.5838 23.4865C29.0757 23.9155 30.6694 23.8215 32.1005 23.2202C32.789 22.9172 33.3793 22.428 33.8047 21.8076C34.2301 21.1873 34.4738 20.4604 34.5083 19.7089C34.4123 18.6665 34.0816 17.6594 33.5409 16.763C33.4285 16.5384 33.3198 16.3155 33.2147 16.0945C32.4431 14.2667 31.9591 12.3306 31.7798 10.3548C31.6548 9.45252 31.5189 8.51221 31.3233 7.58821C30.828 5.21018 29.4162 3.12282 27.3935 1.77786C26.7093 1.32536 25.9393 1.0185 25.1314 0.876366C24.3235 0.734235 23.495 0.759875 22.6974 0.951691C22.0561 1.10932 19.6047 2.32683 19.6428 2.75078C19.6921 2.80402 19.7194 2.8739 19.7194 2.94645C19.7194 3.019 19.6921 3.08888 19.6428 3.14212C19.618 3.16743 19.5884 3.18754 19.5557 3.20126C19.523 3.21499 19.488 3.22206 19.4525 3.22206C19.4171 3.22206 19.382 3.21499 19.3494 3.20126C19.3167 3.18754 19.2871 3.16743 19.2623 3.14212C19.0968 2.94141 18.8917 2.77699 18.6597 2.65915C18.4278 2.54132 18.174 2.47259 17.9143 2.45727H17.9252Z"
    fill="#231F20" />
  <path
    d="M29.9046 8.9857C29.9046 8.9857 31.2145 13.4481 30.2524 16.7201C30.0105 17.6338 29.5091 18.4577 28.8088 19.0924C28.1085 19.7271 27.2393 20.1454 26.3064 20.2966L25.9586 26.1776C25.9586 26.1776 25.8064 29.1833 22.1538 28.5039C21.0953 28.3024 20.1055 27.835 19.2773 27.1456C18.4492 26.4563 17.8099 25.5677 17.4197 24.5633L17.6099 13.7362C17.6099 13.7362 21.9255 11.562 21.7951 7.67579C21.806 7.67035 26.6271 10.3663 29.9046 8.9857Z"
    fill="white" />
  <path
    d="M23.1484 28.8729C22.7836 28.8726 22.4196 28.8381 22.0613 28.7696C20.9519 28.5685 19.9136 28.0832 19.0477 27.3612C18.1818 26.6391 17.5178 25.7049 17.1206 24.6497C17.1154 24.6209 17.1154 24.5915 17.1206 24.5627L17.3489 13.7356C17.3492 13.6854 17.3636 13.6364 17.3905 13.5941C17.4174 13.5518 17.4558 13.5179 17.5011 13.4964C17.5391 13.4964 21.6591 11.3712 21.5341 7.69151C21.5319 7.64278 21.5428 7.59437 21.5658 7.55133C21.5887 7.5083 21.6228 7.47223 21.6645 7.44692C21.7062 7.42408 21.7529 7.41211 21.8004 7.41211C21.8479 7.41211 21.8946 7.42408 21.9363 7.44692C21.9852 7.47409 26.6867 10.0613 29.7957 8.75139C29.8313 8.73685 29.8695 8.72984 29.9079 8.73083C29.9463 8.73182 29.984 8.74077 30.0188 8.75712C30.0535 8.77348 30.0845 8.79687 30.1097 8.82582C30.135 8.85478 30.1539 8.88866 30.1653 8.92532C30.2197 9.11012 31.4861 13.5019 30.5132 16.8174C30.2603 17.7445 29.7558 18.5836 29.0555 19.2416C28.3552 19.8997 27.4865 20.3512 26.5454 20.546L26.2139 26.2042C26.1781 26.6032 26.0636 26.9911 25.877 27.3456C25.6904 27.7001 25.4354 28.0142 25.1268 28.2696C24.5551 28.6898 23.8573 28.9026 23.1484 28.8729ZM17.675 24.5247C18.0553 25.4721 18.6679 26.3087 19.4562 26.9574C20.2445 27.6061 21.1834 28.0461 22.1863 28.237C23.3114 28.449 24.1919 28.3131 24.8007 27.8348C25.2982 27.4141 25.6105 26.8149 25.6703 26.1661L26.0182 20.2579C26.0218 20.1932 26.0484 20.1318 26.0932 20.085C26.1381 20.0381 26.1982 20.0089 26.2628 20.0025C27.1475 19.867 27.9727 19.4743 28.6358 18.8731C29.2988 18.2719 29.7702 17.4889 29.9914 16.6217C30.7795 13.9041 29.9914 10.3494 29.7196 9.3221C26.915 10.295 23.2788 8.69704 22.0722 8.09372C21.9091 11.4799 18.6425 13.4584 17.887 13.8715L17.675 24.5247Z"
    fill="#231F20" />
  <path
    d="M19.7025 13.0891C19.7025 13.0891 18.1262 8.89848 15.9304 11.3552C13.7345 13.812 16.55 16.7905 18.3763 16.6655"
    fill="white" />
  <path
    d="M18.2514 16.9431C17.1371 16.9431 15.8218 16.0137 15.2076 14.769C14.9112 14.1894 14.8043 13.5315 14.9018 12.8879C14.9993 12.2443 15.2964 11.6475 15.7511 11.1817C15.958 10.8886 16.2393 10.656 16.5661 10.508C16.8929 10.3599 17.2532 10.3016 17.61 10.3392C19.0558 10.611 19.9309 12.8938 19.9689 12.9917C19.982 13.0252 19.9883 13.061 19.9875 13.097C19.9866 13.133 19.9786 13.1684 19.964 13.2013C19.9493 13.2341 19.9282 13.2638 19.902 13.2884C19.8758 13.3131 19.845 13.3323 19.8113 13.345C19.7434 13.3685 19.6691 13.3654 19.6035 13.3361C19.5378 13.3068 19.4858 13.2536 19.458 13.1873C19.2406 12.6003 18.4579 11.0513 17.5067 10.8719C17.2368 10.8544 16.9672 10.9091 16.7255 11.0305C16.4838 11.1518 16.2788 11.3353 16.1316 11.5622C15.7525 11.9493 15.5057 12.4466 15.4266 12.9826C15.3475 13.5187 15.4402 14.066 15.6913 14.5462C16.2349 15.6332 17.4306 16.4975 18.3546 16.4214C18.4267 16.4156 18.4981 16.4387 18.5532 16.4856C18.6082 16.5325 18.6424 16.5993 18.6481 16.6714C18.6539 16.7435 18.6308 16.8149 18.5839 16.8699C18.537 16.925 18.4702 16.9591 18.3981 16.9649L18.2514 16.9431Z"
    fill="#231F20" />
  <path
    d="M27.3932 16.7691C26.943 16.7562 26.4967 16.6812 26.067 16.5462C25.999 16.5215 25.9431 16.4717 25.9107 16.407C25.8783 16.3423 25.872 16.2676 25.8931 16.1984C25.9041 16.1646 25.9218 16.1333 25.9451 16.1064C25.9684 16.0795 25.9968 16.0576 26.0287 16.0419C26.0606 16.0262 26.0954 16.017 26.1309 16.015C26.1664 16.0129 26.202 16.018 26.2355 16.0299C26.776 16.2226 27.3597 16.2602 27.9204 16.1386C27.9965 15.8994 27.3008 14.4699 26.3931 13.1111C26.3528 13.0506 26.3381 12.9765 26.3524 12.9051C26.3666 12.8338 26.4087 12.771 26.4692 12.7307C26.5298 12.6903 26.6039 12.6756 26.6752 12.6899C26.7466 12.7042 26.8093 12.7462 26.8497 12.8067C27.2682 13.4427 28.627 15.5679 28.4096 16.318C28.3912 16.3869 28.3578 16.4509 28.3118 16.5054C28.2657 16.5599 28.2082 16.6036 28.1433 16.6332C27.905 16.7288 27.6499 16.775 27.3932 16.7691Z"
    fill="#231F20" />
  <path
    d="M25.8933 18.5136C25.5137 18.5143 25.1362 18.4575 24.7736 18.3451C23.7573 18.0376 22.8915 17.3635 22.3441 16.4536C22.331 16.4201 22.3247 16.3843 22.3255 16.3483C22.3264 16.3123 22.3344 16.2769 22.349 16.244C22.3637 16.2112 22.3847 16.1815 22.4109 16.1569C22.4371 16.1322 22.468 16.113 22.5017 16.1003C22.5688 16.077 22.6424 16.0803 22.7071 16.1097C22.7718 16.139 22.8228 16.1921 22.8495 16.2579C23.3631 17.0247 24.1345 17.5819 25.0237 17.8288C26.1488 18.1331 27.3445 17.8288 28.5675 16.9537C28.5964 16.9325 28.6291 16.9173 28.6639 16.9089C28.6987 16.9005 28.7348 16.899 28.7701 16.9045C28.8055 16.9101 28.8394 16.9226 28.8699 16.9413C28.9004 16.96 28.927 16.9845 28.948 17.0135C28.9892 17.0723 29.0061 17.1448 28.9949 17.2158C28.9838 17.2867 28.9455 17.3506 28.8882 17.3939C28.0346 18.0766 26.9854 18.4689 25.8933 18.5136Z"
    fill="#231F20" />
  <path
    d="M26.3062 20.2962C26.3062 20.2962 23.1428 20.5082 21.3655 19.9375C21.3655 19.9375 23.0613 24.688 26.0507 24.8293L26.3062 20.2962Z"
    fill="#231F20" />
  <path
    d="M26.0346 25.1067C22.9038 24.9491 21.1808 20.2149 21.1102 20.0301C21.0924 19.9831 21.0885 19.9319 21.0991 19.8827C21.1097 19.8335 21.1343 19.7884 21.17 19.7529C21.2047 19.716 21.2492 19.6897 21.2983 19.6772C21.3474 19.6647 21.399 19.6664 21.4472 19.6822C23.1539 20.2258 26.2574 20.0301 26.2846 20.0247C26.3233 20.0215 26.3623 20.0266 26.3988 20.0397C26.4354 20.0529 26.4687 20.0737 26.4966 20.1008C26.5491 20.1588 26.5782 20.2344 26.5781 20.3127L26.3063 24.8512C26.3022 24.9204 26.2717 24.9854 26.2212 25.0329C26.1707 25.0804 26.1039 25.1068 26.0346 25.1067ZM21.8059 20.3399C22.3059 21.4813 23.7083 24.2153 25.7791 24.5414L26.002 20.5845C24.5985 20.6638 23.1906 20.5818 21.8059 20.3399Z"
    fill="#231F20" />
  <path
    d="M25.0549 12.2246C25.0569 11.7773 24.8517 11.4138 24.5965 11.4127C24.3414 11.4115 24.1329 11.7732 24.1309 12.2204C24.1288 12.6677 24.334 13.0312 24.5892 13.0324C24.8443 13.0335 25.0528 12.6719 25.0549 12.2246Z"
    fill="#231F20" />
  <path
    d="M29.3139 12.2412C29.3159 11.794 29.1107 11.4304 28.8556 11.4293C28.6004 11.4281 28.3919 11.7898 28.3899 12.237C28.3879 12.6843 28.5931 13.0478 28.8482 13.049C29.1034 13.0501 29.3119 12.6885 29.3139 12.2412Z"
    fill="#231F20" />
  <path
    d="M26.9586 126.35C26.9586 126.35 26.2031 126.6 25.9911 128.067C25.7791 129.535 26.4749 132.731 26.4749 132.731H27.7956V130.698C28.6928 131.431 29.633 132.11 30.6111 132.731C31.3666 133.106 37.4107 132.731 37.4107 132.731C37.4107 132.731 36.2367 130.671 35.3127 130.339C34.4361 130.093 33.5362 129.938 32.6276 129.877C32.6276 129.877 27.6706 128.361 26.9586 126.35Z"
    fill="#231F20" />
  <path
    d="M32.8287 133.171C32.0497 133.22 31.2678 133.154 30.5079 132.976C29.6649 132.459 28.8569 131.887 28.0891 131.264V132.731C28.0891 132.803 28.0605 132.872 28.0096 132.923C27.9586 132.974 27.8895 133.003 27.8174 133.003H26.4966C26.4347 133.003 26.3746 132.982 26.3261 132.944C26.2777 132.905 26.2439 132.851 26.2303 132.791C26.2303 132.655 25.5291 129.53 25.7411 128.029C25.9748 126.399 26.8553 126.105 26.8934 126.089C26.9611 126.067 27.0351 126.072 27.0991 126.103C27.1632 126.135 27.2123 126.19 27.2358 126.258C27.7793 127.79 31.334 129.187 32.6983 129.606C33.6185 129.669 34.5294 129.829 35.4159 130.084C36.4052 130.443 37.5303 132.378 37.6607 132.595C37.6822 132.636 37.6934 132.682 37.6934 132.728C37.6934 132.775 37.6822 132.82 37.6607 132.861C37.6386 132.902 37.6066 132.936 37.5676 132.961C37.5286 132.986 37.484 133 37.4379 133.003C36.7965 133.041 34.5843 133.171 32.8287 133.171ZM27.8174 130.426C27.8801 130.428 27.9409 130.449 27.9913 130.486C28.8694 131.21 29.7915 131.878 30.7524 132.486C31.2253 132.72 34.6387 132.617 36.965 132.486C36.5411 131.818 35.7964 130.796 35.242 130.595C34.3877 130.358 33.5119 130.207 32.6276 130.144C32.6081 130.149 32.5874 130.149 32.5678 130.144C32.3722 130.084 27.9424 128.714 26.8608 126.758C26.5196 127.132 26.3163 127.611 26.2846 128.116C26.1107 129.307 26.5673 131.736 26.7194 132.465H27.5456V130.704C27.547 130.632 27.5761 130.564 27.6268 130.513C27.6774 130.462 27.7457 130.433 27.8174 130.432V130.426Z"
    fill="#231F20" />
</svg>
