<svg width="203" height="126" viewBox="0 0 203 126" fill="none" xmlns="http://www.w3.org/2000/svg">
  <path
    d="M0.921631 116.742H202.049V116.921C202.049 119.208 201.141 121.401 199.524 123.019C197.906 124.636 195.713 125.544 193.426 125.544H9.54527C7.25814 125.544 5.06468 124.636 3.44744 123.019C1.83019 121.401 0.921631 119.208 0.921631 116.921V116.761V116.742Z"
    fill="#231F20" />
  <path
    d="M193.42 125.797H9.54536C7.18947 125.795 4.93018 124.86 3.26201 123.197C1.59384 121.533 0.652677 119.276 0.644531 116.92V116.76C0.646141 116.688 0.676056 116.619 0.727865 116.568C0.779675 116.518 0.84926 116.489 0.92172 116.489H202.043C202.116 116.489 202.185 116.518 202.237 116.568C202.289 116.619 202.319 116.688 202.321 116.76V116.92C202.312 119.276 201.371 121.533 199.703 123.197C198.035 124.86 195.776 125.795 193.42 125.797ZM1.19275 117.013C1.22349 119.208 2.11685 121.304 3.67978 122.846C5.2427 124.388 7.34967 125.253 9.54536 125.255H193.42C195.615 125.253 197.722 124.388 199.285 122.846C200.848 121.304 201.742 119.208 201.772 117.013H1.19275Z"
    fill="#231F20" />
  <path
    d="M24.0886 0.415039H178.883C179.701 0.416654 180.511 0.579537 181.266 0.894377C182.022 1.20922 182.708 1.66984 183.285 2.24992C183.862 2.82999 184.319 3.51814 184.63 4.27503C184.942 5.03191 185.1 5.84269 185.098 6.66102V116.742H17.8672V6.66102C17.8648 5.84217 18.0239 5.03089 18.3354 4.2736C18.6468 3.51632 19.1046 2.82789 19.6825 2.24774C20.2604 1.66758 20.947 1.20709 21.703 0.89261C22.4591 0.578132 23.2697 0.415845 24.0886 0.415039Z"
    fill="#231F20" />
  <path
    d="M185.098 117.013H17.867C17.8312 117.014 17.7956 117.008 17.7623 116.994C17.7291 116.981 17.6989 116.961 17.6735 116.936C17.6482 116.91 17.6283 116.88 17.6149 116.847C17.6016 116.814 17.5952 116.778 17.596 116.742V6.66154C17.5944 5.80733 17.761 4.96117 18.0864 4.17136C18.4118 3.38156 18.8896 2.66358 19.4925 2.05842C20.0954 1.45326 20.8115 0.972768 21.6001 0.644383C22.3887 0.315998 23.2342 0.146148 24.0884 0.144531H178.883C179.737 0.146148 180.582 0.315998 181.371 0.644383C182.16 0.972768 182.876 1.45326 183.479 2.05842C184.081 2.66358 184.559 3.38156 184.885 4.17136C185.21 4.96117 185.377 5.80733 185.375 6.66154V116.742C185.375 116.778 185.368 116.814 185.354 116.847C185.34 116.881 185.319 116.911 185.293 116.936C185.268 116.961 185.237 116.981 185.203 116.994C185.17 117.008 185.134 117.014 185.098 117.013ZM18.1689 116.471H184.827V6.66154C184.83 5.08121 184.206 3.56423 183.091 2.44388C181.977 1.32354 180.463 0.691483 178.883 0.686589H24.0884C23.3033 0.684965 22.5256 0.838405 21.8 1.1381C21.0743 1.43779 20.415 1.87784 19.8598 2.43299C19.3047 2.98814 18.8646 3.64746 18.5649 4.37311C18.2653 5.09875 18.1118 5.87644 18.1134 6.66154L18.1689 116.471Z"
    fill="#231F20" />
  <path d="M178.852 4.25293H24.113V113.896H178.852V4.25293Z" fill="white" />
  <path
    d="M178.883 114.205H24.1132C24.0315 114.205 23.9531 114.172 23.8954 114.114C23.8376 114.057 23.8052 113.978 23.8052 113.897V4.2533C23.8052 4.17162 23.8376 4.09328 23.8954 4.03552C23.9531 3.97776 24.0315 3.94531 24.1132 3.94531H178.883C178.964 3.94531 179.043 3.97776 179.101 4.03552C179.158 4.09328 179.191 4.17162 179.191 4.2533V113.897C179.191 113.978 179.158 114.057 179.101 114.114C179.043 114.172 178.964 114.205 178.883 114.205ZM24.452 113.589H178.544V4.56129H24.4211L24.452 113.589Z"
    fill="#231F20" />
  <path d="M36.3281 99.6306H34.782L35.632 97.6533L36.3281 99.6306Z" fill="#C4D7D1" />
  <path d="M66.6831 99.6306H65.137L65.833 97.6533L65.8392 97.6656L66.6831 99.6306Z" fill="#C4D7D1" />
  <path
    d="M65.839 97.6532L65.4571 99.6182H35.9766C35.7716 98.9788 35.6636 98.3123 35.6562 97.6409C36.032 97.0249 45.9615 93.1627 45.9615 93.1627L46.5343 93.1196L47.5507 93.058C49.5711 92.9287 53.0144 92.75 54.7453 92.824C55.0655 92.8238 55.3844 92.8652 55.6939 92.9472C55.8524 92.9993 56.0068 93.0632 56.1559 93.1381C58.2625 94.0313 65.5618 97.4992 65.8575 97.6409L65.839 97.6532Z"
    fill="#C4D7D1" />
  <path d="M54.6903 93.1318H47.5142V99.6242H54.6903V93.1318Z" fill="#231F20" />
  <path
    d="M54.6899 99.9387H47.5138C47.4321 99.9387 47.3538 99.9063 47.296 99.8485C47.2383 99.7908 47.2058 99.7124 47.2058 99.6307V93.1322C47.2058 93.0505 47.2383 92.9722 47.296 92.9144C47.3538 92.8567 47.4321 92.8242 47.5138 92.8242H54.6899C54.7711 92.8258 54.8485 92.8587 54.9059 92.9162C54.9634 92.9736 54.9963 93.051 54.9979 93.1322V99.6307C54.9963 99.7119 54.9634 99.7893 54.9059 99.8468C54.8485 99.9042 54.7711 99.9371 54.6899 99.9387ZM47.8218 99.3227H54.3819V93.4402H47.8218V99.3227Z"
    fill="#231F20" />
  <path
    d="M57.1478 82.5926C57.2217 82.3894 57.2894 82.1738 57.3449 81.9767C58.4475 77.9174 56.8213 72.6939 52.0352 72.3675C50.9445 72.326 49.8643 72.593 48.9185 73.1378C47.9728 73.6826 47.1999 74.4831 46.6885 75.4473C45.3149 77.8373 45.6968 80.8925 45.9494 83.5289C45.9493 83.7022 46.0008 83.8716 46.0972 84.0155C46.3744 84.3358 46.9041 84.1264 47.2614 84.1203C47.7726 84.1203 48.3024 84.1942 48.8136 84.225C49.7006 84.2681 50.5876 84.2989 51.4746 84.2866C52.7549 84.3432 54.0377 84.3041 55.3122 84.1695C55.8542 84.0833 56.23 84.0833 56.5872 83.646C56.8316 83.3286 57.0211 82.9726 57.1478 82.5926Z"
    fill="white" />
  <path
    d="M53.3843 84.5757H52.6082C52.2386 84.5757 51.8629 84.5757 51.4933 84.5757C50.7048 84.5757 49.8486 84.5757 48.8076 84.5141L48.1916 84.4649C47.8837 84.4649 47.5757 84.4094 47.2615 84.4094C47.1707 84.4147 47.0802 84.425 46.9905 84.4402C46.8429 84.5091 46.68 84.5388 46.5176 84.5265C46.3552 84.5142 46.1986 84.4603 46.0631 84.3699C45.9276 84.2796 45.8176 84.1558 45.7437 84.0106C45.6699 83.8654 45.6347 83.7036 45.6415 83.5409L45.6046 83.1775C45.352 80.5842 45.0625 77.6337 46.4238 75.2745C46.9644 74.2629 47.7795 73.4245 48.7755 72.8557C49.7715 72.2868 50.9079 72.0107 52.0538 72.0591C52.9405 72.1007 53.806 72.3442 54.5843 72.7713C55.3625 73.1983 56.0329 73.7974 56.5443 74.523C57.249 75.6265 57.7112 76.867 57.9003 78.1626C58.0893 79.4582 58.0008 80.7791 57.6407 82.0379C57.5858 82.2621 57.5159 82.4823 57.4313 82.697C57.2914 83.0993 57.083 83.4744 56.8153 83.8058C56.6586 83.9915 56.4647 84.1422 56.2462 84.2483C56.0276 84.3544 55.7892 84.4135 55.5464 84.4217L55.3554 84.4525C54.7026 84.5451 54.0436 84.5863 53.3843 84.5757ZM51.8197 83.9598H52.6082C53.4948 83.9979 54.3832 83.9588 55.263 83.8427H55.4601C55.6268 83.8466 55.7923 83.8146 55.9453 83.7486C56.0984 83.6827 56.2355 83.5846 56.3471 83.4608C56.5655 83.1774 56.738 82.8615 56.8584 82.5245C56.9323 82.3274 56.9939 82.118 57.0494 81.9086C57.385 80.737 57.4684 79.5077 57.2943 78.3016C57.1202 77.0954 56.6924 75.9399 56.0392 74.9111C55.5836 74.2573 54.9841 73.7168 54.2867 73.3313C53.5894 72.9457 52.8128 72.7255 52.0168 72.6874C50.9843 72.6436 49.9605 72.8935 49.0643 73.4081C48.168 73.9227 47.4361 74.681 46.9535 75.5948C45.7216 77.7939 45.9741 80.6273 46.2205 83.1282L46.2575 83.4916C46.2571 83.6027 46.2824 83.7123 46.3314 83.8119C46.4176 83.9105 46.6209 83.8858 46.9043 83.8119C47.0203 83.7914 47.1376 83.7791 47.2554 83.775C47.5818 83.775 47.9206 83.8058 48.2471 83.8304L48.8261 83.8797C49.8548 83.929 50.674 83.9536 51.4748 83.9413L51.8197 83.9598Z"
    fill="#231F20" />
  <path
    d="M47.7727 83.0852C47.5202 81.0648 44.2001 80.455 44.2863 82.8265C44.2819 83.6505 44.57 84.4494 45.0994 85.081C45.3655 85.3929 45.7189 85.6183 46.114 85.728C46.5091 85.8378 46.928 85.8269 47.3169 85.6969"
    fill="white" />
  <path
    d="M46.6824 86.1223C46.3402 86.119 46.0025 86.0445 45.6907 85.9034C45.3789 85.7624 45.0999 85.5579 44.8715 85.3031C44.291 84.6137 43.9745 83.7404 43.9783 82.8392C43.9454 82.6166 43.9594 82.3895 44.0194 82.1726C44.0794 81.9557 44.1842 81.7538 44.3269 81.5798C44.4695 81.4058 44.6471 81.2635 44.848 81.1622C45.0489 81.0608 45.2688 81.0026 45.4936 80.9913C46.1031 80.9526 46.7053 81.1416 47.1833 81.5218C47.6613 81.9019 47.9811 82.4461 48.0807 83.0486C48.0879 83.1298 48.0639 83.2107 48.0135 83.2748C47.9631 83.3389 47.8902 83.3814 47.8097 83.3936C47.7692 83.3987 47.7281 83.3958 47.6887 83.3849C47.6494 83.374 47.6126 83.3555 47.5805 83.3302C47.5484 83.305 47.5216 83.2737 47.5018 83.238C47.4819 83.2024 47.4693 83.1631 47.4647 83.1226C47.3843 82.6791 47.1445 82.2802 46.7906 82.0012C46.4366 81.7221 45.9929 81.582 45.5429 81.6073C45.1733 81.6381 44.5573 81.8352 44.5943 82.8392C44.5906 83.5896 44.8499 84.3176 45.3273 84.8966C45.5516 85.1533 45.8456 85.3394 46.1736 85.4323C46.5016 85.5253 46.8496 85.521 47.1752 85.4201C47.2485 85.3978 47.3274 85.4036 47.3966 85.4363C47.4658 85.4691 47.5204 85.5264 47.5496 85.5972C47.5788 85.668 47.5807 85.7471 47.5547 85.8191C47.5288 85.8912 47.4769 85.9509 47.4093 85.9868C47.1778 86.0776 46.9311 86.1236 46.6824 86.1223Z"
    fill="#231F20" />
  <path
    d="M54.998 83.0852C55.2506 81.0648 58.5645 80.455 58.4845 82.8265C58.4889 83.6505 58.2008 84.4494 57.6714 85.081C57.4052 85.3929 57.0519 85.6183 56.6568 85.728C56.2617 85.8378 55.8428 85.8269 55.4539 85.6969"
    fill="white" />
  <path
    d="M56.0885 86.1217C55.8312 86.1241 55.5758 86.076 55.337 85.98C55.2994 85.9652 55.2652 85.9429 55.2363 85.9146C55.2075 85.8862 55.1846 85.8524 55.1691 85.815C55.1536 85.7777 55.1457 85.7376 55.146 85.6972C55.1463 85.6567 55.1547 85.6167 55.1707 85.5796C55.1856 85.542 55.2078 85.5077 55.2362 85.4789C55.2645 85.45 55.2983 85.4272 55.3357 85.4117C55.373 85.3962 55.4131 85.3883 55.4536 85.3886C55.494 85.3889 55.534 85.3973 55.5711 85.4133C55.8968 85.5134 56.2445 85.5172 56.5724 85.4243C56.9002 85.3315 57.1942 85.1458 57.419 84.8897C57.8964 84.3107 58.1557 83.5828 58.152 82.8324C58.189 81.8468 57.573 81.6497 57.2034 81.6004C56.7534 81.5752 56.3097 81.7153 55.9557 81.9943C55.6018 82.2734 55.362 82.6722 55.2816 83.1157C55.277 83.1563 55.2644 83.1955 55.2446 83.2312C55.2247 83.2668 55.1979 83.2982 55.1658 83.3234C55.1337 83.3486 55.0969 83.3672 55.0576 83.3781C55.0182 83.389 54.9771 83.3919 54.9366 83.3867C54.8554 83.376 54.7816 83.3339 54.7309 83.2694C54.6803 83.205 54.6569 83.1233 54.6656 83.0418C54.7652 82.4392 55.085 81.8951 55.563 81.5149C56.041 81.1348 56.6432 80.9457 57.2527 80.9844C57.4775 80.9958 57.6974 81.054 57.8983 81.1553C58.0992 81.2567 58.2768 81.3989 58.4195 81.5729C58.5622 81.747 58.6669 81.9489 58.7269 82.1658C58.7869 82.3827 58.8009 82.6097 58.768 82.8324C58.7718 83.7336 58.4553 84.6068 57.8748 85.2963C57.6498 85.5492 57.375 85.753 57.0677 85.895C56.7603 86.0371 56.427 86.1142 56.0885 86.1217Z"
    fill="#231F20" />
  <path
    d="M47.5142 93.1316C48.8299 93.6982 50.2457 93.9956 51.6781 94.0063C54.3084 94.0987 54.758 93.3903 54.758 93.3903L54.6903 91.9797L54.5486 88.7089L54.4069 85.6291L48.4012 85.4258L48.1178 87.8897L48.0254 88.6966L47.5142 93.1316Z"
    fill="white" />
  <path
    d="M52.1336 94.3203H51.6717C50.1882 94.311 48.7218 94.003 47.3598 93.4148C47.3053 93.3856 47.2608 93.3405 47.2322 93.2856C47.2037 93.2306 47.1923 93.1683 47.1997 93.1069L48.0744 85.4072C48.0836 85.3293 48.1215 85.2578 48.1808 85.2065C48.24 85.1552 48.3163 85.1279 48.3947 85.13L54.4004 85.3394C54.4779 85.3425 54.5513 85.3746 54.6061 85.4294C54.6609 85.4842 54.6931 85.5577 54.6961 85.6351L55.0472 93.3779C55.0469 93.4388 55.0298 93.4985 54.9979 93.5504C54.9302 93.6797 54.4066 94.3203 52.1336 94.3203ZM47.8218 92.9467C49.0495 93.4192 50.3503 93.6735 51.6655 93.6982C53.5565 93.766 54.2218 93.4025 54.4127 93.2608L54.0863 85.9431L48.6411 85.7521L47.8218 92.9467Z"
    fill="#231F20" />
  <path
    d="M48.019 88.7278C48.4956 89.4794 49.1546 90.0982 49.9347 90.5265C51.2036 91.2903 53.107 92.165 54.6839 91.974L54.5422 88.7032C53.3864 88.8078 52.2223 88.7747 51.0743 88.6046C50.0571 88.5322 49.0575 88.3015 48.1114 87.9209L48.019 88.7278Z"
    fill="#231F20" />
  <path
    d="M54.2403 92.3129C52.571 92.3129 50.7601 91.3827 49.7745 90.7914C48.9498 90.3368 48.2545 89.6797 47.7541 88.8819C47.7184 88.8273 47.7032 88.7618 47.711 88.6971L47.8034 87.8902C47.8089 87.8421 47.8256 87.7961 47.8522 87.7557C47.8788 87.7153 47.9146 87.6818 47.9566 87.6578C47.9986 87.6338 48.0456 87.62 48.0939 87.6176C48.1422 87.6151 48.1904 87.6241 48.2346 87.6438C49.1553 88.0055 50.1248 88.2276 51.1112 88.3029C52.2366 88.4711 53.3784 88.5021 54.5113 88.3953C54.5531 88.3919 54.5951 88.397 54.6349 88.4101C54.6747 88.4232 54.7114 88.4442 54.743 88.4717C54.7746 88.4993 54.8003 88.5329 54.8187 88.5705C54.8371 88.6082 54.8478 88.6491 54.8501 88.6909L54.9918 91.9618C54.997 92.0399 54.9716 92.1169 54.921 92.1767C54.8705 92.2365 54.7987 92.2742 54.7208 92.2821C54.5613 92.3017 54.4009 92.312 54.2403 92.3129ZM48.3393 88.6601C48.7884 89.3279 49.3902 89.8791 50.0948 90.2678C50.8586 90.7236 52.7373 91.7462 54.3635 91.6907L54.2465 89.042C53.1751 89.11 52.0996 89.0667 51.0372 88.9127C50.13 88.8334 49.235 88.6494 48.3701 88.3645L48.3393 88.6601Z"
    fill="#231F20" />
  <path
    d="M56.6427 77.6403L56.3901 84.9273C56.3837 85.2409 56.3424 85.5529 56.2669 85.8574C56.0156 86.8873 55.4172 87.7993 54.5725 88.4398C53.7278 89.0804 52.6882 89.4105 51.6287 89.3746H51.0928C50.0968 89.3432 49.1379 88.9893 48.3604 88.3661C47.5828 87.743 47.0286 86.8842 46.7809 85.919C46.6741 85.4923 46.6264 85.0529 46.6393 84.6131L46.8918 77.3262C46.8918 77.3262 48.0314 78.823 51.296 78.7922C53.1413 78.8065 54.967 78.4131 56.6427 77.6403Z"
    fill="white" />
  <path
    d="M51.7889 89.6825H51.6164H51.0805C49.7799 89.6343 48.5512 89.0736 47.6625 88.1226C46.7739 87.1717 46.2976 85.9078 46.3375 84.6069L46.5901 77.3138C46.594 77.2505 46.6165 77.1898 46.6549 77.1394C46.6933 77.0889 46.7457 77.051 46.8057 77.0304C46.8667 77.0124 46.9318 77.0134 46.9923 77.0332C47.0528 77.053 47.1059 77.0907 47.1445 77.1413C47.1445 77.1413 48.284 78.5026 51.2961 78.4841C53.0892 78.4983 54.8644 78.1265 56.5011 77.3939C56.5479 77.3668 56.601 77.3526 56.6551 77.3526C56.7092 77.3526 56.7623 77.3668 56.8091 77.3939C56.8548 77.4238 56.8918 77.4651 56.9167 77.5137C56.9415 77.5623 56.9533 77.6165 56.9508 77.671L56.6982 84.958C56.6859 85.2898 56.6426 85.6198 56.5689 85.9436C56.3035 87.0108 55.6889 87.9586 54.8227 88.6361C53.9565 89.3137 52.8886 89.682 51.7889 89.6825ZM47.1876 77.979L46.9535 84.6007C46.9371 85.0159 46.9827 85.4311 47.089 85.8327C47.3215 86.7304 47.8372 87.5292 48.5595 88.1106C49.2819 88.692 50.1724 89.0251 51.099 89.0604H51.6411C52.6269 89.0888 53.5926 88.7784 54.3772 88.1809C55.1619 87.5835 55.718 86.7351 55.9529 85.7773C56.0224 85.4948 56.0617 85.2057 56.0699 84.9149L56.304 78.1392C54.7078 78.77 53.0063 79.092 51.29 79.0878C49.8385 79.1721 48.3989 78.783 47.1876 77.979Z"
    fill="#231F20" />
  <path
    d="M51.5671 81.7246C51.5671 81.7246 53.0824 85.0632 52.411 85.1248C51.845 85.1028 51.2912 84.9533 50.791 84.6874"
    fill="white" />
  <path
    d="M52.294 85.4385C51.7183 85.3948 51.1581 85.2311 50.6494 84.958C50.6109 84.9407 50.5763 84.9157 50.5479 84.8845C50.5194 84.8533 50.4977 84.8166 50.4841 84.7766C50.4704 84.7366 50.4651 84.6943 50.4685 84.6522C50.4719 84.6101 50.484 84.5692 50.5038 84.532C50.5237 84.4947 50.5511 84.462 50.5842 84.4357C50.6173 84.4095 50.6554 84.3903 50.6962 84.3795C50.737 84.3686 50.7796 84.3662 50.8213 84.3725C50.8631 84.3788 50.9031 84.3936 50.9389 84.416C51.356 84.6371 51.812 84.7752 52.2817 84.8225C52.0971 83.7899 51.763 82.7898 51.29 81.8535C51.2567 81.7792 51.2542 81.6946 51.283 81.6184C51.3119 81.5422 51.3698 81.4806 51.444 81.447C51.4807 81.4296 51.5205 81.4198 51.561 81.4182C51.6016 81.4166 51.6421 81.4232 51.68 81.4375C51.718 81.4519 51.7526 81.4738 51.7819 81.5019C51.8112 81.53 51.8346 81.5637 51.8505 81.601C52.3495 82.6974 53.1379 84.6316 52.8053 85.1982C52.7684 85.2639 52.716 85.3196 52.6527 85.3604C52.5893 85.4012 52.5169 85.4259 52.4419 85.4323L52.294 85.4385Z"
    fill="#231F20" />
  <path
    d="M52.4049 87.3543C51.3768 87.3293 50.3721 87.0431 49.4852 86.5227C49.4187 86.4804 49.3711 86.4142 49.352 86.3378C49.3329 86.2614 49.3438 86.1806 49.3824 86.1119C49.4211 86.0433 49.4845 85.9921 49.5598 85.9688C49.635 85.9456 49.7163 85.952 49.787 85.9868C52.0599 87.2188 53.4828 86.6028 53.5321 86.5412C53.5685 86.5233 53.608 86.5128 53.6485 86.5103C53.689 86.5077 53.7295 86.5132 53.7679 86.5264C53.8062 86.5395 53.8416 86.5601 53.8719 86.587C53.9023 86.6138 53.9271 86.6464 53.9448 86.6829C53.9797 86.7559 53.9851 86.8396 53.9599 86.9164C53.9346 86.9933 53.8807 87.0575 53.8093 87.0956C53.365 87.2812 52.8861 87.3694 52.4049 87.3543Z"
    fill="#231F20" />
  <path
    d="M49.6083 81.9339C49.7818 81.9339 49.9225 81.614 49.9225 81.2194C49.9225 80.8248 49.7818 80.5049 49.6083 80.5049C49.4348 80.5049 49.2942 80.8248 49.2942 81.2194C49.2942 81.614 49.4348 81.9339 49.6083 81.9339Z"
    fill="#231F20" />
  <path
    d="M53.8337 81.9339C54.0072 81.9339 54.1478 81.614 54.1478 81.2194C54.1478 80.8248 54.0072 80.5049 53.8337 80.5049C53.6602 80.5049 53.5195 80.8248 53.5195 81.2194C53.5195 81.614 53.6602 81.9339 53.8337 81.9339Z"
    fill="#231F20" />
  <path
    d="M164.007 95.362C164.009 95.3743 164.009 95.3867 164.007 95.399L163.194 99.6554H135.056C135.162 98.6156 135.349 97.5858 135.617 96.5755C135.955 96.0334 146.027 91.8818 146.027 91.8818H146.347H146.569L147.185 91.8386C147.185 91.8386 147.185 91.8386 147.222 91.8386C147.425 91.8386 147.641 91.8386 147.881 91.7955C148.404 91.7955 149.002 91.7339 149.63 91.7093C150.486 91.6662 151.392 91.6354 152.199 91.623C152.772 91.623 153.289 91.623 153.708 91.623H154.108H154.287C154.439 91.6286 154.59 91.6534 154.737 91.697L154.823 91.7278L154.977 91.7894C156.708 92.3622 164.007 95.362 164.007 95.362Z"
    fill="#C4D7D1" />
  <path d="M146.963 89.7441L154.422 89.7688L154.293 92.6146H149.02L146.464 91.3888L146.963 89.7441Z" fill="#231F20" />
  <path
    d="M154.293 92.8977H149.02C148.978 92.9089 148.933 92.9089 148.891 92.8977L146.329 91.6657C146.263 91.6326 146.211 91.5775 146.181 91.51C146.152 91.4424 146.148 91.3667 146.168 91.2961L146.667 89.6515C146.685 89.587 146.724 89.5302 146.777 89.4901C146.831 89.4499 146.896 89.4287 146.963 89.4297H154.422C154.506 89.4299 154.585 89.4632 154.644 89.5221C154.702 89.5838 154.733 89.6657 154.73 89.75L154.601 92.602C154.596 92.681 154.562 92.7554 154.505 92.8102C154.448 92.865 154.372 92.8962 154.293 92.8977ZM149.094 92.2817H154.022L154.127 90.0519H147.216L146.858 91.2284L149.094 92.2817Z"
    fill="#231F20" />
  <path
    d="M156.363 82.5058C156.708 81.5357 156.93 80.5257 157.022 79.4999C157.139 78.7915 157.441 77.6519 157.12 76.9559C156.773 76.4679 156.303 76.0793 155.759 75.8287C155.55 74.0547 153.911 72.9705 152.211 72.8782C151.198 72.8707 150.192 73.0482 149.242 73.4017C148.3 73.7097 147.289 74.1101 146.778 74.9663C146.689 75.1599 146.579 75.3436 146.452 75.5145C146.278 75.678 146.084 75.8168 145.873 75.9272C144.554 76.7896 144.696 77.9661 144.862 79.3151C145.029 80.6641 145.534 82.1732 145.675 83.5838C147.332 83.6823 149.008 83.824 150.683 83.7994C152.032 83.7809 155.654 84.0704 156.363 82.5058Z"
    fill="white" />
  <path
    d="M152.063 84.1205H150.702C149.335 84.1205 147.955 84.0527 146.618 83.9665L145.676 83.9049C145.603 83.8985 145.535 83.8675 145.482 83.8172C145.43 83.7668 145.396 83.6999 145.386 83.6277C145.299 82.8907 145.163 82.1602 144.98 81.441C144.811 80.7562 144.678 80.0634 144.579 79.3651C144.413 78.0346 144.24 76.6487 145.725 75.6693L145.879 75.5769C146.011 75.5048 146.133 75.4157 146.242 75.312C146.315 75.213 146.379 75.1079 146.433 74.9979C146.464 74.9363 146.495 74.8747 146.532 74.8131C147.068 73.883 148.103 73.4456 149.144 73.113C150.127 72.7419 151.172 72.558 152.223 72.5709C153.905 72.6633 155.728 73.7413 156.043 75.6508C156.593 75.9209 157.061 76.3336 157.398 76.8458C157.706 77.5049 157.533 78.435 157.398 79.1803C157.398 79.3159 157.348 79.4452 157.33 79.5684C157.311 79.6916 157.274 79.9257 157.244 80.1105C157.153 80.9823 156.946 81.8379 156.628 82.6544C156.036 83.9726 153.776 84.1205 152.063 84.1205ZM150.831 83.5045H151.324C152.796 83.5045 155.525 83.5599 156.055 82.3834C156.346 81.6216 156.532 80.8238 156.609 80.0119C156.64 79.821 156.665 79.6362 156.695 79.4575C156.726 79.2789 156.739 79.1988 156.763 79.0572C156.949 78.4177 156.968 77.7412 156.819 77.0922C156.501 76.6623 156.076 76.3226 155.587 76.1066C155.544 76.0825 155.507 76.0489 155.479 76.0083C155.452 75.9677 155.433 75.9213 155.427 75.8726C155.229 74.2218 153.64 73.2732 152.168 73.1931C151.192 73.1848 150.223 73.3582 149.31 73.7043C148.386 74 147.462 74.3757 147.037 75.1272C147.037 75.1827 146.982 75.232 146.957 75.2874C146.884 75.4458 146.788 75.5931 146.674 75.7247C146.53 75.879 146.361 76.0081 146.175 76.1066L146.039 76.1929C144.875 76.9505 145.004 77.9792 145.164 79.2727C145.262 79.9483 145.394 80.6185 145.559 81.2808C145.706 81.9399 145.86 82.6113 145.947 83.2889L146.637 83.332C147.961 83.4183 149.328 83.5045 150.671 83.486L150.831 83.5045Z"
    fill="#231F20" />
  <path
    d="M147.468 82.7528C147.24 80.9049 144.253 80.3813 144.327 82.5188C144.323 83.2617 144.583 83.9819 145.06 84.5515C145.301 84.8295 145.62 85.029 145.976 85.1245C146.331 85.22 146.707 85.207 147.056 85.0874"
    fill="white" />
  <path
    d="M146.495 85.5066C146.183 85.5021 145.875 85.433 145.591 85.3037C145.307 85.1743 145.052 84.9875 144.844 84.7551C144.319 84.1333 144.031 83.3455 144.031 82.5314C144.001 82.3271 144.013 82.1186 144.069 81.9196C144.124 81.7205 144.22 81.5351 144.351 81.3755C144.482 81.2159 144.645 81.0856 144.83 80.9929C145.015 80.9003 145.217 80.8473 145.423 80.8375C145.975 80.7988 146.522 80.9664 146.958 81.3078C147.394 81.6491 147.688 82.14 147.782 82.6854C147.788 82.7256 147.786 82.7665 147.776 82.8058C147.766 82.8452 147.748 82.882 147.723 82.9142C147.698 82.9464 147.667 82.9733 147.632 82.9933C147.597 83.0132 147.558 83.0258 147.517 83.0304C147.436 83.0409 147.355 83.0189 147.29 82.9692C147.225 82.9196 147.183 82.8463 147.172 82.7655C147.104 82.3719 146.892 82.0174 146.579 81.7698C146.265 81.5221 145.871 81.3985 145.472 81.4227C145.152 81.4227 144.616 81.6198 144.647 82.4821C144.64 83.1547 144.869 83.8084 145.294 84.3301C145.495 84.5605 145.759 84.7271 146.053 84.8092C146.347 84.8913 146.66 84.8853 146.951 84.792C146.988 84.7767 147.029 84.7689 147.069 84.7691C147.11 84.7693 147.15 84.7775 147.187 84.7932C147.225 84.8089 147.259 84.8319 147.288 84.8607C147.316 84.8896 147.339 84.9238 147.354 84.9614C147.369 84.9991 147.377 85.0393 147.377 85.08C147.377 85.1206 147.369 85.1608 147.353 85.1983C147.337 85.2357 147.314 85.2697 147.285 85.2983C147.257 85.3269 147.222 85.3495 147.185 85.3649C146.966 85.4559 146.732 85.504 146.495 85.5066Z"
    fill="#231F20" />
  <path
    d="M153.985 82.7528C154.213 80.9049 157.201 80.3813 157.127 82.5188C157.131 83.2617 156.871 83.9819 156.394 84.5515C156.152 84.8295 155.833 85.029 155.478 85.1245C155.122 85.22 154.746 85.207 154.398 85.0874"
    fill="white" />
  <path
    d="M154.971 85.506C154.735 85.5073 154.501 85.4634 154.281 85.3766C154.205 85.3456 154.145 85.2856 154.113 85.21C154.081 85.1343 154.081 85.0491 154.112 84.9732C154.143 84.8972 154.203 84.8367 154.278 84.8049C154.354 84.7731 154.439 84.7727 154.515 84.8038C154.806 84.8971 155.118 84.903 155.413 84.8209C155.707 84.7388 155.971 84.5722 156.172 84.3418C156.597 83.8201 156.825 83.1664 156.819 82.4939C156.85 81.6315 156.314 81.459 155.993 81.4344C155.595 81.4102 155.201 81.5338 154.887 81.7815C154.574 82.0292 154.362 82.3836 154.293 82.7772C154.283 82.858 154.24 82.9313 154.176 82.9809C154.111 83.0306 154.029 83.0526 153.948 83.0421C153.908 83.0376 153.869 83.0249 153.834 83.005C153.798 82.985 153.767 82.9582 153.743 82.9259C153.718 82.8937 153.7 82.8569 153.69 82.8176C153.68 82.7782 153.677 82.7373 153.684 82.6971C153.778 82.1517 154.072 81.6608 154.508 81.3195C154.944 80.9781 155.491 80.8105 156.043 80.8492C156.249 80.859 156.451 80.912 156.636 81.0046C156.82 81.0973 156.984 81.2277 157.115 81.3873C157.246 81.5469 157.342 81.7322 157.397 81.9313C157.452 82.1304 157.465 82.3388 157.435 82.5431C157.438 83.3576 157.149 84.1464 156.622 84.7668C156.412 84.997 156.158 85.1815 155.873 85.3087C155.589 85.4359 155.282 85.503 154.971 85.506Z"
    fill="#231F20" />
  <path
    d="M147.246 91.8021C148.432 92.3114 149.707 92.5795 150.998 92.5905C153.363 92.6706 153.763 92.03 153.763 92.03L153.708 90.7611L153.579 87.8106L153.449 85.0572L148.041 84.8662L147.782 87.1084L147.702 87.8352L147.246 91.8021Z"
    fill="white" />
  <path
    d="M151.398 92.8979H150.985C149.649 92.8871 148.329 92.6064 147.105 92.0725C147.049 92.0446 147.004 91.9998 146.975 91.9445C146.946 91.8892 146.935 91.8262 146.945 91.7645L147.733 84.8286C147.748 84.754 147.788 84.6867 147.846 84.6376C147.904 84.5884 147.977 84.5602 148.053 84.5576L153.462 84.7486C153.539 84.7501 153.612 84.7809 153.667 84.8347C153.722 84.8885 153.754 84.9612 153.757 85.0381L154.071 92.0109C154.073 92.0732 154.058 92.1347 154.028 92.1895C153.948 92.3127 153.474 92.8979 151.398 92.8979ZM147.579 91.6044C148.675 92.0254 149.836 92.2526 151.01 92.2758C152.661 92.3312 153.271 92.0232 153.474 91.8939L153.184 85.3461L148.337 85.1797L147.579 91.6044Z"
    fill="#231F20" />
  <path
    d="M147.702 87.8343C148.135 88.5084 148.727 89.065 149.427 89.4543C150.567 90.138 152.285 90.9265 153.708 90.7601L153.579 87.8096C152.538 87.9032 151.49 87.8742 150.456 87.7234C149.538 87.6575 148.636 87.4497 147.782 87.1074L147.702 87.8343Z"
    fill="#231F20" />
  <path
    d="M153.308 91.0872C151.868 90.9734 150.48 90.5035 149.267 89.7198C148.514 89.3095 147.877 88.7137 147.419 87.9889C147.383 87.932 147.368 87.8646 147.376 87.7979L147.456 87.0711C147.462 87.0228 147.479 86.9766 147.505 86.9359C147.532 86.8953 147.568 86.8615 147.61 86.837C147.654 86.8157 147.702 86.8047 147.751 86.8047C147.801 86.8047 147.849 86.8157 147.893 86.837C148.716 87.1758 149.587 87.3836 150.474 87.453C151.483 87.6039 152.507 87.6328 153.523 87.5392C153.565 87.5352 153.607 87.5397 153.648 87.5524C153.688 87.5651 153.725 87.5858 153.757 87.6132C153.79 87.6404 153.817 87.6742 153.836 87.7124C153.855 87.7506 153.866 87.7923 153.868 87.8349L153.997 90.7793C154.001 90.857 153.975 90.9333 153.925 90.9927C153.875 91.0521 153.804 91.0903 153.726 91.0996C153.587 91.1039 153.447 91.0998 153.308 91.0872ZM148.023 87.7671C148.424 88.3588 148.96 88.8465 149.587 89.19C150.271 89.6027 151.934 90.4959 153.388 90.4713L153.283 88.1429C152.327 88.2003 151.367 88.1611 150.419 88.0259C149.61 87.9562 148.813 87.795 148.041 87.5454L148.023 87.7671Z"
    fill="#231F20" />
  <path
    d="M155.476 77.8438L155.248 84.4101C155.24 84.6904 155.203 84.9691 155.137 85.2417C154.911 86.1697 154.373 86.9916 153.612 87.5693C152.852 88.147 151.915 88.4453 150.961 88.4139H150.474C149.928 88.3941 149.391 88.2668 148.894 88.0392C148.397 87.8117 147.95 87.4885 147.578 87.088C147.206 86.6876 146.917 86.2177 146.727 85.7054C146.537 85.193 146.45 84.6482 146.47 84.1021L146.698 77.542C146.698 77.542 147.727 78.891 150.665 78.8602C152.324 78.8771 153.966 78.5302 155.476 77.8438Z"
    fill="white" />
  <path
    d="M151.096 88.7218H150.942H150.455C149.869 88.7035 149.293 88.5697 148.759 88.328C148.224 88.0863 147.743 87.7416 147.343 87.3135C146.942 86.8854 146.63 86.3824 146.424 85.8334C146.218 85.2844 146.123 84.7002 146.144 84.1143L146.372 77.548C146.373 77.4839 146.394 77.4218 146.432 77.3703C146.471 77.3188 146.524 77.2806 146.585 77.2609C146.646 77.2413 146.712 77.2411 146.773 77.2606C146.834 77.28 146.887 77.318 146.926 77.3694C146.926 77.3694 147.899 78.6013 150.56 78.6013H150.64C152.251 78.6126 153.845 78.2786 155.315 77.6219C155.362 77.5949 155.415 77.5807 155.469 77.5807C155.524 77.5807 155.577 77.5949 155.623 77.6219C155.669 77.6518 155.706 77.6931 155.731 77.7417C155.756 77.7903 155.768 77.8446 155.765 77.8991L155.537 84.4654C155.508 85.6244 155.025 86.7256 154.192 87.5321C153.359 88.3385 152.243 88.7856 151.084 88.7772L151.096 88.7218ZM146.981 78.2071L146.772 84.1143C146.761 84.4793 146.8 84.8442 146.889 85.1984C147.098 86.0015 147.561 86.7159 148.207 87.2361C148.854 87.7563 149.651 88.0547 150.48 88.0873H150.967C151.85 88.119 152.717 87.8444 153.421 87.31C154.124 86.7757 154.622 86.0144 154.829 85.1553C154.891 84.901 154.926 84.6408 154.934 84.3792L155.143 78.3056C153.714 78.8658 152.193 79.1521 150.659 79.1495C149.365 79.2193 148.082 78.8903 146.981 78.2071Z"
    fill="#231F20" />
  <path
    d="M150.899 81.5273C150.899 81.5273 152.26 84.5333 151.657 84.6072C151.149 84.5851 150.652 84.4505 150.203 84.213"
    fill="white" />
  <path
    d="M151.552 84.89C151.029 84.8475 150.521 84.7009 150.055 84.4588C149.983 84.4204 149.928 84.3547 149.904 84.2761C149.88 84.1976 149.888 84.1126 149.926 84.0399C149.964 83.9672 150.03 83.9127 150.109 83.8885C150.187 83.8642 150.272 83.8722 150.345 83.9106C150.706 84.1043 151.101 84.2276 151.509 84.274C151.333 83.3613 151.035 82.4766 150.622 81.6438C150.605 81.6075 150.594 81.568 150.592 81.5277C150.59 81.4875 150.596 81.4472 150.61 81.4093C150.624 81.3714 150.645 81.3367 150.673 81.3071C150.7 81.2776 150.733 81.2538 150.77 81.2372C150.845 81.2037 150.931 81.201 151.008 81.2298C151.085 81.2586 151.148 81.3166 151.183 81.3912C151.632 82.3891 152.347 84.1385 152.039 84.6621C152.003 84.7249 151.952 84.7779 151.891 84.8166C151.83 84.8552 151.76 84.8783 151.688 84.8838L151.552 84.89Z"
    fill="#231F20" />
  <path
    d="M151.78 86.6271C150.984 86.6064 150.201 86.4262 149.476 86.0974C149.439 86.0813 149.405 86.058 149.377 86.0288C149.349 85.9997 149.326 85.9652 149.311 85.9274C149.297 85.8896 149.289 85.8493 149.29 85.8087C149.291 85.7681 149.3 85.728 149.316 85.6908C149.331 85.6532 149.353 85.619 149.381 85.5903C149.41 85.5616 149.444 85.5391 149.481 85.5241C149.519 85.5091 149.559 85.5019 149.6 85.503C149.64 85.5042 149.68 85.5136 149.716 85.5307C151.644 86.3561 152.673 85.8633 152.679 85.8571C152.752 85.8206 152.836 85.8144 152.914 85.8397C152.991 85.8651 153.055 85.9201 153.092 85.9927C153.111 86.0281 153.123 86.0671 153.127 86.1072C153.131 86.1473 153.126 86.1878 153.114 86.2263C153.102 86.2648 153.083 86.3004 153.057 86.3312C153.03 86.3619 152.999 86.3872 152.963 86.4054C152.59 86.5676 152.186 86.6434 151.78 86.6271Z"
    fill="#231F20" />
  <path
    d="M149.137 81.7119C149.294 81.7119 149.421 81.4251 149.421 81.0713C149.421 80.7175 149.294 80.4307 149.137 80.4307C148.981 80.4307 148.854 80.7175 148.854 81.0713C148.854 81.4251 148.981 81.7119 149.137 81.7119Z"
    fill="#231F20" />
  <path
    d="M152.944 81.7119C153.1 81.7119 153.227 81.4251 153.227 81.0713C153.227 80.7175 153.1 80.4307 152.944 80.4307C152.788 80.4307 152.661 80.7175 152.661 81.0713C152.661 81.4251 152.788 81.7119 152.944 81.7119Z"
    fill="#231F20" />
  <path
    d="M155.106 91.2281L155.026 91.727L153.794 99.6299H148.17L146.378 91.8132L146.242 91.1973L146.519 91.2773L147.308 91.5053L147.924 91.6777L151.004 92.5524L153.751 91.6408L154.145 91.5114L154.336 91.4437L155.106 91.2281Z"
    fill="#231F20" />
  <path
    d="M153.764 99.938H148.14C148.069 99.9395 148.001 99.9163 147.945 99.8724C147.89 99.8285 147.852 99.7668 147.838 99.6978L145.91 91.2959C145.899 91.2443 145.901 91.1907 145.916 91.1401C145.931 91.0895 145.959 91.0435 145.996 91.0064C146.035 90.9679 146.084 90.9406 146.137 90.9276C146.19 90.9146 146.246 90.9163 146.298 90.9325L150.992 92.2691L154.072 91.2528H154.115L155.039 90.9448C155.089 90.9298 155.142 90.9278 155.194 90.9388C155.245 90.9499 155.293 90.9737 155.333 91.008C155.373 91.0423 155.403 91.0861 155.422 91.1353C155.44 91.1846 155.446 91.2377 155.439 91.2897L155.353 91.7887L154.065 99.6732C154.055 99.7461 154.019 99.8129 153.964 99.8615C153.908 99.9101 153.837 99.9373 153.764 99.938ZM148.38 99.322H153.499L154.731 91.6778L154.262 91.838H154.207L151.127 92.8666C151.064 92.8914 150.993 92.8914 150.93 92.8666L146.668 91.6347L148.38 99.322Z"
    fill="#231F20" />
  <path
    d="M154.422 89.7686C154.318 89.7686 150.967 92.5897 150.967 92.5897L153.036 95.0043L155.112 91.2223L154.422 89.7686Z"
    fill="white" />
  <path
    d="M153.012 95.3127C152.968 95.3118 152.925 95.3015 152.886 95.2823C152.847 95.2632 152.812 95.2357 152.784 95.2018L150.708 92.7872C150.682 92.7572 150.661 92.7221 150.648 92.6839C150.636 92.6458 150.631 92.6055 150.634 92.5655C150.642 92.4818 150.681 92.4044 150.745 92.3499C154.182 89.4609 154.256 89.4609 154.398 89.4609C154.457 89.4606 154.514 89.4773 154.563 89.5091C154.612 89.5408 154.651 89.5861 154.675 89.6396L155.365 91.0933C155.386 91.1375 155.397 91.1859 155.397 91.235C155.397 91.284 155.386 91.3324 155.365 91.3766L153.289 95.1525C153.265 95.1954 153.231 95.2322 153.191 95.2599C153.15 95.2877 153.104 95.3058 153.055 95.3127H153.012ZM151.38 92.6209L152.957 94.4688L154.743 91.2226L154.275 90.2371C153.733 90.6806 152.396 91.7955 151.404 92.6209H151.38Z"
    fill="#231F20" />
  <path
    d="M146.963 89.7441C147.074 89.7441 150.998 92.5899 150.998 92.5899L148.601 95.0046L146.236 91.2225L146.963 89.7441Z"
    fill="white" />
  <path
    d="M148.602 95.3129C148.556 95.3064 148.512 95.2905 148.473 95.2661C148.433 95.2417 148.4 95.2094 148.374 95.1712L145.977 91.3892C145.952 91.3431 145.938 91.2911 145.938 91.2382C145.938 91.1854 145.952 91.1334 145.977 91.0873L146.729 89.6028C146.756 89.553 146.796 89.5114 146.845 89.4821C146.894 89.4529 146.949 89.4372 147.006 89.4365C147.129 89.4365 147.216 89.4365 151.226 92.3378C151.261 92.3645 151.29 92.3985 151.312 92.4374C151.333 92.4763 151.346 92.5193 151.349 92.5635C151.353 92.6078 151.347 92.6522 151.332 92.694C151.317 92.7358 151.293 92.7739 151.263 92.8059L148.866 95.2205C148.833 95.2562 148.791 95.2833 148.745 95.2994C148.699 95.3155 148.65 95.3201 148.602 95.3129ZM146.563 91.2105L148.657 94.5121L150.505 92.6273C149.31 91.7649 147.684 90.6007 147.062 90.1634L146.563 91.2105Z"
    fill="#231F20" />
  <path
    d="M166.81 99.6299H162.868C163.484 97.4432 163.952 95.6446 164.026 95.3736C164.027 95.3613 164.027 95.3489 164.026 95.3366C164.026 95.3366 164.377 95.0409 164.833 95.7493C164.931 95.9341 165.75 97.4494 166.81 99.6299Z"
    fill="#C4D7D1" />
  <path
    d="M115.247 99.6306H85.2056C85.4889 97.1667 86.1665 94.9738 87.7434 94.5119C87.7434 94.5119 94.1495 91.9063 95.3322 91.432L95.4246 91.4012C96.0592 91.2937 96.7044 91.2627 97.3464 91.3088C99.4161 91.3396 102.391 91.5429 102.712 91.5675L102.816 91.6045C103.143 91.7092 104.159 92.0418 105.354 92.4976C105.637 92.5962 105.927 92.7132 106.229 92.8364C106.229 92.8364 107.91 93.2368 109.783 93.8959C111.655 94.555 113.713 95.4728 114.446 96.4953C114.772 96.8895 115.031 98.0352 115.247 99.6306Z"
    fill="#C4D7D1" />
  <path
    d="M92.1968 88.8513C91.755 88.591 91.4109 88.1928 91.2174 87.7179C91.185 87.3493 91.2465 86.9785 91.396 86.64C92.628 82.9441 92.3816 78.7247 94.4759 75.4292C94.7304 74.9749 95.0946 74.5916 95.5354 74.3143C95.755 74.1766 96.0091 74.1035 96.2684 74.1035C96.5277 74.1035 96.7817 74.1766 97.0014 74.3143C98.8493 71.179 103.389 73.415 104.676 75.9405C106.038 78.6138 106.838 81.6814 107.849 84.5025C108.229 85.3519 108.41 86.2767 108.378 87.2067C108.353 87.6708 108.174 88.1134 107.87 88.4647C107.565 88.816 107.153 89.0561 106.697 89.147L106.21 88.2969C106.314 88.4299 106.364 88.5974 106.349 88.7655C106.334 88.9336 106.256 89.0898 106.13 89.2024C105.866 89.4154 105.553 89.5575 105.218 89.6151C101.96 90.4405 98.4428 91.0935 95.289 89.9724C94.8024 89.7999 94.2295 89.3564 94.4266 88.8883C94.1248 89.7691 93.0284 89.4365 92.1968 88.8513Z"
    fill="white" />
  <path
    d="M99.0094 90.8955C97.7045 90.9107 96.4065 90.7023 95.1719 90.2795C94.7971 90.1528 94.4674 89.9194 94.2233 89.6081L94.057 89.682C93.287 89.9345 92.3015 89.3063 92.0181 89.1091C91.784 88.9428 91.0141 88.3638 90.9032 87.7725C90.8568 87.3674 90.9184 86.9572 91.0818 86.5836C91.5227 85.1325 91.8522 83.6499 92.0674 82.1486C92.4678 79.7771 92.8866 77.3256 94.1987 75.2497C94.4787 74.749 94.8787 74.3256 95.3629 74.0178C95.5905 73.8835 95.8455 73.8021 96.1088 73.7797C96.3722 73.7573 96.6373 73.7945 96.8843 73.8884C97.201 73.4172 97.6352 73.0368 98.1441 72.7851C98.653 72.5334 99.2188 72.4189 99.7856 72.4532C100.851 72.555 101.876 72.9114 102.774 73.4925C103.672 74.0735 104.418 74.8621 104.947 75.7918C105.874 77.7427 106.652 79.7606 107.276 81.8283C107.559 82.6969 107.836 83.5531 108.138 84.3908C108.535 85.2852 108.723 86.2586 108.686 87.2366C108.645 87.7712 108.43 88.2777 108.074 88.679C107.718 89.0803 107.241 89.3546 106.715 89.4602C106.659 89.4663 106.603 89.4569 106.552 89.433C106.5 89.4091 106.457 89.3716 106.426 89.3247L106.34 89.4171C106.04 89.6749 105.676 89.8472 105.286 89.9161C103.242 90.4986 101.134 90.8275 99.0094 90.8955ZM94.6976 89.0475C94.6826 89.0936 94.6826 89.1432 94.6976 89.1892C94.8574 89.4264 95.0948 89.6007 95.369 89.682C98.4119 90.76 101.855 90.144 105.12 89.3186C105.397 89.276 105.658 89.1613 105.878 88.9859C105.959 88.9036 106.008 88.7939 106.013 88.678C106.016 88.6658 106.016 88.6531 106.013 88.641L105.914 88.4624C105.876 88.3964 105.863 88.3188 105.878 88.244C105.893 88.1692 105.934 88.1023 105.995 88.0558C106.051 88.0047 106.125 87.9765 106.201 87.9765C106.277 87.9765 106.351 88.0047 106.407 88.0558C106.505 88.1425 106.576 88.256 106.611 88.3823L106.845 88.7827C107.177 88.6529 107.466 88.432 107.678 88.1455C107.891 87.8589 108.018 87.5183 108.046 87.1627C108.068 86.2811 107.893 85.4057 107.535 84.6002C107.233 83.7563 106.919 82.894 106.666 82.0254C106.054 79.987 105.288 77.9979 104.375 76.0751C103.902 75.2424 103.237 74.5357 102.434 74.0146C101.63 73.4935 100.714 73.1735 99.7609 73.0815C99.2549 73.048 98.7499 73.1602 98.3056 73.4047C97.8613 73.6492 97.4964 74.0159 97.2539 74.4613C97.2335 74.501 97.2038 74.5351 97.1673 74.5609C97.1308 74.5866 97.0887 74.6032 97.0445 74.6091C97.0008 74.6183 96.9558 74.6181 96.9122 74.6086C96.8687 74.599 96.8277 74.5803 96.7919 74.5537C96.6235 74.4495 96.4294 74.3943 96.2314 74.3943C96.0334 74.3943 95.8393 74.4495 95.6708 74.5537C95.2796 74.8065 94.956 75.1512 94.7284 75.5577C93.4965 77.5288 93.0961 79.8079 92.6895 82.2226C92.4728 83.7408 92.1392 85.24 91.6917 86.7068C91.5638 86.9951 91.5068 87.3098 91.5253 87.6246C91.7078 88.0137 92.0043 88.3381 92.3754 88.5548C92.5763 88.7296 92.8098 88.8632 93.0624 88.9477C93.315 89.0323 93.5818 89.0662 93.8476 89.0475C93.9037 89.0292 93.9546 88.9979 93.9964 88.9561C94.0381 88.9144 94.0694 88.8634 94.0878 88.8073C94.0868 88.7868 94.0868 88.7662 94.0878 88.7457C94.118 88.6681 94.1779 88.6058 94.2541 88.5723C94.3303 88.5388 94.4167 88.5369 94.4943 88.5671C94.5707 88.5975 94.6329 88.6556 94.6683 88.7299C94.7037 88.8041 94.7097 88.8889 94.6853 88.9675L94.6976 89.0475Z"
    fill="#231F20" />
  <path
    d="M102.502 99.631H98.2701C97.0812 97.1239 97.3461 91.9929 97.3892 91.3276C97.3909 91.3051 97.3909 91.2824 97.3892 91.2599L97.3276 90.4653L97.1675 88.2724V87.9521L97.2044 87.4901L97.4016 85.0693L102.489 85.1186L102.668 88.0876V88.2724L102.785 90.1819L102.847 91.2229V91.2599V91.6233L102.902 92.6335C102.902 92.6335 104.3 97.2102 102.502 99.631Z"
    fill="white" />
  <path
    d="M102.502 99.9442H98.2703C98.2101 99.9446 98.151 99.9281 98.0998 99.8965C98.0486 99.8649 98.0074 99.8195 97.9807 99.7656C96.7488 97.16 97.0383 91.8996 97.0753 91.3082L96.8535 88.2961L96.909 87.4646L97.1061 85.0376C97.1123 84.9576 97.149 84.883 97.2086 84.8291C97.2682 84.7753 97.3461 84.7463 97.4264 84.7481L102.52 84.8036C102.601 84.8034 102.678 84.834 102.736 84.8889C102.795 84.9439 102.83 85.0192 102.835 85.0992L103.013 88.0682V88.136L103.266 92.5772C103.407 93.0576 104.596 97.3941 102.755 99.821C102.725 99.8597 102.687 99.891 102.643 99.9124C102.599 99.9338 102.551 99.9447 102.502 99.9442ZM98.4735 99.3282H102.342C103.919 97.0368 102.662 92.7866 102.65 92.7373C102.644 92.713 102.644 92.6877 102.65 92.6634L102.391 88.1729C102.391 88.1729 102.391 88.1113 102.391 88.1052L102.237 85.4503L97.7344 85.4072L97.5064 88.3146L97.7344 91.2528C97.7387 91.302 97.7387 91.3515 97.7344 91.4006C97.642 91.9119 97.3771 96.7904 98.4427 99.3098L98.4735 99.3282Z"
    fill="#231F20" />
  <path
    d="M97.1367 88.2715C97.5369 88.9688 98.1069 89.5536 98.7937 89.9716C99.8778 90.6799 101.418 91.3082 102.748 91.0926L102.662 88.0867C101.687 88.2191 100.699 88.2191 99.7238 88.0867C98.8527 88.0286 97.9983 87.8202 97.1983 87.4707L97.1367 88.2715Z"
    fill="#231F20" />
  <path
    d="M102.182 91.4437C100.907 91.3611 99.6793 90.9355 98.6274 90.2117C97.8948 89.7662 97.2883 89.1407 96.8657 88.3946C96.8501 88.3403 96.8501 88.2826 96.8657 88.2283L96.9211 87.446C96.9265 87.396 96.9431 87.3478 96.9698 87.3051C96.9965 87.2624 97.0325 87.2264 97.0751 87.1996C97.12 87.1769 97.1696 87.165 97.2199 87.165C97.2702 87.165 97.3198 87.1769 97.3646 87.1996C98.1352 87.5252 98.9563 87.7148 99.7916 87.7602C100.738 87.8898 101.697 87.8898 102.644 87.7602C102.686 87.7541 102.729 87.7569 102.771 87.7686C102.812 87.7803 102.851 87.8005 102.884 87.8279C102.918 87.855 102.946 87.8896 102.965 87.9291C102.985 87.9686 102.995 88.0119 102.995 88.0558L103.087 91.0556C103.089 91.1305 103.065 91.2037 103.017 91.2615C102.969 91.3193 102.902 91.3578 102.828 91.3698C102.616 91.4147 102.399 91.4394 102.182 91.4437ZM97.4509 88.2037C97.8243 88.8214 98.3422 89.3393 98.96 89.7128C99.974 90.4357 101.189 90.8234 102.434 90.8215L102.36 88.4377C101.47 88.5218 100.573 88.5032 99.6868 88.3823C98.9323 88.3258 98.1876 88.1769 97.4693 87.9388L97.4509 88.2037Z"
    fill="#231F20" />
  <path
    d="M99.73 88.802H100.254C100.841 88.8093 101.424 88.7006 101.97 88.4822C102.515 88.2637 103.012 87.9398 103.432 87.5289C103.852 87.1181 104.187 86.6284 104.417 86.0879C104.648 85.5474 104.769 84.9668 104.775 84.3793C104.726 83.0033 104.597 81.6314 104.387 80.2707C104.387 80.2707 102.323 79.5316 100.691 78.9218C97.9683 77.8931 97.2353 76.4209 97.2353 76.4209C97.1574 77.3967 96.9503 78.3578 96.6193 79.279C96.2637 79.9299 95.8514 80.5483 95.3873 81.1269C95.3873 81.1269 95.3073 83.3321 95.2949 84.2561C95.286 84.8462 95.3938 85.4323 95.6121 85.9807C95.8305 86.529 96.155 87.0288 96.5672 87.4512C96.9794 87.8737 97.471 88.2105 98.0137 88.4423C98.5565 88.6741 99.1398 88.7964 99.73 88.802Z"
    fill="white" />
  <path
    d="M100.303 89.1283H99.724C98.4524 89.112 97.2393 88.5917 96.3511 87.6816C95.4629 86.7715 94.9723 85.546 94.9871 84.2744C94.9871 83.3504 95.0734 81.1391 95.0734 81.1391C95.08 81.0727 95.1033 81.0092 95.1411 80.9543C95.5873 80.3919 95.9811 79.7898 96.3176 79.1556C96.6428 78.2688 96.8499 77.3431 96.9336 76.4022C96.9401 76.3326 96.9687 76.267 97.0153 76.2148C97.0618 76.1627 97.1239 76.1269 97.1923 76.1127C97.2608 76.1001 97.3314 76.1101 97.3937 76.1412C97.4559 76.1724 97.5063 76.2229 97.5373 76.2852C97.5373 76.2852 98.2703 77.665 100.82 78.6259C102.44 79.2419 104.516 79.981 104.516 79.981C104.571 79.9998 104.62 80.0332 104.657 80.0778C104.694 80.1224 104.717 80.1763 104.726 80.2336C104.938 81.6086 105.07 82.9949 105.12 84.3853C105.104 85.6509 104.589 86.8591 103.687 87.7472C102.785 88.6353 101.569 89.1316 100.303 89.1283ZM95.7263 81.2623C95.7263 81.7058 95.6462 83.4798 95.6401 84.2805C95.6336 84.8266 95.7347 85.3685 95.9376 85.8755C96.1406 86.3824 96.4414 86.8444 96.8229 87.2351C97.2045 87.6258 97.6592 87.9375 98.1612 88.1524C98.6632 88.3673 99.2026 88.4812 99.7486 88.4876H100.321C101.415 88.4845 102.464 88.0511 103.241 87.2812C104.017 86.5113 104.46 85.4666 104.473 84.3729C104.431 83.0796 104.312 81.7899 104.116 80.5108C103.58 80.3137 101.941 79.7223 100.605 79.2172C99.4233 78.812 98.3535 78.1347 97.4818 77.24C97.3715 77.981 97.1815 78.7079 96.9151 79.4082C96.5768 80.0615 96.1788 80.6822 95.7263 81.2623Z"
    fill="#231F20" />
  <path
    d="M100.278 84.4711C100.017 84.4736 99.7553 84.4572 99.496 84.4218C99.4546 84.4165 99.4147 84.403 99.3785 84.3821C99.3424 84.3612 99.3108 84.3333 99.2856 84.3001C99.2603 84.2668 99.242 84.2288 99.2316 84.1884C99.2212 84.148 99.2189 84.1059 99.225 84.0645C99.2372 83.9816 99.2815 83.9067 99.3483 83.8561C99.4151 83.8054 99.4991 83.7829 99.5823 83.7935C99.9572 83.8294 100.335 83.8294 100.71 83.7935C100.621 82.7831 100.371 81.7933 99.9703 80.8615C99.9556 80.8219 99.9489 80.7797 99.9505 80.7375C99.9521 80.6952 99.9621 80.6537 99.9799 80.6154C99.9976 80.577 100.023 80.5425 100.054 80.5139C100.085 80.4853 100.122 80.4632 100.161 80.4488C100.241 80.4209 100.328 80.4253 100.404 80.4611C100.48 80.4968 100.539 80.5609 100.568 80.6397C100.888 81.5083 101.603 83.5841 101.233 84.1816C101.195 84.2466 101.143 84.3017 101.08 84.3424C101.016 84.3831 100.944 84.4082 100.87 84.4156C100.674 84.446 100.476 84.4645 100.278 84.4711Z"
    fill="#231F20" />
  <path
    d="M98.2976 81.5421C98.3022 81.1237 98.1681 80.783 97.998 80.7811C97.8279 80.7793 97.6863 81.117 97.6817 81.5354C97.6771 81.9538 97.8112 82.2945 97.9813 82.2964C98.1514 82.2982 98.293 81.9606 98.2976 81.5421Z"
    fill="#231F20" />
  <path
    d="M102.377 81.4425C102.382 81.0241 102.248 80.6834 102.078 80.6815C101.907 80.6797 101.766 81.0173 101.761 81.4358C101.757 81.8542 101.891 82.1949 102.061 82.1967C102.231 82.1986 102.373 81.8609 102.377 81.4425Z"
    fill="#231F20" />
  <path
    d="M105.403 92.5161C105.327 94.9202 104.973 97.3074 104.35 99.6306H101.208C101.874 98.3987 102.607 96.0087 102.742 91.586C102.742 91.4813 102.742 91.3704 102.742 91.2595C102.775 91.2418 102.81 91.2294 102.847 91.2226C103.814 90.7976 105.249 91.5429 105.385 92.0603C105.408 92.211 105.415 92.364 105.403 92.5161Z"
    fill="white" />
  <path
    d="M104.35 99.9449H101.209C101.154 99.945 101.1 99.9309 101.053 99.9039C101.005 99.8768 100.965 99.8379 100.938 99.7909C100.91 99.744 100.896 99.6909 100.896 99.6369C100.896 99.5828 100.91 99.5297 100.938 99.4829C101.553 98.331 102.293 96.0273 102.434 91.5799C102.434 91.4691 102.434 91.3643 102.434 91.2596C102.434 91.205 102.448 91.1512 102.475 91.1037C102.502 91.0561 102.541 91.0165 102.588 90.9886C102.638 90.9572 102.692 90.9343 102.748 90.9208C103.078 90.8084 103.426 90.7651 103.773 90.7937C104.12 90.8223 104.457 90.9222 104.763 91.0872C105.003 91.2042 105.582 91.5245 105.699 91.9742C105.718 92.1564 105.718 92.3401 105.699 92.5224C105.615 94.9563 105.252 97.3725 104.615 99.7231C104.597 99.7819 104.563 99.8342 104.516 99.8737C104.469 99.9131 104.411 99.9378 104.35 99.9449ZM101.72 99.3289H104.11C104.687 97.1133 105.019 94.8412 105.101 92.5532C105.113 92.4282 105.113 92.3024 105.101 92.1774C104.95 91.9611 104.735 91.7974 104.486 91.7093C104.05 91.4749 103.543 91.4112 103.063 91.5307C103.06 91.5737 103.06 91.6169 103.063 91.66C102.921 95.6454 102.293 97.9861 101.707 99.3104L101.72 99.3289Z"
    fill="#231F20" />
  <path
    d="M98.9171 99.6303H95.7818C95.0972 97.1646 94.743 94.6189 94.7285 92.06C94.852 91.7865 95.071 91.5674 95.3445 91.444C95.6419 91.2541 95.9803 91.1378 96.3316 91.1046C96.6829 91.0714 97.0371 91.1223 97.3649 91.253V91.3208C97.4881 95.916 98.2457 98.3552 98.9171 99.6303Z"
    fill="white" />
  <path
    d="M98.9171 99.9439H95.7818C95.7138 99.9437 95.6475 99.9222 95.5923 99.8824C95.5371 99.8426 95.4957 99.7866 95.4738 99.7222C94.5992 96.8148 94.285 92.4906 94.4267 91.9732C94.5708 91.6284 94.8358 91.348 95.172 91.1848C95.5151 90.9713 95.9042 90.8426 96.307 90.8094C96.7097 90.7762 97.1146 90.8394 97.4881 90.9938C97.5395 91.0198 97.5827 91.0594 97.6131 91.1083C97.6436 91.1571 97.66 91.2134 97.6605 91.271V91.3388C97.7837 95.9401 98.5537 98.3116 99.1758 99.4943C99.1998 99.5428 99.211 99.5966 99.2086 99.6507C99.2061 99.7047 99.1899 99.7573 99.1616 99.8034C99.1333 99.8496 99.0938 99.8878 99.0467 99.9145C98.9997 99.9412 98.9466 99.9556 98.8925 99.9563L98.9171 99.9439ZM96.0159 99.328H98.412C97.7961 97.9851 97.1801 95.6321 97.0507 91.4928C96.5222 91.3698 95.9665 91.4605 95.5046 91.7453C95.1782 91.9363 95.0735 92.0964 95.0611 92.1395C95.082 94.5598 95.4027 96.9681 96.0159 99.3095V99.328Z"
    fill="#231F20" />
  <path
    d="M99.8347 86.2269C98.8801 86.2293 97.9529 85.9079 97.2045 85.3153C97.1375 85.2646 97.0934 85.1894 97.0819 85.1063C97.0703 85.0231 97.0923 84.9387 97.1429 84.8718C97.1936 84.8048 97.2687 84.7607 97.3519 84.7491C97.4351 84.7376 97.5194 84.7595 97.5864 84.8102C99.8224 86.5226 102.206 84.9272 102.305 84.8594C102.339 84.8303 102.379 84.8087 102.421 84.7959C102.464 84.7831 102.51 84.7794 102.554 84.7851C102.598 84.7908 102.641 84.8058 102.679 84.8291C102.718 84.8523 102.751 84.8834 102.776 84.9202C102.802 84.957 102.819 84.9987 102.828 85.0427C102.836 85.0867 102.835 85.1319 102.825 85.1756C102.815 85.2192 102.796 85.2602 102.769 85.2959C102.742 85.3316 102.707 85.3613 102.668 85.383C101.818 85.9156 100.838 86.2073 99.8347 86.2269Z"
    fill="#231F20" />
  <path
    d="M141.271 59.6722C141.74 58.7976 142.503 58.2678 142.867 57.3315C143.285 56.0725 143.411 54.7351 143.236 53.4201C143.082 51.603 142.738 49.7551 143.175 47.9934C143.292 47.5252 143.594 46.9832 144.068 47.0201C144.394 47.0201 144.629 47.3466 144.801 47.6361C145.443 48.6833 145.847 49.8588 145.984 51.0794C147.832 50.4265 149.68 48.289 151.219 47.0756C153.174 45.5644 155.153 44.0922 157.157 42.659C157.465 42.4373 157.897 42.2217 158.186 42.4558C158.281 42.5402 158.348 42.6521 158.377 42.7761C158.716 43.7986 157.817 44.7841 156.985 45.4679C155.674 46.5322 154.306 47.5253 152.889 48.443C153.757 47.8825 155.186 52.1389 155.236 52.6193C155.427 54.6274 154.589 55.847 153.338 57.2823C151.49 59.4074 148.411 67.1378 148.411 67.1378C148.546 66.799 145.195 63.7685 144.893 63.442L141.271 59.6722Z"
    fill="white" />
  <path
    d="M148.398 67.4524C148.362 67.461 148.324 67.461 148.287 67.4524C148.23 67.4302 148.18 67.3914 148.145 67.3409C148.11 67.2904 148.091 67.2305 148.09 67.169C147.194 66.1163 146.227 65.1263 145.195 64.2062C144.924 63.9475 144.721 63.7565 144.659 63.6888L141.05 59.9067C141.005 59.8599 140.976 59.8001 140.967 59.736C140.958 59.6719 140.97 59.6066 141 59.5494C141.218 59.1658 141.476 58.8064 141.77 58.4776C142.105 58.1124 142.379 57.6966 142.583 57.2457C142.977 56.0282 143.095 54.7384 142.928 53.4697C142.898 53.1125 142.861 52.7552 142.824 52.398C142.58 50.9217 142.599 49.4142 142.879 47.9445C143.033 47.3285 143.427 46.6756 144.111 46.7125C144.321 46.7511 144.518 46.8387 144.687 46.9682C144.856 47.0978 144.992 47.2656 145.084 47.4578C145.677 48.4267 146.075 49.5023 146.255 50.6239C147.444 49.9634 148.532 49.1334 149.482 48.1601C150.024 47.655 150.542 47.1868 151.047 46.7988C152.981 45.3019 154.983 43.8113 156.997 42.3699C157.718 41.8525 158.155 41.9818 158.402 42.1851C158.538 42.3073 158.639 42.4651 158.691 42.6409C158.999 43.5895 158.5 44.6059 157.194 45.6715C156.055 46.6016 154.86 47.4825 153.628 48.3017C154.576 49.1764 155.525 52.1885 155.556 52.5519C155.765 54.7448 154.792 56.0692 153.585 57.4797C151.78 59.5494 148.7 67.1813 148.7 67.2552C148.676 67.3151 148.634 67.3661 148.58 67.4014C148.526 67.4367 148.463 67.4545 148.398 67.4524ZM141.653 59.6356L145.103 63.2514C145.164 63.3192 145.355 63.4978 145.62 63.7442C146.575 64.6055 147.484 65.5164 148.343 66.473C149.1 64.625 151.521 58.8965 153.104 57.0794C154.25 55.7673 155.112 54.6155 154.952 52.6505C154.872 51.8251 153.548 48.7206 153.104 48.7021C153.036 48.7461 152.952 48.7611 152.873 48.7438C152.793 48.7264 152.723 48.6782 152.679 48.6097C152.657 48.576 152.641 48.538 152.633 48.4981C152.626 48.4582 152.626 48.4172 152.635 48.3775C152.644 48.3379 152.66 48.3003 152.684 48.2672C152.707 48.234 152.737 48.206 152.772 48.1847C154.18 47.2746 155.537 46.2875 156.837 45.228C157.921 44.341 158.359 43.5526 158.137 42.8688C158.12 42.8035 158.086 42.744 158.038 42.6964C157.94 42.6101 157.687 42.6964 157.385 42.9058C155.383 44.341 153.388 45.8255 151.453 47.3223C150.973 47.6919 150.462 48.16 149.926 48.6528C148.694 49.7554 147.462 50.9011 146.138 51.3693C146.093 51.3855 146.046 51.3914 145.999 51.3865C145.953 51.3816 145.908 51.3661 145.868 51.3411C145.828 51.3162 145.794 51.2824 145.77 51.2424C145.745 51.2025 145.73 51.1574 145.725 51.1106C145.592 49.9359 145.203 48.8047 144.585 47.7966C144.407 47.501 144.247 47.3531 144.093 47.3408C143.84 47.3408 143.618 47.7104 143.526 48.08C143.268 49.4796 143.253 50.9133 143.483 52.3179C143.52 52.6813 143.563 53.0447 143.587 53.4081C143.766 54.7707 143.636 56.1561 143.206 57.4613C142.977 57.9705 142.669 58.4403 142.294 58.8534C142.062 59.0984 141.848 59.3599 141.653 59.6356Z"
    fill="#231F20" />
  <path
    d="M84.4724 68.8129C87.1765 59.949 89.4002 52.8776 89.4002 52.8776C89.585 52.9392 92.708 53.9617 97.5927 53.1363C98.5175 52.9844 99.4328 52.7787 100.334 52.5204L100.475 52.4834C100.475 52.4834 102.003 59.7211 103.869 68.8129H84.4724Z"
    fill="#231F20" />
  <path
    d="M126.162 68.8136H100.038C100.26 60.1222 100.389 53.2295 100.389 53.2295L97.6114 53.1433L89.3943 52.8599C89.3943 52.8599 89.3943 58.7548 89.4312 68.7951H72.03C70.6009 63.8181 69.5168 60.1099 70.7241 58.7856C73.1325 56.1246 85.2734 52.4164 85.2734 52.4164C86.6197 52.1163 87.9966 51.9757 89.3758 51.9975C92.7575 51.9113 97.2664 52.0961 100.322 52.2563C102.348 52.3548 103.734 52.4534 103.734 52.4534C103.734 52.4534 113.682 52.4534 115.776 56.0506L126.162 68.8136Z"
    fill="#C4D7D1" />
  <path
    d="M150.154 65.2348C150.154 65.2348 149.642 66.633 148.786 68.8136H135.105L141.148 58.7178L141.653 59.0874L149.427 64.705L150.154 65.2348Z"
    fill="#C4D7D1" />
  <path
    d="M76.2739 37.8855C76.2971 39.1057 76.3938 40.3234 76.5634 41.532C76.7269 42.7552 76.404 43.9938 75.6641 44.9815C75.1734 45.4649 74.5667 45.8139 73.9022 45.9951C73.2377 46.1764 72.5378 46.1837 71.8697 46.0163C70.5475 45.6678 69.2966 45.0903 68.1738 44.3101C68.1831 45.3408 68.4556 46.3521 68.9655 47.248C69.4754 48.1439 70.2058 48.8945 71.0874 49.4288C74.1057 51.3322 80.0005 51.055 83.2221 49.7984C84.4666 49.347 85.5929 48.6199 86.5167 47.6716C87.4405 46.7233 88.1378 45.5783 88.5564 44.3224C89.2771 41.8585 88.6488 39.216 87.6509 36.8629C86.5483 34.2512 84.4479 31.8551 81.3741 31.892C78.6084 31.9167 76.4032 35.4462 76.2739 37.8855Z"
    fill="white" />
  <path
    d="M77.1854 51.1045C74.8077 51.1045 72.4609 50.6733 70.8963 49.6878C69.9658 49.1267 69.1943 48.3369 68.6553 47.3935C68.1162 46.4501 67.8274 45.3845 67.8164 44.298C67.8165 44.2443 67.8315 44.1916 67.8598 44.1459C67.888 44.1002 67.9285 44.0633 67.9766 44.0393C68.0234 44.0123 68.0765 43.998 68.1305 43.998C68.1846 43.998 68.2377 44.0123 68.2845 44.0393C69.3869 44.7998 70.6122 45.3645 71.9065 45.7086C73.0091 45.9303 74.5059 45.801 75.4114 44.7723C76.0273 44.0516 76.323 42.9675 76.2306 41.5446C76.2306 41.1011 76.1444 40.6514 76.0889 40.2141C75.9714 39.4355 75.9219 38.6482 75.9411 37.8611C76.0766 35.3972 78.2941 31.6089 81.3247 31.5781C84.1151 31.5781 86.4866 33.426 87.8848 36.7338C89.1168 39.6659 89.4371 42.2776 88.8026 44.4089C88.3701 45.7134 87.6461 46.9023 86.6855 47.8853C85.7249 48.8682 84.5531 49.6195 83.2589 50.082C81.3097 50.7751 79.2541 51.1212 77.1854 51.1045ZM68.4693 44.8524C68.5749 45.7318 68.8772 46.5761 69.3539 47.3225C69.8306 48.069 70.4694 48.6985 71.2227 49.1642C74.0069 50.9197 79.7786 50.7904 83.0864 49.503C84.2888 49.0729 85.3774 48.3745 86.2697 47.4609C87.1619 46.5473 87.8344 45.4425 88.2359 44.2302C88.8519 42.216 88.5316 39.7706 87.3428 36.9741C86.7268 35.5327 84.9405 32.1879 81.4171 32.1879H81.3555C78.7623 32.1879 76.7049 35.6128 76.5817 37.8857C76.5611 38.6361 76.6106 39.3867 76.7296 40.1278C76.785 40.5775 76.8404 41.0395 76.8712 41.4953C76.9698 43.0907 76.6433 44.3288 75.898 45.1912C74.82 46.4231 73.0768 46.5771 71.8079 46.3245C70.618 46.0313 69.4883 45.5331 68.4693 44.8524Z"
    fill="#231F20" />
  <path
    d="M80.8382 36.1724C80.3235 35.945 79.8623 35.612 79.4845 35.195C79.1068 34.778 78.8209 34.2862 78.6453 33.7516C78.4768 33.2143 78.4448 32.6434 78.5523 32.0906C78.6599 31.5377 78.9036 31.0205 79.2613 30.5855C79.484 30.3179 79.7668 30.1068 80.0867 29.9695C80.4046 29.8486 80.7456 29.8002 81.0846 29.8279C81.8409 29.8789 82.5646 30.1556 83.162 30.6223C83.7594 31.089 84.203 31.7242 84.4355 32.4458C85.1623 34.8665 83.3698 37.3243 80.8382 36.1724Z"
    fill="#231F20" />
  <path
    d="M82.0884 36.7704C81.6115 36.7638 81.1414 36.6568 80.7086 36.4563C80.1545 36.2087 79.6583 35.8479 79.252 35.397C78.8457 34.9461 78.5382 34.4152 78.3495 33.8384C78.1669 33.251 78.1338 32.6273 78.2532 32.0239C78.3725 31.4205 78.6407 30.8564 79.0332 30.3828C79.2832 30.0756 79.6046 29.8345 79.9695 29.6806C80.3276 29.5398 80.7132 29.4829 81.0967 29.5142C81.9166 29.5712 82.7007 29.872 83.3483 30.378C83.9959 30.884 84.4774 31.5721 84.731 32.3539C84.949 33.0044 84.9791 33.7032 84.8179 34.37C84.6566 35.0369 84.3105 35.6447 83.8193 36.1237C83.3419 36.5455 82.7254 36.7758 82.0884 36.7704ZM80.9427 35.8957C81.3287 36.111 81.7711 36.2039 82.2111 36.1621C82.6511 36.1203 83.068 35.9458 83.4066 35.6617C83.8095 35.261 84.0913 34.755 84.2198 34.2016C84.3484 33.6482 84.3184 33.0697 84.1335 32.5325C83.9208 31.8691 83.5133 31.285 82.9639 30.8565C82.4145 30.428 81.7489 30.1749 81.0536 30.1302C80.7612 30.11 80.4677 30.1499 80.1912 30.2473C79.917 30.3689 79.6745 30.5523 79.4829 30.7832C79.1589 31.1789 78.9385 31.6491 78.8418 32.1513C78.745 32.6535 78.7748 33.1719 78.9285 33.6598C79.0893 34.1535 79.3523 34.6078 79.7004 34.993C80.0485 35.3783 80.4739 35.6859 80.9489 35.8957H80.9427Z"
    fill="#231F20" />
  <path
    d="M88.9507 15.2855L88.8952 15.3224C88.5565 15.5627 87.3553 16.9671 87.0473 16.9794C74.5246 17.349 79.5571 34.8426 85.8954 39.7704C88.4209 41.7416 92.8252 43.4047 96.0221 42.647C98.3874 42.0803 100.562 40.1031 100.654 37.67C103.118 37.4729 105.773 37.1957 107.596 35.5325C108.658 34.4782 109.416 33.1566 109.789 31.7073C110.876 28.2023 110.542 24.4106 108.859 21.1495C105.847 15.5565 97.8392 12.1132 91.741 13.8934C90.7433 14.2074 89.8016 14.6772 88.9507 15.2855Z"
    fill="white" />
  <path
    d="M94.3401 43.1705C91.214 43.0301 88.2053 41.9384 85.7165 40.0414C81.3492 36.635 77.6411 27.5186 79.5568 21.7346C80.2836 19.5048 82.1808 16.8068 87.0655 16.6775C87.4113 16.3885 87.7385 16.0778 88.0449 15.7473C88.2595 15.5059 88.4945 15.2834 88.7471 15.0821L88.8025 15.039C89.6833 14.4201 90.6562 13.944 91.6853 13.6284C97.8882 11.8174 106.056 15.2792 109.16 21.0201C110.886 24.3517 111.229 28.2291 110.115 31.8119C109.733 33.3178 108.944 34.6898 107.836 35.7788C105.933 37.5097 103.118 37.7992 100.974 37.9717C100.722 40.5526 98.3809 42.4252 96.1203 42.9672C95.5366 43.1027 94.9393 43.1709 94.3401 43.1705ZM95.221 13.7577C94.0796 13.7514 92.9431 13.9069 91.8454 14.2197C90.8797 14.5155 89.967 14.9625 89.1413 15.5441L89.092 15.581C88.8757 15.7751 88.6701 15.9807 88.4761 16.197C87.6507 17.0409 87.3488 17.3058 87.0778 17.3119C83.4436 17.4166 81.109 18.975 80.1358 21.944C78.2879 27.4878 81.8975 36.2901 86.1107 39.5732C88.5746 41.4951 92.8864 43.1336 95.9663 42.3944C98.0791 41.8954 100.278 40.1214 100.364 37.7068C100.368 37.6318 100.399 37.5607 100.451 37.5065C100.503 37.4522 100.573 37.4184 100.648 37.4112C103.247 37.2017 105.723 36.8876 107.423 35.3538C108.448 34.3368 109.174 33.0586 109.524 31.658C110.595 28.2319 110.27 24.5215 108.618 21.3342C106.198 16.8007 100.469 13.7577 95.221 13.7577Z"
    fill="#231F20" />
  <path
    d="M102.927 34.4175C103.574 30.6539 109.838 29.7977 109.481 34.2389C109.417 35.7813 108.81 37.2515 107.769 38.3906C107.238 38.945 106.556 39.3298 105.807 39.4965C105.058 39.6631 104.277 39.6041 103.561 39.3268"
    fill="white" />
  <path
    d="M104.898 39.9244C104.392 39.9297 103.891 39.8224 103.432 39.6103C103.391 39.5966 103.353 39.5744 103.321 39.545C103.289 39.5156 103.263 39.4798 103.246 39.4399C103.229 39.4 103.22 39.3568 103.221 39.3134C103.222 39.2699 103.231 39.2271 103.25 39.1877C103.268 39.1483 103.295 39.1132 103.328 39.0848C103.361 39.0564 103.399 39.0352 103.441 39.0228C103.482 39.0104 103.526 39.0069 103.569 39.0126C103.612 39.0183 103.654 39.033 103.691 39.0559C104.349 39.3098 105.068 39.3616 105.756 39.2047C106.444 39.0478 107.07 38.6893 107.553 38.1751C108.539 37.0872 109.113 35.6877 109.173 34.2205C109.296 32.7052 108.6 31.7566 107.27 31.578C106.357 31.4818 105.442 31.7242 104.697 32.2591C103.952 32.7941 103.429 33.5842 103.229 34.4792C103.215 34.5609 103.169 34.6337 103.102 34.6817C103.034 34.7296 102.95 34.7487 102.868 34.7348C102.787 34.721 102.714 34.6752 102.666 34.6076C102.618 34.54 102.599 34.4562 102.613 34.3745C102.832 33.32 103.437 32.3857 104.311 31.7553C105.184 31.1249 106.261 30.8441 107.331 30.9682C108.631 31.1283 109.955 32.0831 109.795 34.2698C109.714 35.8733 109.075 37.3981 107.99 38.5816C107.177 39.4193 106.066 39.9019 104.898 39.9244Z"
    fill="#231F20" />
  <path
    d="M87.3306 34.2453C86.7701 30.4694 80.518 29.4715 80.7828 33.9188C80.8111 35.4626 81.385 36.9464 82.4028 38.1075C82.9193 38.6765 83.5935 39.0788 84.3395 39.2631C85.0855 39.4474 85.8695 39.4053 86.5915 39.1423"
    fill="white" />
  <path
    d="M85.3223 39.7022C84.7331 39.6934 84.1516 39.5668 83.6121 39.3298C83.0726 39.0928 82.586 38.7503 82.1809 38.3224C81.1152 37.1059 80.5112 35.5534 80.4746 33.9366C80.3453 31.7499 81.7066 30.8568 82.9878 30.6905C84.0617 30.5878 85.135 30.8915 85.9959 31.5415C86.8569 32.1915 87.4429 33.1406 87.6384 34.2015C87.6491 34.2821 87.6281 34.3638 87.5799 34.4293C87.5316 34.4948 87.4599 34.539 87.3797 34.5526C87.3396 34.5587 87.2988 34.5569 87.2594 34.5472C87.2201 34.5375 87.1831 34.5201 87.1504 34.4961C87.1178 34.4721 87.0903 34.4418 87.0694 34.4072C87.0485 34.3725 87.0346 34.334 87.0286 34.2939C86.8488 33.3945 86.3447 32.5925 85.6122 32.0405C84.8796 31.4885 83.9697 31.2251 83.0555 31.3003C81.7189 31.4419 80.9982 32.3905 81.0906 33.8997C81.119 35.3705 81.6617 36.7849 82.6244 37.8974C83.0973 38.421 83.7154 38.7919 84.3999 38.9631C85.0844 39.1342 85.8043 39.0977 86.468 38.8583C86.5055 38.8366 86.5472 38.8232 86.5902 38.8187C86.6332 38.8142 86.6768 38.8189 86.7179 38.8323C86.759 38.8458 86.7968 38.8678 86.8289 38.8969C86.861 38.926 86.8865 38.9615 86.9039 39.0011C86.9214 39.0407 86.9302 39.0836 86.93 39.1268C86.9297 39.1701 86.9203 39.2129 86.9025 39.2523C86.8846 39.2917 86.8586 39.3269 86.8262 39.3556C86.7938 39.3843 86.7557 39.4058 86.7144 39.4188C86.2749 39.6081 85.8009 39.7046 85.3223 39.7022Z"
    fill="#231F20" />
  <path
    d="M89.4002 52.8601C89.4002 52.8601 92.8681 56.1063 95.2827 56.057C97.6973 56.0077 100.377 53.2112 100.377 53.2112L100.223 50.5748L99.8717 44.4459L99.5329 38.7112L89.6773 38.6064L89.3016 43.2817L89.1846 44.8031L89.4002 52.8601Z"
    fill="white" />
  <path
    d="M95.2213 56.3827C92.7204 56.3827 89.3325 53.2351 89.1909 53.0996C89.1605 53.0724 89.136 53.0392 89.119 53.0021C89.1021 52.965 89.093 52.9248 89.0923 52.884L88.9014 44.8517L89.3941 38.6242C89.4004 38.5468 89.4355 38.4747 89.4926 38.4222C89.5497 38.3696 89.6245 38.3406 89.7021 38.3408L99.5577 38.4455C99.6352 38.4469 99.7094 38.4775 99.7653 38.5312C99.8213 38.5849 99.8549 38.6577 99.8596 38.735L100.703 53.2351C100.707 53.278 100.7 53.3211 100.686 53.3614C100.671 53.4018 100.647 53.4385 100.617 53.4691C100.506 53.5862 97.8145 56.3457 95.3075 56.4073L95.2213 56.3827ZM89.6775 52.7361C90.238 53.2412 93.1516 55.7667 95.2213 55.7667H95.2767C97.2848 55.7174 99.5885 53.5862 100.063 53.1119L99.2436 39.0369L90.004 38.9322L89.5358 44.8455L89.6775 52.7361Z"
    fill="#231F20" />
  <path
    d="M89.2092 44.8518C89.9835 46.1963 91.0827 47.3252 92.4061 48.135C94.5066 49.5024 97.6542 51.0485 100.223 50.5989L99.8717 44.4699C97.9891 44.7224 96.0812 44.7224 94.1986 44.4699C92.52 44.376 90.8709 43.9882 89.3263 43.3242L89.2092 44.8518Z"
    fill="#231F20" />
  <path
    d="M99.3176 50.9749C96.6751 50.9749 93.8108 49.3857 92.2339 48.3632C90.8636 47.5292 89.7292 46.3587 88.9384 44.963C88.9081 44.9132 88.8951 44.8547 88.9015 44.7967L89.0185 43.2814C89.0219 43.2308 89.0378 43.1819 89.0646 43.1389C89.0915 43.0959 89.1285 43.0603 89.1725 43.035C89.2169 43.0108 89.2667 42.998 89.3173 42.998C89.3678 42.998 89.4176 43.0108 89.462 43.035C90.9779 43.6758 92.5927 44.0509 94.2358 44.1438C96.0895 44.397 97.969 44.397 99.8227 44.1438C99.8652 44.1377 99.9086 44.1406 99.95 44.1522C99.9914 44.1639 100.03 44.1841 100.063 44.2115C100.096 44.2387 100.124 44.2724 100.144 44.3105C100.164 44.3486 100.176 44.3904 100.18 44.4333L100.531 50.5622C100.537 50.6392 100.513 50.7154 100.465 50.7758C100.417 50.8363 100.349 50.8766 100.272 50.8887C99.9569 50.9426 99.6376 50.9715 99.3176 50.9749ZM89.5236 44.7536C90.2711 46.0154 91.3184 47.0733 92.5727 47.8335C93.8909 48.6897 97.1802 50.6053 99.9028 50.2974L99.5825 44.7844C97.7819 44.9876 95.963 44.9649 94.168 44.7166C92.6047 44.6167 91.0646 44.2867 89.5975 43.7372L89.5236 44.7536Z"
    fill="#231F20" />
  <path
    d="M94.211 45.8441H95.2212C96.3568 45.8587 97.4841 45.6489 98.5383 45.2267C99.5926 44.8045 100.553 44.1782 101.365 43.3838C102.176 42.5894 102.823 41.6425 103.268 40.5975C103.712 39.5525 103.946 38.43 103.956 37.2943L104.048 29.1142C104.048 29.1142 99.2189 27.9377 96.0897 26.755C90.8355 24.7654 89.4187 21.9258 89.4187 21.9258C89.2557 23.8202 88.8414 25.6844 88.1868 27.4695C87.5183 28.7323 86.7435 29.9357 85.8707 31.0668C85.8707 31.0668 85.7167 35.3294 85.6982 37.1095C85.6836 38.242 85.8922 39.3663 86.312 40.4182C86.7319 41.4701 87.3549 42.429 88.1454 43.2401C88.9359 44.0511 89.8785 44.6986 90.9192 45.1454C91.9599 45.5922 93.0785 45.8296 94.211 45.8441Z"
    fill="white" />
  <path
    d="M95.3133 46.1641H95.2148H94.2046C91.8319 46.1365 89.5673 45.1678 87.9086 43.471C86.2499 41.7742 85.3329 39.4882 85.3592 37.1155C85.3592 35.3538 85.5317 31.1097 85.5317 31.0666C85.5341 31.0023 85.5556 30.9402 85.5933 30.888C86.4645 29.7788 87.2374 28.5957 87.9032 27.3523C88.5487 25.607 88.9629 23.7846 89.1351 21.9317C89.1402 21.8643 89.1669 21.8002 89.2113 21.7492C89.2557 21.6981 89.3154 21.6628 89.3815 21.6484C89.4483 21.6367 89.5171 21.6464 89.578 21.6763C89.6389 21.7062 89.6887 21.7547 89.7203 21.8147C89.7203 21.8147 91.1617 24.5804 96.2188 26.4899C99.2987 27.6541 104.097 28.8245 104.14 28.8368C104.208 28.8532 104.269 28.8918 104.312 28.9465C104.356 29.0011 104.38 29.0688 104.38 29.1386L104.288 37.3249C104.256 39.6826 103.295 41.9326 101.615 43.5871C99.9356 45.2417 97.6713 46.1676 95.3133 46.1641ZM86.1415 31.1775C86.1415 31.7935 85.9936 35.4893 85.9752 37.1093C85.9622 38.204 86.1651 39.2905 86.5724 40.3067C86.9797 41.3229 87.5834 42.2488 88.3489 43.0314C89.1144 43.8141 90.0266 44.4381 91.0335 44.8679C92.0404 45.2976 93.1222 45.5246 94.2169 45.5358H95.2209H95.3133C97.5068 45.5328 99.6109 44.6664 101.171 43.124C102.73 41.5817 103.62 39.4874 103.647 37.2941L103.734 29.3665C102.724 29.114 98.695 28.0791 95.9786 27.0566C92.2827 25.646 90.4348 23.8228 89.6341 22.8187C89.4322 24.4483 89.0394 26.0485 88.4637 27.5864C87.7999 28.8512 87.0226 30.0532 86.1415 31.1775Z"
    fill="#231F20" />
  <path
    d="M94.9316 39.7517C94.4436 39.7534 93.9561 39.7246 93.4717 39.6654C93.4313 39.6602 93.3923 39.647 93.3569 39.6267C93.3215 39.6063 93.2905 39.5792 93.2657 39.5469C93.2154 39.4816 93.1931 39.3991 93.2038 39.3174C93.2144 39.2357 93.257 39.1616 93.3223 39.1114C93.3876 39.0611 93.4701 39.0388 93.5518 39.0495C94.3604 39.1382 95.1763 39.1382 95.9849 39.0495C96.3668 38.7846 95.7323 35.9696 94.6359 32.9944C94.6212 32.9569 94.6141 32.9167 94.6151 32.8764C94.6162 32.8361 94.6253 32.7963 94.6419 32.7596C94.6586 32.7228 94.6825 32.6898 94.7121 32.6624C94.7417 32.635 94.7766 32.6139 94.8145 32.6002C94.8525 32.5854 94.8931 32.5782 94.9339 32.5792C94.9746 32.5802 95.0148 32.5892 95.0521 32.6058C95.0893 32.6224 95.1229 32.6463 95.1509 32.676C95.1788 32.7057 95.2006 32.7407 95.2149 32.7788C95.5475 33.6843 97.1922 38.2672 96.5269 39.3513C96.479 39.4379 96.4108 39.5117 96.3282 39.5664C96.2457 39.6211 96.1511 39.6551 96.0526 39.6654C95.6808 39.7148 95.3066 39.7436 94.9316 39.7517Z"
    fill="#231F20" />
  <path
    d="M91.4525 31.8246C91.4614 31.0149 91.2011 30.3557 90.8711 30.3521C90.5412 30.3484 90.2665 31.0018 90.2576 31.8114C90.2487 32.621 90.5089 33.2803 90.8389 33.2839C91.1689 33.2875 91.4436 32.6342 91.4525 31.8246Z"
    fill="#231F20" />
  <path
    d="M99.3312 31.638C99.3401 30.8284 99.0798 30.1692 98.7498 30.1655C98.4198 30.1619 98.1451 30.8153 98.1362 31.6249C98.1273 32.4345 98.3876 33.0938 98.7176 33.0974C99.0475 33.101 99.3223 32.4476 99.3312 31.638Z"
    fill="#231F20" />
  <path
    d="M94.938 41.772C94.7532 41.772 94.5684 41.772 94.3836 41.772C92.3308 41.501 90.4674 40.4321 89.1971 38.7968C89.1728 38.7645 89.1552 38.7276 89.1451 38.6885C89.1351 38.6493 89.1329 38.6085 89.1386 38.5685C89.1443 38.5284 89.1579 38.4899 89.1785 38.4551C89.1991 38.4203 89.2263 38.3899 89.2587 38.3656C89.3253 38.3188 89.4075 38.2998 89.488 38.3124C89.5684 38.325 89.6408 38.3684 89.6899 38.4334C89.6899 38.4334 91.5378 40.8973 94.4452 41.156C96.4409 41.3346 98.4798 40.4476 100.506 38.5196C100.535 38.4881 100.569 38.4628 100.608 38.4453C100.646 38.4277 100.688 38.4183 100.731 38.4176C100.773 38.417 100.815 38.425 100.854 38.4414C100.893 38.4577 100.928 38.4819 100.958 38.5125C100.987 38.5431 101.01 38.5794 101.024 38.6191C101.039 38.6589 101.045 38.7012 101.043 38.7435C101.04 38.7858 101.029 38.8272 101.01 38.865C100.991 38.9027 100.964 38.9362 100.931 38.9631C98.9541 40.8357 96.9584 41.772 94.938 41.772Z"
    fill="#231F20" />
  <path
    d="M88.0203 19.381C89.3138 22.7381 91.0201 26.1074 93.909 28.2572C95.3854 29.2914 96.9955 30.1203 98.6951 30.7211C101.221 31.7005 103.691 31.8237 105.834 33.5915C107.859 35.2552 109.309 37.5136 109.98 40.0469C110.733 38.0457 111.031 35.9021 110.853 33.7713C110.675 31.6406 110.026 29.5761 108.951 27.7275C106.925 24.3026 103.58 21.9003 100.278 19.6828C98.4733 18.4509 96.5084 17.2189 94.334 17.2805"
    fill="white" />
  <path
    d="M109.98 40.3248C109.915 40.3218 109.852 40.2981 109.801 40.2572C109.75 40.2162 109.714 40.1601 109.697 40.0969C109.045 37.6243 107.631 35.4196 105.656 33.7955C104.258 32.6436 102.712 32.2125 101.067 31.7566C100.266 31.5349 99.4407 31.3008 98.603 30.9805C96.8808 30.3785 95.2465 29.5499 93.7429 28.5166C90.6076 26.1821 88.8952 22.4739 87.7495 19.5049C87.735 19.4669 87.728 19.4264 87.7291 19.3857C87.7302 19.345 87.7393 19.3049 87.7559 19.2677C87.7725 19.2305 87.7962 19.197 87.8258 19.169C87.8553 19.141 87.8901 19.1191 87.9281 19.1045C87.9662 19.09 88.0067 19.083 88.0474 19.0841C88.0881 19.0852 88.1282 19.0943 88.1653 19.1109C88.2025 19.1275 88.2361 19.1513 88.2641 19.1808C88.2921 19.2104 88.314 19.2451 88.3285 19.2832C89.4373 22.1782 91.1004 25.7817 94.1125 28.0238C95.5611 29.0272 97.1403 29.8272 98.8062 30.4015C99.6132 30.7156 100.426 30.9435 101.215 31.1653C102.921 31.6396 104.535 32.0893 106.032 33.3212C107.847 34.8218 109.219 36.7898 109.998 39.0128C110.542 37.1618 110.704 35.2196 110.474 33.3041C110.244 31.3886 109.628 29.5398 108.662 27.8698C106.685 24.5251 103.34 22.1105 100.081 19.9299C98.2334 18.6672 96.3855 17.5584 94.3158 17.5769C94.2747 17.5805 94.2333 17.5752 94.1944 17.5615C94.1555 17.5477 94.12 17.5258 94.0903 17.4972C94.0605 17.4687 94.0372 17.4341 94.0219 17.3957C94.0067 17.3574 93.9997 17.3163 94.0016 17.2751C94.0016 17.1939 94.033 17.1158 94.0893 17.0572C94.1455 16.9986 94.2223 16.9641 94.3035 16.9609C96.521 16.9609 98.4675 18.1005 100.426 19.4248C103.74 21.6485 107.147 24.1062 109.192 27.568C110.282 29.4558 110.941 31.5613 111.122 33.7337C111.303 35.9061 111.001 38.0917 110.239 40.1339C110.219 40.1873 110.184 40.2337 110.138 40.2676C110.092 40.3015 110.037 40.3214 109.98 40.3248Z"
    fill="#231F20" />
  <path d="M74.2781 68.8133H58.5215C64.7428 63.4605 70.7239 58.8037 70.7239 58.8037L74.2781 68.8133Z" fill="#C4D7D1" />
  <path
    d="M115.345 69.121H115.277C115.238 69.113 115.2 69.0972 115.167 69.0745C115.134 69.0517 115.106 69.0226 115.084 68.9887C115.062 68.9548 115.047 68.9169 115.04 68.8772C115.033 68.8376 115.034 68.7969 115.043 68.7576C115.357 67.3039 115.659 66.0966 115.949 65.1542C115.955 65.1106 115.971 65.069 115.995 65.032C116.019 64.9951 116.051 64.9637 116.088 64.94C116.125 64.9163 116.167 64.9008 116.21 64.8946C116.254 64.8885 116.298 64.8917 116.34 64.9042C116.383 64.9166 116.422 64.938 116.455 64.9668C116.488 64.9957 116.515 65.0313 116.533 65.0713C116.552 65.1114 116.561 65.1549 116.561 65.1989C116.562 65.243 116.552 65.2865 116.534 65.3267C116.257 66.2568 115.955 67.4518 115.641 68.887C115.625 68.9538 115.588 69.0133 115.534 69.0559C115.48 69.0984 115.414 69.1214 115.345 69.121Z"
    fill="#231F20" />
  <path d="M146.273 50.6914C146.273 50.6914 149.569 51.5168 148.608 55.8348L146.273 50.6914Z" fill="white" />
  <path
    d="M148.607 56.1433H148.54C148.5 56.1353 148.463 56.1195 148.43 56.0967C148.396 56.074 148.368 56.0448 148.346 56.011C148.324 55.9771 148.309 55.9392 148.302 55.8995C148.296 55.8598 148.297 55.8192 148.306 55.7799C149.186 51.8192 146.322 51.0369 146.199 50.9999C146.16 50.9906 146.123 50.9735 146.091 50.9498C146.058 50.9261 146.031 50.8961 146.011 50.8617C145.99 50.8273 145.976 50.7891 145.971 50.7494C145.965 50.7097 145.967 50.6692 145.977 50.6304C145.998 50.5521 146.048 50.4847 146.116 50.4423C146.185 50.3998 146.268 50.3855 146.347 50.4024C146.384 50.4024 149.92 51.351 148.909 55.9092C148.892 55.976 148.853 56.0351 148.798 56.0774C148.743 56.1197 148.677 56.1429 148.607 56.1433Z"
    fill="#231F20" />
  <path
    d="M92.6773 108.094C93.9938 108.094 95.0611 107.027 95.0611 105.71C95.0611 104.393 93.9938 103.326 92.6773 103.326C91.3607 103.326 90.2935 104.393 90.2935 105.71C90.2935 107.027 91.3607 108.094 92.6773 108.094Z"
    fill="#C4D7D1" />
  <path
    d="M101.486 108.094C102.802 108.094 103.87 107.027 103.87 105.71C103.87 104.393 102.802 103.326 101.486 103.326C100.169 103.326 99.1021 104.393 99.1021 105.71C99.1021 107.027 100.169 108.094 101.486 108.094Z"
    fill="#C4D7D1" />
  <path
    d="M110.288 108.094C111.605 108.094 112.672 107.027 112.672 105.71C112.672 104.393 111.605 103.326 110.288 103.326C108.972 103.326 107.904 104.393 107.904 105.71C107.904 107.027 108.972 108.094 110.288 108.094Z"
    fill="#C4D7D1" />
  <path
    d="M174.688 69.1216H28.2772C28.1955 69.1216 28.1172 69.0891 28.0594 69.0314C28.0017 68.9736 27.9692 68.8953 27.9692 68.8136V10.0804C27.9708 9.99926 28.0038 9.92183 28.0612 9.86441C28.1186 9.80699 28.196 9.77404 28.2772 9.77246H174.688C174.769 9.77404 174.847 9.80699 174.904 9.86441C174.962 9.92183 174.995 9.99926 174.996 10.0804V68.8136C174.996 68.8953 174.964 68.9736 174.906 69.0314C174.848 69.0891 174.77 69.1216 174.688 69.1216ZM28.5852 68.5056H174.38V10.3884H28.5852V68.5056Z"
    fill="#231F20" />
  <path
    d="M75.7873 99.938H28.2772C28.196 99.9364 28.1186 99.9035 28.0612 99.8461C28.0038 99.7886 27.9708 99.7112 27.9692 99.63V71.597C27.9708 71.5159 28.0038 71.4384 28.0612 71.381C28.1186 71.3236 28.196 71.2906 28.2772 71.2891H75.7873C75.8685 71.2906 75.9459 71.3236 76.0033 71.381C76.0608 71.4384 76.0937 71.5159 76.0953 71.597V99.63C76.0937 99.7112 76.0608 99.7886 76.0033 99.8461C75.9459 99.9035 75.8685 99.9364 75.7873 99.938ZM28.5852 99.322H75.4793V71.905H28.5852V99.322Z"
    fill="#231F20" />
  <path
    d="M125.231 99.938H77.7335C77.6518 99.938 77.5735 99.9056 77.5157 99.8478C77.458 99.7901 77.4255 99.7117 77.4255 99.63V71.597C77.4255 71.5154 77.458 71.437 77.5157 71.3793C77.5735 71.3215 77.6518 71.2891 77.7335 71.2891H125.231C125.313 71.2891 125.391 71.3215 125.449 71.3793C125.507 71.437 125.539 71.5154 125.539 71.597V99.63C125.539 99.6705 125.531 99.7105 125.516 99.7479C125.5 99.7853 125.478 99.8192 125.449 99.8478C125.42 99.8764 125.387 99.8991 125.349 99.9146C125.312 99.93 125.272 99.938 125.231 99.938ZM78.0415 99.322H124.923V71.905H78.0415V99.322Z"
    fill="#231F20" />
  <path
    d="M174.688 99.938H127.184C127.102 99.938 127.024 99.9056 126.966 99.8478C126.908 99.7901 126.876 99.7117 126.876 99.63V71.597C126.876 71.5154 126.908 71.437 126.966 71.3793C127.024 71.3215 127.102 71.2891 127.184 71.2891H174.688C174.77 71.2891 174.848 71.3215 174.906 71.3793C174.963 71.437 174.996 71.5154 174.996 71.597V99.63C174.996 99.6705 174.988 99.7105 174.972 99.7479C174.957 99.7853 174.934 99.8192 174.906 99.8478C174.877 99.8764 174.843 99.8991 174.806 99.9146C174.768 99.93 174.728 99.938 174.688 99.938ZM127.492 99.322H174.38V71.905H127.492V99.322Z"
    fill="#231F20" />
  <path
    d="M72.5778 73.1934H64.5578C64.0271 73.1934 63.5969 73.6222 63.5969 74.1512C63.5969 74.6802 64.0271 75.109 64.5578 75.109H72.5778C73.1085 75.109 73.5387 74.6802 73.5387 74.1512C73.5387 73.6222 73.1085 73.1934 72.5778 73.1934Z"
    fill="#D1D3D4" />
  <path
    d="M167.112 14.7002H143.101C142.091 14.7002 141.271 15.5179 141.271 16.5266C141.271 17.5352 142.091 18.3529 143.101 18.3529H167.112C168.122 18.3529 168.941 17.5352 168.941 16.5266C168.941 15.5179 168.122 14.7002 167.112 14.7002Z"
    fill="#D1D3D4" />
  <path d="M118.055 119.773H84.9097L82.0146 116.742H120.95L118.055 119.773Z" fill="#939598" />
</svg>
