<svg width="410" height="489" viewBox="0 0 410 489" fill="none" xmlns="http://www.w3.org/2000/svg">
<rect width="410" height="489" rx="20" fill="white"/>
<path d="M259.145 144.147C261.114 142.219 263.641 138.839 261.439 136.027C260.86 135.297 260.007 134.799 259.541 133.997C259.177 133.067 258.971 132.082 258.932 131.084C258.312 127.511 254.872 125.126 251.39 123.979C247.909 122.832 242.519 121.858 239.21 123.979C236.074 126.009 234.704 130.201 231.202 131.886C226.918 133.916 221.052 130.871 217.377 133.845C216.149 134.86 215.408 136.393 214.069 137.255C212.888 137.879 211.567 138.19 210.232 138.159C203.888 138.504 196.732 138.372 192.246 142.868C187.76 147.365 187.902 154.632 189.333 160.803C189.881 163.682 191.007 166.42 192.642 168.852C194.006 170.557 195.696 171.973 197.613 173.018C199.53 174.064 201.635 174.718 203.807 174.942C210.272 175.765 217.479 174.942 220.169 168.325C220.778 166.822 221.184 165.148 222.321 164.011C224.868 161.504 229.223 163.118 232.623 161.981C238.398 160.123 239.423 151.425 245.087 149.212C250.446 147.192 254.658 148.532 259.145 144.147Z" fill="white"/>
<path d="M207.745 175.734C206.411 175.729 205.079 175.638 203.756 175.46C201.517 175.232 199.347 174.559 197.372 173.48C195.397 172.401 193.658 170.938 192.256 169.177C190.582 166.697 189.426 163.904 188.856 160.966C187.537 155.282 186.988 147.477 191.901 142.564C196.093 138.362 202.325 138.068 208.364 137.794C208.983 137.794 209.603 137.794 210.212 137.702C211.461 137.739 212.699 137.452 213.805 136.87C214.479 136.388 215.069 135.799 215.551 135.124C215.998 134.532 216.504 133.988 217.063 133.5C219.215 131.744 222.016 131.917 224.716 132.089C226.898 132.221 229.152 132.363 230.999 131.47C232.722 130.474 234.183 129.082 235.262 127.41C236.27 125.945 237.515 124.659 238.946 123.604C242.793 121.077 249.035 122.701 251.532 123.513C255.907 124.934 258.861 127.725 259.419 130.983C259.47 131.277 259.5 131.582 259.531 131.876C259.554 132.519 259.706 133.151 259.977 133.734C260.241 134.143 260.567 134.509 260.941 134.82C261.261 135.092 261.556 135.39 261.824 135.713C263.662 138.047 262.839 141.255 259.49 144.503C256.516 147.406 253.643 147.893 250.609 148.411C248.79 148.665 247.004 149.11 245.28 149.74C242.661 150.755 241.088 153.252 239.434 155.891C237.779 158.53 235.911 161.514 232.785 162.509C231.327 162.897 229.817 163.058 228.309 162.986C226.137 162.986 224.077 162.986 222.686 164.387C221.918 165.265 221.359 166.306 221.052 167.432C220.92 167.787 220.788 168.142 220.646 168.497C218.728 173.237 214.292 175.734 207.745 175.734ZM222.29 133.003C220.664 132.876 219.046 133.329 217.723 134.282C217.214 134.728 216.752 135.225 216.342 135.764C215.781 136.529 215.094 137.195 214.312 137.733C213.068 138.413 211.67 138.763 210.252 138.748L208.385 138.839C202.548 139.103 196.509 139.387 192.601 143.305C187.841 148.116 188.856 156.287 189.871 160.743C190.409 163.553 191.503 166.228 193.089 168.609C194.412 170.255 196.051 171.62 197.909 172.624C199.767 173.628 201.807 174.251 203.909 174.455C209.664 175.196 217.103 174.699 219.732 168.152C219.874 167.817 219.996 167.472 220.128 167.137C220.485 165.86 221.127 164.68 222.006 163.686C223.691 162.032 226.066 162.022 228.34 162.001C229.74 162.069 231.143 161.925 232.501 161.575C235.272 160.692 236.896 158.114 238.591 155.384C240.286 152.653 241.991 149.963 244.914 148.827C246.703 148.167 248.558 147.704 250.446 147.446C253.491 146.929 256.039 146.492 258.79 143.802C260.495 142.138 263.063 138.951 261.033 136.373C260.8 136.092 260.546 135.831 260.271 135.591C259.813 135.218 259.419 134.772 259.104 134.272C258.76 133.568 258.567 132.801 258.536 132.018C258.536 131.734 258.475 131.46 258.434 131.186C257.937 128.303 255.247 125.806 251.228 124.507C249.391 123.908 243.108 122.132 239.515 124.507C238.177 125.503 237.015 126.714 236.074 128.09C234.899 129.861 233.329 131.335 231.486 132.394C229.405 133.409 227.01 133.246 224.706 133.104C223.853 133.054 223.062 133.003 222.29 133.003Z" fill="#231F20"/>
<path d="M144.572 145.934L144.45 137.611H151.869L152.895 147.872L144.572 145.934Z" fill="white"/>
<path d="M152.904 148.38H152.783L144.46 146.441C144.351 146.415 144.254 146.355 144.182 146.269C144.111 146.183 144.069 146.076 144.064 145.964L143.942 137.641C143.941 137.574 143.953 137.507 143.978 137.444C144.003 137.381 144.04 137.324 144.087 137.276C144.134 137.228 144.191 137.189 144.253 137.163C144.315 137.137 144.382 137.124 144.449 137.124H151.869C151.994 137.123 152.115 137.17 152.207 137.255C152.299 137.339 152.356 137.456 152.366 137.58L153.381 147.842C153.391 147.921 153.382 148.001 153.353 148.075C153.325 148.15 153.279 148.216 153.219 148.268C153.129 148.338 153.019 148.377 152.904 148.38ZM145.079 145.528L152.316 147.213L151.392 138.078H144.957L145.079 145.528Z" fill="#231F20"/>
<path d="M151.869 137.611L152.884 132.363C152.884 132.363 136.188 127.055 137.091 129.592C137.994 132.13 144.47 137.662 144.47 137.662L151.869 137.611Z" fill="#231F20"/>
<path d="M151.869 138.118H144.45C144.331 138.115 144.217 138.072 144.125 137.997C143.851 137.763 137.517 132.292 136.593 129.714C136.53 129.558 136.513 129.388 136.544 129.222C136.574 129.057 136.651 128.903 136.766 128.78C138.146 127.349 148.611 130.475 153.006 131.825C153.122 131.865 153.221 131.945 153.282 132.052C153.344 132.158 153.365 132.283 153.341 132.404L152.316 137.712C152.296 137.82 152.242 137.917 152.161 137.991C152.08 138.064 151.978 138.109 151.869 138.118ZM144.642 137.103H151.453L152.316 132.708C145.942 130.678 138.755 128.963 137.578 129.44C138.349 131.379 142.785 135.5 144.642 137.103Z" fill="#231F20"/>
<path d="M140.623 180.647C140.623 179.845 143.546 143.914 143.546 143.914C143.546 143.914 154.458 143.386 154.194 143.914C153.93 144.442 156.853 180.647 156.853 180.647H140.623Z" fill="#231F20"/>
<path d="M156.853 181.154H140.613C140.476 181.152 140.346 181.097 140.248 181.002C140.156 180.907 140.105 180.779 140.105 180.647C140.105 179.835 142.917 145.345 143.029 143.873C143.041 143.75 143.096 143.635 143.186 143.55C143.275 143.464 143.392 143.413 143.516 143.406C154.143 142.889 154.417 143.315 154.61 143.599C154.681 143.729 154.703 143.881 154.671 144.026C154.559 145.203 156.214 166.518 157.35 180.566C157.359 180.706 157.311 180.845 157.218 180.951C157.175 181.008 157.119 181.056 157.057 181.09C156.994 181.125 156.924 181.147 156.853 181.154ZM141.151 180.139H156.305C154.072 152.43 153.706 145.873 153.696 144.249C152.539 144.107 148.144 144.249 144.013 144.401C143.069 155.982 141.405 176.607 141.151 180.139Z" fill="#231F20"/>
<path d="M253.43 155.698C253.43 155.698 247.523 146.888 248.599 144.33C249.675 141.772 251.288 140.016 252.659 140.463C254.029 140.91 257.795 152.511 257.795 152.511L253.43 155.698Z" fill="white"/>
<path d="M253.43 156.206H253.339C253.204 156.181 253.084 156.104 253.004 155.992C252.385 155.069 246.985 146.857 248.132 144.147C249.411 141.102 251.248 139.478 252.801 139.996C254.354 140.514 257.094 148.806 258.252 152.359C258.287 152.46 258.288 152.571 258.255 152.673C258.222 152.776 258.157 152.865 258.069 152.927L253.725 156.114C253.64 156.178 253.536 156.21 253.43 156.206ZM252.192 140.899C251.258 140.899 249.989 142.341 249.066 144.533C248.396 146.137 251.35 151.638 253.552 154.977L257.176 152.318C255.42 147.01 253.217 141.376 252.456 140.94C252.371 140.912 252.282 140.898 252.192 140.899Z" fill="#231F20"/>
<path d="M116.771 150.106L112.294 143.204L105.991 147.822L109.747 155.272L116.771 150.106Z" fill="white"/>
<path d="M109.747 155.779H109.625C109.553 155.76 109.486 155.726 109.428 155.678C109.37 155.631 109.323 155.572 109.29 155.505L105.534 148.055C105.482 147.948 105.468 147.825 105.496 147.708C105.524 147.592 105.591 147.488 105.687 147.416L112 142.787C112.112 142.708 112.25 142.675 112.386 142.696C112.454 142.707 112.52 142.733 112.577 142.771C112.635 142.81 112.684 142.86 112.721 142.919L117.197 149.811C117.269 149.92 117.297 150.052 117.274 150.181C117.251 150.309 117.18 150.424 117.075 150.501L110.041 155.668C109.959 155.739 109.855 155.778 109.747 155.779ZM106.641 147.974L109.929 154.511L116.09 149.974L112.162 143.934L106.641 147.974Z" fill="#231F20"/>
<path d="M112.294 143.204C112.294 143.204 108.671 137.205 108.559 137.611C108.448 138.017 95.1917 146.929 95.3744 147.863C95.5571 148.796 105.991 147.863 105.991 147.863L112.294 143.204Z" fill="#231F20"/>
<path d="M98.521 148.735C95.07 148.735 94.9686 148.228 94.9077 147.913C94.7757 147.253 95.5268 146.451 104.489 140.037C106.184 138.819 107.93 137.57 108.184 137.316C108.277 137.191 108.415 137.108 108.57 137.083C108.925 137.083 109.219 137.022 112.761 142.95C112.826 143.056 112.848 143.183 112.824 143.305C112.8 143.427 112.73 143.536 112.63 143.609L106.316 148.228C106.241 148.279 106.153 148.31 106.062 148.319C102.581 148.624 100.135 148.735 98.521 148.735ZM96.1358 147.609C99.3727 147.765 102.617 147.67 105.839 147.324L111.655 143.072C110.468 141.042 109.158 139.012 108.61 138.291C108.143 138.656 107.169 139.306 105.088 140.859C102.266 142.838 97.3335 146.37 96.1054 147.609H96.1358Z" fill="#231F20"/>
<path d="M242.519 151.273C243.676 151.669 253.542 172.091 256.556 171.025C259.571 169.959 250.659 154.968 250.659 154.968L258.657 149.233C258.657 149.233 279.079 179.419 271.263 185.986C263.448 192.553 233.8 170.903 233.8 170.903L242.519 151.273Z" fill="black"/>
<path d="M239.373 146.685C239.373 146.685 232.44 138.667 222.118 145.498C211.795 152.329 192.337 164.103 192.337 164.103L198.793 189.396C198.793 189.396 214.485 196.339 233.059 187.255C249.36 179.287 250.203 166.488 248.081 161.169C245.96 155.851 239.373 146.685 239.373 146.685Z" fill="black"/>
<path d="M232.064 184.879C231.957 184.878 231.853 184.843 231.766 184.778C231.68 184.714 231.617 184.624 231.585 184.521C231.554 184.419 231.556 184.308 231.591 184.207C231.626 184.105 231.692 184.017 231.78 183.956C231.922 183.854 246.234 174.161 248.7 163.93C248.736 163.801 248.82 163.69 248.936 163.622C249.051 163.554 249.189 163.533 249.319 163.564C249.45 163.596 249.562 163.677 249.633 163.792C249.703 163.906 249.725 164.043 249.695 164.173C247.127 174.78 232.947 184.392 232.348 184.798C232.264 184.853 232.165 184.881 232.064 184.879Z" fill="#231F20"/>
<path d="M254.912 142.311C254.912 142.311 255.491 147.984 254.466 148.563C253.44 149.141 251.816 147.548 251.816 147.548" fill="white"/>
<path d="M253.958 149.192C253.007 149.055 252.128 148.605 251.461 147.913C251.414 147.866 251.376 147.81 251.35 147.748C251.324 147.686 251.311 147.62 251.311 147.553C251.311 147.486 251.324 147.42 251.35 147.358C251.376 147.296 251.414 147.24 251.461 147.193C251.558 147.099 251.687 147.047 251.821 147.047C251.956 147.047 252.085 147.099 252.182 147.193C252.618 147.619 253.694 148.411 254.212 148.116C254.729 147.822 254.689 145.071 254.405 142.361C254.393 142.294 254.395 142.226 254.41 142.16C254.426 142.094 254.454 142.032 254.494 141.977C254.533 141.922 254.584 141.876 254.642 141.841C254.7 141.805 254.764 141.782 254.831 141.772C254.964 141.761 255.096 141.801 255.2 141.884C255.304 141.967 255.371 142.087 255.389 142.219C255.623 144.462 255.836 148.309 254.679 148.969C254.46 149.101 254.213 149.178 253.958 149.192Z" fill="#231F20"/>
<path d="M239.403 161.991C235.607 158.946 232.978 149.588 233.059 149.405C234.606 146.503 236.3 143.681 238.134 140.95C238.134 140.95 241.179 142.554 244.853 139.874C248.528 137.195 251.958 139.57 257.246 136.434C258.261 138.809 256.14 141.6 255.084 143.539C253.603 146.333 252.053 149.087 250.436 151.801C249.421 153.526 244.803 151.161 244.265 150.207C243.057 153.12 243.057 153.12 239.403 161.991Z" fill="white"/>
<path d="M239.403 162.498C239.283 162.5 239.167 162.457 239.078 162.377C235.323 159.332 232.288 149.852 232.603 149.182C234.145 146.253 235.839 143.407 237.678 140.656C237.745 140.548 237.851 140.471 237.973 140.439C238.096 140.406 238.226 140.422 238.337 140.483C238.449 140.544 241.149 141.904 244.508 139.468C246.19 138.352 248.175 137.781 250.192 137.834C252.564 137.822 254.892 137.189 256.942 135.997C257.005 135.961 257.074 135.938 257.145 135.929C257.217 135.921 257.289 135.926 257.358 135.946C257.427 135.97 257.49 136.008 257.544 136.057C257.598 136.105 257.642 136.164 257.673 136.23C258.617 138.443 257.216 140.838 256.09 142.767C255.876 143.142 255.673 143.488 255.491 143.782C254.009 146.563 252.446 149.354 250.832 152.064C250.633 152.361 250.357 152.599 250.033 152.751C249.709 152.903 249.35 152.964 248.995 152.927C247.321 152.76 245.729 152.127 244.397 151.1L239.839 162.143C239.807 162.215 239.76 162.278 239.7 162.329C239.64 162.38 239.57 162.417 239.494 162.438L239.403 162.498ZM233.587 149.496C233.81 150.511 236.013 157.961 239.2 161.128C242.59 152.917 242.621 152.846 243.788 150.055C243.823 149.966 243.882 149.889 243.96 149.833C244.037 149.777 244.129 149.745 244.224 149.74C244.321 149.734 244.417 149.756 244.501 149.802C244.586 149.849 244.655 149.919 244.701 150.004C245.905 151.094 247.429 151.767 249.046 151.922C249.563 151.922 249.847 151.8 249.989 151.557C251.593 148.857 253.156 146.086 254.628 143.315C254.811 142.97 255.024 142.604 255.247 142.229C256.151 140.676 257.277 138.778 256.932 137.154C254.876 138.219 252.599 138.789 250.284 138.819C248.461 138.757 246.664 139.261 245.138 140.26C244.2 141.028 243.083 141.549 241.892 141.774C240.7 141.999 239.471 141.922 238.317 141.549C237.515 142.787 234.815 146.969 233.587 149.496Z" fill="#231F20"/>
<path d="M251.451 149.72C251.083 149.761 250.712 149.723 250.361 149.607C250.01 149.491 249.688 149.301 249.417 149.05C249.146 148.798 248.933 148.491 248.792 148.15C248.65 147.808 248.585 147.44 248.599 147.071" fill="white"/>
<path d="M251.329 150.227C250.468 150.242 249.631 149.942 248.974 149.385C248.673 149.082 248.439 148.72 248.287 148.321C248.135 147.923 248.068 147.497 248.091 147.07C248.091 146.936 248.145 146.807 248.24 146.712C248.335 146.616 248.464 146.563 248.599 146.563C248.732 146.566 248.858 146.62 248.951 146.715C249.044 146.81 249.096 146.938 249.096 147.07C249.072 147.357 249.11 147.646 249.206 147.917C249.302 148.188 249.455 148.436 249.655 148.644C250.152 149.038 250.776 149.24 251.41 149.212C251.478 149.205 251.546 149.212 251.61 149.233C251.675 149.253 251.734 149.287 251.785 149.332C251.835 149.377 251.876 149.432 251.904 149.493C251.932 149.555 251.947 149.622 251.948 149.689C251.957 149.822 251.913 149.953 251.825 150.054C251.738 150.154 251.614 150.217 251.482 150.227H251.329Z" fill="#231F20"/>
<path d="M244.255 150.248C243.606 149.862 243.044 149.346 242.604 148.733C242.164 148.12 241.855 147.423 241.697 146.685C241.697 146.685 239.606 151.06 242.61 154.206L244.255 150.248Z" fill="#231F20"/>
<path d="M242.651 154.714C242.583 154.715 242.515 154.702 242.453 154.675C242.39 154.649 242.333 154.61 242.286 154.561C239.068 151.202 241.189 146.665 241.271 146.441C241.318 146.342 241.395 146.261 241.492 146.21C241.589 146.158 241.7 146.14 241.809 146.157C241.918 146.177 242.017 146.231 242.094 146.312C242.17 146.392 242.22 146.494 242.235 146.604C242.386 147.261 242.667 147.881 243.063 148.427C243.459 148.973 243.961 149.433 244.539 149.781C244.646 149.841 244.727 149.938 244.766 150.054C244.805 150.171 244.8 150.297 244.752 150.41L243.108 154.368C243.077 154.447 243.026 154.517 242.96 154.571C242.895 154.624 242.816 154.659 242.732 154.673L242.651 154.714ZM241.738 148.299C241.506 149.128 241.456 149.998 241.589 150.849C241.722 151.7 242.035 152.512 242.509 153.232L243.666 150.44C242.856 149.885 242.183 149.153 241.697 148.299H241.738Z" fill="#231F20"/>
<path d="M255.051 140.7C255.378 140.17 255.472 139.636 255.262 139.506C255.052 139.377 254.617 139.702 254.291 140.232C253.965 140.761 253.87 141.296 254.08 141.425C254.291 141.554 254.725 141.23 255.051 140.7Z" fill="#231F20"/>
<path d="M248.457 140.758C248.746 140.019 248.82 139.213 248.67 138.433C248.648 137.817 248.532 137.208 248.325 136.627C248.218 136.338 248.049 136.076 247.83 135.861C247.611 135.645 247.346 135.48 247.056 135.378C246.791 135.315 246.516 135.308 246.248 135.359C245.98 135.41 245.726 135.517 245.503 135.673C245.058 135.989 244.69 136.402 244.427 136.88C243.834 137.912 243.522 139.081 243.522 140.27C243.522 141.46 243.834 142.629 244.427 143.661L244.366 143.407" fill="white"/>
<path d="M244.407 144.168C244.319 144.166 244.232 144.142 244.156 144.098C244.079 144.053 244.015 143.99 243.97 143.914C243.335 142.803 243 141.545 243 140.265C243 138.985 243.335 137.727 243.97 136.616C244.27 136.071 244.69 135.603 245.199 135.246C245.484 135.048 245.808 134.914 246.149 134.852C246.491 134.791 246.842 134.804 247.178 134.891C247.543 135.011 247.875 135.212 248.151 135.479C248.427 135.747 248.639 136.073 248.771 136.433C249.003 137.058 249.133 137.716 249.157 138.382C249.315 139.26 249.22 140.165 248.883 140.991C248.822 141.11 248.717 141.201 248.589 141.243C248.462 141.285 248.323 141.274 248.203 141.214C248.083 141.153 247.993 141.047 247.951 140.92C247.909 140.793 247.919 140.654 247.98 140.534C248.22 139.885 248.279 139.184 248.152 138.504C248.121 137.941 248.015 137.385 247.838 136.85C247.759 136.631 247.634 136.433 247.471 136.268C247.308 136.103 247.111 135.976 246.894 135.895C246.698 135.853 246.496 135.852 246.301 135.893C246.105 135.933 245.92 136.013 245.757 136.129C245.379 136.394 245.067 136.741 244.843 137.144C244.305 138.076 244.014 139.132 244 140.209C243.986 141.286 244.248 142.348 244.762 143.295H244.813L244.884 143.549C244.913 143.667 244.9 143.792 244.846 143.902C244.792 144.011 244.701 144.098 244.59 144.147C244.531 144.166 244.469 144.173 244.407 144.168Z" fill="#231F20"/>
<path d="M192.337 164.102C187.374 162.072 175.539 164.549 168.079 167.036C160.619 169.522 136.076 176.211 136.076 176.211L118.08 147.862C118.08 147.862 105.311 152.47 106.022 153.536C106.732 154.602 118.821 183.387 130.859 189.193C142.897 194.999 200.143 189.68 200.143 189.68L192.337 164.102Z" fill="#231F20"/>
<path d="M156.152 192.431C144.987 192.431 135.01 191.751 130.645 189.65C123.54 186.23 115.42 174.72 106.397 155.435C106.011 154.612 105.676 153.892 105.595 153.78C105.539 153.69 105.503 153.589 105.491 153.484C105.478 153.378 105.49 153.271 105.524 153.171C105.981 151.781 114.345 148.634 117.917 147.345C118.025 147.306 118.143 147.305 118.252 147.342C118.361 147.379 118.454 147.451 118.516 147.548L136.248 175.623C139.293 174.78 161.055 168.792 167.926 166.488C174.016 164.458 186.927 161.261 192.53 163.575C192.599 163.606 192.66 163.651 192.711 163.707C192.762 163.762 192.8 163.828 192.824 163.9L200.63 189.528C200.65 189.6 200.655 189.675 200.645 189.748C200.634 189.821 200.608 189.892 200.569 189.955C200.525 190.016 200.469 190.068 200.405 190.106C200.34 190.145 200.268 190.169 200.193 190.178C198.701 190.32 175.722 192.431 156.152 192.431ZM106.549 153.415C106.681 153.668 106.915 154.156 107.311 155.008C116.232 174.08 124.231 185.458 131.082 188.737C142.247 194.116 193.261 189.752 199.483 189.234L191.901 164.438C186.826 162.55 175.021 165.189 168.221 167.483C160.842 169.939 136.39 176.618 136.137 176.719C136.032 176.748 135.921 176.742 135.82 176.701C135.719 176.661 135.634 176.589 135.578 176.496L117.877 148.431C112.731 150.288 107.371 152.572 106.549 153.415Z" fill="#231F20"/>
<path d="M241.037 189.569V185.174H269.995L281.891 155.698H323.932L310.138 185.032V189.569H241.037Z" fill="white"/>
<path d="M310.138 190.076H241.037C240.902 190.076 240.773 190.023 240.678 189.928C240.583 189.833 240.529 189.704 240.529 189.569V185.174C240.529 185.039 240.583 184.91 240.678 184.815C240.773 184.72 240.902 184.667 241.037 184.667H269.65L281.424 155.506C281.461 155.412 281.525 155.332 281.608 155.276C281.692 155.22 281.79 155.19 281.891 155.191H323.932C324.017 155.191 324.1 155.213 324.175 155.253C324.249 155.294 324.312 155.353 324.358 155.424C324.4 155.499 324.422 155.583 324.422 155.668C324.422 155.753 324.4 155.837 324.358 155.912L310.656 185.144V189.569C310.656 189.636 310.642 189.703 310.616 189.766C310.59 189.828 310.552 189.884 310.503 189.931C310.455 189.979 310.398 190.016 310.335 190.041C310.273 190.066 310.205 190.078 310.138 190.076ZM241.544 189.061H309.641V185.001C309.643 184.928 309.66 184.855 309.691 184.788L323.14 156.175H282.236L270.462 185.418C270.425 185.511 270.36 185.591 270.277 185.647C270.194 185.704 270.095 185.733 269.995 185.732H241.575L241.544 189.061Z" fill="#231F20"/>
<path d="M211.774 151.922C211.774 151.922 216.565 188.828 219.894 189.721C223.224 190.614 257.449 183.448 257.449 183.448L255.115 171.481C255.115 171.481 230.572 175.856 230.968 171.481C231.364 167.107 228.217 150.684 228.217 150.684L211.774 151.922Z" fill="black"/>
<path d="M220.108 189.559C218.883 189.587 217.659 189.492 216.454 189.275C214.079 188.767 212.343 186.331 211.277 182.038C209.988 176.831 210.019 170.243 210.151 166.813C210.151 166.731 210.476 158.348 211.44 157.536C211.544 157.45 211.678 157.408 211.813 157.419C211.947 157.431 212.072 157.494 212.161 157.596C212.241 157.692 212.285 157.812 212.285 157.937C212.285 158.061 212.241 158.181 212.161 158.277C211.48 159.474 209.725 176.425 213.176 184.667C214.089 186.818 215.266 188.057 216.677 188.361C224.797 190.087 257.074 183.053 257.399 182.982C257.466 182.967 257.535 182.966 257.602 182.978C257.669 182.99 257.733 183.015 257.791 183.051C257.848 183.088 257.898 183.136 257.937 183.192C257.976 183.248 258.004 183.311 258.018 183.377C258.033 183.444 258.034 183.513 258.022 183.58C258.01 183.647 257.985 183.712 257.949 183.769C257.912 183.827 257.864 183.876 257.808 183.915C257.752 183.954 257.689 183.982 257.622 183.997C256.425 184.149 231.486 189.559 220.108 189.559Z" fill="#231F20"/>
<path d="M233.658 173.958C232.895 173.947 232.166 173.637 231.628 173.095C227.375 169.106 227.751 151.374 227.761 150.613C227.771 150.48 227.831 150.356 227.929 150.266C228.027 150.176 228.156 150.126 228.289 150.126C228.355 150.127 228.42 150.142 228.481 150.169C228.541 150.195 228.596 150.234 228.641 150.282C228.687 150.331 228.722 150.387 228.745 150.449C228.768 150.511 228.779 150.577 228.776 150.644C228.776 150.826 228.4 168.68 232.329 172.354C232.519 172.555 232.751 172.712 233.009 172.812C233.267 172.912 233.545 172.953 233.821 172.933C239.911 172.385 254.973 170.903 255.136 170.903C255.268 170.897 255.397 170.94 255.498 171.025C255.6 171.109 255.666 171.229 255.684 171.36C255.691 171.426 255.684 171.494 255.665 171.558C255.646 171.622 255.614 171.682 255.572 171.734C255.529 171.786 255.477 171.829 255.418 171.861C255.359 171.892 255.294 171.912 255.227 171.918C255.075 171.918 240.002 173.38 233.912 173.948L233.658 173.958Z" fill="#231F20"/>
<path d="M256.556 173.43C256.556 173.43 263.824 168.477 265.184 169.726C266.544 170.974 272.705 178.962 271.05 179.561C269.396 180.16 266.686 177.298 266.686 177.298C266.686 177.298 265.072 179.866 258.657 178.962L256.556 173.43Z" fill="white"/>
<path d="M270.563 180.15C269.122 180.15 267.457 178.749 266.706 178.038C265.864 178.8 263.661 180.17 258.586 179.459C258.495 179.448 258.409 179.412 258.337 179.354C258.266 179.297 258.211 179.221 258.18 179.135L256.079 173.613C256.037 173.506 256.034 173.388 256.069 173.279C256.104 173.17 256.176 173.076 256.272 173.014C258.556 171.461 264.037 167.939 265.529 169.36C266.655 170.375 272.218 177.308 271.812 179.338C271.786 179.497 271.717 179.646 271.614 179.769C271.51 179.892 271.375 179.985 271.223 180.038C271.011 180.111 270.788 180.149 270.563 180.15ZM266.686 176.8C266.754 176.798 266.822 176.811 266.885 176.837C266.948 176.864 267.004 176.903 267.051 176.952C268.016 177.967 269.903 179.439 270.878 179.084C271.04 178.526 267.559 172.608 264.839 170.101C264.29 169.604 260.779 171.238 257.175 173.633L259.023 178.495C264.717 179.216 266.249 177.044 266.26 177.023C266.305 176.961 266.362 176.909 266.429 176.871C266.495 176.832 266.569 176.808 266.645 176.8H266.686Z" fill="#231F20"/>
<path d="M140.623 173.948C140.508 173.948 140.395 173.909 140.305 173.837C140.215 173.765 140.151 173.665 140.126 173.552C140.111 173.487 140.109 173.42 140.121 173.355C140.132 173.289 140.157 173.227 140.192 173.171C140.228 173.115 140.275 173.067 140.33 173.03C140.385 172.992 140.447 172.966 140.512 172.953L156.752 169.37C156.882 169.343 157.018 169.368 157.13 169.44C157.242 169.512 157.321 169.626 157.35 169.756C157.365 169.821 157.367 169.889 157.356 169.955C157.345 170.021 157.32 170.084 157.285 170.141C157.249 170.197 157.202 170.246 157.147 170.285C157.092 170.323 157.03 170.35 156.965 170.365L140.725 173.938L140.623 173.948Z" fill="white"/>
<path d="M309.641 185.682H269.954C269.82 185.682 269.691 185.628 269.595 185.533C269.5 185.438 269.447 185.309 269.447 185.174C269.447 185.039 269.5 184.91 269.595 184.815C269.691 184.72 269.82 184.667 269.954 184.667H309.641C309.775 184.669 309.902 184.723 309.997 184.818C310.091 184.913 310.146 185.04 310.148 185.174C310.148 185.309 310.095 185.438 310 185.533C309.904 185.628 309.775 185.682 309.641 185.682Z" fill="#231F20"/>
<path d="M328.926 198.744V348.061C328.926 353.582 322.724 358.069 315.051 358.069H107.991C100.338 358.069 94.1055 353.582 94.1055 348.061V198.744C94.1055 193.223 100.338 188.736 107.991 188.736H315.051C322.734 188.736 328.926 193.223 328.926 198.744Z" fill="white"/>
<path d="M315.061 358.576H108.001C100.064 358.576 93.6084 353.857 93.6084 348.061V198.734C93.6084 192.939 100.064 188.229 108.001 188.229H315.061C322.988 188.229 329.444 192.939 329.444 198.734V348.061C329.444 353.907 322.988 358.576 315.061 358.576ZM108.001 189.244C100.622 189.244 94.6234 193.497 94.6234 198.734V348.061C94.6234 353.298 100.622 357.561 108.001 357.561H315.061C322.43 357.561 328.429 353.298 328.429 348.061V198.734C328.429 193.497 322.43 189.244 315.061 189.244H108.001Z" fill="#231F20"/>
<path d="M328.926 198.744V206.6H94.146V198.744C94.146 193.223 100.378 188.736 108.031 188.736H315.091C322.734 188.736 328.926 193.223 328.926 198.744Z" fill="white"/>
<path d="M328.926 207.108H94.1462C94.0116 207.108 93.8825 207.055 93.7873 206.959C93.6921 206.864 93.6387 206.735 93.6387 206.601V198.734C93.6387 192.939 100.094 188.229 108.031 188.229H315.091C323.019 188.229 329.474 192.939 329.474 198.734V206.601C329.474 206.671 329.46 206.74 329.432 206.805C329.404 206.869 329.363 206.927 329.311 206.975C329.26 207.022 329.199 207.059 329.133 207.082C329.066 207.105 328.996 207.114 328.926 207.108ZM94.6435 206.093H328.428V198.734C328.428 193.497 322.43 189.244 315.061 189.244H108.001C100.622 189.244 94.6232 193.497 94.6232 198.734L94.6435 206.093Z" fill="#231F20"/>
<path d="M292.051 217.603H133.335V233.396H292.051V217.603Z" fill="white"/>
<path d="M292.051 233.904H133.335C133.201 233.904 133.071 233.851 132.976 233.755C132.881 233.66 132.828 233.531 132.828 233.397V217.603C132.828 217.469 132.881 217.34 132.976 217.244C133.071 217.149 133.201 217.096 133.335 217.096H292.051C292.184 217.098 292.312 217.153 292.407 217.247C292.501 217.342 292.556 217.469 292.558 217.603V233.397C292.558 233.531 292.505 233.66 292.41 233.755C292.314 233.851 292.185 233.904 292.051 233.904ZM133.843 232.889H291.543V218.111H133.843V232.889Z" fill="#231F20"/>
<path d="M292.051 217.603H270.523V233.396H292.051V217.603Z" fill="black"/>
<path d="M292.051 233.904H270.523C270.388 233.904 270.259 233.851 270.164 233.755C270.069 233.66 270.015 233.531 270.015 233.397V217.603C270.015 217.469 270.069 217.34 270.164 217.244C270.259 217.149 270.388 217.096 270.523 217.096H292.051C292.185 217.098 292.312 217.153 292.407 217.247C292.501 217.342 292.556 217.469 292.558 217.603V233.397C292.558 233.531 292.505 233.66 292.41 233.755C292.314 233.851 292.185 233.904 292.051 233.904ZM271.03 232.889H291.543V218.111H271.071L271.03 232.889Z" fill="#231F20"/>
<path d="M314.005 244.338H232.095V326.249H314.005V244.338Z" fill="#E6E7E8"/>
<path d="M207.065 246.378H115.948V248.408H207.065V246.378Z" fill="black"/>
<path d="M176.554 252.448H115.948V254.478H176.554V252.448Z" fill="black"/>
<path d="M213.662 258.508H115.948V260.538H213.662V258.508Z" fill="#D1D3D4"/>
<path d="M201.838 264.577H115.948V266.607H201.838V264.577Z" fill="#D1D3D4"/>
<path d="M129.56 271.053H116.639V272.068H129.56V271.053Z" fill="#D1D3D4"/>
<path d="M140.481 271.053H133.335V272.068H140.481V271.053Z" fill="#D1D3D4"/>
<path d="M150.682 271.053H143.78V272.068H150.682V271.053Z" fill="#D1D3D4"/>
<path d="M187.414 283.02H115.948V285.05H187.414V283.02Z" fill="black"/>
<path d="M201.838 289.089H115.948V291.119H201.838V289.089Z" fill="black"/>
<path d="M173.397 295.149H115.948V297.179H173.397V295.149Z" fill="#D1D3D4"/>
<path d="M191.261 301.219H115.948V303.249H191.261V301.219Z" fill="#D1D3D4"/>
<path d="M123.094 307.694H116.639V308.709H123.094V307.694Z" fill="#D1D3D4"/>
<path d="M140.481 307.694H126.393V308.709H140.481V307.694Z" fill="#D1D3D4"/>
<path d="M148.449 307.694H143.78V308.709H148.449V307.694Z" fill="#D1D3D4"/>
<path d="M195.859 319.661H115.948V321.691H195.859V319.661Z" fill="black"/>
<path d="M207.065 325.731H115.948V327.761H207.065V325.731Z" fill="black"/>
<path d="M178.34 331.791H115.948V333.821H178.34V331.791Z" fill="#D1D3D4"/>
<path d="M167.348 337.85H115.948V339.88H167.348V337.85Z" fill="#D1D3D4"/>
<path d="M133.437 344.336H116.639V345.351H133.437V344.336Z" fill="#D1D3D4"/>
<path d="M147.231 344.336H137.73V345.351H147.231V344.336Z" fill="#D1D3D4"/>
<path d="M109.798 201.008C111.648 201.008 113.147 199.508 113.147 197.658C113.147 195.808 111.648 194.309 109.798 194.309C107.948 194.309 106.448 195.808 106.448 197.658C106.448 199.508 107.948 201.008 109.798 201.008Z" fill="black"/>
<path d="M119.866 201.008C121.716 201.008 123.216 199.508 123.216 197.658C123.216 195.808 121.716 194.309 119.866 194.309C118.016 194.309 116.517 195.808 116.517 197.658C116.517 199.508 118.016 201.008 119.866 201.008Z" fill="#E6E7E8"/>
<path d="M129.935 201.008C131.785 201.008 133.284 199.508 133.284 197.658C133.284 195.808 131.785 194.309 129.935 194.309C128.085 194.309 126.585 195.808 126.585 197.658C126.585 199.508 128.085 201.008 129.935 201.008Z" fill="#E6E7E8"/>
<path d="M278.724 228.789C277.731 228.787 276.769 228.441 276.003 227.81C275.236 227.179 274.712 226.301 274.52 225.327C274.327 224.353 274.479 223.342 274.948 222.467C275.416 221.592 276.174 220.907 277.092 220.527C278.01 220.148 279.03 220.098 279.98 220.387C280.93 220.676 281.751 221.285 282.302 222.11C282.854 222.936 283.102 223.927 283.005 224.916C282.908 225.904 282.471 226.828 281.769 227.53C281.37 227.931 280.895 228.248 280.373 228.465C279.85 228.681 279.29 228.791 278.724 228.789ZM278.724 221.227C278.294 221.225 277.868 221.308 277.471 221.472C277.074 221.636 276.713 221.877 276.41 222.181C275.95 222.639 275.637 223.223 275.509 223.859C275.382 224.496 275.446 225.155 275.694 225.755C275.942 226.355 276.362 226.868 276.901 227.228C277.441 227.589 278.075 227.782 278.724 227.782C279.373 227.782 280.007 227.589 280.547 227.228C281.086 226.868 281.506 226.355 281.754 225.755C282.002 225.155 282.066 224.496 281.939 223.859C281.811 223.223 281.498 222.639 281.038 222.181C280.735 221.877 280.374 221.636 279.977 221.472C279.579 221.308 279.154 221.225 278.724 221.227Z" fill="#231F20"/>
<path d="M284.52 230.798C284.382 230.798 284.251 230.743 284.154 230.646L281.038 227.53C280.945 227.435 280.893 227.307 280.893 227.174C280.893 227.041 280.945 226.914 281.038 226.819C281.085 226.771 281.141 226.734 281.203 226.708C281.265 226.682 281.331 226.669 281.398 226.669C281.465 226.669 281.532 226.682 281.594 226.708C281.655 226.734 281.712 226.771 281.759 226.819L284.875 229.935C284.944 230.006 284.992 230.096 285.011 230.193C285.03 230.291 285.02 230.392 284.982 230.484C284.944 230.575 284.88 230.654 284.798 230.71C284.716 230.766 284.619 230.796 284.52 230.798Z" fill="#231F20"/>
<path d="M343.461 272.636H260.119V334.46H343.461V272.636Z" fill="white"/>
<path d="M343.46 334.968H260.119C259.984 334.968 259.855 334.914 259.76 334.819C259.665 334.724 259.611 334.595 259.611 334.46V272.636C259.611 272.502 259.665 272.373 259.76 272.278C259.855 272.182 259.984 272.129 260.119 272.129H343.46C343.594 272.132 343.722 272.186 343.816 272.28C343.911 272.375 343.965 272.503 343.968 272.636V334.46C343.968 334.595 343.915 334.724 343.819 334.819C343.724 334.914 343.595 334.968 343.46 334.968ZM260.626 333.953H342.953V273.144H260.626V333.953Z" fill="#231F20"/>
<path d="M269.041 322.798H268.94C261.662 322.564 259.663 315.632 259.642 315.561C259.624 315.494 259.62 315.425 259.628 315.356C259.637 315.288 259.66 315.222 259.694 315.162C259.728 315.102 259.774 315.05 259.829 315.007C259.884 314.965 259.946 314.934 260.013 314.916C260.079 314.898 260.149 314.894 260.217 314.903C260.286 314.911 260.352 314.934 260.412 314.968C260.472 315.003 260.524 315.048 260.566 315.103C260.608 315.158 260.639 315.22 260.657 315.287C260.728 315.551 262.494 321.57 269.011 321.783H269.041C272.248 321.783 274.512 313.186 276.501 305.543C278.531 297.626 280.561 290.145 283.86 289.374C284.514 289.192 285.198 289.146 285.87 289.238C286.542 289.331 287.188 289.56 287.768 289.912C290.711 291.769 291.828 296.966 293.178 302.975C293.846 306.385 294.735 309.748 295.837 313.044C297.603 317.936 300.912 320.971 304.099 320.605C308.048 320.149 311.032 314.627 312.057 305.827C314.99 280.736 323.699 277.986 327.282 277.965H327.414C336.386 277.965 341.025 282.787 343.948 295.129C343.963 295.196 343.965 295.265 343.954 295.332C343.943 295.4 343.918 295.464 343.882 295.522C343.809 295.639 343.692 295.722 343.557 295.753C343.423 295.784 343.281 295.76 343.164 295.687C343.047 295.614 342.964 295.497 342.933 295.362C340.101 283.436 335.889 278.98 327.383 278.98H327.261C320.309 278.98 314.98 289.13 313.051 305.949C311.955 315.378 308.728 321.093 304.201 321.61C300.557 322.047 296.801 318.728 294.873 313.389C293.759 310.066 292.857 306.676 292.173 303.239C290.955 297.687 289.808 292.449 287.21 290.805C286.743 290.524 286.224 290.343 285.684 290.273C285.144 290.204 284.596 290.246 284.073 290.399C281.353 291.039 279.293 298.905 277.476 305.837C275.131 314.556 273.01 322.798 269.041 322.798Z" fill="#231F20"/>
<path d="M335.696 309.816H324.054C323.919 309.816 323.79 309.762 323.695 309.667C323.6 309.572 323.546 309.443 323.546 309.308C323.546 309.174 323.6 309.045 323.695 308.949C323.79 308.854 323.919 308.801 324.054 308.801H335.696C335.831 308.801 335.96 308.854 336.055 308.949C336.15 309.045 336.203 309.174 336.203 309.308C336.203 309.443 336.15 309.572 336.055 309.667C335.96 309.762 335.831 309.816 335.696 309.816Z" fill="#D1D3D4"/>
<path d="M335.696 314.617H324.054C323.919 314.617 323.79 314.563 323.695 314.468C323.6 314.373 323.546 314.244 323.546 314.109C323.546 313.974 323.6 313.845 323.695 313.75C323.79 313.655 323.919 313.602 324.054 313.602H335.696C335.831 313.602 335.96 313.655 336.055 313.75C336.15 313.845 336.203 313.974 336.203 314.109C336.203 314.244 336.15 314.373 336.055 314.468C335.96 314.563 335.831 314.617 335.696 314.617Z" fill="#D1D3D4"/>
<path d="M329.87 319.397H324.054C323.919 319.397 323.79 319.344 323.695 319.249C323.6 319.153 323.546 319.024 323.546 318.89C323.546 318.755 323.6 318.626 323.695 318.531C323.79 318.436 323.919 318.382 324.054 318.382H329.87C330.004 318.382 330.133 318.436 330.229 318.531C330.324 318.626 330.377 318.755 330.377 318.89C330.377 319.024 330.324 319.153 330.229 319.249C330.133 319.344 330.004 319.397 329.87 319.397Z" fill="#D1D3D4"/>
<path d="M280.206 279.021H268.564C268.429 279.021 268.3 278.967 268.205 278.872C268.11 278.777 268.056 278.648 268.056 278.513C268.056 278.379 268.11 278.25 268.205 278.154C268.3 278.059 268.429 278.006 268.564 278.006H280.206C280.34 278.006 280.469 278.059 280.565 278.154C280.66 278.25 280.713 278.379 280.713 278.513C280.711 278.647 280.656 278.775 280.562 278.869C280.467 278.964 280.339 279.018 280.206 279.021Z" fill="#D1D3D4"/>
<path d="M280.206 283.872H268.564C268.429 283.872 268.3 283.819 268.205 283.724C268.11 283.629 268.056 283.5 268.056 283.365C268.056 283.23 268.11 283.101 268.205 283.006C268.3 282.911 268.429 282.857 268.564 282.857H280.206C280.339 282.86 280.467 282.914 280.562 283.009C280.656 283.104 280.711 283.231 280.713 283.365C280.713 283.5 280.66 283.629 280.565 283.724C280.469 283.819 280.34 283.872 280.206 283.872Z" fill="#D1D3D4"/>
<path d="M274.38 288.633H268.564C268.429 288.633 268.3 288.579 268.205 288.484C268.11 288.389 268.056 288.26 268.056 288.125C268.056 287.991 268.11 287.861 268.205 287.766C268.3 287.671 268.429 287.618 268.564 287.618H274.38C274.514 287.618 274.643 287.671 274.738 287.766C274.834 287.861 274.887 287.991 274.887 288.125C274.887 288.26 274.834 288.389 274.738 288.484C274.643 288.579 274.514 288.633 274.38 288.633Z" fill="#D1D3D4"/>
<path d="M120.48 285.051L110.375 279.887L98.0981 303.91L108.203 309.075L120.48 285.051Z" fill="#231F20"/>
<path d="M108.194 309.582C108.115 309.581 108.039 309.56 107.97 309.521L97.8204 304.365C97.7603 304.336 97.7066 304.295 97.6626 304.245C97.6186 304.195 97.5852 304.136 97.5644 304.072C97.5435 304.009 97.5357 303.942 97.5413 303.875C97.5469 303.809 97.5659 303.744 97.5971 303.685L109.879 279.66C109.908 279.6 109.949 279.546 109.999 279.502C110.05 279.459 110.109 279.426 110.173 279.406C110.297 279.355 110.435 279.355 110.559 279.406L120.709 284.573C120.768 284.603 120.821 284.644 120.864 284.695C120.907 284.745 120.939 284.804 120.959 284.868C120.979 284.931 120.986 284.998 120.979 285.064C120.973 285.13 120.953 285.194 120.922 285.253L108.671 309.308C108.606 309.423 108.501 309.509 108.376 309.552C108.319 309.575 108.256 309.586 108.194 309.582ZM98.7745 303.695L107.981 308.395L119.836 285.273L110.64 280.563L98.7745 303.695Z" fill="#231F20"/>
<path d="M111.162 301.981L102.106 297.352C100.863 296.717 99.3405 297.21 98.7053 298.453L77.6101 339.73C76.9749 340.972 77.4676 342.495 78.7105 343.13L87.7666 347.758C89.0095 348.394 90.532 347.901 91.1672 346.658L112.262 305.381C112.898 304.138 112.405 302.616 111.162 301.981Z" fill="white"/>
<path d="M88.9188 348.548C88.4417 348.549 87.9714 348.434 87.5485 348.213L78.4744 343.585C77.7661 343.216 77.2309 342.584 76.9841 341.825C76.7373 341.066 76.7986 340.24 77.1549 339.525L98.2568 298.245C98.6254 297.537 99.2574 297.001 100.017 296.755C100.776 296.508 101.602 296.569 102.317 296.925L111.381 301.554C112.089 301.922 112.624 302.554 112.871 303.314C113.118 304.073 113.057 304.899 112.7 305.614L91.6187 346.894C91.3637 347.391 90.9769 347.808 90.5007 348.1C90.0245 348.391 89.4773 348.547 88.9188 348.548ZM100.957 297.585C100.746 297.583 100.537 297.618 100.338 297.687C100.084 297.77 99.8499 297.903 99.6478 298.077C99.4458 298.251 99.2801 298.463 99.1601 298.702L78.0583 339.972C77.8199 340.449 77.779 341.001 77.9442 341.508C78.1095 342.015 78.4676 342.437 78.9413 342.682L88.0053 347.31C88.4812 347.549 89.032 347.592 89.539 347.428C90.046 347.265 90.4684 346.909 90.7153 346.437L111.817 305.188C112.056 304.71 112.097 304.159 111.931 303.651C111.766 303.144 111.408 302.723 110.934 302.478L101.87 297.849C101.592 297.686 101.278 297.596 100.957 297.585Z" fill="#231F20"/>
<path d="M138.674 235.548C133.538 232.919 127.737 231.872 122.006 232.541C116.275 233.21 110.871 235.564 106.478 239.306C102.085 243.047 98.901 248.008 97.3286 253.559C95.7563 259.111 95.8664 265.005 97.6449 270.494C99.4235 275.983 102.791 280.822 107.32 284.396C111.85 287.971 117.338 290.122 123.09 290.576C128.842 291.03 134.6 289.768 139.635 286.949C144.669 284.129 148.754 279.88 151.372 274.738C154.876 267.855 155.508 259.864 153.127 252.517C150.747 245.17 145.549 239.068 138.674 235.548ZM115.522 280.828C111.699 278.873 108.54 275.829 106.447 272.08C104.353 268.331 103.419 264.045 103.761 259.764C104.103 255.484 105.707 251.401 108.37 248.032C111.033 244.664 114.635 242.16 118.721 240.838C122.806 239.517 127.192 239.436 131.323 240.607C135.455 241.778 139.146 244.148 141.931 247.417C144.715 250.686 146.468 254.707 146.967 258.972C147.466 263.237 146.689 267.555 144.734 271.378C142.113 276.505 137.563 280.38 132.085 282.152C126.607 283.924 120.649 283.448 115.522 280.828Z" fill="white"/>
<path d="M125.378 291.191C117.884 291.211 110.658 288.403 105.143 283.33C99.628 278.256 96.2294 271.289 95.6256 263.819C95.0219 256.35 97.2575 248.927 101.886 243.034C106.515 237.14 113.196 233.209 120.595 232.025C127.995 230.841 135.569 232.491 141.806 236.646C148.042 240.802 152.482 247.156 154.239 254.441C155.996 261.726 154.941 269.406 151.284 275.947C147.628 282.488 141.639 287.41 134.513 289.729C131.563 290.694 128.48 291.187 125.378 291.191ZM125.438 232.849C122.433 232.852 119.447 233.325 116.588 234.249C109.762 236.471 104.024 241.183 100.519 247.447C97.0139 253.711 95.9985 261.066 97.6754 268.046C99.3524 275.025 103.598 281.116 109.567 285.104C115.535 289.092 122.788 290.683 129.877 289.561C136.967 288.439 143.374 284.686 147.819 279.05C152.265 273.414 154.422 266.31 153.862 259.154C153.302 251.998 150.065 245.316 144.797 240.44C139.529 235.564 132.617 232.854 125.438 232.849ZM125.367 283.72C121.866 283.72 118.416 282.889 115.299 281.295C110.446 278.821 106.67 274.652 104.687 269.58C102.704 264.507 102.651 258.883 104.538 253.774C106.426 248.665 110.123 244.427 114.928 241.862C119.733 239.298 125.312 238.586 130.608 239.862C135.903 241.137 140.545 244.312 143.655 248.783C146.765 253.255 148.126 258.712 147.48 264.12C146.834 269.528 144.226 274.511 140.15 278.124C136.074 281.737 130.814 283.728 125.367 283.72ZM115.776 280.391C119.507 282.294 123.718 283.05 127.878 282.562C132.038 282.074 135.961 280.366 139.151 277.651C142.34 274.937 144.655 271.338 145.802 267.31C146.949 263.282 146.878 259.004 145.596 255.016C144.305 251.028 141.86 247.512 138.571 244.913C135.281 242.314 131.296 240.748 127.117 240.414C122.938 240.079 118.754 240.991 115.093 243.033C111.432 245.076 108.459 248.158 106.549 251.89C104.004 256.895 103.546 262.704 105.276 268.046C107.005 273.388 110.78 277.827 115.776 280.391Z" fill="#231F20"/>
</svg>
